<svg width="114" height="354" viewBox="0 0 114 354" fill="none" xmlns="http://www.w3.org/2000/svg">
<path d="M112.5 70H113.5C113.5 69.7348 113.395 69.4804 113.207 69.2929L112.5 70ZM112.5 242L113.207 242.707C113.395 242.52 113.5 242.265 113.5 242H112.5ZM43.1667 6C43.1667 8.94552 45.5545 11.3333 48.5 11.3333C51.4455 11.3333 53.8333 8.94552 53.8333 6C53.8333 3.05448 51.4455 0.666667 48.5 0.666667C45.5545 0.666667 43.1667 3.05448 43.1667 6ZM0.666667 348.5C0.666667 351.446 3.05448 353.833 6 353.833C8.94552 353.833 11.3333 351.446 11.3333 348.5C11.3333 345.554 8.94552 343.167 6 343.167C3.05448 343.167 0.666667 345.554 0.666667 348.5ZM113.5 242V70H111.5V242H113.5ZM113.207 69.2929L49.2071 5.29289L47.7929 6.70711L111.793 70.7071L113.207 69.2929ZM111.793 241.293L5.29289 347.793L6.70711 349.207L113.207 242.707L111.793 241.293Z" fill="#012137"/>
</svg>
