<svg width="2041" height="1639" viewBox="0 0 2041 1639" fill="none" xmlns="http://www.w3.org/2000/svg">
<path d="M302 412L1903.86 1452.26" stroke="#F3F5F7" stroke-width="2"/>
<path d="M223 457L1749.38 1448.24" stroke="#F3F5F7" stroke-width="2"/>
<path d="M597 414L2039.51 1350.78" stroke="#F3F5F7" stroke-width="2"/>
<path d="M518 459L2035.99 1444.8" stroke="#F3F5F7" stroke-width="2"/>
<path d="M80 459L1608.9 1451.88" stroke="#F3F5F7" stroke-width="2"/>
<path d="M1 504L1443.51 1440.78" stroke="#F3F5F7" stroke-width="2"/>
<circle cx="856" cy="543" r="542" stroke="#F3F5F7" stroke-width="2"/>
<circle cx="856" cy="1096" r="542" stroke="#F3F5F7" stroke-width="2"/>
<path d="M833.459 853.371L833.457 853.369C779.39 817.124 727.083 792.265 677.942 780.03C636.223 769.6 597.86 768.383 563.877 776.225C523.443 785.479 490.99 808.228 472.633 840.101C464.556 854.089 456.13 875.898 454.417 907.743C436.07 887.484 419.055 865.72 403.735 842.45C394.756 828.785 394.755 811.22 403.732 797.555C437.811 747.136 482.808 711.909 545.526 697.374C591.947 686.616 643.185 688.002 697.457 701.57C755.722 716.136 816.616 744.48 878.541 786.229L878.543 786.231C932.61 822.476 984.917 847.335 1034.06 859.57C1075.78 870 1114.14 871.217 1148.12 863.374C1188.56 854.121 1221.01 831.371 1239.37 799.499C1247.44 785.511 1255.87 763.702 1257.58 731.857C1275.93 752.115 1292.95 773.88 1308.26 797.149C1317.24 810.814 1317.25 828.38 1308.27 842.046C1274.19 892.464 1229.19 927.691 1166.47 942.226C1120.05 952.984 1068.82 951.598 1014.54 938.03C956.278 923.464 895.384 895.12 833.459 853.371Z" stroke="#B4DBFF" stroke-width="2"/>
<path d="M923.259 719.97L922.315 719.335L922.115 719.735C852.954 673.227 783.972 641.187 716.944 624.43C682.15 615.588 648.267 610.984 615.297 610.623C666.083 585.517 720.809 568.22 777.811 560.023C840.441 580.593 904.082 612.324 967.141 654.829L967.142 654.83C1020.23 690.492 1058.36 703.352 1081.11 707.782L1081.12 707.783C1087.58 708.994 1097.64 710.2 1109.9 710.2C1138.56 710.2 1160.9 705.976 1177.29 701.087C1177.41 701.883 1177.5 702.645 1177.5 703.4V703.445L1177.5 703.49C1179.7 727.83 1177.08 748.373 1170.43 759.901L1170.43 759.904C1163.41 772.185 1149.1 781.465 1130.27 785.826C1104.61 791.771 1072.9 788.815 1037.55 777.597C1002.21 766.382 963.299 746.93 923.259 719.97Z" stroke="#B4DBFF" stroke-width="2"/>
<path d="M788.942 919.63L789.886 920.265L790.086 919.865C859.245 966.372 928.227 998.412 995.254 1015.17C1030.05 1024.01 1064.12 1028.62 1097.1 1028.98C1046.31 1054.08 991.393 1071.38 934.39 1079.58C871.76 1059.01 808.118 1027.28 745.059 984.771L745.058 984.77C691.966 949.108 653.843 936.248 631.091 931.818L631.084 931.817C624.624 930.606 614.562 929.4 602.3 929.4C573.642 929.4 551.301 933.624 534.906 938.513C534.786 937.717 534.7 936.955 534.7 936.2V936.155L534.696 936.11C532.502 911.77 535.124 891.227 541.767 879.699L541.768 879.696C548.786 867.415 563.097 858.135 581.926 853.774L581.926 853.774C607.59 847.829 639.297 850.785 674.648 862.003C709.987 873.218 748.902 892.67 788.942 919.63Z" stroke="#B4DBFF" stroke-width="2"/>
</svg>
