<svg width="63" height="1162" viewBox="0 0 63 1162" fill="none" xmlns="http://www.w3.org/2000/svg">
<path d="M46.6667 1136.5C46.6667 1139.45 49.0545 1141.83 52 1141.83C54.9455 1141.83 57.3333 1139.45 57.3333 1136.5C57.3333 1133.55 54.9455 1131.17 52 1131.17C49.0545 1131.17 46.6667 1133.55 46.6667 1136.5ZM1 1126.5H0V1126.91L0.292893 1127.21L1 1126.5ZM1 36L0.292893 35.2929L0 35.5858V36H1ZM31 6V5H30.5858L30.2929 5.29289L31 6ZM52.1667 6C52.1667 8.94552 54.5545 11.3333 57.5 11.3333C60.4455 11.3333 62.8333 8.94552 62.8333 6C62.8333 3.05448 60.4455 0.666667 57.5 0.666667C54.5545 0.666667 52.1667 3.05448 52.1667 6ZM51 1116.5V1115.5H50.5858L50.2929 1115.79L51 1116.5ZM46.6667 1116.5C46.6667 1119.45 49.0545 1121.83 52 1121.83C54.9455 1121.83 57.3333 1119.45 57.3333 1116.5C57.3333 1113.55 54.9455 1111.17 52 1111.17C49.0545 1111.17 46.6667 1113.55 46.6667 1116.5ZM31 1156.5L30.2929 1157.21L30.5858 1157.5H31V1156.5ZM46.6667 1156.5C46.6667 1159.45 49.0545 1161.83 52 1161.83C54.9455 1161.83 57.3333 1159.45 57.3333 1156.5C57.3333 1153.55 54.9455 1151.17 52 1151.17C49.0545 1151.17 46.6667 1153.55 46.6667 1156.5ZM11.7071 1135.79L1.70711 1125.79L0.292893 1127.21L10.2929 1137.21L11.7071 1135.79ZM1.70711 36.7071L31.7071 6.70711L30.2929 5.29289L0.292893 35.2929L1.70711 36.7071ZM31 7H57.5V5H31V7ZM2 402V36H0V402H2ZM2 1126.5V402H0V1126.5H2ZM52 1135.5H31V1137.5H52V1135.5ZM31.7071 1137.21L51.7071 1117.21L50.2929 1115.79L30.2929 1135.79L31.7071 1137.21ZM51 1117.5H52V1115.5H51V1117.5ZM31 1135.5H11V1137.5H31V1135.5ZM10.2929 1137.21L30.2929 1157.21L31.7071 1155.79L11.7071 1135.79L10.2929 1137.21ZM31 1157.5H52V1155.5H31V1157.5Z" fill="#012137"/>
</svg>
