<svg width="894" height="191" viewBox="0 0 894 191" fill="none" xmlns="http://www.w3.org/2000/svg">
<path d="M828 95.0004L275.5 95" stroke="#1FA4F1" stroke-width="4"/>
<path d="M81 144H530.82C537.672 144 543.936 140.129 547 134V134C550.064 127.871 556.328 124 563.18 124H564" stroke="#B4DBFF" stroke-width="4"/>
<path d="M81 45.5L252.5 45.5M252.5 45.5L272.5 65.5M252.5 45.5H387.216C392.52 45.5 397.607 47.6071 401.358 51.3579L415.5 65.5" stroke="#B4DBFF" stroke-width="4"/>
<g clip-path="url(#clip0_2505_24581)">
<rect x="630" y="50" width="122" height="91" rx="13" fill="white"/>
<path d="M643.625 51H738.928C745.6 51 751 56.3787 751 63V127.45C751 134.377 745.354 140 738.375 140H643.625C636.646 140 631 134.377 631 127.45V63.5503C631 56.6233 636.646 51 643.625 51Z" stroke="#012137" stroke-width="2"/>
<path d="M647.864 66.0117H734.136C735.031 66.0117 735.749 66.7317 735.749 67.6105V123.078C735.749 123.955 735.033 124.676 734.136 124.676H647.864C646.969 124.676 646.251 123.956 646.251 123.078V67.6105C646.251 66.7333 646.967 66.0117 647.864 66.0117Z" stroke="#012137" stroke-width="2"/>
<path d="M692.127 77.8733C692.127 77.8733 692.096 77.855 692.087 77.8428C691.426 77.43 690.568 77.43 689.907 77.8428C689.898 77.8428 689.876 77.8611 689.867 77.8733C688.96 78.4726 688.103 79.1085 687.285 79.7964C688.597 80.4324 689.839 81.1875 690.992 82.0528C696.692 86.3087 700.061 92.9554 700.061 100.094C700.061 105.066 696.009 109.105 691.002 109.105C685.994 109.105 681.942 105.075 681.942 100.094H681.923C681.923 95.9945 683.018 92.1513 684.939 88.8493C688.588 91.28 690.983 95.4074 690.983 100.094C690.983 101.574 690.845 102.938 690.608 104.182H690.992C693.261 104.182 695.103 102.348 695.103 100.094C695.103 92.5335 690.322 86.0916 683.608 83.5815C679.922 88.2195 677.841 94.0041 677.841 100.082H677.859C677.859 107.298 683.746 113.153 691.002 113.153C698.257 113.153 704.144 107.298 704.144 100.082C704.144 91.121 699.649 82.8141 692.127 77.8642V77.8733Z" fill="#1FA4F1"/>
</g>
<g clip-path="url(#clip1_2505_24581)">
<rect x="630" y="50" width="122" height="91" rx="13" fill="white"/>
<path d="M643.625 51H738.928C745.6 51 751 56.3787 751 63V127.45C751 134.377 745.354 140 738.375 140H643.625C636.646 140 631 134.377 631 127.45V63.5503C631 56.6233 636.646 51 643.625 51Z" stroke="#012137" stroke-width="2"/>
<path d="M647.864 66.0117H734.136C735.031 66.0117 735.749 66.7317 735.749 67.6105V123.078C735.749 123.955 735.033 124.676 734.136 124.676H647.864C646.969 124.676 646.251 123.956 646.251 123.078V67.6105C646.251 66.7333 646.967 66.0117 647.864 66.0117Z" stroke="#012137" stroke-width="2"/>
<path d="M692.127 77.8733C692.127 77.8733 692.096 77.855 692.087 77.8428C691.426 77.43 690.568 77.43 689.907 77.8428C689.898 77.8428 689.876 77.8611 689.867 77.8733C688.96 78.4726 688.103 79.1085 687.285 79.7964C688.597 80.4324 689.839 81.1875 690.992 82.0528C696.692 86.3087 700.061 92.9554 700.061 100.094C700.061 105.066 696.009 109.105 691.002 109.105C685.994 109.105 681.942 105.075 681.942 100.094H681.923C681.923 95.9945 683.018 92.1513 684.939 88.8493C688.588 91.28 690.983 95.4074 690.983 100.094C690.983 101.574 690.845 102.938 690.608 104.182H690.992C693.261 104.182 695.103 102.348 695.103 100.094C695.103 92.5335 690.322 86.0916 683.608 83.5815C679.922 88.2195 677.841 94.0041 677.841 100.082H677.859C677.859 107.298 683.746 113.153 691.002 113.153C698.257 113.153 704.144 107.298 704.144 100.082C704.144 91.121 699.649 82.8141 692.127 77.8642V77.8733Z" fill="#1FA4F1"/>
</g>
<mask id="path-12-inside-1_2505_24581" fill="white">
<path fill-rule="evenodd" clip-rule="evenodd" d="M819 35.5C819 31.3579 815.642 28 811.5 28C807.358 28 804 31.3579 804 35.5V52H783.5C779.358 52 776 55.3579 776 59.5C776 62.2785 777.511 64.704 779.756 66C778.875 66.5084 778.107 67.1907 777.499 68H767.5C765.015 68 763 70.0147 763 72.5C763 74.9853 765.015 77 767.5 77H777.499C778.868 78.8217 781.046 80 783.5 80H785L785 89H781.5C777.358 89 774 92.3579 774 96.5C774 100.642 777.358 104 781.5 104H803V107H777.5C773.358 107 770 110.358 770 114.5C770 118.642 773.358 122 777.5 122H803.458C804.732 126.057 808.522 129 813 129H816V134.5C816 135.102 816.082 135.684 816.235 136.237C816.083 136.629 816 137.055 816 137.5C816 139.433 817.567 141 819.5 141H822.49L822.5 141L822.51 141H865.5C867.433 141 869 139.433 869 137.5C869 135.567 867.433 134 865.5 134H863.826C863.94 133.518 864 133.016 864 132.5V129H869C874.523 129 879 124.523 879 119V102C879 96.4771 874.523 92 869 92H866.95L860.022 80H865.5C869.642 80 873 76.6421 873 72.5C873 70.3269 872.076 68.3697 870.599 67H886.5C890.642 67 894 63.6421 894 59.5C894 55.3579 890.642 52 886.5 52H819V35.5ZM800 89V80H803V89H800ZM851 132.5C851 133.016 851.06 133.518 851.174 134H829V129H851V132.5Z"/>
</mask>
<path fill-rule="evenodd" clip-rule="evenodd" d="M819 35.5C819 31.3579 815.642 28 811.5 28C807.358 28 804 31.3579 804 35.5V52H783.5C779.358 52 776 55.3579 776 59.5C776 62.2785 777.511 64.704 779.756 66C778.875 66.5084 778.107 67.1907 777.499 68H767.5C765.015 68 763 70.0147 763 72.5C763 74.9853 765.015 77 767.5 77H777.499C778.868 78.8217 781.046 80 783.5 80H785L785 89H781.5C777.358 89 774 92.3579 774 96.5C774 100.642 777.358 104 781.5 104H803V107H777.5C773.358 107 770 110.358 770 114.5C770 118.642 773.358 122 777.5 122H803.458C804.732 126.057 808.522 129 813 129H816V134.5C816 135.102 816.082 135.684 816.235 136.237C816.083 136.629 816 137.055 816 137.5C816 139.433 817.567 141 819.5 141H822.49L822.5 141L822.51 141H865.5C867.433 141 869 139.433 869 137.5C869 135.567 867.433 134 865.5 134H863.826C863.94 133.518 864 133.016 864 132.5V129H869C874.523 129 879 124.523 879 119V102C879 96.4771 874.523 92 869 92H866.95L860.022 80H865.5C869.642 80 873 76.6421 873 72.5C873 70.3269 872.076 68.3697 870.599 67H886.5C890.642 67 894 63.6421 894 59.5C894 55.3579 890.642 52 886.5 52H819V35.5ZM800 89V80H803V89H800ZM851 132.5C851 133.016 851.06 133.518 851.174 134H829V129H851V132.5Z" fill="white"/>
<path d="M804 52V54H806V52H804ZM779.756 66L780.756 67.7321L783.756 66L780.756 64.2679L779.756 66ZM777.499 68V70H778.499L779.099 69.2012L777.499 68ZM777.499 77L779.099 75.7988L778.499 75H777.499V77ZM785 80H787V78H785V80ZM785 89V91H787V89H785ZM803 104H805V102H803V104ZM803 107V109H805V107H803ZM803.458 122L805.366 121.401L804.926 120H803.458V122ZM816 129H818V127H816V129ZM816.235 136.237L818.1 136.959L818.339 136.342L818.162 135.704L816.235 136.237ZM822.49 141L822.491 139H822.49V141ZM822.5 141L822.498 143H822.502L822.5 141ZM822.51 141V139H822.509L822.51 141ZM863.826 134L861.88 133.54L861.299 136H863.826V134ZM864 129V127H862V129H864ZM866.95 92L865.218 93L865.796 94H866.95V92ZM860.022 80V78H856.558L858.29 81L860.022 80ZM870.599 67V65H865.502L869.239 68.4663L870.599 67ZM819 52H817V54H819V52ZM800 80V78H798V80H800ZM800 89H798V91H800V89ZM803 80H805V78H803V80ZM803 89V91H805V89H803ZM851.174 134V136H853.701L853.12 133.54L851.174 134ZM829 134H827V136H829V134ZM829 129V127H827V129H829ZM851 129H853V127H851V129ZM811.5 30C814.538 30 817 32.4624 817 35.5H821C821 30.2533 816.747 26 811.5 26V30ZM806 35.5C806 32.4624 808.462 30 811.5 30V26C806.253 26 802 30.2533 802 35.5H806ZM806 52V35.5H802V52H806ZM783.5 54H804V50H783.5V54ZM778 59.5C778 56.4624 780.462 54 783.5 54V50C778.253 50 774 54.2533 774 59.5H778ZM780.756 64.2679C779.104 63.3145 778 61.535 778 59.5H774C774 63.0219 775.918 66.0936 778.756 67.7321L780.756 64.2679ZM779.099 69.2012C779.545 68.6063 780.11 68.1051 780.756 67.7321L778.756 64.2679C777.64 64.9118 776.669 65.7751 775.9 66.7988L779.099 69.2012ZM767.5 70H777.499V66H767.5V70ZM765 72.5C765 71.1193 766.119 70 767.5 70V66C763.91 66 761 68.9101 761 72.5H765ZM767.5 75C766.119 75 765 73.8807 765 72.5H761C761 76.0899 763.91 79 767.5 79V75ZM777.499 75H767.5V79H777.499V75ZM783.5 78C781.702 78 780.105 77.1392 779.099 75.7988L775.9 78.2012C777.63 80.5041 780.391 82 783.5 82V78ZM785 78H783.5V82H785V78ZM787 89L787 80H783L783 89H787ZM781.5 91H785V87H781.5V91ZM776 96.5C776 93.4624 778.462 91 781.5 91V87C776.253 87 772 91.2533 772 96.5H776ZM781.5 102C778.462 102 776 99.5376 776 96.5H772C772 101.747 776.253 106 781.5 106V102ZM803 102H781.5V106H803V102ZM805 107V104H801V107H805ZM777.5 109H803V105H777.5V109ZM772 114.5C772 111.462 774.462 109 777.5 109V105C772.253 105 768 109.253 768 114.5H772ZM777.5 120C774.462 120 772 117.538 772 114.5H768C768 119.747 772.253 124 777.5 124V120ZM803.458 120H777.5V124H803.458V120ZM813 127C809.421 127 806.386 124.648 805.366 121.401L801.55 122.599C803.078 127.466 807.624 131 813 131V127ZM816 127H813V131H816V127ZM818 134.5V129H814V134.5H818ZM818.162 135.704C818.057 135.323 818 134.92 818 134.5H814C814 135.284 814.107 136.045 814.307 136.771L818.162 135.704ZM818 137.5C818 137.306 818.036 137.124 818.1 136.959L814.37 135.515C814.13 136.134 814 136.804 814 137.5H818ZM819.5 139C818.672 139 818 138.328 818 137.5H814C814 140.538 816.462 143 819.5 143V139ZM822.49 139H819.5V143H822.49V139ZM822.502 139L822.491 139L822.488 143L822.498 143L822.502 139ZM822.509 139L822.498 139L822.502 143L822.512 143L822.509 139ZM865.5 139H822.51V143H865.5V139ZM867 137.5C867 138.328 866.328 139 865.5 139V143C868.538 143 871 140.538 871 137.5H867ZM865.5 136C866.328 136 867 136.672 867 137.5H871C871 134.462 868.538 132 865.5 132V136ZM863.826 136H865.5V132H863.826V136ZM862 132.5C862 132.86 861.958 133.208 861.88 133.54L865.773 134.46C865.922 133.829 866 133.172 866 132.5H862ZM862 129V132.5H866V129H862ZM869 127H864V131H869V127ZM877 119C877 123.418 873.418 127 869 127V131C875.627 131 881 125.627 881 119H877ZM877 102V119H881V102H877ZM869 94C873.418 94 877 97.5817 877 102H881C881 95.3726 875.627 90 869 90V94ZM866.95 94H869V90H866.95V94ZM858.29 81L865.218 93L868.683 91L861.754 79L858.29 81ZM865.5 78H860.022V82H865.5V78ZM871 72.5C871 75.5376 868.538 78 865.5 78V82C870.747 82 875 77.7467 875 72.5H871ZM869.239 68.4663C870.325 69.4735 871 70.9064 871 72.5H875C875 69.7475 873.827 67.266 871.959 65.5337L869.239 68.4663ZM886.5 65H870.599V69H886.5V65ZM892 59.5C892 62.5376 889.538 65 886.5 65V69C891.747 69 896 64.7467 896 59.5H892ZM886.5 54C889.538 54 892 56.4624 892 59.5H896C896 54.2533 891.747 50 886.5 50V54ZM819 54H886.5V50H819V54ZM817 35.5V52H821V35.5H817ZM798 80V89H802V80H798ZM803 78H800V82H803V78ZM805 89V80H801V89H805ZM800 91H803V87H800V91ZM853.12 133.54C853.042 133.208 853 132.86 853 132.5H849C849 133.172 849.078 133.829 849.227 134.46L853.12 133.54ZM829 136H851.174V132H829V136ZM827 129V134H831V129H827ZM851 127H829V131H851V127ZM853 132.5V129H849V132.5H853Z" fill="#012137" mask="url(#path-12-inside-1_2505_24581)"/>
<path d="M845.97 97.0198C845.97 103.63 840.6 109 833.99 109C827.38 109 822.01 103.63 822.01 97.0198C822.01 90.4098 827.38 85.0398 833.99 85.0398C837.67 85.0398 840.96 86.7098 843.16 89.3198C840.66 89.4798 838.17 89.2398 835.78 88.6098V92.8598C837.7 93.2798 839.67 93.5098 841.66 93.5098C843.5 93.5098 845.36 93.3198 847.21 92.9498C847.85 92.7898 848.39 92.3198 848.64 91.7098C848.69 91.5898 848.72 91.4798 848.75 91.3598C849.53 87.5398 849.47 83.6898 848.65 80.0098H844.39C844.87 81.8298 845.13 83.7198 845.15 85.6298C842.27 82.7998 838.34 81.0498 833.99 81.0498C825.18 81.0498 818.01 88.2198 818.01 97.0298C818.01 105.84 825.18 113.01 833.99 113.01C842.8 113.01 849.97 105.84 849.97 97.0298H845.97V97.0198Z" fill="#1FA4F1"/>
<path d="M870 66H781.5" stroke="#012137" stroke-width="2"/>
<path d="M836 48L836 52" stroke="#012137" stroke-width="2" stroke-linecap="round"/>
<path d="M853 48L853 52" stroke="#012137" stroke-width="2" stroke-linecap="round"/>
<path d="M870 48L870 52" stroke="#012137" stroke-width="2" stroke-linecap="round"/>
<path d="M887 48L887 52" stroke="#012137" stroke-width="2" stroke-linecap="round"/>
<path d="M804 121L804 91" stroke="#012137" stroke-width="2"/>
<path d="M799 90L786 90" stroke="#012137" stroke-width="2"/>
<path d="M799 79L786 79" stroke="#012137" stroke-width="2"/>
<path d="M866 128L817 128" stroke="#012137" stroke-width="2"/>
<mask id="path-24-inside-2_2505_24581" fill="white">
<path fill-rule="evenodd" clip-rule="evenodd" d="M819 35.5C819 31.3579 815.642 28 811.5 28C807.358 28 804 31.3579 804 35.5V52H783.5C779.358 52 776 55.3579 776 59.5C776 62.2785 777.511 64.704 779.756 66C778.875 66.5084 778.107 67.1907 777.499 68H767.5C765.015 68 763 70.0147 763 72.5C763 74.9853 765.015 77 767.5 77H777.499C778.868 78.8217 781.046 80 783.5 80H785L785 89H781.5C777.358 89 774 92.3579 774 96.5C774 100.642 777.358 104 781.5 104H803V107H777.5C773.358 107 770 110.358 770 114.5C770 118.642 773.358 122 777.5 122H803.458C804.732 126.057 808.522 129 813 129H816V134.5C816 135.102 816.082 135.684 816.235 136.237C816.083 136.629 816 137.055 816 137.5C816 139.433 817.567 141 819.5 141H822.49L822.5 141L822.51 141H865.5C867.433 141 869 139.433 869 137.5C869 135.567 867.433 134 865.5 134H863.826C863.94 133.518 864 133.016 864 132.5V129H869C874.523 129 879 124.523 879 119V102C879 96.4771 874.523 92 869 92H866.95L860.022 80H865.5C869.642 80 873 76.6421 873 72.5C873 70.3269 872.076 68.3697 870.599 67H886.5C890.642 67 894 63.6421 894 59.5C894 55.3579 890.642 52 886.5 52H819V35.5ZM800 89V80H803V89H800ZM851 132.5C851 133.016 851.06 133.518 851.174 134H829V129H851V132.5Z"/>
</mask>
<path fill-rule="evenodd" clip-rule="evenodd" d="M819 35.5C819 31.3579 815.642 28 811.5 28C807.358 28 804 31.3579 804 35.5V52H783.5C779.358 52 776 55.3579 776 59.5C776 62.2785 777.511 64.704 779.756 66C778.875 66.5084 778.107 67.1907 777.499 68H767.5C765.015 68 763 70.0147 763 72.5C763 74.9853 765.015 77 767.5 77H777.499C778.868 78.8217 781.046 80 783.5 80H785L785 89H781.5C777.358 89 774 92.3579 774 96.5C774 100.642 777.358 104 781.5 104H803V107H777.5C773.358 107 770 110.358 770 114.5C770 118.642 773.358 122 777.5 122H803.458C804.732 126.057 808.522 129 813 129H816V134.5C816 135.102 816.082 135.684 816.235 136.237C816.083 136.629 816 137.055 816 137.5C816 139.433 817.567 141 819.5 141H822.49L822.5 141L822.51 141H865.5C867.433 141 869 139.433 869 137.5C869 135.567 867.433 134 865.5 134H863.826C863.94 133.518 864 133.016 864 132.5V129H869C874.523 129 879 124.523 879 119V102C879 96.4771 874.523 92 869 92H866.95L860.022 80H865.5C869.642 80 873 76.6421 873 72.5C873 70.3269 872.076 68.3697 870.599 67H886.5C890.642 67 894 63.6421 894 59.5C894 55.3579 890.642 52 886.5 52H819V35.5ZM800 89V80H803V89H800ZM851 132.5C851 133.016 851.06 133.518 851.174 134H829V129H851V132.5Z" fill="white"/>
<path d="M804 52V54H806V52H804ZM779.756 66L780.756 67.7321L783.756 66L780.756 64.2679L779.756 66ZM777.499 68V70H778.499L779.099 69.2012L777.499 68ZM777.499 77L779.099 75.7988L778.499 75H777.499V77ZM785 80H787V78H785V80ZM785 89V91H787V89H785ZM803 104H805V102H803V104ZM803 107V109H805V107H803ZM803.458 122L805.366 121.401L804.926 120H803.458V122ZM816 129H818V127H816V129ZM816.235 136.237L818.1 136.959L818.339 136.342L818.162 135.704L816.235 136.237ZM822.49 141L822.491 139H822.49V141ZM822.5 141L822.498 143H822.502L822.5 141ZM822.51 141V139H822.509L822.51 141ZM863.826 134L861.88 133.54L861.299 136H863.826V134ZM864 129V127H862V129H864ZM866.95 92L865.218 93L865.796 94H866.95V92ZM860.022 80V78H856.558L858.29 81L860.022 80ZM870.599 67V65H865.502L869.239 68.4663L870.599 67ZM819 52H817V54H819V52ZM800 80V78H798V80H800ZM800 89H798V91H800V89ZM803 80H805V78H803V80ZM803 89V91H805V89H803ZM851.174 134V136H853.701L853.12 133.54L851.174 134ZM829 134H827V136H829V134ZM829 129V127H827V129H829ZM851 129H853V127H851V129ZM811.5 30C814.538 30 817 32.4624 817 35.5H821C821 30.2533 816.747 26 811.5 26V30ZM806 35.5C806 32.4624 808.462 30 811.5 30V26C806.253 26 802 30.2533 802 35.5H806ZM806 52V35.5H802V52H806ZM783.5 54H804V50H783.5V54ZM778 59.5C778 56.4624 780.462 54 783.5 54V50C778.253 50 774 54.2533 774 59.5H778ZM780.756 64.2679C779.104 63.3145 778 61.535 778 59.5H774C774 63.0219 775.918 66.0936 778.756 67.7321L780.756 64.2679ZM779.099 69.2012C779.545 68.6063 780.11 68.1051 780.756 67.7321L778.756 64.2679C777.64 64.9118 776.669 65.7751 775.9 66.7988L779.099 69.2012ZM767.5 70H777.499V66H767.5V70ZM765 72.5C765 71.1193 766.119 70 767.5 70V66C763.91 66 761 68.9101 761 72.5H765ZM767.5 75C766.119 75 765 73.8807 765 72.5H761C761 76.0899 763.91 79 767.5 79V75ZM777.499 75H767.5V79H777.499V75ZM783.5 78C781.702 78 780.105 77.1392 779.099 75.7988L775.9 78.2012C777.63 80.5041 780.391 82 783.5 82V78ZM785 78H783.5V82H785V78ZM787 89L787 80H783L783 89H787ZM781.5 91H785V87H781.5V91ZM776 96.5C776 93.4624 778.462 91 781.5 91V87C776.253 87 772 91.2533 772 96.5H776ZM781.5 102C778.462 102 776 99.5376 776 96.5H772C772 101.747 776.253 106 781.5 106V102ZM803 102H781.5V106H803V102ZM805 107V104H801V107H805ZM777.5 109H803V105H777.5V109ZM772 114.5C772 111.462 774.462 109 777.5 109V105C772.253 105 768 109.253 768 114.5H772ZM777.5 120C774.462 120 772 117.538 772 114.5H768C768 119.747 772.253 124 777.5 124V120ZM803.458 120H777.5V124H803.458V120ZM813 127C809.421 127 806.386 124.648 805.366 121.401L801.55 122.599C803.078 127.466 807.624 131 813 131V127ZM816 127H813V131H816V127ZM818 134.5V129H814V134.5H818ZM818.162 135.704C818.057 135.323 818 134.92 818 134.5H814C814 135.284 814.107 136.045 814.307 136.771L818.162 135.704ZM818 137.5C818 137.306 818.036 137.124 818.1 136.959L814.37 135.515C814.13 136.134 814 136.804 814 137.5H818ZM819.5 139C818.672 139 818 138.328 818 137.5H814C814 140.538 816.462 143 819.5 143V139ZM822.49 139H819.5V143H822.49V139ZM822.502 139L822.491 139L822.488 143L822.498 143L822.502 139ZM822.509 139L822.498 139L822.502 143L822.512 143L822.509 139ZM865.5 139H822.51V143H865.5V139ZM867 137.5C867 138.328 866.328 139 865.5 139V143C868.538 143 871 140.538 871 137.5H867ZM865.5 136C866.328 136 867 136.672 867 137.5H871C871 134.462 868.538 132 865.5 132V136ZM863.826 136H865.5V132H863.826V136ZM862 132.5C862 132.86 861.958 133.208 861.88 133.54L865.773 134.46C865.922 133.829 866 133.172 866 132.5H862ZM862 129V132.5H866V129H862ZM869 127H864V131H869V127ZM877 119C877 123.418 873.418 127 869 127V131C875.627 131 881 125.627 881 119H877ZM877 102V119H881V102H877ZM869 94C873.418 94 877 97.5817 877 102H881C881 95.3726 875.627 90 869 90V94ZM866.95 94H869V90H866.95V94ZM858.29 81L865.218 93L868.683 91L861.754 79L858.29 81ZM865.5 78H860.022V82H865.5V78ZM871 72.5C871 75.5376 868.538 78 865.5 78V82C870.747 82 875 77.7467 875 72.5H871ZM869.239 68.4663C870.325 69.4735 871 70.9064 871 72.5H875C875 69.7475 873.827 67.266 871.959 65.5337L869.239 68.4663ZM886.5 65H870.599V69H886.5V65ZM892 59.5C892 62.5376 889.538 65 886.5 65V69C891.747 69 896 64.7467 896 59.5H892ZM886.5 54C889.538 54 892 56.4624 892 59.5H896C896 54.2533 891.747 50 886.5 50V54ZM819 54H886.5V50H819V54ZM817 35.5V52H821V35.5H817ZM798 80V89H802V80H798ZM803 78H800V82H803V78ZM805 89V80H801V89H805ZM800 91H803V87H800V91ZM853.12 133.54C853.042 133.208 853 132.86 853 132.5H849C849 133.172 849.078 133.829 849.227 134.46L853.12 133.54ZM829 136H851.174V132H829V136ZM827 129V134H831V129H827ZM851 127H829V131H851V127ZM853 132.5V129H849V132.5H853Z" fill="#012137" mask="url(#path-24-inside-2_2505_24581)"/>
<path d="M845.97 97.0198C845.97 103.63 840.6 109 833.99 109C827.38 109 822.01 103.63 822.01 97.0198C822.01 90.4098 827.38 85.0398 833.99 85.0398C837.67 85.0398 840.96 86.7098 843.16 89.3198C840.66 89.4798 838.17 89.2398 835.78 88.6098V92.8598C837.7 93.2798 839.67 93.5098 841.66 93.5098C843.5 93.5098 845.36 93.3198 847.21 92.9498C847.85 92.7898 848.39 92.3198 848.64 91.7098C848.69 91.5898 848.72 91.4798 848.75 91.3598C849.53 87.5398 849.47 83.6898 848.65 80.0098H844.39C844.87 81.8298 845.13 83.7198 845.15 85.6298C842.27 82.7998 838.34 81.0498 833.99 81.0498C825.18 81.0498 818.01 88.2198 818.01 97.0298C818.01 105.84 825.18 113.01 833.99 113.01C842.8 113.01 849.97 105.84 849.97 97.0298H845.97V97.0198Z" fill="#1FA4F1"/>
<path d="M870 66H781.5" stroke="#012137" stroke-width="2"/>
<path d="M836 48L836 52" stroke="#012137" stroke-width="2" stroke-linecap="round"/>
<path d="M853 48L853 52" stroke="#012137" stroke-width="2" stroke-linecap="round"/>
<path d="M870 48L870 52" stroke="#012137" stroke-width="2" stroke-linecap="round"/>
<path d="M887 48L887 52" stroke="#012137" stroke-width="2" stroke-linecap="round"/>
<path d="M804 121L804 91" stroke="#012137" stroke-width="2"/>
<path d="M799 90L786 90" stroke="#012137" stroke-width="2"/>
<path d="M799 79L786 79" stroke="#012137" stroke-width="2"/>
<path d="M866 128L817 128" stroke="#012137" stroke-width="2"/>
<g clip-path="url(#clip2_2505_24581)">
<rect width="91" height="91" rx="12" fill="white"/>
<path d="M89.9977 12.999V12.9993V78.0007C89.9977 84.6279 84.6256 90 77.9984 90H12.9993C6.37218 90 1 84.628 1 77.9984V12.9993C1 6.37207 6.37207 1 12.9993 1H78.0007C84.628 1 89.9998 6.37206 89.9977 12.999Z" stroke="#012137" stroke-width="2"/>
<path d="M13.3247 9.125H77.6748C79.9954 9.125 81.8754 11.0067 81.8754 13.3257V64.6764C81.8754 66.997 79.9937 68.8771 77.6748 68.8771H13.3247C11.0041 68.8771 9.12402 66.9953 9.12402 64.6764V13.3257C9.12402 11.005 11.0058 9.125 13.3247 9.125Z" stroke="#012137" stroke-width="2"/>
<path d="M44.3268 40.743C47.4683 42.8572 50.5616 44.3041 53.5197 45.0447C56.2805 45.7372 58.8808 45.8083 61.2473 45.258C64.4369 44.5173 66.7346 42.7196 68.4681 40.1605C68.9336 39.4566 68.9313 38.5348 68.4635 37.8308C67.661 36.6178 66.7735 35.4804 65.8105 34.4256C65.7371 36.1018 65.3014 37.2369 64.8932 37.95C63.9714 39.5506 62.3411 40.6925 60.2979 41.1672C58.5873 41.5639 56.6497 41.4974 54.5424 40.97C52.059 40.3486 49.4105 39.0988 46.6726 37.2575C43.5311 35.1433 40.4378 33.6964 37.4797 32.9557C34.7189 32.2632 32.1186 32.1922 29.7521 32.7425C26.5625 33.4831 24.2648 35.2809 22.5313 37.84C22.0658 38.5439 22.0681 39.4657 22.5359 40.1697C23.3384 41.3827 24.2259 42.5201 25.1889 43.5749C25.2623 41.8987 25.698 40.7636 26.1062 40.0505C27.028 38.4499 28.6583 37.308 30.7014 36.8333C32.4121 36.4366 34.3497 36.5031 36.457 37.0305C38.9404 37.6519 41.5889 38.9016 44.3268 40.743Z" fill="#B4DBFF"/>
<path d="M48.874 33.985C52.9373 36.7183 56.7782 37.9359 59.406 37.326C60.3714 37.1012 61.1052 36.6243 61.4743 35.9822C61.8183 35.3837 61.9513 34.3312 61.8389 33.093C61.8343 33.0311 61.8275 32.9714 61.8206 32.9095C60.9905 33.1641 59.8417 33.3842 58.3649 33.3842C57.7481 33.3842 57.2414 33.3223 56.918 33.2581C55.7761 33.0333 53.8499 32.3867 51.1625 30.5798C47.9545 28.422 44.7281 26.8054 41.5431 25.7598C38.5713 26.1886 35.7187 27.0966 33.084 28.4312C34.813 28.4358 36.6038 28.6697 38.436 29.1283C41.8389 29.9813 45.3496 31.6139 48.8717 33.9827L48.874 33.985Z" fill="#B4DBFF"/>
<path d="M42.1251 44.0147C38.0618 41.2814 34.2209 40.0637 31.593 40.6737C30.6277 40.8984 29.8939 41.3754 29.5247 42.0174C29.1807 42.6159 29.0477 43.6684 29.1601 44.9067C29.1647 44.9686 29.1716 45.0282 29.1785 45.0901C30.0085 44.8356 31.1574 44.6155 32.6341 44.6155C33.2509 44.6155 33.7577 44.6774 34.081 44.7416C35.223 44.9663 37.1491 45.6129 39.8366 47.4199C43.0446 49.5776 46.2732 51.1942 49.4583 52.2399C52.4301 51.8111 55.2849 50.903 57.9219 49.5685C56.1907 49.5639 54.3975 49.3323 52.5631 48.8714C49.1602 48.0184 45.6495 46.3857 42.1273 44.017L42.1251 44.0147Z" fill="#B4DBFF"/>
</g>
<g clip-path="url(#clip3_2505_24581)">
<rect y="100" width="91" height="91" rx="12" fill="white"/>
<path d="M89.9977 112.999V112.999V178.001C89.9977 184.628 84.6256 190 77.9984 190H12.9993C6.37218 190 1 184.628 1 177.998V112.999C1 106.372 6.37207 101 12.9993 101H78.0007C84.628 101 89.9998 106.372 89.9977 112.999Z" stroke="#012137" stroke-width="2"/>
<path d="M13.3247 109.125H77.6748C79.9954 109.125 81.8754 111.007 81.8754 113.326V164.676C81.8754 166.997 79.9937 168.877 77.6748 168.877H13.3247C11.0041 168.877 9.12402 166.995 9.12402 164.676V113.326C9.12402 111.005 11.0058 109.125 13.3247 109.125Z" stroke="#012137" stroke-width="2"/>
<path d="M44.3268 140.743C47.4683 142.857 50.5616 144.304 53.5197 145.045C56.2805 145.737 58.8808 145.808 61.2473 145.258C64.4369 144.517 66.7346 142.72 68.4681 140.161C68.9336 139.457 68.9313 138.535 68.4635 137.831C67.661 136.618 66.7735 135.48 65.8105 134.426C65.7371 136.102 65.3014 137.237 64.8932 137.95C63.9714 139.551 62.3411 140.693 60.2979 141.167C58.5873 141.564 56.6497 141.497 54.5424 140.97C52.059 140.349 49.4105 139.099 46.6726 137.258C43.5311 135.143 40.4378 133.696 37.4797 132.956C34.7189 132.263 32.1186 132.192 29.7521 132.742C26.5625 133.483 24.2648 135.281 22.5313 137.84C22.0658 138.544 22.0681 139.466 22.5359 140.17C23.3384 141.383 24.2259 142.52 25.1889 143.575C25.2623 141.899 25.698 140.764 26.1062 140.05C27.028 138.45 28.6583 137.308 30.7014 136.833C32.4121 136.437 34.3497 136.503 36.457 137.031C38.9404 137.652 41.5889 138.902 44.3268 140.743Z" fill="#B4DBFF"/>
<path d="M48.874 133.985C52.9373 136.718 56.7782 137.936 59.406 137.326C60.3714 137.101 61.1052 136.624 61.4743 135.982C61.8183 135.384 61.9513 134.331 61.8389 133.093C61.8343 133.031 61.8275 132.971 61.8206 132.91C60.9905 133.164 59.8417 133.384 58.3649 133.384C57.7481 133.384 57.2414 133.322 56.918 133.258C55.7761 133.033 53.8499 132.387 51.1625 130.58C47.9545 128.422 44.7281 126.805 41.5431 125.76C38.5713 126.189 35.7187 127.097 33.084 128.431C34.813 128.436 36.6038 128.67 38.436 129.128C41.8389 129.981 45.3496 131.614 48.8717 133.983L48.874 133.985Z" fill="#B4DBFF"/>
<path d="M42.1251 144.015C38.0618 141.281 34.2209 140.064 31.593 140.674C30.6277 140.898 29.8939 141.375 29.5247 142.017C29.1807 142.616 29.0477 143.668 29.1601 144.907C29.1647 144.969 29.1716 145.028 29.1785 145.09C30.0085 144.836 31.1574 144.615 32.6341 144.615C33.2509 144.615 33.7577 144.677 34.081 144.742C35.223 144.966 37.1491 145.613 39.8366 147.42C43.0446 149.578 46.2732 151.194 49.4583 152.24C52.4301 151.811 55.2849 150.903 57.9219 149.568C56.1907 149.564 54.3975 149.332 52.5631 148.871C49.1602 148.018 45.6495 146.386 42.1273 144.017L42.1251 144.015Z" fill="#B4DBFF"/>
</g>
<g clip-path="url(#clip4_2505_24581)">
<rect x="344" y="55" width="123" height="80" rx="10" fill="white"/>
<path d="M262.85 68.4444C257.567 62.5185 252.284 62.5185 247 68.4444L247 208.5L564 208.5L564 68.4444C558.717 62.5185 553.433 62.5185 548.15 68.4444C542.867 62.5185 537.583 62.5185 532.3 68.4444C527.017 62.5185 521.733 62.5185 516.45 68.4444C511.167 62.5185 505.883 62.5185 500.6 68.4444C495.317 62.5185 490.033 62.5185 484.75 68.4444C479.467 62.5185 474.183 62.5185 468.9 68.4444C463.617 62.5185 458.333 62.5185 453.05 68.4444C447.767 62.5185 442.483 62.5185 437.2 68.4444C431.917 62.5185 426.633 62.5185 421.35 68.4444C416.067 62.5185 410.783 62.5185 405.5 68.4444C400.217 62.5185 394.933 62.5185 389.65 68.4444C384.367 62.5185 379.084 62.5185 373.8 68.4444C368.517 62.5185 363.234 62.5185 357.95 68.4444C352.667 62.5185 347.383 62.5185 342.1 68.4444C336.817 62.5185 331.534 62.5185 326.25 68.4444C320.967 62.5185 315.684 62.5185 310.4 68.4444C305.117 62.5185 299.833 62.5185 294.55 68.4444C289.267 62.5185 283.984 62.5185 278.7 68.4444C273.417 62.5185 268.134 62.5185 262.85 68.4444Z" fill="#00D791"/>
<path d="M396.136 91.726H390.732V94.834H394.96V95.8H390.732V100H389.696V90.76H396.136V91.726ZM401.382 95.464C401.382 94.9227 401.237 94.5073 400.948 94.218C400.659 93.9193 400.248 93.77 399.716 93.77C399.221 93.77 398.801 93.8773 398.456 94.092C398.111 94.3067 397.854 94.652 397.686 95.128L396.846 94.61C397.042 94.078 397.387 93.6533 397.882 93.336C398.386 93.0187 399.007 92.86 399.744 92.86C400.248 92.86 400.701 92.9487 401.102 93.126C401.513 93.294 401.835 93.5553 402.068 93.91C402.301 94.2647 402.418 94.7127 402.418 95.254V98.67C402.418 99.034 402.605 99.216 402.978 99.216C403.155 99.216 403.328 99.1927 403.496 99.146L403.44 99.958C403.263 100.051 403.029 100.098 402.74 100.098C402.479 100.098 402.241 100.051 402.026 99.958C401.821 99.8553 401.657 99.7013 401.536 99.496C401.415 99.2813 401.354 99.0153 401.354 98.698V98.516L401.62 98.544C401.517 98.9173 401.326 99.2207 401.046 99.454C400.775 99.6873 400.467 99.86 400.122 99.972C399.777 100.084 399.436 100.14 399.1 100.14C398.689 100.14 398.307 100.07 397.952 99.93C397.597 99.79 397.317 99.58 397.112 99.3C396.907 99.02 396.804 98.67 396.804 98.25C396.804 97.7273 396.977 97.298 397.322 96.962C397.677 96.626 398.167 96.3973 398.792 96.276L401.592 95.73V96.584L399.282 97.06C398.806 97.1533 398.451 97.2887 398.218 97.466C397.985 97.6433 397.868 97.886 397.868 98.194C397.868 98.5113 397.985 98.7633 398.218 98.95C398.461 99.1367 398.806 99.23 399.254 99.23C399.525 99.23 399.786 99.1973 400.038 99.132C400.29 99.0573 400.519 98.9453 400.724 98.796C400.929 98.6467 401.088 98.46 401.2 98.236C401.321 98.012 401.382 97.746 401.382 97.438V95.464ZM405.1 100V93H405.954L406.094 94.204C406.28 93.7653 406.565 93.434 406.948 93.21C407.33 92.9767 407.792 92.86 408.334 92.86C408.464 92.86 408.604 92.874 408.754 92.902C408.903 92.9207 409.029 92.958 409.132 93.014L408.936 93.966C408.833 93.9193 408.721 93.8867 408.6 93.868C408.478 93.84 408.306 93.826 408.082 93.826C407.774 93.826 407.47 93.9147 407.172 94.092C406.873 94.2693 406.626 94.5353 406.43 94.89C406.234 95.2353 406.136 95.6693 406.136 96.192V100H405.1ZM410.732 100V93H411.642L411.712 94.162C411.955 93.7233 412.282 93.3967 412.692 93.182C413.112 92.9673 413.551 92.86 414.008 92.86C414.531 92.86 415.012 92.9813 415.45 93.224C415.889 93.4573 416.216 93.8167 416.43 94.302C416.58 93.9753 416.79 93.7093 417.06 93.504C417.331 93.2893 417.63 93.1307 417.956 93.028C418.292 92.916 418.614 92.86 418.922 92.86C419.38 92.86 419.809 92.9533 420.21 93.14C420.612 93.3267 420.938 93.616 421.19 94.008C421.452 94.4 421.582 94.8993 421.582 95.506V100H420.546V95.604C420.546 94.96 420.383 94.4933 420.056 94.204C419.73 93.9147 419.319 93.77 418.824 93.77C418.442 93.77 418.087 93.8633 417.76 94.05C417.434 94.2273 417.172 94.4933 416.976 94.848C416.78 95.1933 416.682 95.618 416.682 96.122V100H415.646V95.618C415.646 94.9647 415.478 94.4933 415.142 94.204C414.816 93.9147 414.41 93.77 413.924 93.77C413.588 93.77 413.252 93.8587 412.916 94.036C412.59 94.204 412.314 94.47 412.09 94.834C411.876 95.1887 411.768 95.6507 411.768 96.22V100H410.732Z" fill="#012137"/>
</g>
<g clip-path="url(#clip5_2505_24581)">
<rect x="201" y="55" width="123" height="80" rx="10" fill="white"/>
<path d="M119.85 68.4444C114.567 62.5185 109.284 62.5185 104 68.4444L104 208.5L421 208.5L421 68.4444C415.717 62.5185 410.433 62.5185 405.15 68.4444C399.867 62.5185 394.583 62.5185 389.3 68.4444C384.017 62.5185 378.733 62.5185 373.45 68.4444C368.167 62.5185 362.883 62.5185 357.6 68.4444C352.317 62.5185 347.033 62.5185 341.75 68.4444C336.467 62.5185 331.183 62.5185 325.9 68.4444C320.617 62.5185 315.333 62.5185 310.05 68.4444C304.767 62.5185 299.483 62.5185 294.2 68.4444C288.917 62.5185 283.633 62.5185 278.35 68.4444C273.067 62.5185 267.783 62.5185 262.5 68.4444C257.217 62.5185 251.933 62.5185 246.65 68.4444C241.367 62.5185 236.084 62.5185 230.8 68.4444C225.517 62.5185 220.234 62.5185 214.95 68.4444C209.667 62.5185 204.383 62.5185 199.1 68.4444C193.817 62.5185 188.534 62.5185 183.25 68.4444C177.967 62.5185 172.684 62.5185 167.4 68.4444C162.117 62.5185 156.833 62.5185 151.55 68.4444C146.267 62.5185 140.984 62.5185 135.7 68.4444C130.417 62.5185 125.134 62.5185 119.85 68.4444Z" fill="#00D791"/>
<path d="M253.136 91.726H247.732V94.834H251.96V95.8H247.732V100H246.696V90.76H253.136V91.726ZM258.382 95.464C258.382 94.9227 258.237 94.5073 257.948 94.218C257.659 93.9193 257.248 93.77 256.716 93.77C256.221 93.77 255.801 93.8773 255.456 94.092C255.111 94.3067 254.854 94.652 254.686 95.128L253.846 94.61C254.042 94.078 254.387 93.6533 254.882 93.336C255.386 93.0187 256.007 92.86 256.744 92.86C257.248 92.86 257.701 92.9487 258.102 93.126C258.513 93.294 258.835 93.5553 259.068 93.91C259.301 94.2647 259.418 94.7127 259.418 95.254V98.67C259.418 99.034 259.605 99.216 259.978 99.216C260.155 99.216 260.328 99.1927 260.496 99.146L260.44 99.958C260.263 100.051 260.029 100.098 259.74 100.098C259.479 100.098 259.241 100.051 259.026 99.958C258.821 99.8553 258.657 99.7013 258.536 99.496C258.415 99.2813 258.354 99.0153 258.354 98.698V98.516L258.62 98.544C258.517 98.9173 258.326 99.2207 258.046 99.454C257.775 99.6873 257.467 99.86 257.122 99.972C256.777 100.084 256.436 100.14 256.1 100.14C255.689 100.14 255.307 100.07 254.952 99.93C254.597 99.79 254.317 99.58 254.112 99.3C253.907 99.02 253.804 98.67 253.804 98.25C253.804 97.7273 253.977 97.298 254.322 96.962C254.677 96.626 255.167 96.3973 255.792 96.276L258.592 95.73V96.584L256.282 97.06C255.806 97.1533 255.451 97.2887 255.218 97.466C254.985 97.6433 254.868 97.886 254.868 98.194C254.868 98.5113 254.985 98.7633 255.218 98.95C255.461 99.1367 255.806 99.23 256.254 99.23C256.525 99.23 256.786 99.1973 257.038 99.132C257.29 99.0573 257.519 98.9453 257.724 98.796C257.929 98.6467 258.088 98.46 258.2 98.236C258.321 98.012 258.382 97.746 258.382 97.438V95.464ZM262.1 100V93H262.954L263.094 94.204C263.28 93.7653 263.565 93.434 263.948 93.21C264.33 92.9767 264.792 92.86 265.334 92.86C265.464 92.86 265.604 92.874 265.754 92.902C265.903 92.9207 266.029 92.958 266.132 93.014L265.936 93.966C265.833 93.9193 265.721 93.8867 265.6 93.868C265.478 93.84 265.306 93.826 265.082 93.826C264.774 93.826 264.47 93.9147 264.172 94.092C263.873 94.2693 263.626 94.5353 263.43 94.89C263.234 95.2353 263.136 95.6693 263.136 96.192V100H262.1ZM267.732 100V93H268.642L268.712 94.162C268.955 93.7233 269.282 93.3967 269.692 93.182C270.112 92.9673 270.551 92.86 271.008 92.86C271.531 92.86 272.012 92.9813 272.45 93.224C272.889 93.4573 273.216 93.8167 273.43 94.302C273.58 93.9753 273.79 93.7093 274.06 93.504C274.331 93.2893 274.63 93.1307 274.956 93.028C275.292 92.916 275.614 92.86 275.922 92.86C276.38 92.86 276.809 92.9533 277.21 93.14C277.612 93.3267 277.938 93.616 278.19 94.008C278.452 94.4 278.582 94.8993 278.582 95.506V100H277.546V95.604C277.546 94.96 277.383 94.4933 277.056 94.204C276.73 93.9147 276.319 93.77 275.824 93.77C275.442 93.77 275.087 93.8633 274.76 94.05C274.434 94.2273 274.172 94.4933 273.976 94.848C273.78 95.1933 273.682 95.618 273.682 96.122V100H272.646V95.618C272.646 94.9647 272.478 94.4933 272.142 94.204C271.816 93.9147 271.41 93.77 270.924 93.77C270.588 93.77 270.252 93.8587 269.916 94.036C269.59 94.204 269.314 94.47 269.09 94.834C268.876 95.1887 268.768 95.6507 268.768 96.22V100H267.732Z" fill="#012137"/>
</g>
<g clip-path="url(#clip6_2505_24581)">
<rect x="487" y="55" width="123" height="80" rx="10" fill="white"/>
<path d="M405.85 73.2228C400.567 64.8888 395.283 64.8888 390 73.2228V148H707V73.2228C701.717 57.1176 696.433 57.1176 691.15 73.2228C685.867 66.1234 680.583 66.1234 675.3 73.2228C670.017 61.8202 664.733 61.8202 659.45 73.2228C654.167 67.812 648.883 67.812 643.6 73.2228C638.317 68.0662 633.033 68.0662 627.75 73.2228C622.467 63.9809 617.183 63.9809 611.9 73.2228C606.617 63.9991 601.333 63.9991 596.05 73.2228C590.767 63.0912 585.483 63.0912 580.2 73.2228C574.917 55.8466 569.633 55.8466 564.35 73.2228C559.067 56.3368 553.783 56.3368 548.5 73.2228C543.217 58.1888 537.933 58.1888 532.65 73.2228C527.367 68.0844 522.083 68.0844 516.8 73.2228C511.517 64.217 506.233 64.217 500.95 73.2228C495.667 55.5924 490.383 55.5924 485.1 73.2228C479.817 68.9922 474.533 68.9922 469.25 73.2228C463.967 68.3749 458.683 68.3749 453.4 73.2228C448.117 55.7195 442.833 55.7195 437.55 73.2228C432.267 56.119 426.983 56.119 421.7 73.2228C416.417 61.3482 411.133 61.3482 405.85 73.2228Z" fill="#FF4D80"/>
<path d="M539.136 91.726H533.732V94.834H537.96V95.8H533.732V100H532.696V90.76H539.136V91.726ZM544.382 95.464C544.382 94.9227 544.237 94.5073 543.948 94.218C543.659 93.9193 543.248 93.77 542.716 93.77C542.221 93.77 541.801 93.8773 541.456 94.092C541.111 94.3067 540.854 94.652 540.686 95.128L539.846 94.61C540.042 94.078 540.387 93.6533 540.882 93.336C541.386 93.0187 542.007 92.86 542.744 92.86C543.248 92.86 543.701 92.9487 544.102 93.126C544.513 93.294 544.835 93.5553 545.068 93.91C545.301 94.2647 545.418 94.7127 545.418 95.254V98.67C545.418 99.034 545.605 99.216 545.978 99.216C546.155 99.216 546.328 99.1927 546.496 99.146L546.44 99.958C546.263 100.051 546.029 100.098 545.74 100.098C545.479 100.098 545.241 100.051 545.026 99.958C544.821 99.8553 544.657 99.7013 544.536 99.496C544.415 99.2813 544.354 99.0153 544.354 98.698V98.516L544.62 98.544C544.517 98.9173 544.326 99.2207 544.046 99.454C543.775 99.6873 543.467 99.86 543.122 99.972C542.777 100.084 542.436 100.14 542.1 100.14C541.689 100.14 541.307 100.07 540.952 99.93C540.597 99.79 540.317 99.58 540.112 99.3C539.907 99.02 539.804 98.67 539.804 98.25C539.804 97.7273 539.977 97.298 540.322 96.962C540.677 96.626 541.167 96.3973 541.792 96.276L544.592 95.73V96.584L542.282 97.06C541.806 97.1533 541.451 97.2887 541.218 97.466C540.985 97.6433 540.868 97.886 540.868 98.194C540.868 98.5113 540.985 98.7633 541.218 98.95C541.461 99.1367 541.806 99.23 542.254 99.23C542.525 99.23 542.786 99.1973 543.038 99.132C543.29 99.0573 543.519 98.9453 543.724 98.796C543.929 98.6467 544.088 98.46 544.2 98.236C544.321 98.012 544.382 97.746 544.382 97.438V95.464ZM548.1 100V93H548.954L549.094 94.204C549.28 93.7653 549.565 93.434 549.948 93.21C550.33 92.9767 550.792 92.86 551.334 92.86C551.464 92.86 551.604 92.874 551.754 92.902C551.903 92.9207 552.029 92.958 552.132 93.014L551.936 93.966C551.833 93.9193 551.721 93.8867 551.6 93.868C551.478 93.84 551.306 93.826 551.082 93.826C550.774 93.826 550.47 93.9147 550.172 94.092C549.873 94.2693 549.626 94.5353 549.43 94.89C549.234 95.2353 549.136 95.6693 549.136 96.192V100H548.1ZM553.732 100V93H554.642L554.712 94.162C554.955 93.7233 555.282 93.3967 555.692 93.182C556.112 92.9673 556.551 92.86 557.008 92.86C557.531 92.86 558.012 92.9813 558.45 93.224C558.889 93.4573 559.216 93.8167 559.43 94.302C559.58 93.9753 559.79 93.7093 560.06 93.504C560.331 93.2893 560.63 93.1307 560.956 93.028C561.292 92.916 561.614 92.86 561.922 92.86C562.38 92.86 562.809 92.9533 563.21 93.14C563.612 93.3267 563.938 93.616 564.19 94.008C564.452 94.4 564.582 94.8993 564.582 95.506V100H563.546V95.604C563.546 94.96 563.383 94.4933 563.056 94.204C562.73 93.9147 562.319 93.77 561.824 93.77C561.442 93.77 561.087 93.8633 560.76 94.05C560.434 94.2273 560.172 94.4933 559.976 94.848C559.78 95.1933 559.682 95.618 559.682 96.122V100H558.646V95.618C558.646 94.9647 558.478 94.4933 558.142 94.204C557.816 93.9147 557.41 93.77 556.924 93.77C556.588 93.77 556.252 93.8587 555.916 94.036C555.59 94.204 555.314 94.47 555.09 94.834C554.876 95.1887 554.768 95.6507 554.768 96.22V100H553.732Z" fill="#012137"/>
</g>
<g clip-path="url(#clip7_2505_24581)">
<rect x="344" y="55" width="123" height="80" rx="10" fill="white"/>
<path d="M262.85 68.4444C257.567 62.5185 252.284 62.5185 247 68.4444L247 208.5L564 208.5L564 68.4444C558.717 62.5185 553.433 62.5185 548.15 68.4444C542.867 62.5185 537.583 62.5185 532.3 68.4444C527.017 62.5185 521.733 62.5185 516.45 68.4444C511.167 62.5185 505.883 62.5185 500.6 68.4444C495.317 62.5185 490.033 62.5185 484.75 68.4444C479.467 62.5185 474.183 62.5185 468.9 68.4444C463.617 62.5185 458.333 62.5185 453.05 68.4444C447.767 62.5185 442.483 62.5185 437.2 68.4444C431.917 62.5185 426.633 62.5185 421.35 68.4444C416.067 62.5185 410.783 62.5185 405.5 68.4444C400.217 62.5185 394.933 62.5185 389.65 68.4444C384.367 62.5185 379.084 62.5185 373.8 68.4444C368.517 62.5185 363.234 62.5185 357.95 68.4444C352.667 62.5185 347.383 62.5185 342.1 68.4444C336.817 62.5185 331.534 62.5185 326.25 68.4444C320.967 62.5185 315.684 62.5185 310.4 68.4444C305.117 62.5185 299.833 62.5185 294.55 68.4444C289.267 62.5185 283.984 62.5185 278.7 68.4444C273.417 62.5185 268.134 62.5185 262.85 68.4444Z" fill="#00D791"/>
<path d="M396.136 91.726H390.732V94.834H394.96V95.8H390.732V100H389.696V90.76H396.136V91.726ZM401.382 95.464C401.382 94.9227 401.237 94.5073 400.948 94.218C400.659 93.9193 400.248 93.77 399.716 93.77C399.221 93.77 398.801 93.8773 398.456 94.092C398.111 94.3067 397.854 94.652 397.686 95.128L396.846 94.61C397.042 94.078 397.387 93.6533 397.882 93.336C398.386 93.0187 399.007 92.86 399.744 92.86C400.248 92.86 400.701 92.9487 401.102 93.126C401.513 93.294 401.835 93.5553 402.068 93.91C402.301 94.2647 402.418 94.7127 402.418 95.254V98.67C402.418 99.034 402.605 99.216 402.978 99.216C403.155 99.216 403.328 99.1927 403.496 99.146L403.44 99.958C403.263 100.051 403.029 100.098 402.74 100.098C402.479 100.098 402.241 100.051 402.026 99.958C401.821 99.8553 401.657 99.7013 401.536 99.496C401.415 99.2813 401.354 99.0153 401.354 98.698V98.516L401.62 98.544C401.517 98.9173 401.326 99.2207 401.046 99.454C400.775 99.6873 400.467 99.86 400.122 99.972C399.777 100.084 399.436 100.14 399.1 100.14C398.689 100.14 398.307 100.07 397.952 99.93C397.597 99.79 397.317 99.58 397.112 99.3C396.907 99.02 396.804 98.67 396.804 98.25C396.804 97.7273 396.977 97.298 397.322 96.962C397.677 96.626 398.167 96.3973 398.792 96.276L401.592 95.73V96.584L399.282 97.06C398.806 97.1533 398.451 97.2887 398.218 97.466C397.985 97.6433 397.868 97.886 397.868 98.194C397.868 98.5113 397.985 98.7633 398.218 98.95C398.461 99.1367 398.806 99.23 399.254 99.23C399.525 99.23 399.786 99.1973 400.038 99.132C400.29 99.0573 400.519 98.9453 400.724 98.796C400.929 98.6467 401.088 98.46 401.2 98.236C401.321 98.012 401.382 97.746 401.382 97.438V95.464ZM405.1 100V93H405.954L406.094 94.204C406.28 93.7653 406.565 93.434 406.948 93.21C407.33 92.9767 407.792 92.86 408.334 92.86C408.464 92.86 408.604 92.874 408.754 92.902C408.903 92.9207 409.029 92.958 409.132 93.014L408.936 93.966C408.833 93.9193 408.721 93.8867 408.6 93.868C408.478 93.84 408.306 93.826 408.082 93.826C407.774 93.826 407.47 93.9147 407.172 94.092C406.873 94.2693 406.626 94.5353 406.43 94.89C406.234 95.2353 406.136 95.6693 406.136 96.192V100H405.1ZM410.732 100V93H411.642L411.712 94.162C411.955 93.7233 412.282 93.3967 412.692 93.182C413.112 92.9673 413.551 92.86 414.008 92.86C414.531 92.86 415.012 92.9813 415.45 93.224C415.889 93.4573 416.216 93.8167 416.43 94.302C416.58 93.9753 416.79 93.7093 417.06 93.504C417.331 93.2893 417.63 93.1307 417.956 93.028C418.292 92.916 418.614 92.86 418.922 92.86C419.38 92.86 419.809 92.9533 420.21 93.14C420.612 93.3267 420.938 93.616 421.19 94.008C421.452 94.4 421.582 94.8993 421.582 95.506V100H420.546V95.604C420.546 94.96 420.383 94.4933 420.056 94.204C419.73 93.9147 419.319 93.77 418.824 93.77C418.442 93.77 418.087 93.8633 417.76 94.05C417.434 94.2273 417.172 94.4933 416.976 94.848C416.78 95.1933 416.682 95.618 416.682 96.122V100H415.646V95.618C415.646 94.9647 415.478 94.4933 415.142 94.204C414.816 93.9147 414.41 93.77 413.924 93.77C413.588 93.77 413.252 93.8587 412.916 94.036C412.59 94.204 412.314 94.47 412.09 94.834C411.876 95.1887 411.768 95.6507 411.768 96.22V100H410.732Z" fill="#012137"/>
</g>
<g clip-path="url(#clip8_2505_24581)">
<rect x="201" y="55" width="123" height="80" rx="10" fill="white"/>
<path d="M119.85 68.4444C114.567 62.5185 109.284 62.5185 104 68.4444L104 208.5L421 208.5L421 68.4444C415.717 62.5185 410.433 62.5185 405.15 68.4444C399.867 62.5185 394.583 62.5185 389.3 68.4444C384.017 62.5185 378.733 62.5185 373.45 68.4444C368.167 62.5185 362.883 62.5185 357.6 68.4444C352.317 62.5185 347.033 62.5185 341.75 68.4444C336.467 62.5185 331.183 62.5185 325.9 68.4444C320.617 62.5185 315.333 62.5185 310.05 68.4444C304.767 62.5185 299.483 62.5185 294.2 68.4444C288.917 62.5185 283.633 62.5185 278.35 68.4444C273.067 62.5185 267.783 62.5185 262.5 68.4444C257.217 62.5185 251.933 62.5185 246.65 68.4444C241.367 62.5185 236.084 62.5185 230.8 68.4444C225.517 62.5185 220.234 62.5185 214.95 68.4444C209.667 62.5185 204.383 62.5185 199.1 68.4444C193.817 62.5185 188.534 62.5185 183.25 68.4444C177.967 62.5185 172.684 62.5185 167.4 68.4444C162.117 62.5185 156.833 62.5185 151.55 68.4444C146.267 62.5185 140.984 62.5185 135.7 68.4444C130.417 62.5185 125.134 62.5185 119.85 68.4444Z" fill="#00D791"/>
<path d="M253.136 91.726H247.732V94.834H251.96V95.8H247.732V100H246.696V90.76H253.136V91.726ZM258.382 95.464C258.382 94.9227 258.237 94.5073 257.948 94.218C257.659 93.9193 257.248 93.77 256.716 93.77C256.221 93.77 255.801 93.8773 255.456 94.092C255.111 94.3067 254.854 94.652 254.686 95.128L253.846 94.61C254.042 94.078 254.387 93.6533 254.882 93.336C255.386 93.0187 256.007 92.86 256.744 92.86C257.248 92.86 257.701 92.9487 258.102 93.126C258.513 93.294 258.835 93.5553 259.068 93.91C259.301 94.2647 259.418 94.7127 259.418 95.254V98.67C259.418 99.034 259.605 99.216 259.978 99.216C260.155 99.216 260.328 99.1927 260.496 99.146L260.44 99.958C260.263 100.051 260.029 100.098 259.74 100.098C259.479 100.098 259.241 100.051 259.026 99.958C258.821 99.8553 258.657 99.7013 258.536 99.496C258.415 99.2813 258.354 99.0153 258.354 98.698V98.516L258.62 98.544C258.517 98.9173 258.326 99.2207 258.046 99.454C257.775 99.6873 257.467 99.86 257.122 99.972C256.777 100.084 256.436 100.14 256.1 100.14C255.689 100.14 255.307 100.07 254.952 99.93C254.597 99.79 254.317 99.58 254.112 99.3C253.907 99.02 253.804 98.67 253.804 98.25C253.804 97.7273 253.977 97.298 254.322 96.962C254.677 96.626 255.167 96.3973 255.792 96.276L258.592 95.73V96.584L256.282 97.06C255.806 97.1533 255.451 97.2887 255.218 97.466C254.985 97.6433 254.868 97.886 254.868 98.194C254.868 98.5113 254.985 98.7633 255.218 98.95C255.461 99.1367 255.806 99.23 256.254 99.23C256.525 99.23 256.786 99.1973 257.038 99.132C257.29 99.0573 257.519 98.9453 257.724 98.796C257.929 98.6467 258.088 98.46 258.2 98.236C258.321 98.012 258.382 97.746 258.382 97.438V95.464ZM262.1 100V93H262.954L263.094 94.204C263.28 93.7653 263.565 93.434 263.948 93.21C264.33 92.9767 264.792 92.86 265.334 92.86C265.464 92.86 265.604 92.874 265.754 92.902C265.903 92.9207 266.029 92.958 266.132 93.014L265.936 93.966C265.833 93.9193 265.721 93.8867 265.6 93.868C265.478 93.84 265.306 93.826 265.082 93.826C264.774 93.826 264.47 93.9147 264.172 94.092C263.873 94.2693 263.626 94.5353 263.43 94.89C263.234 95.2353 263.136 95.6693 263.136 96.192V100H262.1ZM267.732 100V93H268.642L268.712 94.162C268.955 93.7233 269.282 93.3967 269.692 93.182C270.112 92.9673 270.551 92.86 271.008 92.86C271.531 92.86 272.012 92.9813 272.45 93.224C272.889 93.4573 273.216 93.8167 273.43 94.302C273.58 93.9753 273.79 93.7093 274.06 93.504C274.331 93.2893 274.63 93.1307 274.956 93.028C275.292 92.916 275.614 92.86 275.922 92.86C276.38 92.86 276.809 92.9533 277.21 93.14C277.612 93.3267 277.938 93.616 278.19 94.008C278.452 94.4 278.582 94.8993 278.582 95.506V100H277.546V95.604C277.546 94.96 277.383 94.4933 277.056 94.204C276.73 93.9147 276.319 93.77 275.824 93.77C275.442 93.77 275.087 93.8633 274.76 94.05C274.434 94.2273 274.172 94.4933 273.976 94.848C273.78 95.1933 273.682 95.618 273.682 96.122V100H272.646V95.618C272.646 94.9647 272.478 94.4933 272.142 94.204C271.816 93.9147 271.41 93.77 270.924 93.77C270.588 93.77 270.252 93.8587 269.916 94.036C269.59 94.204 269.314 94.47 269.09 94.834C268.876 95.1887 268.768 95.6507 268.768 96.22V100H267.732Z" fill="#012137"/>
</g>
<defs>
<clipPath id="clip0_2505_24581">
<rect x="630" y="50" width="122" height="91" rx="13" fill="white"/>
</clipPath>
<clipPath id="clip1_2505_24581">
<rect x="630" y="50" width="122" height="91" rx="13" fill="white"/>
</clipPath>
<clipPath id="clip2_2505_24581">
<rect width="91" height="91" rx="12" fill="white"/>
</clipPath>
<clipPath id="clip3_2505_24581">
<rect y="100" width="91" height="91" rx="12" fill="white"/>
</clipPath>
<clipPath id="clip4_2505_24581">
<rect x="344" y="55" width="123" height="80" rx="10" fill="white"/>
</clipPath>
<clipPath id="clip5_2505_24581">
<rect x="201" y="55" width="123" height="80" rx="10" fill="white"/>
</clipPath>
<clipPath id="clip6_2505_24581">
<rect x="487" y="55" width="123" height="80" rx="10" fill="white"/>
</clipPath>
<clipPath id="clip7_2505_24581">
<rect x="344" y="55" width="123" height="80" rx="10" fill="white"/>
</clipPath>
<clipPath id="clip8_2505_24581">
<rect x="201" y="55" width="123" height="80" rx="10" fill="white"/>
</clipPath>
</defs>
</svg>
