<svg width="192" height="367" viewBox="0 0 192 367" fill="none" xmlns="http://www.w3.org/2000/svg">
<path d="M146 150L146 120L146 90L146 31C146 30.4477 145.552 30 145 30V30" stroke="#B4DBFF" stroke-width="3"/>
<path d="M45 108L45 133L45 145.5L45 158" stroke="#B4DBFF" stroke-width="3"/>
<path d="M126 234L126 138" stroke="#1FA4F1" stroke-width="3"/>
<path d="M66 228L66 193" stroke="#1FA4F1" stroke-width="3"/>
<mask id="path-5-inside-1_2505_24809" fill="white">
<path fill-rule="evenodd" clip-rule="evenodd" d="M85.75 287.125C85.75 284.018 83.2316 281.5 80.125 281.5C77.0184 281.5 74.5 284.018 74.5 287.125V299.5H59.125C56.0184 299.5 53.5 302.018 53.5 305.125C53.5 307.209 54.6331 309.028 56.3169 310C55.6563 310.381 55.0805 310.893 54.6246 311.5H47.125C45.261 311.5 43.75 313.011 43.75 314.875C43.75 316.739 45.261 318.25 47.125 318.25H54.6246C55.6508 319.616 57.2847 320.5 59.125 320.5H60.25L60.25 327.25H57.625C54.5184 327.25 52 329.768 52 332.875C52 335.982 54.5184 338.5 57.625 338.5H73.75V340.75H54.625C51.5184 340.75 49 343.268 49 346.375C49 349.482 51.5184 352 54.625 352H74.0934C75.049 355.043 77.8918 357.25 81.25 357.25H83.5V361.375C83.5 361.826 83.5613 362.263 83.6761 362.678C83.5624 362.972 83.5 363.291 83.5 363.625C83.5 365.075 84.6753 366.25 86.125 366.25H88.375H120.625C122.075 366.25 123.25 365.075 123.25 363.625C123.25 362.175 122.075 361 120.625 361H119.37C119.455 360.639 119.5 360.262 119.5 359.875V357.25H123.25C127.392 357.25 130.75 353.892 130.75 349.75V337C130.75 332.858 127.392 329.5 123.25 329.5H121.713L116.517 320.5H120.625C123.732 320.5 126.25 317.982 126.25 314.875C126.25 313.245 125.557 311.777 124.449 310.75H136.375C139.482 310.75 142 308.232 142 305.125C142 302.018 139.482 299.5 136.375 299.5H85.75V287.125ZM71.5 327.25L71.5 320.5H73.75V327.25H71.5ZM109.75 359.875C109.75 360.262 109.795 360.639 109.88 361H93.25V357.25H109.75V359.875Z"/>
</mask>
<path fill-rule="evenodd" clip-rule="evenodd" d="M85.75 287.125C85.75 284.018 83.2316 281.5 80.125 281.5C77.0184 281.5 74.5 284.018 74.5 287.125V299.5H59.125C56.0184 299.5 53.5 302.018 53.5 305.125C53.5 307.209 54.6331 309.028 56.3169 310C55.6563 310.381 55.0805 310.893 54.6246 311.5H47.125C45.261 311.5 43.75 313.011 43.75 314.875C43.75 316.739 45.261 318.25 47.125 318.25H54.6246C55.6508 319.616 57.2847 320.5 59.125 320.5H60.25L60.25 327.25H57.625C54.5184 327.25 52 329.768 52 332.875C52 335.982 54.5184 338.5 57.625 338.5H73.75V340.75H54.625C51.5184 340.75 49 343.268 49 346.375C49 349.482 51.5184 352 54.625 352H74.0934C75.049 355.043 77.8918 357.25 81.25 357.25H83.5V361.375C83.5 361.826 83.5613 362.263 83.6761 362.678C83.5624 362.972 83.5 363.291 83.5 363.625C83.5 365.075 84.6753 366.25 86.125 366.25H88.375H120.625C122.075 366.25 123.25 365.075 123.25 363.625C123.25 362.175 122.075 361 120.625 361H119.37C119.455 360.639 119.5 360.262 119.5 359.875V357.25H123.25C127.392 357.25 130.75 353.892 130.75 349.75V337C130.75 332.858 127.392 329.5 123.25 329.5H121.713L116.517 320.5H120.625C123.732 320.5 126.25 317.982 126.25 314.875C126.25 313.245 125.557 311.777 124.449 310.75H136.375C139.482 310.75 142 308.232 142 305.125C142 302.018 139.482 299.5 136.375 299.5H85.75V287.125ZM71.5 327.25L71.5 320.5H73.75V327.25H71.5ZM109.75 359.875C109.75 360.262 109.795 360.639 109.88 361H93.25V357.25H109.75V359.875Z" fill="white"/>
<path d="M74.5 299.5V301H76V299.5H74.5ZM56.3169 310L57.0668 311.299L59.3172 310L57.0668 308.701L56.3169 310ZM54.6246 311.5V313H55.3739L55.8239 312.401L54.6246 311.5ZM54.6246 318.25L55.8239 317.349L55.3739 316.75H54.6246V318.25ZM60.25 320.5L61.75 320.5L61.75 319H60.25V320.5ZM60.25 327.25V328.75H61.75L61.75 327.25L60.25 327.25ZM73.75 338.5H75.25V337H73.75V338.5ZM73.75 340.75V342.25H75.25V340.75H73.75ZM74.0934 352L75.5244 351.551L75.1945 350.5H74.0934V352ZM83.5 357.25H85V355.75H83.5V357.25ZM83.6761 362.678L85.0749 363.219L85.2541 362.756L85.1217 362.278L83.6761 362.678ZM119.37 361L117.91 360.655L117.474 362.5H119.37V361ZM119.5 357.25V355.75H118V357.25H119.5ZM121.713 329.5L120.414 330.25L120.847 331H121.713V329.5ZM116.517 320.5V319H113.919L115.218 321.25L116.517 320.5ZM124.449 310.75V309.25H120.626L123.429 311.85L124.449 310.75ZM85.75 299.5H84.25V301H85.75V299.5ZM71.5 320.5V319H70L70 320.5L71.5 320.5ZM71.5 327.25L70 327.25L70 328.75H71.5V327.25ZM73.75 320.5H75.25V319H73.75V320.5ZM73.75 327.25V328.75H75.25V327.25H73.75ZM109.88 361V362.5H111.776L111.34 360.655L109.88 361ZM93.25 361H91.75V362.5H93.25V361ZM93.25 357.25V355.75H91.75V357.25H93.25ZM109.75 357.25H111.25V355.75H109.75V357.25ZM80.125 283C82.4032 283 84.25 284.847 84.25 287.125H87.25C87.25 283.19 84.06 280 80.125 280V283ZM76 287.125C76 284.847 77.8468 283 80.125 283V280C76.19 280 73 283.19 73 287.125H76ZM76 299.5V287.125H73V299.5H76ZM59.125 301H74.5V298H59.125V301ZM55 305.125C55 302.847 56.8468 301 59.125 301V298C55.19 298 52 301.19 52 305.125H55ZM57.0668 308.701C55.8281 307.986 55 306.651 55 305.125H52C52 307.766 53.4381 310.07 55.5669 311.299L57.0668 308.701ZM55.8239 312.401C56.159 311.955 56.5822 311.579 57.0668 311.299L55.5669 308.701C54.7304 309.184 54.0019 309.831 53.4252 310.599L55.8239 312.401ZM47.125 313H54.6246V310H47.125V313ZM45.25 314.875C45.25 313.839 46.0895 313 47.125 313V310C44.4326 310 42.25 312.183 42.25 314.875H45.25ZM47.125 316.75C46.0895 316.75 45.25 315.911 45.25 314.875H42.25C42.25 317.567 44.4326 319.75 47.125 319.75V316.75ZM54.6246 316.75H47.125V319.75H54.6246V316.75ZM59.125 319C57.7764 319 56.579 318.354 55.8239 317.349L53.4252 319.151C54.7226 320.878 56.793 322 59.125 322V319ZM60.25 319H59.125V322H60.25V319ZM61.75 327.25L61.75 320.5L58.75 320.5L58.75 327.25L61.75 327.25ZM57.625 328.75H60.25V325.75H57.625V328.75ZM53.5 332.875C53.5 330.597 55.3468 328.75 57.625 328.75V325.75C53.69 325.75 50.5 328.94 50.5 332.875H53.5ZM57.625 337C55.3468 337 53.5 335.153 53.5 332.875H50.5C50.5 336.81 53.69 340 57.625 340V337ZM73.75 337H57.625V340H73.75V337ZM75.25 340.75V338.5H72.25V340.75H75.25ZM54.625 342.25H73.75V339.25H54.625V342.25ZM50.5 346.375C50.5 344.097 52.3468 342.25 54.625 342.25V339.25C50.69 339.25 47.5 342.44 47.5 346.375H50.5ZM54.625 350.5C52.3468 350.5 50.5 348.653 50.5 346.375H47.5C47.5 350.31 50.69 353.5 54.625 353.5V350.5ZM74.0934 350.5H54.625V353.5H74.0934V350.5ZM81.25 355.75C78.5657 355.75 76.2894 353.986 75.5244 351.551L72.6623 352.449C73.8087 356.1 77.2179 358.75 81.25 358.75V355.75ZM83.5 355.75H81.25V358.75H83.5V355.75ZM85 361.375V357.25H82V361.375H85ZM85.1217 362.278C85.0427 361.992 85 361.69 85 361.375H82C82 361.963 82.0799 362.534 82.2304 363.078L85.1217 362.278ZM85 363.625C85 363.479 85.027 363.343 85.0749 363.219L82.2772 362.137C82.0977 362.6 82 363.103 82 363.625H85ZM86.125 364.75C85.5037 364.75 85 364.246 85 363.625H82C82 365.903 83.8468 367.75 86.125 367.75V364.75ZM88.375 364.75H86.125V367.75H88.375V364.75ZM120.625 364.75H88.375V367.75H120.625V364.75ZM121.75 363.625C121.75 364.246 121.246 364.75 120.625 364.75V367.75C122.903 367.75 124.75 365.903 124.75 363.625H121.75ZM120.625 362.5C121.246 362.5 121.75 363.004 121.75 363.625H124.75C124.75 361.347 122.903 359.5 120.625 359.5V362.5ZM119.37 362.5H120.625V359.5H119.37V362.5ZM118 359.875C118 360.145 117.969 360.406 117.91 360.655L120.829 361.345C120.941 360.872 121 360.379 121 359.875H118ZM118 357.25V359.875H121V357.25H118ZM123.25 355.75H119.5V358.75H123.25V355.75ZM129.25 349.75C129.25 353.064 126.564 355.75 123.25 355.75V358.75C128.221 358.75 132.25 354.721 132.25 349.75H129.25ZM129.25 337V349.75H132.25V337H129.25ZM123.25 331C126.564 331 129.25 333.686 129.25 337H132.25C132.25 332.029 128.221 328 123.25 328V331ZM121.713 331H123.25V328H121.713V331ZM115.218 321.25L120.414 330.25L123.012 328.75L117.816 319.75L115.218 321.25ZM120.625 319H116.517V322H120.625V319ZM124.75 314.875C124.75 317.153 122.903 319 120.625 319V322C124.56 322 127.75 318.81 127.75 314.875H124.75ZM123.429 311.85C124.244 312.605 124.75 313.68 124.75 314.875H127.75C127.75 312.811 126.87 310.95 125.469 309.65L123.429 311.85ZM136.375 309.25H124.449V312.25H136.375V309.25ZM140.5 305.125C140.5 307.403 138.653 309.25 136.375 309.25V312.25C140.31 312.25 143.5 309.06 143.5 305.125H140.5ZM136.375 301C138.653 301 140.5 302.847 140.5 305.125H143.5C143.5 301.19 140.31 298 136.375 298V301ZM85.75 301H136.375V298H85.75V301ZM84.25 287.125V299.5H87.25V287.125H84.25ZM70 320.5L70 327.25L73 327.25L73 320.5L70 320.5ZM73.75 319H71.5V322H73.75V319ZM75.25 327.25V320.5H72.25V327.25H75.25ZM71.5 328.75H73.75V325.75H71.5V328.75ZM111.34 360.655C111.281 360.406 111.25 360.145 111.25 359.875H108.25C108.25 360.379 108.309 360.872 108.421 361.345L111.34 360.655ZM93.25 362.5H109.88V359.5H93.25V362.5ZM91.75 357.25V361H94.75V357.25H91.75ZM109.75 355.75H93.25V358.75H109.75V355.75ZM111.25 359.875V357.25H108.25V359.875H111.25Z" fill="#012137" mask="url(#path-5-inside-1_2505_24809)"/>
<path d="M105.978 333.265C105.978 338.223 101.95 342.25 96.9928 342.25C92.0353 342.25 88.0078 338.223 88.0078 333.265C88.0078 328.308 92.0353 324.28 96.9928 324.28C99.7528 324.28 102.22 325.533 103.87 327.49C101.995 327.61 100.128 327.43 98.3353 326.958V330.145C99.7753 330.46 101.253 330.633 102.745 330.633C104.125 330.633 105.52 330.49 106.908 330.213C107.388 330.093 107.793 329.74 107.98 329.283C108.018 329.193 108.04 329.11 108.063 329.02C108.648 326.155 108.603 323.268 107.988 320.508H104.793C105.153 321.873 105.348 323.29 105.363 324.723C103.203 322.6 100.255 321.288 96.9928 321.288C90.3853 321.288 85.0078 326.665 85.0078 333.273C85.0078 339.88 90.3853 345.258 96.9928 345.258C103.6 345.258 108.978 339.88 108.978 333.273H105.978V333.265Z" fill="#1FA4F1"/>
<path d="M124 310H57.625" stroke="#012137" stroke-width="1.5"/>
<path d="M98.5 296.5L98.5 299.5" stroke="#012137" stroke-width="1.5" stroke-linecap="round"/>
<path d="M111.25 296.5L111.25 299.5" stroke="#012137" stroke-width="1.5" stroke-linecap="round"/>
<path d="M124 296.5L124 299.5" stroke="#012137" stroke-width="1.5" stroke-linecap="round"/>
<path d="M136.75 296.5L136.75 299.5" stroke="#012137" stroke-width="1.5" stroke-linecap="round"/>
<path d="M74.5 351.25L74.5 328.75" stroke="#012137" stroke-width="1.5"/>
<path d="M70.75 328L61 328" stroke="#012137" stroke-width="1.5"/>
<path d="M70.75 319.75L61 319.75" stroke="#012137" stroke-width="1.5"/>
<path d="M121 356.5L84.25 356.5" stroke="#012137" stroke-width="1.5"/>
<mask id="path-17-inside-2_2505_24809" fill="white">
<path fill-rule="evenodd" clip-rule="evenodd" d="M85.75 287.125C85.75 284.018 83.2316 281.5 80.125 281.5C77.0184 281.5 74.5 284.018 74.5 287.125V299.5H59.125C56.0184 299.5 53.5 302.018 53.5 305.125C53.5 307.209 54.6331 309.028 56.3169 310C55.6563 310.381 55.0805 310.893 54.6246 311.5H47.125C45.261 311.5 43.75 313.011 43.75 314.875C43.75 316.739 45.261 318.25 47.125 318.25H54.6246C55.6508 319.616 57.2847 320.5 59.125 320.5H60.25L60.25 327.25H57.625C54.5184 327.25 52 329.768 52 332.875C52 335.982 54.5184 338.5 57.625 338.5H73.75V340.75H54.625C51.5184 340.75 49 343.268 49 346.375C49 349.482 51.5184 352 54.625 352H74.0934C75.049 355.043 77.8918 357.25 81.25 357.25H83.5V361.375C83.5 361.826 83.5613 362.263 83.6761 362.678C83.5624 362.972 83.5 363.291 83.5 363.625C83.5 365.075 84.6753 366.25 86.125 366.25H88.375H120.625C122.075 366.25 123.25 365.075 123.25 363.625C123.25 362.175 122.075 361 120.625 361H119.37C119.455 360.639 119.5 360.262 119.5 359.875V357.25H123.25C127.392 357.25 130.75 353.892 130.75 349.75V337C130.75 332.858 127.392 329.5 123.25 329.5H121.713L116.517 320.5H120.625C123.732 320.5 126.25 317.982 126.25 314.875C126.25 313.245 125.557 311.777 124.449 310.75H136.375C139.482 310.75 142 308.232 142 305.125C142 302.018 139.482 299.5 136.375 299.5H85.75V287.125ZM71.5 327.25L71.5 320.5H73.75V327.25H71.5ZM109.75 359.875C109.75 360.262 109.795 360.639 109.88 361H93.25V357.25H109.75V359.875Z"/>
</mask>
<path fill-rule="evenodd" clip-rule="evenodd" d="M85.75 287.125C85.75 284.018 83.2316 281.5 80.125 281.5C77.0184 281.5 74.5 284.018 74.5 287.125V299.5H59.125C56.0184 299.5 53.5 302.018 53.5 305.125C53.5 307.209 54.6331 309.028 56.3169 310C55.6563 310.381 55.0805 310.893 54.6246 311.5H47.125C45.261 311.5 43.75 313.011 43.75 314.875C43.75 316.739 45.261 318.25 47.125 318.25H54.6246C55.6508 319.616 57.2847 320.5 59.125 320.5H60.25L60.25 327.25H57.625C54.5184 327.25 52 329.768 52 332.875C52 335.982 54.5184 338.5 57.625 338.5H73.75V340.75H54.625C51.5184 340.75 49 343.268 49 346.375C49 349.482 51.5184 352 54.625 352H74.0934C75.049 355.043 77.8918 357.25 81.25 357.25H83.5V361.375C83.5 361.826 83.5613 362.263 83.6761 362.678C83.5624 362.972 83.5 363.291 83.5 363.625C83.5 365.075 84.6753 366.25 86.125 366.25H88.375H120.625C122.075 366.25 123.25 365.075 123.25 363.625C123.25 362.175 122.075 361 120.625 361H119.37C119.455 360.639 119.5 360.262 119.5 359.875V357.25H123.25C127.392 357.25 130.75 353.892 130.75 349.75V337C130.75 332.858 127.392 329.5 123.25 329.5H121.713L116.517 320.5H120.625C123.732 320.5 126.25 317.982 126.25 314.875C126.25 313.245 125.557 311.777 124.449 310.75H136.375C139.482 310.75 142 308.232 142 305.125C142 302.018 139.482 299.5 136.375 299.5H85.75V287.125ZM71.5 327.25L71.5 320.5H73.75V327.25H71.5ZM109.75 359.875C109.75 360.262 109.795 360.639 109.88 361H93.25V357.25H109.75V359.875Z" fill="white"/>
<path d="M74.5 299.5V301H76V299.5H74.5ZM56.3169 310L57.0668 311.299L59.3172 310L57.0668 308.701L56.3169 310ZM54.6246 311.5V313H55.3739L55.8239 312.401L54.6246 311.5ZM54.6246 318.25L55.8239 317.349L55.3739 316.75H54.6246V318.25ZM60.25 320.5L61.75 320.5L61.75 319H60.25V320.5ZM60.25 327.25V328.75H61.75L61.75 327.25L60.25 327.25ZM73.75 338.5H75.25V337H73.75V338.5ZM73.75 340.75V342.25H75.25V340.75H73.75ZM74.0934 352L75.5244 351.551L75.1945 350.5H74.0934V352ZM83.5 357.25H85V355.75H83.5V357.25ZM83.6761 362.678L85.0749 363.219L85.2541 362.756L85.1217 362.278L83.6761 362.678ZM119.37 361L117.91 360.655L117.474 362.5H119.37V361ZM119.5 357.25V355.75H118V357.25H119.5ZM121.713 329.5L120.414 330.25L120.847 331H121.713V329.5ZM116.517 320.5V319H113.919L115.218 321.25L116.517 320.5ZM124.449 310.75V309.25H120.626L123.429 311.85L124.449 310.75ZM85.75 299.5H84.25V301H85.75V299.5ZM71.5 320.5V319H70L70 320.5L71.5 320.5ZM71.5 327.25L70 327.25L70 328.75H71.5V327.25ZM73.75 320.5H75.25V319H73.75V320.5ZM73.75 327.25V328.75H75.25V327.25H73.75ZM109.88 361V362.5H111.776L111.34 360.655L109.88 361ZM93.25 361H91.75V362.5H93.25V361ZM93.25 357.25V355.75H91.75V357.25H93.25ZM109.75 357.25H111.25V355.75H109.75V357.25ZM80.125 283C82.4032 283 84.25 284.847 84.25 287.125H87.25C87.25 283.19 84.06 280 80.125 280V283ZM76 287.125C76 284.847 77.8468 283 80.125 283V280C76.19 280 73 283.19 73 287.125H76ZM76 299.5V287.125H73V299.5H76ZM59.125 301H74.5V298H59.125V301ZM55 305.125C55 302.847 56.8468 301 59.125 301V298C55.19 298 52 301.19 52 305.125H55ZM57.0668 308.701C55.8281 307.986 55 306.651 55 305.125H52C52 307.766 53.4381 310.07 55.5669 311.299L57.0668 308.701ZM55.8239 312.401C56.159 311.955 56.5822 311.579 57.0668 311.299L55.5669 308.701C54.7304 309.184 54.0019 309.831 53.4252 310.599L55.8239 312.401ZM47.125 313H54.6246V310H47.125V313ZM45.25 314.875C45.25 313.839 46.0895 313 47.125 313V310C44.4326 310 42.25 312.183 42.25 314.875H45.25ZM47.125 316.75C46.0895 316.75 45.25 315.911 45.25 314.875H42.25C42.25 317.567 44.4326 319.75 47.125 319.75V316.75ZM54.6246 316.75H47.125V319.75H54.6246V316.75ZM59.125 319C57.7764 319 56.579 318.354 55.8239 317.349L53.4252 319.151C54.7226 320.878 56.793 322 59.125 322V319ZM60.25 319H59.125V322H60.25V319ZM61.75 327.25L61.75 320.5L58.75 320.5L58.75 327.25L61.75 327.25ZM57.625 328.75H60.25V325.75H57.625V328.75ZM53.5 332.875C53.5 330.597 55.3468 328.75 57.625 328.75V325.75C53.69 325.75 50.5 328.94 50.5 332.875H53.5ZM57.625 337C55.3468 337 53.5 335.153 53.5 332.875H50.5C50.5 336.81 53.69 340 57.625 340V337ZM73.75 337H57.625V340H73.75V337ZM75.25 340.75V338.5H72.25V340.75H75.25ZM54.625 342.25H73.75V339.25H54.625V342.25ZM50.5 346.375C50.5 344.097 52.3468 342.25 54.625 342.25V339.25C50.69 339.25 47.5 342.44 47.5 346.375H50.5ZM54.625 350.5C52.3468 350.5 50.5 348.653 50.5 346.375H47.5C47.5 350.31 50.69 353.5 54.625 353.5V350.5ZM74.0934 350.5H54.625V353.5H74.0934V350.5ZM81.25 355.75C78.5657 355.75 76.2894 353.986 75.5244 351.551L72.6623 352.449C73.8087 356.1 77.2179 358.75 81.25 358.75V355.75ZM83.5 355.75H81.25V358.75H83.5V355.75ZM85 361.375V357.25H82V361.375H85ZM85.1217 362.278C85.0427 361.992 85 361.69 85 361.375H82C82 361.963 82.0799 362.534 82.2304 363.078L85.1217 362.278ZM85 363.625C85 363.479 85.027 363.343 85.0749 363.219L82.2772 362.137C82.0977 362.6 82 363.103 82 363.625H85ZM86.125 364.75C85.5037 364.75 85 364.246 85 363.625H82C82 365.903 83.8468 367.75 86.125 367.75V364.75ZM88.375 364.75H86.125V367.75H88.375V364.75ZM120.625 364.75H88.375V367.75H120.625V364.75ZM121.75 363.625C121.75 364.246 121.246 364.75 120.625 364.75V367.75C122.903 367.75 124.75 365.903 124.75 363.625H121.75ZM120.625 362.5C121.246 362.5 121.75 363.004 121.75 363.625H124.75C124.75 361.347 122.903 359.5 120.625 359.5V362.5ZM119.37 362.5H120.625V359.5H119.37V362.5ZM118 359.875C118 360.145 117.969 360.406 117.91 360.655L120.829 361.345C120.941 360.872 121 360.379 121 359.875H118ZM118 357.25V359.875H121V357.25H118ZM123.25 355.75H119.5V358.75H123.25V355.75ZM129.25 349.75C129.25 353.064 126.564 355.75 123.25 355.75V358.75C128.221 358.75 132.25 354.721 132.25 349.75H129.25ZM129.25 337V349.75H132.25V337H129.25ZM123.25 331C126.564 331 129.25 333.686 129.25 337H132.25C132.25 332.029 128.221 328 123.25 328V331ZM121.713 331H123.25V328H121.713V331ZM115.218 321.25L120.414 330.25L123.012 328.75L117.816 319.75L115.218 321.25ZM120.625 319H116.517V322H120.625V319ZM124.75 314.875C124.75 317.153 122.903 319 120.625 319V322C124.56 322 127.75 318.81 127.75 314.875H124.75ZM123.429 311.85C124.244 312.605 124.75 313.68 124.75 314.875H127.75C127.75 312.811 126.87 310.95 125.469 309.65L123.429 311.85ZM136.375 309.25H124.449V312.25H136.375V309.25ZM140.5 305.125C140.5 307.403 138.653 309.25 136.375 309.25V312.25C140.31 312.25 143.5 309.06 143.5 305.125H140.5ZM136.375 301C138.653 301 140.5 302.847 140.5 305.125H143.5C143.5 301.19 140.31 298 136.375 298V301ZM85.75 301H136.375V298H85.75V301ZM84.25 287.125V299.5H87.25V287.125H84.25ZM70 320.5L70 327.25L73 327.25L73 320.5L70 320.5ZM73.75 319H71.5V322H73.75V319ZM75.25 327.25V320.5H72.25V327.25H75.25ZM71.5 328.75H73.75V325.75H71.5V328.75ZM111.34 360.655C111.281 360.406 111.25 360.145 111.25 359.875H108.25C108.25 360.379 108.309 360.872 108.421 361.345L111.34 360.655ZM93.25 362.5H109.88V359.5H93.25V362.5ZM91.75 357.25V361H94.75V357.25H91.75ZM109.75 355.75H93.25V358.75H109.75V355.75ZM111.25 359.875V357.25H108.25V359.875H111.25Z" fill="#012137" mask="url(#path-17-inside-2_2505_24809)"/>
<path d="M105.978 333.265C105.978 338.223 101.95 342.25 96.9928 342.25C92.0353 342.25 88.0078 338.223 88.0078 333.265C88.0078 328.308 92.0353 324.28 96.9928 324.28C99.7528 324.28 102.22 325.533 103.87 327.49C101.995 327.61 100.128 327.43 98.3353 326.958V330.145C99.7753 330.46 101.253 330.633 102.745 330.633C104.125 330.633 105.52 330.49 106.908 330.213C107.388 330.093 107.793 329.74 107.98 329.283C108.018 329.193 108.04 329.11 108.063 329.02C108.648 326.155 108.603 323.268 107.988 320.508H104.793C105.153 321.873 105.348 323.29 105.363 324.723C103.203 322.6 100.255 321.288 96.9928 321.288C90.3853 321.288 85.0078 326.665 85.0078 333.273C85.0078 339.88 90.3853 345.258 96.9928 345.258C103.6 345.258 108.978 339.88 108.978 333.273H105.978V333.265Z" fill="#1FA4F1"/>
<path d="M124 310H57.625" stroke="#012137" stroke-width="1.5"/>
<path d="M98.5 296.5L98.5 299.5" stroke="#012137" stroke-width="1.5" stroke-linecap="round"/>
<path d="M111.25 296.5L111.25 299.5" stroke="#012137" stroke-width="1.5" stroke-linecap="round"/>
<path d="M124 296.5L124 299.5" stroke="#012137" stroke-width="1.5" stroke-linecap="round"/>
<path d="M136.75 296.5L136.75 299.5" stroke="#012137" stroke-width="1.5" stroke-linecap="round"/>
<path d="M74.5 351.25L74.5 328.75" stroke="#012137" stroke-width="1.5"/>
<path d="M70.75 328L61 328" stroke="#012137" stroke-width="1.5"/>
<path d="M70.75 319.75L61 319.75" stroke="#012137" stroke-width="1.5"/>
<path d="M121 356.5L84.25 356.5" stroke="#012137" stroke-width="1.5"/>
<g clip-path="url(#clip0_2505_24809)">
<rect x="50.75" y="223" width="91" height="68.25" rx="9.75" fill="white"/>
<path d="M60.9128 223.75H132C136.97 223.75 141 227.78 141 232.75V281.087C141 286.286 136.786 290.5 131.587 290.5H60.9128C55.7136 290.5 51.5 286.286 51.5 281.087V233.163C51.5 227.964 55.7136 223.75 60.9128 223.75Z" stroke="#012137" stroke-width="1.5"/>
<path d="M64.0751 235.008H128.425C129.087 235.008 129.624 235.544 129.624 236.207V277.807C129.624 278.469 129.088 279.006 128.425 279.006H64.0751C63.4133 279.006 62.876 278.47 62.876 277.807V236.207C62.876 235.545 63.4121 235.008 64.0751 235.008Z" stroke="#012137" stroke-width="1.5"/>
<path d="M97.0894 243.904C97.0894 243.904 97.0665 243.89 97.0596 243.881C96.5666 243.571 95.9269 243.571 95.4338 243.881C95.427 243.881 95.4109 243.894 95.404 243.904C94.7276 244.353 94.0878 244.83 93.4779 245.346C94.457 245.823 95.3834 246.389 96.2433 247.038C100.495 250.23 103.008 255.215 103.008 260.569C103.008 264.298 99.9856 267.327 96.2502 267.327C92.5148 267.327 89.4925 264.305 89.4925 260.569H89.4788C89.4788 257.494 90.2951 254.612 91.7283 252.136C94.4501 253.959 96.2364 257.054 96.2364 260.569C96.2364 261.679 96.1332 262.702 95.9567 263.635H96.2433C97.9356 263.635 99.3091 262.259 99.3091 260.569C99.3091 254.899 95.7434 250.067 90.7354 248.185C87.986 251.663 86.4336 256.002 86.4336 260.56H86.4474C86.4474 265.972 90.8386 270.363 96.2502 270.363C101.662 270.363 106.053 265.972 106.053 260.56C106.053 253.839 102.701 247.609 97.0894 243.897V243.904Z" fill="#1FA4F1"/>
</g>
<g clip-path="url(#clip1_2505_24809)">
<rect x="50.5664" y="223" width="91" height="68.25" rx="9.75" fill="white"/>
<path d="M60.7292 223.75H131.816C136.786 223.75 140.816 227.78 140.816 232.75V281.087C140.816 286.286 136.603 290.5 131.404 290.5H60.7292C55.53 290.5 51.3164 286.286 51.3164 281.087V233.163C51.3164 227.964 55.53 223.75 60.7292 223.75Z" stroke="#012137" stroke-width="1.5"/>
<path d="M63.8915 235.008H128.242C128.903 235.008 129.441 235.544 129.441 236.207V277.807C129.441 278.469 128.905 279.006 128.242 279.006H63.8915C63.2297 279.006 62.6924 278.47 62.6924 277.807V236.207C62.6924 235.545 63.2285 235.008 63.8915 235.008Z" stroke="#012137" stroke-width="1.5"/>
<path d="M96.9058 243.904C96.9058 243.904 96.8829 243.89 96.876 243.881C96.383 243.571 95.7433 243.571 95.2503 243.881C95.2434 243.881 95.2273 243.894 95.2204 243.904C94.544 244.353 93.9042 244.83 93.2943 245.346C94.2734 245.823 95.1998 246.389 96.0597 247.038C100.311 250.23 102.824 255.215 102.824 260.569C102.824 264.298 99.802 267.327 96.0666 267.327C92.3312 267.327 89.3089 264.305 89.3089 260.569H89.2952C89.2952 257.494 90.1115 254.612 91.5447 252.136C94.2665 253.959 96.0528 257.054 96.0528 260.569C96.0528 261.679 95.9496 262.702 95.7731 263.635H96.0597C97.752 263.635 99.1255 262.259 99.1255 260.569C99.1255 254.899 95.5598 250.067 90.5518 248.185C87.8024 251.663 86.25 256.002 86.25 260.56H86.2638C86.2638 265.972 90.655 270.363 96.0666 270.363C101.478 270.363 105.869 265.972 105.869 260.56C105.869 253.839 102.517 247.609 96.9058 243.897V243.904Z" fill="#1FA4F1"/>
</g>
<g clip-path="url(#clip2_2505_24809)">
<rect x="11" y="39.75" width="68.25" height="68.25" rx="9" fill="white"/>
<path d="M78.4983 49.4993V49.4995V98.2505C78.4983 103.221 74.4692 107.25 69.4988 107.25H20.7495C15.7791 107.25 11.75 103.221 11.75 98.2488V49.4995C11.75 44.529 15.779 40.5 20.7495 40.5H69.5005C74.471 40.5 78.4999 44.529 78.4983 49.4993Z" stroke="#012137" stroke-width="1.5"/>
<path d="M20.9933 46.5938H69.2558C70.9963 46.5938 72.4063 48.0051 72.4063 49.7442V88.2573C72.4063 89.9978 70.995 91.4078 69.2558 91.4078H20.9933C19.2528 91.4078 17.8428 89.9965 17.8428 88.2573V49.7442C17.8428 48.0038 19.2541 46.5938 20.9933 46.5938Z" stroke="#012137" stroke-width="1.5"/>
<path d="M44.2451 70.3058C46.6012 71.8914 48.9212 72.9766 51.1398 73.5321C53.2104 74.0515 55.1606 74.1048 56.9355 73.692C59.3277 73.1365 61.0509 71.7882 62.3511 69.8689C62.7002 69.341 62.6985 68.6496 62.3476 68.1216C61.7457 67.2119 61.0802 66.3588 60.3578 65.5677C60.3028 66.8249 59.9761 67.6762 59.6699 68.2111C58.9786 69.4115 57.7558 70.2679 56.2235 70.6239C54.9405 70.9214 53.4873 70.8716 51.9068 70.476C50.0442 70.01 48.0579 69.0727 46.0044 67.6917C43.6483 66.106 41.3283 65.0208 39.1098 64.4653C37.0392 63.946 35.0889 63.8927 33.3141 64.3054C30.9219 64.8609 29.1986 66.2092 27.8985 68.1285C27.5493 68.6565 27.5511 69.3478 27.9019 69.8758C28.5038 70.7856 29.1694 71.6386 29.8917 72.4297C29.9467 71.1725 30.2735 70.3212 30.5796 69.7864C31.271 68.586 32.4938 67.7295 34.0261 67.3735C35.3091 67.076 36.7623 67.1259 38.3428 67.5214C40.2053 67.9875 42.1917 68.9248 44.2451 70.3058Z" fill="#B4DBFF"/>
<path d="M47.655 65.2373C50.7025 67.2873 53.5831 68.2005 55.554 67.743C56.278 67.5745 56.8284 67.2167 57.1053 66.7352C57.3632 66.2863 57.463 65.4969 57.3787 64.5683C57.3753 64.5218 57.3701 64.4771 57.365 64.4307C56.7424 64.6216 55.8808 64.7867 54.7732 64.7867C54.3106 64.7867 53.9305 64.7402 53.688 64.6921C52.8316 64.5235 51.3869 64.0386 49.3714 62.6834C46.9654 61.065 44.5456 59.8526 42.1568 59.0684C39.928 59.39 37.7885 60.071 35.8125 61.0719C37.1092 61.0754 38.4524 61.2508 39.8265 61.5947C42.3787 62.2345 45.0117 63.459 47.6533 65.2355L47.655 65.2373Z" fill="#B4DBFF"/>
<path d="M42.5938 72.76C39.5463 70.71 36.6657 69.7968 34.6948 70.2543C33.9707 70.4228 33.4204 70.7805 33.1435 71.2621C32.8856 71.711 32.7858 72.5003 32.8701 73.429C32.8735 73.4755 32.8787 73.5202 32.8838 73.5666C33.5064 73.3757 34.368 73.2106 35.4756 73.2106C35.9382 73.2106 36.3183 73.2571 36.5608 73.3052C37.4172 73.4737 38.8618 73.9587 40.8774 75.3139C43.2834 76.9323 45.7049 78.1447 48.0937 78.9289C50.3225 78.6073 52.4637 77.9263 54.4414 76.9254C53.143 76.9219 51.7981 76.7482 50.4223 76.4026C47.8701 75.7628 45.2371 74.5383 42.5955 72.7618L42.5938 72.76Z" fill="#B4DBFF"/>
</g>
<g clip-path="url(#clip3_2505_24809)">
<rect x="113" width="68.25" height="68.25" rx="9" fill="white"/>
<path d="M180.498 9.74927V9.74951V58.5005C180.498 63.471 176.469 67.5 171.499 67.5H122.75C117.779 67.5 113.75 63.471 113.75 58.4988V9.74951C113.75 4.77905 117.779 0.75 122.75 0.75H171.5C176.471 0.75 180.5 4.77904 180.498 9.74927Z" stroke="#012137" stroke-width="1.5"/>
<path d="M122.993 6.84375H171.256C172.996 6.84375 174.406 8.25506 174.406 9.99424V48.5073C174.406 50.2478 172.995 51.6578 171.256 51.6578H122.993C121.253 51.6578 119.843 50.2465 119.843 48.5073V9.99424C119.843 8.25377 121.254 6.84375 122.993 6.84375Z" stroke="#012137" stroke-width="1.5"/>
<path d="M146.245 30.5558C148.601 32.1414 150.921 33.2266 153.14 33.7821C155.21 34.3015 157.161 34.3548 158.935 33.942C161.328 33.3865 163.051 32.0382 164.351 30.1189C164.7 29.591 164.698 28.8996 164.348 28.3716C163.746 27.4619 163.08 26.6088 162.358 25.8177C162.303 27.0749 161.976 27.9262 161.67 28.4611C160.979 29.6615 159.756 30.5179 158.223 30.8739C156.94 31.1714 155.487 31.1216 153.907 30.726C152.044 30.26 150.058 29.3227 148.004 27.9417C145.648 26.356 143.328 25.2708 141.11 24.7153C139.039 24.196 137.089 24.1427 135.314 24.5554C132.922 25.1109 131.199 26.4592 129.898 28.3785C129.549 28.9065 129.551 29.5978 129.902 30.1258C130.504 31.0356 131.169 31.8886 131.892 32.6797C131.947 31.4225 132.273 30.5712 132.58 30.0364C133.271 28.836 134.494 27.9795 136.026 27.6235C137.309 27.326 138.762 27.3759 140.343 27.7714C142.205 28.2375 144.192 29.1748 146.245 30.5558Z" fill="#B4DBFF"/>
<path d="M149.655 25.4873C152.702 27.5373 155.583 28.4505 157.554 27.993C158.278 27.8245 158.828 27.4667 159.105 26.9852C159.363 26.5363 159.463 25.7469 159.379 24.8183C159.375 24.7718 159.37 24.7271 159.365 24.6807C158.742 24.8716 157.881 25.0367 156.773 25.0367C156.311 25.0367 155.931 24.9902 155.688 24.9421C154.832 24.7735 153.387 24.2886 151.371 22.9334C148.965 21.315 146.546 20.1026 144.157 19.3184C141.928 19.64 139.789 20.321 137.812 21.3219C139.109 21.3254 140.452 21.5008 141.826 21.8447C144.379 22.4845 147.012 23.709 149.653 25.4855L149.655 25.4873Z" fill="#B4DBFF"/>
<path d="M144.594 33.01C141.546 30.96 138.666 30.0468 136.695 30.5043C135.971 30.6728 135.42 31.0305 135.144 31.5121C134.886 31.961 134.786 32.7503 134.87 33.679C134.874 33.7255 134.879 33.7702 134.884 33.8166C135.506 33.6257 136.368 33.4606 137.476 33.4606C137.938 33.4606 138.318 33.5071 138.561 33.5552C139.417 33.7237 140.862 34.2087 142.877 35.5639C145.283 37.1823 147.705 38.3947 150.094 39.1789C152.323 38.8573 154.464 38.1763 156.441 37.1754C155.143 37.1719 153.798 36.9982 152.422 36.6526C149.87 36.0128 147.237 34.7883 144.596 33.0118L144.594 33.01Z" fill="#B4DBFF"/>
</g>
<g clip-path="url(#clip4_2505_24809)">
<rect x="99.75" y="78" width="92.25" height="60" rx="7.5" fill="white"/>
<path d="M38.8876 88.0833C34.9251 83.6389 30.9626 83.6389 27.0001 88.0833L27 193.125L264.75 193.125L264.75 88.0833C260.788 83.6388 256.825 83.6388 252.863 88.0833C248.9 83.6389 244.937 83.6389 240.975 88.0833C237.012 83.6389 233.05 83.6389 229.087 88.0833C225.125 83.6389 221.163 83.6389 217.2 88.0833C213.238 83.6389 209.275 83.6389 205.313 88.0833C201.35 83.6389 197.388 83.6389 193.425 88.0833C189.463 83.6389 185.5 83.6389 181.538 88.0833C177.575 83.6389 173.613 83.6389 169.65 88.0833C165.688 83.6389 161.725 83.6389 157.763 88.0833C153.8 83.6389 149.838 83.6389 145.875 88.0833C141.913 83.6389 137.95 83.6389 133.988 88.0833C130.025 83.6389 126.063 83.6389 122.1 88.0833C118.138 83.6389 114.175 83.6389 110.213 88.0833C106.25 83.6389 102.288 83.6389 98.3251 88.0833C94.3626 83.6389 90.4001 83.6389 86.4376 88.0833C82.4751 83.6389 78.5126 83.6389 74.5501 88.0833C70.5876 83.6389 66.6251 83.6389 62.6626 88.0833C58.7001 83.6389 54.7376 83.6389 50.7751 88.0833C46.8126 83.6389 42.8501 83.6389 38.8876 88.0833Z" fill="#00D791"/>
<path d="M138.852 104.794H134.799V107.125H137.97V107.85H134.799V111H134.022V104.07H138.852V104.794ZM142.786 107.598C142.786 107.192 142.678 106.88 142.461 106.663C142.244 106.439 141.936 106.327 141.537 106.327C141.166 106.327 140.851 106.408 140.592 106.569C140.333 106.73 140.14 106.989 140.014 107.346L139.384 106.957C139.531 106.558 139.79 106.24 140.161 106.002C140.539 105.764 141.005 105.645 141.558 105.645C141.936 105.645 142.275 105.711 142.576 105.844C142.884 105.97 143.126 106.166 143.301 106.432C143.476 106.698 143.563 107.034 143.563 107.44V110.002C143.563 110.275 143.703 110.412 143.983 110.412C144.116 110.412 144.246 110.394 144.372 110.359L144.33 110.968C144.197 111.039 144.022 111.074 143.805 111.074C143.609 111.074 143.43 111.039 143.269 110.968C143.115 110.891 142.993 110.776 142.902 110.622C142.811 110.461 142.765 110.261 142.765 110.023V109.887L142.965 109.908C142.888 110.188 142.744 110.415 142.534 110.59C142.331 110.765 142.1 110.895 141.841 110.979C141.582 111.063 141.327 111.105 141.075 111.105C140.767 111.105 140.48 111.053 140.214 110.947C139.948 110.842 139.738 110.685 139.584 110.475C139.43 110.265 139.353 110.002 139.353 109.688C139.353 109.295 139.482 108.973 139.741 108.721C140.007 108.469 140.375 108.298 140.844 108.207L142.944 107.797V108.438L141.211 108.795C140.854 108.865 140.588 108.966 140.413 109.099C140.238 109.232 140.151 109.414 140.151 109.645C140.151 109.883 140.238 110.072 140.413 110.212C140.595 110.352 140.854 110.422 141.19 110.422C141.393 110.422 141.589 110.398 141.778 110.349C141.967 110.293 142.139 110.209 142.293 110.097C142.447 109.985 142.566 109.845 142.65 109.677C142.741 109.509 142.786 109.309 142.786 109.078V107.598ZM145.575 111V105.75H146.215L146.32 106.653C146.46 106.324 146.674 106.075 146.961 105.907C147.248 105.732 147.594 105.645 148 105.645C148.098 105.645 148.203 105.655 148.315 105.676C148.427 105.69 148.522 105.718 148.599 105.76L148.452 106.474C148.375 106.439 148.291 106.415 148.2 106.401C148.109 106.38 147.979 106.369 147.811 106.369C147.58 106.369 147.353 106.436 147.129 106.569C146.905 106.702 146.719 106.901 146.572 107.167C146.425 107.426 146.352 107.752 146.352 108.144V111H145.575ZM149.799 111V105.75H150.482L150.534 106.621C150.716 106.292 150.961 106.047 151.269 105.886C151.584 105.725 151.913 105.645 152.256 105.645C152.648 105.645 153.009 105.736 153.338 105.918C153.667 106.093 153.912 106.362 154.073 106.726C154.185 106.481 154.342 106.282 154.545 106.128C154.748 105.967 154.972 105.848 155.217 105.771C155.469 105.687 155.711 105.645 155.942 105.645C156.285 105.645 156.607 105.715 156.908 105.855C157.209 105.995 157.454 106.212 157.643 106.506C157.839 106.8 157.937 107.174 157.937 107.629V111H157.16V107.703C157.16 107.22 157.037 106.87 156.792 106.653C156.547 106.436 156.239 106.327 155.868 106.327C155.581 106.327 155.315 106.397 155.07 106.537C154.825 106.67 154.629 106.87 154.482 107.136C154.335 107.395 154.262 107.713 154.262 108.091V111H153.485V107.713C153.485 107.223 153.359 106.87 153.107 106.653C152.862 106.436 152.557 106.327 152.193 106.327C151.941 106.327 151.689 106.394 151.437 106.527C151.192 106.653 150.986 106.852 150.818 107.125C150.657 107.391 150.576 107.738 150.576 108.165V111H149.799Z" fill="#012137"/>
</g>
<g clip-path="url(#clip5_2505_24809)">
<rect x="99.75" y="78" width="92.25" height="60" rx="7.5" fill="white"/>
<path d="M38.8876 88.0833C34.9251 83.6389 30.9626 83.6389 27.0001 88.0833L27 193.125L264.75 193.125L264.75 88.0833C260.788 83.6388 256.825 83.6388 252.863 88.0833C248.9 83.6389 244.937 83.6389 240.975 88.0833C237.012 83.6389 233.05 83.6389 229.087 88.0833C225.125 83.6389 221.163 83.6389 217.2 88.0833C213.238 83.6389 209.275 83.6389 205.313 88.0833C201.35 83.6389 197.388 83.6389 193.425 88.0833C189.463 83.6389 185.5 83.6389 181.538 88.0833C177.575 83.6389 173.613 83.6389 169.65 88.0833C165.688 83.6389 161.725 83.6389 157.763 88.0833C153.8 83.6389 149.838 83.6389 145.875 88.0833C141.913 83.6389 137.95 83.6389 133.988 88.0833C130.025 83.6389 126.063 83.6389 122.1 88.0833C118.138 83.6389 114.175 83.6389 110.213 88.0833C106.25 83.6389 102.288 83.6389 98.3251 88.0833C94.3626 83.6389 90.4001 83.6389 86.4376 88.0833C82.4751 83.6389 78.5126 83.6389 74.5501 88.0833C70.5876 83.6389 66.6251 83.6389 62.6626 88.0833C58.7001 83.6389 54.7376 83.6389 50.7751 88.0833C46.8126 83.6389 42.8501 83.6389 38.8876 88.0833Z" fill="#00D791"/>
<path d="M138.852 104.794H134.799V107.125H137.97V107.85H134.799V111H134.022V104.07H138.852V104.794ZM142.786 107.598C142.786 107.192 142.678 106.88 142.461 106.663C142.244 106.439 141.936 106.327 141.537 106.327C141.166 106.327 140.851 106.408 140.592 106.569C140.333 106.73 140.14 106.989 140.014 107.346L139.384 106.957C139.531 106.558 139.79 106.24 140.161 106.002C140.539 105.764 141.005 105.645 141.558 105.645C141.936 105.645 142.275 105.711 142.576 105.844C142.884 105.97 143.126 106.166 143.301 106.432C143.476 106.698 143.563 107.034 143.563 107.44V110.002C143.563 110.275 143.703 110.412 143.983 110.412C144.116 110.412 144.246 110.394 144.372 110.359L144.33 110.968C144.197 111.039 144.022 111.074 143.805 111.074C143.609 111.074 143.43 111.039 143.269 110.968C143.115 110.891 142.993 110.776 142.902 110.622C142.811 110.461 142.765 110.261 142.765 110.023V109.887L142.965 109.908C142.888 110.188 142.744 110.415 142.534 110.59C142.331 110.765 142.1 110.895 141.841 110.979C141.582 111.063 141.327 111.105 141.075 111.105C140.767 111.105 140.48 111.053 140.214 110.947C139.948 110.842 139.738 110.685 139.584 110.475C139.43 110.265 139.353 110.002 139.353 109.688C139.353 109.295 139.482 108.973 139.741 108.721C140.007 108.469 140.375 108.298 140.844 108.207L142.944 107.797V108.438L141.211 108.795C140.854 108.865 140.588 108.966 140.413 109.099C140.238 109.232 140.151 109.414 140.151 109.645C140.151 109.883 140.238 110.072 140.413 110.212C140.595 110.352 140.854 110.422 141.19 110.422C141.393 110.422 141.589 110.398 141.778 110.349C141.967 110.293 142.139 110.209 142.293 110.097C142.447 109.985 142.566 109.845 142.65 109.677C142.741 109.509 142.786 109.309 142.786 109.078V107.598ZM145.575 111V105.75H146.215L146.32 106.653C146.46 106.324 146.674 106.075 146.961 105.907C147.248 105.732 147.594 105.645 148 105.645C148.098 105.645 148.203 105.655 148.315 105.676C148.427 105.69 148.522 105.718 148.599 105.76L148.452 106.474C148.375 106.439 148.291 106.415 148.2 106.401C148.109 106.38 147.979 106.369 147.811 106.369C147.58 106.369 147.353 106.436 147.129 106.569C146.905 106.702 146.719 106.901 146.572 107.167C146.425 107.426 146.352 107.752 146.352 108.144V111H145.575ZM149.799 111V105.75H150.482L150.534 106.621C150.716 106.292 150.961 106.047 151.269 105.886C151.584 105.725 151.913 105.645 152.256 105.645C152.648 105.645 153.009 105.736 153.338 105.918C153.667 106.093 153.912 106.362 154.073 106.726C154.185 106.481 154.342 106.282 154.545 106.128C154.748 105.967 154.972 105.848 155.217 105.771C155.469 105.687 155.711 105.645 155.942 105.645C156.285 105.645 156.607 105.715 156.908 105.855C157.209 105.995 157.454 106.212 157.643 106.506C157.839 106.8 157.937 107.174 157.937 107.629V111H157.16V107.703C157.16 107.22 157.037 106.87 156.792 106.653C156.547 106.436 156.239 106.327 155.868 106.327C155.581 106.327 155.315 106.397 155.07 106.537C154.825 106.67 154.629 106.87 154.482 107.136C154.335 107.395 154.262 107.713 154.262 108.091V111H153.485V107.713C153.485 107.223 153.359 106.87 153.107 106.653C152.862 106.436 152.557 106.327 152.193 106.327C151.941 106.327 151.689 106.394 151.437 106.527C151.192 106.653 150.986 106.852 150.818 107.125C150.657 107.391 150.576 107.738 150.576 108.165V111H149.799Z" fill="#012137"/>
</g>
<g clip-path="url(#clip6_2505_24809)">
<rect x="99.75" y="147.5" width="92.25" height="60" rx="7.5" fill="white"/>
<path d="M38.8876 157.583C34.9251 153.139 30.9626 153.139 27.0001 157.583L27 262.625L264.75 262.625L264.75 157.583C260.788 153.139 256.825 153.139 252.863 157.583C248.9 153.139 244.937 153.139 240.975 157.583C237.012 153.139 233.05 153.139 229.087 157.583C225.125 153.139 221.163 153.139 217.2 157.583C213.238 153.139 209.275 153.139 205.313 157.583C201.35 153.139 197.388 153.139 193.425 157.583C189.463 153.139 185.5 153.139 181.538 157.583C177.575 153.139 173.613 153.139 169.65 157.583C165.688 153.139 161.725 153.139 157.763 157.583C153.8 153.139 149.838 153.139 145.875 157.583C141.913 153.139 137.95 153.139 133.988 157.583C130.025 153.139 126.063 153.139 122.1 157.583C118.138 153.139 114.175 153.139 110.213 157.583C106.25 153.139 102.288 153.139 98.3251 157.583C94.3626 153.139 90.4001 153.139 86.4376 157.583C82.4751 153.139 78.5126 153.139 74.5501 157.583C70.5876 153.139 66.6251 153.139 62.6626 157.583C58.7001 153.139 54.7376 153.139 50.7751 157.583C46.8126 153.139 42.8501 153.139 38.8876 157.583Z" fill="#00D791"/>
<path d="M138.852 174.294H134.799V176.625H137.97V177.35H134.799V180.5H134.022V173.57H138.852V174.294ZM142.786 177.098C142.786 176.692 142.678 176.38 142.461 176.163C142.244 175.939 141.936 175.827 141.537 175.827C141.166 175.827 140.851 175.908 140.592 176.069C140.333 176.23 140.14 176.489 140.014 176.846L139.384 176.457C139.531 176.058 139.79 175.74 140.161 175.502C140.539 175.264 141.005 175.145 141.558 175.145C141.936 175.145 142.275 175.211 142.576 175.344C142.884 175.47 143.126 175.666 143.301 175.932C143.476 176.198 143.563 176.534 143.563 176.94V179.502C143.563 179.775 143.703 179.912 143.983 179.912C144.116 179.912 144.246 179.894 144.372 179.859L144.33 180.468C144.197 180.539 144.022 180.574 143.805 180.574C143.609 180.574 143.43 180.539 143.269 180.468C143.115 180.391 142.993 180.276 142.902 180.122C142.811 179.961 142.765 179.761 142.765 179.523V179.387L142.965 179.408C142.888 179.688 142.744 179.915 142.534 180.09C142.331 180.265 142.1 180.395 141.841 180.479C141.582 180.563 141.327 180.605 141.075 180.605C140.767 180.605 140.48 180.553 140.214 180.447C139.948 180.342 139.738 180.185 139.584 179.975C139.43 179.765 139.353 179.502 139.353 179.188C139.353 178.795 139.482 178.473 139.741 178.221C140.007 177.969 140.375 177.798 140.844 177.707L142.944 177.297V177.938L141.211 178.295C140.854 178.365 140.588 178.466 140.413 178.599C140.238 178.732 140.151 178.914 140.151 179.145C140.151 179.383 140.238 179.572 140.413 179.712C140.595 179.852 140.854 179.922 141.19 179.922C141.393 179.922 141.589 179.898 141.778 179.849C141.967 179.793 142.139 179.709 142.293 179.597C142.447 179.485 142.566 179.345 142.65 179.177C142.741 179.009 142.786 178.809 142.786 178.578V177.098ZM145.575 180.5V175.25H146.215L146.32 176.153C146.46 175.824 146.674 175.575 146.961 175.407C147.248 175.232 147.594 175.145 148 175.145C148.098 175.145 148.203 175.155 148.315 175.176C148.427 175.19 148.522 175.218 148.599 175.26L148.452 175.974C148.375 175.939 148.291 175.915 148.2 175.901C148.109 175.88 147.979 175.869 147.811 175.869C147.58 175.869 147.353 175.936 147.129 176.069C146.905 176.202 146.719 176.401 146.572 176.667C146.425 176.926 146.352 177.252 146.352 177.644V180.5H145.575ZM149.799 180.5V175.25H150.482L150.534 176.121C150.716 175.792 150.961 175.547 151.269 175.386C151.584 175.225 151.913 175.145 152.256 175.145C152.648 175.145 153.009 175.236 153.338 175.418C153.667 175.593 153.912 175.862 154.073 176.226C154.185 175.981 154.342 175.782 154.545 175.628C154.748 175.467 154.972 175.348 155.217 175.271C155.469 175.187 155.711 175.145 155.942 175.145C156.285 175.145 156.607 175.215 156.908 175.355C157.209 175.495 157.454 175.712 157.643 176.006C157.839 176.3 157.937 176.674 157.937 177.129V180.5H157.16V177.203C157.16 176.72 157.037 176.37 156.792 176.153C156.547 175.936 156.239 175.827 155.868 175.827C155.581 175.827 155.315 175.897 155.07 176.037C154.825 176.17 154.629 176.37 154.482 176.636C154.335 176.895 154.262 177.213 154.262 177.591V180.5H153.485V177.213C153.485 176.723 153.359 176.37 153.107 176.153C152.862 175.936 152.557 175.827 152.193 175.827C151.941 175.827 151.689 175.894 151.437 176.027C151.192 176.153 150.986 176.352 150.818 176.625C150.657 176.891 150.576 177.238 150.576 177.665V180.5H149.799Z" fill="#012137"/>
</g>
<g clip-path="url(#clip7_2505_24809)">
<rect y="147.5" width="92.25" height="60" rx="7.5" fill="white"/>
<path d="M-60.8624 157.583C-64.8249 153.139 -68.7874 153.139 -72.7499 157.583L-72.75 262.625L165 262.625L165 157.583C161.038 153.139 157.075 153.139 153.113 157.583C149.15 153.139 145.187 153.139 141.225 157.583C137.262 153.139 133.3 153.139 129.337 157.583C125.375 153.139 121.413 153.139 117.45 157.583C113.488 153.139 109.525 153.139 105.563 157.583C101.6 153.139 97.6376 153.139 93.6751 157.583C89.7126 153.139 85.7501 153.139 81.7876 157.583C77.8251 153.139 73.8626 153.139 69.9001 157.583C65.9376 153.139 61.9751 153.139 58.0126 157.583C54.0501 153.139 50.0876 153.139 46.1251 157.583C42.1626 153.139 38.2001 153.139 34.2376 157.583C30.2751 153.139 26.3126 153.139 22.3501 157.583C18.3876 153.139 14.4251 153.139 10.4626 157.583C6.50013 153.139 2.53763 153.139 -1.42487 157.583C-5.38738 153.139 -9.34987 153.139 -13.3124 157.583C-17.2749 153.139 -21.2374 153.139 -25.1999 157.583C-29.1624 153.139 -33.1249 153.139 -37.0874 157.583C-41.0499 153.139 -45.0124 153.139 -48.9749 157.583C-52.9374 153.139 -56.8999 153.139 -60.8624 157.583Z" fill="#00D791"/>
<path d="M39.1022 174.294H35.0492V176.625H38.2202V177.35H35.0492V180.5H34.2722V173.57H39.1022V174.294ZM43.0364 177.098C43.0364 176.692 42.9279 176.38 42.7109 176.163C42.4939 175.939 42.1859 175.827 41.7869 175.827C41.4159 175.827 41.1009 175.908 40.8419 176.069C40.5829 176.23 40.3904 176.489 40.2644 176.846L39.6344 176.457C39.7814 176.058 40.0404 175.74 40.4114 175.502C40.7894 175.264 41.2549 175.145 41.8079 175.145C42.1859 175.145 42.5254 175.211 42.8264 175.344C43.1344 175.47 43.3759 175.666 43.5509 175.932C43.7259 176.198 43.8134 176.534 43.8134 176.94V179.502C43.8134 179.775 43.9534 179.912 44.2334 179.912C44.3664 179.912 44.4959 179.894 44.6219 179.859L44.5799 180.468C44.4469 180.539 44.2719 180.574 44.0549 180.574C43.8589 180.574 43.6804 180.539 43.5194 180.468C43.3654 180.391 43.2429 180.276 43.1519 180.122C43.0609 179.961 43.0154 179.761 43.0154 179.523V179.387L43.2149 179.408C43.1379 179.688 42.9944 179.915 42.7844 180.09C42.5814 180.265 42.3504 180.395 42.0914 180.479C41.8324 180.563 41.5769 180.605 41.3249 180.605C41.0169 180.605 40.7299 180.553 40.4639 180.447C40.1979 180.342 39.9879 180.185 39.8339 179.975C39.6799 179.765 39.6029 179.502 39.6029 179.188C39.6029 178.795 39.7324 178.473 39.9914 178.221C40.2574 177.969 40.6249 177.798 41.0939 177.707L43.1939 177.297V177.938L41.4614 178.295C41.1044 178.365 40.8384 178.466 40.6634 178.599C40.4884 178.732 40.4009 178.914 40.4009 179.145C40.4009 179.383 40.4884 179.572 40.6634 179.712C40.8454 179.852 41.1044 179.922 41.4404 179.922C41.6434 179.922 41.8394 179.898 42.0284 179.849C42.2174 179.793 42.3889 179.709 42.5429 179.597C42.6969 179.485 42.8159 179.345 42.8999 179.177C42.9909 179.009 43.0364 178.809 43.0364 178.578V177.098ZM45.8246 180.5V175.25H46.4651L46.5701 176.153C46.7101 175.824 46.9236 175.575 47.2106 175.407C47.4976 175.232 47.8441 175.145 48.2501 175.145C48.3481 175.145 48.4531 175.155 48.5651 175.176C48.6771 175.19 48.7716 175.218 48.8486 175.26L48.7016 175.974C48.6246 175.939 48.5406 175.915 48.4496 175.901C48.3586 175.88 48.2291 175.869 48.0611 175.869C47.8301 175.869 47.6026 175.936 47.3786 176.069C47.1546 176.202 46.9691 176.401 46.8221 176.667C46.6751 176.926 46.6016 177.252 46.6016 177.644V180.5H45.8246ZM50.0493 180.5V175.25H50.7318L50.7843 176.121C50.9663 175.792 51.2113 175.547 51.5193 175.386C51.8343 175.225 52.1633 175.145 52.5063 175.145C52.8983 175.145 53.2588 175.236 53.5878 175.418C53.9168 175.593 54.1618 175.862 54.3228 176.226C54.4348 175.981 54.5923 175.782 54.7953 175.628C54.9983 175.467 55.2223 175.348 55.4673 175.271C55.7193 175.187 55.9608 175.145 56.1918 175.145C56.5348 175.145 56.8568 175.215 57.1578 175.355C57.4588 175.495 57.7038 175.712 57.8928 176.006C58.0888 176.3 58.1868 176.674 58.1868 177.129V180.5H57.4098V177.203C57.4098 176.72 57.2873 176.37 57.0423 176.153C56.7973 175.936 56.4893 175.827 56.1183 175.827C55.8313 175.827 55.5653 175.897 55.3203 176.037C55.0753 176.17 54.8793 176.37 54.7323 176.636C54.5853 176.895 54.5118 177.213 54.5118 177.591V180.5H53.7348V177.213C53.7348 176.723 53.6088 176.37 53.3568 176.153C53.1118 175.936 52.8073 175.827 52.4433 175.827C52.1913 175.827 51.9393 175.894 51.6873 176.027C51.4423 176.153 51.2358 176.352 51.0678 176.625C50.9068 176.891 50.8263 177.238 50.8263 177.665V180.5H50.0493Z" fill="#012137"/>
</g>
<g clip-path="url(#clip8_2505_24809)">
<rect y="147.5" width="92.25" height="60" rx="7.5" fill="white"/>
<path d="M-60.8624 157.583C-64.8249 153.139 -68.7874 153.139 -72.7499 157.583L-72.75 262.625L165 262.625L165 157.583C161.038 153.139 157.075 153.139 153.113 157.583C149.15 153.139 145.187 153.139 141.225 157.583C137.262 153.139 133.3 153.139 129.337 157.583C125.375 153.139 121.413 153.139 117.45 157.583C113.488 153.139 109.525 153.139 105.563 157.583C101.6 153.139 97.6376 153.139 93.6751 157.583C89.7126 153.139 85.7501 153.139 81.7876 157.583C77.8251 153.139 73.8626 153.139 69.9001 157.583C65.9376 153.139 61.9751 153.139 58.0126 157.583C54.0501 153.139 50.0876 153.139 46.1251 157.583C42.1626 153.139 38.2001 153.139 34.2376 157.583C30.2751 153.139 26.3126 153.139 22.3501 157.583C18.3876 153.139 14.4251 153.139 10.4626 157.583C6.50013 153.139 2.53763 153.139 -1.42487 157.583C-5.38738 153.139 -9.34987 153.139 -13.3124 157.583C-17.2749 153.139 -21.2374 153.139 -25.1999 157.583C-29.1624 153.139 -33.1249 153.139 -37.0874 157.583C-41.0499 153.139 -45.0124 153.139 -48.9749 157.583C-52.9374 153.139 -56.8999 153.139 -60.8624 157.583Z" fill="#00D791"/>
<path d="M39.1022 174.294H35.0492V176.625H38.2202V177.35H35.0492V180.5H34.2722V173.57H39.1022V174.294ZM43.0364 177.098C43.0364 176.692 42.9279 176.38 42.7109 176.163C42.4939 175.939 42.1859 175.827 41.7869 175.827C41.4159 175.827 41.1009 175.908 40.8419 176.069C40.5829 176.23 40.3904 176.489 40.2644 176.846L39.6344 176.457C39.7814 176.058 40.0404 175.74 40.4114 175.502C40.7894 175.264 41.2549 175.145 41.8079 175.145C42.1859 175.145 42.5254 175.211 42.8264 175.344C43.1344 175.47 43.3759 175.666 43.5509 175.932C43.7259 176.198 43.8134 176.534 43.8134 176.94V179.502C43.8134 179.775 43.9534 179.912 44.2334 179.912C44.3664 179.912 44.4959 179.894 44.6219 179.859L44.5799 180.468C44.4469 180.539 44.2719 180.574 44.0549 180.574C43.8589 180.574 43.6804 180.539 43.5194 180.468C43.3654 180.391 43.2429 180.276 43.1519 180.122C43.0609 179.961 43.0154 179.761 43.0154 179.523V179.387L43.2149 179.408C43.1379 179.688 42.9944 179.915 42.7844 180.09C42.5814 180.265 42.3504 180.395 42.0914 180.479C41.8324 180.563 41.5769 180.605 41.3249 180.605C41.0169 180.605 40.7299 180.553 40.4639 180.447C40.1979 180.342 39.9879 180.185 39.8339 179.975C39.6799 179.765 39.6029 179.502 39.6029 179.188C39.6029 178.795 39.7324 178.473 39.9914 178.221C40.2574 177.969 40.6249 177.798 41.0939 177.707L43.1939 177.297V177.938L41.4614 178.295C41.1044 178.365 40.8384 178.466 40.6634 178.599C40.4884 178.732 40.4009 178.914 40.4009 179.145C40.4009 179.383 40.4884 179.572 40.6634 179.712C40.8454 179.852 41.1044 179.922 41.4404 179.922C41.6434 179.922 41.8394 179.898 42.0284 179.849C42.2174 179.793 42.3889 179.709 42.5429 179.597C42.6969 179.485 42.8159 179.345 42.8999 179.177C42.9909 179.009 43.0364 178.809 43.0364 178.578V177.098ZM45.8246 180.5V175.25H46.4651L46.5701 176.153C46.7101 175.824 46.9236 175.575 47.2106 175.407C47.4976 175.232 47.8441 175.145 48.2501 175.145C48.3481 175.145 48.4531 175.155 48.5651 175.176C48.6771 175.19 48.7716 175.218 48.8486 175.26L48.7016 175.974C48.6246 175.939 48.5406 175.915 48.4496 175.901C48.3586 175.88 48.2291 175.869 48.0611 175.869C47.8301 175.869 47.6026 175.936 47.3786 176.069C47.1546 176.202 46.9691 176.401 46.8221 176.667C46.6751 176.926 46.6016 177.252 46.6016 177.644V180.5H45.8246ZM50.0493 180.5V175.25H50.7318L50.7843 176.121C50.9663 175.792 51.2113 175.547 51.5193 175.386C51.8343 175.225 52.1633 175.145 52.5063 175.145C52.8983 175.145 53.2588 175.236 53.5878 175.418C53.9168 175.593 54.1618 175.862 54.3228 176.226C54.4348 175.981 54.5923 175.782 54.7953 175.628C54.9983 175.467 55.2223 175.348 55.4673 175.271C55.7193 175.187 55.9608 175.145 56.1918 175.145C56.5348 175.145 56.8568 175.215 57.1578 175.355C57.4588 175.495 57.7038 175.712 57.8928 176.006C58.0888 176.3 58.1868 176.674 58.1868 177.129V180.5H57.4098V177.203C57.4098 176.72 57.2873 176.37 57.0423 176.153C56.7973 175.936 56.4893 175.827 56.1183 175.827C55.8313 175.827 55.5653 175.897 55.3203 176.037C55.0753 176.17 54.8793 176.37 54.7323 176.636C54.5853 176.895 54.5118 177.213 54.5118 177.591V180.5H53.7348V177.213C53.7348 176.723 53.6088 176.37 53.3568 176.153C53.1118 175.936 52.8073 175.827 52.4433 175.827C52.1913 175.827 51.9393 175.894 51.6873 176.027C51.4423 176.153 51.2358 176.352 51.0678 176.625C50.9068 176.891 50.8263 177.238 50.8263 177.665V180.5H50.0493Z" fill="#012137"/>
</g>
<g clip-path="url(#clip9_2505_24809)">
<rect y="148" width="92.25" height="60" rx="7.5" fill="white"/>
<path d="M-60.8624 158.083C-64.8249 153.639 -68.7874 153.639 -72.7499 158.083L-72.75 263.125L165 263.125L165 158.083C161.038 153.639 157.075 153.639 153.113 158.083C149.15 153.639 145.187 153.639 141.225 158.083C137.262 153.639 133.3 153.639 129.337 158.083C125.375 153.639 121.413 153.639 117.45 158.083C113.488 153.639 109.525 153.639 105.563 158.083C101.6 153.639 97.6376 153.639 93.6751 158.083C89.7126 153.639 85.7501 153.639 81.7876 158.083C77.8251 153.639 73.8626 153.639 69.9001 158.083C65.9376 153.639 61.9751 153.639 58.0126 158.083C54.0501 153.639 50.0876 153.639 46.1251 158.083C42.1626 153.639 38.2001 153.639 34.2376 158.083C30.2751 153.639 26.3126 153.639 22.3501 158.083C18.3876 153.639 14.4251 153.639 10.4626 158.083C6.50013 153.639 2.53763 153.639 -1.42487 158.083C-5.38738 153.639 -9.34987 153.639 -13.3124 158.083C-17.2749 153.639 -21.2374 153.639 -25.1999 158.083C-29.1624 153.639 -33.1249 153.639 -37.0874 158.083C-41.0499 153.639 -45.0124 153.639 -48.9749 158.083C-52.9374 153.639 -56.8999 153.639 -60.8624 158.083Z" fill="#00D791"/>
<path d="M39.1022 174.794H35.0492V177.125H38.2202V177.85H35.0492V181H34.2722V174.07H39.1022V174.794ZM43.0364 177.598C43.0364 177.192 42.9279 176.88 42.7109 176.663C42.4939 176.439 42.1859 176.327 41.7869 176.327C41.4159 176.327 41.1009 176.408 40.8419 176.569C40.5829 176.73 40.3904 176.989 40.2644 177.346L39.6344 176.957C39.7814 176.558 40.0404 176.24 40.4114 176.002C40.7894 175.764 41.2549 175.645 41.8079 175.645C42.1859 175.645 42.5254 175.711 42.8264 175.844C43.1344 175.97 43.3759 176.166 43.5509 176.432C43.7259 176.698 43.8134 177.034 43.8134 177.44V180.002C43.8134 180.275 43.9534 180.412 44.2334 180.412C44.3664 180.412 44.4959 180.394 44.6219 180.359L44.5799 180.968C44.4469 181.039 44.2719 181.074 44.0549 181.074C43.8589 181.074 43.6804 181.039 43.5194 180.968C43.3654 180.891 43.2429 180.776 43.1519 180.622C43.0609 180.461 43.0154 180.261 43.0154 180.023V179.887L43.2149 179.908C43.1379 180.188 42.9944 180.415 42.7844 180.59C42.5814 180.765 42.3504 180.895 42.0914 180.979C41.8324 181.063 41.5769 181.105 41.3249 181.105C41.0169 181.105 40.7299 181.053 40.4639 180.947C40.1979 180.842 39.9879 180.685 39.8339 180.475C39.6799 180.265 39.6029 180.002 39.6029 179.688C39.6029 179.295 39.7324 178.973 39.9914 178.721C40.2574 178.469 40.6249 178.298 41.0939 178.207L43.1939 177.797V178.438L41.4614 178.795C41.1044 178.865 40.8384 178.966 40.6634 179.099C40.4884 179.232 40.4009 179.414 40.4009 179.645C40.4009 179.883 40.4884 180.072 40.6634 180.212C40.8454 180.352 41.1044 180.422 41.4404 180.422C41.6434 180.422 41.8394 180.398 42.0284 180.349C42.2174 180.293 42.3889 180.209 42.5429 180.097C42.6969 179.985 42.8159 179.845 42.8999 179.677C42.9909 179.509 43.0364 179.309 43.0364 179.078V177.598ZM45.8246 181V175.75H46.4651L46.5701 176.653C46.7101 176.324 46.9236 176.075 47.2106 175.907C47.4976 175.732 47.8441 175.645 48.2501 175.645C48.3481 175.645 48.4531 175.655 48.5651 175.676C48.6771 175.69 48.7716 175.718 48.8486 175.76L48.7016 176.474C48.6246 176.439 48.5406 176.415 48.4496 176.401C48.3586 176.38 48.2291 176.369 48.0611 176.369C47.8301 176.369 47.6026 176.436 47.3786 176.569C47.1546 176.702 46.9691 176.901 46.8221 177.167C46.6751 177.426 46.6016 177.752 46.6016 178.144V181H45.8246ZM50.0493 181V175.75H50.7318L50.7843 176.621C50.9663 176.292 51.2113 176.047 51.5193 175.886C51.8343 175.725 52.1633 175.645 52.5063 175.645C52.8983 175.645 53.2588 175.736 53.5878 175.918C53.9168 176.093 54.1618 176.362 54.3228 176.726C54.4348 176.481 54.5923 176.282 54.7953 176.128C54.9983 175.967 55.2223 175.848 55.4673 175.771C55.7193 175.687 55.9608 175.645 56.1918 175.645C56.5348 175.645 56.8568 175.715 57.1578 175.855C57.4588 175.995 57.7038 176.212 57.8928 176.506C58.0888 176.8 58.1868 177.174 58.1868 177.629V181H57.4098V177.703C57.4098 177.22 57.2873 176.87 57.0423 176.653C56.7973 176.436 56.4893 176.327 56.1183 176.327C55.8313 176.327 55.5653 176.397 55.3203 176.537C55.0753 176.67 54.8793 176.87 54.7323 177.136C54.5853 177.395 54.5118 177.713 54.5118 178.091V181H53.7348V177.713C53.7348 177.223 53.6088 176.87 53.3568 176.653C53.1118 176.436 52.8073 176.327 52.4433 176.327C52.1913 176.327 51.9393 176.394 51.6873 176.527C51.4423 176.653 51.2358 176.852 51.0678 177.125C50.9068 177.391 50.8263 177.738 50.8263 178.165V181H50.0493Z" fill="#012137"/>
</g>
<g clip-path="url(#clip10_2505_24809)">
<rect y="147.5" width="92.25" height="60" rx="7.5" fill="white"/>
<path d="M-60.8625 161.167C-64.825 154.917 -68.7875 154.917 -72.75 161.167V217.25H165V161.167C161.038 149.088 157.075 149.088 153.112 161.167C149.15 155.843 145.188 155.843 141.225 161.167C137.263 152.615 133.3 152.615 129.338 161.167C125.375 157.109 121.413 157.109 117.45 161.167C113.488 157.3 109.525 157.3 105.562 161.167C101.6 154.236 97.6375 154.236 93.675 161.167C89.7125 154.249 85.75 154.249 81.7875 161.167C77.825 153.568 73.8625 153.568 69.9 161.167C65.9375 148.135 61.975 148.135 58.0125 161.167C54.05 148.503 50.0875 148.503 46.125 161.167C42.1625 149.892 38.2 149.892 34.2375 161.167C30.275 157.313 26.3125 157.313 22.35 161.167C18.3875 154.413 14.425 154.413 10.4625 161.167C6.5 147.944 2.53751 147.944 -1.425 161.167C-5.3875 157.994 -9.35 157.994 -13.3125 161.167C-17.275 157.531 -21.2375 157.531 -25.2 161.167C-29.1625 148.04 -33.125 148.04 -37.0875 161.167C-41.05 148.339 -45.0125 148.339 -48.975 161.167C-52.9375 152.261 -56.9 152.261 -60.8625 161.167Z" fill="#FF4D80"/>
<path d="M39.1022 174.294H35.0492V176.625H38.2202V177.35H35.0492V180.5H34.2722V173.57H39.1022V174.294ZM43.0364 177.098C43.0364 176.692 42.9279 176.38 42.7109 176.163C42.4939 175.939 42.1859 175.827 41.7869 175.827C41.4159 175.827 41.1009 175.908 40.8419 176.069C40.5829 176.23 40.3904 176.489 40.2644 176.846L39.6344 176.457C39.7814 176.058 40.0404 175.74 40.4114 175.502C40.7894 175.264 41.2549 175.145 41.8079 175.145C42.1859 175.145 42.5254 175.211 42.8264 175.344C43.1344 175.47 43.3759 175.666 43.5509 175.932C43.7259 176.198 43.8134 176.534 43.8134 176.94V179.502C43.8134 179.775 43.9534 179.912 44.2334 179.912C44.3664 179.912 44.4959 179.894 44.6219 179.859L44.5799 180.468C44.4469 180.539 44.2719 180.574 44.0549 180.574C43.8589 180.574 43.6804 180.539 43.5194 180.468C43.3654 180.391 43.2429 180.276 43.1519 180.122C43.0609 179.961 43.0154 179.761 43.0154 179.523V179.387L43.2149 179.408C43.1379 179.688 42.9944 179.915 42.7844 180.09C42.5814 180.265 42.3504 180.395 42.0914 180.479C41.8324 180.563 41.5769 180.605 41.3249 180.605C41.0169 180.605 40.7299 180.553 40.4639 180.447C40.1979 180.342 39.9879 180.185 39.8339 179.975C39.6799 179.765 39.6029 179.502 39.6029 179.188C39.6029 178.795 39.7324 178.473 39.9914 178.221C40.2574 177.969 40.6249 177.798 41.0939 177.707L43.1939 177.297V177.938L41.4614 178.295C41.1044 178.365 40.8384 178.466 40.6634 178.599C40.4884 178.732 40.4009 178.914 40.4009 179.145C40.4009 179.383 40.4884 179.572 40.6634 179.712C40.8454 179.852 41.1044 179.922 41.4404 179.922C41.6434 179.922 41.8394 179.898 42.0284 179.849C42.2174 179.793 42.3889 179.709 42.5429 179.597C42.6969 179.485 42.8159 179.345 42.8999 179.177C42.9909 179.009 43.0364 178.809 43.0364 178.578V177.098ZM45.8246 180.5V175.25H46.4651L46.5701 176.153C46.7101 175.824 46.9236 175.575 47.2106 175.407C47.4976 175.232 47.8441 175.145 48.2501 175.145C48.3481 175.145 48.4531 175.155 48.5651 175.176C48.6771 175.19 48.7716 175.218 48.8486 175.26L48.7016 175.974C48.6246 175.939 48.5406 175.915 48.4496 175.901C48.3586 175.88 48.2291 175.869 48.0611 175.869C47.8301 175.869 47.6026 175.936 47.3786 176.069C47.1546 176.202 46.9691 176.401 46.8221 176.667C46.6751 176.926 46.6016 177.252 46.6016 177.644V180.5H45.8246ZM50.0493 180.5V175.25H50.7318L50.7843 176.121C50.9663 175.792 51.2113 175.547 51.5193 175.386C51.8343 175.225 52.1633 175.145 52.5063 175.145C52.8983 175.145 53.2588 175.236 53.5878 175.418C53.9168 175.593 54.1618 175.862 54.3228 176.226C54.4348 175.981 54.5923 175.782 54.7953 175.628C54.9983 175.467 55.2223 175.348 55.4673 175.271C55.7193 175.187 55.9608 175.145 56.1918 175.145C56.5348 175.145 56.8568 175.215 57.1578 175.355C57.4588 175.495 57.7038 175.712 57.8928 176.006C58.0888 176.3 58.1868 176.674 58.1868 177.129V180.5H57.4098V177.203C57.4098 176.72 57.2873 176.37 57.0423 176.153C56.7973 175.936 56.4893 175.827 56.1183 175.827C55.8313 175.827 55.5653 175.897 55.3203 176.037C55.0753 176.17 54.8793 176.37 54.7323 176.636C54.5853 176.895 54.5118 177.213 54.5118 177.591V180.5H53.7348V177.213C53.7348 176.723 53.6088 176.37 53.3568 176.153C53.1118 175.936 52.8073 175.827 52.4433 175.827C52.1913 175.827 51.9393 175.894 51.6873 176.027C51.4423 176.153 51.2358 176.352 51.0678 176.625C50.9068 176.891 50.8263 177.238 50.8263 177.665V180.5H50.0493Z" fill="#012137"/>
</g>
<defs>
<clipPath id="clip0_2505_24809">
<rect x="50.75" y="223" width="91" height="68.25" rx="9.75" fill="white"/>
</clipPath>
<clipPath id="clip1_2505_24809">
<rect x="50.5664" y="223" width="91" height="68.25" rx="9.75" fill="white"/>
</clipPath>
<clipPath id="clip2_2505_24809">
<rect x="11" y="39.75" width="68.25" height="68.25" rx="9" fill="white"/>
</clipPath>
<clipPath id="clip3_2505_24809">
<rect x="113" width="68.25" height="68.25" rx="9" fill="white"/>
</clipPath>
<clipPath id="clip4_2505_24809">
<rect x="99.75" y="78" width="92.25" height="60" rx="7.5" fill="white"/>
</clipPath>
<clipPath id="clip5_2505_24809">
<rect x="99.75" y="78" width="92.25" height="60" rx="7.5" fill="white"/>
</clipPath>
<clipPath id="clip6_2505_24809">
<rect x="99.75" y="147.5" width="92.25" height="60" rx="7.5" fill="white"/>
</clipPath>
<clipPath id="clip7_2505_24809">
<rect y="147.5" width="92.25" height="60" rx="7.5" fill="white"/>
</clipPath>
<clipPath id="clip8_2505_24809">
<rect y="147.5" width="92.25" height="60" rx="7.5" fill="white"/>
</clipPath>
<clipPath id="clip9_2505_24809">
<rect y="148" width="92.25" height="60" rx="7.5" fill="white"/>
</clipPath>
<clipPath id="clip10_2505_24809">
<rect y="147.5" width="92.25" height="60" rx="7.5" fill="white"/>
</clipPath>
</defs>
</svg>
