<svg width="818" height="113" viewBox="0 0 818 113" fill="none" xmlns="http://www.w3.org/2000/svg">
<path d="M51 67.5H194.929C199.456 67.5 203.799 65.7014 207 62.5V62.5C210.201 59.2986 214.544 57.5 219.071 57.5H425.5" stroke="#B4DBFF" stroke-width="4"/>
<path d="M778 67L515.071 67C510.544 67 506.201 68.7985 503 72V72C499.799 75.2014 495.456 77 490.929 77L316 77" stroke="#1FA4F1" stroke-width="4"/>
<g clip-path="url(#clip0_2505_24579)">
<rect x="544" y="22" width="122" height="91" rx="13" fill="white"/>
<path d="M557.625 23H652.928C659.6 23 665 28.3787 665 35V99.4497C665 106.377 659.354 112 652.375 112H557.625C550.646 112 545 106.377 545 99.4497V35.5503C545 28.6233 550.646 23 557.625 23Z" stroke="#012137" stroke-width="2"/>
<path d="M561.864 38.0117H648.136C649.031 38.0117 649.749 38.7317 649.749 39.6105V95.0776C649.749 95.9548 649.033 96.6763 648.136 96.6763H561.864C560.969 96.6763 560.251 95.9563 560.251 95.0776V39.6105C560.251 38.7333 560.967 38.0117 561.864 38.0117Z" stroke="#012137" stroke-width="2"/>
<path d="M606.127 49.8733C606.127 49.8733 606.096 49.855 606.087 49.8428C605.426 49.43 604.568 49.43 603.907 49.8428C603.898 49.8428 603.876 49.8611 603.867 49.8733C602.96 50.4726 602.103 51.1085 601.285 51.7964C602.597 52.4324 603.839 53.1875 604.992 54.0528C610.692 58.3087 614.061 64.9554 614.061 72.0944C614.061 77.0657 610.009 81.1045 605.002 81.1045C599.994 81.1045 595.942 77.0749 595.942 72.0944H595.923C595.923 67.9945 597.018 64.1513 598.939 60.8493C602.588 63.28 604.983 67.4074 604.983 72.0944C604.983 73.5742 604.845 74.9378 604.608 76.1821H604.992C607.261 76.1821 609.103 74.3477 609.103 72.0944C609.103 64.5335 604.322 58.0916 597.608 55.5815C593.922 60.2195 591.841 66.0041 591.841 72.0822H591.859C591.859 79.2976 597.746 85.1525 605.002 85.1525C612.257 85.1525 618.144 79.2976 618.144 72.0822C618.144 63.121 613.649 54.8141 606.127 49.8642V49.8733Z" fill="#1FA4F1"/>
</g>
<g clip-path="url(#clip1_2505_24579)">
<rect x="544" y="22" width="122" height="91" rx="13" fill="white"/>
<path d="M557.625 23H652.928C659.6 23 665 28.3787 665 35V99.4497C665 106.377 659.354 112 652.375 112H557.625C550.646 112 545 106.377 545 99.4497V35.5503C545 28.6233 550.646 23 557.625 23Z" stroke="#012137" stroke-width="2"/>
<path d="M561.864 38.0117H648.136C649.031 38.0117 649.749 38.7317 649.749 39.6105V95.0776C649.749 95.9548 649.033 96.6763 648.136 96.6763H561.864C560.969 96.6763 560.251 95.9563 560.251 95.0776V39.6105C560.251 38.7333 560.967 38.0117 561.864 38.0117Z" stroke="#012137" stroke-width="2"/>
<path d="M606.127 49.8733C606.127 49.8733 606.096 49.855 606.087 49.8428C605.426 49.43 604.568 49.43 603.907 49.8428C603.898 49.8428 603.876 49.8611 603.867 49.8733C602.96 50.4726 602.103 51.1085 601.285 51.7964C602.597 52.4324 603.839 53.1875 604.992 54.0528C610.692 58.3087 614.061 64.9554 614.061 72.0944C614.061 77.0657 610.009 81.1045 605.002 81.1045C599.994 81.1045 595.942 77.0749 595.942 72.0944H595.923C595.923 67.9945 597.018 64.1513 598.939 60.8493C602.588 63.28 604.983 67.4074 604.983 72.0944C604.983 73.5742 604.845 74.9378 604.608 76.1821H604.992C607.261 76.1821 609.103 74.3477 609.103 72.0944C609.103 64.5335 604.322 58.0916 597.608 55.5815C593.922 60.2195 591.841 66.0041 591.841 72.0822H591.859C591.859 79.2976 597.746 85.1525 605.002 85.1525C612.257 85.1525 618.144 79.2976 618.144 72.0822C618.144 63.121 613.649 54.8141 606.127 49.8642V49.8733Z" fill="#1FA4F1"/>
</g>
<mask id="path-11-inside-1_2505_24579" fill="white">
<path fill-rule="evenodd" clip-rule="evenodd" d="M743 7.5C743 3.35786 739.642 0 735.5 0C731.358 0 728 3.35786 728 7.5V24H707.5C703.358 24 700 27.3579 700 31.5C700 34.2785 701.511 36.704 703.756 38C702.875 38.5084 702.107 39.1907 701.499 40H691.5C689.015 40 687 42.0147 687 44.5C687 46.9853 689.015 49 691.5 49H701.499C702.868 50.8217 705.046 52 707.5 52H709L709 61H705.5C701.358 61 698 64.3579 698 68.5C698 72.6421 701.358 76 705.5 76H727V79H701.5C697.358 79 694 82.3579 694 86.5C694 90.6421 697.358 94 701.5 94H727.458C728.732 98.0571 732.522 101 737 101H740V106.5C740 107.102 740.082 107.684 740.235 108.237C740.083 108.629 740 109.055 740 109.5C740 111.433 741.567 113 743.5 113H746.49L746.5 113L746.51 113H789.5C791.433 113 793 111.433 793 109.5C793 107.567 791.433 106 789.5 106H787.826C787.94 105.518 788 105.016 788 104.5V101H793C798.523 101 803 96.5229 803 91V74C803 68.4771 798.523 64 793 64H790.95L784.022 52H789.5C793.642 52 797 48.6421 797 44.5C797 42.3269 796.076 40.3697 794.599 39H810.5C814.642 39 818 35.6421 818 31.5C818 27.3579 814.642 24 810.5 24H743V7.5ZM724 61V52H727V61H724ZM775 104.5C775 105.016 775.06 105.518 775.174 106H753V101H775V104.5Z"/>
</mask>
<path fill-rule="evenodd" clip-rule="evenodd" d="M743 7.5C743 3.35786 739.642 0 735.5 0C731.358 0 728 3.35786 728 7.5V24H707.5C703.358 24 700 27.3579 700 31.5C700 34.2785 701.511 36.704 703.756 38C702.875 38.5084 702.107 39.1907 701.499 40H691.5C689.015 40 687 42.0147 687 44.5C687 46.9853 689.015 49 691.5 49H701.499C702.868 50.8217 705.046 52 707.5 52H709L709 61H705.5C701.358 61 698 64.3579 698 68.5C698 72.6421 701.358 76 705.5 76H727V79H701.5C697.358 79 694 82.3579 694 86.5C694 90.6421 697.358 94 701.5 94H727.458C728.732 98.0571 732.522 101 737 101H740V106.5C740 107.102 740.082 107.684 740.235 108.237C740.083 108.629 740 109.055 740 109.5C740 111.433 741.567 113 743.5 113H746.49L746.5 113L746.51 113H789.5C791.433 113 793 111.433 793 109.5C793 107.567 791.433 106 789.5 106H787.826C787.94 105.518 788 105.016 788 104.5V101H793C798.523 101 803 96.5229 803 91V74C803 68.4771 798.523 64 793 64H790.95L784.022 52H789.5C793.642 52 797 48.6421 797 44.5C797 42.3269 796.076 40.3697 794.599 39H810.5C814.642 39 818 35.6421 818 31.5C818 27.3579 814.642 24 810.5 24H743V7.5ZM724 61V52H727V61H724ZM775 104.5C775 105.016 775.06 105.518 775.174 106H753V101H775V104.5Z" fill="white"/>
<path d="M728 24V26H730V24H728ZM703.756 38L704.756 39.7321L707.756 38L704.756 36.2679L703.756 38ZM701.499 40V42H702.499L703.099 41.2012L701.499 40ZM701.499 49L703.099 47.7988L702.499 47H701.499V49ZM709 52H711V50H709V52ZM709 61V63H711V61H709ZM727 76H729V74H727V76ZM727 79V81H729V79H727ZM727.458 94L729.366 93.4007L728.926 92H727.458V94ZM740 101H742V99H740V101ZM740.235 108.237L742.1 108.959L742.339 108.342L742.162 107.704L740.235 108.237ZM746.49 113L746.491 111H746.49V113ZM746.5 113L746.498 115H746.502L746.5 113ZM746.51 113V111H746.509L746.51 113ZM787.826 106L785.88 105.54L785.299 108H787.826V106ZM788 101V99H786V101H788ZM790.95 64L789.218 65L789.796 66H790.95V64ZM784.022 52V50H780.558L782.29 53L784.022 52ZM794.599 39V37H789.502L793.239 40.4663L794.599 39ZM743 24H741V26H743V24ZM724 52V50H722V52H724ZM724 61H722V63H724V61ZM727 52H729V50H727V52ZM727 61V63H729V61H727ZM775.174 106V108H777.701L777.12 105.54L775.174 106ZM753 106H751V108H753V106ZM753 101V99H751V101H753ZM775 101H777V99H775V101ZM735.5 2C738.538 2 741 4.46243 741 7.5H745C745 2.25329 740.747 -2 735.5 -2V2ZM730 7.5C730 4.46243 732.462 2 735.5 2V-2C730.253 -2 726 2.2533 726 7.5H730ZM730 24V7.5H726V24H730ZM707.5 26H728V22H707.5V26ZM702 31.5C702 28.4624 704.462 26 707.5 26V22C702.253 22 698 26.2533 698 31.5H702ZM704.756 36.2679C703.104 35.3145 702 33.535 702 31.5H698C698 35.0219 699.918 38.0936 702.756 39.7321L704.756 36.2679ZM703.099 41.2012C703.545 40.6063 704.11 40.1051 704.756 39.7321L702.756 36.2679C701.64 36.9118 700.669 37.7751 699.9 38.7988L703.099 41.2012ZM691.5 42H701.499V38H691.5V42ZM689 44.5C689 43.1193 690.119 42 691.5 42V38C687.91 38 685 40.9101 685 44.5H689ZM691.5 47C690.119 47 689 45.8807 689 44.5H685C685 48.0899 687.91 51 691.5 51V47ZM701.499 47H691.5V51H701.499V47ZM707.5 50C705.702 50 704.105 49.1392 703.099 47.7988L699.9 50.2012C701.63 52.5041 704.391 54 707.5 54V50ZM709 50H707.5V54H709V50ZM711 61L711 52H707L707 61H711ZM705.5 63H709V59H705.5V63ZM700 68.5C700 65.4624 702.462 63 705.5 63V59C700.253 59 696 63.2533 696 68.5H700ZM705.5 74C702.462 74 700 71.5376 700 68.5H696C696 73.7467 700.253 78 705.5 78V74ZM727 74H705.5V78H727V74ZM729 79V76H725V79H729ZM701.5 81H727V77H701.5V81ZM696 86.5C696 83.4624 698.462 81 701.5 81V77C696.253 77 692 81.2533 692 86.5H696ZM701.5 92C698.462 92 696 89.5376 696 86.5H692C692 91.7467 696.253 96 701.5 96V92ZM727.458 92H701.5V96H727.458V92ZM737 99C733.421 99 730.386 96.6482 729.366 93.4007L725.55 94.5993C727.078 99.466 731.624 103 737 103V99ZM740 99H737V103H740V99ZM742 106.5V101H738V106.5H742ZM742.162 107.704C742.057 107.323 742 106.92 742 106.5H738C738 107.284 738.107 108.045 738.307 108.771L742.162 107.704ZM742 109.5C742 109.306 742.036 109.124 742.1 108.959L738.37 107.515C738.13 108.134 738 108.804 738 109.5H742ZM743.5 111C742.672 111 742 110.328 742 109.5H738C738 112.538 740.462 115 743.5 115V111ZM746.49 111H743.5V115H746.49V111ZM746.502 111L746.491 111L746.488 115L746.498 115L746.502 111ZM746.509 111L746.498 111L746.502 115L746.512 115L746.509 111ZM789.5 111H746.51V115H789.5V111ZM791 109.5C791 110.328 790.328 111 789.5 111V115C792.538 115 795 112.538 795 109.5H791ZM789.5 108C790.328 108 791 108.672 791 109.5H795C795 106.462 792.538 104 789.5 104V108ZM787.826 108H789.5V104H787.826V108ZM786 104.5C786 104.86 785.958 105.208 785.88 105.54L789.773 106.46C789.922 105.829 790 105.172 790 104.5H786ZM786 101V104.5H790V101H786ZM793 99H788V103H793V99ZM801 91C801 95.4183 797.418 99 793 99V103C799.627 103 805 97.6274 805 91H801ZM801 74V91H805V74H801ZM793 66C797.418 66 801 69.5817 801 74H805C805 67.3726 799.627 62 793 62V66ZM790.95 66H793V62H790.95V66ZM782.29 53L789.218 65L792.683 63L785.754 51L782.29 53ZM789.5 50H784.022V54H789.5V50ZM795 44.5C795 47.5376 792.538 50 789.5 50V54C794.747 54 799 49.7467 799 44.5H795ZM793.239 40.4663C794.325 41.4735 795 42.9064 795 44.5H799C799 41.7475 797.827 39.266 795.959 37.5337L793.239 40.4663ZM810.5 37H794.599V41H810.5V37ZM816 31.5C816 34.5376 813.538 37 810.5 37V41C815.747 41 820 36.7467 820 31.5H816ZM810.5 26C813.538 26 816 28.4624 816 31.5H820C820 26.2533 815.747 22 810.5 22V26ZM743 26H810.5V22H743V26ZM741 7.5V24H745V7.5H741ZM722 52V61H726V52H722ZM727 50H724V54H727V50ZM729 61V52H725V61H729ZM724 63H727V59H724V63ZM777.12 105.54C777.042 105.208 777 104.86 777 104.5H773C773 105.172 773.078 105.829 773.227 106.46L777.12 105.54ZM753 108H775.174V104H753V108ZM751 101V106H755V101H751ZM775 99H753V103H775V99ZM777 104.5V101H773V104.5H777Z" fill="#012137" mask="url(#path-11-inside-1_2505_24579)"/>
<path d="M769.97 69.0198C769.97 75.6298 764.6 80.9998 757.99 80.9998C751.38 80.9998 746.01 75.6298 746.01 69.0198C746.01 62.4098 751.38 57.0398 757.99 57.0398C761.67 57.0398 764.96 58.7098 767.16 61.3198C764.66 61.4798 762.17 61.2398 759.78 60.6098V64.8598C761.7 65.2798 763.67 65.5098 765.66 65.5098C767.5 65.5098 769.36 65.3198 771.21 64.9498C771.85 64.7898 772.39 64.3198 772.64 63.7098C772.69 63.5898 772.72 63.4798 772.75 63.3598C773.53 59.5398 773.47 55.6898 772.65 52.0098H768.39C768.87 53.8298 769.13 55.7198 769.15 57.6298C766.27 54.7998 762.34 53.0498 757.99 53.0498C749.18 53.0498 742.01 60.2198 742.01 69.0298C742.01 77.8398 749.18 85.0098 757.99 85.0098C766.8 85.0098 773.97 77.8398 773.97 69.0298H769.97V69.0198Z" fill="#1FA4F1"/>
<path d="M794 38H705.5" stroke="#012137" stroke-width="2"/>
<path d="M760 20L760 24" stroke="#012137" stroke-width="2" stroke-linecap="round"/>
<path d="M777 20L777 24" stroke="#012137" stroke-width="2" stroke-linecap="round"/>
<path d="M794 20L794 24" stroke="#012137" stroke-width="2" stroke-linecap="round"/>
<path d="M811 20L811 24" stroke="#012137" stroke-width="2" stroke-linecap="round"/>
<path d="M728 93L728 63" stroke="#012137" stroke-width="2"/>
<path d="M723 62L710 62" stroke="#012137" stroke-width="2"/>
<path d="M723 51L710 51" stroke="#012137" stroke-width="2"/>
<path d="M790 100L741 100" stroke="#012137" stroke-width="2"/>
<mask id="path-23-inside-2_2505_24579" fill="white">
<path fill-rule="evenodd" clip-rule="evenodd" d="M743 7.5C743 3.35786 739.642 0 735.5 0C731.358 0 728 3.35786 728 7.5V24H707.5C703.358 24 700 27.3579 700 31.5C700 34.2785 701.511 36.704 703.756 38C702.875 38.5084 702.107 39.1907 701.499 40H691.5C689.015 40 687 42.0147 687 44.5C687 46.9853 689.015 49 691.5 49H701.499C702.868 50.8217 705.046 52 707.5 52H709L709 61H705.5C701.358 61 698 64.3579 698 68.5C698 72.6421 701.358 76 705.5 76H727V79H701.5C697.358 79 694 82.3579 694 86.5C694 90.6421 697.358 94 701.5 94H727.458C728.732 98.0571 732.522 101 737 101H740V106.5C740 107.102 740.082 107.684 740.235 108.237C740.083 108.629 740 109.055 740 109.5C740 111.433 741.567 113 743.5 113H746.49L746.5 113L746.51 113H789.5C791.433 113 793 111.433 793 109.5C793 107.567 791.433 106 789.5 106H787.826C787.94 105.518 788 105.016 788 104.5V101H793C798.523 101 803 96.5229 803 91V74C803 68.4771 798.523 64 793 64H790.95L784.022 52H789.5C793.642 52 797 48.6421 797 44.5C797 42.3269 796.076 40.3697 794.599 39H810.5C814.642 39 818 35.6421 818 31.5C818 27.3579 814.642 24 810.5 24H743V7.5ZM724 61V52H727V61H724ZM775 104.5C775 105.016 775.06 105.518 775.174 106H753V101H775V104.5Z"/>
</mask>
<path fill-rule="evenodd" clip-rule="evenodd" d="M743 7.5C743 3.35786 739.642 0 735.5 0C731.358 0 728 3.35786 728 7.5V24H707.5C703.358 24 700 27.3579 700 31.5C700 34.2785 701.511 36.704 703.756 38C702.875 38.5084 702.107 39.1907 701.499 40H691.5C689.015 40 687 42.0147 687 44.5C687 46.9853 689.015 49 691.5 49H701.499C702.868 50.8217 705.046 52 707.5 52H709L709 61H705.5C701.358 61 698 64.3579 698 68.5C698 72.6421 701.358 76 705.5 76H727V79H701.5C697.358 79 694 82.3579 694 86.5C694 90.6421 697.358 94 701.5 94H727.458C728.732 98.0571 732.522 101 737 101H740V106.5C740 107.102 740.082 107.684 740.235 108.237C740.083 108.629 740 109.055 740 109.5C740 111.433 741.567 113 743.5 113H746.49L746.5 113L746.51 113H789.5C791.433 113 793 111.433 793 109.5C793 107.567 791.433 106 789.5 106H787.826C787.94 105.518 788 105.016 788 104.5V101H793C798.523 101 803 96.5229 803 91V74C803 68.4771 798.523 64 793 64H790.95L784.022 52H789.5C793.642 52 797 48.6421 797 44.5C797 42.3269 796.076 40.3697 794.599 39H810.5C814.642 39 818 35.6421 818 31.5C818 27.3579 814.642 24 810.5 24H743V7.5ZM724 61V52H727V61H724ZM775 104.5C775 105.016 775.06 105.518 775.174 106H753V101H775V104.5Z" fill="white"/>
<path d="M728 24V26H730V24H728ZM703.756 38L704.756 39.7321L707.756 38L704.756 36.2679L703.756 38ZM701.499 40V42H702.499L703.099 41.2012L701.499 40ZM701.499 49L703.099 47.7988L702.499 47H701.499V49ZM709 52H711V50H709V52ZM709 61V63H711V61H709ZM727 76H729V74H727V76ZM727 79V81H729V79H727ZM727.458 94L729.366 93.4007L728.926 92H727.458V94ZM740 101H742V99H740V101ZM740.235 108.237L742.1 108.959L742.339 108.342L742.162 107.704L740.235 108.237ZM746.49 113L746.491 111H746.49V113ZM746.5 113L746.498 115H746.502L746.5 113ZM746.51 113V111H746.509L746.51 113ZM787.826 106L785.88 105.54L785.299 108H787.826V106ZM788 101V99H786V101H788ZM790.95 64L789.218 65L789.796 66H790.95V64ZM784.022 52V50H780.558L782.29 53L784.022 52ZM794.599 39V37H789.502L793.239 40.4663L794.599 39ZM743 24H741V26H743V24ZM724 52V50H722V52H724ZM724 61H722V63H724V61ZM727 52H729V50H727V52ZM727 61V63H729V61H727ZM775.174 106V108H777.701L777.12 105.54L775.174 106ZM753 106H751V108H753V106ZM753 101V99H751V101H753ZM775 101H777V99H775V101ZM735.5 2C738.538 2 741 4.46243 741 7.5H745C745 2.25329 740.747 -2 735.5 -2V2ZM730 7.5C730 4.46243 732.462 2 735.5 2V-2C730.253 -2 726 2.2533 726 7.5H730ZM730 24V7.5H726V24H730ZM707.5 26H728V22H707.5V26ZM702 31.5C702 28.4624 704.462 26 707.5 26V22C702.253 22 698 26.2533 698 31.5H702ZM704.756 36.2679C703.104 35.3145 702 33.535 702 31.5H698C698 35.0219 699.918 38.0936 702.756 39.7321L704.756 36.2679ZM703.099 41.2012C703.545 40.6063 704.11 40.1051 704.756 39.7321L702.756 36.2679C701.64 36.9118 700.669 37.7751 699.9 38.7988L703.099 41.2012ZM691.5 42H701.499V38H691.5V42ZM689 44.5C689 43.1193 690.119 42 691.5 42V38C687.91 38 685 40.9101 685 44.5H689ZM691.5 47C690.119 47 689 45.8807 689 44.5H685C685 48.0899 687.91 51 691.5 51V47ZM701.499 47H691.5V51H701.499V47ZM707.5 50C705.702 50 704.105 49.1392 703.099 47.7988L699.9 50.2012C701.63 52.5041 704.391 54 707.5 54V50ZM709 50H707.5V54H709V50ZM711 61L711 52H707L707 61H711ZM705.5 63H709V59H705.5V63ZM700 68.5C700 65.4624 702.462 63 705.5 63V59C700.253 59 696 63.2533 696 68.5H700ZM705.5 74C702.462 74 700 71.5376 700 68.5H696C696 73.7467 700.253 78 705.5 78V74ZM727 74H705.5V78H727V74ZM729 79V76H725V79H729ZM701.5 81H727V77H701.5V81ZM696 86.5C696 83.4624 698.462 81 701.5 81V77C696.253 77 692 81.2533 692 86.5H696ZM701.5 92C698.462 92 696 89.5376 696 86.5H692C692 91.7467 696.253 96 701.5 96V92ZM727.458 92H701.5V96H727.458V92ZM737 99C733.421 99 730.386 96.6482 729.366 93.4007L725.55 94.5993C727.078 99.466 731.624 103 737 103V99ZM740 99H737V103H740V99ZM742 106.5V101H738V106.5H742ZM742.162 107.704C742.057 107.323 742 106.92 742 106.5H738C738 107.284 738.107 108.045 738.307 108.771L742.162 107.704ZM742 109.5C742 109.306 742.036 109.124 742.1 108.959L738.37 107.515C738.13 108.134 738 108.804 738 109.5H742ZM743.5 111C742.672 111 742 110.328 742 109.5H738C738 112.538 740.462 115 743.5 115V111ZM746.49 111H743.5V115H746.49V111ZM746.502 111L746.491 111L746.488 115L746.498 115L746.502 111ZM746.509 111L746.498 111L746.502 115L746.512 115L746.509 111ZM789.5 111H746.51V115H789.5V111ZM791 109.5C791 110.328 790.328 111 789.5 111V115C792.538 115 795 112.538 795 109.5H791ZM789.5 108C790.328 108 791 108.672 791 109.5H795C795 106.462 792.538 104 789.5 104V108ZM787.826 108H789.5V104H787.826V108ZM786 104.5C786 104.86 785.958 105.208 785.88 105.54L789.773 106.46C789.922 105.829 790 105.172 790 104.5H786ZM786 101V104.5H790V101H786ZM793 99H788V103H793V99ZM801 91C801 95.4183 797.418 99 793 99V103C799.627 103 805 97.6274 805 91H801ZM801 74V91H805V74H801ZM793 66C797.418 66 801 69.5817 801 74H805C805 67.3726 799.627 62 793 62V66ZM790.95 66H793V62H790.95V66ZM782.29 53L789.218 65L792.683 63L785.754 51L782.29 53ZM789.5 50H784.022V54H789.5V50ZM795 44.5C795 47.5376 792.538 50 789.5 50V54C794.747 54 799 49.7467 799 44.5H795ZM793.239 40.4663C794.325 41.4735 795 42.9064 795 44.5H799C799 41.7475 797.827 39.266 795.959 37.5337L793.239 40.4663ZM810.5 37H794.599V41H810.5V37ZM816 31.5C816 34.5376 813.538 37 810.5 37V41C815.747 41 820 36.7467 820 31.5H816ZM810.5 26C813.538 26 816 28.4624 816 31.5H820C820 26.2533 815.747 22 810.5 22V26ZM743 26H810.5V22H743V26ZM741 7.5V24H745V7.5H741ZM722 52V61H726V52H722ZM727 50H724V54H727V50ZM729 61V52H725V61H729ZM724 63H727V59H724V63ZM777.12 105.54C777.042 105.208 777 104.86 777 104.5H773C773 105.172 773.078 105.829 773.227 106.46L777.12 105.54ZM753 108H775.174V104H753V108ZM751 101V106H755V101H751ZM775 99H753V103H775V99ZM777 104.5V101H773V104.5H777Z" fill="#012137" mask="url(#path-23-inside-2_2505_24579)"/>
<path d="M769.97 69.0198C769.97 75.6298 764.6 80.9998 757.99 80.9998C751.38 80.9998 746.01 75.6298 746.01 69.0198C746.01 62.4098 751.38 57.0398 757.99 57.0398C761.67 57.0398 764.96 58.7098 767.16 61.3198C764.66 61.4798 762.17 61.2398 759.78 60.6098V64.8598C761.7 65.2798 763.67 65.5098 765.66 65.5098C767.5 65.5098 769.36 65.3198 771.21 64.9498C771.85 64.7898 772.39 64.3198 772.64 63.7098C772.69 63.5898 772.72 63.4798 772.75 63.3598C773.53 59.5398 773.47 55.6898 772.65 52.0098H768.39C768.87 53.8298 769.13 55.7198 769.15 57.6298C766.27 54.7998 762.34 53.0498 757.99 53.0498C749.18 53.0498 742.01 60.2198 742.01 69.0298C742.01 77.8398 749.18 85.0098 757.99 85.0098C766.8 85.0098 773.97 77.8398 773.97 69.0298H769.97V69.0198Z" fill="#1FA4F1"/>
<path d="M794 38H705.5" stroke="#012137" stroke-width="2"/>
<path d="M760 20L760 24" stroke="#012137" stroke-width="2" stroke-linecap="round"/>
<path d="M777 20L777 24" stroke="#012137" stroke-width="2" stroke-linecap="round"/>
<path d="M794 20L794 24" stroke="#012137" stroke-width="2" stroke-linecap="round"/>
<path d="M811 20L811 24" stroke="#012137" stroke-width="2" stroke-linecap="round"/>
<path d="M728 93L728 63" stroke="#012137" stroke-width="2"/>
<path d="M723 62L710 62" stroke="#012137" stroke-width="2"/>
<path d="M723 51L710 51" stroke="#012137" stroke-width="2"/>
<path d="M790 100L741 100" stroke="#012137" stroke-width="2"/>
<g clip-path="url(#clip2_2505_24579)">
<rect y="22" width="91" height="91" rx="12" fill="white"/>
<path d="M89.9977 34.999V34.9993V100.001C89.9977 106.628 84.6256 112 77.9984 112H12.9993C6.37218 112 1 106.628 1 99.9984V34.9993C1 28.3721 6.37207 23 12.9993 23H78.0007C84.628 23 89.9998 28.3721 89.9977 34.999Z" stroke="#012137" stroke-width="2"/>
<path d="M13.3247 31.125H77.6748C79.9954 31.125 81.8754 33.0067 81.8754 35.3257V86.6764C81.8754 88.997 79.9937 90.8771 77.6748 90.8771H13.3247C11.0041 90.8771 9.12402 88.9953 9.12402 86.6764V35.3257C9.12402 33.005 11.0058 31.125 13.3247 31.125Z" stroke="#012137" stroke-width="2"/>
<path d="M44.3268 62.743C47.4683 64.8572 50.5616 66.3041 53.5197 67.0447C56.2805 67.7372 58.8808 67.8083 61.2473 67.258C64.4369 66.5173 66.7346 64.7196 68.4681 62.1605C68.9336 61.4566 68.9313 60.5348 68.4635 59.8308C67.661 58.6178 66.7735 57.4804 65.8105 56.4256C65.7371 58.1018 65.3014 59.2369 64.8932 59.95C63.9714 61.5506 62.3411 62.6925 60.2979 63.1672C58.5873 63.5639 56.6497 63.4974 54.5424 62.97C52.059 62.3486 49.4105 61.0988 46.6726 59.2575C43.5311 57.1433 40.4378 55.6964 37.4797 54.9557C34.7189 54.2632 32.1186 54.1922 29.7521 54.7425C26.5625 55.4831 24.2648 57.2809 22.5313 59.84C22.0658 60.5439 22.0681 61.4657 22.5359 62.1697C23.3384 63.3827 24.2259 64.5201 25.1889 65.5749C25.2623 63.8987 25.698 62.7636 26.1062 62.0505C27.028 60.4499 28.6583 59.308 30.7014 58.8333C32.4121 58.4366 34.3497 58.5031 36.457 59.0305C38.9404 59.6519 41.5889 60.9016 44.3268 62.743Z" fill="#B4DBFF"/>
<path d="M48.874 55.985C52.9373 58.7183 56.7782 59.9359 59.406 59.326C60.3714 59.1012 61.1052 58.6243 61.4743 57.9822C61.8183 57.3837 61.9513 56.3312 61.8389 55.093C61.8343 55.0311 61.8275 54.9714 61.8206 54.9095C60.9905 55.1641 59.8417 55.3842 58.3649 55.3842C57.7481 55.3842 57.2414 55.3223 56.918 55.2581C55.7761 55.0333 53.8499 54.3867 51.1625 52.5798C47.9545 50.422 44.7281 48.8054 41.5431 47.7598C38.5713 48.1886 35.7187 49.0966 33.084 50.4312C34.813 50.4358 36.6038 50.6697 38.436 51.1283C41.8389 51.9813 45.3496 53.6139 48.8717 55.9827L48.874 55.985Z" fill="#B4DBFF"/>
<path d="M42.1251 66.0147C38.0618 63.2814 34.2209 62.0637 31.593 62.6737C30.6277 62.8984 29.8939 63.3754 29.5247 64.0174C29.1807 64.6159 29.0477 65.6684 29.1601 66.9067C29.1647 66.9686 29.1716 67.0282 29.1785 67.0901C30.0085 66.8356 31.1574 66.6155 32.6341 66.6155C33.2509 66.6155 33.7577 66.6774 34.081 66.7416C35.223 66.9663 37.1491 67.6129 39.8366 69.4199C43.0446 71.5776 46.2732 73.1942 49.4583 74.2399C52.4301 73.8111 55.2849 72.903 57.9219 71.5685C56.1907 71.5639 54.3975 71.3323 52.5631 70.8714C49.1602 70.0184 45.6495 68.3857 42.1273 66.017L42.1251 66.0147Z" fill="#B4DBFF"/>
</g>
<g clip-path="url(#clip3_2505_24579)">
<rect y="22" width="91" height="91" rx="12" fill="white"/>
<path d="M89.9977 34.999V34.9993V100.001C89.9977 106.628 84.6256 112 77.9984 112H12.9993C6.37218 112 1 106.628 1 99.9984V34.9993C1 28.3721 6.37207 23 12.9993 23H78.0007C84.628 23 89.9998 28.3721 89.9977 34.999Z" stroke="#012137" stroke-width="2"/>
<path d="M13.3247 31.125H77.6748C79.9954 31.125 81.8754 33.0067 81.8754 35.3257V86.6764C81.8754 88.997 79.9937 90.8771 77.6748 90.8771H13.3247C11.0041 90.8771 9.12402 88.9953 9.12402 86.6764V35.3257C9.12402 33.005 11.0058 31.125 13.3247 31.125Z" stroke="#012137" stroke-width="2"/>
<path d="M44.3268 62.743C47.4683 64.8572 50.5616 66.3041 53.5197 67.0447C56.2805 67.7372 58.8808 67.8083 61.2473 67.258C64.4369 66.5173 66.7346 64.7196 68.4681 62.1605C68.9336 61.4566 68.9313 60.5348 68.4635 59.8308C67.661 58.6178 66.7735 57.4804 65.8105 56.4256C65.7371 58.1018 65.3014 59.2369 64.8932 59.95C63.9714 61.5506 62.3411 62.6925 60.2979 63.1672C58.5873 63.5639 56.6497 63.4974 54.5424 62.97C52.059 62.3486 49.4105 61.0988 46.6726 59.2575C43.5311 57.1433 40.4378 55.6964 37.4797 54.9557C34.7189 54.2632 32.1186 54.1922 29.7521 54.7425C26.5625 55.4831 24.2648 57.2809 22.5313 59.84C22.0658 60.5439 22.0681 61.4657 22.5359 62.1697C23.3384 63.3827 24.2259 64.5201 25.1889 65.5749C25.2623 63.8987 25.698 62.7636 26.1062 62.0505C27.028 60.4499 28.6583 59.308 30.7014 58.8333C32.4121 58.4366 34.3497 58.5031 36.457 59.0305C38.9404 59.6519 41.5889 60.9016 44.3268 62.743Z" fill="#B4DBFF"/>
<path d="M48.874 55.985C52.9373 58.7183 56.7782 59.9359 59.406 59.326C60.3714 59.1012 61.1052 58.6243 61.4743 57.9822C61.8183 57.3837 61.9513 56.3312 61.8389 55.093C61.8343 55.0311 61.8275 54.9714 61.8206 54.9095C60.9905 55.1641 59.8417 55.3842 58.3649 55.3842C57.7481 55.3842 57.2414 55.3223 56.918 55.2581C55.7761 55.0333 53.8499 54.3867 51.1625 52.5798C47.9545 50.422 44.7281 48.8054 41.5431 47.7598C38.5713 48.1886 35.7187 49.0966 33.084 50.4312C34.813 50.4358 36.6038 50.6697 38.436 51.1283C41.8389 51.9813 45.3496 53.6139 48.8717 55.9827L48.874 55.985Z" fill="#B4DBFF"/>
<path d="M42.1251 66.0147C38.0618 63.2814 34.2209 62.0637 31.593 62.6737C30.6277 62.8984 29.8939 63.3754 29.5247 64.0174C29.1807 64.6159 29.0477 65.6684 29.1601 66.9067C29.1647 66.9686 29.1716 67.0282 29.1785 67.0901C30.0085 66.8356 31.1574 66.6155 32.6341 66.6155C33.2509 66.6155 33.7577 66.6774 34.081 66.7416C35.223 66.9663 37.1491 67.6129 39.8366 69.4199C43.0446 71.5776 46.2732 73.1942 49.4583 74.2399C52.4301 73.8111 55.2849 72.903 57.9219 71.5685C56.1907 71.5639 54.3975 71.3323 52.5631 70.8714C49.1602 70.0184 45.6495 68.3857 42.1273 66.017L42.1251 66.0147Z" fill="#B4DBFF"/>
</g>
<g clip-path="url(#clip4_2505_24579)">
<rect x="365" y="27" width="123" height="80" rx="10" fill="white"/>
<path d="M283.85 40.4444C278.567 34.5185 273.284 34.5185 268 40.4444L268 180.5L585 180.5L585 40.4444C579.717 34.5185 574.433 34.5185 569.15 40.4444C563.867 34.5185 558.583 34.5185 553.3 40.4444C548.017 34.5185 542.733 34.5185 537.45 40.4444C532.167 34.5185 526.883 34.5185 521.6 40.4444C516.317 34.5185 511.033 34.5185 505.75 40.4444C500.467 34.5185 495.183 34.5185 489.9 40.4444C484.617 34.5185 479.333 34.5185 474.05 40.4444C468.767 34.5185 463.483 34.5185 458.2 40.4444C452.917 34.5185 447.633 34.5185 442.35 40.4444C437.067 34.5185 431.783 34.5185 426.5 40.4444C421.217 34.5185 415.933 34.5185 410.65 40.4444C405.367 34.5185 400.084 34.5185 394.8 40.4444C389.517 34.5185 384.234 34.5185 378.95 40.4444C373.667 34.5185 368.383 34.5185 363.1 40.4444C357.817 34.5185 352.534 34.5185 347.25 40.4444C341.967 34.5185 336.684 34.5185 331.4 40.4444C326.117 34.5185 320.833 34.5185 315.55 40.4444C310.267 34.5185 304.984 34.5185 299.7 40.4444C294.417 34.5185 289.134 34.5185 283.85 40.4444Z" fill="#00D791"/>
<path d="M417.136 63.726H411.732V66.834H415.96V67.8H411.732V72H410.696V62.76H417.136V63.726ZM422.382 67.464C422.382 66.9227 422.237 66.5073 421.948 66.218C421.659 65.9193 421.248 65.77 420.716 65.77C420.221 65.77 419.801 65.8773 419.456 66.092C419.111 66.3067 418.854 66.652 418.686 67.128L417.846 66.61C418.042 66.078 418.387 65.6533 418.882 65.336C419.386 65.0187 420.007 64.86 420.744 64.86C421.248 64.86 421.701 64.9487 422.102 65.126C422.513 65.294 422.835 65.5553 423.068 65.91C423.301 66.2647 423.418 66.7127 423.418 67.254V70.67C423.418 71.034 423.605 71.216 423.978 71.216C424.155 71.216 424.328 71.1927 424.496 71.146L424.44 71.958C424.263 72.0513 424.029 72.098 423.74 72.098C423.479 72.098 423.241 72.0513 423.026 71.958C422.821 71.8553 422.657 71.7013 422.536 71.496C422.415 71.2813 422.354 71.0153 422.354 70.698V70.516L422.62 70.544C422.517 70.9173 422.326 71.2207 422.046 71.454C421.775 71.6873 421.467 71.86 421.122 71.972C420.777 72.084 420.436 72.14 420.1 72.14C419.689 72.14 419.307 72.07 418.952 71.93C418.597 71.79 418.317 71.58 418.112 71.3C417.907 71.02 417.804 70.67 417.804 70.25C417.804 69.7273 417.977 69.298 418.322 68.962C418.677 68.626 419.167 68.3973 419.792 68.276L422.592 67.73V68.584L420.282 69.06C419.806 69.1533 419.451 69.2887 419.218 69.466C418.985 69.6433 418.868 69.886 418.868 70.194C418.868 70.5113 418.985 70.7633 419.218 70.95C419.461 71.1367 419.806 71.23 420.254 71.23C420.525 71.23 420.786 71.1973 421.038 71.132C421.29 71.0573 421.519 70.9453 421.724 70.796C421.929 70.6467 422.088 70.46 422.2 70.236C422.321 70.012 422.382 69.746 422.382 69.438V67.464ZM426.1 72V65H426.954L427.094 66.204C427.28 65.7653 427.565 65.434 427.948 65.21C428.33 64.9767 428.792 64.86 429.334 64.86C429.464 64.86 429.604 64.874 429.754 64.902C429.903 64.9207 430.029 64.958 430.132 65.014L429.936 65.966C429.833 65.9193 429.721 65.8867 429.6 65.868C429.478 65.84 429.306 65.826 429.082 65.826C428.774 65.826 428.47 65.9147 428.172 66.092C427.873 66.2693 427.626 66.5353 427.43 66.89C427.234 67.2353 427.136 67.6693 427.136 68.192V72H426.1ZM431.732 72V65H432.642L432.712 66.162C432.955 65.7233 433.282 65.3967 433.692 65.182C434.112 64.9673 434.551 64.86 435.008 64.86C435.531 64.86 436.012 64.9813 436.45 65.224C436.889 65.4573 437.216 65.8167 437.43 66.302C437.58 65.9753 437.79 65.7093 438.06 65.504C438.331 65.2893 438.63 65.1307 438.956 65.028C439.292 64.916 439.614 64.86 439.922 64.86C440.38 64.86 440.809 64.9533 441.21 65.14C441.612 65.3267 441.938 65.616 442.19 66.008C442.452 66.4 442.582 66.8993 442.582 67.506V72H441.546V67.604C441.546 66.96 441.383 66.4933 441.056 66.204C440.73 65.9147 440.319 65.77 439.824 65.77C439.442 65.77 439.087 65.8633 438.76 66.05C438.434 66.2273 438.172 66.4933 437.976 66.848C437.78 67.1933 437.682 67.618 437.682 68.122V72H436.646V67.618C436.646 66.9647 436.478 66.4933 436.142 66.204C435.816 65.9147 435.41 65.77 434.924 65.77C434.588 65.77 434.252 65.8587 433.916 66.036C433.59 66.204 433.314 66.47 433.09 66.834C432.876 67.1887 432.768 67.6507 432.768 68.22V72H431.732Z" fill="#012137"/>
</g>
<g clip-path="url(#clip5_2505_24579)">
<rect x="222" y="27" width="123" height="80" rx="10" fill="white"/>
<path d="M140.85 40.4444C135.567 34.5185 130.284 34.5185 125 40.4444L125 180.5L442 180.5L442 40.4444C436.717 34.5185 431.433 34.5185 426.15 40.4444C420.867 34.5185 415.583 34.5185 410.3 40.4444C405.017 34.5185 399.733 34.5185 394.45 40.4444C389.167 34.5185 383.883 34.5185 378.6 40.4444C373.317 34.5185 368.033 34.5185 362.75 40.4444C357.467 34.5185 352.183 34.5185 346.9 40.4444C341.617 34.5185 336.333 34.5185 331.05 40.4444C325.767 34.5185 320.483 34.5185 315.2 40.4444C309.917 34.5185 304.633 34.5185 299.35 40.4444C294.067 34.5185 288.783 34.5185 283.5 40.4444C278.217 34.5185 272.933 34.5185 267.65 40.4444C262.367 34.5185 257.084 34.5185 251.8 40.4444C246.517 34.5185 241.234 34.5185 235.95 40.4444C230.667 34.5185 225.383 34.5185 220.1 40.4444C214.817 34.5185 209.534 34.5185 204.25 40.4444C198.967 34.5185 193.684 34.5185 188.4 40.4444C183.117 34.5185 177.833 34.5185 172.55 40.4444C167.267 34.5185 161.984 34.5185 156.7 40.4444C151.417 34.5185 146.134 34.5185 140.85 40.4444Z" fill="#00D791"/>
<path d="M274.136 63.726H268.732V66.834H272.96V67.8H268.732V72H267.696V62.76H274.136V63.726ZM279.382 67.464C279.382 66.9227 279.237 66.5073 278.948 66.218C278.659 65.9193 278.248 65.77 277.716 65.77C277.221 65.77 276.801 65.8773 276.456 66.092C276.111 66.3067 275.854 66.652 275.686 67.128L274.846 66.61C275.042 66.078 275.387 65.6533 275.882 65.336C276.386 65.0187 277.007 64.86 277.744 64.86C278.248 64.86 278.701 64.9487 279.102 65.126C279.513 65.294 279.835 65.5553 280.068 65.91C280.301 66.2647 280.418 66.7127 280.418 67.254V70.67C280.418 71.034 280.605 71.216 280.978 71.216C281.155 71.216 281.328 71.1927 281.496 71.146L281.44 71.958C281.263 72.0513 281.029 72.098 280.74 72.098C280.479 72.098 280.241 72.0513 280.026 71.958C279.821 71.8553 279.657 71.7013 279.536 71.496C279.415 71.2813 279.354 71.0153 279.354 70.698V70.516L279.62 70.544C279.517 70.9173 279.326 71.2207 279.046 71.454C278.775 71.6873 278.467 71.86 278.122 71.972C277.777 72.084 277.436 72.14 277.1 72.14C276.689 72.14 276.307 72.07 275.952 71.93C275.597 71.79 275.317 71.58 275.112 71.3C274.907 71.02 274.804 70.67 274.804 70.25C274.804 69.7273 274.977 69.298 275.322 68.962C275.677 68.626 276.167 68.3973 276.792 68.276L279.592 67.73V68.584L277.282 69.06C276.806 69.1533 276.451 69.2887 276.218 69.466C275.985 69.6433 275.868 69.886 275.868 70.194C275.868 70.5113 275.985 70.7633 276.218 70.95C276.461 71.1367 276.806 71.23 277.254 71.23C277.525 71.23 277.786 71.1973 278.038 71.132C278.29 71.0573 278.519 70.9453 278.724 70.796C278.929 70.6467 279.088 70.46 279.2 70.236C279.321 70.012 279.382 69.746 279.382 69.438V67.464ZM283.1 72V65H283.954L284.094 66.204C284.28 65.7653 284.565 65.434 284.948 65.21C285.33 64.9767 285.792 64.86 286.334 64.86C286.464 64.86 286.604 64.874 286.754 64.902C286.903 64.9207 287.029 64.958 287.132 65.014L286.936 65.966C286.833 65.9193 286.721 65.8867 286.6 65.868C286.478 65.84 286.306 65.826 286.082 65.826C285.774 65.826 285.47 65.9147 285.172 66.092C284.873 66.2693 284.626 66.5353 284.43 66.89C284.234 67.2353 284.136 67.6693 284.136 68.192V72H283.1ZM288.732 72V65H289.642L289.712 66.162C289.955 65.7233 290.282 65.3967 290.692 65.182C291.112 64.9673 291.551 64.86 292.008 64.86C292.531 64.86 293.012 64.9813 293.45 65.224C293.889 65.4573 294.216 65.8167 294.43 66.302C294.58 65.9753 294.79 65.7093 295.06 65.504C295.331 65.2893 295.63 65.1307 295.956 65.028C296.292 64.916 296.614 64.86 296.922 64.86C297.38 64.86 297.809 64.9533 298.21 65.14C298.612 65.3267 298.938 65.616 299.19 66.008C299.452 66.4 299.582 66.8993 299.582 67.506V72H298.546V67.604C298.546 66.96 298.383 66.4933 298.056 66.204C297.73 65.9147 297.319 65.77 296.824 65.77C296.442 65.77 296.087 65.8633 295.76 66.05C295.434 66.2273 295.172 66.4933 294.976 66.848C294.78 67.1933 294.682 67.618 294.682 68.122V72H293.646V67.618C293.646 66.9647 293.478 66.4933 293.142 66.204C292.816 65.9147 292.41 65.77 291.924 65.77C291.588 65.77 291.252 65.8587 290.916 66.036C290.59 66.204 290.314 66.47 290.09 66.834C289.876 67.1887 289.768 67.6507 289.768 68.22V72H288.732Z" fill="#012137"/>
</g>
<g clip-path="url(#clip6_2505_24579)">
<rect x="222" y="27" width="123" height="80" rx="10" fill="white"/>
<path d="M140.85 40.4444C135.567 34.5185 130.284 34.5185 125 40.4444L125 180.5L442 180.5L442 40.4444C436.717 34.5185 431.433 34.5185 426.15 40.4444C420.867 34.5185 415.583 34.5185 410.3 40.4444C405.017 34.5185 399.733 34.5185 394.45 40.4444C389.167 34.5185 383.883 34.5185 378.6 40.4444C373.317 34.5185 368.033 34.5185 362.75 40.4444C357.467 34.5185 352.183 34.5185 346.9 40.4444C341.617 34.5185 336.333 34.5185 331.05 40.4444C325.767 34.5185 320.483 34.5185 315.2 40.4444C309.917 34.5185 304.633 34.5185 299.35 40.4444C294.067 34.5185 288.783 34.5185 283.5 40.4444C278.217 34.5185 272.933 34.5185 267.65 40.4444C262.367 34.5185 257.084 34.5185 251.8 40.4444C246.517 34.5185 241.234 34.5185 235.95 40.4444C230.667 34.5185 225.383 34.5185 220.1 40.4444C214.817 34.5185 209.534 34.5185 204.25 40.4444C198.967 34.5185 193.684 34.5185 188.4 40.4444C183.117 34.5185 177.833 34.5185 172.55 40.4444C167.267 34.5185 161.984 34.5185 156.7 40.4444C151.417 34.5185 146.134 34.5185 140.85 40.4444Z" fill="#00D791"/>
<path d="M274.136 63.726H268.732V66.834H272.96V67.8H268.732V72H267.696V62.76H274.136V63.726ZM279.382 67.464C279.382 66.9227 279.237 66.5073 278.948 66.218C278.659 65.9193 278.248 65.77 277.716 65.77C277.221 65.77 276.801 65.8773 276.456 66.092C276.111 66.3067 275.854 66.652 275.686 67.128L274.846 66.61C275.042 66.078 275.387 65.6533 275.882 65.336C276.386 65.0187 277.007 64.86 277.744 64.86C278.248 64.86 278.701 64.9487 279.102 65.126C279.513 65.294 279.835 65.5553 280.068 65.91C280.301 66.2647 280.418 66.7127 280.418 67.254V70.67C280.418 71.034 280.605 71.216 280.978 71.216C281.155 71.216 281.328 71.1927 281.496 71.146L281.44 71.958C281.263 72.0513 281.029 72.098 280.74 72.098C280.479 72.098 280.241 72.0513 280.026 71.958C279.821 71.8553 279.657 71.7013 279.536 71.496C279.415 71.2813 279.354 71.0153 279.354 70.698V70.516L279.62 70.544C279.517 70.9173 279.326 71.2207 279.046 71.454C278.775 71.6873 278.467 71.86 278.122 71.972C277.777 72.084 277.436 72.14 277.1 72.14C276.689 72.14 276.307 72.07 275.952 71.93C275.597 71.79 275.317 71.58 275.112 71.3C274.907 71.02 274.804 70.67 274.804 70.25C274.804 69.7273 274.977 69.298 275.322 68.962C275.677 68.626 276.167 68.3973 276.792 68.276L279.592 67.73V68.584L277.282 69.06C276.806 69.1533 276.451 69.2887 276.218 69.466C275.985 69.6433 275.868 69.886 275.868 70.194C275.868 70.5113 275.985 70.7633 276.218 70.95C276.461 71.1367 276.806 71.23 277.254 71.23C277.525 71.23 277.786 71.1973 278.038 71.132C278.29 71.0573 278.519 70.9453 278.724 70.796C278.929 70.6467 279.088 70.46 279.2 70.236C279.321 70.012 279.382 69.746 279.382 69.438V67.464ZM283.1 72V65H283.954L284.094 66.204C284.28 65.7653 284.565 65.434 284.948 65.21C285.33 64.9767 285.792 64.86 286.334 64.86C286.464 64.86 286.604 64.874 286.754 64.902C286.903 64.9207 287.029 64.958 287.132 65.014L286.936 65.966C286.833 65.9193 286.721 65.8867 286.6 65.868C286.478 65.84 286.306 65.826 286.082 65.826C285.774 65.826 285.47 65.9147 285.172 66.092C284.873 66.2693 284.626 66.5353 284.43 66.89C284.234 67.2353 284.136 67.6693 284.136 68.192V72H283.1ZM288.732 72V65H289.642L289.712 66.162C289.955 65.7233 290.282 65.3967 290.692 65.182C291.112 64.9673 291.551 64.86 292.008 64.86C292.531 64.86 293.012 64.9813 293.45 65.224C293.889 65.4573 294.216 65.8167 294.43 66.302C294.58 65.9753 294.79 65.7093 295.06 65.504C295.331 65.2893 295.63 65.1307 295.956 65.028C296.292 64.916 296.614 64.86 296.922 64.86C297.38 64.86 297.809 64.9533 298.21 65.14C298.612 65.3267 298.938 65.616 299.19 66.008C299.452 66.4 299.582 66.8993 299.582 67.506V72H298.546V67.604C298.546 66.96 298.383 66.4933 298.056 66.204C297.73 65.9147 297.319 65.77 296.824 65.77C296.442 65.77 296.087 65.8633 295.76 66.05C295.434 66.2273 295.172 66.4933 294.976 66.848C294.78 67.1933 294.682 67.618 294.682 68.122V72H293.646V67.618C293.646 66.9647 293.478 66.4933 293.142 66.204C292.816 65.9147 292.41 65.77 291.924 65.77C291.588 65.77 291.252 65.8587 290.916 66.036C290.59 66.204 290.314 66.47 290.09 66.834C289.876 67.1887 289.768 67.6507 289.768 68.22V72H288.732Z" fill="#012137"/>
</g>
<g clip-path="url(#clip7_2505_24579)">
<rect x="365" y="27" width="123" height="80" rx="10" fill="white"/>
<path d="M283.85 45.2228C278.567 36.8888 273.283 36.8888 268 45.2228V120H585V45.2228C579.717 29.1176 574.433 29.1176 569.15 45.2228C563.867 38.1234 558.583 38.1234 553.3 45.2228C548.017 33.8202 542.733 33.8202 537.45 45.2228C532.167 39.812 526.883 39.812 521.6 45.2228C516.317 40.0662 511.033 40.0662 505.75 45.2228C500.467 35.9809 495.183 35.9809 489.9 45.2228C484.617 35.9991 479.333 35.9991 474.05 45.2228C468.767 35.0912 463.483 35.0912 458.2 45.2228C452.917 27.8466 447.633 27.8466 442.35 45.2228C437.067 28.3368 431.783 28.3368 426.5 45.2228C421.217 30.1888 415.933 30.1888 410.65 45.2228C405.367 40.0844 400.083 40.0844 394.8 45.2228C389.517 36.217 384.233 36.217 378.95 45.2228C373.667 27.5924 368.383 27.5924 363.1 45.2228C357.817 40.9922 352.533 40.9922 347.25 45.2228C341.967 40.3749 336.683 40.3749 331.4 45.2228C326.117 27.7195 320.833 27.7195 315.55 45.2228C310.267 28.119 304.983 28.119 299.7 45.2228C294.417 33.3482 289.133 33.3482 283.85 45.2228Z" fill="#FF4D80"/>
<path d="M417.136 63.726H411.732V66.834H415.96V67.8H411.732V72H410.696V62.76H417.136V63.726ZM422.382 67.464C422.382 66.9227 422.237 66.5073 421.948 66.218C421.659 65.9193 421.248 65.77 420.716 65.77C420.221 65.77 419.801 65.8773 419.456 66.092C419.111 66.3067 418.854 66.652 418.686 67.128L417.846 66.61C418.042 66.078 418.387 65.6533 418.882 65.336C419.386 65.0187 420.007 64.86 420.744 64.86C421.248 64.86 421.701 64.9487 422.102 65.126C422.513 65.294 422.835 65.5553 423.068 65.91C423.301 66.2647 423.418 66.7127 423.418 67.254V70.67C423.418 71.034 423.605 71.216 423.978 71.216C424.155 71.216 424.328 71.1927 424.496 71.146L424.44 71.958C424.263 72.0513 424.029 72.098 423.74 72.098C423.479 72.098 423.241 72.0513 423.026 71.958C422.821 71.8553 422.657 71.7013 422.536 71.496C422.415 71.2813 422.354 71.0153 422.354 70.698V70.516L422.62 70.544C422.517 70.9173 422.326 71.2207 422.046 71.454C421.775 71.6873 421.467 71.86 421.122 71.972C420.777 72.084 420.436 72.14 420.1 72.14C419.689 72.14 419.307 72.07 418.952 71.93C418.597 71.79 418.317 71.58 418.112 71.3C417.907 71.02 417.804 70.67 417.804 70.25C417.804 69.7273 417.977 69.298 418.322 68.962C418.677 68.626 419.167 68.3973 419.792 68.276L422.592 67.73V68.584L420.282 69.06C419.806 69.1533 419.451 69.2887 419.218 69.466C418.985 69.6433 418.868 69.886 418.868 70.194C418.868 70.5113 418.985 70.7633 419.218 70.95C419.461 71.1367 419.806 71.23 420.254 71.23C420.525 71.23 420.786 71.1973 421.038 71.132C421.29 71.0573 421.519 70.9453 421.724 70.796C421.929 70.6467 422.088 70.46 422.2 70.236C422.321 70.012 422.382 69.746 422.382 69.438V67.464ZM426.1 72V65H426.954L427.094 66.204C427.28 65.7653 427.565 65.434 427.948 65.21C428.33 64.9767 428.792 64.86 429.334 64.86C429.464 64.86 429.604 64.874 429.754 64.902C429.903 64.9207 430.029 64.958 430.132 65.014L429.936 65.966C429.833 65.9193 429.721 65.8867 429.6 65.868C429.478 65.84 429.306 65.826 429.082 65.826C428.774 65.826 428.47 65.9147 428.172 66.092C427.873 66.2693 427.626 66.5353 427.43 66.89C427.234 67.2353 427.136 67.6693 427.136 68.192V72H426.1ZM431.732 72V65H432.642L432.712 66.162C432.955 65.7233 433.282 65.3967 433.692 65.182C434.112 64.9673 434.551 64.86 435.008 64.86C435.531 64.86 436.012 64.9813 436.45 65.224C436.889 65.4573 437.216 65.8167 437.43 66.302C437.58 65.9753 437.79 65.7093 438.06 65.504C438.331 65.2893 438.63 65.1307 438.956 65.028C439.292 64.916 439.614 64.86 439.922 64.86C440.38 64.86 440.809 64.9533 441.21 65.14C441.612 65.3267 441.938 65.616 442.19 66.008C442.452 66.4 442.582 66.8993 442.582 67.506V72H441.546V67.604C441.546 66.96 441.383 66.4933 441.056 66.204C440.73 65.9147 440.319 65.77 439.824 65.77C439.442 65.77 439.087 65.8633 438.76 66.05C438.434 66.2273 438.172 66.4933 437.976 66.848C437.78 67.1933 437.682 67.618 437.682 68.122V72H436.646V67.618C436.646 66.9647 436.478 66.4933 436.142 66.204C435.816 65.9147 435.41 65.77 434.924 65.77C434.588 65.77 434.252 65.8587 433.916 66.036C433.59 66.204 433.314 66.47 433.09 66.834C432.876 67.1887 432.768 67.6507 432.768 68.22V72H431.732Z" fill="#012137"/>
</g>
<g clip-path="url(#clip8_2505_24579)">
<rect x="365" y="27" width="123" height="80" rx="10" fill="white"/>
<path d="M283.85 40.4444C278.567 34.5185 273.284 34.5185 268 40.4444L268 180.5L585 180.5L585 40.4444C579.717 34.5185 574.433 34.5185 569.15 40.4444C563.867 34.5185 558.583 34.5185 553.3 40.4444C548.017 34.5185 542.733 34.5185 537.45 40.4444C532.167 34.5185 526.883 34.5185 521.6 40.4444C516.317 34.5185 511.033 34.5185 505.75 40.4444C500.467 34.5185 495.183 34.5185 489.9 40.4444C484.617 34.5185 479.333 34.5185 474.05 40.4444C468.767 34.5185 463.483 34.5185 458.2 40.4444C452.917 34.5185 447.633 34.5185 442.35 40.4444C437.067 34.5185 431.783 34.5185 426.5 40.4444C421.217 34.5185 415.933 34.5185 410.65 40.4444C405.367 34.5185 400.084 34.5185 394.8 40.4444C389.517 34.5185 384.234 34.5185 378.95 40.4444C373.667 34.5185 368.383 34.5185 363.1 40.4444C357.817 34.5185 352.534 34.5185 347.25 40.4444C341.967 34.5185 336.684 34.5185 331.4 40.4444C326.117 34.5185 320.833 34.5185 315.55 40.4444C310.267 34.5185 304.984 34.5185 299.7 40.4444C294.417 34.5185 289.134 34.5185 283.85 40.4444Z" fill="#00D791"/>
<path d="M417.136 63.726H411.732V66.834H415.96V67.8H411.732V72H410.696V62.76H417.136V63.726ZM422.382 67.464C422.382 66.9227 422.237 66.5073 421.948 66.218C421.659 65.9193 421.248 65.77 420.716 65.77C420.221 65.77 419.801 65.8773 419.456 66.092C419.111 66.3067 418.854 66.652 418.686 67.128L417.846 66.61C418.042 66.078 418.387 65.6533 418.882 65.336C419.386 65.0187 420.007 64.86 420.744 64.86C421.248 64.86 421.701 64.9487 422.102 65.126C422.513 65.294 422.835 65.5553 423.068 65.91C423.301 66.2647 423.418 66.7127 423.418 67.254V70.67C423.418 71.034 423.605 71.216 423.978 71.216C424.155 71.216 424.328 71.1927 424.496 71.146L424.44 71.958C424.263 72.0513 424.029 72.098 423.74 72.098C423.479 72.098 423.241 72.0513 423.026 71.958C422.821 71.8553 422.657 71.7013 422.536 71.496C422.415 71.2813 422.354 71.0153 422.354 70.698V70.516L422.62 70.544C422.517 70.9173 422.326 71.2207 422.046 71.454C421.775 71.6873 421.467 71.86 421.122 71.972C420.777 72.084 420.436 72.14 420.1 72.14C419.689 72.14 419.307 72.07 418.952 71.93C418.597 71.79 418.317 71.58 418.112 71.3C417.907 71.02 417.804 70.67 417.804 70.25C417.804 69.7273 417.977 69.298 418.322 68.962C418.677 68.626 419.167 68.3973 419.792 68.276L422.592 67.73V68.584L420.282 69.06C419.806 69.1533 419.451 69.2887 419.218 69.466C418.985 69.6433 418.868 69.886 418.868 70.194C418.868 70.5113 418.985 70.7633 419.218 70.95C419.461 71.1367 419.806 71.23 420.254 71.23C420.525 71.23 420.786 71.1973 421.038 71.132C421.29 71.0573 421.519 70.9453 421.724 70.796C421.929 70.6467 422.088 70.46 422.2 70.236C422.321 70.012 422.382 69.746 422.382 69.438V67.464ZM426.1 72V65H426.954L427.094 66.204C427.28 65.7653 427.565 65.434 427.948 65.21C428.33 64.9767 428.792 64.86 429.334 64.86C429.464 64.86 429.604 64.874 429.754 64.902C429.903 64.9207 430.029 64.958 430.132 65.014L429.936 65.966C429.833 65.9193 429.721 65.8867 429.6 65.868C429.478 65.84 429.306 65.826 429.082 65.826C428.774 65.826 428.47 65.9147 428.172 66.092C427.873 66.2693 427.626 66.5353 427.43 66.89C427.234 67.2353 427.136 67.6693 427.136 68.192V72H426.1ZM431.732 72V65H432.642L432.712 66.162C432.955 65.7233 433.282 65.3967 433.692 65.182C434.112 64.9673 434.551 64.86 435.008 64.86C435.531 64.86 436.012 64.9813 436.45 65.224C436.889 65.4573 437.216 65.8167 437.43 66.302C437.58 65.9753 437.79 65.7093 438.06 65.504C438.331 65.2893 438.63 65.1307 438.956 65.028C439.292 64.916 439.614 64.86 439.922 64.86C440.38 64.86 440.809 64.9533 441.21 65.14C441.612 65.3267 441.938 65.616 442.19 66.008C442.452 66.4 442.582 66.8993 442.582 67.506V72H441.546V67.604C441.546 66.96 441.383 66.4933 441.056 66.204C440.73 65.9147 440.319 65.77 439.824 65.77C439.442 65.77 439.087 65.8633 438.76 66.05C438.434 66.2273 438.172 66.4933 437.976 66.848C437.78 67.1933 437.682 67.618 437.682 68.122V72H436.646V67.618C436.646 66.9647 436.478 66.4933 436.142 66.204C435.816 65.9147 435.41 65.77 434.924 65.77C434.588 65.77 434.252 65.8587 433.916 66.036C433.59 66.204 433.314 66.47 433.09 66.834C432.876 67.1887 432.768 67.6507 432.768 68.22V72H431.732Z" fill="#012137"/>
</g>
<defs>
<clipPath id="clip0_2505_24579">
<rect x="544" y="22" width="122" height="91" rx="13" fill="white"/>
</clipPath>
<clipPath id="clip1_2505_24579">
<rect x="544" y="22" width="122" height="91" rx="13" fill="white"/>
</clipPath>
<clipPath id="clip2_2505_24579">
<rect y="22" width="91" height="91" rx="12" fill="white"/>
</clipPath>
<clipPath id="clip3_2505_24579">
<rect y="22" width="91" height="91" rx="12" fill="white"/>
</clipPath>
<clipPath id="clip4_2505_24579">
<rect x="365" y="27" width="123" height="80" rx="10" fill="white"/>
</clipPath>
<clipPath id="clip5_2505_24579">
<rect x="222" y="27" width="123" height="80" rx="10" fill="white"/>
</clipPath>
<clipPath id="clip6_2505_24579">
<rect x="222" y="27" width="123" height="80" rx="10" fill="white"/>
</clipPath>
<clipPath id="clip7_2505_24579">
<rect x="365" y="27" width="123" height="80" rx="10" fill="white"/>
</clipPath>
<clipPath id="clip8_2505_24579">
<rect x="365" y="27" width="123" height="80" rx="10" fill="white"/>
</clipPath>
</defs>
</svg>
