<svg width="134" height="382" viewBox="0 0 134 382" fill="none" xmlns="http://www.w3.org/2000/svg">
<path d="M71.7559 201L71.7559 177" stroke="#1FA4F1" stroke-width="4"/>
<path d="M71.7559 201L71.7559 177" stroke="#1FA4F1" stroke-width="4"/>
<path d="M72 91L72 101L72 106L72 111" stroke="#B4DBFF" stroke-width="4"/>
<path d="M72 91L72 101L72 106L72 111" stroke="#B4DBFF" stroke-width="4"/>
<mask id="path-5-inside-1_2505_24582" fill="white">
<path fill-rule="evenodd" clip-rule="evenodd" d="M56 276.5C56 272.358 52.6421 269 48.5 269C44.3579 269 41 272.358 41 276.5V293H20.5C16.3579 293 13 296.358 13 300.5C13 303.278 14.5109 305.704 16.7558 307C15.8751 307.508 15.1073 308.191 14.4995 309H4.5C2.01472 309 0 311.015 0 313.5C0 315.985 2.01472 318 4.5 318H14.4994C15.8678 319.822 18.0463 321 20.5 321H22L22 330H18.5C14.3579 330 11 333.358 11 337.5C11 341.642 14.3579 345 18.5 345H40V348H14.5C10.3579 348 7 351.358 7 355.5C7 359.642 10.3579 363 14.5 363H40.4578C41.7321 367.057 45.5224 370 50 370H53V375.5C53 376.102 53.0817 376.684 53.2347 377.237C53.0831 377.629 53 378.055 53 378.5C53 380.433 54.567 382 56.5 382H59.4899L59.5 382L59.5101 382H102.5C104.433 382 106 380.433 106 378.5C106 376.567 104.433 375 102.5 375H100.826C100.94 374.518 101 374.016 101 373.5V370H106C111.523 370 116 365.523 116 360V343C116 337.477 111.523 333 106 333H103.95L97.0223 321H102.5C106.642 321 110 317.642 110 313.5C110 311.327 109.076 309.37 107.599 308H123.5C127.642 308 131 304.642 131 300.5C131 296.358 127.642 293 123.5 293H56V276.5ZM37 330V321H40V330H37ZM88 373.5C88 374.016 88.0602 374.518 88.1739 375H66V370H88V373.5Z"/>
</mask>
<path fill-rule="evenodd" clip-rule="evenodd" d="M56 276.5C56 272.358 52.6421 269 48.5 269C44.3579 269 41 272.358 41 276.5V293H20.5C16.3579 293 13 296.358 13 300.5C13 303.278 14.5109 305.704 16.7558 307C15.8751 307.508 15.1073 308.191 14.4995 309H4.5C2.01472 309 0 311.015 0 313.5C0 315.985 2.01472 318 4.5 318H14.4994C15.8678 319.822 18.0463 321 20.5 321H22L22 330H18.5C14.3579 330 11 333.358 11 337.5C11 341.642 14.3579 345 18.5 345H40V348H14.5C10.3579 348 7 351.358 7 355.5C7 359.642 10.3579 363 14.5 363H40.4578C41.7321 367.057 45.5224 370 50 370H53V375.5C53 376.102 53.0817 376.684 53.2347 377.237C53.0831 377.629 53 378.055 53 378.5C53 380.433 54.567 382 56.5 382H59.4899L59.5 382L59.5101 382H102.5C104.433 382 106 380.433 106 378.5C106 376.567 104.433 375 102.5 375H100.826C100.94 374.518 101 374.016 101 373.5V370H106C111.523 370 116 365.523 116 360V343C116 337.477 111.523 333 106 333H103.95L97.0223 321H102.5C106.642 321 110 317.642 110 313.5C110 311.327 109.076 309.37 107.599 308H123.5C127.642 308 131 304.642 131 300.5C131 296.358 127.642 293 123.5 293H56V276.5ZM37 330V321H40V330H37ZM88 373.5C88 374.016 88.0602 374.518 88.1739 375H66V370H88V373.5Z" fill="white"/>
<path d="M41 293V295H43V293H41ZM16.7558 307L17.7557 308.732L20.7562 307L17.7557 305.268L16.7558 307ZM14.4995 309V311H15.4985L16.0986 310.201L14.4995 309ZM14.4994 318L16.0986 316.799L15.4985 316H14.4994V318ZM22 321H24V319H22V321ZM22 330V332H24V330H22ZM40 345H42V343H40V345ZM40 348V350H42V348H40ZM40.4578 363L42.3659 362.401L41.926 361H40.4578V363ZM53 370H55V368H53V370ZM53.2347 377.237L55.0999 377.959L55.3388 377.342L55.1623 376.704L53.2347 377.237ZM59.4899 382L59.4914 380H59.4899V382ZM59.5 382L59.4985 384H59.5015L59.5 382ZM59.5101 382V380H59.5086L59.5101 382ZM100.826 375L98.8796 374.54L98.2986 377H100.826V375ZM101 370V368H99V370H101ZM103.95 333L102.218 334L102.796 335H103.95V333ZM97.0223 321V319H93.5582L95.2902 322L97.0223 321ZM107.599 308V306H102.502L106.239 309.466L107.599 308ZM56 293H54V295H56V293ZM37 321V319H35V321H37ZM37 330H35V332H37V330ZM40 321H42V319H40V321ZM40 330V332H42V330H40ZM88.1739 375V377H90.7014L90.1204 374.54L88.1739 375ZM66 375H64V377H66V375ZM66 370V368H64V370H66ZM88 370H90V368H88V370ZM48.5 271C51.5376 271 54 273.462 54 276.5H58C58 271.253 53.7467 267 48.5 267V271ZM43 276.5C43 273.462 45.4624 271 48.5 271V267C43.2533 267 39 271.253 39 276.5H43ZM43 293V276.5H39V293H43ZM20.5 295H41V291H20.5V295ZM15 300.5C15 297.462 17.4624 295 20.5 295V291C15.2533 291 11 295.253 11 300.5H15ZM17.7557 305.268C16.1042 304.315 15 302.535 15 300.5H11C11 304.022 12.9175 307.094 15.7559 308.732L17.7557 305.268ZM16.0986 310.201C16.5454 309.606 17.1097 309.105 17.7557 308.732L15.7559 305.268C14.6405 305.912 13.6693 306.775 12.9003 307.799L16.0986 310.201ZM4.5 311H14.4995V307H4.5V311ZM2 313.5C2 312.119 3.11929 311 4.5 311V307C0.910149 307 -2 309.91 -2 313.5H2ZM4.5 316C3.11929 316 2 314.881 2 313.5H-2C-2 317.09 0.910146 320 4.5 320V316ZM14.4994 316H4.5V320H14.4994V316ZM20.5 319C18.7019 319 17.1054 318.139 16.0986 316.799L12.9003 319.201C14.6301 321.504 17.3907 323 20.5 323V319ZM22 319H20.5V323H22V319ZM24 330L24 321H20L20 330H24ZM18.5 332H22V328H18.5V332ZM13 337.5C13 334.462 15.4624 332 18.5 332V328C13.2533 328 9 332.253 9 337.5H13ZM18.5 343C15.4624 343 13 340.538 13 337.5H9C9 342.747 13.2533 347 18.5 347V343ZM40 343H18.5V347H40V343ZM42 348V345H38V348H42ZM14.5 350H40V346H14.5V350ZM9 355.5C9 352.462 11.4624 350 14.5 350V346C9.25329 346 5 350.253 5 355.5H9ZM14.5 361C11.4624 361 9 358.538 9 355.5H5C5 360.747 9.2533 365 14.5 365V361ZM40.4578 361H14.5V365H40.4578V361ZM50 368C46.4209 368 43.3859 365.648 42.3659 362.401L38.5497 363.599C40.0782 368.466 44.6238 372 50 372V368ZM53 368H50V372H53V368ZM55 375.5V370H51V375.5H55ZM55.1623 376.704C55.0569 376.323 55 375.92 55 375.5H51C51 376.284 51.1066 377.045 51.3072 377.771L55.1623 376.704ZM55 378.5C55 378.306 55.036 378.124 55.0999 377.959L51.3695 376.515C51.1303 377.134 51 377.804 51 378.5H55ZM56.5 380C55.6716 380 55 379.328 55 378.5H51C51 381.538 53.4624 384 56.5 384V380ZM59.4899 380H56.5V384H59.4899V380ZM59.5015 380L59.4914 380L59.4884 384L59.4985 384L59.5015 380ZM59.5086 380L59.4985 380L59.5015 384L59.5116 384L59.5086 380ZM102.5 380H59.5101V384H102.5V380ZM104 378.5C104 379.328 103.328 380 102.5 380V384C105.538 384 108 381.538 108 378.5H104ZM102.5 377C103.328 377 104 377.672 104 378.5H108C108 375.462 105.538 373 102.5 373V377ZM100.826 377H102.5V373H100.826V377ZM99 373.5C99 373.86 98.958 374.208 98.8796 374.54L102.773 375.46C102.922 374.829 103 374.172 103 373.5H99ZM99 370V373.5H103V370H99ZM106 368H101V372H106V368ZM114 360C114 364.418 110.418 368 106 368V372C112.627 372 118 366.627 118 360H114ZM114 343V360H118V343H114ZM106 335C110.418 335 114 338.582 114 343H118C118 336.373 112.627 331 106 331V335ZM103.95 335H106V331H103.95V335ZM95.2902 322L102.218 334L105.683 332L98.7543 320L95.2902 322ZM102.5 319H97.0223V323H102.5V319ZM108 313.5C108 316.538 105.538 319 102.5 319V323C107.747 323 112 318.747 112 313.5H108ZM106.239 309.466C107.325 310.473 108 311.906 108 313.5H112C112 310.748 110.827 308.266 108.959 306.534L106.239 309.466ZM123.5 306H107.599V310H123.5V306ZM129 300.5C129 303.538 126.538 306 123.5 306V310C128.747 310 133 305.747 133 300.5H129ZM123.5 295C126.538 295 129 297.462 129 300.5H133C133 295.253 128.747 291 123.5 291V295ZM56 295H123.5V291H56V295ZM54 276.5V293H58V276.5H54ZM35 321V330H39V321H35ZM40 319H37V323H40V319ZM42 330V321H38V330H42ZM37 332H40V328H37V332ZM90.1204 374.54C90.042 374.208 90 373.86 90 373.5H86C86 374.172 86.0784 374.829 86.2275 375.46L90.1204 374.54ZM66 377H88.1739V373H66V377ZM64 370V375H68V370H64ZM88 368H66V372H88V368ZM90 373.5V370H86V373.5H90Z" fill="#012137" mask="url(#path-5-inside-1_2505_24582)"/>
<path d="M82.9698 338.02C82.9698 344.63 77.5998 350 70.9898 350C64.3798 350 59.0098 344.63 59.0098 338.02C59.0098 331.41 64.3798 326.04 70.9898 326.04C74.6698 326.04 77.9598 327.71 80.1598 330.32C77.6598 330.48 75.1698 330.24 72.7798 329.61V333.86C74.6998 334.28 76.6698 334.51 78.6598 334.51C80.4998 334.51 82.3598 334.32 84.2098 333.95C84.8498 333.79 85.3898 333.32 85.6398 332.71C85.6898 332.59 85.7198 332.48 85.7498 332.36C86.5298 328.54 86.4698 324.69 85.6498 321.01H81.3898C81.8698 322.83 82.1298 324.72 82.1498 326.63C79.2698 323.8 75.3398 322.05 70.9898 322.05C62.1798 322.05 55.0098 329.22 55.0098 338.03C55.0098 346.84 62.1798 354.01 70.9898 354.01C79.7998 354.01 86.9698 346.84 86.9698 338.03H82.9698V338.02Z" fill="#1FA4F1"/>
<path d="M107 307H18.5" stroke="#012137" stroke-width="2"/>
<path d="M73 289L73 293" stroke="#012137" stroke-width="2" stroke-linecap="round"/>
<path d="M90 289L90 293" stroke="#012137" stroke-width="2" stroke-linecap="round"/>
<path d="M107 289L107 293" stroke="#012137" stroke-width="2" stroke-linecap="round"/>
<path d="M124 289L124 293" stroke="#012137" stroke-width="2" stroke-linecap="round"/>
<path d="M41 362L41 332" stroke="#012137" stroke-width="2"/>
<path d="M36 331L23 331" stroke="#012137" stroke-width="2"/>
<path d="M36 320L23 320" stroke="#012137" stroke-width="2"/>
<path d="M103 369L54 369" stroke="#012137" stroke-width="2"/>
<mask id="path-17-inside-2_2505_24582" fill="white">
<path fill-rule="evenodd" clip-rule="evenodd" d="M56 276.5C56 272.358 52.6421 269 48.5 269C44.3579 269 41 272.358 41 276.5V293H20.5C16.3579 293 13 296.358 13 300.5C13 303.278 14.5109 305.704 16.7558 307C15.8751 307.508 15.1073 308.191 14.4995 309H4.5C2.01472 309 0 311.015 0 313.5C0 315.985 2.01472 318 4.5 318H14.4994C15.8678 319.822 18.0463 321 20.5 321H22L22 330H18.5C14.3579 330 11 333.358 11 337.5C11 341.642 14.3579 345 18.5 345H40V348H14.5C10.3579 348 7 351.358 7 355.5C7 359.642 10.3579 363 14.5 363H40.4578C41.7321 367.057 45.5224 370 50 370H53V375.5C53 376.102 53.0817 376.684 53.2347 377.237C53.0831 377.629 53 378.055 53 378.5C53 380.433 54.567 382 56.5 382H59.4899L59.5 382L59.5101 382H102.5C104.433 382 106 380.433 106 378.5C106 376.567 104.433 375 102.5 375H100.826C100.94 374.518 101 374.016 101 373.5V370H106C111.523 370 116 365.523 116 360V343C116 337.477 111.523 333 106 333H103.95L97.0223 321H102.5C106.642 321 110 317.642 110 313.5C110 311.327 109.076 309.37 107.599 308H123.5C127.642 308 131 304.642 131 300.5C131 296.358 127.642 293 123.5 293H56V276.5ZM37 330V321H40V330H37ZM88 373.5C88 374.016 88.0602 374.518 88.1739 375H66V370H88V373.5Z"/>
</mask>
<path fill-rule="evenodd" clip-rule="evenodd" d="M56 276.5C56 272.358 52.6421 269 48.5 269C44.3579 269 41 272.358 41 276.5V293H20.5C16.3579 293 13 296.358 13 300.5C13 303.278 14.5109 305.704 16.7558 307C15.8751 307.508 15.1073 308.191 14.4995 309H4.5C2.01472 309 0 311.015 0 313.5C0 315.985 2.01472 318 4.5 318H14.4994C15.8678 319.822 18.0463 321 20.5 321H22L22 330H18.5C14.3579 330 11 333.358 11 337.5C11 341.642 14.3579 345 18.5 345H40V348H14.5C10.3579 348 7 351.358 7 355.5C7 359.642 10.3579 363 14.5 363H40.4578C41.7321 367.057 45.5224 370 50 370H53V375.5C53 376.102 53.0817 376.684 53.2347 377.237C53.0831 377.629 53 378.055 53 378.5C53 380.433 54.567 382 56.5 382H59.4899L59.5 382L59.5101 382H102.5C104.433 382 106 380.433 106 378.5C106 376.567 104.433 375 102.5 375H100.826C100.94 374.518 101 374.016 101 373.5V370H106C111.523 370 116 365.523 116 360V343C116 337.477 111.523 333 106 333H103.95L97.0223 321H102.5C106.642 321 110 317.642 110 313.5C110 311.327 109.076 309.37 107.599 308H123.5C127.642 308 131 304.642 131 300.5C131 296.358 127.642 293 123.5 293H56V276.5ZM37 330V321H40V330H37ZM88 373.5C88 374.016 88.0602 374.518 88.1739 375H66V370H88V373.5Z" fill="white"/>
<path d="M41 293V295H43V293H41ZM16.7558 307L17.7557 308.732L20.7562 307L17.7557 305.268L16.7558 307ZM14.4995 309V311H15.4985L16.0986 310.201L14.4995 309ZM14.4994 318L16.0986 316.799L15.4985 316H14.4994V318ZM22 321H24V319H22V321ZM22 330V332H24V330H22ZM40 345H42V343H40V345ZM40 348V350H42V348H40ZM40.4578 363L42.3659 362.401L41.926 361H40.4578V363ZM53 370H55V368H53V370ZM53.2347 377.237L55.0999 377.959L55.3388 377.342L55.1623 376.704L53.2347 377.237ZM59.4899 382L59.4914 380H59.4899V382ZM59.5 382L59.4985 384H59.5015L59.5 382ZM59.5101 382V380H59.5086L59.5101 382ZM100.826 375L98.8796 374.54L98.2986 377H100.826V375ZM101 370V368H99V370H101ZM103.95 333L102.218 334L102.796 335H103.95V333ZM97.0223 321V319H93.5582L95.2902 322L97.0223 321ZM107.599 308V306H102.502L106.239 309.466L107.599 308ZM56 293H54V295H56V293ZM37 321V319H35V321H37ZM37 330H35V332H37V330ZM40 321H42V319H40V321ZM40 330V332H42V330H40ZM88.1739 375V377H90.7014L90.1204 374.54L88.1739 375ZM66 375H64V377H66V375ZM66 370V368H64V370H66ZM88 370H90V368H88V370ZM48.5 271C51.5376 271 54 273.462 54 276.5H58C58 271.253 53.7467 267 48.5 267V271ZM43 276.5C43 273.462 45.4624 271 48.5 271V267C43.2533 267 39 271.253 39 276.5H43ZM43 293V276.5H39V293H43ZM20.5 295H41V291H20.5V295ZM15 300.5C15 297.462 17.4624 295 20.5 295V291C15.2533 291 11 295.253 11 300.5H15ZM17.7557 305.268C16.1042 304.315 15 302.535 15 300.5H11C11 304.022 12.9175 307.094 15.7559 308.732L17.7557 305.268ZM16.0986 310.201C16.5454 309.606 17.1097 309.105 17.7557 308.732L15.7559 305.268C14.6405 305.912 13.6693 306.775 12.9003 307.799L16.0986 310.201ZM4.5 311H14.4995V307H4.5V311ZM2 313.5C2 312.119 3.11929 311 4.5 311V307C0.910149 307 -2 309.91 -2 313.5H2ZM4.5 316C3.11929 316 2 314.881 2 313.5H-2C-2 317.09 0.910146 320 4.5 320V316ZM14.4994 316H4.5V320H14.4994V316ZM20.5 319C18.7019 319 17.1054 318.139 16.0986 316.799L12.9003 319.201C14.6301 321.504 17.3907 323 20.5 323V319ZM22 319H20.5V323H22V319ZM24 330L24 321H20L20 330H24ZM18.5 332H22V328H18.5V332ZM13 337.5C13 334.462 15.4624 332 18.5 332V328C13.2533 328 9 332.253 9 337.5H13ZM18.5 343C15.4624 343 13 340.538 13 337.5H9C9 342.747 13.2533 347 18.5 347V343ZM40 343H18.5V347H40V343ZM42 348V345H38V348H42ZM14.5 350H40V346H14.5V350ZM9 355.5C9 352.462 11.4624 350 14.5 350V346C9.25329 346 5 350.253 5 355.5H9ZM14.5 361C11.4624 361 9 358.538 9 355.5H5C5 360.747 9.2533 365 14.5 365V361ZM40.4578 361H14.5V365H40.4578V361ZM50 368C46.4209 368 43.3859 365.648 42.3659 362.401L38.5497 363.599C40.0782 368.466 44.6238 372 50 372V368ZM53 368H50V372H53V368ZM55 375.5V370H51V375.5H55ZM55.1623 376.704C55.0569 376.323 55 375.92 55 375.5H51C51 376.284 51.1066 377.045 51.3072 377.771L55.1623 376.704ZM55 378.5C55 378.306 55.036 378.124 55.0999 377.959L51.3695 376.515C51.1303 377.134 51 377.804 51 378.5H55ZM56.5 380C55.6716 380 55 379.328 55 378.5H51C51 381.538 53.4624 384 56.5 384V380ZM59.4899 380H56.5V384H59.4899V380ZM59.5015 380L59.4914 380L59.4884 384L59.4985 384L59.5015 380ZM59.5086 380L59.4985 380L59.5015 384L59.5116 384L59.5086 380ZM102.5 380H59.5101V384H102.5V380ZM104 378.5C104 379.328 103.328 380 102.5 380V384C105.538 384 108 381.538 108 378.5H104ZM102.5 377C103.328 377 104 377.672 104 378.5H108C108 375.462 105.538 373 102.5 373V377ZM100.826 377H102.5V373H100.826V377ZM99 373.5C99 373.86 98.958 374.208 98.8796 374.54L102.773 375.46C102.922 374.829 103 374.172 103 373.5H99ZM99 370V373.5H103V370H99ZM106 368H101V372H106V368ZM114 360C114 364.418 110.418 368 106 368V372C112.627 372 118 366.627 118 360H114ZM114 343V360H118V343H114ZM106 335C110.418 335 114 338.582 114 343H118C118 336.373 112.627 331 106 331V335ZM103.95 335H106V331H103.95V335ZM95.2902 322L102.218 334L105.683 332L98.7543 320L95.2902 322ZM102.5 319H97.0223V323H102.5V319ZM108 313.5C108 316.538 105.538 319 102.5 319V323C107.747 323 112 318.747 112 313.5H108ZM106.239 309.466C107.325 310.473 108 311.906 108 313.5H112C112 310.748 110.827 308.266 108.959 306.534L106.239 309.466ZM123.5 306H107.599V310H123.5V306ZM129 300.5C129 303.538 126.538 306 123.5 306V310C128.747 310 133 305.747 133 300.5H129ZM123.5 295C126.538 295 129 297.462 129 300.5H133C133 295.253 128.747 291 123.5 291V295ZM56 295H123.5V291H56V295ZM54 276.5V293H58V276.5H54ZM35 321V330H39V321H35ZM40 319H37V323H40V319ZM42 330V321H38V330H42ZM37 332H40V328H37V332ZM90.1204 374.54C90.042 374.208 90 373.86 90 373.5H86C86 374.172 86.0784 374.829 86.2275 375.46L90.1204 374.54ZM66 377H88.1739V373H66V377ZM64 370V375H68V370H64ZM88 368H66V372H88V368ZM90 373.5V370H86V373.5H90Z" fill="#012137" mask="url(#path-17-inside-2_2505_24582)"/>
<path d="M82.9698 338.02C82.9698 344.63 77.5998 350 70.9898 350C64.3798 350 59.0098 344.63 59.0098 338.02C59.0098 331.41 64.3798 326.04 70.9898 326.04C74.6698 326.04 77.9598 327.71 80.1598 330.32C77.6598 330.48 75.1698 330.24 72.7798 329.61V333.86C74.6998 334.28 76.6698 334.51 78.6598 334.51C80.4998 334.51 82.3598 334.32 84.2098 333.95C84.8498 333.79 85.3898 333.32 85.6398 332.71C85.6898 332.59 85.7198 332.48 85.7498 332.36C86.5298 328.54 86.4698 324.69 85.6498 321.01H81.3898C81.8698 322.83 82.1298 324.72 82.1498 326.63C79.2698 323.8 75.3398 322.05 70.9898 322.05C62.1798 322.05 55.0098 329.22 55.0098 338.03C55.0098 346.84 62.1798 354.01 70.9898 354.01C79.7998 354.01 86.9698 346.84 86.9698 338.03H82.9698V338.02Z" fill="#1FA4F1"/>
<path d="M107 307H18.5" stroke="#012137" stroke-width="2"/>
<path d="M73 289L73 293" stroke="#012137" stroke-width="2" stroke-linecap="round"/>
<path d="M90 289L90 293" stroke="#012137" stroke-width="2" stroke-linecap="round"/>
<path d="M107 289L107 293" stroke="#012137" stroke-width="2" stroke-linecap="round"/>
<path d="M124 289L124 293" stroke="#012137" stroke-width="2" stroke-linecap="round"/>
<path d="M41 362L41 332" stroke="#012137" stroke-width="2"/>
<path d="M36 331L23 331" stroke="#012137" stroke-width="2"/>
<path d="M36 320L23 320" stroke="#012137" stroke-width="2"/>
<path d="M103 369L54 369" stroke="#012137" stroke-width="2"/>
<g clip-path="url(#clip0_2505_24582)">
<rect x="27.7559" width="91" height="91" rx="12" fill="white"/>
<path d="M117.754 12.999V12.9993V78.0007C117.754 84.6279 112.381 90 105.754 90H40.7552C34.128 90 28.7559 84.628 28.7559 77.9984V12.9993C28.7559 6.37207 34.1279 1 40.7552 1H105.757C112.384 1 117.756 6.37206 117.754 12.999Z" stroke="#012137" stroke-width="2"/>
<path d="M41.0805 9.125H105.431C107.751 9.125 109.631 11.0067 109.631 13.3257V64.6764C109.631 66.997 107.75 68.8771 105.431 68.8771H41.0805C38.7599 68.8771 36.8799 66.9953 36.8799 64.6764V13.3257C36.8799 11.005 38.7616 9.125 41.0805 9.125Z" stroke="#012137" stroke-width="2"/>
<path d="M72.0827 40.743C75.2241 42.8572 78.3175 44.3041 81.2755 45.0447C84.0364 45.7372 86.6367 45.8083 89.0031 45.258C92.1928 44.5173 94.4904 42.7196 96.224 40.1605C96.6895 39.4566 96.6872 38.5348 96.2194 37.8308C95.4168 36.6178 94.5294 35.4804 93.5663 34.4256C93.4929 36.1018 93.0573 37.2369 92.6491 37.95C91.7273 39.5506 90.0969 40.6925 88.0538 41.1672C86.3432 41.5639 84.4056 41.4974 82.2982 40.97C79.8148 40.3486 77.1664 39.0988 74.4285 37.2575C71.287 35.1433 68.1936 33.6964 65.2356 32.9557C62.4747 32.2632 59.8744 32.1922 57.508 32.7425C54.3183 33.4831 52.0207 35.2809 50.2871 37.84C49.8217 38.5439 49.8239 39.4657 50.2917 40.1697C51.0943 41.3827 51.9817 42.5201 52.9448 43.5749C53.0182 41.8987 53.4539 40.7636 53.862 40.0505C54.7838 38.4499 56.4142 37.308 58.4573 36.8333C60.1679 36.4366 62.1056 36.5031 64.2129 37.0305C66.6963 37.6519 69.3447 38.9016 72.0827 40.743Z" fill="#B4DBFF"/>
<path d="M76.6298 33.985C80.6931 36.7183 84.534 37.9359 87.1619 37.326C88.1272 37.1012 88.861 36.6243 89.2302 35.9822C89.5742 35.3837 89.7071 34.3312 89.5948 33.093C89.5902 33.0311 89.5833 32.9714 89.5764 32.9095C88.7464 33.1641 87.5975 33.3842 86.1208 33.3842C85.504 33.3842 84.9972 33.3223 84.6739 33.2581C83.5319 33.0333 81.6058 32.3867 78.9183 30.5798C75.7103 28.422 72.484 26.8054 69.2989 25.7598C66.3271 26.1886 63.4746 27.0966 60.8398 28.4312C62.5688 28.4358 64.3597 28.6697 66.1918 29.1283C69.5947 29.9813 73.1054 31.6139 76.6275 33.9827L76.6298 33.985Z" fill="#B4DBFF"/>
<path d="M69.8809 44.0147C65.8176 41.2814 61.9767 40.0637 59.3489 40.6737C58.3835 40.8984 57.6497 41.3754 57.2806 42.0174C56.9366 42.6159 56.8036 43.6684 56.916 44.9067C56.9206 44.9686 56.9274 45.0282 56.9343 45.0901C57.7644 44.8356 58.9132 44.6155 60.39 44.6155C61.0068 44.6155 61.5135 44.6774 61.8369 44.7416C62.9788 44.9663 64.905 45.6129 67.5924 47.4199C70.8004 49.5776 74.0291 51.1942 77.2141 52.2399C80.1859 51.8111 83.0408 50.903 85.6778 49.5685C83.9465 49.5639 82.1534 49.3323 80.3189 48.8714C76.916 48.0184 73.4053 46.3857 69.8832 44.017L69.8809 44.0147Z" fill="#B4DBFF"/>
</g>
<g clip-path="url(#clip1_2505_24582)">
<rect x="27.7559" width="91" height="91" rx="12" fill="white"/>
<path d="M117.754 12.999V12.9993V78.0007C117.754 84.6279 112.381 90 105.754 90H40.7552C34.128 90 28.7559 84.628 28.7559 77.9984V12.9993C28.7559 6.37207 34.1279 1 40.7552 1H105.757C112.384 1 117.756 6.37206 117.754 12.999Z" stroke="#012137" stroke-width="2"/>
<path d="M41.0805 9.125H105.431C107.751 9.125 109.631 11.0067 109.631 13.3257V64.6764C109.631 66.997 107.75 68.8771 105.431 68.8771H41.0805C38.7599 68.8771 36.8799 66.9953 36.8799 64.6764V13.3257C36.8799 11.005 38.7616 9.125 41.0805 9.125Z" stroke="#012137" stroke-width="2"/>
<path d="M72.0827 40.743C75.2241 42.8572 78.3175 44.3041 81.2755 45.0447C84.0364 45.7372 86.6367 45.8083 89.0031 45.258C92.1928 44.5173 94.4904 42.7196 96.224 40.1605C96.6895 39.4566 96.6872 38.5348 96.2194 37.8308C95.4168 36.6178 94.5294 35.4804 93.5663 34.4256C93.4929 36.1018 93.0573 37.2369 92.6491 37.95C91.7273 39.5506 90.0969 40.6925 88.0538 41.1672C86.3432 41.5639 84.4056 41.4974 82.2982 40.97C79.8148 40.3486 77.1664 39.0988 74.4285 37.2575C71.287 35.1433 68.1936 33.6964 65.2356 32.9557C62.4747 32.2632 59.8744 32.1922 57.508 32.7425C54.3183 33.4831 52.0207 35.2809 50.2871 37.84C49.8217 38.5439 49.8239 39.4657 50.2917 40.1697C51.0943 41.3827 51.9817 42.5201 52.9448 43.5749C53.0182 41.8987 53.4539 40.7636 53.862 40.0505C54.7838 38.4499 56.4142 37.308 58.4573 36.8333C60.1679 36.4366 62.1056 36.5031 64.2129 37.0305C66.6963 37.6519 69.3447 38.9016 72.0827 40.743Z" fill="#B4DBFF"/>
<path d="M76.6298 33.985C80.6931 36.7183 84.534 37.9359 87.1619 37.326C88.1272 37.1012 88.861 36.6243 89.2302 35.9822C89.5742 35.3837 89.7071 34.3312 89.5948 33.093C89.5902 33.0311 89.5833 32.9714 89.5764 32.9095C88.7464 33.1641 87.5975 33.3842 86.1208 33.3842C85.504 33.3842 84.9972 33.3223 84.6739 33.2581C83.5319 33.0333 81.6058 32.3867 78.9183 30.5798C75.7103 28.422 72.484 26.8054 69.2989 25.7598C66.3271 26.1886 63.4746 27.0966 60.8398 28.4312C62.5688 28.4358 64.3597 28.6697 66.1918 29.1283C69.5947 29.9813 73.1054 31.6139 76.6275 33.9827L76.6298 33.985Z" fill="#B4DBFF"/>
<path d="M69.8809 44.0147C65.8176 41.2814 61.9767 40.0637 59.3489 40.6737C58.3835 40.8984 57.6497 41.3754 57.2806 42.0174C56.9366 42.6159 56.8036 43.6684 56.916 44.9067C56.9206 44.9686 56.9274 45.0282 56.9343 45.0901C57.7644 44.8356 58.9132 44.6155 60.39 44.6155C61.0068 44.6155 61.5135 44.6774 61.8369 44.7416C62.9788 44.9663 64.905 45.6129 67.5924 47.4199C70.8004 49.5776 74.0291 51.1942 77.2141 52.2399C80.1859 51.8111 83.0408 50.903 85.6778 49.5685C83.9465 49.5639 82.1534 49.3323 80.3189 48.8714C76.916 48.0184 73.4053 46.3857 69.8832 44.017L69.8809 44.0147Z" fill="#B4DBFF"/>
</g>
<g clip-path="url(#clip2_2505_24582)">
<rect x="11.7559" y="191" width="122" height="91" rx="13" fill="white"/>
<path d="M25.3808 192H120.684C127.355 192 132.756 197.379 132.756 204V268.45C132.756 275.377 127.11 281 120.131 281H25.3808C18.4022 281 12.7559 275.377 12.7559 268.45V204.55C12.7559 197.623 18.4022 192 25.3808 192Z" stroke="#012137" stroke-width="2"/>
<path d="M29.6199 207.012H115.891C116.787 207.012 117.505 207.732 117.505 208.61V264.078C117.505 264.955 116.788 265.676 115.891 265.676H29.6199C28.7244 265.676 28.0068 264.956 28.0068 264.078V208.61C28.0068 207.733 28.7229 207.012 29.6199 207.012Z" stroke="#012137" stroke-width="2"/>
<path d="M73.8825 218.873C73.8825 218.873 73.8518 218.855 73.8426 218.843C73.1816 218.43 72.3239 218.43 71.663 218.843C71.6537 218.843 71.6322 218.861 71.623 218.873C70.7161 219.473 69.8584 220.109 69.0407 220.796C70.3533 221.432 71.5953 222.188 72.7481 223.053C78.4477 227.309 81.8171 233.955 81.8171 241.094C81.8171 246.066 77.7653 250.105 72.7574 250.105C67.7495 250.105 63.6977 246.075 63.6977 241.094H63.6792C63.6792 236.994 64.7737 233.151 66.695 229.849C70.3441 232.28 72.7389 236.407 72.7389 241.094C72.7389 242.574 72.6006 243.938 72.3639 245.182H72.7481C75.0169 245.182 76.8584 243.348 76.8584 241.094C76.8584 233.533 72.078 227.092 65.3639 224.581C61.6779 229.22 59.5967 235.004 59.5967 241.082H59.6151C59.6151 248.298 65.5022 254.153 72.7574 254.153C80.0125 254.153 85.8996 248.298 85.8996 241.082C85.8996 232.121 81.4051 223.814 73.8825 218.864V218.873Z" fill="#1FA4F1"/>
</g>
<g clip-path="url(#clip3_2505_24582)">
<rect x="11.7559" y="191" width="122" height="91" rx="13" fill="white"/>
<path d="M25.3808 192H120.684C127.355 192 132.756 197.379 132.756 204V268.45C132.756 275.377 127.11 281 120.131 281H25.3808C18.4022 281 12.7559 275.377 12.7559 268.45V204.55C12.7559 197.623 18.4022 192 25.3808 192Z" stroke="#012137" stroke-width="2"/>
<path d="M29.6199 207.012H115.891C116.787 207.012 117.505 207.732 117.505 208.61V264.078C117.505 264.955 116.788 265.676 115.891 265.676H29.6199C28.7244 265.676 28.0068 264.956 28.0068 264.078V208.61C28.0068 207.733 28.7229 207.012 29.6199 207.012Z" stroke="#012137" stroke-width="2"/>
<path d="M73.8825 218.873C73.8825 218.873 73.8518 218.855 73.8426 218.843C73.1816 218.43 72.3239 218.43 71.663 218.843C71.6537 218.843 71.6322 218.861 71.623 218.873C70.7161 219.473 69.8584 220.109 69.0407 220.796C70.3533 221.432 71.5953 222.188 72.7481 223.053C78.4477 227.309 81.8171 233.955 81.8171 241.094C81.8171 246.066 77.7653 250.105 72.7574 250.105C67.7495 250.105 63.6977 246.075 63.6977 241.094H63.6792C63.6792 236.994 64.7737 233.151 66.695 229.849C70.3441 232.28 72.7389 236.407 72.7389 241.094C72.7389 242.574 72.6006 243.938 72.3639 245.182H72.7481C75.0169 245.182 76.8584 243.348 76.8584 241.094C76.8584 233.533 72.078 227.092 65.3639 224.581C61.6779 229.22 59.5967 235.004 59.5967 241.082H59.6151C59.6151 248.298 65.5022 254.153 72.7574 254.153C80.0125 254.153 85.8996 248.298 85.8996 241.082C85.8996 232.121 81.4051 223.814 73.8825 218.864V218.873Z" fill="#1FA4F1"/>
</g>
<g clip-path="url(#clip4_2505_24582)">
<rect x="10.3262" y="101" width="123" height="80" rx="10" fill="white"/>
<path d="M-70.8237 114.444C-76.107 108.519 -81.3903 108.519 -86.6737 114.444L-86.6738 254.5L230.326 254.5L230.326 114.444C225.043 108.518 219.76 108.518 214.476 114.444C209.193 108.518 203.909 108.518 198.626 114.444C193.343 108.518 188.059 108.518 182.776 114.444C177.493 108.518 172.21 108.518 166.926 114.444C161.643 108.518 156.36 108.518 151.076 114.444C145.793 108.518 140.51 108.518 135.226 114.444C129.943 108.518 124.66 108.518 119.376 114.444C114.093 108.518 108.81 108.518 103.526 114.444C98.2429 108.518 92.9596 108.518 87.6763 114.444C82.3929 108.518 77.1096 108.518 71.8263 114.444C66.5429 108.518 61.2596 108.518 55.9763 114.444C50.6929 108.518 45.4097 108.518 40.1263 114.444C34.843 108.518 29.5597 108.518 24.2763 114.444C18.993 108.518 13.7097 108.519 8.42634 114.444C3.14301 108.519 -2.14033 108.519 -7.42366 114.444C-12.707 108.519 -17.9903 108.519 -23.2737 114.444C-28.557 108.519 -33.8403 108.519 -39.1237 114.444C-44.407 108.519 -49.6903 108.519 -54.9737 114.444C-60.257 108.519 -65.5403 108.519 -70.8237 114.444Z" fill="#00D791"/>
<path d="M62.4624 137.726H57.0584V140.834H61.2864V141.8H57.0584V146H56.0224V136.76H62.4624V137.726ZM67.708 141.464C67.708 140.923 67.5634 140.507 67.274 140.218C66.9847 139.919 66.574 139.77 66.042 139.77C65.5474 139.77 65.1274 139.877 64.782 140.092C64.4367 140.307 64.18 140.652 64.012 141.128L63.172 140.61C63.368 140.078 63.7134 139.653 64.208 139.336C64.712 139.019 65.3327 138.86 66.07 138.86C66.574 138.86 67.0267 138.949 67.428 139.126C67.8387 139.294 68.1607 139.555 68.394 139.91C68.6274 140.265 68.744 140.713 68.744 141.254V144.67C68.744 145.034 68.9307 145.216 69.304 145.216C69.4814 145.216 69.654 145.193 69.822 145.146L69.766 145.958C69.5887 146.051 69.3554 146.098 69.066 146.098C68.8047 146.098 68.5667 146.051 68.352 145.958C68.1467 145.855 67.9834 145.701 67.862 145.496C67.7407 145.281 67.68 145.015 67.68 144.698V144.516L67.946 144.544C67.8434 144.917 67.652 145.221 67.372 145.454C67.1014 145.687 66.7934 145.86 66.448 145.972C66.1027 146.084 65.762 146.14 65.426 146.14C65.0154 146.14 64.6327 146.07 64.278 145.93C63.9234 145.79 63.6434 145.58 63.438 145.3C63.2327 145.02 63.13 144.67 63.13 144.25C63.13 143.727 63.3027 143.298 63.648 142.962C64.0027 142.626 64.4927 142.397 65.118 142.276L67.918 141.73V142.584L65.608 143.06C65.132 143.153 64.7774 143.289 64.544 143.466C64.3107 143.643 64.194 143.886 64.194 144.194C64.194 144.511 64.3107 144.763 64.544 144.95C64.7867 145.137 65.132 145.23 65.58 145.23C65.8507 145.23 66.112 145.197 66.364 145.132C66.616 145.057 66.8447 144.945 67.05 144.796C67.2554 144.647 67.414 144.46 67.526 144.236C67.6474 144.012 67.708 143.746 67.708 143.438V141.464ZM71.4257 146V139H72.2797L72.4197 140.204C72.6064 139.765 72.891 139.434 73.2737 139.21C73.6564 138.977 74.1184 138.86 74.6597 138.86C74.7904 138.86 74.9304 138.874 75.0797 138.902C75.229 138.921 75.355 138.958 75.4577 139.014L75.2617 139.966C75.159 139.919 75.047 139.887 74.9257 139.868C74.8044 139.84 74.6317 139.826 74.4077 139.826C74.0997 139.826 73.7964 139.915 73.4977 140.092C73.199 140.269 72.9517 140.535 72.7557 140.89C72.5597 141.235 72.4617 141.669 72.4617 142.192V146H71.4257ZM77.0585 146V139H77.9685L78.0385 140.162C78.2812 139.723 78.6078 139.397 79.0185 139.182C79.4385 138.967 79.8772 138.86 80.3345 138.86C80.8572 138.86 81.3378 138.981 81.7765 139.224C82.2152 139.457 82.5418 139.817 82.7565 140.302C82.9058 139.975 83.1158 139.709 83.3865 139.504C83.6572 139.289 83.9558 139.131 84.2825 139.028C84.6185 138.916 84.9405 138.86 85.2485 138.86C85.7058 138.86 86.1352 138.953 86.5365 139.14C86.9378 139.327 87.2645 139.616 87.5165 140.008C87.7778 140.4 87.9085 140.899 87.9085 141.506V146H86.8725V141.604C86.8725 140.96 86.7092 140.493 86.3825 140.204C86.0558 139.915 85.6452 139.77 85.1505 139.77C84.7678 139.77 84.4132 139.863 84.0865 140.05C83.7598 140.227 83.4985 140.493 83.3025 140.848C83.1065 141.193 83.0085 141.618 83.0085 142.122V146H81.9725V141.618C81.9725 140.965 81.8045 140.493 81.4685 140.204C81.1418 139.915 80.7358 139.77 80.2505 139.77C79.9145 139.77 79.5785 139.859 79.2425 140.036C78.9158 140.204 78.6405 140.47 78.4165 140.834C78.2018 141.189 78.0945 141.651 78.0945 142.22V146H77.0585Z" fill="#012137"/>
</g>
<g clip-path="url(#clip5_2505_24582)">
<rect x="10.3262" y="101" width="123" height="80" rx="10" fill="white"/>
<path d="M-70.8237 114.444C-76.107 108.519 -81.3903 108.519 -86.6737 114.444L-86.6738 254.5L230.326 254.5L230.326 114.444C225.043 108.518 219.76 108.518 214.476 114.444C209.193 108.518 203.909 108.518 198.626 114.444C193.343 108.518 188.059 108.518 182.776 114.444C177.493 108.518 172.21 108.518 166.926 114.444C161.643 108.518 156.36 108.518 151.076 114.444C145.793 108.518 140.51 108.518 135.226 114.444C129.943 108.518 124.66 108.518 119.376 114.444C114.093 108.518 108.81 108.518 103.526 114.444C98.2429 108.518 92.9596 108.518 87.6763 114.444C82.3929 108.518 77.1096 108.518 71.8263 114.444C66.5429 108.518 61.2596 108.518 55.9763 114.444C50.6929 108.518 45.4097 108.518 40.1263 114.444C34.843 108.518 29.5597 108.518 24.2763 114.444C18.993 108.518 13.7097 108.519 8.42634 114.444C3.14301 108.519 -2.14033 108.519 -7.42366 114.444C-12.707 108.519 -17.9903 108.519 -23.2737 114.444C-28.557 108.519 -33.8403 108.519 -39.1237 114.444C-44.407 108.519 -49.6903 108.519 -54.9737 114.444C-60.257 108.519 -65.5403 108.519 -70.8237 114.444Z" fill="#00D791"/>
<path d="M62.4624 137.726H57.0584V140.834H61.2864V141.8H57.0584V146H56.0224V136.76H62.4624V137.726ZM67.708 141.464C67.708 140.923 67.5634 140.507 67.274 140.218C66.9847 139.919 66.574 139.77 66.042 139.77C65.5474 139.77 65.1274 139.877 64.782 140.092C64.4367 140.307 64.18 140.652 64.012 141.128L63.172 140.61C63.368 140.078 63.7134 139.653 64.208 139.336C64.712 139.019 65.3327 138.86 66.07 138.86C66.574 138.86 67.0267 138.949 67.428 139.126C67.8387 139.294 68.1607 139.555 68.394 139.91C68.6274 140.265 68.744 140.713 68.744 141.254V144.67C68.744 145.034 68.9307 145.216 69.304 145.216C69.4814 145.216 69.654 145.193 69.822 145.146L69.766 145.958C69.5887 146.051 69.3554 146.098 69.066 146.098C68.8047 146.098 68.5667 146.051 68.352 145.958C68.1467 145.855 67.9834 145.701 67.862 145.496C67.7407 145.281 67.68 145.015 67.68 144.698V144.516L67.946 144.544C67.8434 144.917 67.652 145.221 67.372 145.454C67.1014 145.687 66.7934 145.86 66.448 145.972C66.1027 146.084 65.762 146.14 65.426 146.14C65.0154 146.14 64.6327 146.07 64.278 145.93C63.9234 145.79 63.6434 145.58 63.438 145.3C63.2327 145.02 63.13 144.67 63.13 144.25C63.13 143.727 63.3027 143.298 63.648 142.962C64.0027 142.626 64.4927 142.397 65.118 142.276L67.918 141.73V142.584L65.608 143.06C65.132 143.153 64.7774 143.289 64.544 143.466C64.3107 143.643 64.194 143.886 64.194 144.194C64.194 144.511 64.3107 144.763 64.544 144.95C64.7867 145.137 65.132 145.23 65.58 145.23C65.8507 145.23 66.112 145.197 66.364 145.132C66.616 145.057 66.8447 144.945 67.05 144.796C67.2554 144.647 67.414 144.46 67.526 144.236C67.6474 144.012 67.708 143.746 67.708 143.438V141.464ZM71.4257 146V139H72.2797L72.4197 140.204C72.6064 139.765 72.891 139.434 73.2737 139.21C73.6564 138.977 74.1184 138.86 74.6597 138.86C74.7904 138.86 74.9304 138.874 75.0797 138.902C75.229 138.921 75.355 138.958 75.4577 139.014L75.2617 139.966C75.159 139.919 75.047 139.887 74.9257 139.868C74.8044 139.84 74.6317 139.826 74.4077 139.826C74.0997 139.826 73.7964 139.915 73.4977 140.092C73.199 140.269 72.9517 140.535 72.7557 140.89C72.5597 141.235 72.4617 141.669 72.4617 142.192V146H71.4257ZM77.0585 146V139H77.9685L78.0385 140.162C78.2812 139.723 78.6078 139.397 79.0185 139.182C79.4385 138.967 79.8772 138.86 80.3345 138.86C80.8572 138.86 81.3378 138.981 81.7765 139.224C82.2152 139.457 82.5418 139.817 82.7565 140.302C82.9058 139.975 83.1158 139.709 83.3865 139.504C83.6572 139.289 83.9558 139.131 84.2825 139.028C84.6185 138.916 84.9405 138.86 85.2485 138.86C85.7058 138.86 86.1352 138.953 86.5365 139.14C86.9378 139.327 87.2645 139.616 87.5165 140.008C87.7778 140.4 87.9085 140.899 87.9085 141.506V146H86.8725V141.604C86.8725 140.96 86.7092 140.493 86.3825 140.204C86.0558 139.915 85.6452 139.77 85.1505 139.77C84.7678 139.77 84.4132 139.863 84.0865 140.05C83.7598 140.227 83.4985 140.493 83.3025 140.848C83.1065 141.193 83.0085 141.618 83.0085 142.122V146H81.9725V141.618C81.9725 140.965 81.8045 140.493 81.4685 140.204C81.1418 139.915 80.7358 139.77 80.2505 139.77C79.9145 139.77 79.5785 139.859 79.2425 140.036C78.9158 140.204 78.6405 140.47 78.4165 140.834C78.2018 141.189 78.0945 141.651 78.0945 142.22V146H77.0585Z" fill="#012137"/>
</g>
<g clip-path="url(#clip6_2505_24582)">
<rect x="10.3262" y="101" width="123" height="80" rx="10" fill="white"/>
<path d="M-70.8237 114.444C-76.107 108.519 -81.3903 108.519 -86.6737 114.444L-86.6738 254.5L230.326 254.5L230.326 114.444C225.043 108.518 219.76 108.518 214.476 114.444C209.193 108.518 203.909 108.518 198.626 114.444C193.343 108.518 188.059 108.518 182.776 114.444C177.493 108.518 172.21 108.518 166.926 114.444C161.643 108.518 156.36 108.518 151.076 114.444C145.793 108.518 140.51 108.518 135.226 114.444C129.943 108.518 124.66 108.518 119.376 114.444C114.093 108.518 108.81 108.518 103.526 114.444C98.2429 108.518 92.9596 108.518 87.6763 114.444C82.3929 108.518 77.1096 108.518 71.8263 114.444C66.5429 108.518 61.2596 108.518 55.9763 114.444C50.6929 108.518 45.4097 108.518 40.1263 114.444C34.843 108.518 29.5597 108.518 24.2763 114.444C18.993 108.518 13.7097 108.519 8.42634 114.444C3.14301 108.519 -2.14033 108.519 -7.42366 114.444C-12.707 108.519 -17.9903 108.519 -23.2737 114.444C-28.557 108.519 -33.8403 108.519 -39.1237 114.444C-44.407 108.519 -49.6903 108.519 -54.9737 114.444C-60.257 108.519 -65.5403 108.519 -70.8237 114.444Z" fill="#00D791"/>
<path d="M62.4624 137.726H57.0584V140.834H61.2864V141.8H57.0584V146H56.0224V136.76H62.4624V137.726ZM67.708 141.464C67.708 140.923 67.5634 140.507 67.274 140.218C66.9847 139.919 66.574 139.77 66.042 139.77C65.5474 139.77 65.1274 139.877 64.782 140.092C64.4367 140.307 64.18 140.652 64.012 141.128L63.172 140.61C63.368 140.078 63.7134 139.653 64.208 139.336C64.712 139.019 65.3327 138.86 66.07 138.86C66.574 138.86 67.0267 138.949 67.428 139.126C67.8387 139.294 68.1607 139.555 68.394 139.91C68.6274 140.265 68.744 140.713 68.744 141.254V144.67C68.744 145.034 68.9307 145.216 69.304 145.216C69.4814 145.216 69.654 145.193 69.822 145.146L69.766 145.958C69.5887 146.051 69.3554 146.098 69.066 146.098C68.8047 146.098 68.5667 146.051 68.352 145.958C68.1467 145.855 67.9834 145.701 67.862 145.496C67.7407 145.281 67.68 145.015 67.68 144.698V144.516L67.946 144.544C67.8434 144.917 67.652 145.221 67.372 145.454C67.1014 145.687 66.7934 145.86 66.448 145.972C66.1027 146.084 65.762 146.14 65.426 146.14C65.0154 146.14 64.6327 146.07 64.278 145.93C63.9234 145.79 63.6434 145.58 63.438 145.3C63.2327 145.02 63.13 144.67 63.13 144.25C63.13 143.727 63.3027 143.298 63.648 142.962C64.0027 142.626 64.4927 142.397 65.118 142.276L67.918 141.73V142.584L65.608 143.06C65.132 143.153 64.7774 143.289 64.544 143.466C64.3107 143.643 64.194 143.886 64.194 144.194C64.194 144.511 64.3107 144.763 64.544 144.95C64.7867 145.137 65.132 145.23 65.58 145.23C65.8507 145.23 66.112 145.197 66.364 145.132C66.616 145.057 66.8447 144.945 67.05 144.796C67.2554 144.647 67.414 144.46 67.526 144.236C67.6474 144.012 67.708 143.746 67.708 143.438V141.464ZM71.4257 146V139H72.2797L72.4197 140.204C72.6064 139.765 72.891 139.434 73.2737 139.21C73.6564 138.977 74.1184 138.86 74.6597 138.86C74.7904 138.86 74.9304 138.874 75.0797 138.902C75.229 138.921 75.355 138.958 75.4577 139.014L75.2617 139.966C75.159 139.919 75.047 139.887 74.9257 139.868C74.8044 139.84 74.6317 139.826 74.4077 139.826C74.0997 139.826 73.7964 139.915 73.4977 140.092C73.199 140.269 72.9517 140.535 72.7557 140.89C72.5597 141.235 72.4617 141.669 72.4617 142.192V146H71.4257ZM77.0585 146V139H77.9685L78.0385 140.162C78.2812 139.723 78.6078 139.397 79.0185 139.182C79.4385 138.967 79.8772 138.86 80.3345 138.86C80.8572 138.86 81.3378 138.981 81.7765 139.224C82.2152 139.457 82.5418 139.817 82.7565 140.302C82.9058 139.975 83.1158 139.709 83.3865 139.504C83.6572 139.289 83.9558 139.131 84.2825 139.028C84.6185 138.916 84.9405 138.86 85.2485 138.86C85.7058 138.86 86.1352 138.953 86.5365 139.14C86.9378 139.327 87.2645 139.616 87.5165 140.008C87.7778 140.4 87.9085 140.899 87.9085 141.506V146H86.8725V141.604C86.8725 140.96 86.7092 140.493 86.3825 140.204C86.0558 139.915 85.6452 139.77 85.1505 139.77C84.7678 139.77 84.4132 139.863 84.0865 140.05C83.7598 140.227 83.4985 140.493 83.3025 140.848C83.1065 141.193 83.0085 141.618 83.0085 142.122V146H81.9725V141.618C81.9725 140.965 81.8045 140.493 81.4685 140.204C81.1418 139.915 80.7358 139.77 80.2505 139.77C79.9145 139.77 79.5785 139.859 79.2425 140.036C78.9158 140.204 78.6405 140.47 78.4165 140.834C78.2018 141.189 78.0945 141.651 78.0945 142.22V146H77.0585Z" fill="#012137"/>
</g>
<g clip-path="url(#clip7_2505_24582)">
<rect x="10.3262" y="101" width="123" height="80" rx="10" fill="white"/>
<path d="M-70.8237 114.444C-76.107 108.519 -81.3903 108.519 -86.6737 114.444L-86.6738 254.5L230.326 254.5L230.326 114.444C225.043 108.518 219.76 108.518 214.476 114.444C209.193 108.518 203.909 108.518 198.626 114.444C193.343 108.518 188.059 108.518 182.776 114.444C177.493 108.518 172.21 108.518 166.926 114.444C161.643 108.518 156.36 108.518 151.076 114.444C145.793 108.518 140.51 108.518 135.226 114.444C129.943 108.518 124.66 108.518 119.376 114.444C114.093 108.518 108.81 108.518 103.526 114.444C98.2429 108.518 92.9596 108.518 87.6763 114.444C82.3929 108.518 77.1096 108.518 71.8263 114.444C66.5429 108.518 61.2596 108.518 55.9763 114.444C50.6929 108.518 45.4097 108.518 40.1263 114.444C34.843 108.518 29.5597 108.518 24.2763 114.444C18.993 108.518 13.7097 108.519 8.42634 114.444C3.14301 108.519 -2.14033 108.519 -7.42366 114.444C-12.707 108.519 -17.9903 108.519 -23.2737 114.444C-28.557 108.519 -33.8403 108.519 -39.1237 114.444C-44.407 108.519 -49.6903 108.519 -54.9737 114.444C-60.257 108.519 -65.5403 108.519 -70.8237 114.444Z" fill="#00D791"/>
<path d="M62.4624 137.726H57.0584V140.834H61.2864V141.8H57.0584V146H56.0224V136.76H62.4624V137.726ZM67.708 141.464C67.708 140.923 67.5634 140.507 67.274 140.218C66.9847 139.919 66.574 139.77 66.042 139.77C65.5474 139.77 65.1274 139.877 64.782 140.092C64.4367 140.307 64.18 140.652 64.012 141.128L63.172 140.61C63.368 140.078 63.7134 139.653 64.208 139.336C64.712 139.019 65.3327 138.86 66.07 138.86C66.574 138.86 67.0267 138.949 67.428 139.126C67.8387 139.294 68.1607 139.555 68.394 139.91C68.6274 140.265 68.744 140.713 68.744 141.254V144.67C68.744 145.034 68.9307 145.216 69.304 145.216C69.4814 145.216 69.654 145.193 69.822 145.146L69.766 145.958C69.5887 146.051 69.3554 146.098 69.066 146.098C68.8047 146.098 68.5667 146.051 68.352 145.958C68.1467 145.855 67.9834 145.701 67.862 145.496C67.7407 145.281 67.68 145.015 67.68 144.698V144.516L67.946 144.544C67.8434 144.917 67.652 145.221 67.372 145.454C67.1014 145.687 66.7934 145.86 66.448 145.972C66.1027 146.084 65.762 146.14 65.426 146.14C65.0154 146.14 64.6327 146.07 64.278 145.93C63.9234 145.79 63.6434 145.58 63.438 145.3C63.2327 145.02 63.13 144.67 63.13 144.25C63.13 143.727 63.3027 143.298 63.648 142.962C64.0027 142.626 64.4927 142.397 65.118 142.276L67.918 141.73V142.584L65.608 143.06C65.132 143.153 64.7774 143.289 64.544 143.466C64.3107 143.643 64.194 143.886 64.194 144.194C64.194 144.511 64.3107 144.763 64.544 144.95C64.7867 145.137 65.132 145.23 65.58 145.23C65.8507 145.23 66.112 145.197 66.364 145.132C66.616 145.057 66.8447 144.945 67.05 144.796C67.2554 144.647 67.414 144.46 67.526 144.236C67.6474 144.012 67.708 143.746 67.708 143.438V141.464ZM71.4257 146V139H72.2797L72.4197 140.204C72.6064 139.765 72.891 139.434 73.2737 139.21C73.6564 138.977 74.1184 138.86 74.6597 138.86C74.7904 138.86 74.9304 138.874 75.0797 138.902C75.229 138.921 75.355 138.958 75.4577 139.014L75.2617 139.966C75.159 139.919 75.047 139.887 74.9257 139.868C74.8044 139.84 74.6317 139.826 74.4077 139.826C74.0997 139.826 73.7964 139.915 73.4977 140.092C73.199 140.269 72.9517 140.535 72.7557 140.89C72.5597 141.235 72.4617 141.669 72.4617 142.192V146H71.4257ZM77.0585 146V139H77.9685L78.0385 140.162C78.2812 139.723 78.6078 139.397 79.0185 139.182C79.4385 138.967 79.8772 138.86 80.3345 138.86C80.8572 138.86 81.3378 138.981 81.7765 139.224C82.2152 139.457 82.5418 139.817 82.7565 140.302C82.9058 139.975 83.1158 139.709 83.3865 139.504C83.6572 139.289 83.9558 139.131 84.2825 139.028C84.6185 138.916 84.9405 138.86 85.2485 138.86C85.7058 138.86 86.1352 138.953 86.5365 139.14C86.9378 139.327 87.2645 139.616 87.5165 140.008C87.7778 140.4 87.9085 140.899 87.9085 141.506V146H86.8725V141.604C86.8725 140.96 86.7092 140.493 86.3825 140.204C86.0558 139.915 85.6452 139.77 85.1505 139.77C84.7678 139.77 84.4132 139.863 84.0865 140.05C83.7598 140.227 83.4985 140.493 83.3025 140.848C83.1065 141.193 83.0085 141.618 83.0085 142.122V146H81.9725V141.618C81.9725 140.965 81.8045 140.493 81.4685 140.204C81.1418 139.915 80.7358 139.77 80.2505 139.77C79.9145 139.77 79.5785 139.859 79.2425 140.036C78.9158 140.204 78.6405 140.47 78.4165 140.834C78.2018 141.189 78.0945 141.651 78.0945 142.22V146H77.0585Z" fill="#012137"/>
</g>
<g clip-path="url(#clip8_2505_24582)">
<rect x="10.3262" y="101" width="123" height="80" rx="10" fill="white"/>
<path d="M-70.8237 114.444C-76.107 108.519 -81.3903 108.519 -86.6737 114.444L-86.6738 254.5L230.326 254.5L230.326 114.444C225.043 108.518 219.76 108.518 214.476 114.444C209.193 108.518 203.909 108.518 198.626 114.444C193.343 108.518 188.059 108.518 182.776 114.444C177.493 108.518 172.21 108.518 166.926 114.444C161.643 108.518 156.36 108.518 151.076 114.444C145.793 108.518 140.51 108.518 135.226 114.444C129.943 108.518 124.66 108.518 119.376 114.444C114.093 108.518 108.81 108.518 103.526 114.444C98.2429 108.518 92.9596 108.518 87.6763 114.444C82.3929 108.518 77.1096 108.518 71.8263 114.444C66.5429 108.518 61.2596 108.518 55.9763 114.444C50.6929 108.518 45.4097 108.518 40.1263 114.444C34.843 108.518 29.5597 108.518 24.2763 114.444C18.993 108.518 13.7097 108.519 8.42634 114.444C3.14301 108.519 -2.14033 108.519 -7.42366 114.444C-12.707 108.519 -17.9903 108.519 -23.2737 114.444C-28.557 108.519 -33.8403 108.519 -39.1237 114.444C-44.407 108.519 -49.6903 108.519 -54.9737 114.444C-60.257 108.519 -65.5403 108.519 -70.8237 114.444Z" fill="#00D791"/>
<path d="M62.4624 137.726H57.0584V140.834H61.2864V141.8H57.0584V146H56.0224V136.76H62.4624V137.726ZM67.708 141.464C67.708 140.923 67.5634 140.507 67.274 140.218C66.9847 139.919 66.574 139.77 66.042 139.77C65.5474 139.77 65.1274 139.877 64.782 140.092C64.4367 140.307 64.18 140.652 64.012 141.128L63.172 140.61C63.368 140.078 63.7134 139.653 64.208 139.336C64.712 139.019 65.3327 138.86 66.07 138.86C66.574 138.86 67.0267 138.949 67.428 139.126C67.8387 139.294 68.1607 139.555 68.394 139.91C68.6274 140.265 68.744 140.713 68.744 141.254V144.67C68.744 145.034 68.9307 145.216 69.304 145.216C69.4814 145.216 69.654 145.193 69.822 145.146L69.766 145.958C69.5887 146.051 69.3554 146.098 69.066 146.098C68.8047 146.098 68.5667 146.051 68.352 145.958C68.1467 145.855 67.9834 145.701 67.862 145.496C67.7407 145.281 67.68 145.015 67.68 144.698V144.516L67.946 144.544C67.8434 144.917 67.652 145.221 67.372 145.454C67.1014 145.687 66.7934 145.86 66.448 145.972C66.1027 146.084 65.762 146.14 65.426 146.14C65.0154 146.14 64.6327 146.07 64.278 145.93C63.9234 145.79 63.6434 145.58 63.438 145.3C63.2327 145.02 63.13 144.67 63.13 144.25C63.13 143.727 63.3027 143.298 63.648 142.962C64.0027 142.626 64.4927 142.397 65.118 142.276L67.918 141.73V142.584L65.608 143.06C65.132 143.153 64.7774 143.289 64.544 143.466C64.3107 143.643 64.194 143.886 64.194 144.194C64.194 144.511 64.3107 144.763 64.544 144.95C64.7867 145.137 65.132 145.23 65.58 145.23C65.8507 145.23 66.112 145.197 66.364 145.132C66.616 145.057 66.8447 144.945 67.05 144.796C67.2554 144.647 67.414 144.46 67.526 144.236C67.6474 144.012 67.708 143.746 67.708 143.438V141.464ZM71.4257 146V139H72.2797L72.4197 140.204C72.6064 139.765 72.891 139.434 73.2737 139.21C73.6564 138.977 74.1184 138.86 74.6597 138.86C74.7904 138.86 74.9304 138.874 75.0797 138.902C75.229 138.921 75.355 138.958 75.4577 139.014L75.2617 139.966C75.159 139.919 75.047 139.887 74.9257 139.868C74.8044 139.84 74.6317 139.826 74.4077 139.826C74.0997 139.826 73.7964 139.915 73.4977 140.092C73.199 140.269 72.9517 140.535 72.7557 140.89C72.5597 141.235 72.4617 141.669 72.4617 142.192V146H71.4257ZM77.0585 146V139H77.9685L78.0385 140.162C78.2812 139.723 78.6078 139.397 79.0185 139.182C79.4385 138.967 79.8772 138.86 80.3345 138.86C80.8572 138.86 81.3378 138.981 81.7765 139.224C82.2152 139.457 82.5418 139.817 82.7565 140.302C82.9058 139.975 83.1158 139.709 83.3865 139.504C83.6572 139.289 83.9558 139.131 84.2825 139.028C84.6185 138.916 84.9405 138.86 85.2485 138.86C85.7058 138.86 86.1352 138.953 86.5365 139.14C86.9378 139.327 87.2645 139.616 87.5165 140.008C87.7778 140.4 87.9085 140.899 87.9085 141.506V146H86.8725V141.604C86.8725 140.96 86.7092 140.493 86.3825 140.204C86.0558 139.915 85.6452 139.77 85.1505 139.77C84.7678 139.77 84.4132 139.863 84.0865 140.05C83.7598 140.227 83.4985 140.493 83.3025 140.848C83.1065 141.193 83.0085 141.618 83.0085 142.122V146H81.9725V141.618C81.9725 140.965 81.8045 140.493 81.4685 140.204C81.1418 139.915 80.7358 139.77 80.2505 139.77C79.9145 139.77 79.5785 139.859 79.2425 140.036C78.9158 140.204 78.6405 140.47 78.4165 140.834C78.2018 141.189 78.0945 141.651 78.0945 142.22V146H77.0585Z" fill="#012137"/>
</g>
<g clip-path="url(#clip9_2505_24582)">
<rect x="10.3262" y="101" width="123" height="80" rx="10" fill="white"/>
<path d="M-70.8238 119.223C-76.1072 110.889 -81.3905 110.889 -86.6738 119.223V194H230.326V119.223C225.043 103.118 219.759 103.118 214.476 119.223C209.193 112.123 203.91 112.123 198.626 119.223C193.343 107.82 188.06 107.82 182.776 119.223C177.493 113.812 172.21 113.812 166.926 119.223C161.643 114.066 156.36 114.066 151.076 119.223C145.793 109.981 140.51 109.981 135.226 119.223C129.943 109.999 124.66 109.999 119.376 119.223C114.093 109.091 108.81 109.091 103.526 119.223C98.2428 101.847 92.9595 101.847 87.6762 119.223C82.3928 102.337 77.1095 102.337 71.8262 119.223C66.5428 104.189 61.2595 104.189 55.9762 119.223C50.6928 114.084 45.4095 114.084 40.1262 119.223C34.8428 110.217 29.5595 110.217 24.2762 119.223C18.9928 101.592 13.7095 101.592 8.42618 119.223C3.14285 114.992 -2.1405 114.992 -7.42383 119.223C-12.7072 114.375 -17.9905 114.375 -23.2738 119.223C-28.5572 101.719 -33.8405 101.719 -39.1238 119.223C-44.4072 102.119 -49.6905 102.119 -54.9738 119.223C-60.2572 107.348 -65.5405 107.348 -70.8238 119.223Z" fill="#FF4D80"/>
<path d="M62.4624 137.726H57.0584V140.834H61.2864V141.8H57.0584V146H56.0224V136.76H62.4624V137.726ZM67.708 141.464C67.708 140.923 67.5634 140.507 67.274 140.218C66.9847 139.919 66.574 139.77 66.042 139.77C65.5474 139.77 65.1274 139.877 64.782 140.092C64.4367 140.307 64.18 140.652 64.012 141.128L63.172 140.61C63.368 140.078 63.7134 139.653 64.208 139.336C64.712 139.019 65.3327 138.86 66.07 138.86C66.574 138.86 67.0267 138.949 67.428 139.126C67.8387 139.294 68.1607 139.555 68.394 139.91C68.6274 140.265 68.744 140.713 68.744 141.254V144.67C68.744 145.034 68.9307 145.216 69.304 145.216C69.4814 145.216 69.654 145.193 69.822 145.146L69.766 145.958C69.5887 146.051 69.3554 146.098 69.066 146.098C68.8047 146.098 68.5667 146.051 68.352 145.958C68.1467 145.855 67.9834 145.701 67.862 145.496C67.7407 145.281 67.68 145.015 67.68 144.698V144.516L67.946 144.544C67.8434 144.917 67.652 145.221 67.372 145.454C67.1014 145.687 66.7934 145.86 66.448 145.972C66.1027 146.084 65.762 146.14 65.426 146.14C65.0154 146.14 64.6327 146.07 64.278 145.93C63.9234 145.79 63.6434 145.58 63.438 145.3C63.2327 145.02 63.13 144.67 63.13 144.25C63.13 143.727 63.3027 143.298 63.648 142.962C64.0027 142.626 64.4927 142.397 65.118 142.276L67.918 141.73V142.584L65.608 143.06C65.132 143.153 64.7774 143.289 64.544 143.466C64.3107 143.643 64.194 143.886 64.194 144.194C64.194 144.511 64.3107 144.763 64.544 144.95C64.7867 145.137 65.132 145.23 65.58 145.23C65.8507 145.23 66.112 145.197 66.364 145.132C66.616 145.057 66.8447 144.945 67.05 144.796C67.2554 144.647 67.414 144.46 67.526 144.236C67.6474 144.012 67.708 143.746 67.708 143.438V141.464ZM71.4257 146V139H72.2797L72.4197 140.204C72.6064 139.765 72.891 139.434 73.2737 139.21C73.6564 138.977 74.1184 138.86 74.6597 138.86C74.7904 138.86 74.9304 138.874 75.0797 138.902C75.229 138.921 75.355 138.958 75.4577 139.014L75.2617 139.966C75.159 139.919 75.047 139.887 74.9257 139.868C74.8044 139.84 74.6317 139.826 74.4077 139.826C74.0997 139.826 73.7964 139.915 73.4977 140.092C73.199 140.269 72.9517 140.535 72.7557 140.89C72.5597 141.235 72.4617 141.669 72.4617 142.192V146H71.4257ZM77.0585 146V139H77.9685L78.0385 140.162C78.2812 139.723 78.6078 139.397 79.0185 139.182C79.4385 138.967 79.8772 138.86 80.3345 138.86C80.8572 138.86 81.3378 138.981 81.7765 139.224C82.2152 139.457 82.5418 139.817 82.7565 140.302C82.9058 139.975 83.1158 139.709 83.3865 139.504C83.6572 139.289 83.9558 139.131 84.2825 139.028C84.6185 138.916 84.9405 138.86 85.2485 138.86C85.7058 138.86 86.1352 138.953 86.5365 139.14C86.9378 139.327 87.2645 139.616 87.5165 140.008C87.7778 140.4 87.9085 140.899 87.9085 141.506V146H86.8725V141.604C86.8725 140.96 86.7092 140.493 86.3825 140.204C86.0558 139.915 85.6452 139.77 85.1505 139.77C84.7678 139.77 84.4132 139.863 84.0865 140.05C83.7598 140.227 83.4985 140.493 83.3025 140.848C83.1065 141.193 83.0085 141.618 83.0085 142.122V146H81.9725V141.618C81.9725 140.965 81.8045 140.493 81.4685 140.204C81.1418 139.915 80.7358 139.77 80.2505 139.77C79.9145 139.77 79.5785 139.859 79.2425 140.036C78.9158 140.204 78.6405 140.47 78.4165 140.834C78.2018 141.189 78.0945 141.651 78.0945 142.22V146H77.0585Z" fill="#012137"/>
</g>
<g clip-path="url(#clip10_2505_24582)">
<rect x="10.3262" y="101" width="123" height="80" rx="10" fill="white"/>
<path d="M-70.8237 114.444C-76.107 108.519 -81.3903 108.519 -86.6737 114.444L-86.6738 254.5L230.326 254.5L230.326 114.444C225.043 108.518 219.76 108.518 214.476 114.444C209.193 108.518 203.909 108.518 198.626 114.444C193.343 108.518 188.059 108.518 182.776 114.444C177.493 108.518 172.21 108.518 166.926 114.444C161.643 108.518 156.36 108.518 151.076 114.444C145.793 108.518 140.51 108.518 135.226 114.444C129.943 108.518 124.66 108.518 119.376 114.444C114.093 108.518 108.81 108.518 103.526 114.444C98.2429 108.518 92.9596 108.518 87.6763 114.444C82.3929 108.518 77.1096 108.518 71.8263 114.444C66.5429 108.518 61.2596 108.518 55.9763 114.444C50.6929 108.518 45.4097 108.518 40.1263 114.444C34.843 108.518 29.5597 108.518 24.2763 114.444C18.993 108.518 13.7097 108.519 8.42634 114.444C3.14301 108.519 -2.14033 108.519 -7.42366 114.444C-12.707 108.519 -17.9903 108.519 -23.2737 114.444C-28.557 108.519 -33.8403 108.519 -39.1237 114.444C-44.407 108.519 -49.6903 108.519 -54.9737 114.444C-60.257 108.519 -65.5403 108.519 -70.8237 114.444Z" fill="#00D791"/>
<path d="M62.4624 137.726H57.0584V140.834H61.2864V141.8H57.0584V146H56.0224V136.76H62.4624V137.726ZM67.708 141.464C67.708 140.923 67.5634 140.507 67.274 140.218C66.9847 139.919 66.574 139.77 66.042 139.77C65.5474 139.77 65.1274 139.877 64.782 140.092C64.4367 140.307 64.18 140.652 64.012 141.128L63.172 140.61C63.368 140.078 63.7134 139.653 64.208 139.336C64.712 139.019 65.3327 138.86 66.07 138.86C66.574 138.86 67.0267 138.949 67.428 139.126C67.8387 139.294 68.1607 139.555 68.394 139.91C68.6274 140.265 68.744 140.713 68.744 141.254V144.67C68.744 145.034 68.9307 145.216 69.304 145.216C69.4814 145.216 69.654 145.193 69.822 145.146L69.766 145.958C69.5887 146.051 69.3554 146.098 69.066 146.098C68.8047 146.098 68.5667 146.051 68.352 145.958C68.1467 145.855 67.9834 145.701 67.862 145.496C67.7407 145.281 67.68 145.015 67.68 144.698V144.516L67.946 144.544C67.8434 144.917 67.652 145.221 67.372 145.454C67.1014 145.687 66.7934 145.86 66.448 145.972C66.1027 146.084 65.762 146.14 65.426 146.14C65.0154 146.14 64.6327 146.07 64.278 145.93C63.9234 145.79 63.6434 145.58 63.438 145.3C63.2327 145.02 63.13 144.67 63.13 144.25C63.13 143.727 63.3027 143.298 63.648 142.962C64.0027 142.626 64.4927 142.397 65.118 142.276L67.918 141.73V142.584L65.608 143.06C65.132 143.153 64.7774 143.289 64.544 143.466C64.3107 143.643 64.194 143.886 64.194 144.194C64.194 144.511 64.3107 144.763 64.544 144.95C64.7867 145.137 65.132 145.23 65.58 145.23C65.8507 145.23 66.112 145.197 66.364 145.132C66.616 145.057 66.8447 144.945 67.05 144.796C67.2554 144.647 67.414 144.46 67.526 144.236C67.6474 144.012 67.708 143.746 67.708 143.438V141.464ZM71.4257 146V139H72.2797L72.4197 140.204C72.6064 139.765 72.891 139.434 73.2737 139.21C73.6564 138.977 74.1184 138.86 74.6597 138.86C74.7904 138.86 74.9304 138.874 75.0797 138.902C75.229 138.921 75.355 138.958 75.4577 139.014L75.2617 139.966C75.159 139.919 75.047 139.887 74.9257 139.868C74.8044 139.84 74.6317 139.826 74.4077 139.826C74.0997 139.826 73.7964 139.915 73.4977 140.092C73.199 140.269 72.9517 140.535 72.7557 140.89C72.5597 141.235 72.4617 141.669 72.4617 142.192V146H71.4257ZM77.0585 146V139H77.9685L78.0385 140.162C78.2812 139.723 78.6078 139.397 79.0185 139.182C79.4385 138.967 79.8772 138.86 80.3345 138.86C80.8572 138.86 81.3378 138.981 81.7765 139.224C82.2152 139.457 82.5418 139.817 82.7565 140.302C82.9058 139.975 83.1158 139.709 83.3865 139.504C83.6572 139.289 83.9558 139.131 84.2825 139.028C84.6185 138.916 84.9405 138.86 85.2485 138.86C85.7058 138.86 86.1352 138.953 86.5365 139.14C86.9378 139.327 87.2645 139.616 87.5165 140.008C87.7778 140.4 87.9085 140.899 87.9085 141.506V146H86.8725V141.604C86.8725 140.96 86.7092 140.493 86.3825 140.204C86.0558 139.915 85.6452 139.77 85.1505 139.77C84.7678 139.77 84.4132 139.863 84.0865 140.05C83.7598 140.227 83.4985 140.493 83.3025 140.848C83.1065 141.193 83.0085 141.618 83.0085 142.122V146H81.9725V141.618C81.9725 140.965 81.8045 140.493 81.4685 140.204C81.1418 139.915 80.7358 139.77 80.2505 139.77C79.9145 139.77 79.5785 139.859 79.2425 140.036C78.9158 140.204 78.6405 140.47 78.4165 140.834C78.2018 141.189 78.0945 141.651 78.0945 142.22V146H77.0585Z" fill="#012137"/>
</g>
<defs>
<clipPath id="clip0_2505_24582">
<rect x="27.7559" width="91" height="91" rx="12" fill="white"/>
</clipPath>
<clipPath id="clip1_2505_24582">
<rect x="27.7559" width="91" height="91" rx="12" fill="white"/>
</clipPath>
<clipPath id="clip2_2505_24582">
<rect x="11.7559" y="191" width="122" height="91" rx="13" fill="white"/>
</clipPath>
<clipPath id="clip3_2505_24582">
<rect x="11.7559" y="191" width="122" height="91" rx="13" fill="white"/>
</clipPath>
<clipPath id="clip4_2505_24582">
<rect x="10.3262" y="101" width="123" height="80" rx="10" fill="white"/>
</clipPath>
<clipPath id="clip5_2505_24582">
<rect x="10.3262" y="101" width="123" height="80" rx="10" fill="white"/>
</clipPath>
<clipPath id="clip6_2505_24582">
<rect x="10.3262" y="101" width="123" height="80" rx="10" fill="white"/>
</clipPath>
<clipPath id="clip7_2505_24582">
<rect x="10.3262" y="101" width="123" height="80" rx="10" fill="white"/>
</clipPath>
<clipPath id="clip8_2505_24582">
<rect x="10.3262" y="101" width="123" height="80" rx="10" fill="white"/>
</clipPath>
<clipPath id="clip9_2505_24582">
<rect x="10.3262" y="101" width="123" height="80" rx="10" fill="white"/>
</clipPath>
<clipPath id="clip10_2505_24582">
<rect x="10.3262" y="101" width="123" height="80" rx="10" fill="white"/>
</clipPath>
</defs>
</svg>
