<svg width="900" height="248" viewBox="0 0 900 248" fill="none" xmlns="http://www.w3.org/2000/svg">
<g clip-path="url(#clip0_2505_24580)">
<rect y="88" width="91" height="91" rx="12" fill="white"/>
<path d="M89.9977 100.999V100.999V166.001C89.9977 172.628 84.6256 178 77.9984 178H12.9993C6.37218 178 1 172.628 1 165.998V100.999C1 94.3721 6.37207 89 12.9993 89H78.0007C84.628 89 89.9998 94.3721 89.9977 100.999Z" stroke="#012137" stroke-width="2"/>
<path d="M13.3247 97.125H77.6748C79.9954 97.125 81.8754 99.0067 81.8754 101.326V152.676C81.8754 154.997 79.9937 156.877 77.6748 156.877H13.3247C11.0041 156.877 9.12402 154.995 9.12402 152.676V101.326C9.12402 99.005 11.0058 97.125 13.3247 97.125Z" stroke="#012137" stroke-width="2"/>
<path d="M44.3268 128.743C47.4683 130.857 50.5616 132.304 53.5197 133.045C56.2805 133.737 58.8808 133.808 61.2473 133.258C64.4369 132.517 66.7346 130.72 68.4681 128.161C68.9336 127.457 68.9313 126.535 68.4635 125.831C67.661 124.618 66.7735 123.48 65.8105 122.426C65.7371 124.102 65.3014 125.237 64.8932 125.95C63.9714 127.551 62.3411 128.693 60.2979 129.167C58.5873 129.564 56.6497 129.497 54.5424 128.97C52.059 128.349 49.4105 127.099 46.6726 125.258C43.5311 123.143 40.4378 121.696 37.4797 120.956C34.7189 120.263 32.1186 120.192 29.7521 120.742C26.5625 121.483 24.2648 123.281 22.5313 125.84C22.0658 126.544 22.0681 127.466 22.5359 128.17C23.3384 129.383 24.2259 130.52 25.1889 131.575C25.2623 129.899 25.698 128.764 26.1062 128.05C27.028 126.45 28.6583 125.308 30.7014 124.833C32.4121 124.437 34.3497 124.503 36.457 125.031C38.9404 125.652 41.5889 126.902 44.3268 128.743Z" fill="#B4DBFF"/>
<path d="M48.874 121.985C52.9373 124.718 56.7782 125.936 59.406 125.326C60.3714 125.101 61.1052 124.624 61.4743 123.982C61.8183 123.384 61.9513 122.331 61.8389 121.093C61.8343 121.031 61.8275 120.971 61.8206 120.91C60.9905 121.164 59.8417 121.384 58.3649 121.384C57.7481 121.384 57.2414 121.322 56.918 121.258C55.7761 121.033 53.8499 120.387 51.1625 118.58C47.9545 116.422 44.7281 114.805 41.5431 113.76C38.5713 114.189 35.7187 115.097 33.084 116.431C34.813 116.436 36.6038 116.67 38.436 117.128C41.8389 117.981 45.3496 119.614 48.8717 121.983L48.874 121.985Z" fill="#B4DBFF"/>
<path d="M42.1251 132.015C38.0618 129.281 34.2209 128.064 31.593 128.674C30.6277 128.898 29.8939 129.375 29.5247 130.017C29.1807 130.616 29.0477 131.668 29.1601 132.907C29.1647 132.969 29.1716 133.028 29.1785 133.09C30.0085 132.836 31.1574 132.615 32.6341 132.615C33.2509 132.615 33.7577 132.677 34.081 132.742C35.223 132.966 37.1491 133.613 39.8366 135.42C43.0446 137.578 46.2732 139.194 49.4583 140.24C52.4301 139.811 55.2849 138.903 57.9219 137.568C56.1907 137.564 54.3975 137.332 52.5631 136.871C49.1602 136.018 45.6495 134.386 42.1273 132.017L42.1251 132.015Z" fill="#B4DBFF"/>
</g>
<path d="M870 203L475 203" stroke="#1FA4F1" stroke-width="4"/>
<path d="M870 68.0001L651.071 68C646.544 68 642.201 69.7986 639 73V73C635.799 76.2015 631.456 78 626.929 78L241 78" stroke="#1FA4F1" stroke-width="4"/>
<g clip-path="url(#clip1_2505_24580)">
<rect x="624" y="156" width="122" height="91" rx="13" fill="white"/>
<path d="M637.625 157H732.928C739.6 157 745 162.379 745 169V233.45C745 240.377 739.354 246 732.375 246H637.625C630.646 246 625 240.377 625 233.45V169.55C625 162.623 630.646 157 637.625 157Z" stroke="#012137" stroke-width="2"/>
<path d="M641.864 172.012H728.136C729.031 172.012 729.749 172.732 729.749 173.61V229.078C729.749 229.955 729.033 230.676 728.136 230.676H641.864C640.969 230.676 640.251 229.956 640.251 229.078V173.61C640.251 172.733 640.967 172.012 641.864 172.012Z" stroke="#012137" stroke-width="2"/>
<path d="M686.127 183.873C686.127 183.873 686.096 183.855 686.087 183.843C685.426 183.43 684.568 183.43 683.907 183.843C683.898 183.843 683.876 183.861 683.867 183.873C682.96 184.473 682.103 185.109 681.285 185.796C682.597 186.432 683.839 187.188 684.992 188.053C690.692 192.309 694.061 198.955 694.061 206.094C694.061 211.066 690.009 215.105 685.002 215.105C679.994 215.105 675.942 211.075 675.942 206.094H675.923C675.923 201.994 677.018 198.151 678.939 194.849C682.588 197.28 684.983 201.407 684.983 206.094C684.983 207.574 684.845 208.938 684.608 210.182H684.992C687.261 210.182 689.103 208.348 689.103 206.094C689.103 198.533 684.322 192.092 677.608 189.581C673.922 194.22 671.841 200.004 671.841 206.082H671.859C671.859 213.298 677.746 219.153 685.002 219.153C692.257 219.153 698.144 213.298 698.144 206.082C698.144 197.121 693.649 188.814 686.127 183.864V183.873Z" fill="#1FA4F1"/>
</g>
<g clip-path="url(#clip2_2505_24580)">
<rect x="624" y="22" width="122" height="91" rx="13" fill="white"/>
<path d="M637.625 23H732.928C739.6 23 745 28.3787 745 35V99.4497C745 106.377 739.354 112 732.375 112H637.625C630.646 112 625 106.377 625 99.4497V35.5503C625 28.6233 630.646 23 637.625 23Z" stroke="#012137" stroke-width="2"/>
<path d="M641.864 38.0117H728.136C729.031 38.0117 729.749 38.7317 729.749 39.6105V95.0776C729.749 95.9548 729.033 96.6763 728.136 96.6763H641.864C640.969 96.6763 640.251 95.9563 640.251 95.0776V39.6105C640.251 38.7333 640.967 38.0117 641.864 38.0117Z" stroke="#012137" stroke-width="2"/>
<path d="M686.127 49.8733C686.127 49.8733 686.096 49.855 686.087 49.8428C685.426 49.43 684.568 49.43 683.907 49.8428C683.898 49.8428 683.876 49.8611 683.867 49.8733C682.96 50.4726 682.103 51.1085 681.285 51.7964C682.597 52.4324 683.839 53.1875 684.992 54.0528C690.692 58.3087 694.061 64.9554 694.061 72.0944C694.061 77.0657 690.009 81.1045 685.002 81.1045C679.994 81.1045 675.942 77.0749 675.942 72.0944H675.923C675.923 67.9945 677.018 64.1513 678.939 60.8493C682.588 63.28 684.983 67.4074 684.983 72.0944C684.983 73.5742 684.845 74.9378 684.608 76.1821H684.992C687.261 76.1821 689.103 74.3477 689.103 72.0944C689.103 64.5335 684.322 58.0916 677.608 55.5815C673.922 60.2195 671.841 66.0041 671.841 72.0822H671.859C671.859 79.2976 677.746 85.1525 685.002 85.1525C692.257 85.1525 698.144 79.2976 698.144 72.0822C698.144 63.121 693.649 54.8141 686.127 49.8642V49.8733Z" fill="#1FA4F1"/>
</g>
<path d="M71 133.5H117C128.046 133.5 137 142.454 137 153.5V183C137 194.046 145.954 203 157 203H495" stroke="#B4DBFF" stroke-width="4"/>
<path d="M71 133.5H117C128.046 133.5 137 124.546 137 113.5V83.5C137 72.4543 145.954 63.5 157 63.5L413 63.5" stroke="#B4DBFF" stroke-width="4"/>
<mask id="path-19-inside-1_2505_24580" fill="white">
<path fill-rule="evenodd" clip-rule="evenodd" d="M825 142.5C825 138.358 821.642 135 817.5 135C813.358 135 810 138.358 810 142.5V159H789.5C785.358 159 782 162.358 782 166.5C782 169.278 783.511 171.704 785.756 173C784.875 173.508 784.107 174.191 783.499 175H773.5C771.015 175 769 177.015 769 179.5C769 181.985 771.015 184 773.5 184H783.499C784.868 185.822 787.046 187 789.5 187H791L791 196H787.5C783.358 196 780 199.358 780 203.5C780 207.642 783.358 211 787.5 211H809V214H783.5C779.358 214 776 217.358 776 221.5C776 225.642 779.358 229 783.5 229H809.458C810.732 233.057 814.522 236 819 236H822V241.5C822 242.102 822.082 242.684 822.235 243.237C822.083 243.629 822 244.055 822 244.5C822 246.433 823.567 248 825.5 248H828.49L828.5 248L828.51 248H871.5C873.433 248 875 246.433 875 244.5C875 242.567 873.433 241 871.5 241H869.826C869.94 240.518 870 240.016 870 239.5V236H875C880.523 236 885 231.523 885 226V209C885 203.477 880.523 199 875 199H872.95L866.022 187H871.5C875.642 187 879 183.642 879 179.5C879 177.327 878.076 175.37 876.599 174H892.5C896.642 174 900 170.642 900 166.5C900 162.358 896.642 159 892.5 159H825V142.5ZM806 196V187H809V196H806ZM857 239.5C857 240.016 857.06 240.518 857.174 241H835V236H857V239.5Z"/>
</mask>
<path fill-rule="evenodd" clip-rule="evenodd" d="M825 142.5C825 138.358 821.642 135 817.5 135C813.358 135 810 138.358 810 142.5V159H789.5C785.358 159 782 162.358 782 166.5C782 169.278 783.511 171.704 785.756 173C784.875 173.508 784.107 174.191 783.499 175H773.5C771.015 175 769 177.015 769 179.5C769 181.985 771.015 184 773.5 184H783.499C784.868 185.822 787.046 187 789.5 187H791L791 196H787.5C783.358 196 780 199.358 780 203.5C780 207.642 783.358 211 787.5 211H809V214H783.5C779.358 214 776 217.358 776 221.5C776 225.642 779.358 229 783.5 229H809.458C810.732 233.057 814.522 236 819 236H822V241.5C822 242.102 822.082 242.684 822.235 243.237C822.083 243.629 822 244.055 822 244.5C822 246.433 823.567 248 825.5 248H828.49L828.5 248L828.51 248H871.5C873.433 248 875 246.433 875 244.5C875 242.567 873.433 241 871.5 241H869.826C869.94 240.518 870 240.016 870 239.5V236H875C880.523 236 885 231.523 885 226V209C885 203.477 880.523 199 875 199H872.95L866.022 187H871.5C875.642 187 879 183.642 879 179.5C879 177.327 878.076 175.37 876.599 174H892.5C896.642 174 900 170.642 900 166.5C900 162.358 896.642 159 892.5 159H825V142.5ZM806 196V187H809V196H806ZM857 239.5C857 240.016 857.06 240.518 857.174 241H835V236H857V239.5Z" fill="white"/>
<path d="M810 159V161H812V159H810ZM785.756 173L786.756 174.732L789.756 173L786.756 171.268L785.756 173ZM783.499 175V177H784.499L785.099 176.201L783.499 175ZM783.499 184L785.099 182.799L784.499 182H783.499V184ZM791 187H793V185H791V187ZM791 196V198H793V196H791ZM809 211H811V209H809V211ZM809 214V216H811V214H809ZM809.458 229L811.366 228.401L810.926 227H809.458V229ZM822 236H824V234H822V236ZM822.235 243.237L824.1 243.959L824.339 243.342L824.162 242.704L822.235 243.237ZM828.49 248L828.491 246H828.49V248ZM828.5 248L828.498 250H828.502L828.5 248ZM828.51 248V246H828.509L828.51 248ZM869.826 241L867.88 240.54L867.299 243H869.826V241ZM870 236V234H868V236H870ZM872.95 199L871.218 200L871.796 201H872.95V199ZM866.022 187V185H862.558L864.29 188L866.022 187ZM876.599 174V172H871.502L875.239 175.466L876.599 174ZM825 159H823V161H825V159ZM806 187V185H804V187H806ZM806 196H804V198H806V196ZM809 187H811V185H809V187ZM809 196V198H811V196H809ZM857.174 241V243H859.701L859.12 240.54L857.174 241ZM835 241H833V243H835V241ZM835 236V234H833V236H835ZM857 236H859V234H857V236ZM817.5 137C820.538 137 823 139.462 823 142.5H827C827 137.253 822.747 133 817.5 133V137ZM812 142.5C812 139.462 814.462 137 817.5 137V133C812.253 133 808 137.253 808 142.5H812ZM812 159V142.5H808V159H812ZM789.5 161H810V157H789.5V161ZM784 166.5C784 163.462 786.462 161 789.5 161V157C784.253 157 780 161.253 780 166.5H784ZM786.756 171.268C785.104 170.315 784 168.535 784 166.5H780C780 170.022 781.918 173.094 784.756 174.732L786.756 171.268ZM785.099 176.201C785.545 175.606 786.11 175.105 786.756 174.732L784.756 171.268C783.64 171.912 782.669 172.775 781.9 173.799L785.099 176.201ZM773.5 177H783.499V173H773.5V177ZM771 179.5C771 178.119 772.119 177 773.5 177V173C769.91 173 767 175.91 767 179.5H771ZM773.5 182C772.119 182 771 180.881 771 179.5H767C767 183.09 769.91 186 773.5 186V182ZM783.499 182H773.5V186H783.499V182ZM789.5 185C787.702 185 786.105 184.139 785.099 182.799L781.9 185.201C783.63 187.504 786.391 189 789.5 189V185ZM791 185H789.5V189H791V185ZM793 196L793 187H789L789 196H793ZM787.5 198H791V194H787.5V198ZM782 203.5C782 200.462 784.462 198 787.5 198V194C782.253 194 778 198.253 778 203.5H782ZM787.5 209C784.462 209 782 206.538 782 203.5H778C778 208.747 782.253 213 787.5 213V209ZM809 209H787.5V213H809V209ZM811 214V211H807V214H811ZM783.5 216H809V212H783.5V216ZM778 221.5C778 218.462 780.462 216 783.5 216V212C778.253 212 774 216.253 774 221.5H778ZM783.5 227C780.462 227 778 224.538 778 221.5H774C774 226.747 778.253 231 783.5 231V227ZM809.458 227H783.5V231H809.458V227ZM819 234C815.421 234 812.386 231.648 811.366 228.401L807.55 229.599C809.078 234.466 813.624 238 819 238V234ZM822 234H819V238H822V234ZM824 241.5V236H820V241.5H824ZM824.162 242.704C824.057 242.323 824 241.92 824 241.5H820C820 242.284 820.107 243.045 820.307 243.771L824.162 242.704ZM824 244.5C824 244.306 824.036 244.124 824.1 243.959L820.37 242.515C820.13 243.134 820 243.804 820 244.5H824ZM825.5 246C824.672 246 824 245.328 824 244.5H820C820 247.538 822.462 250 825.5 250V246ZM828.49 246H825.5V250H828.49V246ZM828.502 246L828.491 246L828.488 250L828.498 250L828.502 246ZM828.509 246L828.498 246L828.502 250L828.512 250L828.509 246ZM871.5 246H828.51V250H871.5V246ZM873 244.5C873 245.328 872.328 246 871.5 246V250C874.538 250 877 247.538 877 244.5H873ZM871.5 243C872.328 243 873 243.672 873 244.5H877C877 241.462 874.538 239 871.5 239V243ZM869.826 243H871.5V239H869.826V243ZM868 239.5C868 239.86 867.958 240.208 867.88 240.54L871.773 241.46C871.922 240.829 872 240.172 872 239.5H868ZM868 236V239.5H872V236H868ZM875 234H870V238H875V234ZM883 226C883 230.418 879.418 234 875 234V238C881.627 238 887 232.627 887 226H883ZM883 209V226H887V209H883ZM875 201C879.418 201 883 204.582 883 209H887C887 202.373 881.627 197 875 197V201ZM872.95 201H875V197H872.95V201ZM864.29 188L871.218 200L874.683 198L867.754 186L864.29 188ZM871.5 185H866.022V189H871.5V185ZM877 179.5C877 182.538 874.538 185 871.5 185V189C876.747 189 881 184.747 881 179.5H877ZM875.239 175.466C876.325 176.473 877 177.906 877 179.5H881C881 176.748 879.827 174.266 877.959 172.534L875.239 175.466ZM892.5 172H876.599V176H892.5V172ZM898 166.5C898 169.538 895.538 172 892.5 172V176C897.747 176 902 171.747 902 166.5H898ZM892.5 161C895.538 161 898 163.462 898 166.5H902C902 161.253 897.747 157 892.5 157V161ZM825 161H892.5V157H825V161ZM823 142.5V159H827V142.5H823ZM804 187V196H808V187H804ZM809 185H806V189H809V185ZM811 196V187H807V196H811ZM806 198H809V194H806V198ZM859.12 240.54C859.042 240.208 859 239.86 859 239.5H855C855 240.172 855.078 240.829 855.227 241.46L859.12 240.54ZM835 243H857.174V239H835V243ZM833 236V241H837V236H833ZM857 234H835V238H857V234ZM859 239.5V236H855V239.5H859Z" fill="#012137" mask="url(#path-19-inside-1_2505_24580)"/>
<path d="M851.97 204.02C851.97 210.63 846.6 216 839.99 216C833.38 216 828.01 210.63 828.01 204.02C828.01 197.41 833.38 192.04 839.99 192.04C843.67 192.04 846.96 193.71 849.16 196.32C846.66 196.48 844.17 196.24 841.78 195.61V199.86C843.7 200.28 845.67 200.51 847.66 200.51C849.5 200.51 851.36 200.32 853.21 199.95C853.85 199.79 854.39 199.32 854.64 198.71C854.69 198.59 854.72 198.48 854.75 198.36C855.53 194.54 855.47 190.69 854.65 187.01H850.39C850.87 188.83 851.13 190.72 851.15 192.63C848.27 189.8 844.34 188.05 839.99 188.05C831.18 188.05 824.01 195.22 824.01 204.03C824.01 212.84 831.18 220.01 839.99 220.01C848.8 220.01 855.97 212.84 855.97 204.03H851.97V204.02Z" fill="#1FA4F1"/>
<path d="M876 173H787.5" stroke="#012137" stroke-width="2"/>
<path d="M842 155L842 159" stroke="#012137" stroke-width="2" stroke-linecap="round"/>
<path d="M859 155L859 159" stroke="#012137" stroke-width="2" stroke-linecap="round"/>
<path d="M876 155L876 159" stroke="#012137" stroke-width="2" stroke-linecap="round"/>
<path d="M893 155L893 159" stroke="#012137" stroke-width="2" stroke-linecap="round"/>
<path d="M810 228L810 198" stroke="#012137" stroke-width="2"/>
<path d="M805 197L792 197" stroke="#012137" stroke-width="2"/>
<path d="M805 186L792 186" stroke="#012137" stroke-width="2"/>
<path d="M872 235L823 235" stroke="#012137" stroke-width="2"/>
<mask id="path-31-inside-2_2505_24580" fill="white">
<path fill-rule="evenodd" clip-rule="evenodd" d="M825 7.5C825 3.35786 821.642 0 817.5 0C813.358 0 810 3.35786 810 7.5V24H789.5C785.358 24 782 27.3579 782 31.5C782 34.2785 783.511 36.704 785.756 38C784.875 38.5084 784.107 39.1907 783.499 40H773.5C771.015 40 769 42.0147 769 44.5C769 46.9853 771.015 49 773.5 49H783.499C784.868 50.8217 787.046 52 789.5 52H791L791 61H787.5C783.358 61 780 64.3579 780 68.5C780 72.6421 783.358 76 787.5 76H809V79H783.5C779.358 79 776 82.3579 776 86.5C776 90.6421 779.358 94 783.5 94H809.458C810.732 98.0571 814.522 101 819 101H822V106.5C822 107.102 822.082 107.684 822.235 108.237C822.083 108.629 822 109.055 822 109.5C822 111.433 823.567 113 825.5 113H828.49L828.5 113L828.51 113H871.5C873.433 113 875 111.433 875 109.5C875 107.567 873.433 106 871.5 106H869.826C869.94 105.518 870 105.016 870 104.5V101H875C880.523 101 885 96.5229 885 91V74C885 68.4771 880.523 64 875 64H872.95L866.022 52H871.5C875.642 52 879 48.6421 879 44.5C879 42.3269 878.076 40.3697 876.599 39H892.5C896.642 39 900 35.6421 900 31.5C900 27.3579 896.642 24 892.5 24H825V7.5ZM806 61V52H809V61H806ZM857 104.5C857 105.016 857.06 105.518 857.174 106H835V101H857V104.5Z"/>
</mask>
<path fill-rule="evenodd" clip-rule="evenodd" d="M825 7.5C825 3.35786 821.642 0 817.5 0C813.358 0 810 3.35786 810 7.5V24H789.5C785.358 24 782 27.3579 782 31.5C782 34.2785 783.511 36.704 785.756 38C784.875 38.5084 784.107 39.1907 783.499 40H773.5C771.015 40 769 42.0147 769 44.5C769 46.9853 771.015 49 773.5 49H783.499C784.868 50.8217 787.046 52 789.5 52H791L791 61H787.5C783.358 61 780 64.3579 780 68.5C780 72.6421 783.358 76 787.5 76H809V79H783.5C779.358 79 776 82.3579 776 86.5C776 90.6421 779.358 94 783.5 94H809.458C810.732 98.0571 814.522 101 819 101H822V106.5C822 107.102 822.082 107.684 822.235 108.237C822.083 108.629 822 109.055 822 109.5C822 111.433 823.567 113 825.5 113H828.49L828.5 113L828.51 113H871.5C873.433 113 875 111.433 875 109.5C875 107.567 873.433 106 871.5 106H869.826C869.94 105.518 870 105.016 870 104.5V101H875C880.523 101 885 96.5229 885 91V74C885 68.4771 880.523 64 875 64H872.95L866.022 52H871.5C875.642 52 879 48.6421 879 44.5C879 42.3269 878.076 40.3697 876.599 39H892.5C896.642 39 900 35.6421 900 31.5C900 27.3579 896.642 24 892.5 24H825V7.5ZM806 61V52H809V61H806ZM857 104.5C857 105.016 857.06 105.518 857.174 106H835V101H857V104.5Z" fill="white"/>
<path d="M810 24V26H812V24H810ZM785.756 38L786.756 39.7321L789.756 38L786.756 36.2679L785.756 38ZM783.499 40V42H784.499L785.099 41.2012L783.499 40ZM783.499 49L785.099 47.7988L784.499 47H783.499V49ZM791 52H793V50H791V52ZM791 61V63H793V61H791ZM809 76H811V74H809V76ZM809 79V81H811V79H809ZM809.458 94L811.366 93.4007L810.926 92H809.458V94ZM822 101H824V99H822V101ZM822.235 108.237L824.1 108.959L824.339 108.342L824.162 107.704L822.235 108.237ZM828.49 113L828.491 111H828.49V113ZM828.5 113L828.498 115H828.502L828.5 113ZM828.51 113V111H828.509L828.51 113ZM869.826 106L867.88 105.54L867.299 108H869.826V106ZM870 101V99H868V101H870ZM872.95 64L871.218 65L871.796 66H872.95V64ZM866.022 52V50H862.558L864.29 53L866.022 52ZM876.599 39V37H871.502L875.239 40.4663L876.599 39ZM825 24H823V26H825V24ZM806 52V50H804V52H806ZM806 61H804V63H806V61ZM809 52H811V50H809V52ZM809 61V63H811V61H809ZM857.174 106V108H859.701L859.12 105.54L857.174 106ZM835 106H833V108H835V106ZM835 101V99H833V101H835ZM857 101H859V99H857V101ZM817.5 2C820.538 2 823 4.46243 823 7.5H827C827 2.25329 822.747 -2 817.5 -2V2ZM812 7.5C812 4.46243 814.462 2 817.5 2V-2C812.253 -2 808 2.2533 808 7.5H812ZM812 24V7.5H808V24H812ZM789.5 26H810V22H789.5V26ZM784 31.5C784 28.4624 786.462 26 789.5 26V22C784.253 22 780 26.2533 780 31.5H784ZM786.756 36.2679C785.104 35.3145 784 33.535 784 31.5H780C780 35.0219 781.918 38.0936 784.756 39.7321L786.756 36.2679ZM785.099 41.2012C785.545 40.6063 786.11 40.1051 786.756 39.7321L784.756 36.2679C783.64 36.9118 782.669 37.7751 781.9 38.7988L785.099 41.2012ZM773.5 42H783.499V38H773.5V42ZM771 44.5C771 43.1193 772.119 42 773.5 42V38C769.91 38 767 40.9101 767 44.5H771ZM773.5 47C772.119 47 771 45.8807 771 44.5H767C767 48.0899 769.91 51 773.5 51V47ZM783.499 47H773.5V51H783.499V47ZM789.5 50C787.702 50 786.105 49.1392 785.099 47.7988L781.9 50.2012C783.63 52.5041 786.391 54 789.5 54V50ZM791 50H789.5V54H791V50ZM793 61L793 52H789L789 61H793ZM787.5 63H791V59H787.5V63ZM782 68.5C782 65.4624 784.462 63 787.5 63V59C782.253 59 778 63.2533 778 68.5H782ZM787.5 74C784.462 74 782 71.5376 782 68.5H778C778 73.7467 782.253 78 787.5 78V74ZM809 74H787.5V78H809V74ZM811 79V76H807V79H811ZM783.5 81H809V77H783.5V81ZM778 86.5C778 83.4624 780.462 81 783.5 81V77C778.253 77 774 81.2533 774 86.5H778ZM783.5 92C780.462 92 778 89.5376 778 86.5H774C774 91.7467 778.253 96 783.5 96V92ZM809.458 92H783.5V96H809.458V92ZM819 99C815.421 99 812.386 96.6482 811.366 93.4007L807.55 94.5993C809.078 99.466 813.624 103 819 103V99ZM822 99H819V103H822V99ZM824 106.5V101H820V106.5H824ZM824.162 107.704C824.057 107.323 824 106.92 824 106.5H820C820 107.284 820.107 108.045 820.307 108.771L824.162 107.704ZM824 109.5C824 109.306 824.036 109.124 824.1 108.959L820.37 107.515C820.13 108.134 820 108.804 820 109.5H824ZM825.5 111C824.672 111 824 110.328 824 109.5H820C820 112.538 822.462 115 825.5 115V111ZM828.49 111H825.5V115H828.49V111ZM828.502 111L828.491 111L828.488 115L828.498 115L828.502 111ZM828.509 111L828.498 111L828.502 115L828.512 115L828.509 111ZM871.5 111H828.51V115H871.5V111ZM873 109.5C873 110.328 872.328 111 871.5 111V115C874.538 115 877 112.538 877 109.5H873ZM871.5 108C872.328 108 873 108.672 873 109.5H877C877 106.462 874.538 104 871.5 104V108ZM869.826 108H871.5V104H869.826V108ZM868 104.5C868 104.86 867.958 105.208 867.88 105.54L871.773 106.46C871.922 105.829 872 105.172 872 104.5H868ZM868 101V104.5H872V101H868ZM875 99H870V103H875V99ZM883 91C883 95.4183 879.418 99 875 99V103C881.627 103 887 97.6274 887 91H883ZM883 74V91H887V74H883ZM875 66C879.418 66 883 69.5817 883 74H887C887 67.3726 881.627 62 875 62V66ZM872.95 66H875V62H872.95V66ZM864.29 53L871.218 65L874.683 63L867.754 51L864.29 53ZM871.5 50H866.022V54H871.5V50ZM877 44.5C877 47.5376 874.538 50 871.5 50V54C876.747 54 881 49.7467 881 44.5H877ZM875.239 40.4663C876.325 41.4735 877 42.9064 877 44.5H881C881 41.7475 879.827 39.266 877.959 37.5337L875.239 40.4663ZM892.5 37H876.599V41H892.5V37ZM898 31.5C898 34.5376 895.538 37 892.5 37V41C897.747 41 902 36.7467 902 31.5H898ZM892.5 26C895.538 26 898 28.4624 898 31.5H902C902 26.2533 897.747 22 892.5 22V26ZM825 26H892.5V22H825V26ZM823 7.5V24H827V7.5H823ZM804 52V61H808V52H804ZM809 50H806V54H809V50ZM811 61V52H807V61H811ZM806 63H809V59H806V63ZM859.12 105.54C859.042 105.208 859 104.86 859 104.5H855C855 105.172 855.078 105.829 855.227 106.46L859.12 105.54ZM835 108H857.174V104H835V108ZM833 101V106H837V101H833ZM857 99H835V103H857V99ZM859 104.5V101H855V104.5H859Z" fill="#012137" mask="url(#path-31-inside-2_2505_24580)"/>
<path d="M851.97 69.0198C851.97 75.6298 846.6 80.9998 839.99 80.9998C833.38 80.9998 828.01 75.6298 828.01 69.0198C828.01 62.4098 833.38 57.0398 839.99 57.0398C843.67 57.0398 846.96 58.7098 849.16 61.3198C846.66 61.4798 844.17 61.2398 841.78 60.6098V64.8598C843.7 65.2798 845.67 65.5098 847.66 65.5098C849.5 65.5098 851.36 65.3198 853.21 64.9498C853.85 64.7898 854.39 64.3198 854.64 63.7098C854.69 63.5898 854.72 63.4798 854.75 63.3598C855.53 59.5398 855.47 55.6898 854.65 52.0098H850.39C850.87 53.8298 851.13 55.7198 851.15 57.6298C848.27 54.7998 844.34 53.0498 839.99 53.0498C831.18 53.0498 824.01 60.2198 824.01 69.0298C824.01 77.8398 831.18 85.0098 839.99 85.0098C848.8 85.0098 855.97 77.8398 855.97 69.0298H851.97V69.0198Z" fill="#1FA4F1"/>
<path d="M876 38H787.5" stroke="#012137" stroke-width="2"/>
<path d="M842 20L842 24" stroke="#012137" stroke-width="2" stroke-linecap="round"/>
<path d="M859 20L859 24" stroke="#012137" stroke-width="2" stroke-linecap="round"/>
<path d="M876 20L876 24" stroke="#012137" stroke-width="2" stroke-linecap="round"/>
<path d="M893 20L893 24" stroke="#012137" stroke-width="2" stroke-linecap="round"/>
<path d="M810 93L810 63" stroke="#012137" stroke-width="2"/>
<path d="M805 62L792 62" stroke="#012137" stroke-width="2"/>
<path d="M805 51L792 51" stroke="#012137" stroke-width="2"/>
<path d="M872 100L823 100" stroke="#012137" stroke-width="2"/>
<g clip-path="url(#clip3_2505_24580)">
<rect y="88" width="91" height="91" rx="12" fill="white"/>
<path d="M89.9977 100.999V100.999V166.001C89.9977 172.628 84.6256 178 77.9984 178H12.9993C6.37218 178 1 172.628 1 165.998V100.999C1 94.3721 6.37207 89 12.9993 89H78.0007C84.628 89 89.9998 94.3721 89.9977 100.999Z" stroke="#012137" stroke-width="2"/>
<path d="M13.3247 97.125H77.6748C79.9954 97.125 81.8754 99.0067 81.8754 101.326V152.676C81.8754 154.997 79.9937 156.877 77.6748 156.877H13.3247C11.0041 156.877 9.12402 154.995 9.12402 152.676V101.326C9.12402 99.005 11.0058 97.125 13.3247 97.125Z" stroke="#012137" stroke-width="2"/>
<path d="M44.3268 128.743C47.4683 130.857 50.5616 132.304 53.5197 133.045C56.2805 133.737 58.8808 133.808 61.2473 133.258C64.4369 132.517 66.7346 130.72 68.4681 128.161C68.9336 127.457 68.9313 126.535 68.4635 125.831C67.661 124.618 66.7735 123.48 65.8105 122.426C65.7371 124.102 65.3014 125.237 64.8932 125.95C63.9714 127.551 62.3411 128.693 60.2979 129.167C58.5873 129.564 56.6497 129.497 54.5424 128.97C52.059 128.349 49.4105 127.099 46.6726 125.258C43.5311 123.143 40.4378 121.696 37.4797 120.956C34.7189 120.263 32.1186 120.192 29.7521 120.742C26.5625 121.483 24.2648 123.281 22.5313 125.84C22.0658 126.544 22.0681 127.466 22.5359 128.17C23.3384 129.383 24.2259 130.52 25.1889 131.575C25.2623 129.899 25.698 128.764 26.1062 128.05C27.028 126.45 28.6583 125.308 30.7014 124.833C32.4121 124.437 34.3497 124.503 36.457 125.031C38.9404 125.652 41.5889 126.902 44.3268 128.743Z" fill="#B4DBFF"/>
<path d="M48.874 121.985C52.9373 124.718 56.7782 125.936 59.406 125.326C60.3714 125.101 61.1052 124.624 61.4743 123.982C61.8183 123.384 61.9513 122.331 61.8389 121.093C61.8343 121.031 61.8275 120.971 61.8206 120.91C60.9905 121.164 59.8417 121.384 58.3649 121.384C57.7481 121.384 57.2414 121.322 56.918 121.258C55.7761 121.033 53.8499 120.387 51.1625 118.58C47.9545 116.422 44.7281 114.805 41.5431 113.76C38.5713 114.189 35.7187 115.097 33.084 116.431C34.813 116.436 36.6038 116.67 38.436 117.128C41.8389 117.981 45.3496 119.614 48.8717 121.983L48.874 121.985Z" fill="#B4DBFF"/>
<path d="M42.1251 132.015C38.0618 129.281 34.2209 128.064 31.593 128.674C30.6277 128.898 29.8939 129.375 29.5247 130.017C29.1807 130.616 29.0477 131.668 29.1601 132.907C29.1647 132.969 29.1716 133.028 29.1785 133.09C30.0085 132.836 31.1574 132.615 32.6341 132.615C33.2509 132.615 33.7577 132.677 34.081 132.742C35.223 132.966 37.1491 133.613 39.8366 135.42C43.0446 137.578 46.2732 139.194 49.4583 140.24C52.4301 139.811 55.2849 138.903 57.9219 137.568C56.1907 137.564 54.3975 137.332 52.5631 136.871C49.1602 136.018 45.6495 134.386 42.1273 132.017L42.1251 132.015Z" fill="#B4DBFF"/>
</g>
<g clip-path="url(#clip4_2505_24580)">
<rect x="461" y="28" width="123" height="80" rx="10" fill="white"/>
<path d="M379.85 46.2228C374.567 37.8888 369.283 37.8888 364 46.2228V121H681V46.2228C675.717 30.1176 670.433 30.1176 665.15 46.2228C659.867 39.1234 654.583 39.1234 649.3 46.2228C644.017 34.8202 638.733 34.8202 633.45 46.2228C628.167 40.812 622.883 40.812 617.6 46.2228C612.317 41.0662 607.033 41.0662 601.75 46.2228C596.467 36.9809 591.183 36.9809 585.9 46.2228C580.617 36.9991 575.333 36.9991 570.05 46.2228C564.767 36.0912 559.483 36.0912 554.2 46.2228C548.917 28.8466 543.633 28.8466 538.35 46.2228C533.067 29.3368 527.783 29.3368 522.5 46.2228C517.217 31.1888 511.933 31.1888 506.65 46.2228C501.367 41.0844 496.083 41.0844 490.8 46.2228C485.517 37.217 480.233 37.217 474.95 46.2228C469.667 28.5924 464.383 28.5924 459.1 46.2228C453.817 41.9922 448.533 41.9922 443.25 46.2228C437.967 41.3749 432.683 41.3749 427.4 46.2228C422.117 28.7195 416.833 28.7195 411.55 46.2228C406.267 29.119 400.983 29.119 395.7 46.2228C390.417 34.3482 385.133 34.3482 379.85 46.2228Z" fill="#FF4D80"/>
<path d="M513.136 64.726H507.732V67.834H511.96V68.8H507.732V73H506.696V63.76H513.136V64.726ZM518.382 68.464C518.382 67.9227 518.237 67.5073 517.948 67.218C517.659 66.9193 517.248 66.77 516.716 66.77C516.221 66.77 515.801 66.8773 515.456 67.092C515.111 67.3067 514.854 67.652 514.686 68.128L513.846 67.61C514.042 67.078 514.387 66.6533 514.882 66.336C515.386 66.0187 516.007 65.86 516.744 65.86C517.248 65.86 517.701 65.9487 518.102 66.126C518.513 66.294 518.835 66.5553 519.068 66.91C519.301 67.2647 519.418 67.7127 519.418 68.254V71.67C519.418 72.034 519.605 72.216 519.978 72.216C520.155 72.216 520.328 72.1927 520.496 72.146L520.44 72.958C520.263 73.0513 520.029 73.098 519.74 73.098C519.479 73.098 519.241 73.0513 519.026 72.958C518.821 72.8553 518.657 72.7013 518.536 72.496C518.415 72.2813 518.354 72.0153 518.354 71.698V71.516L518.62 71.544C518.517 71.9173 518.326 72.2207 518.046 72.454C517.775 72.6873 517.467 72.86 517.122 72.972C516.777 73.084 516.436 73.14 516.1 73.14C515.689 73.14 515.307 73.07 514.952 72.93C514.597 72.79 514.317 72.58 514.112 72.3C513.907 72.02 513.804 71.67 513.804 71.25C513.804 70.7273 513.977 70.298 514.322 69.962C514.677 69.626 515.167 69.3973 515.792 69.276L518.592 68.73V69.584L516.282 70.06C515.806 70.1533 515.451 70.2887 515.218 70.466C514.985 70.6433 514.868 70.886 514.868 71.194C514.868 71.5113 514.985 71.7633 515.218 71.95C515.461 72.1367 515.806 72.23 516.254 72.23C516.525 72.23 516.786 72.1973 517.038 72.132C517.29 72.0573 517.519 71.9453 517.724 71.796C517.929 71.6467 518.088 71.46 518.2 71.236C518.321 71.012 518.382 70.746 518.382 70.438V68.464ZM522.1 73V66H522.954L523.094 67.204C523.28 66.7653 523.565 66.434 523.948 66.21C524.33 65.9767 524.792 65.86 525.334 65.86C525.464 65.86 525.604 65.874 525.754 65.902C525.903 65.9207 526.029 65.958 526.132 66.014L525.936 66.966C525.833 66.9193 525.721 66.8867 525.6 66.868C525.478 66.84 525.306 66.826 525.082 66.826C524.774 66.826 524.47 66.9147 524.172 67.092C523.873 67.2693 523.626 67.5353 523.43 67.89C523.234 68.2353 523.136 68.6693 523.136 69.192V73H522.1ZM527.732 73V66H528.642L528.712 67.162C528.955 66.7233 529.282 66.3967 529.692 66.182C530.112 65.9673 530.551 65.86 531.008 65.86C531.531 65.86 532.012 65.9813 532.45 66.224C532.889 66.4573 533.216 66.8167 533.43 67.302C533.58 66.9753 533.79 66.7093 534.06 66.504C534.331 66.2893 534.63 66.1307 534.956 66.028C535.292 65.916 535.614 65.86 535.922 65.86C536.38 65.86 536.809 65.9533 537.21 66.14C537.612 66.3267 537.938 66.616 538.19 67.008C538.452 67.4 538.582 67.8993 538.582 68.506V73H537.546V68.604C537.546 67.96 537.383 67.4933 537.056 67.204C536.73 66.9147 536.319 66.77 535.824 66.77C535.442 66.77 535.087 66.8633 534.76 67.05C534.434 67.2273 534.172 67.4933 533.976 67.848C533.78 68.1933 533.682 68.618 533.682 69.122V73H532.646V68.618C532.646 67.9647 532.478 67.4933 532.142 67.204C531.816 66.9147 531.41 66.77 530.924 66.77C530.588 66.77 530.252 66.8587 529.916 67.036C529.59 67.204 529.314 67.47 529.09 67.834C528.876 68.1887 528.768 68.6507 528.768 69.22V73H527.732Z" fill="#012137"/>
</g>
<g clip-path="url(#clip5_2505_24580)">
<rect x="176" y="28" width="123" height="80" rx="10" fill="white"/>
<path d="M94.8502 41.4444C89.5668 35.5185 84.2835 35.5185 79.0002 41.4444L79 181.5L396 181.5L396 41.4444C390.717 35.5185 385.433 35.5185 380.15 41.4444C374.867 35.5185 369.583 35.5185 364.3 41.4444C359.017 35.5185 353.733 35.5185 348.45 41.4444C343.167 35.5185 337.883 35.5185 332.6 41.4444C327.317 35.5185 322.033 35.5185 316.75 41.4444C311.467 35.5185 306.183 35.5185 300.9 41.4444C295.617 35.5185 290.333 35.5185 285.05 41.4444C279.767 35.5185 274.483 35.5185 269.2 41.4444C263.917 35.5185 258.633 35.5185 253.35 41.4444C248.067 35.5185 242.783 35.5185 237.5 41.4444C232.217 35.5185 226.933 35.5185 221.65 41.4444C216.367 35.5185 211.084 35.5185 205.8 41.4444C200.517 35.5185 195.234 35.5185 189.95 41.4444C184.667 35.5185 179.383 35.5185 174.1 41.4444C168.817 35.5185 163.534 35.5185 158.25 41.4444C152.967 35.5185 147.684 35.5185 142.4 41.4444C137.117 35.5185 131.833 35.5185 126.55 41.4444C121.267 35.5185 115.984 35.5185 110.7 41.4444C105.417 35.5185 100.134 35.5185 94.8502 41.4444Z" fill="#00D791"/>
<path d="M228.136 64.726H222.732V67.834H226.96V68.8H222.732V73H221.696V63.76H228.136V64.726ZM233.382 68.464C233.382 67.9227 233.237 67.5073 232.948 67.218C232.659 66.9193 232.248 66.77 231.716 66.77C231.221 66.77 230.801 66.8773 230.456 67.092C230.111 67.3067 229.854 67.652 229.686 68.128L228.846 67.61C229.042 67.078 229.387 66.6533 229.882 66.336C230.386 66.0187 231.007 65.86 231.744 65.86C232.248 65.86 232.701 65.9487 233.102 66.126C233.513 66.294 233.835 66.5553 234.068 66.91C234.301 67.2647 234.418 67.7127 234.418 68.254V71.67C234.418 72.034 234.605 72.216 234.978 72.216C235.155 72.216 235.328 72.1927 235.496 72.146L235.44 72.958C235.263 73.0513 235.029 73.098 234.74 73.098C234.479 73.098 234.241 73.0513 234.026 72.958C233.821 72.8553 233.657 72.7013 233.536 72.496C233.415 72.2813 233.354 72.0153 233.354 71.698V71.516L233.62 71.544C233.517 71.9173 233.326 72.2207 233.046 72.454C232.775 72.6873 232.467 72.86 232.122 72.972C231.777 73.084 231.436 73.14 231.1 73.14C230.689 73.14 230.307 73.07 229.952 72.93C229.597 72.79 229.317 72.58 229.112 72.3C228.907 72.02 228.804 71.67 228.804 71.25C228.804 70.7273 228.977 70.298 229.322 69.962C229.677 69.626 230.167 69.3973 230.792 69.276L233.592 68.73V69.584L231.282 70.06C230.806 70.1533 230.451 70.2887 230.218 70.466C229.985 70.6433 229.868 70.886 229.868 71.194C229.868 71.5113 229.985 71.7633 230.218 71.95C230.461 72.1367 230.806 72.23 231.254 72.23C231.525 72.23 231.786 72.1973 232.038 72.132C232.29 72.0573 232.519 71.9453 232.724 71.796C232.929 71.6467 233.088 71.46 233.2 71.236C233.321 71.012 233.382 70.746 233.382 70.438V68.464ZM237.1 73V66H237.954L238.094 67.204C238.28 66.7653 238.565 66.434 238.948 66.21C239.33 65.9767 239.792 65.86 240.334 65.86C240.464 65.86 240.604 65.874 240.754 65.902C240.903 65.9207 241.029 65.958 241.132 66.014L240.936 66.966C240.833 66.9193 240.721 66.8867 240.6 66.868C240.478 66.84 240.306 66.826 240.082 66.826C239.774 66.826 239.47 66.9147 239.172 67.092C238.873 67.2693 238.626 67.5353 238.43 67.89C238.234 68.2353 238.136 68.6693 238.136 69.192V73H237.1ZM242.732 73V66H243.642L243.712 67.162C243.955 66.7233 244.282 66.3967 244.692 66.182C245.112 65.9673 245.551 65.86 246.008 65.86C246.531 65.86 247.012 65.9813 247.45 66.224C247.889 66.4573 248.216 66.8167 248.43 67.302C248.58 66.9753 248.79 66.7093 249.06 66.504C249.331 66.2893 249.63 66.1307 249.956 66.028C250.292 65.916 250.614 65.86 250.922 65.86C251.38 65.86 251.809 65.9533 252.21 66.14C252.612 66.3267 252.938 66.616 253.19 67.008C253.452 67.4 253.582 67.8993 253.582 68.506V73H252.546V68.604C252.546 67.96 252.383 67.4933 252.056 67.204C251.73 66.9147 251.319 66.77 250.824 66.77C250.442 66.77 250.087 66.8633 249.76 67.05C249.434 67.2273 249.172 67.4933 248.976 67.848C248.78 68.1933 248.682 68.618 248.682 69.122V73H247.646V68.618C247.646 67.9647 247.478 67.4933 247.142 67.204C246.816 66.9147 246.41 66.77 245.924 66.77C245.588 66.77 245.252 66.8587 244.916 67.036C244.59 67.204 244.314 67.47 244.09 67.834C243.876 68.1887 243.768 68.6507 243.768 69.22V73H242.732Z" fill="#012137"/>
</g>
<g clip-path="url(#clip6_2505_24580)">
<rect x="319" y="28" width="123" height="80" rx="10" fill="white"/>
<path d="M237.85 41.4444C232.567 35.5185 227.284 35.5185 222 41.4444L222 181.5L539 181.5L539 41.4444C533.717 35.5185 528.433 35.5185 523.15 41.4444C517.867 35.5185 512.583 35.5185 507.3 41.4444C502.017 35.5185 496.733 35.5185 491.45 41.4444C486.167 35.5185 480.883 35.5185 475.6 41.4444C470.317 35.5185 465.033 35.5185 459.75 41.4444C454.467 35.5185 449.183 35.5185 443.9 41.4444C438.617 35.5185 433.333 35.5185 428.05 41.4444C422.767 35.5185 417.483 35.5185 412.2 41.4444C406.917 35.5185 401.633 35.5185 396.35 41.4444C391.067 35.5185 385.783 35.5185 380.5 41.4444C375.217 35.5185 369.933 35.5185 364.65 41.4444C359.367 35.5185 354.084 35.5185 348.8 41.4444C343.517 35.5185 338.234 35.5185 332.95 41.4444C327.667 35.5185 322.383 35.5185 317.1 41.4444C311.817 35.5185 306.534 35.5185 301.25 41.4444C295.967 35.5185 290.684 35.5185 285.4 41.4444C280.117 35.5185 274.833 35.5185 269.55 41.4444C264.267 35.5185 258.984 35.5185 253.7 41.4444C248.417 35.5185 243.134 35.5185 237.85 41.4444Z" fill="#00D791"/>
<path d="M371.136 64.726H365.732V67.834H369.96V68.8H365.732V73H364.696V63.76H371.136V64.726ZM376.382 68.464C376.382 67.9227 376.237 67.5073 375.948 67.218C375.659 66.9193 375.248 66.77 374.716 66.77C374.221 66.77 373.801 66.8773 373.456 67.092C373.111 67.3067 372.854 67.652 372.686 68.128L371.846 67.61C372.042 67.078 372.387 66.6533 372.882 66.336C373.386 66.0187 374.007 65.86 374.744 65.86C375.248 65.86 375.701 65.9487 376.102 66.126C376.513 66.294 376.835 66.5553 377.068 66.91C377.301 67.2647 377.418 67.7127 377.418 68.254V71.67C377.418 72.034 377.605 72.216 377.978 72.216C378.155 72.216 378.328 72.1927 378.496 72.146L378.44 72.958C378.263 73.0513 378.029 73.098 377.74 73.098C377.479 73.098 377.241 73.0513 377.026 72.958C376.821 72.8553 376.657 72.7013 376.536 72.496C376.415 72.2813 376.354 72.0153 376.354 71.698V71.516L376.62 71.544C376.517 71.9173 376.326 72.2207 376.046 72.454C375.775 72.6873 375.467 72.86 375.122 72.972C374.777 73.084 374.436 73.14 374.1 73.14C373.689 73.14 373.307 73.07 372.952 72.93C372.597 72.79 372.317 72.58 372.112 72.3C371.907 72.02 371.804 71.67 371.804 71.25C371.804 70.7273 371.977 70.298 372.322 69.962C372.677 69.626 373.167 69.3973 373.792 69.276L376.592 68.73V69.584L374.282 70.06C373.806 70.1533 373.451 70.2887 373.218 70.466C372.985 70.6433 372.868 70.886 372.868 71.194C372.868 71.5113 372.985 71.7633 373.218 71.95C373.461 72.1367 373.806 72.23 374.254 72.23C374.525 72.23 374.786 72.1973 375.038 72.132C375.29 72.0573 375.519 71.9453 375.724 71.796C375.929 71.6467 376.088 71.46 376.2 71.236C376.321 71.012 376.382 70.746 376.382 70.438V68.464ZM380.1 73V66H380.954L381.094 67.204C381.28 66.7653 381.565 66.434 381.948 66.21C382.33 65.9767 382.792 65.86 383.334 65.86C383.464 65.86 383.604 65.874 383.754 65.902C383.903 65.9207 384.029 65.958 384.132 66.014L383.936 66.966C383.833 66.9193 383.721 66.8867 383.6 66.868C383.478 66.84 383.306 66.826 383.082 66.826C382.774 66.826 382.47 66.9147 382.172 67.092C381.873 67.2693 381.626 67.5353 381.43 67.89C381.234 68.2353 381.136 68.6693 381.136 69.192V73H380.1ZM385.732 73V66H386.642L386.712 67.162C386.955 66.7233 387.282 66.3967 387.692 66.182C388.112 65.9673 388.551 65.86 389.008 65.86C389.531 65.86 390.012 65.9813 390.45 66.224C390.889 66.4573 391.216 66.8167 391.43 67.302C391.58 66.9753 391.79 66.7093 392.06 66.504C392.331 66.2893 392.63 66.1307 392.956 66.028C393.292 65.916 393.614 65.86 393.922 65.86C394.38 65.86 394.809 65.9533 395.21 66.14C395.612 66.3267 395.938 66.616 396.19 67.008C396.452 67.4 396.582 67.8993 396.582 68.506V73H395.546V68.604C395.546 67.96 395.383 67.4933 395.056 67.204C394.73 66.9147 394.319 66.77 393.824 66.77C393.442 66.77 393.087 66.8633 392.76 67.05C392.434 67.2273 392.172 67.4933 391.976 67.848C391.78 68.1933 391.682 68.618 391.682 69.122V73H390.646V68.618C390.646 67.9647 390.478 67.4933 390.142 67.204C389.816 66.9147 389.41 66.77 388.924 66.77C388.588 66.77 388.252 66.8587 387.916 67.036C387.59 67.204 387.314 67.47 387.09 67.834C386.876 68.1887 386.768 68.6507 386.768 69.22V73H385.732Z" fill="#012137"/>
</g>
<g clip-path="url(#clip7_2505_24580)">
<rect x="461" y="28" width="123" height="80" rx="10" fill="white"/>
<path d="M379.85 41.4444C374.567 35.5185 369.284 35.5185 364 41.4444L364 181.5L681 181.5L681 41.4444C675.717 35.5185 670.433 35.5185 665.15 41.4444C659.867 35.5185 654.583 35.5185 649.3 41.4444C644.017 35.5185 638.733 35.5185 633.45 41.4444C628.167 35.5185 622.883 35.5185 617.6 41.4444C612.317 35.5185 607.033 35.5185 601.75 41.4444C596.467 35.5185 591.183 35.5185 585.9 41.4444C580.617 35.5185 575.333 35.5185 570.05 41.4444C564.767 35.5185 559.483 35.5185 554.2 41.4444C548.917 35.5185 543.633 35.5185 538.35 41.4444C533.067 35.5185 527.783 35.5185 522.5 41.4444C517.217 35.5185 511.933 35.5185 506.65 41.4444C501.367 35.5185 496.084 35.5185 490.8 41.4444C485.517 35.5185 480.234 35.5185 474.95 41.4444C469.667 35.5185 464.383 35.5185 459.1 41.4444C453.817 35.5185 448.534 35.5185 443.25 41.4444C437.967 35.5185 432.684 35.5185 427.4 41.4444C422.117 35.5185 416.833 35.5185 411.55 41.4444C406.267 35.5185 400.984 35.5185 395.7 41.4444C390.417 35.5185 385.134 35.5185 379.85 41.4444Z" fill="#00D791"/>
<path d="M513.136 64.726H507.732V67.834H511.96V68.8H507.732V73H506.696V63.76H513.136V64.726ZM518.382 68.464C518.382 67.9227 518.237 67.5073 517.948 67.218C517.659 66.9193 517.248 66.77 516.716 66.77C516.221 66.77 515.801 66.8773 515.456 67.092C515.111 67.3067 514.854 67.652 514.686 68.128L513.846 67.61C514.042 67.078 514.387 66.6533 514.882 66.336C515.386 66.0187 516.007 65.86 516.744 65.86C517.248 65.86 517.701 65.9487 518.102 66.126C518.513 66.294 518.835 66.5553 519.068 66.91C519.301 67.2647 519.418 67.7127 519.418 68.254V71.67C519.418 72.034 519.605 72.216 519.978 72.216C520.155 72.216 520.328 72.1927 520.496 72.146L520.44 72.958C520.263 73.0513 520.029 73.098 519.74 73.098C519.479 73.098 519.241 73.0513 519.026 72.958C518.821 72.8553 518.657 72.7013 518.536 72.496C518.415 72.2813 518.354 72.0153 518.354 71.698V71.516L518.62 71.544C518.517 71.9173 518.326 72.2207 518.046 72.454C517.775 72.6873 517.467 72.86 517.122 72.972C516.777 73.084 516.436 73.14 516.1 73.14C515.689 73.14 515.307 73.07 514.952 72.93C514.597 72.79 514.317 72.58 514.112 72.3C513.907 72.02 513.804 71.67 513.804 71.25C513.804 70.7273 513.977 70.298 514.322 69.962C514.677 69.626 515.167 69.3973 515.792 69.276L518.592 68.73V69.584L516.282 70.06C515.806 70.1533 515.451 70.2887 515.218 70.466C514.985 70.6433 514.868 70.886 514.868 71.194C514.868 71.5113 514.985 71.7633 515.218 71.95C515.461 72.1367 515.806 72.23 516.254 72.23C516.525 72.23 516.786 72.1973 517.038 72.132C517.29 72.0573 517.519 71.9453 517.724 71.796C517.929 71.6467 518.088 71.46 518.2 71.236C518.321 71.012 518.382 70.746 518.382 70.438V68.464ZM522.1 73V66H522.954L523.094 67.204C523.28 66.7653 523.565 66.434 523.948 66.21C524.33 65.9767 524.792 65.86 525.334 65.86C525.464 65.86 525.604 65.874 525.754 65.902C525.903 65.9207 526.029 65.958 526.132 66.014L525.936 66.966C525.833 66.9193 525.721 66.8867 525.6 66.868C525.478 66.84 525.306 66.826 525.082 66.826C524.774 66.826 524.47 66.9147 524.172 67.092C523.873 67.2693 523.626 67.5353 523.43 67.89C523.234 68.2353 523.136 68.6693 523.136 69.192V73H522.1ZM527.732 73V66H528.642L528.712 67.162C528.955 66.7233 529.282 66.3967 529.692 66.182C530.112 65.9673 530.551 65.86 531.008 65.86C531.531 65.86 532.012 65.9813 532.45 66.224C532.889 66.4573 533.216 66.8167 533.43 67.302C533.58 66.9753 533.79 66.7093 534.06 66.504C534.331 66.2893 534.63 66.1307 534.956 66.028C535.292 65.916 535.614 65.86 535.922 65.86C536.38 65.86 536.809 65.9533 537.21 66.14C537.612 66.3267 537.938 66.616 538.19 67.008C538.452 67.4 538.582 67.8993 538.582 68.506V73H537.546V68.604C537.546 67.96 537.383 67.4933 537.056 67.204C536.73 66.9147 536.319 66.77 535.824 66.77C535.442 66.77 535.087 66.8633 534.76 67.05C534.434 67.2273 534.172 67.4933 533.976 67.848C533.78 68.1933 533.682 68.618 533.682 69.122V73H532.646V68.618C532.646 67.9647 532.478 67.4933 532.142 67.204C531.816 66.9147 531.41 66.77 530.924 66.77C530.588 66.77 530.252 66.8587 529.916 67.036C529.59 67.204 529.314 67.47 529.09 67.834C528.876 68.1887 528.768 68.6507 528.768 69.22V73H527.732Z" fill="#012137"/>
</g>
<g clip-path="url(#clip8_2505_24580)">
<rect x="461" y="157" width="123" height="80" rx="10" fill="white"/>
<path d="M379.85 170.444C374.567 164.519 369.284 164.519 364 170.444L364 310.5L681 310.5L681 170.444C675.717 164.518 670.433 164.518 665.15 170.444C659.867 164.518 654.583 164.518 649.3 170.444C644.017 164.518 638.733 164.518 633.45 170.444C628.167 164.518 622.883 164.518 617.6 170.444C612.317 164.518 607.033 164.518 601.75 170.444C596.467 164.518 591.183 164.518 585.9 170.444C580.617 164.518 575.333 164.518 570.05 170.444C564.767 164.518 559.483 164.518 554.2 170.444C548.917 164.518 543.633 164.518 538.35 170.444C533.067 164.518 527.783 164.518 522.5 170.444C517.217 164.518 511.933 164.518 506.65 170.444C501.367 164.518 496.084 164.518 490.8 170.444C485.517 164.518 480.234 164.518 474.95 170.444C469.667 164.518 464.383 164.519 459.1 170.444C453.817 164.519 448.534 164.519 443.25 170.444C437.967 164.519 432.684 164.519 427.4 170.444C422.117 164.519 416.833 164.519 411.55 170.444C406.267 164.519 400.984 164.519 395.7 170.444C390.417 164.519 385.134 164.519 379.85 170.444Z" fill="#00D791"/>
<path d="M513.136 193.726H507.732V196.834H511.96V197.8H507.732V202H506.696V192.76H513.136V193.726ZM518.382 197.464C518.382 196.923 518.237 196.507 517.948 196.218C517.659 195.919 517.248 195.77 516.716 195.77C516.221 195.77 515.801 195.877 515.456 196.092C515.111 196.307 514.854 196.652 514.686 197.128L513.846 196.61C514.042 196.078 514.387 195.653 514.882 195.336C515.386 195.019 516.007 194.86 516.744 194.86C517.248 194.86 517.701 194.949 518.102 195.126C518.513 195.294 518.835 195.555 519.068 195.91C519.301 196.265 519.418 196.713 519.418 197.254V200.67C519.418 201.034 519.605 201.216 519.978 201.216C520.155 201.216 520.328 201.193 520.496 201.146L520.44 201.958C520.263 202.051 520.029 202.098 519.74 202.098C519.479 202.098 519.241 202.051 519.026 201.958C518.821 201.855 518.657 201.701 518.536 201.496C518.415 201.281 518.354 201.015 518.354 200.698V200.516L518.62 200.544C518.517 200.917 518.326 201.221 518.046 201.454C517.775 201.687 517.467 201.86 517.122 201.972C516.777 202.084 516.436 202.14 516.1 202.14C515.689 202.14 515.307 202.07 514.952 201.93C514.597 201.79 514.317 201.58 514.112 201.3C513.907 201.02 513.804 200.67 513.804 200.25C513.804 199.727 513.977 199.298 514.322 198.962C514.677 198.626 515.167 198.397 515.792 198.276L518.592 197.73V198.584L516.282 199.06C515.806 199.153 515.451 199.289 515.218 199.466C514.985 199.643 514.868 199.886 514.868 200.194C514.868 200.511 514.985 200.763 515.218 200.95C515.461 201.137 515.806 201.23 516.254 201.23C516.525 201.23 516.786 201.197 517.038 201.132C517.29 201.057 517.519 200.945 517.724 200.796C517.929 200.647 518.088 200.46 518.2 200.236C518.321 200.012 518.382 199.746 518.382 199.438V197.464ZM522.1 202V195H522.954L523.094 196.204C523.28 195.765 523.565 195.434 523.948 195.21C524.33 194.977 524.792 194.86 525.334 194.86C525.464 194.86 525.604 194.874 525.754 194.902C525.903 194.921 526.029 194.958 526.132 195.014L525.936 195.966C525.833 195.919 525.721 195.887 525.6 195.868C525.478 195.84 525.306 195.826 525.082 195.826C524.774 195.826 524.47 195.915 524.172 196.092C523.873 196.269 523.626 196.535 523.43 196.89C523.234 197.235 523.136 197.669 523.136 198.192V202H522.1ZM527.732 202V195H528.642L528.712 196.162C528.955 195.723 529.282 195.397 529.692 195.182C530.112 194.967 530.551 194.86 531.008 194.86C531.531 194.86 532.012 194.981 532.45 195.224C532.889 195.457 533.216 195.817 533.43 196.302C533.58 195.975 533.79 195.709 534.06 195.504C534.331 195.289 534.63 195.131 534.956 195.028C535.292 194.916 535.614 194.86 535.922 194.86C536.38 194.86 536.809 194.953 537.21 195.14C537.612 195.327 537.938 195.616 538.19 196.008C538.452 196.4 538.582 196.899 538.582 197.506V202H537.546V197.604C537.546 196.96 537.383 196.493 537.056 196.204C536.73 195.915 536.319 195.77 535.824 195.77C535.442 195.77 535.087 195.863 534.76 196.05C534.434 196.227 534.172 196.493 533.976 196.848C533.78 197.193 533.682 197.618 533.682 198.122V202H532.646V197.618C532.646 196.965 532.478 196.493 532.142 196.204C531.816 195.915 531.41 195.77 530.924 195.77C530.588 195.77 530.252 195.859 529.916 196.036C529.59 196.204 529.314 196.47 529.09 196.834C528.876 197.189 528.768 197.651 528.768 198.22V202H527.732Z" fill="#012137"/>
</g>
<defs>
<clipPath id="clip0_2505_24580">
<rect y="88" width="91" height="91" rx="12" fill="white"/>
</clipPath>
<clipPath id="clip1_2505_24580">
<rect x="624" y="156" width="122" height="91" rx="13" fill="white"/>
</clipPath>
<clipPath id="clip2_2505_24580">
<rect x="624" y="22" width="122" height="91" rx="13" fill="white"/>
</clipPath>
<clipPath id="clip3_2505_24580">
<rect y="88" width="91" height="91" rx="12" fill="white"/>
</clipPath>
<clipPath id="clip4_2505_24580">
<rect x="461" y="28" width="123" height="80" rx="10" fill="white"/>
</clipPath>
<clipPath id="clip5_2505_24580">
<rect x="176" y="28" width="123" height="80" rx="10" fill="white"/>
</clipPath>
<clipPath id="clip6_2505_24580">
<rect x="319" y="28" width="123" height="80" rx="10" fill="white"/>
</clipPath>
<clipPath id="clip7_2505_24580">
<rect x="461" y="28" width="123" height="80" rx="10" fill="white"/>
</clipPath>
<clipPath id="clip8_2505_24580">
<rect x="461" y="157" width="123" height="80" rx="10" fill="white"/>
</clipPath>
</defs>
</svg>
