<svg width="220" height="382" viewBox="0 0 220 382" fill="none" xmlns="http://www.w3.org/2000/svg">
<path d="M140 91L140 101L140 106L140 111" stroke="#B4DBFF" stroke-width="4"/>
<path d="M80 91L80 101L80 106L80 111" stroke="#B4DBFF" stroke-width="4"/>
<path d="M139.756 201L139.756 177" stroke="#1FA4F1" stroke-width="4"/>
<path d="M79.7559 201L79.7559 177" stroke="#1FA4F1" stroke-width="4"/>
<mask id="path-5-inside-1_2505_24807" fill="white">
<path fill-rule="evenodd" clip-rule="evenodd" d="M94 276.5C94 272.358 90.6421 269 86.5 269C82.3579 269 79 272.358 79 276.5V293H58.5C54.3579 293 51 296.358 51 300.5C51 303.278 52.5109 305.704 54.7558 307C53.8751 307.508 53.1073 308.191 52.4995 309H42.5C40.0147 309 38 311.015 38 313.5C38 315.985 40.0147 318 42.5 318H52.4994C53.8678 319.822 56.0463 321 58.5 321H60L60 330H56.5C52.3579 330 49 333.358 49 337.5C49 341.642 52.3579 345 56.5 345H78V348H52.5C48.3579 348 45 351.358 45 355.5C45 359.642 48.3579 363 52.5 363H78.4578C79.7321 367.057 83.5224 370 88 370H91V375.5C91 376.102 91.0817 376.684 91.2347 377.237C91.0831 377.629 91 378.055 91 378.5C91 380.433 92.567 382 94.5 382H97.4899L97.5 382L97.5101 382H140.5C142.433 382 144 380.433 144 378.5C144 376.567 142.433 375 140.5 375H138.826C138.94 374.518 139 374.016 139 373.5V370H144C149.523 370 154 365.523 154 360V343C154 337.477 149.523 333 144 333H141.95L135.022 321H140.5C144.642 321 148 317.642 148 313.5C148 311.327 147.076 309.37 145.599 308H161.5C165.642 308 169 304.642 169 300.5C169 296.358 165.642 293 161.5 293H94V276.5ZM75 330V321H78V330H75ZM126 373.5C126 374.016 126.06 374.518 126.174 375H104V370H126V373.5Z"/>
</mask>
<path fill-rule="evenodd" clip-rule="evenodd" d="M94 276.5C94 272.358 90.6421 269 86.5 269C82.3579 269 79 272.358 79 276.5V293H58.5C54.3579 293 51 296.358 51 300.5C51 303.278 52.5109 305.704 54.7558 307C53.8751 307.508 53.1073 308.191 52.4995 309H42.5C40.0147 309 38 311.015 38 313.5C38 315.985 40.0147 318 42.5 318H52.4994C53.8678 319.822 56.0463 321 58.5 321H60L60 330H56.5C52.3579 330 49 333.358 49 337.5C49 341.642 52.3579 345 56.5 345H78V348H52.5C48.3579 348 45 351.358 45 355.5C45 359.642 48.3579 363 52.5 363H78.4578C79.7321 367.057 83.5224 370 88 370H91V375.5C91 376.102 91.0817 376.684 91.2347 377.237C91.0831 377.629 91 378.055 91 378.5C91 380.433 92.567 382 94.5 382H97.4899L97.5 382L97.5101 382H140.5C142.433 382 144 380.433 144 378.5C144 376.567 142.433 375 140.5 375H138.826C138.94 374.518 139 374.016 139 373.5V370H144C149.523 370 154 365.523 154 360V343C154 337.477 149.523 333 144 333H141.95L135.022 321H140.5C144.642 321 148 317.642 148 313.5C148 311.327 147.076 309.37 145.599 308H161.5C165.642 308 169 304.642 169 300.5C169 296.358 165.642 293 161.5 293H94V276.5ZM75 330V321H78V330H75ZM126 373.5C126 374.016 126.06 374.518 126.174 375H104V370H126V373.5Z" fill="white"/>
<path d="M79 293V295H81V293H79ZM54.7558 307L55.7557 308.732L58.7562 307L55.7557 305.268L54.7558 307ZM52.4995 309V311H53.4985L54.0986 310.201L52.4995 309ZM52.4994 318L54.0986 316.799L53.4985 316H52.4994V318ZM60 321H62V319H60V321ZM60 330V332H62V330H60ZM78 345H80V343H78V345ZM78 348V350H80V348H78ZM78.4578 363L80.3659 362.401L79.926 361H78.4578V363ZM91 370H93V368H91V370ZM91.2347 377.237L93.0999 377.959L93.3388 377.342L93.1623 376.704L91.2347 377.237ZM97.4899 382L97.4914 380H97.4899V382ZM97.5 382L97.4985 384H97.5015L97.5 382ZM97.5101 382V380H97.5086L97.5101 382ZM138.826 375L136.88 374.54L136.299 377H138.826V375ZM139 370V368H137V370H139ZM141.95 333L140.218 334L140.796 335H141.95V333ZM135.022 321V319H131.558L133.29 322L135.022 321ZM145.599 308V306H140.502L144.239 309.466L145.599 308ZM94 293H92V295H94V293ZM75 321V319H73V321H75ZM75 330H73V332H75V330ZM78 321H80V319H78V321ZM78 330V332H80V330H78ZM126.174 375V377H128.701L128.12 374.54L126.174 375ZM104 375H102V377H104V375ZM104 370V368H102V370H104ZM126 370H128V368H126V370ZM86.5 271C89.5376 271 92 273.462 92 276.5H96C96 271.253 91.7467 267 86.5 267V271ZM81 276.5C81 273.462 83.4624 271 86.5 271V267C81.2533 267 77 271.253 77 276.5H81ZM81 293V276.5H77V293H81ZM58.5 295H79V291H58.5V295ZM53 300.5C53 297.462 55.4624 295 58.5 295V291C53.2533 291 49 295.253 49 300.5H53ZM55.7557 305.268C54.1042 304.315 53 302.535 53 300.5H49C49 304.022 50.9175 307.094 53.7559 308.732L55.7557 305.268ZM54.0986 310.201C54.5454 309.606 55.1097 309.105 55.7557 308.732L53.7559 305.268C52.6405 305.912 51.6693 306.775 50.9003 307.799L54.0986 310.201ZM42.5 311H52.4995V307H42.5V311ZM40 313.5C40 312.119 41.1193 311 42.5 311V307C38.9101 307 36 309.91 36 313.5H40ZM42.5 316C41.1193 316 40 314.881 40 313.5H36C36 317.09 38.9101 320 42.5 320V316ZM52.4994 316H42.5V320H52.4994V316ZM58.5 319C56.7019 319 55.1054 318.139 54.0986 316.799L50.9003 319.201C52.6301 321.504 55.3907 323 58.5 323V319ZM60 319H58.5V323H60V319ZM62 330L62 321H58L58 330H62ZM56.5 332H60V328H56.5V332ZM51 337.5C51 334.462 53.4624 332 56.5 332V328C51.2533 328 47 332.253 47 337.5H51ZM56.5 343C53.4624 343 51 340.538 51 337.5H47C47 342.747 51.2533 347 56.5 347V343ZM78 343H56.5V347H78V343ZM80 348V345H76V348H80ZM52.5 350H78V346H52.5V350ZM47 355.5C47 352.462 49.4624 350 52.5 350V346C47.2533 346 43 350.253 43 355.5H47ZM52.5 361C49.4624 361 47 358.538 47 355.5H43C43 360.747 47.2533 365 52.5 365V361ZM78.4578 361H52.5V365H78.4578V361ZM88 368C84.4209 368 81.3859 365.648 80.3659 362.401L76.5497 363.599C78.0782 368.466 82.6238 372 88 372V368ZM91 368H88V372H91V368ZM93 375.5V370H89V375.5H93ZM93.1623 376.704C93.0569 376.323 93 375.92 93 375.5H89C89 376.284 89.1066 377.045 89.3072 377.771L93.1623 376.704ZM93 378.5C93 378.306 93.036 378.124 93.0999 377.959L89.3695 376.515C89.1303 377.134 89 377.804 89 378.5H93ZM94.5 380C93.6716 380 93 379.328 93 378.5H89C89 381.538 91.4624 384 94.5 384V380ZM97.4899 380H94.5V384H97.4899V380ZM97.5015 380L97.4914 380L97.4884 384L97.4985 384L97.5015 380ZM97.5086 380L97.4985 380L97.5015 384L97.5116 384L97.5086 380ZM140.5 380H97.5101V384H140.5V380ZM142 378.5C142 379.328 141.328 380 140.5 380V384C143.538 384 146 381.538 146 378.5H142ZM140.5 377C141.328 377 142 377.672 142 378.5H146C146 375.462 143.538 373 140.5 373V377ZM138.826 377H140.5V373H138.826V377ZM137 373.5C137 373.86 136.958 374.208 136.88 374.54L140.773 375.46C140.922 374.829 141 374.172 141 373.5H137ZM137 370V373.5H141V370H137ZM144 368H139V372H144V368ZM152 360C152 364.418 148.418 368 144 368V372C150.627 372 156 366.627 156 360H152ZM152 343V360H156V343H152ZM144 335C148.418 335 152 338.582 152 343H156C156 336.373 150.627 331 144 331V335ZM141.95 335H144V331H141.95V335ZM133.29 322L140.218 334L143.683 332L136.754 320L133.29 322ZM140.5 319H135.022V323H140.5V319ZM146 313.5C146 316.538 143.538 319 140.5 319V323C145.747 323 150 318.747 150 313.5H146ZM144.239 309.466C145.325 310.473 146 311.906 146 313.5H150C150 310.748 148.827 308.266 146.959 306.534L144.239 309.466ZM161.5 306H145.599V310H161.5V306ZM167 300.5C167 303.538 164.538 306 161.5 306V310C166.747 310 171 305.747 171 300.5H167ZM161.5 295C164.538 295 167 297.462 167 300.5H171C171 295.253 166.747 291 161.5 291V295ZM94 295H161.5V291H94V295ZM92 276.5V293H96V276.5H92ZM73 321V330H77V321H73ZM78 319H75V323H78V319ZM80 330V321H76V330H80ZM75 332H78V328H75V332ZM128.12 374.54C128.042 374.208 128 373.86 128 373.5H124C124 374.172 124.078 374.829 124.227 375.46L128.12 374.54ZM104 377H126.174V373H104V377ZM102 370V375H106V370H102ZM126 368H104V372H126V368ZM128 373.5V370H124V373.5H128Z" fill="#012137" mask="url(#path-5-inside-1_2505_24807)"/>
<path d="M120.97 338.02C120.97 344.63 115.6 350 108.99 350C102.38 350 97.0098 344.63 97.0098 338.02C97.0098 331.41 102.38 326.04 108.99 326.04C112.67 326.04 115.96 327.71 118.16 330.32C115.66 330.48 113.17 330.24 110.78 329.61V333.86C112.7 334.28 114.67 334.51 116.66 334.51C118.5 334.51 120.36 334.32 122.21 333.95C122.85 333.79 123.39 333.32 123.64 332.71C123.69 332.59 123.72 332.48 123.75 332.36C124.53 328.54 124.47 324.69 123.65 321.01H119.39C119.87 322.83 120.13 324.72 120.15 326.63C117.27 323.8 113.34 322.05 108.99 322.05C100.18 322.05 93.0098 329.22 93.0098 338.03C93.0098 346.84 100.18 354.01 108.99 354.01C117.8 354.01 124.97 346.84 124.97 338.03H120.97V338.02Z" fill="#1FA4F1"/>
<path d="M145 307H56.5" stroke="#012137" stroke-width="2"/>
<path d="M111 289L111 293" stroke="#012137" stroke-width="2" stroke-linecap="round"/>
<path d="M128 289L128 293" stroke="#012137" stroke-width="2" stroke-linecap="round"/>
<path d="M145 289L145 293" stroke="#012137" stroke-width="2" stroke-linecap="round"/>
<path d="M162 289L162 293" stroke="#012137" stroke-width="2" stroke-linecap="round"/>
<path d="M79 362L79 332" stroke="#012137" stroke-width="2"/>
<path d="M74 331L61 331" stroke="#012137" stroke-width="2"/>
<path d="M74 320L61 320" stroke="#012137" stroke-width="2"/>
<path d="M141 369L92 369" stroke="#012137" stroke-width="2"/>
<mask id="path-17-inside-2_2505_24807" fill="white">
<path fill-rule="evenodd" clip-rule="evenodd" d="M94 276.5C94 272.358 90.6421 269 86.5 269C82.3579 269 79 272.358 79 276.5V293H58.5C54.3579 293 51 296.358 51 300.5C51 303.278 52.5109 305.704 54.7558 307C53.8751 307.508 53.1073 308.191 52.4995 309H42.5C40.0147 309 38 311.015 38 313.5C38 315.985 40.0147 318 42.5 318H52.4994C53.8678 319.822 56.0463 321 58.5 321H60L60 330H56.5C52.3579 330 49 333.358 49 337.5C49 341.642 52.3579 345 56.5 345H78V348H52.5C48.3579 348 45 351.358 45 355.5C45 359.642 48.3579 363 52.5 363H78.4578C79.7321 367.057 83.5224 370 88 370H91V375.5C91 376.102 91.0817 376.684 91.2347 377.237C91.0831 377.629 91 378.055 91 378.5C91 380.433 92.567 382 94.5 382H97.4899L97.5 382L97.5101 382H140.5C142.433 382 144 380.433 144 378.5C144 376.567 142.433 375 140.5 375H138.826C138.94 374.518 139 374.016 139 373.5V370H144C149.523 370 154 365.523 154 360V343C154 337.477 149.523 333 144 333H141.95L135.022 321H140.5C144.642 321 148 317.642 148 313.5C148 311.327 147.076 309.37 145.599 308H161.5C165.642 308 169 304.642 169 300.5C169 296.358 165.642 293 161.5 293H94V276.5ZM75 330V321H78V330H75ZM126 373.5C126 374.016 126.06 374.518 126.174 375H104V370H126V373.5Z"/>
</mask>
<path fill-rule="evenodd" clip-rule="evenodd" d="M94 276.5C94 272.358 90.6421 269 86.5 269C82.3579 269 79 272.358 79 276.5V293H58.5C54.3579 293 51 296.358 51 300.5C51 303.278 52.5109 305.704 54.7558 307C53.8751 307.508 53.1073 308.191 52.4995 309H42.5C40.0147 309 38 311.015 38 313.5C38 315.985 40.0147 318 42.5 318H52.4994C53.8678 319.822 56.0463 321 58.5 321H60L60 330H56.5C52.3579 330 49 333.358 49 337.5C49 341.642 52.3579 345 56.5 345H78V348H52.5C48.3579 348 45 351.358 45 355.5C45 359.642 48.3579 363 52.5 363H78.4578C79.7321 367.057 83.5224 370 88 370H91V375.5C91 376.102 91.0817 376.684 91.2347 377.237C91.0831 377.629 91 378.055 91 378.5C91 380.433 92.567 382 94.5 382H97.4899L97.5 382L97.5101 382H140.5C142.433 382 144 380.433 144 378.5C144 376.567 142.433 375 140.5 375H138.826C138.94 374.518 139 374.016 139 373.5V370H144C149.523 370 154 365.523 154 360V343C154 337.477 149.523 333 144 333H141.95L135.022 321H140.5C144.642 321 148 317.642 148 313.5C148 311.327 147.076 309.37 145.599 308H161.5C165.642 308 169 304.642 169 300.5C169 296.358 165.642 293 161.5 293H94V276.5ZM75 330V321H78V330H75ZM126 373.5C126 374.016 126.06 374.518 126.174 375H104V370H126V373.5Z" fill="white"/>
<path d="M79 293V295H81V293H79ZM54.7558 307L55.7557 308.732L58.7562 307L55.7557 305.268L54.7558 307ZM52.4995 309V311H53.4985L54.0986 310.201L52.4995 309ZM52.4994 318L54.0986 316.799L53.4985 316H52.4994V318ZM60 321H62V319H60V321ZM60 330V332H62V330H60ZM78 345H80V343H78V345ZM78 348V350H80V348H78ZM78.4578 363L80.3659 362.401L79.926 361H78.4578V363ZM91 370H93V368H91V370ZM91.2347 377.237L93.0999 377.959L93.3388 377.342L93.1623 376.704L91.2347 377.237ZM97.4899 382L97.4914 380H97.4899V382ZM97.5 382L97.4985 384H97.5015L97.5 382ZM97.5101 382V380H97.5086L97.5101 382ZM138.826 375L136.88 374.54L136.299 377H138.826V375ZM139 370V368H137V370H139ZM141.95 333L140.218 334L140.796 335H141.95V333ZM135.022 321V319H131.558L133.29 322L135.022 321ZM145.599 308V306H140.502L144.239 309.466L145.599 308ZM94 293H92V295H94V293ZM75 321V319H73V321H75ZM75 330H73V332H75V330ZM78 321H80V319H78V321ZM78 330V332H80V330H78ZM126.174 375V377H128.701L128.12 374.54L126.174 375ZM104 375H102V377H104V375ZM104 370V368H102V370H104ZM126 370H128V368H126V370ZM86.5 271C89.5376 271 92 273.462 92 276.5H96C96 271.253 91.7467 267 86.5 267V271ZM81 276.5C81 273.462 83.4624 271 86.5 271V267C81.2533 267 77 271.253 77 276.5H81ZM81 293V276.5H77V293H81ZM58.5 295H79V291H58.5V295ZM53 300.5C53 297.462 55.4624 295 58.5 295V291C53.2533 291 49 295.253 49 300.5H53ZM55.7557 305.268C54.1042 304.315 53 302.535 53 300.5H49C49 304.022 50.9175 307.094 53.7559 308.732L55.7557 305.268ZM54.0986 310.201C54.5454 309.606 55.1097 309.105 55.7557 308.732L53.7559 305.268C52.6405 305.912 51.6693 306.775 50.9003 307.799L54.0986 310.201ZM42.5 311H52.4995V307H42.5V311ZM40 313.5C40 312.119 41.1193 311 42.5 311V307C38.9101 307 36 309.91 36 313.5H40ZM42.5 316C41.1193 316 40 314.881 40 313.5H36C36 317.09 38.9101 320 42.5 320V316ZM52.4994 316H42.5V320H52.4994V316ZM58.5 319C56.7019 319 55.1054 318.139 54.0986 316.799L50.9003 319.201C52.6301 321.504 55.3907 323 58.5 323V319ZM60 319H58.5V323H60V319ZM62 330L62 321H58L58 330H62ZM56.5 332H60V328H56.5V332ZM51 337.5C51 334.462 53.4624 332 56.5 332V328C51.2533 328 47 332.253 47 337.5H51ZM56.5 343C53.4624 343 51 340.538 51 337.5H47C47 342.747 51.2533 347 56.5 347V343ZM78 343H56.5V347H78V343ZM80 348V345H76V348H80ZM52.5 350H78V346H52.5V350ZM47 355.5C47 352.462 49.4624 350 52.5 350V346C47.2533 346 43 350.253 43 355.5H47ZM52.5 361C49.4624 361 47 358.538 47 355.5H43C43 360.747 47.2533 365 52.5 365V361ZM78.4578 361H52.5V365H78.4578V361ZM88 368C84.4209 368 81.3859 365.648 80.3659 362.401L76.5497 363.599C78.0782 368.466 82.6238 372 88 372V368ZM91 368H88V372H91V368ZM93 375.5V370H89V375.5H93ZM93.1623 376.704C93.0569 376.323 93 375.92 93 375.5H89C89 376.284 89.1066 377.045 89.3072 377.771L93.1623 376.704ZM93 378.5C93 378.306 93.036 378.124 93.0999 377.959L89.3695 376.515C89.1303 377.134 89 377.804 89 378.5H93ZM94.5 380C93.6716 380 93 379.328 93 378.5H89C89 381.538 91.4624 384 94.5 384V380ZM97.4899 380H94.5V384H97.4899V380ZM97.5015 380L97.4914 380L97.4884 384L97.4985 384L97.5015 380ZM97.5086 380L97.4985 380L97.5015 384L97.5116 384L97.5086 380ZM140.5 380H97.5101V384H140.5V380ZM142 378.5C142 379.328 141.328 380 140.5 380V384C143.538 384 146 381.538 146 378.5H142ZM140.5 377C141.328 377 142 377.672 142 378.5H146C146 375.462 143.538 373 140.5 373V377ZM138.826 377H140.5V373H138.826V377ZM137 373.5C137 373.86 136.958 374.208 136.88 374.54L140.773 375.46C140.922 374.829 141 374.172 141 373.5H137ZM137 370V373.5H141V370H137ZM144 368H139V372H144V368ZM152 360C152 364.418 148.418 368 144 368V372C150.627 372 156 366.627 156 360H152ZM152 343V360H156V343H152ZM144 335C148.418 335 152 338.582 152 343H156C156 336.373 150.627 331 144 331V335ZM141.95 335H144V331H141.95V335ZM133.29 322L140.218 334L143.683 332L136.754 320L133.29 322ZM140.5 319H135.022V323H140.5V319ZM146 313.5C146 316.538 143.538 319 140.5 319V323C145.747 323 150 318.747 150 313.5H146ZM144.239 309.466C145.325 310.473 146 311.906 146 313.5H150C150 310.748 148.827 308.266 146.959 306.534L144.239 309.466ZM161.5 306H145.599V310H161.5V306ZM167 300.5C167 303.538 164.538 306 161.5 306V310C166.747 310 171 305.747 171 300.5H167ZM161.5 295C164.538 295 167 297.462 167 300.5H171C171 295.253 166.747 291 161.5 291V295ZM94 295H161.5V291H94V295ZM92 276.5V293H96V276.5H92ZM73 321V330H77V321H73ZM78 319H75V323H78V319ZM80 330V321H76V330H80ZM75 332H78V328H75V332ZM128.12 374.54C128.042 374.208 128 373.86 128 373.5H124C124 374.172 124.078 374.829 124.227 375.46L128.12 374.54ZM104 377H126.174V373H104V377ZM102 370V375H106V370H102ZM126 368H104V372H126V368ZM128 373.5V370H124V373.5H128Z" fill="#012137" mask="url(#path-17-inside-2_2505_24807)"/>
<path d="M120.97 338.02C120.97 344.63 115.6 350 108.99 350C102.38 350 97.0098 344.63 97.0098 338.02C97.0098 331.41 102.38 326.04 108.99 326.04C112.67 326.04 115.96 327.71 118.16 330.32C115.66 330.48 113.17 330.24 110.78 329.61V333.86C112.7 334.28 114.67 334.51 116.66 334.51C118.5 334.51 120.36 334.32 122.21 333.95C122.85 333.79 123.39 333.32 123.64 332.71C123.69 332.59 123.72 332.48 123.75 332.36C124.53 328.54 124.47 324.69 123.65 321.01H119.39C119.87 322.83 120.13 324.72 120.15 326.63C117.27 323.8 113.34 322.05 108.99 322.05C100.18 322.05 93.0098 329.22 93.0098 338.03C93.0098 346.84 100.18 354.01 108.99 354.01C117.8 354.01 124.97 346.84 124.97 338.03H120.97V338.02Z" fill="#1FA4F1"/>
<path d="M145 307H56.5" stroke="#012137" stroke-width="2"/>
<path d="M111 289L111 293" stroke="#012137" stroke-width="2" stroke-linecap="round"/>
<path d="M128 289L128 293" stroke="#012137" stroke-width="2" stroke-linecap="round"/>
<path d="M145 289L145 293" stroke="#012137" stroke-width="2" stroke-linecap="round"/>
<path d="M162 289L162 293" stroke="#012137" stroke-width="2" stroke-linecap="round"/>
<path d="M79 362L79 332" stroke="#012137" stroke-width="2"/>
<path d="M74 331L61 331" stroke="#012137" stroke-width="2"/>
<path d="M74 320L61 320" stroke="#012137" stroke-width="2"/>
<path d="M141 369L92 369" stroke="#012137" stroke-width="2"/>
<g clip-path="url(#clip0_2505_24807)">
<rect x="65.7559" width="91" height="91" rx="12" fill="white"/>
<path d="M155.754 12.999V12.9993V78.0007C155.754 84.6279 150.381 90 143.754 90H78.7552C72.128 90 66.7559 84.628 66.7559 77.9984V12.9993C66.7559 6.37207 72.1279 1 78.7552 1H143.757C150.384 1 155.756 6.37206 155.754 12.999Z" stroke="#012137" stroke-width="2"/>
<path d="M79.0805 9.125H143.431C145.751 9.125 147.631 11.0067 147.631 13.3257V64.6764C147.631 66.997 145.75 68.8771 143.431 68.8771H79.0805C76.7599 68.8771 74.8799 66.9953 74.8799 64.6764V13.3257C74.8799 11.005 76.7616 9.125 79.0805 9.125Z" stroke="#012137" stroke-width="2"/>
<path d="M110.083 40.743C113.224 42.8572 116.317 44.3041 119.276 45.0447C122.036 45.7372 124.637 45.8083 127.003 45.258C130.193 44.5173 132.49 42.7196 134.224 40.1605C134.689 39.4566 134.687 38.5348 134.219 37.8308C133.417 36.6178 132.529 35.4804 131.566 34.4256C131.493 36.1018 131.057 37.2369 130.649 37.95C129.727 39.5506 128.097 40.6925 126.054 41.1672C124.343 41.5639 122.406 41.4974 120.298 40.97C117.815 40.3486 115.166 39.0988 112.428 37.2575C109.287 35.1433 106.194 33.6964 103.236 32.9557C100.475 32.2632 97.8744 32.1922 95.508 32.7425C92.3183 33.4831 90.0207 35.2809 88.2871 37.84C87.8217 38.5439 87.8239 39.4657 88.2917 40.1697C89.0943 41.3827 89.9817 42.5201 90.9448 43.5749C91.0182 41.8987 91.4539 40.7636 91.862 40.0505C92.7838 38.4499 94.4142 37.308 96.4573 36.8333C98.1679 36.4366 100.106 36.5031 102.213 37.0305C104.696 37.6519 107.345 38.9016 110.083 40.743Z" fill="#B4DBFF"/>
<path d="M114.63 33.985C118.693 36.7183 122.534 37.9359 125.162 37.326C126.127 37.1012 126.861 36.6243 127.23 35.9822C127.574 35.3837 127.707 34.3312 127.595 33.093C127.59 33.0311 127.583 32.9714 127.576 32.9095C126.746 33.1641 125.598 33.3842 124.121 33.3842C123.504 33.3842 122.997 33.3223 122.674 33.2581C121.532 33.0333 119.606 32.3867 116.918 30.5798C113.71 28.422 110.484 26.8054 107.299 25.7598C104.327 26.1886 101.475 27.0966 98.8398 28.4312C100.569 28.4358 102.36 28.6697 104.192 29.1283C107.595 29.9813 111.105 31.6139 114.628 33.9827L114.63 33.985Z" fill="#B4DBFF"/>
<path d="M107.881 44.0147C103.818 41.2814 99.9767 40.0637 97.3489 40.6737C96.3835 40.8984 95.6497 41.3754 95.2806 42.0174C94.9366 42.6159 94.8036 43.6684 94.916 44.9067C94.9206 44.9686 94.9274 45.0282 94.9343 45.0901C95.7644 44.8356 96.9132 44.6155 98.39 44.6155C99.0068 44.6155 99.5135 44.6774 99.8369 44.7416C100.979 44.9663 102.905 45.6129 105.592 47.4199C108.8 49.5776 112.029 51.1942 115.214 52.2399C118.186 51.8111 121.041 50.903 123.678 49.5685C121.947 49.5639 120.153 49.3323 118.319 48.8714C114.916 48.0184 111.405 46.3857 107.883 44.017L107.881 44.0147Z" fill="#B4DBFF"/>
</g>
<g clip-path="url(#clip1_2505_24807)">
<rect x="65.7559" width="91" height="91" rx="12" fill="white"/>
<path d="M155.754 12.999V12.9993V78.0007C155.754 84.6279 150.381 90 143.754 90H78.7552C72.128 90 66.7559 84.628 66.7559 77.9984V12.9993C66.7559 6.37207 72.1279 1 78.7552 1H143.757C150.384 1 155.756 6.37206 155.754 12.999Z" stroke="#012137" stroke-width="2"/>
<path d="M79.0805 9.125H143.431C145.751 9.125 147.631 11.0067 147.631 13.3257V64.6764C147.631 66.997 145.75 68.8771 143.431 68.8771H79.0805C76.7599 68.8771 74.8799 66.9953 74.8799 64.6764V13.3257C74.8799 11.005 76.7616 9.125 79.0805 9.125Z" stroke="#012137" stroke-width="2"/>
<path d="M110.083 40.743C113.224 42.8572 116.317 44.3041 119.276 45.0447C122.036 45.7372 124.637 45.8083 127.003 45.258C130.193 44.5173 132.49 42.7196 134.224 40.1605C134.689 39.4566 134.687 38.5348 134.219 37.8308C133.417 36.6178 132.529 35.4804 131.566 34.4256C131.493 36.1018 131.057 37.2369 130.649 37.95C129.727 39.5506 128.097 40.6925 126.054 41.1672C124.343 41.5639 122.406 41.4974 120.298 40.97C117.815 40.3486 115.166 39.0988 112.428 37.2575C109.287 35.1433 106.194 33.6964 103.236 32.9557C100.475 32.2632 97.8744 32.1922 95.508 32.7425C92.3183 33.4831 90.0207 35.2809 88.2871 37.84C87.8217 38.5439 87.8239 39.4657 88.2917 40.1697C89.0943 41.3827 89.9817 42.5201 90.9448 43.5749C91.0182 41.8987 91.4539 40.7636 91.862 40.0505C92.7838 38.4499 94.4142 37.308 96.4573 36.8333C98.1679 36.4366 100.106 36.5031 102.213 37.0305C104.696 37.6519 107.345 38.9016 110.083 40.743Z" fill="#B4DBFF"/>
<path d="M114.63 33.985C118.693 36.7183 122.534 37.9359 125.162 37.326C126.127 37.1012 126.861 36.6243 127.23 35.9822C127.574 35.3837 127.707 34.3312 127.595 33.093C127.59 33.0311 127.583 32.9714 127.576 32.9095C126.746 33.1641 125.598 33.3842 124.121 33.3842C123.504 33.3842 122.997 33.3223 122.674 33.2581C121.532 33.0333 119.606 32.3867 116.918 30.5798C113.71 28.422 110.484 26.8054 107.299 25.7598C104.327 26.1886 101.475 27.0966 98.8398 28.4312C100.569 28.4358 102.36 28.6697 104.192 29.1283C107.595 29.9813 111.105 31.6139 114.628 33.9827L114.63 33.985Z" fill="#B4DBFF"/>
<path d="M107.881 44.0147C103.818 41.2814 99.9767 40.0637 97.3489 40.6737C96.3835 40.8984 95.6497 41.3754 95.2806 42.0174C94.9366 42.6159 94.8036 43.6684 94.916 44.9067C94.9206 44.9686 94.9274 45.0282 94.9343 45.0901C95.7644 44.8356 96.9132 44.6155 98.39 44.6155C99.0068 44.6155 99.5135 44.6774 99.8369 44.7416C100.979 44.9663 102.905 45.6129 105.592 47.4199C108.8 49.5776 112.029 51.1942 115.214 52.2399C118.186 51.8111 121.041 50.903 123.678 49.5685C121.947 49.5639 120.153 49.3323 118.319 48.8714C114.916 48.0184 111.405 46.3857 107.883 44.017L107.881 44.0147Z" fill="#B4DBFF"/>
</g>
<g clip-path="url(#clip2_2505_24807)">
<rect x="49.7559" y="191" width="122" height="91" rx="13" fill="white"/>
<path d="M63.3808 192H158.684C165.355 192 170.756 197.379 170.756 204V268.45C170.756 275.377 165.11 281 158.131 281H63.3808C56.4022 281 50.7559 275.377 50.7559 268.45V204.55C50.7559 197.623 56.4022 192 63.3808 192Z" stroke="#012137" stroke-width="2"/>
<path d="M67.6199 207.012H153.891C154.787 207.012 155.505 207.732 155.505 208.61V264.078C155.505 264.955 154.788 265.676 153.891 265.676H67.6199C66.7244 265.676 66.0068 264.956 66.0068 264.078V208.61C66.0068 207.733 66.7229 207.012 67.6199 207.012Z" stroke="#012137" stroke-width="2"/>
<path d="M111.883 218.873C111.883 218.873 111.852 218.855 111.843 218.843C111.182 218.43 110.324 218.43 109.663 218.843C109.654 218.843 109.632 218.861 109.623 218.873C108.716 219.473 107.858 220.109 107.041 220.796C108.353 221.432 109.595 222.188 110.748 223.053C116.448 227.309 119.817 233.955 119.817 241.094C119.817 246.066 115.765 250.105 110.757 250.105C105.749 250.105 101.698 246.075 101.698 241.094H101.679C101.679 236.994 102.774 233.151 104.695 229.849C108.344 232.28 110.739 236.407 110.739 241.094C110.739 242.574 110.601 243.938 110.364 245.182H110.748C113.017 245.182 114.858 243.348 114.858 241.094C114.858 233.533 110.078 227.092 103.364 224.581C99.6779 229.22 97.5967 235.004 97.5967 241.082H97.6151C97.6151 248.298 103.502 254.153 110.757 254.153C118.013 254.153 123.9 248.298 123.9 241.082C123.9 232.121 119.405 223.814 111.883 218.864V218.873Z" fill="#1FA4F1"/>
</g>
<g clip-path="url(#clip3_2505_24807)">
<rect x="49.7559" y="191" width="122" height="91" rx="13" fill="white"/>
<path d="M63.3808 192H158.684C165.355 192 170.756 197.379 170.756 204V268.45C170.756 275.377 165.11 281 158.131 281H63.3808C56.4022 281 50.7559 275.377 50.7559 268.45V204.55C50.7559 197.623 56.4022 192 63.3808 192Z" stroke="#012137" stroke-width="2"/>
<path d="M67.6199 207.012H153.891C154.787 207.012 155.505 207.732 155.505 208.61V264.078C155.505 264.955 154.788 265.676 153.891 265.676H67.6199C66.7244 265.676 66.0068 264.956 66.0068 264.078V208.61C66.0068 207.733 66.7229 207.012 67.6199 207.012Z" stroke="#012137" stroke-width="2"/>
<path d="M111.883 218.873C111.883 218.873 111.852 218.855 111.843 218.843C111.182 218.43 110.324 218.43 109.663 218.843C109.654 218.843 109.632 218.861 109.623 218.873C108.716 219.473 107.858 220.109 107.041 220.796C108.353 221.432 109.595 222.188 110.748 223.053C116.448 227.309 119.817 233.955 119.817 241.094C119.817 246.066 115.765 250.105 110.757 250.105C105.749 250.105 101.698 246.075 101.698 241.094H101.679C101.679 236.994 102.774 233.151 104.695 229.849C108.344 232.28 110.739 236.407 110.739 241.094C110.739 242.574 110.601 243.938 110.364 245.182H110.748C113.017 245.182 114.858 243.348 114.858 241.094C114.858 233.533 110.078 227.092 103.364 224.581C99.6779 229.22 97.5967 235.004 97.5967 241.082H97.6151C97.6151 248.298 103.502 254.153 110.757 254.153C118.013 254.153 123.9 248.298 123.9 241.082C123.9 232.121 119.405 223.814 111.883 218.864V218.873Z" fill="#1FA4F1"/>
</g>
<g clip-path="url(#clip4_2505_24807)">
<rect x="120" y="101" width="100" height="80" rx="10" fill="white"/>
<path d="M38.8502 114.444C33.5668 108.519 28.2835 108.519 23.0002 114.444L23 254.5L340 254.5L340 114.444C334.717 108.518 329.433 108.518 324.15 114.444C318.867 108.518 313.583 108.518 308.3 114.444C303.017 108.518 297.733 108.518 292.45 114.444C287.167 108.518 281.883 108.518 276.6 114.444C271.317 108.518 266.033 108.518 260.75 114.444C255.467 108.518 250.183 108.518 244.9 114.444C239.617 108.518 234.333 108.518 229.05 114.444C223.767 108.518 218.483 108.518 213.2 114.444C207.917 108.518 202.633 108.518 197.35 114.444C192.067 108.518 186.783 108.518 181.5 114.444C176.217 108.518 170.933 108.518 165.65 114.444C160.367 108.518 155.084 108.518 149.8 114.444C144.517 108.518 139.234 108.518 133.95 114.444C128.667 108.518 123.383 108.519 118.1 114.444C112.817 108.519 107.534 108.519 102.25 114.444C96.9668 108.519 91.6835 108.519 86.4002 114.444C81.1168 108.519 75.8335 108.519 70.5502 114.444C65.2668 108.519 59.9835 108.519 54.7002 114.444C49.4168 108.519 44.1335 108.519 38.8502 114.444Z" fill="#00D791"/>
<path d="M160.636 137.726H155.232V140.834H159.46V141.8H155.232V146H154.196V136.76H160.636V137.726ZM165.882 141.464C165.882 140.923 165.737 140.507 165.448 140.218C165.159 139.919 164.748 139.77 164.216 139.77C163.721 139.77 163.301 139.877 162.956 140.092C162.611 140.307 162.354 140.652 162.186 141.128L161.346 140.61C161.542 140.078 161.887 139.653 162.382 139.336C162.886 139.019 163.507 138.86 164.244 138.86C164.748 138.86 165.201 138.949 165.602 139.126C166.013 139.294 166.335 139.555 166.568 139.91C166.801 140.265 166.918 140.713 166.918 141.254V144.67C166.918 145.034 167.105 145.216 167.478 145.216C167.655 145.216 167.828 145.193 167.996 145.146L167.94 145.958C167.763 146.051 167.529 146.098 167.24 146.098C166.979 146.098 166.741 146.051 166.526 145.958C166.321 145.855 166.157 145.701 166.036 145.496C165.915 145.281 165.854 145.015 165.854 144.698V144.516L166.12 144.544C166.017 144.917 165.826 145.221 165.546 145.454C165.275 145.687 164.967 145.86 164.622 145.972C164.277 146.084 163.936 146.14 163.6 146.14C163.189 146.14 162.807 146.07 162.452 145.93C162.097 145.79 161.817 145.58 161.612 145.3C161.407 145.02 161.304 144.67 161.304 144.25C161.304 143.727 161.477 143.298 161.822 142.962C162.177 142.626 162.667 142.397 163.292 142.276L166.092 141.73V142.584L163.782 143.06C163.306 143.153 162.951 143.289 162.718 143.466C162.485 143.643 162.368 143.886 162.368 144.194C162.368 144.511 162.485 144.763 162.718 144.95C162.961 145.137 163.306 145.23 163.754 145.23C164.025 145.23 164.286 145.197 164.538 145.132C164.79 145.057 165.019 144.945 165.224 144.796C165.429 144.647 165.588 144.46 165.7 144.236C165.821 144.012 165.882 143.746 165.882 143.438V141.464ZM169.6 146V139H170.454L170.594 140.204C170.78 139.765 171.065 139.434 171.448 139.21C171.83 138.977 172.292 138.86 172.834 138.86C172.964 138.86 173.104 138.874 173.254 138.902C173.403 138.921 173.529 138.958 173.632 139.014L173.436 139.966C173.333 139.919 173.221 139.887 173.1 139.868C172.978 139.84 172.806 139.826 172.582 139.826C172.274 139.826 171.97 139.915 171.672 140.092C171.373 140.269 171.126 140.535 170.93 140.89C170.734 141.235 170.636 141.669 170.636 142.192V146H169.6ZM175.232 146V139H176.142L176.212 140.162C176.455 139.723 176.782 139.397 177.192 139.182C177.612 138.967 178.051 138.86 178.508 138.86C179.031 138.86 179.512 138.981 179.95 139.224C180.389 139.457 180.716 139.817 180.93 140.302C181.08 139.975 181.29 139.709 181.56 139.504C181.831 139.289 182.13 139.131 182.456 139.028C182.792 138.916 183.114 138.86 183.422 138.86C183.88 138.86 184.309 138.953 184.71 139.14C185.112 139.327 185.438 139.616 185.69 140.008C185.952 140.4 186.082 140.899 186.082 141.506V146H185.046V141.604C185.046 140.96 184.883 140.493 184.556 140.204C184.23 139.915 183.819 139.77 183.324 139.77C182.942 139.77 182.587 139.863 182.26 140.05C181.934 140.227 181.672 140.493 181.476 140.848C181.28 141.193 181.182 141.618 181.182 142.122V146H180.146V141.618C180.146 140.965 179.978 140.493 179.642 140.204C179.316 139.915 178.91 139.77 178.424 139.77C178.088 139.77 177.752 139.859 177.416 140.036C177.09 140.204 176.814 140.47 176.59 140.834C176.376 141.189 176.268 141.651 176.268 142.22V146H175.232Z" fill="#012137"/>
</g>
<g clip-path="url(#clip5_2505_24807)">
<rect x="120" y="101" width="100" height="80" rx="10" fill="white"/>
<path d="M38.8502 114.444C33.5668 108.519 28.2835 108.519 23.0002 114.444L23 254.5L340 254.5L340 114.444C334.717 108.518 329.433 108.518 324.15 114.444C318.867 108.518 313.583 108.518 308.3 114.444C303.017 108.518 297.733 108.518 292.45 114.444C287.167 108.518 281.883 108.518 276.6 114.444C271.317 108.518 266.033 108.518 260.75 114.444C255.467 108.518 250.183 108.518 244.9 114.444C239.617 108.518 234.333 108.518 229.05 114.444C223.767 108.518 218.483 108.518 213.2 114.444C207.917 108.518 202.633 108.518 197.35 114.444C192.067 108.518 186.783 108.518 181.5 114.444C176.217 108.518 170.933 108.518 165.65 114.444C160.367 108.518 155.084 108.518 149.8 114.444C144.517 108.518 139.234 108.518 133.95 114.444C128.667 108.518 123.383 108.519 118.1 114.444C112.817 108.519 107.534 108.519 102.25 114.444C96.9668 108.519 91.6835 108.519 86.4002 114.444C81.1168 108.519 75.8335 108.519 70.5502 114.444C65.2668 108.519 59.9835 108.519 54.7002 114.444C49.4168 108.519 44.1335 108.519 38.8502 114.444Z" fill="#00D791"/>
<path d="M160.636 137.726H155.232V140.834H159.46V141.8H155.232V146H154.196V136.76H160.636V137.726ZM165.882 141.464C165.882 140.923 165.737 140.507 165.448 140.218C165.159 139.919 164.748 139.77 164.216 139.77C163.721 139.77 163.301 139.877 162.956 140.092C162.611 140.307 162.354 140.652 162.186 141.128L161.346 140.61C161.542 140.078 161.887 139.653 162.382 139.336C162.886 139.019 163.507 138.86 164.244 138.86C164.748 138.86 165.201 138.949 165.602 139.126C166.013 139.294 166.335 139.555 166.568 139.91C166.801 140.265 166.918 140.713 166.918 141.254V144.67C166.918 145.034 167.105 145.216 167.478 145.216C167.655 145.216 167.828 145.193 167.996 145.146L167.94 145.958C167.763 146.051 167.529 146.098 167.24 146.098C166.979 146.098 166.741 146.051 166.526 145.958C166.321 145.855 166.157 145.701 166.036 145.496C165.915 145.281 165.854 145.015 165.854 144.698V144.516L166.12 144.544C166.017 144.917 165.826 145.221 165.546 145.454C165.275 145.687 164.967 145.86 164.622 145.972C164.277 146.084 163.936 146.14 163.6 146.14C163.189 146.14 162.807 146.07 162.452 145.93C162.097 145.79 161.817 145.58 161.612 145.3C161.407 145.02 161.304 144.67 161.304 144.25C161.304 143.727 161.477 143.298 161.822 142.962C162.177 142.626 162.667 142.397 163.292 142.276L166.092 141.73V142.584L163.782 143.06C163.306 143.153 162.951 143.289 162.718 143.466C162.485 143.643 162.368 143.886 162.368 144.194C162.368 144.511 162.485 144.763 162.718 144.95C162.961 145.137 163.306 145.23 163.754 145.23C164.025 145.23 164.286 145.197 164.538 145.132C164.79 145.057 165.019 144.945 165.224 144.796C165.429 144.647 165.588 144.46 165.7 144.236C165.821 144.012 165.882 143.746 165.882 143.438V141.464ZM169.6 146V139H170.454L170.594 140.204C170.78 139.765 171.065 139.434 171.448 139.21C171.83 138.977 172.292 138.86 172.834 138.86C172.964 138.86 173.104 138.874 173.254 138.902C173.403 138.921 173.529 138.958 173.632 139.014L173.436 139.966C173.333 139.919 173.221 139.887 173.1 139.868C172.978 139.84 172.806 139.826 172.582 139.826C172.274 139.826 171.97 139.915 171.672 140.092C171.373 140.269 171.126 140.535 170.93 140.89C170.734 141.235 170.636 141.669 170.636 142.192V146H169.6ZM175.232 146V139H176.142L176.212 140.162C176.455 139.723 176.782 139.397 177.192 139.182C177.612 138.967 178.051 138.86 178.508 138.86C179.031 138.86 179.512 138.981 179.95 139.224C180.389 139.457 180.716 139.817 180.93 140.302C181.08 139.975 181.29 139.709 181.56 139.504C181.831 139.289 182.13 139.131 182.456 139.028C182.792 138.916 183.114 138.86 183.422 138.86C183.88 138.86 184.309 138.953 184.71 139.14C185.112 139.327 185.438 139.616 185.69 140.008C185.952 140.4 186.082 140.899 186.082 141.506V146H185.046V141.604C185.046 140.96 184.883 140.493 184.556 140.204C184.23 139.915 183.819 139.77 183.324 139.77C182.942 139.77 182.587 139.863 182.26 140.05C181.934 140.227 181.672 140.493 181.476 140.848C181.28 141.193 181.182 141.618 181.182 142.122V146H180.146V141.618C180.146 140.965 179.978 140.493 179.642 140.204C179.316 139.915 178.91 139.77 178.424 139.77C178.088 139.77 177.752 139.859 177.416 140.036C177.09 140.204 176.814 140.47 176.59 140.834C176.376 141.189 176.268 141.651 176.268 142.22V146H175.232Z" fill="#012137"/>
</g>
<g clip-path="url(#clip6_2505_24807)">
<rect x="120" y="101" width="100" height="80" rx="10" fill="white"/>
<path d="M38.8502 114.444C33.5668 108.519 28.2835 108.519 23.0002 114.444L23 254.5L340 254.5L340 114.444C334.717 108.518 329.433 108.518 324.15 114.444C318.867 108.518 313.583 108.518 308.3 114.444C303.017 108.518 297.733 108.518 292.45 114.444C287.167 108.518 281.883 108.518 276.6 114.444C271.317 108.518 266.033 108.518 260.75 114.444C255.467 108.518 250.183 108.518 244.9 114.444C239.617 108.518 234.333 108.518 229.05 114.444C223.767 108.518 218.483 108.518 213.2 114.444C207.917 108.518 202.633 108.518 197.35 114.444C192.067 108.518 186.783 108.518 181.5 114.444C176.217 108.518 170.933 108.518 165.65 114.444C160.367 108.518 155.084 108.518 149.8 114.444C144.517 108.518 139.234 108.518 133.95 114.444C128.667 108.518 123.383 108.519 118.1 114.444C112.817 108.519 107.534 108.519 102.25 114.444C96.9668 108.519 91.6835 108.519 86.4002 114.444C81.1168 108.519 75.8335 108.519 70.5502 114.444C65.2668 108.519 59.9835 108.519 54.7002 114.444C49.4168 108.519 44.1335 108.519 38.8502 114.444Z" fill="#00D791"/>
<path d="M160.636 137.726H155.232V140.834H159.46V141.8H155.232V146H154.196V136.76H160.636V137.726ZM165.882 141.464C165.882 140.923 165.737 140.507 165.448 140.218C165.159 139.919 164.748 139.77 164.216 139.77C163.721 139.77 163.301 139.877 162.956 140.092C162.611 140.307 162.354 140.652 162.186 141.128L161.346 140.61C161.542 140.078 161.887 139.653 162.382 139.336C162.886 139.019 163.507 138.86 164.244 138.86C164.748 138.86 165.201 138.949 165.602 139.126C166.013 139.294 166.335 139.555 166.568 139.91C166.801 140.265 166.918 140.713 166.918 141.254V144.67C166.918 145.034 167.105 145.216 167.478 145.216C167.655 145.216 167.828 145.193 167.996 145.146L167.94 145.958C167.763 146.051 167.529 146.098 167.24 146.098C166.979 146.098 166.741 146.051 166.526 145.958C166.321 145.855 166.157 145.701 166.036 145.496C165.915 145.281 165.854 145.015 165.854 144.698V144.516L166.12 144.544C166.017 144.917 165.826 145.221 165.546 145.454C165.275 145.687 164.967 145.86 164.622 145.972C164.277 146.084 163.936 146.14 163.6 146.14C163.189 146.14 162.807 146.07 162.452 145.93C162.097 145.79 161.817 145.58 161.612 145.3C161.407 145.02 161.304 144.67 161.304 144.25C161.304 143.727 161.477 143.298 161.822 142.962C162.177 142.626 162.667 142.397 163.292 142.276L166.092 141.73V142.584L163.782 143.06C163.306 143.153 162.951 143.289 162.718 143.466C162.485 143.643 162.368 143.886 162.368 144.194C162.368 144.511 162.485 144.763 162.718 144.95C162.961 145.137 163.306 145.23 163.754 145.23C164.025 145.23 164.286 145.197 164.538 145.132C164.79 145.057 165.019 144.945 165.224 144.796C165.429 144.647 165.588 144.46 165.7 144.236C165.821 144.012 165.882 143.746 165.882 143.438V141.464ZM169.6 146V139H170.454L170.594 140.204C170.78 139.765 171.065 139.434 171.448 139.21C171.83 138.977 172.292 138.86 172.834 138.86C172.964 138.86 173.104 138.874 173.254 138.902C173.403 138.921 173.529 138.958 173.632 139.014L173.436 139.966C173.333 139.919 173.221 139.887 173.1 139.868C172.978 139.84 172.806 139.826 172.582 139.826C172.274 139.826 171.97 139.915 171.672 140.092C171.373 140.269 171.126 140.535 170.93 140.89C170.734 141.235 170.636 141.669 170.636 142.192V146H169.6ZM175.232 146V139H176.142L176.212 140.162C176.455 139.723 176.782 139.397 177.192 139.182C177.612 138.967 178.051 138.86 178.508 138.86C179.031 138.86 179.512 138.981 179.95 139.224C180.389 139.457 180.716 139.817 180.93 140.302C181.08 139.975 181.29 139.709 181.56 139.504C181.831 139.289 182.13 139.131 182.456 139.028C182.792 138.916 183.114 138.86 183.422 138.86C183.88 138.86 184.309 138.953 184.71 139.14C185.112 139.327 185.438 139.616 185.69 140.008C185.952 140.4 186.082 140.899 186.082 141.506V146H185.046V141.604C185.046 140.96 184.883 140.493 184.556 140.204C184.23 139.915 183.819 139.77 183.324 139.77C182.942 139.77 182.587 139.863 182.26 140.05C181.934 140.227 181.672 140.493 181.476 140.848C181.28 141.193 181.182 141.618 181.182 142.122V146H180.146V141.618C180.146 140.965 179.978 140.493 179.642 140.204C179.316 139.915 178.91 139.77 178.424 139.77C178.088 139.77 177.752 139.859 177.416 140.036C177.09 140.204 176.814 140.47 176.59 140.834C176.376 141.189 176.268 141.651 176.268 142.22V146H175.232Z" fill="#012137"/>
</g>
<g clip-path="url(#clip7_2505_24807)">
<rect y="101" width="100" height="80" rx="10" fill="white"/>
<path d="M-81.1498 114.444C-86.4332 108.519 -91.7165 108.519 -96.9998 114.444L-97 254.5L220 254.5L220 114.444C214.717 108.518 209.433 108.518 204.15 114.444C198.867 108.518 193.583 108.518 188.3 114.444C183.017 108.518 177.733 108.518 172.45 114.444C167.167 108.518 161.883 108.518 156.6 114.444C151.317 108.518 146.033 108.518 140.75 114.444C135.467 108.518 130.183 108.518 124.9 114.444C119.617 108.518 114.333 108.518 109.05 114.444C103.767 108.518 98.4834 108.518 93.2001 114.444C87.9168 108.518 82.6334 108.518 77.3501 114.444C72.0668 108.518 66.7834 108.518 61.5001 114.444C56.2168 108.518 50.9334 108.518 45.6501 114.444C40.3668 108.518 35.0835 108.518 29.8002 114.444C24.5168 108.518 19.2335 108.518 13.9502 114.444C8.66684 108.518 3.3835 108.519 -1.89983 114.444C-7.18317 108.519 -12.4665 108.519 -17.7498 114.444C-23.0332 108.519 -28.3165 108.519 -33.5998 114.444C-38.8832 108.519 -44.1665 108.519 -49.4498 114.444C-54.7332 108.519 -60.0165 108.519 -65.2998 114.444C-70.5832 108.519 -75.8665 108.519 -81.1498 114.444Z" fill="#00D791"/>
<path d="M40.6362 137.726H35.2322V140.834H39.4602V141.8H35.2322V146H34.1962V136.76H40.6362V137.726ZM45.8819 141.464C45.8819 140.923 45.7372 140.507 45.4479 140.218C45.1585 139.919 44.7479 139.77 44.2159 139.77C43.7212 139.77 43.3012 139.877 42.9559 140.092C42.6105 140.307 42.3539 140.652 42.1859 141.128L41.3459 140.61C41.5419 140.078 41.8872 139.653 42.3819 139.336C42.8859 139.019 43.5065 138.86 44.2439 138.86C44.7479 138.86 45.2005 138.949 45.6019 139.126C46.0125 139.294 46.3345 139.555 46.5679 139.91C46.8012 140.265 46.9179 140.713 46.9179 141.254V144.67C46.9179 145.034 47.1045 145.216 47.4779 145.216C47.6552 145.216 47.8279 145.193 47.9959 145.146L47.9399 145.958C47.7625 146.051 47.5292 146.098 47.2399 146.098C46.9785 146.098 46.7405 146.051 46.5259 145.958C46.3205 145.855 46.1572 145.701 46.0359 145.496C45.9145 145.281 45.8539 145.015 45.8539 144.698V144.516L46.1199 144.544C46.0172 144.917 45.8259 145.221 45.5459 145.454C45.2752 145.687 44.9672 145.86 44.6219 145.972C44.2765 146.084 43.9359 146.14 43.5999 146.14C43.1892 146.14 42.8065 146.07 42.4519 145.93C42.0972 145.79 41.8172 145.58 41.6119 145.3C41.4065 145.02 41.3039 144.67 41.3039 144.25C41.3039 143.727 41.4765 143.298 41.8219 142.962C42.1765 142.626 42.6665 142.397 43.2919 142.276L46.0919 141.73V142.584L43.7819 143.06C43.3059 143.153 42.9512 143.289 42.7179 143.466C42.4845 143.643 42.3679 143.886 42.3679 144.194C42.3679 144.511 42.4845 144.763 42.7179 144.95C42.9605 145.137 43.3059 145.23 43.7539 145.23C44.0245 145.23 44.2859 145.197 44.5379 145.132C44.7899 145.057 45.0185 144.945 45.2239 144.796C45.4292 144.647 45.5879 144.46 45.6999 144.236C45.8212 144.012 45.8819 143.746 45.8819 143.438V141.464ZM49.5995 146V139H50.4535L50.5935 140.204C50.7802 139.765 51.0649 139.434 51.4475 139.21C51.8302 138.977 52.2922 138.86 52.8335 138.86C52.9642 138.86 53.1042 138.874 53.2535 138.902C53.4029 138.921 53.5289 138.958 53.6315 139.014L53.4355 139.966C53.3329 139.919 53.2209 139.887 53.0995 139.868C52.9782 139.84 52.8055 139.826 52.5815 139.826C52.2735 139.826 51.9702 139.915 51.6715 140.092C51.3729 140.269 51.1255 140.535 50.9295 140.89C50.7335 141.235 50.6355 141.669 50.6355 142.192V146H49.5995ZM55.2323 146V139H56.1423L56.2123 140.162C56.455 139.723 56.7817 139.397 57.1923 139.182C57.6123 138.967 58.051 138.86 58.5083 138.86C59.031 138.86 59.5117 138.981 59.9503 139.224C60.389 139.457 60.7157 139.817 60.9303 140.302C61.0797 139.975 61.2897 139.709 61.5603 139.504C61.831 139.289 62.1297 139.131 62.4563 139.028C62.7923 138.916 63.1143 138.86 63.4223 138.86C63.8797 138.86 64.309 138.953 64.7103 139.14C65.1117 139.327 65.4383 139.616 65.6903 140.008C65.9517 140.4 66.0823 140.899 66.0823 141.506V146H65.0463V141.604C65.0463 140.96 64.883 140.493 64.5563 140.204C64.2297 139.915 63.819 139.77 63.3243 139.77C62.9417 139.77 62.587 139.863 62.2603 140.05C61.9337 140.227 61.6723 140.493 61.4763 140.848C61.2803 141.193 61.1823 141.618 61.1823 142.122V146H60.1463V141.618C60.1463 140.965 59.9783 140.493 59.6423 140.204C59.3157 139.915 58.9097 139.77 58.4243 139.77C58.0883 139.77 57.7523 139.859 57.4163 140.036C57.0897 140.204 56.8143 140.47 56.5903 140.834C56.3757 141.189 56.2683 141.651 56.2683 142.22V146H55.2323Z" fill="#012137"/>
</g>
<g clip-path="url(#clip8_2505_24807)">
<rect y="101" width="100" height="80" rx="10" fill="white"/>
<path d="M-81.1498 114.444C-86.4332 108.519 -91.7165 108.519 -96.9998 114.444L-97 254.5L220 254.5L220 114.444C214.717 108.518 209.433 108.518 204.15 114.444C198.867 108.518 193.583 108.518 188.3 114.444C183.017 108.518 177.733 108.518 172.45 114.444C167.167 108.518 161.883 108.518 156.6 114.444C151.317 108.518 146.033 108.518 140.75 114.444C135.467 108.518 130.183 108.518 124.9 114.444C119.617 108.518 114.333 108.518 109.05 114.444C103.767 108.518 98.4834 108.518 93.2001 114.444C87.9168 108.518 82.6334 108.518 77.3501 114.444C72.0668 108.518 66.7834 108.518 61.5001 114.444C56.2168 108.518 50.9334 108.518 45.6501 114.444C40.3668 108.518 35.0835 108.518 29.8002 114.444C24.5168 108.518 19.2335 108.518 13.9502 114.444C8.66684 108.518 3.3835 108.519 -1.89983 114.444C-7.18317 108.519 -12.4665 108.519 -17.7498 114.444C-23.0332 108.519 -28.3165 108.519 -33.5998 114.444C-38.8832 108.519 -44.1665 108.519 -49.4498 114.444C-54.7332 108.519 -60.0165 108.519 -65.2998 114.444C-70.5832 108.519 -75.8665 108.519 -81.1498 114.444Z" fill="#00D791"/>
<path d="M40.6362 137.726H35.2322V140.834H39.4602V141.8H35.2322V146H34.1962V136.76H40.6362V137.726ZM45.8819 141.464C45.8819 140.923 45.7372 140.507 45.4479 140.218C45.1585 139.919 44.7479 139.77 44.2159 139.77C43.7212 139.77 43.3012 139.877 42.9559 140.092C42.6105 140.307 42.3539 140.652 42.1859 141.128L41.3459 140.61C41.5419 140.078 41.8872 139.653 42.3819 139.336C42.8859 139.019 43.5065 138.86 44.2439 138.86C44.7479 138.86 45.2005 138.949 45.6019 139.126C46.0125 139.294 46.3345 139.555 46.5679 139.91C46.8012 140.265 46.9179 140.713 46.9179 141.254V144.67C46.9179 145.034 47.1045 145.216 47.4779 145.216C47.6552 145.216 47.8279 145.193 47.9959 145.146L47.9399 145.958C47.7625 146.051 47.5292 146.098 47.2399 146.098C46.9785 146.098 46.7405 146.051 46.5259 145.958C46.3205 145.855 46.1572 145.701 46.0359 145.496C45.9145 145.281 45.8539 145.015 45.8539 144.698V144.516L46.1199 144.544C46.0172 144.917 45.8259 145.221 45.5459 145.454C45.2752 145.687 44.9672 145.86 44.6219 145.972C44.2765 146.084 43.9359 146.14 43.5999 146.14C43.1892 146.14 42.8065 146.07 42.4519 145.93C42.0972 145.79 41.8172 145.58 41.6119 145.3C41.4065 145.02 41.3039 144.67 41.3039 144.25C41.3039 143.727 41.4765 143.298 41.8219 142.962C42.1765 142.626 42.6665 142.397 43.2919 142.276L46.0919 141.73V142.584L43.7819 143.06C43.3059 143.153 42.9512 143.289 42.7179 143.466C42.4845 143.643 42.3679 143.886 42.3679 144.194C42.3679 144.511 42.4845 144.763 42.7179 144.95C42.9605 145.137 43.3059 145.23 43.7539 145.23C44.0245 145.23 44.2859 145.197 44.5379 145.132C44.7899 145.057 45.0185 144.945 45.2239 144.796C45.4292 144.647 45.5879 144.46 45.6999 144.236C45.8212 144.012 45.8819 143.746 45.8819 143.438V141.464ZM49.5995 146V139H50.4535L50.5935 140.204C50.7802 139.765 51.0649 139.434 51.4475 139.21C51.8302 138.977 52.2922 138.86 52.8335 138.86C52.9642 138.86 53.1042 138.874 53.2535 138.902C53.4029 138.921 53.5289 138.958 53.6315 139.014L53.4355 139.966C53.3329 139.919 53.2209 139.887 53.0995 139.868C52.9782 139.84 52.8055 139.826 52.5815 139.826C52.2735 139.826 51.9702 139.915 51.6715 140.092C51.3729 140.269 51.1255 140.535 50.9295 140.89C50.7335 141.235 50.6355 141.669 50.6355 142.192V146H49.5995ZM55.2323 146V139H56.1423L56.2123 140.162C56.455 139.723 56.7817 139.397 57.1923 139.182C57.6123 138.967 58.051 138.86 58.5083 138.86C59.031 138.86 59.5117 138.981 59.9503 139.224C60.389 139.457 60.7157 139.817 60.9303 140.302C61.0797 139.975 61.2897 139.709 61.5603 139.504C61.831 139.289 62.1297 139.131 62.4563 139.028C62.7923 138.916 63.1143 138.86 63.4223 138.86C63.8797 138.86 64.309 138.953 64.7103 139.14C65.1117 139.327 65.4383 139.616 65.6903 140.008C65.9517 140.4 66.0823 140.899 66.0823 141.506V146H65.0463V141.604C65.0463 140.96 64.883 140.493 64.5563 140.204C64.2297 139.915 63.819 139.77 63.3243 139.77C62.9417 139.77 62.587 139.863 62.2603 140.05C61.9337 140.227 61.6723 140.493 61.4763 140.848C61.2803 141.193 61.1823 141.618 61.1823 142.122V146H60.1463V141.618C60.1463 140.965 59.9783 140.493 59.6423 140.204C59.3157 139.915 58.9097 139.77 58.4243 139.77C58.0883 139.77 57.7523 139.859 57.4163 140.036C57.0897 140.204 56.8143 140.47 56.5903 140.834C56.3757 141.189 56.2683 141.651 56.2683 142.22V146H55.2323Z" fill="#012137"/>
</g>
<g clip-path="url(#clip9_2505_24807)">
<rect y="101" width="100" height="80" rx="10" fill="white"/>
<path d="M-81.15 119.223C-86.4333 110.889 -91.7167 110.889 -97 119.223V194H220V119.223C214.717 103.118 209.433 103.118 204.15 119.223C198.867 112.123 193.583 112.123 188.3 119.223C183.017 107.82 177.733 107.82 172.45 119.223C167.167 113.812 161.883 113.812 156.6 119.223C151.317 114.066 146.033 114.066 140.75 119.223C135.467 109.981 130.183 109.981 124.9 119.223C119.617 109.999 114.333 109.999 109.05 119.223C103.767 109.091 98.4834 109.091 93.2 119.223C87.9167 101.847 82.6333 101.847 77.35 119.223C72.0667 102.337 66.7833 102.337 61.5 119.223C56.2167 104.189 50.9333 104.189 45.65 119.223C40.3667 114.084 35.0833 114.084 29.8 119.223C24.5167 110.217 19.2333 110.217 13.95 119.223C8.66667 101.592 3.38334 101.592 -1.89999 119.223C-7.18333 114.992 -12.4667 114.992 -17.75 119.223C-23.0333 114.375 -28.3167 114.375 -33.6 119.223C-38.8833 101.719 -44.1667 101.719 -49.45 119.223C-54.7333 102.119 -60.0167 102.119 -65.3 119.223C-70.5833 107.348 -75.8667 107.348 -81.15 119.223Z" fill="#FF4D80"/>
<path d="M40.6362 137.726H35.2322V140.834H39.4602V141.8H35.2322V146H34.1962V136.76H40.6362V137.726ZM45.8819 141.464C45.8819 140.923 45.7372 140.507 45.4479 140.218C45.1585 139.919 44.7479 139.77 44.2159 139.77C43.7212 139.77 43.3012 139.877 42.9559 140.092C42.6105 140.307 42.3539 140.652 42.1859 141.128L41.3459 140.61C41.5419 140.078 41.8872 139.653 42.3819 139.336C42.8859 139.019 43.5065 138.86 44.2439 138.86C44.7479 138.86 45.2005 138.949 45.6019 139.126C46.0125 139.294 46.3345 139.555 46.5679 139.91C46.8012 140.265 46.9179 140.713 46.9179 141.254V144.67C46.9179 145.034 47.1045 145.216 47.4779 145.216C47.6552 145.216 47.8279 145.193 47.9959 145.146L47.9399 145.958C47.7625 146.051 47.5292 146.098 47.2399 146.098C46.9785 146.098 46.7405 146.051 46.5259 145.958C46.3205 145.855 46.1572 145.701 46.0359 145.496C45.9145 145.281 45.8539 145.015 45.8539 144.698V144.516L46.1199 144.544C46.0172 144.917 45.8259 145.221 45.5459 145.454C45.2752 145.687 44.9672 145.86 44.6219 145.972C44.2765 146.084 43.9359 146.14 43.5999 146.14C43.1892 146.14 42.8065 146.07 42.4519 145.93C42.0972 145.79 41.8172 145.58 41.6119 145.3C41.4065 145.02 41.3039 144.67 41.3039 144.25C41.3039 143.727 41.4765 143.298 41.8219 142.962C42.1765 142.626 42.6665 142.397 43.2919 142.276L46.0919 141.73V142.584L43.7819 143.06C43.3059 143.153 42.9512 143.289 42.7179 143.466C42.4845 143.643 42.3679 143.886 42.3679 144.194C42.3679 144.511 42.4845 144.763 42.7179 144.95C42.9605 145.137 43.3059 145.23 43.7539 145.23C44.0245 145.23 44.2859 145.197 44.5379 145.132C44.7899 145.057 45.0185 144.945 45.2239 144.796C45.4292 144.647 45.5879 144.46 45.6999 144.236C45.8212 144.012 45.8819 143.746 45.8819 143.438V141.464ZM49.5995 146V139H50.4535L50.5935 140.204C50.7802 139.765 51.0649 139.434 51.4475 139.21C51.8302 138.977 52.2922 138.86 52.8335 138.86C52.9642 138.86 53.1042 138.874 53.2535 138.902C53.4029 138.921 53.5289 138.958 53.6315 139.014L53.4355 139.966C53.3329 139.919 53.2209 139.887 53.0995 139.868C52.9782 139.84 52.8055 139.826 52.5815 139.826C52.2735 139.826 51.9702 139.915 51.6715 140.092C51.3729 140.269 51.1255 140.535 50.9295 140.89C50.7335 141.235 50.6355 141.669 50.6355 142.192V146H49.5995ZM55.2323 146V139H56.1423L56.2123 140.162C56.455 139.723 56.7817 139.397 57.1923 139.182C57.6123 138.967 58.051 138.86 58.5083 138.86C59.031 138.86 59.5117 138.981 59.9503 139.224C60.389 139.457 60.7157 139.817 60.9303 140.302C61.0797 139.975 61.2897 139.709 61.5603 139.504C61.831 139.289 62.1297 139.131 62.4563 139.028C62.7923 138.916 63.1143 138.86 63.4223 138.86C63.8797 138.86 64.309 138.953 64.7103 139.14C65.1117 139.327 65.4383 139.616 65.6903 140.008C65.9517 140.4 66.0823 140.899 66.0823 141.506V146H65.0463V141.604C65.0463 140.96 64.883 140.493 64.5563 140.204C64.2297 139.915 63.819 139.77 63.3243 139.77C62.9417 139.77 62.587 139.863 62.2603 140.05C61.9337 140.227 61.6723 140.493 61.4763 140.848C61.2803 141.193 61.1823 141.618 61.1823 142.122V146H60.1463V141.618C60.1463 140.965 59.9783 140.493 59.6423 140.204C59.3157 139.915 58.9097 139.77 58.4243 139.77C58.0883 139.77 57.7523 139.859 57.4163 140.036C57.0897 140.204 56.8143 140.47 56.5903 140.834C56.3757 141.189 56.2683 141.651 56.2683 142.22V146H55.2323Z" fill="#012137"/>
</g>
<g clip-path="url(#clip10_2505_24807)">
<rect y="101" width="100" height="80" rx="10" fill="white"/>
<path d="M-81.1498 114.444C-86.4332 108.519 -91.7165 108.519 -96.9998 114.444L-97 254.5L220 254.5L220 114.444C214.717 108.518 209.433 108.518 204.15 114.444C198.867 108.518 193.583 108.518 188.3 114.444C183.017 108.518 177.733 108.518 172.45 114.444C167.167 108.518 161.883 108.518 156.6 114.444C151.317 108.518 146.033 108.518 140.75 114.444C135.467 108.518 130.183 108.518 124.9 114.444C119.617 108.518 114.333 108.518 109.05 114.444C103.767 108.518 98.4834 108.518 93.2001 114.444C87.9168 108.518 82.6334 108.518 77.3501 114.444C72.0668 108.518 66.7834 108.518 61.5001 114.444C56.2168 108.518 50.9334 108.518 45.6501 114.444C40.3668 108.518 35.0835 108.518 29.8002 114.444C24.5168 108.518 19.2335 108.518 13.9502 114.444C8.66684 108.518 3.3835 108.519 -1.89983 114.444C-7.18317 108.519 -12.4665 108.519 -17.7498 114.444C-23.0332 108.519 -28.3165 108.519 -33.5998 114.444C-38.8832 108.519 -44.1665 108.519 -49.4498 114.444C-54.7332 108.519 -60.0165 108.519 -65.2998 114.444C-70.5832 108.519 -75.8665 108.519 -81.1498 114.444Z" fill="#00D791"/>
<path d="M40.6362 137.726H35.2322V140.834H39.4602V141.8H35.2322V146H34.1962V136.76H40.6362V137.726ZM45.8819 141.464C45.8819 140.923 45.7372 140.507 45.4479 140.218C45.1585 139.919 44.7479 139.77 44.2159 139.77C43.7212 139.77 43.3012 139.877 42.9559 140.092C42.6105 140.307 42.3539 140.652 42.1859 141.128L41.3459 140.61C41.5419 140.078 41.8872 139.653 42.3819 139.336C42.8859 139.019 43.5065 138.86 44.2439 138.86C44.7479 138.86 45.2005 138.949 45.6019 139.126C46.0125 139.294 46.3345 139.555 46.5679 139.91C46.8012 140.265 46.9179 140.713 46.9179 141.254V144.67C46.9179 145.034 47.1045 145.216 47.4779 145.216C47.6552 145.216 47.8279 145.193 47.9959 145.146L47.9399 145.958C47.7625 146.051 47.5292 146.098 47.2399 146.098C46.9785 146.098 46.7405 146.051 46.5259 145.958C46.3205 145.855 46.1572 145.701 46.0359 145.496C45.9145 145.281 45.8539 145.015 45.8539 144.698V144.516L46.1199 144.544C46.0172 144.917 45.8259 145.221 45.5459 145.454C45.2752 145.687 44.9672 145.86 44.6219 145.972C44.2765 146.084 43.9359 146.14 43.5999 146.14C43.1892 146.14 42.8065 146.07 42.4519 145.93C42.0972 145.79 41.8172 145.58 41.6119 145.3C41.4065 145.02 41.3039 144.67 41.3039 144.25C41.3039 143.727 41.4765 143.298 41.8219 142.962C42.1765 142.626 42.6665 142.397 43.2919 142.276L46.0919 141.73V142.584L43.7819 143.06C43.3059 143.153 42.9512 143.289 42.7179 143.466C42.4845 143.643 42.3679 143.886 42.3679 144.194C42.3679 144.511 42.4845 144.763 42.7179 144.95C42.9605 145.137 43.3059 145.23 43.7539 145.23C44.0245 145.23 44.2859 145.197 44.5379 145.132C44.7899 145.057 45.0185 144.945 45.2239 144.796C45.4292 144.647 45.5879 144.46 45.6999 144.236C45.8212 144.012 45.8819 143.746 45.8819 143.438V141.464ZM49.5995 146V139H50.4535L50.5935 140.204C50.7802 139.765 51.0649 139.434 51.4475 139.21C51.8302 138.977 52.2922 138.86 52.8335 138.86C52.9642 138.86 53.1042 138.874 53.2535 138.902C53.4029 138.921 53.5289 138.958 53.6315 139.014L53.4355 139.966C53.3329 139.919 53.2209 139.887 53.0995 139.868C52.9782 139.84 52.8055 139.826 52.5815 139.826C52.2735 139.826 51.9702 139.915 51.6715 140.092C51.3729 140.269 51.1255 140.535 50.9295 140.89C50.7335 141.235 50.6355 141.669 50.6355 142.192V146H49.5995ZM55.2323 146V139H56.1423L56.2123 140.162C56.455 139.723 56.7817 139.397 57.1923 139.182C57.6123 138.967 58.051 138.86 58.5083 138.86C59.031 138.86 59.5117 138.981 59.9503 139.224C60.389 139.457 60.7157 139.817 60.9303 140.302C61.0797 139.975 61.2897 139.709 61.5603 139.504C61.831 139.289 62.1297 139.131 62.4563 139.028C62.7923 138.916 63.1143 138.86 63.4223 138.86C63.8797 138.86 64.309 138.953 64.7103 139.14C65.1117 139.327 65.4383 139.616 65.6903 140.008C65.9517 140.4 66.0823 140.899 66.0823 141.506V146H65.0463V141.604C65.0463 140.96 64.883 140.493 64.5563 140.204C64.2297 139.915 63.819 139.77 63.3243 139.77C62.9417 139.77 62.587 139.863 62.2603 140.05C61.9337 140.227 61.6723 140.493 61.4763 140.848C61.2803 141.193 61.1823 141.618 61.1823 142.122V146H60.1463V141.618C60.1463 140.965 59.9783 140.493 59.6423 140.204C59.3157 139.915 58.9097 139.77 58.4243 139.77C58.0883 139.77 57.7523 139.859 57.4163 140.036C57.0897 140.204 56.8143 140.47 56.5903 140.834C56.3757 141.189 56.2683 141.651 56.2683 142.22V146H55.2323Z" fill="#012137"/>
</g>
<defs>
<clipPath id="clip0_2505_24807">
<rect x="65.7559" width="91" height="91" rx="12" fill="white"/>
</clipPath>
<clipPath id="clip1_2505_24807">
<rect x="65.7559" width="91" height="91" rx="12" fill="white"/>
</clipPath>
<clipPath id="clip2_2505_24807">
<rect x="49.7559" y="191" width="122" height="91" rx="13" fill="white"/>
</clipPath>
<clipPath id="clip3_2505_24807">
<rect x="49.7559" y="191" width="122" height="91" rx="13" fill="white"/>
</clipPath>
<clipPath id="clip4_2505_24807">
<rect x="120" y="101" width="100" height="80" rx="10" fill="white"/>
</clipPath>
<clipPath id="clip5_2505_24807">
<rect x="120" y="101" width="100" height="80" rx="10" fill="white"/>
</clipPath>
<clipPath id="clip6_2505_24807">
<rect x="120" y="101" width="100" height="80" rx="10" fill="white"/>
</clipPath>
<clipPath id="clip7_2505_24807">
<rect y="101" width="100" height="80" rx="10" fill="white"/>
</clipPath>
<clipPath id="clip8_2505_24807">
<rect y="101" width="100" height="80" rx="10" fill="white"/>
</clipPath>
<clipPath id="clip9_2505_24807">
<rect y="101" width="100" height="80" rx="10" fill="white"/>
</clipPath>
<clipPath id="clip10_2505_24807">
<rect y="101" width="100" height="80" rx="10" fill="white"/>
</clipPath>
</defs>
</svg>
