<svg width="688" height="113" viewBox="0 0 688 113" fill="none" xmlns="http://www.w3.org/2000/svg">
<path d="M91 67.5H142.25H167.875H193.5" stroke="#B4DBFF" stroke-width="4"/>
<path d="M628 67L255 67" stroke="#1FA4F1" stroke-width="4"/>
<g clip-path="url(#clip0_2505_24170)">
<rect y="22" width="91" height="91" rx="12" fill="white"/>
<path d="M89.9977 34.999V34.9993V100.001C89.9977 106.628 84.6256 112 77.9984 112H12.9993C6.37218 112 1 106.628 1 99.9984V34.9993C1 28.3721 6.37207 23 12.9993 23H78.0007C84.628 23 89.9998 28.3721 89.9977 34.999Z" stroke="#012137" stroke-width="2"/>
<path d="M13.3247 31.125H77.6748C79.9954 31.125 81.8754 33.0067 81.8754 35.3257V86.6764C81.8754 88.997 79.9937 90.8771 77.6748 90.8771H13.3247C11.0041 90.8771 9.12402 88.9953 9.12402 86.6764V35.3257C9.12402 33.005 11.0058 31.125 13.3247 31.125Z" stroke="#012137" stroke-width="2"/>
<path d="M44.3268 62.743C47.4683 64.8572 50.5616 66.3041 53.5197 67.0447C56.2805 67.7372 58.8808 67.8083 61.2473 67.258C64.4369 66.5173 66.7346 64.7196 68.4681 62.1605C68.9336 61.4566 68.9313 60.5348 68.4635 59.8308C67.661 58.6178 66.7735 57.4804 65.8105 56.4256C65.7371 58.1018 65.3014 59.2369 64.8932 59.95C63.9714 61.5506 62.3411 62.6925 60.2979 63.1672C58.5873 63.5639 56.6497 63.4974 54.5424 62.97C52.059 62.3486 49.4105 61.0988 46.6726 59.2575C43.5311 57.1433 40.4378 55.6964 37.4797 54.9557C34.7189 54.2632 32.1186 54.1922 29.7521 54.7425C26.5625 55.4831 24.2648 57.2809 22.5313 59.84C22.0658 60.5439 22.0681 61.4657 22.5359 62.1697C23.3384 63.3827 24.2259 64.5201 25.1889 65.5749C25.2623 63.8987 25.698 62.7636 26.1062 62.0505C27.028 60.4499 28.6583 59.308 30.7014 58.8333C32.4121 58.4366 34.3497 58.5031 36.457 59.0305C38.9404 59.6519 41.5889 60.9016 44.3268 62.743Z" fill="#B4DBFF"/>
<path d="M48.874 55.985C52.9373 58.7183 56.7782 59.9359 59.406 59.326C60.3714 59.1012 61.1052 58.6243 61.4743 57.9822C61.8183 57.3837 61.9513 56.3312 61.8389 55.093C61.8343 55.0311 61.8275 54.9714 61.8206 54.9095C60.9905 55.1641 59.8417 55.3842 58.3649 55.3842C57.7481 55.3842 57.2414 55.3223 56.918 55.2581C55.7761 55.0333 53.8499 54.3867 51.1625 52.5798C47.9545 50.422 44.7281 48.8054 41.5431 47.7598C38.5713 48.1886 35.7187 49.0966 33.084 50.4312C34.813 50.4358 36.6038 50.6697 38.436 51.1283C41.8389 51.9813 45.3496 53.6139 48.8717 55.9827L48.874 55.985Z" fill="#B4DBFF"/>
<path d="M42.1251 66.0147C38.0618 63.2814 34.2209 62.0637 31.593 62.6737C30.6277 62.8984 29.8939 63.3754 29.5247 64.0174C29.1807 64.6159 29.0477 65.6684 29.1601 66.9067C29.1647 66.9686 29.1716 67.0282 29.1785 67.0901C30.0085 66.8356 31.1574 66.6155 32.6341 66.6155C33.2509 66.6155 33.7577 66.6774 34.081 66.7416C35.223 66.9663 37.1491 67.6129 39.8366 69.4199C43.0446 71.5776 46.2732 73.1942 49.4583 74.2399C52.4301 73.8111 55.2849 72.903 57.9219 71.5685C56.1907 71.5639 54.3975 71.3323 52.5631 70.8714C49.1602 70.0184 45.6495 68.3857 42.1273 66.017L42.1251 66.0147Z" fill="#B4DBFF"/>
</g>
<g clip-path="url(#clip1_2505_24170)">
<rect x="414" y="22" width="122" height="91" rx="13" fill="white"/>
<path d="M427.625 23H522.928C529.6 23 535 28.3787 535 35V99.4497C535 106.377 529.354 112 522.375 112H427.625C420.646 112 415 106.377 415 99.4497V35.5503C415 28.6233 420.646 23 427.625 23Z" stroke="#012137" stroke-width="2"/>
<path d="M431.864 38.0117H518.136C519.031 38.0117 519.749 38.7317 519.749 39.6105V95.0776C519.749 95.9548 519.033 96.6763 518.136 96.6763H431.864C430.969 96.6763 430.251 95.9563 430.251 95.0776V39.6105C430.251 38.7333 430.967 38.0117 431.864 38.0117Z" stroke="#012137" stroke-width="2"/>
<path d="M476.127 49.8733C476.127 49.8733 476.096 49.855 476.087 49.8428C475.426 49.43 474.568 49.43 473.907 49.8428C473.898 49.8428 473.876 49.8611 473.867 49.8733C472.96 50.4726 472.103 51.1085 471.285 51.7964C472.597 52.4324 473.839 53.1875 474.992 54.0528C480.692 58.3087 484.061 64.9554 484.061 72.0944C484.061 77.0657 480.009 81.1045 475.002 81.1045C469.994 81.1045 465.942 77.0749 465.942 72.0944H465.923C465.923 67.9945 467.018 64.1513 468.939 60.8493C472.588 63.28 474.983 67.4074 474.983 72.0944C474.983 73.5742 474.845 74.9378 474.608 76.1821H474.992C477.261 76.1821 479.103 74.3477 479.103 72.0944C479.103 64.5335 474.322 58.0916 467.608 55.5815C463.922 60.2195 461.841 66.0041 461.841 72.0822H461.859C461.859 79.2976 467.746 85.1525 475.002 85.1525C482.257 85.1525 488.144 79.2976 488.144 72.0822C488.144 63.121 483.649 54.8141 476.127 49.8642V49.8733Z" fill="#1FA4F1"/>
</g>
<g clip-path="url(#clip2_2505_24170)">
<rect x="414" y="22" width="122" height="91" rx="13" fill="white"/>
<path d="M427.625 23H522.928C529.6 23 535 28.3787 535 35V99.4497C535 106.377 529.354 112 522.375 112H427.625C420.646 112 415 106.377 415 99.4497V35.5503C415 28.6233 420.646 23 427.625 23Z" stroke="#012137" stroke-width="2"/>
<path d="M431.864 38.0117H518.136C519.031 38.0117 519.749 38.7317 519.749 39.6105V95.0776C519.749 95.9548 519.033 96.6763 518.136 96.6763H431.864C430.969 96.6763 430.251 95.9563 430.251 95.0776V39.6105C430.251 38.7333 430.967 38.0117 431.864 38.0117Z" stroke="#012137" stroke-width="2"/>
<path d="M476.127 49.8733C476.127 49.8733 476.096 49.855 476.087 49.8428C475.426 49.43 474.568 49.43 473.907 49.8428C473.898 49.8428 473.876 49.8611 473.867 49.8733C472.96 50.4726 472.103 51.1085 471.285 51.7964C472.597 52.4324 473.839 53.1875 474.992 54.0528C480.692 58.3087 484.061 64.9554 484.061 72.0944C484.061 77.0657 480.009 81.1045 475.002 81.1045C469.994 81.1045 465.942 77.0749 465.942 72.0944H465.923C465.923 67.9945 467.018 64.1513 468.939 60.8493C472.588 63.28 474.983 67.4074 474.983 72.0944C474.983 73.5742 474.845 74.9378 474.608 76.1821H474.992C477.261 76.1821 479.103 74.3477 479.103 72.0944C479.103 64.5335 474.322 58.0916 467.608 55.5815C463.922 60.2195 461.841 66.0041 461.841 72.0822H461.859C461.859 79.2976 467.746 85.1525 475.002 85.1525C482.257 85.1525 488.144 79.2976 488.144 72.0822C488.144 63.121 483.649 54.8141 476.127 49.8642V49.8733Z" fill="#1FA4F1"/>
</g>
<mask id="path-17-inside-1_2505_24170" fill="white">
<path fill-rule="evenodd" clip-rule="evenodd" d="M613 7.5C613 3.35786 609.642 0 605.5 0C601.358 0 598 3.35786 598 7.5V24H577.5C573.358 24 570 27.3579 570 31.5C570 34.2785 571.511 36.704 573.756 38C572.875 38.5084 572.107 39.1907 571.499 40H561.5C559.015 40 557 42.0147 557 44.5C557 46.9853 559.015 49 561.5 49H571.499C572.868 50.8217 575.046 52 577.5 52H579L579 61H575.5C571.358 61 568 64.3579 568 68.5C568 72.6421 571.358 76 575.5 76H597V79H571.5C567.358 79 564 82.3579 564 86.5C564 90.6421 567.358 94 571.5 94H597.458C598.732 98.0571 602.522 101 607 101H610V106.5C610 107.102 610.082 107.684 610.235 108.237C610.083 108.629 610 109.055 610 109.5C610 111.433 611.567 113 613.5 113H616.49L616.5 113L616.51 113H659.5C661.433 113 663 111.433 663 109.5C663 107.567 661.433 106 659.5 106H657.826C657.94 105.518 658 105.016 658 104.5V101H663C668.523 101 673 96.5229 673 91V74C673 68.4771 668.523 64 663 64H660.95L654.022 52H659.5C663.642 52 667 48.6421 667 44.5C667 42.3269 666.076 40.3697 664.599 39H680.5C684.642 39 688 35.6421 688 31.5C688 27.3579 684.642 24 680.5 24H613V7.5ZM594 61V52H597V61H594ZM645 104.5C645 105.016 645.06 105.518 645.174 106H623V101H645V104.5Z"/>
</mask>
<path fill-rule="evenodd" clip-rule="evenodd" d="M613 7.5C613 3.35786 609.642 0 605.5 0C601.358 0 598 3.35786 598 7.5V24H577.5C573.358 24 570 27.3579 570 31.5C570 34.2785 571.511 36.704 573.756 38C572.875 38.5084 572.107 39.1907 571.499 40H561.5C559.015 40 557 42.0147 557 44.5C557 46.9853 559.015 49 561.5 49H571.499C572.868 50.8217 575.046 52 577.5 52H579L579 61H575.5C571.358 61 568 64.3579 568 68.5C568 72.6421 571.358 76 575.5 76H597V79H571.5C567.358 79 564 82.3579 564 86.5C564 90.6421 567.358 94 571.5 94H597.458C598.732 98.0571 602.522 101 607 101H610V106.5C610 107.102 610.082 107.684 610.235 108.237C610.083 108.629 610 109.055 610 109.5C610 111.433 611.567 113 613.5 113H616.49L616.5 113L616.51 113H659.5C661.433 113 663 111.433 663 109.5C663 107.567 661.433 106 659.5 106H657.826C657.94 105.518 658 105.016 658 104.5V101H663C668.523 101 673 96.5229 673 91V74C673 68.4771 668.523 64 663 64H660.95L654.022 52H659.5C663.642 52 667 48.6421 667 44.5C667 42.3269 666.076 40.3697 664.599 39H680.5C684.642 39 688 35.6421 688 31.5C688 27.3579 684.642 24 680.5 24H613V7.5ZM594 61V52H597V61H594ZM645 104.5C645 105.016 645.06 105.518 645.174 106H623V101H645V104.5Z" fill="white"/>
<path d="M598 24V26H600V24H598ZM573.756 38L574.756 39.7321L577.756 38L574.756 36.2679L573.756 38ZM571.499 40V42H572.499L573.099 41.2012L571.499 40ZM571.499 49L573.099 47.7988L572.499 47H571.499V49ZM579 52H581V50H579V52ZM579 61V63H581V61H579ZM597 76H599V74H597V76ZM597 79V81H599V79H597ZM597.458 94L599.366 93.4007L598.926 92H597.458V94ZM610 101H612V99H610V101ZM610.235 108.237L612.1 108.959L612.339 108.342L612.162 107.704L610.235 108.237ZM616.49 113L616.491 111H616.49V113ZM616.5 113L616.498 115H616.502L616.5 113ZM616.51 113V111H616.509L616.51 113ZM657.826 106L655.88 105.54L655.299 108H657.826V106ZM658 101V99H656V101H658ZM660.95 64L659.218 65L659.796 66H660.95V64ZM654.022 52V50H650.558L652.29 53L654.022 52ZM664.599 39V37H659.502L663.239 40.4663L664.599 39ZM613 24H611V26H613V24ZM594 52V50H592V52H594ZM594 61H592V63H594V61ZM597 52H599V50H597V52ZM597 61V63H599V61H597ZM645.174 106V108H647.701L647.12 105.54L645.174 106ZM623 106H621V108H623V106ZM623 101V99H621V101H623ZM645 101H647V99H645V101ZM605.5 2C608.538 2 611 4.46243 611 7.5H615C615 2.25329 610.747 -2 605.5 -2V2ZM600 7.5C600 4.46243 602.462 2 605.5 2V-2C600.253 -2 596 2.2533 596 7.5H600ZM600 24V7.5H596V24H600ZM577.5 26H598V22H577.5V26ZM572 31.5C572 28.4624 574.462 26 577.5 26V22C572.253 22 568 26.2533 568 31.5H572ZM574.756 36.2679C573.104 35.3145 572 33.535 572 31.5H568C568 35.0219 569.918 38.0936 572.756 39.7321L574.756 36.2679ZM573.099 41.2012C573.545 40.6063 574.11 40.1051 574.756 39.7321L572.756 36.2679C571.64 36.9118 570.669 37.7751 569.9 38.7988L573.099 41.2012ZM561.5 42H571.499V38H561.5V42ZM559 44.5C559 43.1193 560.119 42 561.5 42V38C557.91 38 555 40.9101 555 44.5H559ZM561.5 47C560.119 47 559 45.8807 559 44.5H555C555 48.0899 557.91 51 561.5 51V47ZM571.499 47H561.5V51H571.499V47ZM577.5 50C575.702 50 574.105 49.1392 573.099 47.7988L569.9 50.2012C571.63 52.5041 574.391 54 577.5 54V50ZM579 50H577.5V54H579V50ZM581 61L581 52H577L577 61H581ZM575.5 63H579V59H575.5V63ZM570 68.5C570 65.4624 572.462 63 575.5 63V59C570.253 59 566 63.2533 566 68.5H570ZM575.5 74C572.462 74 570 71.5376 570 68.5H566C566 73.7467 570.253 78 575.5 78V74ZM597 74H575.5V78H597V74ZM599 79V76H595V79H599ZM571.5 81H597V77H571.5V81ZM566 86.5C566 83.4624 568.462 81 571.5 81V77C566.253 77 562 81.2533 562 86.5H566ZM571.5 92C568.462 92 566 89.5376 566 86.5H562C562 91.7467 566.253 96 571.5 96V92ZM597.458 92H571.5V96H597.458V92ZM607 99C603.421 99 600.386 96.6482 599.366 93.4007L595.55 94.5993C597.078 99.466 601.624 103 607 103V99ZM610 99H607V103H610V99ZM612 106.5V101H608V106.5H612ZM612.162 107.704C612.057 107.323 612 106.92 612 106.5H608C608 107.284 608.107 108.045 608.307 108.771L612.162 107.704ZM612 109.5C612 109.306 612.036 109.124 612.1 108.959L608.37 107.515C608.13 108.134 608 108.804 608 109.5H612ZM613.5 111C612.672 111 612 110.328 612 109.5H608C608 112.538 610.462 115 613.5 115V111ZM616.49 111H613.5V115H616.49V111ZM616.502 111L616.491 111L616.488 115L616.498 115L616.502 111ZM616.509 111L616.498 111L616.502 115L616.512 115L616.509 111ZM659.5 111H616.51V115H659.5V111ZM661 109.5C661 110.328 660.328 111 659.5 111V115C662.538 115 665 112.538 665 109.5H661ZM659.5 108C660.328 108 661 108.672 661 109.5H665C665 106.462 662.538 104 659.5 104V108ZM657.826 108H659.5V104H657.826V108ZM656 104.5C656 104.86 655.958 105.208 655.88 105.54L659.773 106.46C659.922 105.829 660 105.172 660 104.5H656ZM656 101V104.5H660V101H656ZM663 99H658V103H663V99ZM671 91C671 95.4183 667.418 99 663 99V103C669.627 103 675 97.6274 675 91H671ZM671 74V91H675V74H671ZM663 66C667.418 66 671 69.5817 671 74H675C675 67.3726 669.627 62 663 62V66ZM660.95 66H663V62H660.95V66ZM652.29 53L659.218 65L662.683 63L655.754 51L652.29 53ZM659.5 50H654.022V54H659.5V50ZM665 44.5C665 47.5376 662.538 50 659.5 50V54C664.747 54 669 49.7467 669 44.5H665ZM663.239 40.4663C664.325 41.4735 665 42.9064 665 44.5H669C669 41.7475 667.827 39.266 665.959 37.5337L663.239 40.4663ZM680.5 37H664.599V41H680.5V37ZM686 31.5C686 34.5376 683.538 37 680.5 37V41C685.747 41 690 36.7467 690 31.5H686ZM680.5 26C683.538 26 686 28.4624 686 31.5H690C690 26.2533 685.747 22 680.5 22V26ZM613 26H680.5V22H613V26ZM611 7.5V24H615V7.5H611ZM592 52V61H596V52H592ZM597 50H594V54H597V50ZM599 61V52H595V61H599ZM594 63H597V59H594V63ZM647.12 105.54C647.042 105.208 647 104.86 647 104.5H643C643 105.172 643.078 105.829 643.227 106.46L647.12 105.54ZM623 108H645.174V104H623V108ZM621 101V106H625V101H621ZM645 99H623V103H645V99ZM647 104.5V101H643V104.5H647Z" fill="#012137" mask="url(#path-17-inside-1_2505_24170)"/>
<path d="M639.97 69.0198C639.97 75.6298 634.6 80.9998 627.99 80.9998C621.38 80.9998 616.01 75.6298 616.01 69.0198C616.01 62.4098 621.38 57.0398 627.99 57.0398C631.67 57.0398 634.96 58.7098 637.16 61.3198C634.66 61.4798 632.17 61.2398 629.78 60.6098V64.8598C631.7 65.2798 633.67 65.5098 635.66 65.5098C637.5 65.5098 639.36 65.3198 641.21 64.9498C641.85 64.7898 642.39 64.3198 642.64 63.7098C642.69 63.5898 642.72 63.4798 642.75 63.3598C643.53 59.5398 643.47 55.6898 642.65 52.0098H638.39C638.87 53.8298 639.13 55.7198 639.15 57.6298C636.27 54.7998 632.34 53.0498 627.99 53.0498C619.18 53.0498 612.01 60.2198 612.01 69.0298C612.01 77.8398 619.18 85.0098 627.99 85.0098C636.8 85.0098 643.97 77.8398 643.97 69.0298H639.97V69.0198Z" fill="#1FA4F1"/>
<path d="M664 38H575.5" stroke="#012137" stroke-width="2"/>
<path d="M630 20L630 24" stroke="#012137" stroke-width="2" stroke-linecap="round"/>
<path d="M647 20L647 24" stroke="#012137" stroke-width="2" stroke-linecap="round"/>
<path d="M664 20L664 24" stroke="#012137" stroke-width="2" stroke-linecap="round"/>
<path d="M681 20L681 24" stroke="#012137" stroke-width="2" stroke-linecap="round"/>
<path d="M598 93L598 63" stroke="#012137" stroke-width="2"/>
<path d="M593 62L580 62" stroke="#012137" stroke-width="2"/>
<path d="M593 51L580 51" stroke="#012137" stroke-width="2"/>
<path d="M660 100L611 100" stroke="#012137" stroke-width="2"/>
<mask id="path-29-inside-2_2505_24170" fill="white">
<path fill-rule="evenodd" clip-rule="evenodd" d="M613 7.5C613 3.35786 609.642 0 605.5 0C601.358 0 598 3.35786 598 7.5V24H577.5C573.358 24 570 27.3579 570 31.5C570 34.2785 571.511 36.704 573.756 38C572.875 38.5084 572.107 39.1907 571.499 40H561.5C559.015 40 557 42.0147 557 44.5C557 46.9853 559.015 49 561.5 49H571.499C572.868 50.8217 575.046 52 577.5 52H579L579 61H575.5C571.358 61 568 64.3579 568 68.5C568 72.6421 571.358 76 575.5 76H597V79H571.5C567.358 79 564 82.3579 564 86.5C564 90.6421 567.358 94 571.5 94H597.458C598.732 98.0571 602.522 101 607 101H610V106.5C610 107.102 610.082 107.684 610.235 108.237C610.083 108.629 610 109.055 610 109.5C610 111.433 611.567 113 613.5 113H616.49L616.5 113L616.51 113H659.5C661.433 113 663 111.433 663 109.5C663 107.567 661.433 106 659.5 106H657.826C657.94 105.518 658 105.016 658 104.5V101H663C668.523 101 673 96.5229 673 91V74C673 68.4771 668.523 64 663 64H660.95L654.022 52H659.5C663.642 52 667 48.6421 667 44.5C667 42.3269 666.076 40.3697 664.599 39H680.5C684.642 39 688 35.6421 688 31.5C688 27.3579 684.642 24 680.5 24H613V7.5ZM594 61V52H597V61H594ZM645 104.5C645 105.016 645.06 105.518 645.174 106H623V101H645V104.5Z"/>
</mask>
<path fill-rule="evenodd" clip-rule="evenodd" d="M613 7.5C613 3.35786 609.642 0 605.5 0C601.358 0 598 3.35786 598 7.5V24H577.5C573.358 24 570 27.3579 570 31.5C570 34.2785 571.511 36.704 573.756 38C572.875 38.5084 572.107 39.1907 571.499 40H561.5C559.015 40 557 42.0147 557 44.5C557 46.9853 559.015 49 561.5 49H571.499C572.868 50.8217 575.046 52 577.5 52H579L579 61H575.5C571.358 61 568 64.3579 568 68.5C568 72.6421 571.358 76 575.5 76H597V79H571.5C567.358 79 564 82.3579 564 86.5C564 90.6421 567.358 94 571.5 94H597.458C598.732 98.0571 602.522 101 607 101H610V106.5C610 107.102 610.082 107.684 610.235 108.237C610.083 108.629 610 109.055 610 109.5C610 111.433 611.567 113 613.5 113H616.49L616.5 113L616.51 113H659.5C661.433 113 663 111.433 663 109.5C663 107.567 661.433 106 659.5 106H657.826C657.94 105.518 658 105.016 658 104.5V101H663C668.523 101 673 96.5229 673 91V74C673 68.4771 668.523 64 663 64H660.95L654.022 52H659.5C663.642 52 667 48.6421 667 44.5C667 42.3269 666.076 40.3697 664.599 39H680.5C684.642 39 688 35.6421 688 31.5C688 27.3579 684.642 24 680.5 24H613V7.5ZM594 61V52H597V61H594ZM645 104.5C645 105.016 645.06 105.518 645.174 106H623V101H645V104.5Z" fill="white"/>
<path d="M598 24V26H600V24H598ZM573.756 38L574.756 39.7321L577.756 38L574.756 36.2679L573.756 38ZM571.499 40V42H572.499L573.099 41.2012L571.499 40ZM571.499 49L573.099 47.7988L572.499 47H571.499V49ZM579 52H581V50H579V52ZM579 61V63H581V61H579ZM597 76H599V74H597V76ZM597 79V81H599V79H597ZM597.458 94L599.366 93.4007L598.926 92H597.458V94ZM610 101H612V99H610V101ZM610.235 108.237L612.1 108.959L612.339 108.342L612.162 107.704L610.235 108.237ZM616.49 113L616.491 111H616.49V113ZM616.5 113L616.498 115H616.502L616.5 113ZM616.51 113V111H616.509L616.51 113ZM657.826 106L655.88 105.54L655.299 108H657.826V106ZM658 101V99H656V101H658ZM660.95 64L659.218 65L659.796 66H660.95V64ZM654.022 52V50H650.558L652.29 53L654.022 52ZM664.599 39V37H659.502L663.239 40.4663L664.599 39ZM613 24H611V26H613V24ZM594 52V50H592V52H594ZM594 61H592V63H594V61ZM597 52H599V50H597V52ZM597 61V63H599V61H597ZM645.174 106V108H647.701L647.12 105.54L645.174 106ZM623 106H621V108H623V106ZM623 101V99H621V101H623ZM645 101H647V99H645V101ZM605.5 2C608.538 2 611 4.46243 611 7.5H615C615 2.25329 610.747 -2 605.5 -2V2ZM600 7.5C600 4.46243 602.462 2 605.5 2V-2C600.253 -2 596 2.2533 596 7.5H600ZM600 24V7.5H596V24H600ZM577.5 26H598V22H577.5V26ZM572 31.5C572 28.4624 574.462 26 577.5 26V22C572.253 22 568 26.2533 568 31.5H572ZM574.756 36.2679C573.104 35.3145 572 33.535 572 31.5H568C568 35.0219 569.918 38.0936 572.756 39.7321L574.756 36.2679ZM573.099 41.2012C573.545 40.6063 574.11 40.1051 574.756 39.7321L572.756 36.2679C571.64 36.9118 570.669 37.7751 569.9 38.7988L573.099 41.2012ZM561.5 42H571.499V38H561.5V42ZM559 44.5C559 43.1193 560.119 42 561.5 42V38C557.91 38 555 40.9101 555 44.5H559ZM561.5 47C560.119 47 559 45.8807 559 44.5H555C555 48.0899 557.91 51 561.5 51V47ZM571.499 47H561.5V51H571.499V47ZM577.5 50C575.702 50 574.105 49.1392 573.099 47.7988L569.9 50.2012C571.63 52.5041 574.391 54 577.5 54V50ZM579 50H577.5V54H579V50ZM581 61L581 52H577L577 61H581ZM575.5 63H579V59H575.5V63ZM570 68.5C570 65.4624 572.462 63 575.5 63V59C570.253 59 566 63.2533 566 68.5H570ZM575.5 74C572.462 74 570 71.5376 570 68.5H566C566 73.7467 570.253 78 575.5 78V74ZM597 74H575.5V78H597V74ZM599 79V76H595V79H599ZM571.5 81H597V77H571.5V81ZM566 86.5C566 83.4624 568.462 81 571.5 81V77C566.253 77 562 81.2533 562 86.5H566ZM571.5 92C568.462 92 566 89.5376 566 86.5H562C562 91.7467 566.253 96 571.5 96V92ZM597.458 92H571.5V96H597.458V92ZM607 99C603.421 99 600.386 96.6482 599.366 93.4007L595.55 94.5993C597.078 99.466 601.624 103 607 103V99ZM610 99H607V103H610V99ZM612 106.5V101H608V106.5H612ZM612.162 107.704C612.057 107.323 612 106.92 612 106.5H608C608 107.284 608.107 108.045 608.307 108.771L612.162 107.704ZM612 109.5C612 109.306 612.036 109.124 612.1 108.959L608.37 107.515C608.13 108.134 608 108.804 608 109.5H612ZM613.5 111C612.672 111 612 110.328 612 109.5H608C608 112.538 610.462 115 613.5 115V111ZM616.49 111H613.5V115H616.49V111ZM616.502 111L616.491 111L616.488 115L616.498 115L616.502 111ZM616.509 111L616.498 111L616.502 115L616.512 115L616.509 111ZM659.5 111H616.51V115H659.5V111ZM661 109.5C661 110.328 660.328 111 659.5 111V115C662.538 115 665 112.538 665 109.5H661ZM659.5 108C660.328 108 661 108.672 661 109.5H665C665 106.462 662.538 104 659.5 104V108ZM657.826 108H659.5V104H657.826V108ZM656 104.5C656 104.86 655.958 105.208 655.88 105.54L659.773 106.46C659.922 105.829 660 105.172 660 104.5H656ZM656 101V104.5H660V101H656ZM663 99H658V103H663V99ZM671 91C671 95.4183 667.418 99 663 99V103C669.627 103 675 97.6274 675 91H671ZM671 74V91H675V74H671ZM663 66C667.418 66 671 69.5817 671 74H675C675 67.3726 669.627 62 663 62V66ZM660.95 66H663V62H660.95V66ZM652.29 53L659.218 65L662.683 63L655.754 51L652.29 53ZM659.5 50H654.022V54H659.5V50ZM665 44.5C665 47.5376 662.538 50 659.5 50V54C664.747 54 669 49.7467 669 44.5H665ZM663.239 40.4663C664.325 41.4735 665 42.9064 665 44.5H669C669 41.7475 667.827 39.266 665.959 37.5337L663.239 40.4663ZM680.5 37H664.599V41H680.5V37ZM686 31.5C686 34.5376 683.538 37 680.5 37V41C685.747 41 690 36.7467 690 31.5H686ZM680.5 26C683.538 26 686 28.4624 686 31.5H690C690 26.2533 685.747 22 680.5 22V26ZM613 26H680.5V22H613V26ZM611 7.5V24H615V7.5H611ZM592 52V61H596V52H592ZM597 50H594V54H597V50ZM599 61V52H595V61H599ZM594 63H597V59H594V63ZM647.12 105.54C647.042 105.208 647 104.86 647 104.5H643C643 105.172 643.078 105.829 643.227 106.46L647.12 105.54ZM623 108H645.174V104H623V108ZM621 101V106H625V101H621ZM645 99H623V103H645V99ZM647 104.5V101H643V104.5H647Z" fill="#012137" mask="url(#path-29-inside-2_2505_24170)"/>
<path d="M639.97 69.0198C639.97 75.6298 634.6 80.9998 627.99 80.9998C621.38 80.9998 616.01 75.6298 616.01 69.0198C616.01 62.4098 621.38 57.0398 627.99 57.0398C631.67 57.0398 634.96 58.7098 637.16 61.3198C634.66 61.4798 632.17 61.2398 629.78 60.6098V64.8598C631.7 65.2798 633.67 65.5098 635.66 65.5098C637.5 65.5098 639.36 65.3198 641.21 64.9498C641.85 64.7898 642.39 64.3198 642.64 63.7098C642.69 63.5898 642.72 63.4798 642.75 63.3598C643.53 59.5398 643.47 55.6898 642.65 52.0098H638.39C638.87 53.8298 639.13 55.7198 639.15 57.6298C636.27 54.7998 632.34 53.0498 627.99 53.0498C619.18 53.0498 612.01 60.2198 612.01 69.0298C612.01 77.8398 619.18 85.0098 627.99 85.0098C636.8 85.0098 643.97 77.8398 643.97 69.0298H639.97V69.0198Z" fill="#1FA4F1"/>
<path d="M664 38H575.5" stroke="#012137" stroke-width="2"/>
<path d="M630 20L630 24" stroke="#012137" stroke-width="2" stroke-linecap="round"/>
<path d="M647 20L647 24" stroke="#012137" stroke-width="2" stroke-linecap="round"/>
<path d="M664 20L664 24" stroke="#012137" stroke-width="2" stroke-linecap="round"/>
<path d="M681 20L681 24" stroke="#012137" stroke-width="2" stroke-linecap="round"/>
<path d="M598 93L598 63" stroke="#012137" stroke-width="2"/>
<path d="M593 62L580 62" stroke="#012137" stroke-width="2"/>
<path d="M593 51L580 51" stroke="#012137" stroke-width="2"/>
<path d="M660 100L611 100" stroke="#012137" stroke-width="2"/>
<g clip-path="url(#clip3_2505_24170)">
<rect y="22" width="91" height="91" rx="12" fill="white"/>
<path d="M89.9977 34.999V34.9993V100.001C89.9977 106.628 84.6256 112 77.9984 112H12.9993C6.37218 112 1 106.628 1 99.9984V34.9993C1 28.3721 6.37207 23 12.9993 23H78.0007C84.628 23 89.9998 28.3721 89.9977 34.999Z" stroke="#012137" stroke-width="2"/>
<path d="M13.3247 31.125H77.6748C79.9954 31.125 81.8754 33.0067 81.8754 35.3257V86.6764C81.8754 88.997 79.9937 90.8771 77.6748 90.8771H13.3247C11.0041 90.8771 9.12402 88.9953 9.12402 86.6764V35.3257C9.12402 33.005 11.0058 31.125 13.3247 31.125Z" stroke="#012137" stroke-width="2"/>
<path d="M44.3268 62.743C47.4683 64.8572 50.5616 66.3041 53.5197 67.0447C56.2805 67.7372 58.8808 67.8083 61.2473 67.258C64.4369 66.5173 66.7346 64.7196 68.4681 62.1605C68.9336 61.4566 68.9313 60.5348 68.4635 59.8308C67.661 58.6178 66.7735 57.4804 65.8105 56.4256C65.7371 58.1018 65.3014 59.2369 64.8932 59.95C63.9714 61.5506 62.3411 62.6925 60.2979 63.1672C58.5873 63.5639 56.6497 63.4974 54.5424 62.97C52.059 62.3486 49.4105 61.0988 46.6726 59.2575C43.5311 57.1433 40.4378 55.6964 37.4797 54.9557C34.7189 54.2632 32.1186 54.1922 29.7521 54.7425C26.5625 55.4831 24.2648 57.2809 22.5313 59.84C22.0658 60.5439 22.0681 61.4657 22.5359 62.1697C23.3384 63.3827 24.2259 64.5201 25.1889 65.5749C25.2623 63.8987 25.698 62.7636 26.1062 62.0505C27.028 60.4499 28.6583 59.308 30.7014 58.8333C32.4121 58.4366 34.3497 58.5031 36.457 59.0305C38.9404 59.6519 41.5889 60.9016 44.3268 62.743Z" fill="#B4DBFF"/>
<path d="M48.874 55.985C52.9373 58.7183 56.7782 59.9359 59.406 59.326C60.3714 59.1012 61.1052 58.6243 61.4743 57.9822C61.8183 57.3837 61.9513 56.3312 61.8389 55.093C61.8343 55.0311 61.8275 54.9714 61.8206 54.9095C60.9905 55.1641 59.8417 55.3842 58.3649 55.3842C57.7481 55.3842 57.2414 55.3223 56.918 55.2581C55.7761 55.0333 53.8499 54.3867 51.1625 52.5798C47.9545 50.422 44.7281 48.8054 41.5431 47.7598C38.5713 48.1886 35.7187 49.0966 33.084 50.4312C34.813 50.4358 36.6038 50.6697 38.436 51.1283C41.8389 51.9813 45.3496 53.6139 48.8717 55.9827L48.874 55.985Z" fill="#B4DBFF"/>
<path d="M42.1251 66.0147C38.0618 63.2814 34.2209 62.0637 31.593 62.6737C30.6277 62.8984 29.8939 63.3754 29.5247 64.0174C29.1807 64.6159 29.0477 65.6684 29.1601 66.9067C29.1647 66.9686 29.1716 67.0282 29.1785 67.0901C30.0085 66.8356 31.1574 66.6155 32.6341 66.6155C33.2509 66.6155 33.7577 66.6774 34.081 66.7416C35.223 66.9663 37.1491 67.6129 39.8366 69.4199C43.0446 71.5776 46.2732 73.1942 49.4583 74.2399C52.4301 73.8111 55.2849 72.903 57.9219 71.5685C56.1907 71.5639 54.3975 71.3323 52.5631 70.8714C49.1602 70.0184 45.6495 68.3857 42.1273 66.017L42.1251 66.0147Z" fill="#B4DBFF"/>
</g>
<g clip-path="url(#clip4_2505_24170)">
<rect x="194" y="27" width="123" height="80" rx="10" fill="white"/>
<path d="M112.85 40.4444C107.567 34.5185 102.284 34.5185 97.0002 40.4444L97 180.5L414 180.5L414 40.4444C408.717 34.5185 403.433 34.5185 398.15 40.4444C392.867 34.5185 387.583 34.5185 382.3 40.4444C377.017 34.5185 371.733 34.5185 366.45 40.4444C361.167 34.5185 355.883 34.5185 350.6 40.4444C345.317 34.5185 340.033 34.5185 334.75 40.4444C329.467 34.5185 324.183 34.5185 318.9 40.4444C313.617 34.5185 308.333 34.5185 303.05 40.4444C297.767 34.5185 292.483 34.5185 287.2 40.4444C281.917 34.5185 276.633 34.5185 271.35 40.4444C266.067 34.5185 260.783 34.5185 255.5 40.4444C250.217 34.5185 244.933 34.5185 239.65 40.4444C234.367 34.5185 229.084 34.5185 223.8 40.4444C218.517 34.5185 213.234 34.5185 207.95 40.4444C202.667 34.5185 197.383 34.5185 192.1 40.4444C186.817 34.5185 181.534 34.5185 176.25 40.4444C170.967 34.5185 165.684 34.5185 160.4 40.4444C155.117 34.5185 149.833 34.5185 144.55 40.4444C139.267 34.5185 133.984 34.5185 128.7 40.4444C123.417 34.5185 118.134 34.5185 112.85 40.4444Z" fill="#00D791"/>
<path d="M246.136 63.726H240.732V66.834H244.96V67.8H240.732V72H239.696V62.76H246.136V63.726ZM251.382 67.464C251.382 66.9227 251.237 66.5073 250.948 66.218C250.659 65.9193 250.248 65.77 249.716 65.77C249.221 65.77 248.801 65.8773 248.456 66.092C248.111 66.3067 247.854 66.652 247.686 67.128L246.846 66.61C247.042 66.078 247.387 65.6533 247.882 65.336C248.386 65.0187 249.007 64.86 249.744 64.86C250.248 64.86 250.701 64.9487 251.102 65.126C251.513 65.294 251.835 65.5553 252.068 65.91C252.301 66.2647 252.418 66.7127 252.418 67.254V70.67C252.418 71.034 252.605 71.216 252.978 71.216C253.155 71.216 253.328 71.1927 253.496 71.146L253.44 71.958C253.263 72.0513 253.029 72.098 252.74 72.098C252.479 72.098 252.241 72.0513 252.026 71.958C251.821 71.8553 251.657 71.7013 251.536 71.496C251.415 71.2813 251.354 71.0153 251.354 70.698V70.516L251.62 70.544C251.517 70.9173 251.326 71.2207 251.046 71.454C250.775 71.6873 250.467 71.86 250.122 71.972C249.777 72.084 249.436 72.14 249.1 72.14C248.689 72.14 248.307 72.07 247.952 71.93C247.597 71.79 247.317 71.58 247.112 71.3C246.907 71.02 246.804 70.67 246.804 70.25C246.804 69.7273 246.977 69.298 247.322 68.962C247.677 68.626 248.167 68.3973 248.792 68.276L251.592 67.73V68.584L249.282 69.06C248.806 69.1533 248.451 69.2887 248.218 69.466C247.985 69.6433 247.868 69.886 247.868 70.194C247.868 70.5113 247.985 70.7633 248.218 70.95C248.461 71.1367 248.806 71.23 249.254 71.23C249.525 71.23 249.786 71.1973 250.038 71.132C250.29 71.0573 250.519 70.9453 250.724 70.796C250.929 70.6467 251.088 70.46 251.2 70.236C251.321 70.012 251.382 69.746 251.382 69.438V67.464ZM255.1 72V65H255.954L256.094 66.204C256.28 65.7653 256.565 65.434 256.948 65.21C257.33 64.9767 257.792 64.86 258.334 64.86C258.464 64.86 258.604 64.874 258.754 64.902C258.903 64.9207 259.029 64.958 259.132 65.014L258.936 65.966C258.833 65.9193 258.721 65.8867 258.6 65.868C258.478 65.84 258.306 65.826 258.082 65.826C257.774 65.826 257.47 65.9147 257.172 66.092C256.873 66.2693 256.626 66.5353 256.43 66.89C256.234 67.2353 256.136 67.6693 256.136 68.192V72H255.1ZM260.732 72V65H261.642L261.712 66.162C261.955 65.7233 262.282 65.3967 262.692 65.182C263.112 64.9673 263.551 64.86 264.008 64.86C264.531 64.86 265.012 64.9813 265.45 65.224C265.889 65.4573 266.216 65.8167 266.43 66.302C266.58 65.9753 266.79 65.7093 267.06 65.504C267.331 65.2893 267.63 65.1307 267.956 65.028C268.292 64.916 268.614 64.86 268.922 64.86C269.38 64.86 269.809 64.9533 270.21 65.14C270.612 65.3267 270.938 65.616 271.19 66.008C271.452 66.4 271.582 66.8993 271.582 67.506V72H270.546V67.604C270.546 66.96 270.383 66.4933 270.056 66.204C269.73 65.9147 269.319 65.77 268.824 65.77C268.442 65.77 268.087 65.8633 267.76 66.05C267.434 66.2273 267.172 66.4933 266.976 66.848C266.78 67.1933 266.682 67.618 266.682 68.122V72H265.646V67.618C265.646 66.9647 265.478 66.4933 265.142 66.204C264.816 65.9147 264.41 65.77 263.924 65.77C263.588 65.77 263.252 65.8587 262.916 66.036C262.59 66.204 262.314 66.47 262.09 66.834C261.876 67.1887 261.768 67.6507 261.768 68.22V72H260.732Z" fill="#012137"/>
</g>
<g clip-path="url(#clip5_2505_24170)">
<rect x="194" y="27" width="123" height="80" rx="10" fill="white"/>
<path d="M112.85 40.4444C107.567 34.5185 102.284 34.5185 97.0002 40.4444L97 180.5L414 180.5L414 40.4444C408.717 34.5185 403.433 34.5185 398.15 40.4444C392.867 34.5185 387.583 34.5185 382.3 40.4444C377.017 34.5185 371.733 34.5185 366.45 40.4444C361.167 34.5185 355.883 34.5185 350.6 40.4444C345.317 34.5185 340.033 34.5185 334.75 40.4444C329.467 34.5185 324.183 34.5185 318.9 40.4444C313.617 34.5185 308.333 34.5185 303.05 40.4444C297.767 34.5185 292.483 34.5185 287.2 40.4444C281.917 34.5185 276.633 34.5185 271.35 40.4444C266.067 34.5185 260.783 34.5185 255.5 40.4444C250.217 34.5185 244.933 34.5185 239.65 40.4444C234.367 34.5185 229.084 34.5185 223.8 40.4444C218.517 34.5185 213.234 34.5185 207.95 40.4444C202.667 34.5185 197.383 34.5185 192.1 40.4444C186.817 34.5185 181.534 34.5185 176.25 40.4444C170.967 34.5185 165.684 34.5185 160.4 40.4444C155.117 34.5185 149.833 34.5185 144.55 40.4444C139.267 34.5185 133.984 34.5185 128.7 40.4444C123.417 34.5185 118.134 34.5185 112.85 40.4444Z" fill="#00D791"/>
<path d="M246.136 63.726H240.732V66.834H244.96V67.8H240.732V72H239.696V62.76H246.136V63.726ZM251.382 67.464C251.382 66.9227 251.237 66.5073 250.948 66.218C250.659 65.9193 250.248 65.77 249.716 65.77C249.221 65.77 248.801 65.8773 248.456 66.092C248.111 66.3067 247.854 66.652 247.686 67.128L246.846 66.61C247.042 66.078 247.387 65.6533 247.882 65.336C248.386 65.0187 249.007 64.86 249.744 64.86C250.248 64.86 250.701 64.9487 251.102 65.126C251.513 65.294 251.835 65.5553 252.068 65.91C252.301 66.2647 252.418 66.7127 252.418 67.254V70.67C252.418 71.034 252.605 71.216 252.978 71.216C253.155 71.216 253.328 71.1927 253.496 71.146L253.44 71.958C253.263 72.0513 253.029 72.098 252.74 72.098C252.479 72.098 252.241 72.0513 252.026 71.958C251.821 71.8553 251.657 71.7013 251.536 71.496C251.415 71.2813 251.354 71.0153 251.354 70.698V70.516L251.62 70.544C251.517 70.9173 251.326 71.2207 251.046 71.454C250.775 71.6873 250.467 71.86 250.122 71.972C249.777 72.084 249.436 72.14 249.1 72.14C248.689 72.14 248.307 72.07 247.952 71.93C247.597 71.79 247.317 71.58 247.112 71.3C246.907 71.02 246.804 70.67 246.804 70.25C246.804 69.7273 246.977 69.298 247.322 68.962C247.677 68.626 248.167 68.3973 248.792 68.276L251.592 67.73V68.584L249.282 69.06C248.806 69.1533 248.451 69.2887 248.218 69.466C247.985 69.6433 247.868 69.886 247.868 70.194C247.868 70.5113 247.985 70.7633 248.218 70.95C248.461 71.1367 248.806 71.23 249.254 71.23C249.525 71.23 249.786 71.1973 250.038 71.132C250.29 71.0573 250.519 70.9453 250.724 70.796C250.929 70.6467 251.088 70.46 251.2 70.236C251.321 70.012 251.382 69.746 251.382 69.438V67.464ZM255.1 72V65H255.954L256.094 66.204C256.28 65.7653 256.565 65.434 256.948 65.21C257.33 64.9767 257.792 64.86 258.334 64.86C258.464 64.86 258.604 64.874 258.754 64.902C258.903 64.9207 259.029 64.958 259.132 65.014L258.936 65.966C258.833 65.9193 258.721 65.8867 258.6 65.868C258.478 65.84 258.306 65.826 258.082 65.826C257.774 65.826 257.47 65.9147 257.172 66.092C256.873 66.2693 256.626 66.5353 256.43 66.89C256.234 67.2353 256.136 67.6693 256.136 68.192V72H255.1ZM260.732 72V65H261.642L261.712 66.162C261.955 65.7233 262.282 65.3967 262.692 65.182C263.112 64.9673 263.551 64.86 264.008 64.86C264.531 64.86 265.012 64.9813 265.45 65.224C265.889 65.4573 266.216 65.8167 266.43 66.302C266.58 65.9753 266.79 65.7093 267.06 65.504C267.331 65.2893 267.63 65.1307 267.956 65.028C268.292 64.916 268.614 64.86 268.922 64.86C269.38 64.86 269.809 64.9533 270.21 65.14C270.612 65.3267 270.938 65.616 271.19 66.008C271.452 66.4 271.582 66.8993 271.582 67.506V72H270.546V67.604C270.546 66.96 270.383 66.4933 270.056 66.204C269.73 65.9147 269.319 65.77 268.824 65.77C268.442 65.77 268.087 65.8633 267.76 66.05C267.434 66.2273 267.172 66.4933 266.976 66.848C266.78 67.1933 266.682 67.618 266.682 68.122V72H265.646V67.618C265.646 66.9647 265.478 66.4933 265.142 66.204C264.816 65.9147 264.41 65.77 263.924 65.77C263.588 65.77 263.252 65.8587 262.916 66.036C262.59 66.204 262.314 66.47 262.09 66.834C261.876 67.1887 261.768 67.6507 261.768 68.22V72H260.732Z" fill="#012137"/>
</g>
<g clip-path="url(#clip6_2505_24170)">
<rect x="194" y="27" width="123" height="80" rx="10" fill="white"/>
<path d="M112.85 40.4444C107.567 34.5185 102.284 34.5185 97.0002 40.4444L97 180.5L414 180.5L414 40.4444C408.717 34.5185 403.433 34.5185 398.15 40.4444C392.867 34.5185 387.583 34.5185 382.3 40.4444C377.017 34.5185 371.733 34.5185 366.45 40.4444C361.167 34.5185 355.883 34.5185 350.6 40.4444C345.317 34.5185 340.033 34.5185 334.75 40.4444C329.467 34.5185 324.183 34.5185 318.9 40.4444C313.617 34.5185 308.333 34.5185 303.05 40.4444C297.767 34.5185 292.483 34.5185 287.2 40.4444C281.917 34.5185 276.633 34.5185 271.35 40.4444C266.067 34.5185 260.783 34.5185 255.5 40.4444C250.217 34.5185 244.933 34.5185 239.65 40.4444C234.367 34.5185 229.084 34.5185 223.8 40.4444C218.517 34.5185 213.234 34.5185 207.95 40.4444C202.667 34.5185 197.383 34.5185 192.1 40.4444C186.817 34.5185 181.534 34.5185 176.25 40.4444C170.967 34.5185 165.684 34.5185 160.4 40.4444C155.117 34.5185 149.833 34.5185 144.55 40.4444C139.267 34.5185 133.984 34.5185 128.7 40.4444C123.417 34.5185 118.134 34.5185 112.85 40.4444Z" fill="#00D791"/>
<path d="M246.136 63.726H240.732V66.834H244.96V67.8H240.732V72H239.696V62.76H246.136V63.726ZM251.382 67.464C251.382 66.9227 251.237 66.5073 250.948 66.218C250.659 65.9193 250.248 65.77 249.716 65.77C249.221 65.77 248.801 65.8773 248.456 66.092C248.111 66.3067 247.854 66.652 247.686 67.128L246.846 66.61C247.042 66.078 247.387 65.6533 247.882 65.336C248.386 65.0187 249.007 64.86 249.744 64.86C250.248 64.86 250.701 64.9487 251.102 65.126C251.513 65.294 251.835 65.5553 252.068 65.91C252.301 66.2647 252.418 66.7127 252.418 67.254V70.67C252.418 71.034 252.605 71.216 252.978 71.216C253.155 71.216 253.328 71.1927 253.496 71.146L253.44 71.958C253.263 72.0513 253.029 72.098 252.74 72.098C252.479 72.098 252.241 72.0513 252.026 71.958C251.821 71.8553 251.657 71.7013 251.536 71.496C251.415 71.2813 251.354 71.0153 251.354 70.698V70.516L251.62 70.544C251.517 70.9173 251.326 71.2207 251.046 71.454C250.775 71.6873 250.467 71.86 250.122 71.972C249.777 72.084 249.436 72.14 249.1 72.14C248.689 72.14 248.307 72.07 247.952 71.93C247.597 71.79 247.317 71.58 247.112 71.3C246.907 71.02 246.804 70.67 246.804 70.25C246.804 69.7273 246.977 69.298 247.322 68.962C247.677 68.626 248.167 68.3973 248.792 68.276L251.592 67.73V68.584L249.282 69.06C248.806 69.1533 248.451 69.2887 248.218 69.466C247.985 69.6433 247.868 69.886 247.868 70.194C247.868 70.5113 247.985 70.7633 248.218 70.95C248.461 71.1367 248.806 71.23 249.254 71.23C249.525 71.23 249.786 71.1973 250.038 71.132C250.29 71.0573 250.519 70.9453 250.724 70.796C250.929 70.6467 251.088 70.46 251.2 70.236C251.321 70.012 251.382 69.746 251.382 69.438V67.464ZM255.1 72V65H255.954L256.094 66.204C256.28 65.7653 256.565 65.434 256.948 65.21C257.33 64.9767 257.792 64.86 258.334 64.86C258.464 64.86 258.604 64.874 258.754 64.902C258.903 64.9207 259.029 64.958 259.132 65.014L258.936 65.966C258.833 65.9193 258.721 65.8867 258.6 65.868C258.478 65.84 258.306 65.826 258.082 65.826C257.774 65.826 257.47 65.9147 257.172 66.092C256.873 66.2693 256.626 66.5353 256.43 66.89C256.234 67.2353 256.136 67.6693 256.136 68.192V72H255.1ZM260.732 72V65H261.642L261.712 66.162C261.955 65.7233 262.282 65.3967 262.692 65.182C263.112 64.9673 263.551 64.86 264.008 64.86C264.531 64.86 265.012 64.9813 265.45 65.224C265.889 65.4573 266.216 65.8167 266.43 66.302C266.58 65.9753 266.79 65.7093 267.06 65.504C267.331 65.2893 267.63 65.1307 267.956 65.028C268.292 64.916 268.614 64.86 268.922 64.86C269.38 64.86 269.809 64.9533 270.21 65.14C270.612 65.3267 270.938 65.616 271.19 66.008C271.452 66.4 271.582 66.8993 271.582 67.506V72H270.546V67.604C270.546 66.96 270.383 66.4933 270.056 66.204C269.73 65.9147 269.319 65.77 268.824 65.77C268.442 65.77 268.087 65.8633 267.76 66.05C267.434 66.2273 267.172 66.4933 266.976 66.848C266.78 67.1933 266.682 67.618 266.682 68.122V72H265.646V67.618C265.646 66.9647 265.478 66.4933 265.142 66.204C264.816 65.9147 264.41 65.77 263.924 65.77C263.588 65.77 263.252 65.8587 262.916 66.036C262.59 66.204 262.314 66.47 262.09 66.834C261.876 67.1887 261.768 67.6507 261.768 68.22V72H260.732Z" fill="#012137"/>
</g>
<g clip-path="url(#clip7_2505_24170)">
<rect x="194" y="27" width="123" height="80" rx="10" fill="white"/>
<path d="M112.85 45.2228C107.567 36.8888 102.283 36.8888 97 45.2228V120H414V45.2228C408.717 29.1176 403.433 29.1176 398.15 45.2228C392.867 38.1234 387.583 38.1234 382.3 45.2228C377.017 33.8202 371.733 33.8202 366.45 45.2228C361.167 39.812 355.883 39.812 350.6 45.2228C345.317 40.0662 340.033 40.0662 334.75 45.2228C329.467 35.9809 324.183 35.9809 318.9 45.2228C313.617 35.9991 308.333 35.9991 303.05 45.2228C297.767 35.0912 292.483 35.0912 287.2 45.2228C281.917 27.8466 276.633 27.8466 271.35 45.2228C266.067 28.3368 260.783 28.3368 255.5 45.2228C250.217 30.1888 244.933 30.1888 239.65 45.2228C234.367 40.0844 229.083 40.0844 223.8 45.2228C218.517 36.217 213.233 36.217 207.95 45.2228C202.667 27.5924 197.383 27.5924 192.1 45.2228C186.817 40.9922 181.533 40.9922 176.25 45.2228C170.967 40.3749 165.683 40.3749 160.4 45.2228C155.117 27.7195 149.833 27.7195 144.55 45.2228C139.267 28.119 133.983 28.119 128.7 45.2228C123.417 33.3482 118.133 33.3482 112.85 45.2228Z" fill="#FF4D80"/>
<path d="M246.136 63.726H240.732V66.834H244.96V67.8H240.732V72H239.696V62.76H246.136V63.726ZM251.382 67.464C251.382 66.9227 251.237 66.5073 250.948 66.218C250.659 65.9193 250.248 65.77 249.716 65.77C249.221 65.77 248.801 65.8773 248.456 66.092C248.111 66.3067 247.854 66.652 247.686 67.128L246.846 66.61C247.042 66.078 247.387 65.6533 247.882 65.336C248.386 65.0187 249.007 64.86 249.744 64.86C250.248 64.86 250.701 64.9487 251.102 65.126C251.513 65.294 251.835 65.5553 252.068 65.91C252.301 66.2647 252.418 66.7127 252.418 67.254V70.67C252.418 71.034 252.605 71.216 252.978 71.216C253.155 71.216 253.328 71.1927 253.496 71.146L253.44 71.958C253.263 72.0513 253.029 72.098 252.74 72.098C252.479 72.098 252.241 72.0513 252.026 71.958C251.821 71.8553 251.657 71.7013 251.536 71.496C251.415 71.2813 251.354 71.0153 251.354 70.698V70.516L251.62 70.544C251.517 70.9173 251.326 71.2207 251.046 71.454C250.775 71.6873 250.467 71.86 250.122 71.972C249.777 72.084 249.436 72.14 249.1 72.14C248.689 72.14 248.307 72.07 247.952 71.93C247.597 71.79 247.317 71.58 247.112 71.3C246.907 71.02 246.804 70.67 246.804 70.25C246.804 69.7273 246.977 69.298 247.322 68.962C247.677 68.626 248.167 68.3973 248.792 68.276L251.592 67.73V68.584L249.282 69.06C248.806 69.1533 248.451 69.2887 248.218 69.466C247.985 69.6433 247.868 69.886 247.868 70.194C247.868 70.5113 247.985 70.7633 248.218 70.95C248.461 71.1367 248.806 71.23 249.254 71.23C249.525 71.23 249.786 71.1973 250.038 71.132C250.29 71.0573 250.519 70.9453 250.724 70.796C250.929 70.6467 251.088 70.46 251.2 70.236C251.321 70.012 251.382 69.746 251.382 69.438V67.464ZM255.1 72V65H255.954L256.094 66.204C256.28 65.7653 256.565 65.434 256.948 65.21C257.33 64.9767 257.792 64.86 258.334 64.86C258.464 64.86 258.604 64.874 258.754 64.902C258.903 64.9207 259.029 64.958 259.132 65.014L258.936 65.966C258.833 65.9193 258.721 65.8867 258.6 65.868C258.478 65.84 258.306 65.826 258.082 65.826C257.774 65.826 257.47 65.9147 257.172 66.092C256.873 66.2693 256.626 66.5353 256.43 66.89C256.234 67.2353 256.136 67.6693 256.136 68.192V72H255.1ZM260.732 72V65H261.642L261.712 66.162C261.955 65.7233 262.282 65.3967 262.692 65.182C263.112 64.9673 263.551 64.86 264.008 64.86C264.531 64.86 265.012 64.9813 265.45 65.224C265.889 65.4573 266.216 65.8167 266.43 66.302C266.58 65.9753 266.79 65.7093 267.06 65.504C267.331 65.2893 267.63 65.1307 267.956 65.028C268.292 64.916 268.614 64.86 268.922 64.86C269.38 64.86 269.809 64.9533 270.21 65.14C270.612 65.3267 270.938 65.616 271.19 66.008C271.452 66.4 271.582 66.8993 271.582 67.506V72H270.546V67.604C270.546 66.96 270.383 66.4933 270.056 66.204C269.73 65.9147 269.319 65.77 268.824 65.77C268.442 65.77 268.087 65.8633 267.76 66.05C267.434 66.2273 267.172 66.4933 266.976 66.848C266.78 67.1933 266.682 67.618 266.682 68.122V72H265.646V67.618C265.646 66.9647 265.478 66.4933 265.142 66.204C264.816 65.9147 264.41 65.77 263.924 65.77C263.588 65.77 263.252 65.8587 262.916 66.036C262.59 66.204 262.314 66.47 262.09 66.834C261.876 67.1887 261.768 67.6507 261.768 68.22V72H260.732Z" fill="#012137"/>
</g>
<g clip-path="url(#clip8_2505_24170)">
<rect x="194" y="27" width="123" height="80" rx="10" fill="white"/>
<path d="M112.85 40.4444C107.567 34.5185 102.284 34.5185 97.0002 40.4444L97 180.5L414 180.5L414 40.4444C408.717 34.5185 403.433 34.5185 398.15 40.4444C392.867 34.5185 387.583 34.5185 382.3 40.4444C377.017 34.5185 371.733 34.5185 366.45 40.4444C361.167 34.5185 355.883 34.5185 350.6 40.4444C345.317 34.5185 340.033 34.5185 334.75 40.4444C329.467 34.5185 324.183 34.5185 318.9 40.4444C313.617 34.5185 308.333 34.5185 303.05 40.4444C297.767 34.5185 292.483 34.5185 287.2 40.4444C281.917 34.5185 276.633 34.5185 271.35 40.4444C266.067 34.5185 260.783 34.5185 255.5 40.4444C250.217 34.5185 244.933 34.5185 239.65 40.4444C234.367 34.5185 229.084 34.5185 223.8 40.4444C218.517 34.5185 213.234 34.5185 207.95 40.4444C202.667 34.5185 197.383 34.5185 192.1 40.4444C186.817 34.5185 181.534 34.5185 176.25 40.4444C170.967 34.5185 165.684 34.5185 160.4 40.4444C155.117 34.5185 149.833 34.5185 144.55 40.4444C139.267 34.5185 133.984 34.5185 128.7 40.4444C123.417 34.5185 118.134 34.5185 112.85 40.4444Z" fill="#00D791"/>
<path d="M246.136 63.726H240.732V66.834H244.96V67.8H240.732V72H239.696V62.76H246.136V63.726ZM251.382 67.464C251.382 66.9227 251.237 66.5073 250.948 66.218C250.659 65.9193 250.248 65.77 249.716 65.77C249.221 65.77 248.801 65.8773 248.456 66.092C248.111 66.3067 247.854 66.652 247.686 67.128L246.846 66.61C247.042 66.078 247.387 65.6533 247.882 65.336C248.386 65.0187 249.007 64.86 249.744 64.86C250.248 64.86 250.701 64.9487 251.102 65.126C251.513 65.294 251.835 65.5553 252.068 65.91C252.301 66.2647 252.418 66.7127 252.418 67.254V70.67C252.418 71.034 252.605 71.216 252.978 71.216C253.155 71.216 253.328 71.1927 253.496 71.146L253.44 71.958C253.263 72.0513 253.029 72.098 252.74 72.098C252.479 72.098 252.241 72.0513 252.026 71.958C251.821 71.8553 251.657 71.7013 251.536 71.496C251.415 71.2813 251.354 71.0153 251.354 70.698V70.516L251.62 70.544C251.517 70.9173 251.326 71.2207 251.046 71.454C250.775 71.6873 250.467 71.86 250.122 71.972C249.777 72.084 249.436 72.14 249.1 72.14C248.689 72.14 248.307 72.07 247.952 71.93C247.597 71.79 247.317 71.58 247.112 71.3C246.907 71.02 246.804 70.67 246.804 70.25C246.804 69.7273 246.977 69.298 247.322 68.962C247.677 68.626 248.167 68.3973 248.792 68.276L251.592 67.73V68.584L249.282 69.06C248.806 69.1533 248.451 69.2887 248.218 69.466C247.985 69.6433 247.868 69.886 247.868 70.194C247.868 70.5113 247.985 70.7633 248.218 70.95C248.461 71.1367 248.806 71.23 249.254 71.23C249.525 71.23 249.786 71.1973 250.038 71.132C250.29 71.0573 250.519 70.9453 250.724 70.796C250.929 70.6467 251.088 70.46 251.2 70.236C251.321 70.012 251.382 69.746 251.382 69.438V67.464ZM255.1 72V65H255.954L256.094 66.204C256.28 65.7653 256.565 65.434 256.948 65.21C257.33 64.9767 257.792 64.86 258.334 64.86C258.464 64.86 258.604 64.874 258.754 64.902C258.903 64.9207 259.029 64.958 259.132 65.014L258.936 65.966C258.833 65.9193 258.721 65.8867 258.6 65.868C258.478 65.84 258.306 65.826 258.082 65.826C257.774 65.826 257.47 65.9147 257.172 66.092C256.873 66.2693 256.626 66.5353 256.43 66.89C256.234 67.2353 256.136 67.6693 256.136 68.192V72H255.1ZM260.732 72V65H261.642L261.712 66.162C261.955 65.7233 262.282 65.3967 262.692 65.182C263.112 64.9673 263.551 64.86 264.008 64.86C264.531 64.86 265.012 64.9813 265.45 65.224C265.889 65.4573 266.216 65.8167 266.43 66.302C266.58 65.9753 266.79 65.7093 267.06 65.504C267.331 65.2893 267.63 65.1307 267.956 65.028C268.292 64.916 268.614 64.86 268.922 64.86C269.38 64.86 269.809 64.9533 270.21 65.14C270.612 65.3267 270.938 65.616 271.19 66.008C271.452 66.4 271.582 66.8993 271.582 67.506V72H270.546V67.604C270.546 66.96 270.383 66.4933 270.056 66.204C269.73 65.9147 269.319 65.77 268.824 65.77C268.442 65.77 268.087 65.8633 267.76 66.05C267.434 66.2273 267.172 66.4933 266.976 66.848C266.78 67.1933 266.682 67.618 266.682 68.122V72H265.646V67.618C265.646 66.9647 265.478 66.4933 265.142 66.204C264.816 65.9147 264.41 65.77 263.924 65.77C263.588 65.77 263.252 65.8587 262.916 66.036C262.59 66.204 262.314 66.47 262.09 66.834C261.876 67.1887 261.768 67.6507 261.768 68.22V72H260.732Z" fill="#012137"/>
</g>
<defs>
<clipPath id="clip0_2505_24170">
<rect y="22" width="91" height="91" rx="12" fill="white"/>
</clipPath>
<clipPath id="clip1_2505_24170">
<rect x="414" y="22" width="122" height="91" rx="13" fill="white"/>
</clipPath>
<clipPath id="clip2_2505_24170">
<rect x="414" y="22" width="122" height="91" rx="13" fill="white"/>
</clipPath>
<clipPath id="clip3_2505_24170">
<rect y="22" width="91" height="91" rx="12" fill="white"/>
</clipPath>
<clipPath id="clip4_2505_24170">
<rect x="194" y="27" width="123" height="80" rx="10" fill="white"/>
</clipPath>
<clipPath id="clip5_2505_24170">
<rect x="194" y="27" width="123" height="80" rx="10" fill="white"/>
</clipPath>
<clipPath id="clip6_2505_24170">
<rect x="194" y="27" width="123" height="80" rx="10" fill="white"/>
</clipPath>
<clipPath id="clip7_2505_24170">
<rect x="194" y="27" width="123" height="80" rx="10" fill="white"/>
</clipPath>
<clipPath id="clip8_2505_24170">
<rect x="194" y="27" width="123" height="80" rx="10" fill="white"/>
</clipPath>
</defs>
</svg>
