<svg width="201" height="348" viewBox="0 0 201 348" fill="none" xmlns="http://www.w3.org/2000/svg">
<path d="M135 145L135 116.5L135 88L135 46C135 37.7157 128.284 31 120 31L87 31" stroke="#B4DBFF" stroke-width="3"/>
<path d="M54 69L54 107L54 126L54 145" stroke="#B4DBFF" stroke-width="3"/>
<path d="M155 212L155 44" stroke="#1FA4F1" stroke-width="3"/>
<path d="M55 211.5L55 193.5" stroke="#1FA4F1" stroke-width="3"/>
<mask id="path-5-inside-1_2505_24808" fill="white">
<path fill-rule="evenodd" clip-rule="evenodd" d="M143.25 268.125C143.25 265.018 140.732 262.5 137.625 262.5C134.518 262.5 132 265.018 132 268.125V280.5H116.625C113.518 280.5 111 283.018 111 286.125C111 288.209 112.133 290.028 113.817 291C113.156 291.381 112.58 291.893 112.125 292.5H104.625C102.761 292.5 101.25 294.011 101.25 295.875C101.25 297.739 102.761 299.25 104.625 299.25H112.125C113.151 300.616 114.785 301.5 116.625 301.5H117.75L117.75 308.25H115.125C112.018 308.25 109.5 310.768 109.5 313.875C109.5 316.982 112.018 319.5 115.125 319.5H131.25V321.75H112.125C109.018 321.75 106.5 324.268 106.5 327.375C106.5 330.482 109.018 333 112.125 333H131.593C132.549 336.043 135.392 338.25 138.75 338.25H141V342.375C141 342.826 141.061 343.263 141.176 343.678C141.062 343.972 141 344.291 141 344.625C141 346.075 142.175 347.25 143.625 347.25H145.875H178.125C179.575 347.25 180.75 346.075 180.75 344.625C180.75 343.175 179.575 342 178.125 342H176.87C176.955 341.639 177 341.262 177 340.875V338.25H180.75C184.892 338.25 188.25 334.892 188.25 330.75V318C188.25 313.858 184.892 310.5 180.75 310.5H179.213L174.017 301.5H178.125C181.232 301.5 183.75 298.982 183.75 295.875C183.75 294.245 183.057 292.777 181.949 291.75H193.875C196.982 291.75 199.5 289.232 199.5 286.125C199.5 283.018 196.982 280.5 193.875 280.5H143.25V268.125ZM129 308.25L129 301.5H131.25V308.25H129ZM167.25 340.875C167.25 341.262 167.295 341.639 167.38 342H150.75V338.25H167.25V340.875Z"/>
</mask>
<path fill-rule="evenodd" clip-rule="evenodd" d="M143.25 268.125C143.25 265.018 140.732 262.5 137.625 262.5C134.518 262.5 132 265.018 132 268.125V280.5H116.625C113.518 280.5 111 283.018 111 286.125C111 288.209 112.133 290.028 113.817 291C113.156 291.381 112.58 291.893 112.125 292.5H104.625C102.761 292.5 101.25 294.011 101.25 295.875C101.25 297.739 102.761 299.25 104.625 299.25H112.125C113.151 300.616 114.785 301.5 116.625 301.5H117.75L117.75 308.25H115.125C112.018 308.25 109.5 310.768 109.5 313.875C109.5 316.982 112.018 319.5 115.125 319.5H131.25V321.75H112.125C109.018 321.75 106.5 324.268 106.5 327.375C106.5 330.482 109.018 333 112.125 333H131.593C132.549 336.043 135.392 338.25 138.75 338.25H141V342.375C141 342.826 141.061 343.263 141.176 343.678C141.062 343.972 141 344.291 141 344.625C141 346.075 142.175 347.25 143.625 347.25H145.875H178.125C179.575 347.25 180.75 346.075 180.75 344.625C180.75 343.175 179.575 342 178.125 342H176.87C176.955 341.639 177 341.262 177 340.875V338.25H180.75C184.892 338.25 188.25 334.892 188.25 330.75V318C188.25 313.858 184.892 310.5 180.75 310.5H179.213L174.017 301.5H178.125C181.232 301.5 183.75 298.982 183.75 295.875C183.75 294.245 183.057 292.777 181.949 291.75H193.875C196.982 291.75 199.5 289.232 199.5 286.125C199.5 283.018 196.982 280.5 193.875 280.5H143.25V268.125ZM129 308.25L129 301.5H131.25V308.25H129ZM167.25 340.875C167.25 341.262 167.295 341.639 167.38 342H150.75V338.25H167.25V340.875Z" fill="white"/>
<path d="M132 280.5V282H133.5V280.5H132ZM113.817 291L114.567 292.299L116.817 291L114.567 289.701L113.817 291ZM112.125 292.5V294H112.874L113.324 293.401L112.125 292.5ZM112.125 299.25L113.324 298.349L112.874 297.75H112.125V299.25ZM117.75 301.5L119.25 301.5L119.25 300H117.75V301.5ZM117.75 308.25V309.75H119.25L119.25 308.25L117.75 308.25ZM131.25 319.5H132.75V318H131.25V319.5ZM131.25 321.75V323.25H132.75V321.75H131.25ZM131.593 333L133.024 332.551L132.694 331.5H131.593V333ZM141 338.25H142.5V336.75H141V338.25ZM141.176 343.678L142.575 344.219L142.754 343.756L142.622 343.278L141.176 343.678ZM176.87 342L175.41 341.655L174.974 343.5H176.87V342ZM177 338.25V336.75H175.5V338.25H177ZM179.213 310.5L177.914 311.25L178.347 312H179.213V310.5ZM174.017 301.5V300H171.419L172.718 302.25L174.017 301.5ZM181.949 291.75V290.25H178.126L180.929 292.85L181.949 291.75ZM143.25 280.5H141.75V282H143.25V280.5ZM129 301.5V300H127.5L127.5 301.5L129 301.5ZM129 308.25L127.5 308.25L127.5 309.75H129V308.25ZM131.25 301.5H132.75V300H131.25V301.5ZM131.25 308.25V309.75H132.75V308.25H131.25ZM167.38 342V343.5H169.276L168.84 341.655L167.38 342ZM150.75 342H149.25V343.5H150.75V342ZM150.75 338.25V336.75H149.25V338.25H150.75ZM167.25 338.25H168.75V336.75H167.25V338.25ZM137.625 264C139.903 264 141.75 265.847 141.75 268.125H144.75C144.75 264.19 141.56 261 137.625 261V264ZM133.5 268.125C133.5 265.847 135.347 264 137.625 264V261C133.69 261 130.5 264.19 130.5 268.125H133.5ZM133.5 280.5V268.125H130.5V280.5H133.5ZM116.625 282H132V279H116.625V282ZM112.5 286.125C112.5 283.847 114.347 282 116.625 282V279C112.69 279 109.5 282.19 109.5 286.125H112.5ZM114.567 289.701C113.328 288.986 112.5 287.651 112.5 286.125H109.5C109.5 288.766 110.938 291.07 113.067 292.299L114.567 289.701ZM113.324 293.401C113.659 292.955 114.082 292.579 114.567 292.299L113.067 289.701C112.23 290.184 111.502 290.831 110.925 291.599L113.324 293.401ZM104.625 294H112.125V291H104.625V294ZM102.75 295.875C102.75 294.839 103.589 294 104.625 294V291C101.933 291 99.75 293.183 99.75 295.875H102.75ZM104.625 297.75C103.589 297.75 102.75 296.911 102.75 295.875H99.75C99.75 298.567 101.933 300.75 104.625 300.75V297.75ZM112.125 297.75H104.625V300.75H112.125V297.75ZM116.625 300C115.276 300 114.079 299.354 113.324 298.349L110.925 300.151C112.223 301.878 114.293 303 116.625 303V300ZM117.75 300H116.625V303H117.75V300ZM119.25 308.25L119.25 301.5L116.25 301.5L116.25 308.25L119.25 308.25ZM115.125 309.75H117.75V306.75H115.125V309.75ZM111 313.875C111 311.597 112.847 309.75 115.125 309.75V306.75C111.19 306.75 108 309.94 108 313.875H111ZM115.125 318C112.847 318 111 316.153 111 313.875H108C108 317.81 111.19 321 115.125 321V318ZM131.25 318H115.125V321H131.25V318ZM132.75 321.75V319.5H129.75V321.75H132.75ZM112.125 323.25H131.25V320.25H112.125V323.25ZM108 327.375C108 325.097 109.847 323.25 112.125 323.25V320.25C108.19 320.25 105 323.44 105 327.375H108ZM112.125 331.5C109.847 331.5 108 329.653 108 327.375H105C105 331.31 108.19 334.5 112.125 334.5V331.5ZM131.593 331.5H112.125V334.5H131.593V331.5ZM138.75 336.75C136.066 336.75 133.789 334.986 133.024 332.551L130.162 333.449C131.309 337.1 134.718 339.75 138.75 339.75V336.75ZM141 336.75H138.75V339.75H141V336.75ZM142.5 342.375V338.25H139.5V342.375H142.5ZM142.622 343.278C142.543 342.992 142.5 342.69 142.5 342.375H139.5C139.5 342.963 139.58 343.534 139.73 344.078L142.622 343.278ZM142.5 344.625C142.5 344.479 142.527 344.343 142.575 344.219L139.777 343.137C139.598 343.6 139.5 344.103 139.5 344.625H142.5ZM143.625 345.75C143.004 345.75 142.5 345.246 142.5 344.625H139.5C139.5 346.903 141.347 348.75 143.625 348.75V345.75ZM145.875 345.75H143.625V348.75H145.875V345.75ZM178.125 345.75H145.875V348.75H178.125V345.75ZM179.25 344.625C179.25 345.246 178.746 345.75 178.125 345.75V348.75C180.403 348.75 182.25 346.903 182.25 344.625H179.25ZM178.125 343.5C178.746 343.5 179.25 344.004 179.25 344.625H182.25C182.25 342.347 180.403 340.5 178.125 340.5V343.5ZM176.87 343.5H178.125V340.5H176.87V343.5ZM175.5 340.875C175.5 341.145 175.469 341.406 175.41 341.655L178.329 342.345C178.441 341.872 178.5 341.379 178.5 340.875H175.5ZM175.5 338.25V340.875H178.5V338.25H175.5ZM180.75 336.75H177V339.75H180.75V336.75ZM186.75 330.75C186.75 334.064 184.064 336.75 180.75 336.75V339.75C185.721 339.75 189.75 335.721 189.75 330.75H186.75ZM186.75 318V330.75H189.75V318H186.75ZM180.75 312C184.064 312 186.75 314.686 186.75 318H189.75C189.75 313.029 185.721 309 180.75 309V312ZM179.213 312H180.75V309H179.213V312ZM172.718 302.25L177.914 311.25L180.512 309.75L175.316 300.75L172.718 302.25ZM178.125 300H174.017V303H178.125V300ZM182.25 295.875C182.25 298.153 180.403 300 178.125 300V303C182.06 303 185.25 299.81 185.25 295.875H182.25ZM180.929 292.85C181.744 293.605 182.25 294.68 182.25 295.875H185.25C185.25 293.811 184.37 291.95 182.969 290.65L180.929 292.85ZM193.875 290.25H181.949V293.25H193.875V290.25ZM198 286.125C198 288.403 196.153 290.25 193.875 290.25V293.25C197.81 293.25 201 290.06 201 286.125H198ZM193.875 282C196.153 282 198 283.847 198 286.125H201C201 282.19 197.81 279 193.875 279V282ZM143.25 282H193.875V279H143.25V282ZM141.75 268.125V280.5H144.75V268.125H141.75ZM127.5 301.5L127.5 308.25L130.5 308.25L130.5 301.5L127.5 301.5ZM131.25 300H129V303H131.25V300ZM132.75 308.25V301.5H129.75V308.25H132.75ZM129 309.75H131.25V306.75H129V309.75ZM168.84 341.655C168.781 341.406 168.75 341.145 168.75 340.875H165.75C165.75 341.379 165.809 341.872 165.921 342.345L168.84 341.655ZM150.75 343.5H167.38V340.5H150.75V343.5ZM149.25 338.25V342H152.25V338.25H149.25ZM167.25 336.75H150.75V339.75H167.25V336.75ZM168.75 340.875V338.25H165.75V340.875H168.75Z" fill="#012137" mask="url(#path-5-inside-1_2505_24808)"/>
<path d="M163.478 314.265C163.478 319.223 159.45 323.25 154.493 323.25C149.535 323.25 145.508 319.223 145.508 314.265C145.508 309.308 149.535 305.28 154.493 305.28C157.253 305.28 159.72 306.533 161.37 308.49C159.495 308.61 157.628 308.43 155.835 307.958V311.145C157.275 311.46 158.753 311.633 160.245 311.633C161.625 311.633 163.02 311.49 164.408 311.213C164.888 311.093 165.293 310.74 165.48 310.283C165.518 310.193 165.54 310.11 165.563 310.02C166.148 307.155 166.103 304.268 165.488 301.508H162.293C162.653 302.873 162.848 304.29 162.863 305.723C160.703 303.6 157.755 302.288 154.493 302.288C147.885 302.288 142.508 307.665 142.508 314.273C142.508 320.88 147.885 326.258 154.493 326.258C161.1 326.258 166.478 320.88 166.478 314.273H163.478V314.265Z" fill="#1FA4F1"/>
<path d="M181.5 291H115.125" stroke="#012137" stroke-width="1.5"/>
<path d="M156 277.5L156 280.5" stroke="#012137" stroke-width="1.5" stroke-linecap="round"/>
<path d="M168.75 277.5L168.75 280.5" stroke="#012137" stroke-width="1.5" stroke-linecap="round"/>
<path d="M181.5 277.5L181.5 280.5" stroke="#012137" stroke-width="1.5" stroke-linecap="round"/>
<path d="M194.25 277.5L194.25 280.5" stroke="#012137" stroke-width="1.5" stroke-linecap="round"/>
<path d="M132 332.25L132 309.75" stroke="#012137" stroke-width="1.5"/>
<path d="M128.25 309L118.5 309" stroke="#012137" stroke-width="1.5"/>
<path d="M128.25 300.75L118.5 300.75" stroke="#012137" stroke-width="1.5"/>
<path d="M178.5 337.5L141.75 337.5" stroke="#012137" stroke-width="1.5"/>
<mask id="path-17-inside-2_2505_24808" fill="white">
<path fill-rule="evenodd" clip-rule="evenodd" d="M42.75 268.125C42.75 265.018 40.2316 262.5 37.125 262.5C34.0184 262.5 31.5 265.018 31.5 268.125V280.5H16.125C13.0184 280.5 10.5 283.018 10.5 286.125C10.5 288.209 11.6331 290.028 13.3169 291C12.6563 291.381 12.0805 291.893 11.6246 292.5H4.125C2.26104 292.5 0.75 294.011 0.75 295.875C0.75 297.739 2.26104 299.25 4.125 299.25H11.6246C12.6508 300.616 14.2847 301.5 16.125 301.5H17.25L17.25 308.25H14.625C11.5184 308.25 9 310.768 9 313.875C9 316.982 11.5184 319.5 14.625 319.5H30.75V321.75H11.625C8.5184 321.75 6 324.268 6 327.375C6 330.482 8.5184 333 11.625 333H31.0934C32.049 336.043 34.8918 338.25 38.25 338.25H40.5V342.375C40.5 342.826 40.5613 343.263 40.6761 343.678C40.5624 343.972 40.5 344.291 40.5 344.625C40.5 346.075 41.6753 347.25 43.125 347.25H45.375H77.625C79.0747 347.25 80.25 346.075 80.25 344.625C80.25 343.175 79.0747 342 77.625 342H76.3696C76.4549 341.639 76.5 341.262 76.5 340.875V338.25H80.25C84.3921 338.25 87.75 334.892 87.75 330.75V318C87.75 313.858 84.3921 310.5 80.25 310.5H78.7131L73.517 301.5H77.625C80.7316 301.5 83.25 298.982 83.25 295.875C83.25 294.245 82.5569 292.777 81.4493 291.75H93.375C96.4816 291.75 99 289.232 99 286.125C99 283.018 96.4816 280.5 93.375 280.5H42.75V268.125ZM28.5 308.25L28.5 301.5H30.75V308.25H28.5ZM66.75 340.875C66.75 341.262 66.7951 341.639 66.8804 342H50.25V338.25H66.75V340.875Z"/>
</mask>
<path fill-rule="evenodd" clip-rule="evenodd" d="M42.75 268.125C42.75 265.018 40.2316 262.5 37.125 262.5C34.0184 262.5 31.5 265.018 31.5 268.125V280.5H16.125C13.0184 280.5 10.5 283.018 10.5 286.125C10.5 288.209 11.6331 290.028 13.3169 291C12.6563 291.381 12.0805 291.893 11.6246 292.5H4.125C2.26104 292.5 0.75 294.011 0.75 295.875C0.75 297.739 2.26104 299.25 4.125 299.25H11.6246C12.6508 300.616 14.2847 301.5 16.125 301.5H17.25L17.25 308.25H14.625C11.5184 308.25 9 310.768 9 313.875C9 316.982 11.5184 319.5 14.625 319.5H30.75V321.75H11.625C8.5184 321.75 6 324.268 6 327.375C6 330.482 8.5184 333 11.625 333H31.0934C32.049 336.043 34.8918 338.25 38.25 338.25H40.5V342.375C40.5 342.826 40.5613 343.263 40.6761 343.678C40.5624 343.972 40.5 344.291 40.5 344.625C40.5 346.075 41.6753 347.25 43.125 347.25H45.375H77.625C79.0747 347.25 80.25 346.075 80.25 344.625C80.25 343.175 79.0747 342 77.625 342H76.3696C76.4549 341.639 76.5 341.262 76.5 340.875V338.25H80.25C84.3921 338.25 87.75 334.892 87.75 330.75V318C87.75 313.858 84.3921 310.5 80.25 310.5H78.7131L73.517 301.5H77.625C80.7316 301.5 83.25 298.982 83.25 295.875C83.25 294.245 82.5569 292.777 81.4493 291.75H93.375C96.4816 291.75 99 289.232 99 286.125C99 283.018 96.4816 280.5 93.375 280.5H42.75V268.125ZM28.5 308.25L28.5 301.5H30.75V308.25H28.5ZM66.75 340.875C66.75 341.262 66.7951 341.639 66.8804 342H50.25V338.25H66.75V340.875Z" fill="white"/>
<path d="M31.5 280.5V282H33V280.5H31.5ZM13.3169 291L14.0668 292.299L16.3172 291L14.0668 289.701L13.3169 291ZM11.6246 292.5V294H12.3739L12.8239 293.401L11.6246 292.5ZM11.6246 299.25L12.8239 298.349L12.3739 297.75H11.6246V299.25ZM17.25 301.5L18.75 301.5L18.75 300H17.25V301.5ZM17.25 308.25V309.75H18.75L18.75 308.25L17.25 308.25ZM30.75 319.5H32.25V318H30.75V319.5ZM30.75 321.75V323.25H32.25V321.75H30.75ZM31.0934 333L32.5244 332.551L32.1945 331.5H31.0934V333ZM40.5 338.25H42V336.75H40.5V338.25ZM40.6761 343.678L42.0749 344.219L42.2541 343.756L42.1217 343.278L40.6761 343.678ZM76.3696 342L74.9097 341.655L74.474 343.5H76.3696V342ZM76.5 338.25V336.75H75V338.25H76.5ZM78.7131 310.5L77.4141 311.25L77.8471 312H78.7131V310.5ZM73.517 301.5V300H70.9189L72.2179 302.25L73.517 301.5ZM81.4493 291.75V290.25H77.6264L80.4292 292.85L81.4493 291.75ZM42.75 280.5H41.25V282H42.75V280.5ZM28.5 301.5V300H27L27 301.5L28.5 301.5ZM28.5 308.25L27 308.25L27 309.75H28.5V308.25ZM30.75 301.5H32.25V300H30.75V301.5ZM30.75 308.25V309.75H32.25V308.25H30.75ZM66.8804 342V343.5H68.776L68.3403 341.655L66.8804 342ZM50.25 342H48.75V343.5H50.25V342ZM50.25 338.25V336.75H48.75V338.25H50.25ZM66.75 338.25H68.25V336.75H66.75V338.25ZM37.125 264C39.4032 264 41.25 265.847 41.25 268.125H44.25C44.25 264.19 41.06 261 37.125 261V264ZM33 268.125C33 265.847 34.8468 264 37.125 264V261C33.19 261 30 264.19 30 268.125H33ZM33 280.5V268.125H30V280.5H33ZM16.125 282H31.5V279H16.125V282ZM12 286.125C12 283.847 13.8468 282 16.125 282V279C12.19 279 9 282.19 9 286.125H12ZM14.0668 289.701C12.8281 288.986 12 287.651 12 286.125H9C9 288.766 10.4381 291.07 12.5669 292.299L14.0668 289.701ZM12.8239 293.401C13.159 292.955 13.5822 292.579 14.0668 292.299L12.5669 289.701C11.7304 290.184 11.0019 290.831 10.4252 291.599L12.8239 293.401ZM4.125 294H11.6246V291H4.125V294ZM2.25 295.875C2.25 294.839 3.08947 294 4.125 294V291C1.43261 291 -0.75 293.183 -0.75 295.875H2.25ZM4.125 297.75C3.08947 297.75 2.25 296.911 2.25 295.875H-0.75C-0.75 298.567 1.43261 300.75 4.125 300.75V297.75ZM11.6246 297.75H4.125V300.75H11.6246V297.75ZM16.125 300C14.7764 300 13.579 299.354 12.8239 298.349L10.4252 300.151C11.7226 301.878 13.793 303 16.125 303V300ZM17.25 300H16.125V303H17.25V300ZM18.75 308.25L18.75 301.5L15.75 301.5L15.75 308.25L18.75 308.25ZM14.625 309.75H17.25V306.75H14.625V309.75ZM10.5 313.875C10.5 311.597 12.3468 309.75 14.625 309.75V306.75C10.69 306.75 7.5 309.94 7.5 313.875H10.5ZM14.625 318C12.3468 318 10.5 316.153 10.5 313.875H7.5C7.5 317.81 10.69 321 14.625 321V318ZM30.75 318H14.625V321H30.75V318ZM32.25 321.75V319.5H29.25V321.75H32.25ZM11.625 323.25H30.75V320.25H11.625V323.25ZM7.5 327.375C7.5 325.097 9.34683 323.25 11.625 323.25V320.25C7.68997 320.25 4.5 323.44 4.5 327.375H7.5ZM11.625 331.5C9.34683 331.5 7.5 329.653 7.5 327.375H4.5C4.5 331.31 7.68997 334.5 11.625 334.5V331.5ZM31.0934 331.5H11.625V334.5H31.0934V331.5ZM38.25 336.75C35.5657 336.75 33.2894 334.986 32.5244 332.551L29.6623 333.449C30.8087 337.1 34.2179 339.75 38.25 339.75V336.75ZM40.5 336.75H38.25V339.75H40.5V336.75ZM42 342.375V338.25H39V342.375H42ZM42.1217 343.278C42.0427 342.992 42 342.69 42 342.375H39C39 342.963 39.0799 343.534 39.2304 344.078L42.1217 343.278ZM42 344.625C42 344.479 42.027 344.343 42.0749 344.219L39.2772 343.137C39.0977 343.6 39 344.103 39 344.625H42ZM43.125 345.75C42.5037 345.75 42 345.246 42 344.625H39C39 346.903 40.8468 348.75 43.125 348.75V345.75ZM45.375 345.75H43.125V348.75H45.375V345.75ZM77.625 345.75H45.375V348.75H77.625V345.75ZM78.75 344.625C78.75 345.246 78.2463 345.75 77.625 345.75V348.75C79.9032 348.75 81.75 346.903 81.75 344.625H78.75ZM77.625 343.5C78.2463 343.5 78.75 344.004 78.75 344.625H81.75C81.75 342.347 79.9032 340.5 77.625 340.5V343.5ZM76.3696 343.5H77.625V340.5H76.3696V343.5ZM75 340.875C75 341.145 74.9685 341.406 74.9097 341.655L77.8294 342.345C77.9412 341.872 78 341.379 78 340.875H75ZM75 338.25V340.875H78V338.25H75ZM80.25 336.75H76.5V339.75H80.25V336.75ZM86.25 330.75C86.25 334.064 83.5637 336.75 80.25 336.75V339.75C85.2206 339.75 89.25 335.721 89.25 330.75H86.25ZM86.25 318V330.75H89.25V318H86.25ZM80.25 312C83.5637 312 86.25 314.686 86.25 318H89.25C89.25 313.029 85.2206 309 80.25 309V312ZM78.7131 312H80.25V309H78.7131V312ZM72.2179 302.25L77.4141 311.25L80.0122 309.75L74.816 300.75L72.2179 302.25ZM77.625 300H73.517V303H77.625V300ZM81.75 295.875C81.75 298.153 79.9032 300 77.625 300V303C81.56 303 84.75 299.81 84.75 295.875H81.75ZM80.4292 292.85C81.2436 293.605 81.75 294.68 81.75 295.875H84.75C84.75 293.811 83.8701 291.95 82.4694 290.65L80.4292 292.85ZM93.375 290.25H81.4493V293.25H93.375V290.25ZM97.5 286.125C97.5 288.403 95.6532 290.25 93.375 290.25V293.25C97.31 293.25 100.5 290.06 100.5 286.125H97.5ZM93.375 282C95.6532 282 97.5 283.847 97.5 286.125H100.5C100.5 282.19 97.31 279 93.375 279V282ZM42.75 282H93.375V279H42.75V282ZM41.25 268.125V280.5H44.25V268.125H41.25ZM27 301.5L27 308.25L30 308.25L30 301.5L27 301.5ZM30.75 300H28.5V303H30.75V300ZM32.25 308.25V301.5H29.25V308.25H32.25ZM28.5 309.75H30.75V306.75H28.5V309.75ZM68.3403 341.655C68.2815 341.406 68.25 341.145 68.25 340.875H65.25C65.25 341.379 65.3088 341.872 65.4206 342.345L68.3403 341.655ZM50.25 343.5H66.8804V340.5H50.25V343.5ZM48.75 338.25V342H51.75V338.25H48.75ZM66.75 336.75H50.25V339.75H66.75V336.75ZM68.25 340.875V338.25H65.25V340.875H68.25Z" fill="#012137" mask="url(#path-17-inside-2_2505_24808)"/>
<path d="M62.9778 314.265C62.9778 319.223 58.9503 323.25 53.9928 323.25C49.0353 323.25 45.0078 319.223 45.0078 314.265C45.0078 309.308 49.0353 305.28 53.9928 305.28C56.7528 305.28 59.2203 306.533 60.8703 308.49C58.9953 308.61 57.1278 308.43 55.3353 307.958V311.145C56.7753 311.46 58.2528 311.633 59.7453 311.633C61.1253 311.633 62.5203 311.49 63.9078 311.213C64.3878 311.093 64.7928 310.74 64.9803 310.283C65.0178 310.193 65.0403 310.11 65.0628 310.02C65.6478 307.155 65.6028 304.268 64.9878 301.508H61.7928C62.1528 302.873 62.3478 304.29 62.3628 305.723C60.2028 303.6 57.2553 302.288 53.9928 302.288C47.3853 302.288 42.0078 307.665 42.0078 314.273C42.0078 320.88 47.3853 326.258 53.9928 326.258C60.6003 326.258 65.9778 320.88 65.9778 314.273H62.9778V314.265Z" fill="#1FA4F1"/>
<path d="M81 291H14.625" stroke="#012137" stroke-width="1.5"/>
<path d="M55.5 277.5L55.5 280.5" stroke="#012137" stroke-width="1.5" stroke-linecap="round"/>
<path d="M68.25 277.5L68.25 280.5" stroke="#012137" stroke-width="1.5" stroke-linecap="round"/>
<path d="M81 277.5L81 280.5" stroke="#012137" stroke-width="1.5" stroke-linecap="round"/>
<path d="M93.75 277.5L93.75 280.5" stroke="#012137" stroke-width="1.5" stroke-linecap="round"/>
<path d="M31.5 332.25L31.5 309.75" stroke="#012137" stroke-width="1.5"/>
<path d="M27.75 309L18 309" stroke="#012137" stroke-width="1.5"/>
<path d="M27.75 300.75L18 300.75" stroke="#012137" stroke-width="1.5"/>
<path d="M78 337.5L41.25 337.5" stroke="#012137" stroke-width="1.5"/>
<g clip-path="url(#clip0_2505_24808)">
<rect x="20" y="0.75" width="68.25" height="68.25" rx="9" fill="white"/>
<path d="M87.4983 10.4993V10.4995V59.2505C87.4983 64.221 83.4692 68.25 78.4988 68.25H29.7495C24.7791 68.25 20.75 64.221 20.75 59.2488V10.4995C20.75 5.52905 24.779 1.5 29.7495 1.5H78.5005C83.471 1.5 87.4999 5.52904 87.4983 10.4993Z" stroke="#012137" stroke-width="1.5"/>
<path d="M29.9933 7.59375H78.2558C79.9963 7.59375 81.4063 9.00506 81.4063 10.7442V49.2573C81.4063 50.9978 79.995 52.4078 78.2558 52.4078H29.9933C28.2528 52.4078 26.8428 50.9965 26.8428 49.2573V10.7442C26.8428 9.00377 28.2541 7.59375 29.9933 7.59375Z" stroke="#012137" stroke-width="1.5"/>
<path d="M53.2451 31.3058C55.6012 32.8914 57.9212 33.9766 60.1398 34.5321C62.2104 35.0515 64.1606 35.1048 65.9355 34.692C68.3277 34.1365 70.0509 32.7882 71.3511 30.8689C71.7002 30.341 71.6985 29.6496 71.3476 29.1216C70.7457 28.2119 70.0802 27.3588 69.3578 26.5677C69.3028 27.8249 68.9761 28.6762 68.6699 29.2111C67.9786 30.4115 66.7558 31.2679 65.2235 31.6239C63.9405 31.9214 62.4873 31.8716 60.9068 31.476C59.0442 31.01 57.0579 30.0727 55.0044 28.6917C52.6483 27.106 50.3283 26.0208 48.1098 25.4653C46.0392 24.946 44.0889 24.8927 42.3141 25.3054C39.9219 25.8609 38.1986 27.2092 36.8985 29.1285C36.5493 29.6565 36.5511 30.3478 36.9019 30.8758C37.5038 31.7856 38.1694 32.6386 38.8917 33.4297C38.9467 32.1725 39.2735 31.3212 39.5796 30.7864C40.271 29.586 41.4938 28.7295 43.0261 28.3735C44.3091 28.076 45.7623 28.1259 47.3428 28.5214C49.2053 28.9875 51.1917 29.9248 53.2451 31.3058Z" fill="#B4DBFF"/>
<path d="M56.655 26.2373C59.7025 28.2873 62.5831 29.2005 64.554 28.743C65.278 28.5745 65.8284 28.2167 66.1053 27.7352C66.3632 27.2863 66.463 26.4969 66.3787 25.5683C66.3753 25.5218 66.3701 25.4771 66.365 25.4307C65.7424 25.6216 64.8808 25.7867 63.7732 25.7867C63.3106 25.7867 62.9305 25.7402 62.688 25.6921C61.8316 25.5235 60.3869 25.0386 58.3714 23.6834C55.9654 22.065 53.5456 20.8526 51.1568 20.0684C48.928 20.39 46.7885 21.071 44.8125 22.0719C46.1092 22.0754 47.4524 22.2508 48.8265 22.5947C51.3787 23.2345 54.0117 24.459 56.6533 26.2355L56.655 26.2373Z" fill="#B4DBFF"/>
<path d="M51.5938 33.76C48.5463 31.71 45.6657 30.7968 43.6948 31.2543C42.9707 31.4228 42.4204 31.7805 42.1435 32.2621C41.8856 32.711 41.7858 33.5003 41.8701 34.429C41.8735 34.4755 41.8787 34.5202 41.8838 34.5666C42.5064 34.3757 43.368 34.2106 44.4756 34.2106C44.9382 34.2106 45.3183 34.2571 45.5608 34.3052C46.4172 34.4737 47.8618 34.9587 49.8774 36.3139C52.2834 37.9323 54.7049 39.1447 57.0937 39.9289C59.3225 39.6073 61.4637 38.9263 63.4414 37.9254C62.143 37.9219 60.7981 37.7482 59.4223 37.4026C56.8701 36.7628 54.2371 35.5383 51.5955 33.7618L51.5938 33.76Z" fill="#B4DBFF"/>
</g>
<g clip-path="url(#clip1_2505_24808)">
<rect x="20" y="1" width="68.25" height="68.25" rx="9" fill="white"/>
<path d="M87.4983 10.7493V10.7495V59.5005C87.4983 64.471 83.4692 68.5 78.4988 68.5H29.7495C24.7791 68.5 20.75 64.471 20.75 59.4988V10.7495C20.75 5.77905 24.779 1.75 29.7495 1.75H78.5005C83.471 1.75 87.4999 5.77904 87.4983 10.7493Z" stroke="#012137" stroke-width="1.5"/>
<path d="M29.9933 7.84375H78.2558C79.9963 7.84375 81.4063 9.25506 81.4063 10.9942V49.5073C81.4063 51.2478 79.995 52.6578 78.2558 52.6578H29.9933C28.2528 52.6578 26.8428 51.2465 26.8428 49.5073V10.9942C26.8428 9.25377 28.2541 7.84375 29.9933 7.84375Z" stroke="#012137" stroke-width="1.5"/>
<path d="M53.2451 31.5558C55.6012 33.1414 57.9212 34.2266 60.1398 34.7821C62.2104 35.3015 64.1606 35.3548 65.9355 34.942C68.3277 34.3865 70.0509 33.0382 71.3511 31.1189C71.7002 30.591 71.6985 29.8996 71.3476 29.3716C70.7457 28.4619 70.0802 27.6088 69.3578 26.8177C69.3028 28.0749 68.9761 28.9262 68.6699 29.4611C67.9786 30.6615 66.7558 31.5179 65.2235 31.8739C63.9405 32.1714 62.4873 32.1216 60.9068 31.726C59.0442 31.26 57.0579 30.3227 55.0044 28.9417C52.6483 27.356 50.3283 26.2708 48.1098 25.7153C46.0392 25.196 44.0889 25.1427 42.3141 25.5554C39.9219 26.1109 38.1986 27.4592 36.8985 29.3785C36.5493 29.9065 36.5511 30.5978 36.9019 31.1258C37.5038 32.0356 38.1694 32.8886 38.8917 33.6797C38.9467 32.4225 39.2735 31.5712 39.5796 31.0364C40.271 29.836 41.4938 28.9795 43.0261 28.6235C44.3091 28.326 45.7623 28.3759 47.3428 28.7714C49.2053 29.2375 51.1917 30.1748 53.2451 31.5558Z" fill="#B4DBFF"/>
<path d="M56.655 26.4873C59.7025 28.5373 62.5831 29.4505 64.554 28.993C65.278 28.8245 65.8284 28.4667 66.1053 27.9852C66.3632 27.5363 66.463 26.7469 66.3787 25.8183C66.3753 25.7718 66.3701 25.7271 66.365 25.6807C65.7424 25.8716 64.8808 26.0367 63.7732 26.0367C63.3106 26.0367 62.9305 25.9902 62.688 25.9421C61.8316 25.7735 60.3869 25.2886 58.3714 23.9334C55.9654 22.315 53.5456 21.1026 51.1568 20.3184C48.928 20.64 46.7885 21.321 44.8125 22.3219C46.1092 22.3254 47.4524 22.5008 48.8265 22.8447C51.3787 23.4845 54.0117 24.709 56.6533 26.4855L56.655 26.4873Z" fill="#B4DBFF"/>
<path d="M51.5938 34.01C48.5463 31.96 45.6657 31.0468 43.6948 31.5043C42.9707 31.6728 42.4204 32.0305 42.1435 32.5121C41.8856 32.961 41.7858 33.7503 41.8701 34.679C41.8735 34.7255 41.8787 34.7702 41.8838 34.8166C42.5064 34.6257 43.368 34.4606 44.4756 34.4606C44.9382 34.4606 45.3183 34.5071 45.5608 34.5552C46.4172 34.7237 47.8618 35.2087 49.8774 36.5639C52.2834 38.1823 54.7049 39.3947 57.0937 40.1789C59.3225 39.8573 61.4637 39.1763 63.4414 38.1754C62.143 38.1719 60.7981 37.9982 59.4223 37.6526C56.8701 37.0128 54.2371 35.7883 51.5955 34.0118L51.5938 34.01Z" fill="#B4DBFF"/>
</g>
<g clip-path="url(#clip2_2505_24808)">
<rect x="108.75" y="204" width="91.5" height="68.25" rx="9.75" fill="white"/>
<path d="M118.969 204.75H190.446C195.45 204.75 199.5 208.784 199.5 213.75V262.087C199.5 267.283 195.265 271.5 190.031 271.5H118.969C113.735 271.5 109.5 267.283 109.5 262.087V214.163C109.5 208.967 113.735 204.75 118.969 204.75Z" stroke="#012137" stroke-width="1.5"/>
<path d="M122.148 216.008H186.852C187.524 216.008 188.062 216.548 188.062 217.207V258.807C188.062 259.465 187.525 260.006 186.852 260.006H122.148C121.477 260.006 120.938 259.466 120.938 258.807V217.207C120.938 216.549 121.476 216.008 122.148 216.008Z" stroke="#012137" stroke-width="1.5"/>
<path d="M155.345 224.904C155.345 224.904 155.322 224.89 155.315 224.881C154.82 224.571 154.176 224.571 153.681 224.881C153.674 224.881 153.658 224.894 153.651 224.904C152.97 225.353 152.327 225.83 151.714 226.346C152.698 226.823 153.63 227.389 154.494 228.038C158.769 231.23 161.296 236.215 161.296 241.569C161.296 245.298 158.257 248.327 154.501 248.327C150.745 248.327 147.707 245.305 147.707 241.569H147.693C147.693 238.494 148.514 235.612 149.955 233.136C152.691 234.959 154.488 238.054 154.488 241.569C154.488 242.679 154.384 243.702 154.206 244.635H154.494C156.196 244.635 157.577 243.259 157.577 241.569C157.577 235.899 153.992 231.067 148.956 229.185C146.192 232.663 144.631 237.002 144.631 241.56H144.645C144.645 246.972 149.06 251.363 154.501 251.363C159.943 251.363 164.358 246.972 164.358 241.56C164.358 234.839 160.987 228.609 155.345 224.897V224.904Z" fill="#1FA4F1"/>
</g>
<g clip-path="url(#clip3_2505_24808)">
<rect x="9.56641" y="204" width="91.5" height="68.25" rx="9.75" fill="white"/>
<path d="M19.7851 204.75H91.2627C96.2661 204.75 100.316 208.784 100.316 213.75V262.087C100.316 267.283 96.0816 271.5 90.8477 271.5H19.7851C14.5512 271.5 10.3164 267.283 10.3164 262.087V214.163C10.3164 208.967 14.5512 204.75 19.7851 204.75Z" stroke="#012137" stroke-width="1.5"/>
<path d="M22.9647 216.008H87.6683C88.34 216.008 88.8782 216.548 88.8782 217.207V258.807C88.8782 259.465 88.3411 260.006 87.6683 260.006H22.9647C22.2931 260.006 21.7549 259.466 21.7549 258.807V217.207C21.7549 216.549 22.2919 216.008 22.9647 216.008Z" stroke="#012137" stroke-width="1.5"/>
<path d="M56.1617 224.904C56.1617 224.904 56.1386 224.89 56.1317 224.881C55.636 224.571 54.9927 224.571 54.497 224.881C54.4901 224.881 54.4739 224.894 54.467 224.904C53.7868 225.353 53.1435 225.83 52.5302 226.346C53.5148 226.823 54.4462 227.389 55.3109 228.038C59.5856 231.23 62.1126 236.215 62.1126 241.569C62.1126 245.298 59.0737 248.327 55.3178 248.327C51.5619 248.327 48.523 245.305 48.523 241.569H48.5092C48.5092 238.494 49.33 235.612 50.771 233.136C53.5078 234.959 55.3039 238.054 55.3039 241.569C55.3039 242.679 55.2002 243.702 55.0227 244.635H55.3109C57.0124 244.635 58.3935 243.259 58.3935 241.569C58.3935 235.899 54.8082 231.067 49.7727 229.185C47.0082 232.663 45.4473 237.002 45.4473 241.56H45.4611C45.4611 246.972 49.8764 251.363 55.3178 251.363C60.7591 251.363 65.1745 246.972 65.1745 241.56C65.1745 234.839 61.8036 228.609 56.1617 224.897V224.904Z" fill="#1FA4F1"/>
</g>
<g clip-path="url(#clip4_2505_24808)">
<rect x="108.75" y="71" width="92.25" height="60" rx="7.5" fill="white"/>
<path d="M47.8876 81.0833C43.9251 76.6389 39.9626 76.6389 36.0001 81.0833L36 186.125L273.75 186.125L273.75 81.0833C269.788 76.6388 265.825 76.6388 261.863 81.0833C257.9 76.6389 253.937 76.6389 249.975 81.0833C246.012 76.6389 242.05 76.6389 238.087 81.0833C234.125 76.6389 230.163 76.6389 226.2 81.0833C222.238 76.6389 218.275 76.6389 214.313 81.0833C210.35 76.6389 206.388 76.6389 202.425 81.0833C198.463 76.6389 194.5 76.6389 190.538 81.0833C186.575 76.6389 182.613 76.6389 178.65 81.0833C174.688 76.6389 170.725 76.6389 166.763 81.0833C162.8 76.6389 158.838 76.6389 154.875 81.0833C150.913 76.6389 146.95 76.6389 142.988 81.0833C139.025 76.6389 135.063 76.6389 131.1 81.0833C127.138 76.6389 123.175 76.6389 119.213 81.0833C115.25 76.6389 111.288 76.6389 107.325 81.0833C103.363 76.6389 99.4001 76.6389 95.4376 81.0833C91.4751 76.6389 87.5126 76.6389 83.5501 81.0833C79.5876 76.6389 75.6251 76.6389 71.6626 81.0833C67.7001 76.6389 63.7376 76.6389 59.7751 81.0833C55.8126 76.6389 51.8501 76.6389 47.8876 81.0833Z" fill="#00D791"/>
<path d="M147.852 97.7945H143.799V100.125H146.97V100.85H143.799V104H143.022V97.07H147.852V97.7945ZM151.786 100.598C151.786 100.192 151.678 99.8805 151.461 99.6635C151.244 99.4395 150.936 99.3275 150.537 99.3275C150.166 99.3275 149.851 99.408 149.592 99.569C149.333 99.73 149.14 99.989 149.014 100.346L148.384 99.9575C148.531 99.5585 148.79 99.24 149.161 99.002C149.539 98.764 150.005 98.645 150.558 98.645C150.936 98.645 151.275 98.7115 151.576 98.8445C151.884 98.9705 152.126 99.1665 152.301 99.4325C152.476 99.6985 152.563 100.034 152.563 100.44V103.002C152.563 103.275 152.703 103.412 152.983 103.412C153.116 103.412 153.246 103.394 153.372 103.359L153.33 103.968C153.197 104.039 153.022 104.074 152.805 104.074C152.609 104.074 152.43 104.039 152.269 103.968C152.115 103.891 151.993 103.776 151.902 103.622C151.811 103.461 151.765 103.261 151.765 103.023V102.887L151.965 102.908C151.888 103.188 151.744 103.415 151.534 103.59C151.331 103.765 151.1 103.895 150.841 103.979C150.582 104.063 150.327 104.105 150.075 104.105C149.767 104.105 149.48 104.053 149.214 103.947C148.948 103.842 148.738 103.685 148.584 103.475C148.43 103.265 148.353 103.002 148.353 102.688C148.353 102.295 148.482 101.973 148.741 101.721C149.007 101.469 149.375 101.298 149.844 101.207L151.944 100.797V101.438L150.211 101.795C149.854 101.865 149.588 101.966 149.413 102.099C149.238 102.232 149.151 102.414 149.151 102.645C149.151 102.883 149.238 103.072 149.413 103.212C149.595 103.352 149.854 103.422 150.19 103.422C150.393 103.422 150.589 103.398 150.778 103.349C150.967 103.293 151.139 103.209 151.293 103.097C151.447 102.985 151.566 102.845 151.65 102.677C151.741 102.509 151.786 102.309 151.786 102.078V100.598ZM154.575 104V98.75H155.215L155.32 99.653C155.46 99.324 155.674 99.0755 155.961 98.9075C156.248 98.7325 156.594 98.645 157 98.645C157.098 98.645 157.203 98.6555 157.315 98.6765C157.427 98.6905 157.522 98.7185 157.599 98.7605L157.452 99.4745C157.375 99.4395 157.291 99.415 157.2 99.401C157.109 99.38 156.979 99.3695 156.811 99.3695C156.58 99.3695 156.353 99.436 156.129 99.569C155.905 99.702 155.719 99.9015 155.572 100.167C155.425 100.426 155.352 100.752 155.352 101.144V104H154.575ZM158.799 104V98.75H159.482L159.534 99.6215C159.716 99.2925 159.961 99.0475 160.269 98.8865C160.584 98.7255 160.913 98.645 161.256 98.645C161.648 98.645 162.009 98.736 162.338 98.918C162.667 99.093 162.912 99.3625 163.073 99.7265C163.185 99.4815 163.342 99.282 163.545 99.128C163.748 98.967 163.972 98.848 164.217 98.771C164.469 98.687 164.711 98.645 164.942 98.645C165.285 98.645 165.607 98.715 165.908 98.855C166.209 98.995 166.454 99.212 166.643 99.506C166.839 99.8 166.937 100.174 166.937 100.629V104H166.16V100.703C166.16 100.22 166.037 99.87 165.792 99.653C165.547 99.436 165.239 99.3275 164.868 99.3275C164.581 99.3275 164.315 99.3975 164.07 99.5375C163.825 99.6705 163.629 99.87 163.482 100.136C163.335 100.395 163.262 100.713 163.262 101.091V104H162.485V100.713C162.485 100.223 162.359 99.87 162.107 99.653C161.862 99.436 161.557 99.3275 161.193 99.3275C160.941 99.3275 160.689 99.394 160.437 99.527C160.192 99.653 159.986 99.8525 159.818 100.125C159.657 100.391 159.576 100.738 159.576 101.165V104H158.799Z" fill="#012137"/>
</g>
<g clip-path="url(#clip5_2505_24808)">
<rect x="108.75" y="5" width="92.25" height="60" rx="7.5" fill="white"/>
<path d="M47.8876 15.0833C43.9251 10.6389 39.9626 10.6389 36.0001 15.0833L36 120.125L273.75 120.125L273.75 15.0833C269.788 10.6388 265.825 10.6388 261.863 15.0833C257.9 10.6389 253.937 10.6389 249.975 15.0833C246.012 10.6389 242.05 10.6389 238.087 15.0833C234.125 10.6389 230.163 10.6389 226.2 15.0833C222.238 10.6389 218.275 10.6389 214.313 15.0833C210.35 10.6389 206.388 10.6389 202.425 15.0833C198.463 10.6389 194.5 10.6389 190.538 15.0833C186.575 10.6389 182.613 10.6389 178.65 15.0833C174.688 10.6389 170.725 10.6389 166.763 15.0833C162.8 10.6389 158.838 10.6389 154.875 15.0833C150.913 10.6389 146.95 10.6389 142.988 15.0833C139.025 10.6389 135.063 10.6389 131.1 15.0833C127.138 10.6389 123.175 10.6389 119.213 15.0833C115.25 10.6389 111.288 10.6389 107.325 15.0833C103.363 10.6389 99.4001 10.6389 95.4376 15.0833C91.4751 10.6389 87.5126 10.6389 83.5501 15.0833C79.5876 10.6389 75.6251 10.6389 71.6626 15.0833C67.7001 10.6389 63.7376 10.6389 59.7751 15.0833C55.8126 10.6389 51.8501 10.6389 47.8876 15.0833Z" fill="#00D791"/>
<path d="M147.852 31.7945H143.799V34.1255H146.97V34.85H143.799V38H143.022V31.07H147.852V31.7945ZM151.786 34.598C151.786 34.192 151.678 33.8805 151.461 33.6635C151.244 33.4395 150.936 33.3275 150.537 33.3275C150.166 33.3275 149.851 33.408 149.592 33.569C149.333 33.73 149.14 33.989 149.014 34.346L148.384 33.9575C148.531 33.5585 148.79 33.24 149.161 33.002C149.539 32.764 150.005 32.645 150.558 32.645C150.936 32.645 151.275 32.7115 151.576 32.8445C151.884 32.9705 152.126 33.1665 152.301 33.4325C152.476 33.6985 152.563 34.0345 152.563 34.4405V37.0025C152.563 37.2755 152.703 37.412 152.983 37.412C153.116 37.412 153.246 37.3945 153.372 37.3595L153.33 37.9685C153.197 38.0385 153.022 38.0735 152.805 38.0735C152.609 38.0735 152.43 38.0385 152.269 37.9685C152.115 37.8915 151.993 37.776 151.902 37.622C151.811 37.461 151.765 37.2615 151.765 37.0235V36.887L151.965 36.908C151.888 37.188 151.744 37.4155 151.534 37.5905C151.331 37.7655 151.1 37.895 150.841 37.979C150.582 38.063 150.327 38.105 150.075 38.105C149.767 38.105 149.48 38.0525 149.214 37.9475C148.948 37.8425 148.738 37.685 148.584 37.475C148.43 37.265 148.353 37.0025 148.353 36.6875C148.353 36.2955 148.482 35.9735 148.741 35.7215C149.007 35.4695 149.375 35.298 149.844 35.207L151.944 34.7975V35.438L150.211 35.795C149.854 35.865 149.588 35.9665 149.413 36.0995C149.238 36.2325 149.151 36.4145 149.151 36.6455C149.151 36.8835 149.238 37.0725 149.413 37.2125C149.595 37.3525 149.854 37.4225 150.19 37.4225C150.393 37.4225 150.589 37.398 150.778 37.349C150.967 37.293 151.139 37.209 151.293 37.097C151.447 36.985 151.566 36.845 151.65 36.677C151.741 36.509 151.786 36.3095 151.786 36.0785V34.598ZM154.575 38V32.75H155.215L155.32 33.653C155.46 33.324 155.674 33.0755 155.961 32.9075C156.248 32.7325 156.594 32.645 157 32.645C157.098 32.645 157.203 32.6555 157.315 32.6765C157.427 32.6905 157.522 32.7185 157.599 32.7605L157.452 33.4745C157.375 33.4395 157.291 33.415 157.2 33.401C157.109 33.38 156.979 33.3695 156.811 33.3695C156.58 33.3695 156.353 33.436 156.129 33.569C155.905 33.702 155.719 33.9015 155.572 34.1675C155.425 34.4265 155.352 34.752 155.352 35.144V38H154.575ZM158.799 38V32.75H159.482L159.534 33.6215C159.716 33.2925 159.961 33.0475 160.269 32.8865C160.584 32.7255 160.913 32.645 161.256 32.645C161.648 32.645 162.009 32.736 162.338 32.918C162.667 33.093 162.912 33.3625 163.073 33.7265C163.185 33.4815 163.342 33.282 163.545 33.128C163.748 32.967 163.972 32.848 164.217 32.771C164.469 32.687 164.711 32.645 164.942 32.645C165.285 32.645 165.607 32.715 165.908 32.855C166.209 32.995 166.454 33.212 166.643 33.506C166.839 33.8 166.937 34.1745 166.937 34.6295V38H166.16V34.703C166.16 34.22 166.037 33.87 165.792 33.653C165.547 33.436 165.239 33.3275 164.868 33.3275C164.581 33.3275 164.315 33.3975 164.07 33.5375C163.825 33.6705 163.629 33.87 163.482 34.136C163.335 34.395 163.262 34.7135 163.262 35.0915V38H162.485V34.7135C162.485 34.2235 162.359 33.87 162.107 33.653C161.862 33.436 161.557 33.3275 161.193 33.3275C160.941 33.3275 160.689 33.394 160.437 33.527C160.192 33.653 159.986 33.8525 159.818 34.1255C159.657 34.3915 159.576 34.738 159.576 35.165V38H158.799Z" fill="#012137"/>
</g>
<g clip-path="url(#clip6_2505_24808)">
<rect x="108.75" y="136.5" width="92.25" height="60" rx="7.5" fill="white"/>
<path d="M47.8876 146.583C43.9251 142.139 39.9626 142.139 36.0001 146.583L36 251.625L273.75 251.625L273.75 146.583C269.788 142.139 265.825 142.139 261.863 146.583C257.9 142.139 253.937 142.139 249.975 146.583C246.012 142.139 242.05 142.139 238.087 146.583C234.125 142.139 230.163 142.139 226.2 146.583C222.238 142.139 218.275 142.139 214.313 146.583C210.35 142.139 206.388 142.139 202.425 146.583C198.463 142.139 194.5 142.139 190.538 146.583C186.575 142.139 182.613 142.139 178.65 146.583C174.688 142.139 170.725 142.139 166.763 146.583C162.8 142.139 158.838 142.139 154.875 146.583C150.913 142.139 146.95 142.139 142.988 146.583C139.025 142.139 135.063 142.139 131.1 146.583C127.138 142.139 123.175 142.139 119.213 146.583C115.25 142.139 111.288 142.139 107.325 146.583C103.363 142.139 99.4001 142.139 95.4376 146.583C91.4751 142.139 87.5126 142.139 83.5501 146.583C79.5876 142.139 75.6251 142.139 71.6626 146.583C67.7001 142.139 63.7376 142.139 59.7751 146.583C55.8126 142.139 51.8501 142.139 47.8876 146.583Z" fill="#00D791"/>
<path d="M147.852 163.294H143.799V165.625H146.97V166.35H143.799V169.5H143.022V162.57H147.852V163.294ZM151.786 166.098C151.786 165.692 151.678 165.38 151.461 165.163C151.244 164.939 150.936 164.827 150.537 164.827C150.166 164.827 149.851 164.908 149.592 165.069C149.333 165.23 149.14 165.489 149.014 165.846L148.384 165.457C148.531 165.058 148.79 164.74 149.161 164.502C149.539 164.264 150.005 164.145 150.558 164.145C150.936 164.145 151.275 164.211 151.576 164.344C151.884 164.47 152.126 164.666 152.301 164.932C152.476 165.198 152.563 165.534 152.563 165.94V168.502C152.563 168.775 152.703 168.912 152.983 168.912C153.116 168.912 153.246 168.894 153.372 168.859L153.33 169.468C153.197 169.539 153.022 169.574 152.805 169.574C152.609 169.574 152.43 169.539 152.269 169.468C152.115 169.391 151.993 169.276 151.902 169.122C151.811 168.961 151.765 168.761 151.765 168.523V168.387L151.965 168.408C151.888 168.688 151.744 168.915 151.534 169.09C151.331 169.265 151.1 169.395 150.841 169.479C150.582 169.563 150.327 169.605 150.075 169.605C149.767 169.605 149.48 169.553 149.214 169.447C148.948 169.342 148.738 169.185 148.584 168.975C148.43 168.765 148.353 168.502 148.353 168.188C148.353 167.795 148.482 167.473 148.741 167.221C149.007 166.969 149.375 166.798 149.844 166.707L151.944 166.297V166.938L150.211 167.295C149.854 167.365 149.588 167.466 149.413 167.599C149.238 167.732 149.151 167.914 149.151 168.145C149.151 168.383 149.238 168.572 149.413 168.712C149.595 168.852 149.854 168.922 150.19 168.922C150.393 168.922 150.589 168.898 150.778 168.849C150.967 168.793 151.139 168.709 151.293 168.597C151.447 168.485 151.566 168.345 151.65 168.177C151.741 168.009 151.786 167.809 151.786 167.578V166.098ZM154.575 169.5V164.25H155.215L155.32 165.153C155.46 164.824 155.674 164.575 155.961 164.407C156.248 164.232 156.594 164.145 157 164.145C157.098 164.145 157.203 164.155 157.315 164.176C157.427 164.19 157.522 164.218 157.599 164.26L157.452 164.974C157.375 164.939 157.291 164.915 157.2 164.901C157.109 164.88 156.979 164.869 156.811 164.869C156.58 164.869 156.353 164.936 156.129 165.069C155.905 165.202 155.719 165.401 155.572 165.667C155.425 165.926 155.352 166.252 155.352 166.644V169.5H154.575ZM158.799 169.5V164.25H159.482L159.534 165.121C159.716 164.792 159.961 164.547 160.269 164.386C160.584 164.225 160.913 164.145 161.256 164.145C161.648 164.145 162.009 164.236 162.338 164.418C162.667 164.593 162.912 164.862 163.073 165.226C163.185 164.981 163.342 164.782 163.545 164.628C163.748 164.467 163.972 164.348 164.217 164.271C164.469 164.187 164.711 164.145 164.942 164.145C165.285 164.145 165.607 164.215 165.908 164.355C166.209 164.495 166.454 164.712 166.643 165.006C166.839 165.3 166.937 165.674 166.937 166.129V169.5H166.16V166.203C166.16 165.72 166.037 165.37 165.792 165.153C165.547 164.936 165.239 164.827 164.868 164.827C164.581 164.827 164.315 164.897 164.07 165.037C163.825 165.17 163.629 165.37 163.482 165.636C163.335 165.895 163.262 166.213 163.262 166.591V169.5H162.485V166.213C162.485 165.723 162.359 165.37 162.107 165.153C161.862 164.936 161.557 164.827 161.193 164.827C160.941 164.827 160.689 164.894 160.437 165.027C160.192 165.153 159.986 165.352 159.818 165.625C159.657 165.891 159.576 166.238 159.576 166.665V169.5H158.799Z" fill="#012137"/>
</g>
<g clip-path="url(#clip7_2505_24808)">
<rect x="9" y="136.5" width="92.25" height="60" rx="7.5" fill="white"/>
<path d="M-51.8624 146.583C-55.8249 142.139 -59.7874 142.139 -63.7499 146.583L-63.75 251.625L174 251.625L174 146.583C170.038 142.139 166.075 142.139 162.113 146.583C158.15 142.139 154.187 142.139 150.225 146.583C146.262 142.139 142.3 142.139 138.337 146.583C134.375 142.139 130.413 142.139 126.45 146.583C122.488 142.139 118.525 142.139 114.563 146.583C110.6 142.139 106.638 142.139 102.675 146.583C98.7126 142.139 94.7501 142.139 90.7876 146.583C86.8251 142.139 82.8626 142.139 78.9001 146.583C74.9376 142.139 70.9751 142.139 67.0126 146.583C63.0501 142.139 59.0876 142.139 55.1251 146.583C51.1626 142.139 47.2001 142.139 43.2376 146.583C39.2751 142.139 35.3126 142.139 31.3501 146.583C27.3876 142.139 23.4251 142.139 19.4626 146.583C15.5001 142.139 11.5376 142.139 7.57513 146.583C3.61262 142.139 -0.349873 142.139 -4.31237 146.583C-8.27488 142.139 -12.2374 142.139 -16.1999 146.583C-20.1624 142.139 -24.1249 142.139 -28.0874 146.583C-32.0499 142.139 -36.0124 142.139 -39.9749 146.583C-43.9374 142.139 -47.8999 142.139 -51.8624 146.583Z" fill="#00D791"/>
<path d="M48.1022 163.294H44.0492V165.625H47.2202V166.35H44.0492V169.5H43.2722V162.57H48.1022V163.294ZM52.0364 166.098C52.0364 165.692 51.9279 165.38 51.7109 165.163C51.4939 164.939 51.1859 164.827 50.7869 164.827C50.4159 164.827 50.1009 164.908 49.8419 165.069C49.5829 165.23 49.3904 165.489 49.2644 165.846L48.6344 165.457C48.7814 165.058 49.0404 164.74 49.4114 164.502C49.7894 164.264 50.2549 164.145 50.8079 164.145C51.1859 164.145 51.5254 164.211 51.8264 164.344C52.1344 164.47 52.3759 164.666 52.5509 164.932C52.7259 165.198 52.8134 165.534 52.8134 165.94V168.502C52.8134 168.775 52.9534 168.912 53.2334 168.912C53.3664 168.912 53.4959 168.894 53.6219 168.859L53.5799 169.468C53.4469 169.539 53.2719 169.574 53.0549 169.574C52.8589 169.574 52.6804 169.539 52.5194 169.468C52.3654 169.391 52.2429 169.276 52.1519 169.122C52.0609 168.961 52.0154 168.761 52.0154 168.523V168.387L52.2149 168.408C52.1379 168.688 51.9944 168.915 51.7844 169.09C51.5814 169.265 51.3504 169.395 51.0914 169.479C50.8324 169.563 50.5769 169.605 50.3249 169.605C50.0169 169.605 49.7299 169.553 49.4639 169.447C49.1979 169.342 48.9879 169.185 48.8339 168.975C48.6799 168.765 48.6029 168.502 48.6029 168.188C48.6029 167.795 48.7324 167.473 48.9914 167.221C49.2574 166.969 49.6249 166.798 50.0939 166.707L52.1939 166.297V166.938L50.4614 167.295C50.1044 167.365 49.8384 167.466 49.6634 167.599C49.4884 167.732 49.4009 167.914 49.4009 168.145C49.4009 168.383 49.4884 168.572 49.6634 168.712C49.8454 168.852 50.1044 168.922 50.4404 168.922C50.6434 168.922 50.8394 168.898 51.0284 168.849C51.2174 168.793 51.3889 168.709 51.5429 168.597C51.6969 168.485 51.8159 168.345 51.8999 168.177C51.9909 168.009 52.0364 167.809 52.0364 167.578V166.098ZM54.8246 169.5V164.25H55.4651L55.5701 165.153C55.7101 164.824 55.9236 164.575 56.2106 164.407C56.4976 164.232 56.8441 164.145 57.2501 164.145C57.3481 164.145 57.4531 164.155 57.5651 164.176C57.6771 164.19 57.7716 164.218 57.8486 164.26L57.7016 164.974C57.6246 164.939 57.5406 164.915 57.4496 164.901C57.3586 164.88 57.2291 164.869 57.0611 164.869C56.8301 164.869 56.6026 164.936 56.3786 165.069C56.1546 165.202 55.9691 165.401 55.8221 165.667C55.6751 165.926 55.6016 166.252 55.6016 166.644V169.5H54.8246ZM59.0493 169.5V164.25H59.7318L59.7843 165.121C59.9663 164.792 60.2113 164.547 60.5193 164.386C60.8343 164.225 61.1633 164.145 61.5063 164.145C61.8983 164.145 62.2588 164.236 62.5878 164.418C62.9168 164.593 63.1618 164.862 63.3228 165.226C63.4348 164.981 63.5923 164.782 63.7953 164.628C63.9983 164.467 64.2223 164.348 64.4673 164.271C64.7193 164.187 64.9608 164.145 65.1918 164.145C65.5348 164.145 65.8568 164.215 66.1578 164.355C66.4588 164.495 66.7038 164.712 66.8928 165.006C67.0888 165.3 67.1868 165.674 67.1868 166.129V169.5H66.4098V166.203C66.4098 165.72 66.2873 165.37 66.0423 165.153C65.7973 164.936 65.4893 164.827 65.1183 164.827C64.8313 164.827 64.5653 164.897 64.3203 165.037C64.0753 165.17 63.8793 165.37 63.7323 165.636C63.5853 165.895 63.5118 166.213 63.5118 166.591V169.5H62.7348V166.213C62.7348 165.723 62.6088 165.37 62.3568 165.153C62.1118 164.936 61.8073 164.827 61.4433 164.827C61.1913 164.827 60.9393 164.894 60.6873 165.027C60.4423 165.153 60.2358 165.352 60.0678 165.625C59.9068 165.891 59.8263 166.238 59.8263 166.665V169.5H59.0493Z" fill="#012137"/>
</g>
<g clip-path="url(#clip8_2505_24808)">
<rect x="9" y="136.5" width="92.25" height="60" rx="7.5" fill="white"/>
<path d="M-51.8624 146.583C-55.8249 142.139 -59.7874 142.139 -63.7499 146.583L-63.75 251.625L174 251.625L174 146.583C170.038 142.139 166.075 142.139 162.113 146.583C158.15 142.139 154.187 142.139 150.225 146.583C146.262 142.139 142.3 142.139 138.337 146.583C134.375 142.139 130.413 142.139 126.45 146.583C122.488 142.139 118.525 142.139 114.563 146.583C110.6 142.139 106.638 142.139 102.675 146.583C98.7126 142.139 94.7501 142.139 90.7876 146.583C86.8251 142.139 82.8626 142.139 78.9001 146.583C74.9376 142.139 70.9751 142.139 67.0126 146.583C63.0501 142.139 59.0876 142.139 55.1251 146.583C51.1626 142.139 47.2001 142.139 43.2376 146.583C39.2751 142.139 35.3126 142.139 31.3501 146.583C27.3876 142.139 23.4251 142.139 19.4626 146.583C15.5001 142.139 11.5376 142.139 7.57513 146.583C3.61262 142.139 -0.349873 142.139 -4.31237 146.583C-8.27488 142.139 -12.2374 142.139 -16.1999 146.583C-20.1624 142.139 -24.1249 142.139 -28.0874 146.583C-32.0499 142.139 -36.0124 142.139 -39.9749 146.583C-43.9374 142.139 -47.8999 142.139 -51.8624 146.583Z" fill="#00D791"/>
<path d="M48.1022 163.294H44.0492V165.625H47.2202V166.35H44.0492V169.5H43.2722V162.57H48.1022V163.294ZM52.0364 166.098C52.0364 165.692 51.9279 165.38 51.7109 165.163C51.4939 164.939 51.1859 164.827 50.7869 164.827C50.4159 164.827 50.1009 164.908 49.8419 165.069C49.5829 165.23 49.3904 165.489 49.2644 165.846L48.6344 165.457C48.7814 165.058 49.0404 164.74 49.4114 164.502C49.7894 164.264 50.2549 164.145 50.8079 164.145C51.1859 164.145 51.5254 164.211 51.8264 164.344C52.1344 164.47 52.3759 164.666 52.5509 164.932C52.7259 165.198 52.8134 165.534 52.8134 165.94V168.502C52.8134 168.775 52.9534 168.912 53.2334 168.912C53.3664 168.912 53.4959 168.894 53.6219 168.859L53.5799 169.468C53.4469 169.539 53.2719 169.574 53.0549 169.574C52.8589 169.574 52.6804 169.539 52.5194 169.468C52.3654 169.391 52.2429 169.276 52.1519 169.122C52.0609 168.961 52.0154 168.761 52.0154 168.523V168.387L52.2149 168.408C52.1379 168.688 51.9944 168.915 51.7844 169.09C51.5814 169.265 51.3504 169.395 51.0914 169.479C50.8324 169.563 50.5769 169.605 50.3249 169.605C50.0169 169.605 49.7299 169.553 49.4639 169.447C49.1979 169.342 48.9879 169.185 48.8339 168.975C48.6799 168.765 48.6029 168.502 48.6029 168.188C48.6029 167.795 48.7324 167.473 48.9914 167.221C49.2574 166.969 49.6249 166.798 50.0939 166.707L52.1939 166.297V166.938L50.4614 167.295C50.1044 167.365 49.8384 167.466 49.6634 167.599C49.4884 167.732 49.4009 167.914 49.4009 168.145C49.4009 168.383 49.4884 168.572 49.6634 168.712C49.8454 168.852 50.1044 168.922 50.4404 168.922C50.6434 168.922 50.8394 168.898 51.0284 168.849C51.2174 168.793 51.3889 168.709 51.5429 168.597C51.6969 168.485 51.8159 168.345 51.8999 168.177C51.9909 168.009 52.0364 167.809 52.0364 167.578V166.098ZM54.8246 169.5V164.25H55.4651L55.5701 165.153C55.7101 164.824 55.9236 164.575 56.2106 164.407C56.4976 164.232 56.8441 164.145 57.2501 164.145C57.3481 164.145 57.4531 164.155 57.5651 164.176C57.6771 164.19 57.7716 164.218 57.8486 164.26L57.7016 164.974C57.6246 164.939 57.5406 164.915 57.4496 164.901C57.3586 164.88 57.2291 164.869 57.0611 164.869C56.8301 164.869 56.6026 164.936 56.3786 165.069C56.1546 165.202 55.9691 165.401 55.8221 165.667C55.6751 165.926 55.6016 166.252 55.6016 166.644V169.5H54.8246ZM59.0493 169.5V164.25H59.7318L59.7843 165.121C59.9663 164.792 60.2113 164.547 60.5193 164.386C60.8343 164.225 61.1633 164.145 61.5063 164.145C61.8983 164.145 62.2588 164.236 62.5878 164.418C62.9168 164.593 63.1618 164.862 63.3228 165.226C63.4348 164.981 63.5923 164.782 63.7953 164.628C63.9983 164.467 64.2223 164.348 64.4673 164.271C64.7193 164.187 64.9608 164.145 65.1918 164.145C65.5348 164.145 65.8568 164.215 66.1578 164.355C66.4588 164.495 66.7038 164.712 66.8928 165.006C67.0888 165.3 67.1868 165.674 67.1868 166.129V169.5H66.4098V166.203C66.4098 165.72 66.2873 165.37 66.0423 165.153C65.7973 164.936 65.4893 164.827 65.1183 164.827C64.8313 164.827 64.5653 164.897 64.3203 165.037C64.0753 165.17 63.8793 165.37 63.7323 165.636C63.5853 165.895 63.5118 166.213 63.5118 166.591V169.5H62.7348V166.213C62.7348 165.723 62.6088 165.37 62.3568 165.153C62.1118 164.936 61.8073 164.827 61.4433 164.827C61.1913 164.827 60.9393 164.894 60.6873 165.027C60.4423 165.153 60.2358 165.352 60.0678 165.625C59.9068 165.891 59.8263 166.238 59.8263 166.665V169.5H59.0493Z" fill="#012137"/>
</g>
<g clip-path="url(#clip9_2505_24808)">
<rect x="9" y="136.5" width="92.25" height="60" rx="7.5" fill="white"/>
<path d="M-51.8625 150.167C-55.825 143.917 -59.7875 143.917 -63.75 150.167V206.25H174V150.167C170.038 138.088 166.075 138.088 162.112 150.167C158.15 144.843 154.188 144.843 150.225 150.167C146.263 141.615 142.3 141.615 138.338 150.167C134.375 146.109 130.413 146.109 126.45 150.167C122.488 146.3 118.525 146.3 114.562 150.167C110.6 143.236 106.638 143.236 102.675 150.167C98.7125 143.249 94.75 143.249 90.7875 150.167C86.825 142.568 82.8625 142.568 78.9 150.167C74.9375 137.135 70.975 137.135 67.0125 150.167C63.05 137.503 59.0875 137.503 55.125 150.167C51.1625 138.892 47.2 138.892 43.2375 150.167C39.275 146.313 35.3125 146.313 31.35 150.167C27.3875 143.413 23.425 143.413 19.4625 150.167C15.5 136.944 11.5375 136.944 7.575 150.167C3.6125 146.994 -0.349998 146.994 -4.3125 150.167C-8.275 146.531 -12.2375 146.531 -16.2 150.167C-20.1625 137.04 -24.125 137.04 -28.0875 150.167C-32.05 137.339 -36.0125 137.339 -39.975 150.167C-43.9375 141.261 -47.9 141.261 -51.8625 150.167Z" fill="#FF4D80"/>
<path d="M48.1022 163.294H44.0492V165.625H47.2202V166.35H44.0492V169.5H43.2722V162.57H48.1022V163.294ZM52.0364 166.098C52.0364 165.692 51.9279 165.38 51.7109 165.163C51.4939 164.939 51.1859 164.827 50.7869 164.827C50.4159 164.827 50.1009 164.908 49.8419 165.069C49.5829 165.23 49.3904 165.489 49.2644 165.846L48.6344 165.457C48.7814 165.058 49.0404 164.74 49.4114 164.502C49.7894 164.264 50.2549 164.145 50.8079 164.145C51.1859 164.145 51.5254 164.211 51.8264 164.344C52.1344 164.47 52.3759 164.666 52.5509 164.932C52.7259 165.198 52.8134 165.534 52.8134 165.94V168.502C52.8134 168.775 52.9534 168.912 53.2334 168.912C53.3664 168.912 53.4959 168.894 53.6219 168.859L53.5799 169.468C53.4469 169.539 53.2719 169.574 53.0549 169.574C52.8589 169.574 52.6804 169.539 52.5194 169.468C52.3654 169.391 52.2429 169.276 52.1519 169.122C52.0609 168.961 52.0154 168.761 52.0154 168.523V168.387L52.2149 168.408C52.1379 168.688 51.9944 168.915 51.7844 169.09C51.5814 169.265 51.3504 169.395 51.0914 169.479C50.8324 169.563 50.5769 169.605 50.3249 169.605C50.0169 169.605 49.7299 169.553 49.4639 169.447C49.1979 169.342 48.9879 169.185 48.8339 168.975C48.6799 168.765 48.6029 168.502 48.6029 168.188C48.6029 167.795 48.7324 167.473 48.9914 167.221C49.2574 166.969 49.6249 166.798 50.0939 166.707L52.1939 166.297V166.938L50.4614 167.295C50.1044 167.365 49.8384 167.466 49.6634 167.599C49.4884 167.732 49.4009 167.914 49.4009 168.145C49.4009 168.383 49.4884 168.572 49.6634 168.712C49.8454 168.852 50.1044 168.922 50.4404 168.922C50.6434 168.922 50.8394 168.898 51.0284 168.849C51.2174 168.793 51.3889 168.709 51.5429 168.597C51.6969 168.485 51.8159 168.345 51.8999 168.177C51.9909 168.009 52.0364 167.809 52.0364 167.578V166.098ZM54.8246 169.5V164.25H55.4651L55.5701 165.153C55.7101 164.824 55.9236 164.575 56.2106 164.407C56.4976 164.232 56.8441 164.145 57.2501 164.145C57.3481 164.145 57.4531 164.155 57.5651 164.176C57.6771 164.19 57.7716 164.218 57.8486 164.26L57.7016 164.974C57.6246 164.939 57.5406 164.915 57.4496 164.901C57.3586 164.88 57.2291 164.869 57.0611 164.869C56.8301 164.869 56.6026 164.936 56.3786 165.069C56.1546 165.202 55.9691 165.401 55.8221 165.667C55.6751 165.926 55.6016 166.252 55.6016 166.644V169.5H54.8246ZM59.0493 169.5V164.25H59.7318L59.7843 165.121C59.9663 164.792 60.2113 164.547 60.5193 164.386C60.8343 164.225 61.1633 164.145 61.5063 164.145C61.8983 164.145 62.2588 164.236 62.5878 164.418C62.9168 164.593 63.1618 164.862 63.3228 165.226C63.4348 164.981 63.5923 164.782 63.7953 164.628C63.9983 164.467 64.2223 164.348 64.4673 164.271C64.7193 164.187 64.9608 164.145 65.1918 164.145C65.5348 164.145 65.8568 164.215 66.1578 164.355C66.4588 164.495 66.7038 164.712 66.8928 165.006C67.0888 165.3 67.1868 165.674 67.1868 166.129V169.5H66.4098V166.203C66.4098 165.72 66.2873 165.37 66.0423 165.153C65.7973 164.936 65.4893 164.827 65.1183 164.827C64.8313 164.827 64.5653 164.897 64.3203 165.037C64.0753 165.17 63.8793 165.37 63.7323 165.636C63.5853 165.895 63.5118 166.213 63.5118 166.591V169.5H62.7348V166.213C62.7348 165.723 62.6088 165.37 62.3568 165.153C62.1118 164.936 61.8073 164.827 61.4433 164.827C61.1913 164.827 60.9393 164.894 60.6873 165.027C60.4423 165.153 60.2358 165.352 60.0678 165.625C59.9068 165.891 59.8263 166.238 59.8263 166.665V169.5H59.0493Z" fill="#012137"/>
</g>
<g clip-path="url(#clip10_2505_24808)">
<rect x="9" y="136.5" width="92.25" height="60" rx="7.5" fill="white"/>
<path d="M-51.8624 146.583C-55.8249 142.139 -59.7874 142.139 -63.7499 146.583L-63.75 251.625L174 251.625L174 146.583C170.038 142.139 166.075 142.139 162.113 146.583C158.15 142.139 154.187 142.139 150.225 146.583C146.262 142.139 142.3 142.139 138.337 146.583C134.375 142.139 130.413 142.139 126.45 146.583C122.488 142.139 118.525 142.139 114.563 146.583C110.6 142.139 106.638 142.139 102.675 146.583C98.7126 142.139 94.7501 142.139 90.7876 146.583C86.8251 142.139 82.8626 142.139 78.9001 146.583C74.9376 142.139 70.9751 142.139 67.0126 146.583C63.0501 142.139 59.0876 142.139 55.1251 146.583C51.1626 142.139 47.2001 142.139 43.2376 146.583C39.2751 142.139 35.3126 142.139 31.3501 146.583C27.3876 142.139 23.4251 142.139 19.4626 146.583C15.5001 142.139 11.5376 142.139 7.57513 146.583C3.61262 142.139 -0.349873 142.139 -4.31237 146.583C-8.27488 142.139 -12.2374 142.139 -16.1999 146.583C-20.1624 142.139 -24.1249 142.139 -28.0874 146.583C-32.0499 142.139 -36.0124 142.139 -39.9749 146.583C-43.9374 142.139 -47.8999 142.139 -51.8624 146.583Z" fill="#00D791"/>
<path d="M48.1022 163.294H44.0492V165.625H47.2202V166.35H44.0492V169.5H43.2722V162.57H48.1022V163.294ZM52.0364 166.098C52.0364 165.692 51.9279 165.38 51.7109 165.163C51.4939 164.939 51.1859 164.827 50.7869 164.827C50.4159 164.827 50.1009 164.908 49.8419 165.069C49.5829 165.23 49.3904 165.489 49.2644 165.846L48.6344 165.457C48.7814 165.058 49.0404 164.74 49.4114 164.502C49.7894 164.264 50.2549 164.145 50.8079 164.145C51.1859 164.145 51.5254 164.211 51.8264 164.344C52.1344 164.47 52.3759 164.666 52.5509 164.932C52.7259 165.198 52.8134 165.534 52.8134 165.94V168.502C52.8134 168.775 52.9534 168.912 53.2334 168.912C53.3664 168.912 53.4959 168.894 53.6219 168.859L53.5799 169.468C53.4469 169.539 53.2719 169.574 53.0549 169.574C52.8589 169.574 52.6804 169.539 52.5194 169.468C52.3654 169.391 52.2429 169.276 52.1519 169.122C52.0609 168.961 52.0154 168.761 52.0154 168.523V168.387L52.2149 168.408C52.1379 168.688 51.9944 168.915 51.7844 169.09C51.5814 169.265 51.3504 169.395 51.0914 169.479C50.8324 169.563 50.5769 169.605 50.3249 169.605C50.0169 169.605 49.7299 169.553 49.4639 169.447C49.1979 169.342 48.9879 169.185 48.8339 168.975C48.6799 168.765 48.6029 168.502 48.6029 168.188C48.6029 167.795 48.7324 167.473 48.9914 167.221C49.2574 166.969 49.6249 166.798 50.0939 166.707L52.1939 166.297V166.938L50.4614 167.295C50.1044 167.365 49.8384 167.466 49.6634 167.599C49.4884 167.732 49.4009 167.914 49.4009 168.145C49.4009 168.383 49.4884 168.572 49.6634 168.712C49.8454 168.852 50.1044 168.922 50.4404 168.922C50.6434 168.922 50.8394 168.898 51.0284 168.849C51.2174 168.793 51.3889 168.709 51.5429 168.597C51.6969 168.485 51.8159 168.345 51.8999 168.177C51.9909 168.009 52.0364 167.809 52.0364 167.578V166.098ZM54.8246 169.5V164.25H55.4651L55.5701 165.153C55.7101 164.824 55.9236 164.575 56.2106 164.407C56.4976 164.232 56.8441 164.145 57.2501 164.145C57.3481 164.145 57.4531 164.155 57.5651 164.176C57.6771 164.19 57.7716 164.218 57.8486 164.26L57.7016 164.974C57.6246 164.939 57.5406 164.915 57.4496 164.901C57.3586 164.88 57.2291 164.869 57.0611 164.869C56.8301 164.869 56.6026 164.936 56.3786 165.069C56.1546 165.202 55.9691 165.401 55.8221 165.667C55.6751 165.926 55.6016 166.252 55.6016 166.644V169.5H54.8246ZM59.0493 169.5V164.25H59.7318L59.7843 165.121C59.9663 164.792 60.2113 164.547 60.5193 164.386C60.8343 164.225 61.1633 164.145 61.5063 164.145C61.8983 164.145 62.2588 164.236 62.5878 164.418C62.9168 164.593 63.1618 164.862 63.3228 165.226C63.4348 164.981 63.5923 164.782 63.7953 164.628C63.9983 164.467 64.2223 164.348 64.4673 164.271C64.7193 164.187 64.9608 164.145 65.1918 164.145C65.5348 164.145 65.8568 164.215 66.1578 164.355C66.4588 164.495 66.7038 164.712 66.8928 165.006C67.0888 165.3 67.1868 165.674 67.1868 166.129V169.5H66.4098V166.203C66.4098 165.72 66.2873 165.37 66.0423 165.153C65.7973 164.936 65.4893 164.827 65.1183 164.827C64.8313 164.827 64.5653 164.897 64.3203 165.037C64.0753 165.17 63.8793 165.37 63.7323 165.636C63.5853 165.895 63.5118 166.213 63.5118 166.591V169.5H62.7348V166.213C62.7348 165.723 62.6088 165.37 62.3568 165.153C62.1118 164.936 61.8073 164.827 61.4433 164.827C61.1913 164.827 60.9393 164.894 60.6873 165.027C60.4423 165.153 60.2358 165.352 60.0678 165.625C59.9068 165.891 59.8263 166.238 59.8263 166.665V169.5H59.0493Z" fill="#012137"/>
</g>
<defs>
<clipPath id="clip0_2505_24808">
<rect x="20" y="0.75" width="68.25" height="68.25" rx="9" fill="white"/>
</clipPath>
<clipPath id="clip1_2505_24808">
<rect x="20" y="1" width="68.25" height="68.25" rx="9" fill="white"/>
</clipPath>
<clipPath id="clip2_2505_24808">
<rect x="108.75" y="204" width="91.5" height="68.25" rx="9.75" fill="white"/>
</clipPath>
<clipPath id="clip3_2505_24808">
<rect x="9.56641" y="204" width="91.5" height="68.25" rx="9.75" fill="white"/>
</clipPath>
<clipPath id="clip4_2505_24808">
<rect x="108.75" y="71" width="92.25" height="60" rx="7.5" fill="white"/>
</clipPath>
<clipPath id="clip5_2505_24808">
<rect x="108.75" y="5" width="92.25" height="60" rx="7.5" fill="white"/>
</clipPath>
<clipPath id="clip6_2505_24808">
<rect x="108.75" y="136.5" width="92.25" height="60" rx="7.5" fill="white"/>
</clipPath>
<clipPath id="clip7_2505_24808">
<rect x="9" y="136.5" width="92.25" height="60" rx="7.5" fill="white"/>
</clipPath>
<clipPath id="clip8_2505_24808">
<rect x="9" y="136.5" width="92.25" height="60" rx="7.5" fill="white"/>
</clipPath>
<clipPath id="clip9_2505_24808">
<rect x="9" y="136.5" width="92.25" height="60" rx="7.5" fill="white"/>
</clipPath>
<clipPath id="clip10_2505_24808">
<rect x="9" y="136.5" width="92.25" height="60" rx="7.5" fill="white"/>
</clipPath>
</defs>
</svg>
