<svg width="40" height="40" viewBox="0 0 40 40" fill="none" xmlns="http://www.w3.org/2000/svg">
<g clip-path="url(#clip0_1921_14355)">
<rect width="40" height="40" rx="5" fill="#00D791"/>
<path d="M26.7045 20.073C26.7166 19.1308 26.9669 18.2069 27.4321 17.3874C27.8972 16.5679 28.5621 15.8794 29.3648 15.3858C28.8548 14.6575 28.1821 14.0581 27.4 13.6353C26.6178 13.2125 25.7479 12.9779 24.8592 12.9501C22.9636 12.7511 21.1258 14.0844 20.1598 14.0844C19.1751 14.0844 17.6878 12.9698 16.0862 13.0028C15.0502 13.0362 14.0406 13.3375 13.1557 13.8772C12.2708 14.4168 11.5408 15.1765 11.0368 16.0822C8.85349 19.8622 10.482 25.4175 12.5734 28.473C13.6198 29.9692 14.8427 31.6404 16.4428 31.5812C18.0086 31.5162 18.5935 30.5827 20.4836 30.5827C22.3561 30.5827 22.9048 31.5812 24.5374 31.5435C26.2176 31.5162 27.2762 30.0406 28.2859 28.5303C29.0377 27.4642 29.6162 26.286 30 25.0392C29.0238 24.6263 28.1908 23.9353 27.6048 23.0521C27.0188 22.169 26.7056 21.1329 26.7045 20.073Z" fill="#012137"/>
<path d="M23.6208 10.9405C24.5369 9.84075 24.9883 8.42718 24.879 7C23.4793 7.147 22.1865 7.81594 21.258 8.87351C20.804 9.39017 20.4563 9.99123 20.2348 10.6423C20.0132 11.2934 19.9222 11.9818 19.9669 12.6681C20.6669 12.6754 21.3595 12.5236 21.9924 12.2244C22.6254 11.9251 23.1821 11.4861 23.6208 10.9405Z" fill="#012137"/>
</g>
<defs>
<clipPath id="clip0_1921_14355">
<rect width="40" height="40" rx="10" fill="white"/>
</clipPath>
</defs>
</svg>
