<svg width="40" height="40" viewBox="0 0 40 40" fill="none" xmlns="http://www.w3.org/2000/svg">
<g clip-path="url(#clip0_1921_14324)">
<rect width="40" height="40" rx="5" fill="black"/>
<path d="M26.7282 20.0913C26.7403 19.1478 26.9909 18.2226 27.4567 17.4019C27.9225 16.5812 28.5883 15.8917 29.3922 15.3975C28.8815 14.6681 28.2078 14.0679 27.4246 13.6445C26.6414 13.2211 25.7702 12.9861 24.8803 12.9583C22.9819 12.759 21.1415 14.0942 20.1742 14.0942C19.1881 14.0942 17.6987 12.978 16.0948 13.011C15.0574 13.0446 14.0463 13.3462 13.1602 13.8867C12.274 14.4271 11.543 15.1879 11.0382 16.0949C8.85187 19.8802 10.4827 25.4434 12.577 28.5032C13.6249 30.0015 14.8495 31.6751 16.4519 31.6157C18.02 31.5507 18.6056 30.6158 20.4984 30.6158C22.3736 30.6158 22.9231 31.6157 24.558 31.578C26.2406 31.5507 27.3007 30.0731 28.3118 28.5606C29.0646 27.493 29.644 26.3131 30.0283 25.0645C29.0508 24.6511 28.2166 23.959 27.6297 23.0747C27.0428 22.1903 26.7293 21.1527 26.7282 20.0913Z" fill="white"/>
<path d="M23.6402 10.9459C24.5576 9.84452 25.0096 8.42895 24.9001 6.99976C23.4985 7.14697 22.2038 7.81685 21.274 8.87592C20.8194 9.39331 20.4712 9.99522 20.2493 10.6472C20.0275 11.2993 19.9363 11.9886 19.981 12.6759C20.6821 12.6831 21.3757 12.5312 22.0095 12.2315C22.6433 11.9318 23.2009 11.4922 23.6402 10.9459Z" fill="white"/>
</g>
<defs>
<clipPath id="clip0_1921_14324">
<rect width="40" height="40" rx="10" fill="white"/>
</clipPath>
</defs>
</svg>
