<svg width="135" height="40" viewBox="0 0 135 40" fill="none" xmlns="http://www.w3.org/2000/svg">
<g clip-path="url(#clip0_205_3451)">
<rect width="135" height="40" rx="5" fill="#00D791"/>
<path d="M26.886 20.0532C26.8975 19.1556 27.136 18.2754 27.5791 17.4947C28.0222 16.7139 28.6556 16.0579 29.4204 15.5878C28.9346 14.8939 28.2936 14.3229 27.5485 13.9201C26.8034 13.5172 25.9746 13.2937 25.128 13.2672C23.322 13.0776 21.5711 14.3479 20.6508 14.3479C19.7127 14.3479 18.2958 13.286 16.77 13.3174C15.783 13.3493 14.8212 13.6363 13.9781 14.1505C13.1351 14.6646 12.4396 15.3884 11.9594 16.2512C9.87941 19.8524 11.4309 25.1449 13.4233 28.0558C14.4202 29.4812 15.5853 31.0734 17.1097 31.0169C18.6015 30.9551 19.1586 30.0657 20.9593 30.0657C22.7433 30.0657 23.266 31.0169 24.8214 30.981C26.4221 30.9551 27.4306 29.5493 28.3925 28.1104C29.1088 27.0948 29.6599 25.9723 30.0256 24.7845C29.0956 24.3911 28.302 23.7328 27.7437 22.8914C27.1853 22.0501 26.887 21.063 26.886 20.0532Z" fill="#012137"/>
<path d="M23.9482 11.3527C24.821 10.305 25.2509 8.9583 25.1468 7.59863C23.8134 7.73868 22.5817 8.37597 21.6971 9.38352C21.2646 9.87573 20.9334 10.4484 20.7223 11.0687C20.5113 11.689 20.4245 12.3448 20.4671 12.9986C21.134 13.0055 21.7938 12.8609 22.3968 12.5759C22.9998 12.2908 23.5302 11.8726 23.9482 11.3527Z" fill="#012137"/>
<path d="M47.7429 27.4084H42.6522L41.4297 31.0182H39.2734L44.0953 17.6628H46.3355L51.1573 31.0182H48.9643L47.7429 27.4084ZM43.1794 25.7427H47.2146L45.2254 19.8842H45.1697L43.1794 25.7427Z" fill="#012137"/>
<path d="M61.571 26.1501C61.571 29.176 59.9515 31.1201 57.5075 31.1201C56.8884 31.1524 56.2727 31.0098 55.7309 30.7085C55.189 30.4073 54.743 29.9595 54.4439 29.4165H54.3976V34.2394H52.3989V21.281H54.3336V22.9006H54.3703C54.6832 22.3602 55.1368 21.9147 55.6828 21.6116C56.2287 21.3085 56.8466 21.159 57.4708 21.1792C59.942 21.1792 61.571 23.1327 61.571 26.1501ZM59.5167 26.1501C59.5167 24.1788 58.4979 22.8827 56.9435 22.8827C55.4164 22.8827 54.3892 24.2061 54.3892 26.1501C54.3892 28.1121 55.4164 29.426 56.9435 29.426C58.4979 29.426 59.5167 28.1394 59.5167 26.1501Z" fill="#012137"/>
<path d="M72.2881 26.1503C72.2881 29.1761 70.6685 31.1202 68.2246 31.1202C67.6054 31.1525 66.9897 31.0099 66.4479 30.7087C65.9061 30.4074 65.4601 29.9596 65.1609 29.4166H65.1146V34.2395H63.116V21.2812H65.0506V22.9007H65.0873C65.4003 22.3603 65.8538 21.9148 66.3998 21.6117C66.9457 21.3086 67.5636 21.1592 68.1878 21.1793C70.6591 21.1793 72.2881 23.1328 72.2881 26.1503ZM70.2337 26.1503C70.2337 24.1789 69.215 22.8828 67.6605 22.8828C66.1334 22.8828 65.1063 24.2062 65.1063 26.1503C65.1063 28.1122 66.1334 29.4261 67.6605 29.4261C69.215 29.4261 70.2337 28.1395 70.2337 26.1503Z" fill="#012137"/>
<path d="M79.3712 27.2971C79.5193 28.6215 80.8059 29.4911 82.564 29.4911C84.2487 29.4911 85.4607 28.6215 85.4607 27.4273C85.4607 26.3907 84.7297 25.77 82.9988 25.3446L81.268 24.9276C78.8156 24.3353 77.6771 23.1884 77.6771 21.3273C77.6771 19.023 79.6852 17.4402 82.5367 17.4402C85.3588 17.4402 87.2934 19.023 87.3585 21.3273H85.3409C85.2201 19.9945 84.1184 19.19 82.5083 19.19C80.8982 19.19 79.7965 20.0039 79.7965 21.1886C79.7965 22.1328 80.5002 22.6884 82.2216 23.1138L83.693 23.4751C86.4332 24.1231 87.5717 25.2238 87.5717 27.1773C87.5717 29.6759 85.5814 31.2408 82.4159 31.2408C79.4541 31.2408 77.4544 29.7126 77.3252 27.297L79.3712 27.2971Z" fill="#012137"/>
<path d="M91.8851 18.9768V21.2811H93.7367V22.8639H91.8851V28.2319C91.8851 29.0658 92.2558 29.4544 93.0698 29.4544C93.2896 29.4505 93.5091 29.4351 93.7273 29.4081V30.9815C93.3613 31.0498 92.9893 31.0808 92.6171 31.0739C90.6458 31.0739 89.8769 30.3334 89.8769 28.445V22.8639H88.4612V21.2811H89.8769V18.9768H91.8851Z" fill="#012137"/>
<path d="M94.8091 26.1502C94.8091 23.0865 96.6134 21.1614 99.4272 21.1614C102.25 21.1614 104.046 23.0865 104.046 26.1502C104.046 29.2223 102.26 31.139 99.4272 31.139C96.5956 31.139 94.8091 29.2223 94.8091 26.1502ZM102.01 26.1502C102.01 24.0486 101.047 22.8082 99.4271 22.8082C97.8076 22.8082 96.8456 24.058 96.8456 26.1502C96.8456 28.2602 97.8076 29.4911 99.4271 29.4911C101.047 29.4911 102.01 28.2602 102.01 26.1502Z" fill="#012137"/>
<path d="M105.694 21.2811H107.6V22.9384H107.647C107.776 22.4208 108.079 21.9633 108.505 21.643C108.932 21.3226 109.456 21.1588 109.989 21.1792C110.219 21.1784 110.449 21.2034 110.674 21.2538V23.1233C110.383 23.0344 110.079 22.9936 109.775 23.0025C109.485 22.9907 109.196 23.0419 108.927 23.1525C108.658 23.2632 108.417 23.4307 108.219 23.6435C108.021 23.8563 107.871 24.1095 107.781 24.3855C107.69 24.6616 107.66 24.954 107.693 25.2427V31.0182H105.694L105.694 21.2811Z" fill="#012137"/>
<path d="M119.889 28.1583C119.62 29.9259 117.898 31.139 115.696 31.139C112.863 31.139 111.105 29.2412 111.105 26.1964C111.105 23.1422 112.873 21.1614 115.612 21.1614C118.306 21.1614 120 23.012 120 25.9643V26.6491H113.123V26.7699C113.091 27.1282 113.136 27.4892 113.254 27.8289C113.373 28.1686 113.562 28.4792 113.81 28.74C114.058 29.0009 114.358 29.206 114.691 29.3419C115.024 29.4777 115.383 29.5411 115.742 29.5279C116.215 29.5721 116.688 29.4627 117.094 29.216C117.499 28.9692 117.813 28.5983 117.991 28.1583L119.889 28.1583ZM113.132 25.2522H118C118.018 24.93 117.969 24.6076 117.857 24.3051C117.744 24.0027 117.57 23.7268 117.346 23.4947C117.122 23.2627 116.852 23.0795 116.554 22.9566C116.255 22.8338 115.935 22.774 115.612 22.7809C115.286 22.779 114.964 22.8415 114.663 22.9649C114.361 23.0883 114.088 23.2701 113.857 23.4999C113.627 23.7297 113.444 24.0028 113.319 24.3036C113.195 24.6043 113.131 24.9267 113.132 25.2522Z" fill="#012137"/>
<path d="M42.929 7.61019C43.3481 7.58012 43.7685 7.64342 44.1601 7.79553C44.5517 7.94764 44.9047 8.18476 45.1936 8.4898C45.4824 8.79483 45.7 9.16017 45.8305 9.55947C45.9611 9.95876 46.0014 10.3821 45.9486 10.7988C45.9486 12.849 44.8406 14.0274 42.929 14.0274H40.6111V7.61019H42.929ZM41.6078 13.1199H42.8177C43.1171 13.1378 43.4168 13.0887 43.6948 12.9762C43.9729 12.8637 44.2224 12.6906 44.4251 12.4695C44.6278 12.2484 44.7787 11.9849 44.8667 11.6982C44.9547 11.4114 44.9777 11.1087 44.934 10.8119C44.9746 10.5163 44.9492 10.2154 44.8599 9.93079C44.7705 9.64615 44.6192 9.38481 44.417 9.16548C44.2147 8.94616 43.9664 8.77429 43.6899 8.66218C43.4135 8.55008 43.1156 8.50052 42.8177 8.51705H41.6078V13.1199Z" fill="#012137"/>
<path d="M47.0745 11.6038C47.0441 11.2855 47.0805 10.9644 47.1814 10.6611C47.2823 10.3577 47.4455 10.0788 47.6606 9.84221C47.8756 9.60563 48.1377 9.41659 48.4301 9.28724C48.7225 9.15788 49.0386 9.09106 49.3584 9.09106C49.6781 9.09106 49.9942 9.15788 50.2866 9.28724C50.579 9.41659 50.8411 9.60563 51.0561 9.84221C51.2712 10.0788 51.4344 10.3577 51.5353 10.6611C51.6362 10.9644 51.6726 11.2855 51.6422 11.6038C51.6732 11.9224 51.6372 12.2439 51.5366 12.5478C51.4359 12.8516 51.2728 13.1311 51.0577 13.3681C50.8426 13.6052 50.5803 13.7946 50.2877 13.9242C49.995 14.0539 49.6784 14.1208 49.3584 14.1208C49.0383 14.1208 48.7217 14.0539 48.4291 13.9242C48.1364 13.7946 47.8741 13.6052 47.659 13.3681C47.4439 13.1311 47.2808 12.8516 47.1801 12.5478C47.0795 12.2439 47.0435 11.9224 47.0745 11.6038ZM50.6591 11.6038C50.6591 10.5541 50.1875 9.94017 49.3599 9.94017C48.5292 9.94017 48.0618 10.5541 48.0618 11.6038C48.0618 12.662 48.5292 13.2711 49.3599 13.2711C50.1876 13.2711 50.6591 12.6578 50.6591 11.6038Z" fill="#012137"/>
<path d="M57.7137 14.0273H56.7222L55.7213 10.4605H55.6457L54.6489 14.0273H53.6669L52.332 9.18445H53.3014L54.169 12.8798H54.2404L55.2361 9.18445H56.153L57.1486 12.8798H57.2242L58.0876 9.18445H59.0433L57.7137 14.0273Z" fill="#012137"/>
<path d="M60.1663 9.18443H61.0863V9.95376H61.1577C61.2789 9.67744 61.4832 9.44581 61.7423 9.29115C62.0013 9.13649 62.3022 9.0665 62.6029 9.09095C62.8385 9.07323 63.0752 9.10876 63.2952 9.1949C63.5152 9.28105 63.7131 9.41559 63.8741 9.58858C64.035 9.76156 64.155 9.96855 64.2252 10.1942C64.2953 10.4199 64.3137 10.6584 64.2791 10.8922V14.0272H63.3234V11.1322C63.3234 10.3539 62.9852 9.96689 62.2784 9.96689C62.1184 9.95944 61.9587 9.98667 61.8102 10.0467C61.6617 10.1068 61.528 10.1982 61.4182 10.3148C61.3083 10.4313 61.225 10.5703 61.1739 10.722C61.1228 10.8738 61.1051 11.0349 61.122 11.1941V14.0273H60.1663L60.1663 9.18443Z" fill="#012137"/>
<path d="M65.802 7.29395H66.7578V14.0273H65.802V7.29395Z" fill="#012137"/>
<path d="M68.0865 11.6038C68.056 11.2855 68.0925 10.9644 68.1934 10.661C68.2944 10.3576 68.4576 10.0787 68.6727 9.84211C68.8877 9.60551 69.1498 9.41648 69.4422 9.28712C69.7346 9.15776 70.0508 9.09094 70.3706 9.09094C70.6903 9.09094 71.0065 9.15776 71.2989 9.28712C71.5913 9.41648 71.8534 9.60551 72.0684 9.84211C72.2835 10.0787 72.4467 10.3576 72.5477 10.661C72.6486 10.9644 72.6851 11.2855 72.6546 11.6038C72.6856 11.9224 72.6496 12.2439 72.5489 12.5478C72.4482 12.8516 72.2851 13.131 72.07 13.3681C71.8549 13.6051 71.5926 13.7946 71.2999 13.9242C71.0072 14.0538 70.6907 14.1208 70.3706 14.1208C70.0505 14.1208 69.7339 14.0538 69.4412 13.9242C69.1485 13.7946 68.8862 13.6051 68.6711 13.3681C68.456 13.131 68.2929 12.8516 68.1922 12.5478C68.0915 12.2439 68.0555 11.9224 68.0865 11.6038ZM71.6711 11.6038C71.6711 10.554 71.1995 9.94014 70.3719 9.94014C69.5411 9.94014 69.0738 10.554 69.0738 11.6038C69.0738 12.6619 69.5411 13.2711 70.3719 13.2711C71.1995 13.2711 71.6711 12.6577 71.6711 11.6038Z" fill="#012137"/>
<path d="M73.6606 12.6577C73.6606 11.7859 74.3097 11.2834 75.4619 11.212L76.7737 11.1364V10.7183C76.7737 10.2069 76.4355 9.91803 75.7822 9.91803C75.2487 9.91803 74.879 10.1139 74.7729 10.4563H73.8476C73.9453 9.62448 74.7277 9.09094 75.8263 9.09094C77.0404 9.09094 77.7252 9.69537 77.7252 10.7183V14.0272H76.8052V13.3467H76.7296C76.5761 13.5908 76.3605 13.7898 76.105 13.9234C75.8494 14.057 75.563 14.1204 75.2749 14.107C75.0716 14.1282 74.8661 14.1065 74.6717 14.0434C74.4773 13.9802 74.2983 13.8771 74.1462 13.7405C73.9941 13.604 73.8723 13.4371 73.7887 13.2505C73.7051 13.064 73.6614 12.8621 73.6606 12.6577ZM76.7737 12.2439V11.839L75.5911 11.9146C74.9241 11.9592 74.6216 12.1861 74.6216 12.613C74.6216 13.0489 74.9997 13.3025 75.5197 13.3025C75.672 13.318 75.8259 13.3026 75.9722 13.2573C76.1184 13.212 76.2541 13.1378 76.3711 13.039C76.4881 12.9403 76.584 12.819 76.6532 12.6824C76.7223 12.5458 76.7633 12.3966 76.7737 12.2439Z" fill="#012137"/>
<path d="M78.9814 11.6038C78.9814 10.0735 79.7681 9.10411 80.9917 9.10411C81.2943 9.09017 81.5947 9.16266 81.8577 9.31311C82.1207 9.46357 82.3354 9.68577 82.4768 9.95375H82.5482V7.29395H83.5039V14.0273H82.5881V13.2621H82.5125C82.3602 13.5283 82.138 13.7478 81.8699 13.8967C81.6018 14.0456 81.2981 14.1184 80.9917 14.1071C79.7597 14.1071 78.9814 13.1377 78.9814 11.6038ZM79.9687 11.6038C79.9687 12.631 80.4529 13.249 81.2627 13.249C82.0682 13.249 82.5661 12.622 82.5661 11.608C82.5661 10.5987 82.063 9.96272 81.2627 9.96272C80.4581 9.96272 79.9687 10.585 79.9687 11.6038Z" fill="#012137"/>
<path d="M87.4581 11.6038C87.4276 11.2855 87.464 10.9644 87.565 10.6611C87.6659 10.3577 87.8291 10.0788 88.0441 9.84221C88.2592 9.60563 88.5213 9.41659 88.8136 9.28724C89.106 9.15788 89.4222 9.09106 89.7419 9.09106C90.0616 9.09106 90.3778 9.15788 90.6702 9.28724C90.9625 9.41659 91.2246 9.60563 91.4397 9.84221C91.6547 10.0788 91.8179 10.3577 91.9188 10.6611C92.0198 10.9644 92.0562 11.2855 92.0257 11.6038C92.0568 11.9224 92.0208 12.2439 91.9201 12.5478C91.8195 12.8516 91.6563 13.1311 91.4413 13.3681C91.2262 13.6052 90.9639 13.7946 90.6712 13.9242C90.3785 14.0539 90.062 14.1208 89.7419 14.1208C89.4218 14.1208 89.1053 14.0539 88.8126 13.9242C88.5199 13.7946 88.2576 13.6052 88.0425 13.3681C87.8274 13.1311 87.6643 12.8516 87.5637 12.5478C87.463 12.2439 87.427 11.9224 87.4581 11.6038ZM91.0427 11.6038C91.0427 10.5541 90.5711 9.94017 89.7435 9.94017C88.9127 9.94017 88.4454 10.5541 88.4454 11.6038C88.4454 12.662 88.9127 13.2711 89.7435 13.2711C90.5711 13.2711 91.0427 12.6578 91.0427 11.6038Z" fill="#012137"/>
<path d="M93.3081 9.18443H94.2281V9.95376H94.2996C94.4207 9.67744 94.6251 9.44581 94.8841 9.29115C95.1432 9.13649 95.444 9.0665 95.7448 9.09095C95.9804 9.07323 96.217 9.10876 96.437 9.1949C96.6571 9.28105 96.8549 9.41559 97.0159 9.58858C97.1769 9.76156 97.2969 9.96855 97.367 10.1942C97.4371 10.4199 97.4556 10.6584 97.421 10.8922V14.0272H96.4652V11.1322C96.4652 10.3539 96.1271 9.96689 95.4202 9.96689C95.2602 9.95944 95.1005 9.98667 94.952 10.0467C94.8036 10.1068 94.6698 10.1982 94.56 10.3148C94.4502 10.4313 94.3668 10.5703 94.3157 10.722C94.2646 10.8738 94.2469 11.0349 94.2639 11.1941V14.0273H93.3081V9.18443Z" fill="#012137"/>
<path d="M102.822 7.97876V9.20653H103.871V10.0116H102.822V12.5018C102.822 13.0091 103.031 13.2312 103.506 13.2312C103.628 13.2308 103.75 13.2234 103.871 13.2091V14.0052C103.699 14.036 103.525 14.0523 103.351 14.0541C102.288 14.0541 101.865 13.6802 101.865 12.7465V10.0115H101.096V9.20649H101.865V7.97876H102.822Z" fill="#012137"/>
<path d="M105.177 7.29395H106.124V9.96271H106.199C106.327 9.68381 106.536 9.45087 106.801 9.29563C107.065 9.14038 107.371 9.07039 107.676 9.09518C107.911 9.08242 108.145 9.12156 108.362 9.20979C108.58 9.29803 108.775 9.43319 108.935 9.60563C109.094 9.77807 109.213 9.98354 109.284 10.2074C109.355 10.4312 109.375 10.6679 109.344 10.9006V14.0273H108.387V11.1364C108.387 10.3629 108.027 9.9711 107.352 9.9711C107.187 9.95762 107.022 9.98021 106.868 10.0373C106.713 10.0943 106.573 10.1845 106.456 10.3014C106.34 10.4184 106.251 10.5593 106.195 10.7143C106.139 10.8693 106.118 11.0347 106.132 11.1989V14.0273H105.177L105.177 7.29395Z" fill="#012137"/>
<path d="M114.917 12.7197C114.787 13.1623 114.505 13.5452 114.122 13.8013C113.738 14.0574 113.277 14.1705 112.818 14.1208C112.499 14.1292 112.182 14.0681 111.889 13.9417C111.596 13.8153 111.334 13.6266 111.121 13.3888C110.908 13.151 110.749 12.8697 110.656 12.5644C110.563 12.2592 110.537 11.9373 110.581 11.6211C110.538 11.304 110.565 10.9814 110.658 10.6753C110.751 10.3691 110.908 10.0865 111.12 9.84659C111.332 9.60668 111.593 9.41506 111.885 9.2847C112.177 9.15434 112.494 9.0883 112.814 9.09102C114.161 9.09102 114.974 10.0116 114.974 11.5324V11.8659H111.555V11.9194C111.54 12.0971 111.562 12.276 111.62 12.4446C111.678 12.6132 111.771 12.7678 111.893 12.8984C112.014 13.029 112.161 13.1328 112.325 13.2031C112.489 13.2735 112.666 13.3088 112.844 13.3068C113.073 13.3343 113.305 13.2931 113.51 13.1885C113.715 13.084 113.884 12.9208 113.996 12.7197L114.917 12.7197ZM111.555 11.159H114.001C114.013 10.9965 113.991 10.8332 113.936 10.6797C113.881 10.5262 113.795 10.3859 113.682 10.2678C113.57 10.1496 113.434 10.0563 113.284 9.99369C113.133 9.93112 112.972 9.90073 112.809 9.90447C112.643 9.90239 112.479 9.93342 112.326 9.99574C112.173 10.0581 112.034 10.1504 111.917 10.2673C111.8 10.3842 111.708 10.5234 111.646 10.6765C111.583 10.8297 111.552 10.9937 111.555 11.159Z" fill="#012137"/>
</g>
<defs>
<clipPath id="clip0_205_3451">
<rect width="135" height="40" rx="10" fill="white"/>
</clipPath>
</defs>
</svg>
