<svg width="135" height="40" viewBox="0 0 135 40" fill="none" xmlns="http://www.w3.org/2000/svg">
<g clip-path="url(#clip0_205_3416)">
<path d="M130 40H5C2.2 40 0 37.8 0 35V5C0 2.2 2.2 0 5 0H130C132.8 0 135 2.2 135 5V35C135 37.7 132.8 40 130 40Z" fill="#00D791"/>
<path d="M47.3999 10.2C47.3999 11 47.1999 11.7 46.6999 12.2C46.0999 12.8 45.3999 13.1 44.4999 13.1C43.5999 13.1 42.8999 12.8 42.2999 12.2C41.6999 11.6 41.3999 10.9 41.3999 10C41.3999 9.10002 41.6999 8.40002 42.2999 7.80002C42.8999 7.20002 43.5999 6.90002 44.4999 6.90002C44.8999 6.90002 45.3999 7.00002 45.6999 7.10002C46.0999 7.30002 46.3999 7.50002 46.6999 7.80002L46.0999 8.40002C45.8999 8.20002 45.6999 8.00002 45.3999 7.90002C45.0999 7.80002 44.7999 7.70002 44.4999 7.70002C43.7999 7.70002 43.2999 7.90002 42.7999 8.40002C42.3999 8.90002 42.0999 9.40002 42.0999 10.1C42.0999 10.8 42.2999 11.4 42.7999 11.8C43.2999 12.3 43.7999 12.5 44.4999 12.5C45.0999 12.5 45.5999 12.3 45.9999 12C46.3999 11.7 46.5999 11.2 46.6999 10.6H44.4999V9.90002H47.3999C47.3999 9.90002 47.3999 10.1 47.3999 10.2Z" fill="#012137" stroke="#012137" stroke-width="0.2" stroke-miterlimit="10"/>
<path d="M52 7V7.7H49.3V9.6H51.8V10.3H49.3V12.2H52V13H48.5V7H52Z" fill="#012137" stroke="#012137" stroke-width="0.2" stroke-miterlimit="10"/>
<path d="M55.2998 7.7V13H54.4998V7.7H52.7998V7H56.9998V7.7H55.2998Z" fill="#012137" stroke="#012137" stroke-width="0.2" stroke-miterlimit="10"/>
<path d="M60.6999 13H59.8999V7H60.6999V13Z" fill="#012137" stroke="#012137" stroke-width="0.2" stroke-miterlimit="10"/>
<path d="M64.0999 7.7V13H63.2999V7.7H61.5999V7H65.6999V7.7H64.0999Z" fill="#012137" stroke="#012137" stroke-width="0.2" stroke-miterlimit="10"/>
<path d="M74.4998 10C74.4998 10.9 74.1998 11.6 73.5998 12.2C72.9998 12.8 72.2998 13.1 71.3998 13.1C70.4998 13.1 69.7998 12.8 69.1998 12.2C68.5998 11.6 68.2998 10.9 68.2998 10C68.2998 9.10002 68.5998 8.40002 69.1998 7.80002C69.7998 7.20002 70.4998 6.90002 71.3998 6.90002C72.2998 6.90002 72.9998 7.20002 73.5998 7.80002C74.1998 8.40002 74.4998 9.10002 74.4998 10ZM69.0998 10C69.0998 10.7 69.2998 11.3 69.7998 11.7C70.1998 12.2 70.7998 12.4 71.3998 12.4C72.0998 12.4 72.5998 12.2 72.9998 11.7C73.3998 11.3 73.6998 10.7 73.6998 10C73.6998 9.30002 73.4998 8.70002 72.9998 8.30002C72.5998 7.80002 71.9998 7.60002 71.3998 7.60002C70.6998 7.60002 70.1998 7.80002 69.7998 8.30002C69.2998 8.70002 69.0998 9.30002 69.0998 10Z" fill="#012137" stroke="#012137" stroke-width="0.2" stroke-miterlimit="10"/>
<path d="M76.3 13H75.5V7H76.4L79.3 11.7V10.5V7H80.1V13H79.3L76.2 8.1V9.3L76.3 13Z" fill="#012137" stroke="#012137" stroke-width="0.2" stroke-miterlimit="10"/>
<mask id="path-10-inside-1_205_3416" fill="white">
<path d="M68.1001 21.8C65.7001 21.8 63.8001 23.6 63.8001 26.1C63.8001 28.5 65.7001 30.4 68.1001 30.4C70.5001 30.4 72.4001 28.6 72.4001 26.1C72.4001 23.5 70.5001 21.8 68.1001 21.8ZM68.1001 28.6C66.8001 28.6 65.7001 27.5 65.7001 26C65.7001 24.5 66.8001 23.4 68.1001 23.4C69.4001 23.4 70.5001 24.4 70.5001 26C70.5001 27.5 69.4001 28.6 68.1001 28.6ZM58.8001 21.8C56.4001 21.8 54.5001 23.6 54.5001 26.1C54.5001 28.5 56.4001 30.4 58.8001 30.4C61.2001 30.4 63.1001 28.6 63.1001 26.1C63.1001 23.5 61.2001 21.8 58.8001 21.8ZM58.8001 28.6C57.5001 28.6 56.4001 27.5 56.4001 26C56.4001 24.5 57.5001 23.4 58.8001 23.4C60.1001 23.4 61.2001 24.4 61.2001 26C61.2001 27.5 60.1001 28.6 58.8001 28.6ZM47.7001 23.1V24.9H52.0001C51.9001 25.9 51.5001 26.7 51.0001 27.2C50.4001 27.8 49.4001 28.5 47.7001 28.5C45.0001 28.5 43.0001 26.4 43.0001 23.7C43.0001 21 45.1001 18.9 47.7001 18.9C49.1001 18.9 50.2001 19.5 51.0001 20.2L52.3001 18.9C51.2001 17.9 49.8001 17.1 47.8001 17.1C44.2001 17.1 41.1001 20.1 41.1001 23.7C41.1001 27.3 44.2001 30.3 47.8001 30.3C49.8001 30.3 51.2001 29.7 52.4001 28.4C53.6001 27.2 54.0001 25.5 54.0001 24.2C54.0001 23.8 54.0001 23.4 53.9001 23.1C53.9001 23.1 47.7001 23.1 47.7001 23.1ZM93.1001 24.5C92.7001 23.5 91.7001 21.8 89.5001 21.8C87.3001 21.8 85.5001 23.5 85.5001 26.1C85.5001 28.5 87.3001 30.4 89.7001 30.4C91.6001 30.4 92.8001 29.2 93.2001 28.5L91.8001 27.5C91.3001 28.2 90.7001 28.7 89.7001 28.7C88.7001 28.7 88.1001 28.3 87.6001 27.4L93.3001 25L93.1001 24.5ZM87.3001 25.9C87.3001 24.3 88.6001 23.4 89.5001 23.4C90.2001 23.4 90.9001 23.8 91.1001 24.3L87.3001 25.9ZM82.6001 30H84.5001V17.5H82.6001V30ZM79.6001 22.7C79.1001 22.2 78.3001 21.7 77.3001 21.7C75.2001 21.7 73.2001 23.6 73.2001 26C73.2001 28.4 75.1001 30.2 77.3001 30.2C78.3001 30.2 79.1001 29.7 79.5001 29.2H79.6001V29.8C79.6001 31.4 78.7001 32.3 77.3001 32.3C76.2001 32.3 75.4001 31.5 75.2001 30.8L73.6001 31.5C74.1001 32.6 75.3001 34 77.4001 34C79.6001 34 81.4001 32.7 81.4001 29.6V22H79.6001C79.6001 22 79.6001 22.7 79.6001 22.7ZM77.4001 28.6C76.1001 28.6 75.0001 27.5 75.0001 26C75.0001 24.5 76.1001 23.4 77.4001 23.4C78.7001 23.4 79.7001 24.5 79.7001 26C79.7001 27.5 78.7001 28.6 77.4001 28.6ZM101.8 17.5H97.3001V30H99.2001V25.3H101.8C103.9 25.3 105.9 23.8 105.9 21.4C105.9 19 103.9 17.5 101.8 17.5ZM101.9 23.5H99.2001V19.2H101.9C103.3 19.2 104.1 20.4 104.1 21.3C104 22.4 103.2 23.5 101.9 23.5ZM113.4 21.7C112 21.7 110.6 22.3 110.1 23.6L111.8 24.3C112.2 23.6 112.8 23.4 113.5 23.4C114.5 23.4 115.4 24 115.5 25V25.1C115.2 24.9 114.4 24.6 113.6 24.6C111.8 24.6 110 25.6 110 27.4C110 29.1 111.5 30.2 113.1 30.2C114.4 30.2 115 29.6 115.5 29H115.6V30H117.4V25.2C117.2 23 115.5 21.7 113.4 21.7ZM113.2 28.6C112.6 28.6 111.7 28.3 111.7 27.5C111.7 26.5 112.8 26.2 113.7 26.2C114.5 26.2 114.9 26.4 115.4 26.6C115.2 27.8 114.2 28.6 113.2 28.6ZM123.7 22L121.6 27.4H121.5L119.3 22H117.3L120.6 29.6L118.7 33.8H120.6L125.7 22H123.7ZM106.9 30H108.8V17.5H106.9V30Z"/>
</mask>
<path d="M68.1001 21.8C65.7001 21.8 63.8001 23.6 63.8001 26.1C63.8001 28.5 65.7001 30.4 68.1001 30.4C70.5001 30.4 72.4001 28.6 72.4001 26.1C72.4001 23.5 70.5001 21.8 68.1001 21.8ZM68.1001 28.6C66.8001 28.6 65.7001 27.5 65.7001 26C65.7001 24.5 66.8001 23.4 68.1001 23.4C69.4001 23.4 70.5001 24.4 70.5001 26C70.5001 27.5 69.4001 28.6 68.1001 28.6ZM58.8001 21.8C56.4001 21.8 54.5001 23.6 54.5001 26.1C54.5001 28.5 56.4001 30.4 58.8001 30.4C61.2001 30.4 63.1001 28.6 63.1001 26.1C63.1001 23.5 61.2001 21.8 58.8001 21.8ZM58.8001 28.6C57.5001 28.6 56.4001 27.5 56.4001 26C56.4001 24.5 57.5001 23.4 58.8001 23.4C60.1001 23.4 61.2001 24.4 61.2001 26C61.2001 27.5 60.1001 28.6 58.8001 28.6ZM47.7001 23.1V24.9H52.0001C51.9001 25.9 51.5001 26.7 51.0001 27.2C50.4001 27.8 49.4001 28.5 47.7001 28.5C45.0001 28.5 43.0001 26.4 43.0001 23.7C43.0001 21 45.1001 18.9 47.7001 18.9C49.1001 18.9 50.2001 19.5 51.0001 20.2L52.3001 18.9C51.2001 17.9 49.8001 17.1 47.8001 17.1C44.2001 17.1 41.1001 20.1 41.1001 23.7C41.1001 27.3 44.2001 30.3 47.8001 30.3C49.8001 30.3 51.2001 29.7 52.4001 28.4C53.6001 27.2 54.0001 25.5 54.0001 24.2C54.0001 23.8 54.0001 23.4 53.9001 23.1C53.9001 23.1 47.7001 23.1 47.7001 23.1ZM93.1001 24.5C92.7001 23.5 91.7001 21.8 89.5001 21.8C87.3001 21.8 85.5001 23.5 85.5001 26.1C85.5001 28.5 87.3001 30.4 89.7001 30.4C91.6001 30.4 92.8001 29.2 93.2001 28.5L91.8001 27.5C91.3001 28.2 90.7001 28.7 89.7001 28.7C88.7001 28.7 88.1001 28.3 87.6001 27.4L93.3001 25L93.1001 24.5ZM87.3001 25.9C87.3001 24.3 88.6001 23.4 89.5001 23.4C90.2001 23.4 90.9001 23.8 91.1001 24.3L87.3001 25.9ZM82.6001 30H84.5001V17.5H82.6001V30ZM79.6001 22.7C79.1001 22.2 78.3001 21.7 77.3001 21.7C75.2001 21.7 73.2001 23.6 73.2001 26C73.2001 28.4 75.1001 30.2 77.3001 30.2C78.3001 30.2 79.1001 29.7 79.5001 29.2H79.6001V29.8C79.6001 31.4 78.7001 32.3 77.3001 32.3C76.2001 32.3 75.4001 31.5 75.2001 30.8L73.6001 31.5C74.1001 32.6 75.3001 34 77.4001 34C79.6001 34 81.4001 32.7 81.4001 29.6V22H79.6001C79.6001 22 79.6001 22.7 79.6001 22.7ZM77.4001 28.6C76.1001 28.6 75.0001 27.5 75.0001 26C75.0001 24.5 76.1001 23.4 77.4001 23.4C78.7001 23.4 79.7001 24.5 79.7001 26C79.7001 27.5 78.7001 28.6 77.4001 28.6ZM101.8 17.5H97.3001V30H99.2001V25.3H101.8C103.9 25.3 105.9 23.8 105.9 21.4C105.9 19 103.9 17.5 101.8 17.5ZM101.9 23.5H99.2001V19.2H101.9C103.3 19.2 104.1 20.4 104.1 21.3C104 22.4 103.2 23.5 101.9 23.5ZM113.4 21.7C112 21.7 110.6 22.3 110.1 23.6L111.8 24.3C112.2 23.6 112.8 23.4 113.5 23.4C114.5 23.4 115.4 24 115.5 25V25.1C115.2 24.9 114.4 24.6 113.6 24.6C111.8 24.6 110 25.6 110 27.4C110 29.1 111.5 30.2 113.1 30.2C114.4 30.2 115 29.6 115.5 29H115.6V30H117.4V25.2C117.2 23 115.5 21.7 113.4 21.7ZM113.2 28.6C112.6 28.6 111.7 28.3 111.7 27.5C111.7 26.5 112.8 26.2 113.7 26.2C114.5 26.2 114.9 26.4 115.4 26.6C115.2 27.8 114.2 28.6 113.2 28.6ZM123.7 22L121.6 27.4H121.5L119.3 22H117.3L120.6 29.6L118.7 33.8H120.6L125.7 22H123.7ZM106.9 30H108.8V17.5H106.9V30Z" fill="#012137" stroke="#012137" stroke-width="2" mask="url(#path-10-inside-1_205_3416)"/>
<path d="M20.7001 19.3999L10.1001 30.6999C10.4001 31.8999 11.5001 32.7999 12.9001 32.7999C13.4001 32.7999 13.9001 32.6999 14.4001 32.3999L26.4001 25.4999L20.7001 19.3999Z" fill="#EA4335"/>
<path d="M31.5 17.5L26.3 14.5L20.5 19.7L26.3 25.5L31.4 22.5C32.3 22 32.9 21.1 32.9 20C33 18.9 32.4 18 31.5 17.5Z" fill="#FBBC04"/>
<path d="M10.1 9.29993C10 9.49993 10 9.79993 10 9.99993V29.9999C10 30.2999 10 30.4999 10.1 30.6999L21.1 19.6999L10.1 9.29993Z" fill="#4285F4"/>
<path d="M20.8 20L26.3 14.5L14.3 7.59995C13.9 7.29995 13.4 7.19995 12.8 7.19995C11.5 7.19995 10.3 8.09995 10 9.29995L20.8 20Z" fill="#012137"/>
</g>
<defs>
<clipPath id="clip0_205_3416">
<rect width="135" height="40" rx="10" fill="white"/>
</clipPath>
</defs>
</svg>
