<svg width="40" height="40" viewBox="0 0 40 40" fill="none" xmlns="http://www.w3.org/2000/svg">
<g clip-path="url(#clip0_1921_14289)">
<path d="M38.5185 40H1.48148C0.651852 40 0 37.8 0 35V5C0 2.2 0.651852 0 1.48148 0H38.5185C39.3481 0 40 2.2 40 5V35C40 37.7 39.3481 40 38.5185 40Z" fill="black"/>
<path d="M20.7001 19.3999L10.1001 30.6999C10.4001 31.8999 11.5001 32.7999 12.9001 32.7999C13.4001 32.7999 13.9001 32.6999 14.4001 32.3999L26.4001 25.4999L20.7001 19.3999Z" fill="#EA4335"/>
<path d="M31.5 17.5L26.3 14.5L20.5 19.7L26.3 25.5L31.4 22.5C32.3 22 32.9 21.1 32.9 20C33 18.9 32.4 18 31.5 17.5Z" fill="#FBBC04"/>
<path d="M10.1 9.29993C10 9.49993 10 9.79993 10 9.99993V29.9999C10 30.2999 10 30.4999 10.1 30.6999L21.1 19.6999L10.1 9.29993Z" fill="#4285F4"/>
<path d="M20.8 20L26.3 14.5L14.3 7.59995C13.9 7.29995 13.4 7.19995 12.8 7.19995C11.5 7.19995 10.3 8.09995 10 9.29995L20.8 20Z" fill="#34A853"/>
</g>
<defs>
<clipPath id="clip0_1921_14289">
<rect width="40" height="40" rx="10" fill="white"/>
</clipPath>
</defs>
</svg>
