<svg width="142" height="26" viewBox="0 0 142 26" fill="none" xmlns="http://www.w3.org/2000/svg">
<path d="M3 5.66667C4.47276 5.66667 5.66667 4.47276 5.66667 3C5.66667 1.52724 4.47276 0.333334 3 0.333334C1.52724 0.333334 0.333332 1.52724 0.333332 3C0.333332 4.47276 1.52724 5.66667 3 5.66667ZM39 3L39.3536 2.64644C39.2598 2.55268 39.1326 2.5 39 2.5L39 3ZM49 13L48.6464 13.3536C48.7402 13.4473 48.8674 13.5 49 13.5L49 13ZM79 23L78.6464 23.3536C78.7402 23.4473 78.8674 23.5 79 23.5L79 23ZM109 25.6667C110.473 25.6667 111.667 24.4728 111.667 23C111.667 21.5272 110.473 20.3333 109 20.3333C107.527 20.3333 106.333 21.5272 106.333 23C106.333 24.4728 107.527 25.6667 109 25.6667ZM119 13L118.646 13.3535C118.74 13.4473 118.867 13.5 119 13.5L119 13ZM129 15.6667C130.473 15.6667 131.667 14.4728 131.667 13C131.667 11.5272 130.473 10.3333 129 10.3333C127.527 10.3333 126.333 11.5272 126.333 13C126.333 14.4728 127.527 15.6667 129 15.6667ZM39 23L38.6464 23.3536C38.7402 23.4473 38.8674 23.5 39 23.5L39 23ZM59 25.6667C60.4728 25.6667 61.6667 24.4728 61.6667 23C61.6667 21.5272 60.4728 20.3333 59 20.3333C57.5272 20.3333 56.3333 21.5272 56.3333 23C56.3333 24.4728 57.5272 25.6667 59 25.6667ZM89 13L89 13.5C89.1326 13.5 89.2598 13.4473 89.3536 13.3535L89 13ZM139 5.66666C140.473 5.66666 141.667 4.47275 141.667 2.99999C141.667 1.52723 140.473 0.333328 139 0.333328C137.527 0.333328 136.333 1.52723 136.333 2.99999C136.333 4.47275 137.527 5.66666 139 5.66666ZM99 3L99 2.5C98.8674 2.5 98.7402 2.55267 98.6464 2.64644L99 3ZM38.6464 3.35355L48.6464 13.3536L49.3536 12.6464L39.3536 2.64644L38.6464 3.35355ZM49 13.5L69 13.5L69 12.5L49 12.5L49 13.5ZM68.6464 13.3536L78.6464 23.3536L79.3536 22.6464L69.3536 12.6464L68.6464 13.3536ZM79 23.5L109 23.5L109 22.5L79 22.5L79 23.5ZM108.646 3.35355L118.646 13.3535L119.354 12.6464L109.354 2.64644L108.646 3.35355ZM119 13.5L129 13.5L129 12.5L119 12.5L119 13.5ZM28.6464 13.3536L38.6464 23.3536L39.3536 22.6464L29.3536 12.6464L28.6464 13.3536ZM39 23.5L59 23.5L59 22.5L39 22.5L39 23.5ZM69 13.5L89 13.5L89 12.5L69 12.5L69 13.5ZM139 2.49999L109 2.5L109 3.5L139 3.49999L139 2.49999ZM39 2.5L19 2.5L19 3.5L39 3.5L39 2.5ZM19 2.5L3 2.5L3 3.5L19 3.5L19 2.5ZM29.3536 12.6464L19.3536 2.64645L18.6464 3.35355L28.6464 13.3536L29.3536 12.6464ZM109 2.5L99 2.5L99 3.5L109 3.5L109 2.5ZM89.3536 13.3535L99.3536 3.35355L98.6464 2.64644L88.6464 12.6464L89.3536 13.3535Z" fill="#00D791"/>
</svg>
