<svg width="474" height="6" viewBox="0 0 474 6" fill="none" xmlns="http://www.w3.org/2000/svg">
<path d="M3 5.66667C4.47276 5.66667 5.66667 4.47276 5.66667 3C5.66667 1.52724 4.47276 0.333333 3 0.333333C1.52724 0.333333 0.333333 1.52724 0.333333 3C0.333333 4.47276 1.52724 5.66667 3 5.66667ZM471 5.66665C472.473 5.66665 473.667 4.47274 473.667 2.99998C473.667 1.52722 472.473 0.333313 471 0.333313C469.527 0.333313 468.333 1.52722 468.333 2.99998C468.333 4.47274 469.527 5.66665 471 5.66665ZM471 2.49998L3 2.5L3 3.5L471 3.49998L471 2.49998Z" fill="#00D791"/>
</svg>
