<svg width="462" height="935" viewBox="0 0 462 935" fill="none" xmlns="http://www.w3.org/2000/svg">
<circle cx="-47.7881" cy="147" r="146" stroke="#F3F5F7" stroke-width="2"/>
<circle cx="70.2119" cy="353" r="146" stroke="#F3F5F7" stroke-width="2"/>
<path d="M110.212 925L110.212 229" stroke="#F3F5F7" stroke-width="2" stroke-linecap="round"/>
<path d="M32.2119 925L32.212 229" stroke="#F3F5F7" stroke-width="2" stroke-linecap="round"/>
<path d="M110.228 228.885L460.939 932.303" stroke="#F3F5F7" stroke-width="2" stroke-linecap="round"/>
<path d="M112.707 408.668L374.625 933.994" stroke="#F3F5F7" stroke-width="2" stroke-linecap="round"/>
<path d="M-282 858.506L32.009 228.702" stroke="#F3F5F7" stroke-width="2" stroke-linecap="round"/>
<path d="M-212.195 893.31L29.5281 408.488" stroke="#F3F5F7" stroke-width="2" stroke-linecap="round"/>
<path d="M12.9868 388.596L109.987 556.605" stroke="#F3F5F7" stroke-width="2" stroke-linecap="round"/>
<path d="M-55.563 426.596L31.937 578.151" stroke="#F3F5F7" stroke-width="2" stroke-linecap="round"/>
<path d="M-232.788 1H136.212" stroke="#F3F5F7" stroke-width="2" stroke-linecap="round"/>
<path d="M-232.788 79H136.212" stroke="#F3F5F7" stroke-width="2" stroke-linecap="round"/>
<path d="M103.212 361H277.212" stroke="#F3F5F7" stroke-width="2" stroke-linecap="round"/>
<path d="M185.437 301.45C102.47 301.45 35.2119 234.192 35.2119 151.225C35.2119 68.258 102.47 1 185.437 1" stroke="#F3F5F7" stroke-width="2" stroke-linecap="round"/>
<path d="M262.414 561.861C271.358 564.233 279.763 570.159 285.8 580.626H285.677L286.404 582.074L326.447 661.854C326.447 661.855 326.448 661.856 326.448 661.857C336.013 681.112 328.201 704.443 309.077 713.969C289.742 723.501 266.318 715.712 256.757 696.664L216.719 616.892C211.23 605.217 211.376 594.417 214.994 585.479C218.621 576.518 225.768 569.36 234.385 565.068C243.002 560.776 253.039 559.375 262.414 561.861Z" stroke="#00D791" stroke-width="2"/>
<path d="M32.2139 599.392C33.5934 548.05 108.923 548.05 110.303 599.392V699.108C110.303 720.493 92.7339 738 71.2582 738C49.7825 738 32.2139 720.493 32.2139 699.108V599.392Z" stroke="#00D791" stroke-width="2"/>
<path d="M248.03 284.634H247.932L251.156 282.768C330.029 237.133 336.152 173.118 336.152 151.791C336.152  125.408 330.378 98.8604 316.465 74.9032L316.464 74.9014C290.015 29.1376 242.693 2 189.789 2H-48.2747C-101.177 2 -148.5 29.3354 -174.951 74.9031C-201.4 120.468 -201.4 174.936 -174.951 220.502L-174.951 220.502L-56.0191 425.746L-56.0185 425.747C-29.5689 471.511 17.7526 498.648 70.6569 498.648C123.559 498.648 170.883 471.313 197.333 425.745L234.904 361.027H144.715L129.789 386.853C117.596 408.109 95.4394 420.865 70.8571 420.865C46.2703 420.865 24.3195 408.106 11.929 386.859L11.9276 386.857L-107.003 181.616C-107.003 181.615 -107.004 181.614 -107.004 181.613C-119.397 160.36 -119.397 135.045 -107.004 113.792C-94.811 92.5375 -72.6555 79.7837 -48.0745 79.7837H189.989C214.576 79.7837 236.527 92.5424 248.917 113.789C261.311 135.042  261.312 160.357 248.92 181.61M248.03 284.634L248.053 181.112M248.03  284.634C169.786 327.15 69.8342 286.054 33.9199 209.807L33.904 209.773L33.8857 209.741C30.1886 203.203 32.8588 196.293 38.0336 192.273C43.2044 188.256 50.5945 187.347 56.1543 192.609L56.1801 192.633L56.2077 192.656C87.9184 218.648 125.63 238.199 165.475 233.366M248.03 284.634L165.362 232.373M248.92 181.61C248.919 181.612 248.918 181.614 248.917 181.616L248.053 181.112M248.92 181.61C248.92 181.61 248.921 181.61 248.921 181.609L248.053 181.112M248.92 181.61C231.92 211.247 199.579 229.746 165.475 233.366M248.053 181.112C231.235 210.432 199.199 228.783 165.362 232.373M165.475 233.366C165.478 233.366 165.48 233.366 165.482 233.366L165.362 232.373M165.475 233.366C165.473 233.367 165.47 233.367 165.467 233.367L165.362 232.373" stroke="#00D791" stroke-width="2"/>
</svg>
