<svg width="745" height="935" viewBox="0 0 745 935" fill="none" xmlns="http://www.w3.org/2000/svg">
<circle cx="235.212" cy="147" r="146" stroke="#F3F5F7" stroke-width="2"/>
<circle cx="353.212" cy="353" r="146" stroke="#F3F5F7" stroke-width="2"/>
<path d="M393.212 925L393.212 229" stroke="#F3F5F7" stroke-width="2" stroke-linecap="round"/>
<path d="M315.212 925L315.212 229" stroke="#F3F5F7" stroke-width="2" stroke-linecap="round"/>
<path d="M393.228 228.885L743.939 932.303" stroke="#F3F5F7" stroke-width="2" stroke-linecap="round"/>
<path d="M395.707 408.668L657.625 933.994" stroke="#F3F5F7" stroke-width="2" stroke-linecap="round"/>
<path d="M1 858.506L315.009 228.702" stroke="#F3F5F7" stroke-width="2" stroke-linecap="round"/>
<path d="M70.8049 893.31L312.528 408.488" stroke="#F3F5F7" stroke-width="2" stroke-linecap="round"/>
<path d="M295.987 388.596L392.987 556.605" stroke="#F3F5F7" stroke-width="2" stroke-linecap="round"/>
<path d="M227.437 426.596L314.937 578.151" stroke="#F3F5F7" stroke-width="2" stroke-linecap="round"/>
<path d="M50.2119 1H419.212" stroke="#F3F5F7" stroke-width="2" stroke-linecap="round"/>
<path d="M50.2119 79H419.212" stroke="#F3F5F7" stroke-width="2" stroke-linecap="round"/>
<path d="M386.212 361H560.212" stroke="#F3F5F7" stroke-width="2" stroke-linecap="round"/>
<path d="M468.437 301.45C385.47 301.45 318.212 234.192 318.212 151.225C318.212 68.258 385.47 1 468.437 1" stroke="#F3F5F7" stroke-width="2" stroke-linecap="round"/>
<path d="M545.414 561.861C554.358 564.233 562.763 570.159 568.8 580.626H568.677L569.404 582.074L609.447 661.854C609.447 661.855 609.448 661.856 609.448 661.857C619.013 681.112 611.201 704.443 592.077 713.969C572.742 723.501 549.318 715.712 539.757 696.664L499.719 616.892C494.23 605.217 494.376 594.417 497.994 585.479C501.621 576.518 508.768 569.36 517.385 565.068C526.002 560.776 536.039 559.375 545.414 561.861Z" stroke="#00D791" stroke-width="2"/>
<path d="M208.999 616.693L168.966 696.454C162.884 707.833 154.122 714.199 144.77 716.679C135.395 719.165 125.358 717.764 116.741 713.472C108.124 709.18 100.977 702.022 97.3498 693.061C93.7319 684.123 93.586 673.323 99.0743 661.648L139.107 581.887C145.189 570.508 153.952 564.143 163.303 561.663C172.678 559.176 182.716 560.578 191.333 564.87C199.95 569.162 207.096 576.32 210.724 585.281C214.342 594.218 214.487 605.019 208.999 616.693Z" stroke="#00D791" stroke-width="2"/>
<path d="M315.214 599.392C316.593 548.05 391.923 548.05 393.303 599.392V699.108C393.303 720.493 375.734 738 354.258 738C332.782 738 315.214 720.493 315.214 699.108V599.392Z" stroke="#00D791" stroke-width="2"/>
<path d="M531.03 284.634H530.932L534.156 282.768C613.029 237.133 619.152 173.118 619.152 151.791C619.152 125.408 613.378 98.8604 599.465 74.9032L599.464 74.9014C573.015 29.1376 525.693 2 472.789 2H234.725C181.823 2 134.5 29.3354 108.049 74.9031C81.5996 120.468 81.5996 174.936 108.049 220.502L108.049 220.502L226.981 425.746L226.982 425.747C253.431 471.511 300.753 498.648 353.657 498.648C406.559 498.648 453.883 471.313 480.333 425.745L517.904 361.027H427.715L412.789 386.853C400.596 408.109 378.439 420.865 353.857 420.865C329.27 420.865 307.32 408.106 294.929 386.859L294.928 386.857L175.997 181.616C175.997 181.615 175.996 181.614 175.996 181.613C163.603 160.36 163.603 135.045 175.996 113.792C188.189 92.5375 210.345 79.7837 234.925 79.7837H472.989C497.576 79.7837 519.527 92.5424 531.917 113.789C544.311 135.042 544.312 160.357 531.92 181.61M531.03 284.634L531.053 181.112M531.03 284.634C452.786 327.15 352.834 286.054 316.92 209.807L316.904 209.773L316.886 209.741C313.189 203.203 315.859 196.293 321.034 192.273C326.204 188.256 333.595 187.347 339.154 192.609L339.18 192.633L339.208 192.656C370.918 218.648 408.63 238.199 448.475 233.366M531.03 284.634L448.362 232.373M531.92 181.61C531.919 181.612 531.918 181.614 531.917 181.616L531.053 181.112M531.92 181.61C531.92 181.61 531.921 181.61 531.921 181.609L531.053 181.112M531.92 181.61C514.92 211.247 482.579 229.746 448.475 233.366M531.053 181.112C514.235 210.432 482.199 228.783 448.362 232.373M448.475 233.366C448.478 233.366 448.48 233.366 448.482 233.366L448.362 232.373M448.475 233.366C448.473 233.367 448.47 233.367 448.467 233.367L448.362 232.373" stroke="#00D791" stroke-width="2"/>
</svg>
