<svg width="40" height="40" viewBox="0 0 40 40" fill="none" xmlns="http://www.w3.org/2000/svg">
<path d="M29.8283 11.9719C29.4497 11.3019 28.5997 11.0656 27.9297 11.4441C26.562 12.2171 25.2312 13.0697 23.9597 14.0093C22.6968 14.9582 21.4764 15.9734 20.3257 17.0675C19.176 18.163 18.089 19.3278 17.0642 20.5571C16.5868 21.1341 16.1186 21.7234 15.6749 22.3367L11.5697 19.4526C11.2316 19.216 10.7668 19.2019 10.4097 19.4526C9.95382 19.773 9.84382 20.4023 10.1642 20.8582L16.0246 28.7364C16.0246 28.7364 21.3757 18.6567 29.4653 13.7623C30.0516 13.4075 30.1742 12.5845 29.8286 11.9726L29.8283 11.9719Z" fill="#012137"/>
</svg>
