<svg width="327" height="171" viewBox="0 0 327 171" fill="none" xmlns="http://www.w3.org/2000/svg">
<path d="M147 90.5C169.63 105.506 199.184 118.759 220.5 124C240.356 128.882 260 129.5 273.5 126C291.5 123 309.5 112.5 324 94.5C327.358 89.474 327.358 83.012 324 77.986C318.233 69.37 313.935 64.4672 307 57C306.489 68.847 303.505 75.0622 300.512 80.16C293.869 91.5044 282.137 97.5614 267.464 100.864C255.127 103.664 241.184 103.234 226 99.5C208.115 95.1202 189.5 85.5 169 73.698C146.37 58.6918 124.316 51.2414 103 46C83.144 41.1176 64.509 43.6228 47.5 47.5C40 49.2096 21.3568 56 5.49996 76.5C2.14196 81.526 -1.12716 84.3356 2.23084 89.3616C7.99784 97.9776 14.4218 106.019 21.3568 113.486C21.8678 101.639 26.5069 94.4594 29.4999 89.3616C38.9999 79 40.4999 78.5 54.9999 71.5C67.3369 68.6998 85.316 67.7664 100.5 71.5C117.5 76.5 125 79 147 90.5Z" fill="#B4DBFF"/>
<path d="M189.07 52.3718C217.16 69.6833 243.857 77.847 262 74C268.655 72.5894 272.978 69.5394 275.5 65.5C277.882 61.7171 278.937 55.4764 278.166 47.6541C278.166 47.2694 278.096 46.8847 278.026 46.5C272.282 48.1029 264.745 49.7694 254.517 49.7694C250.244 49.7694 246.742 49.3847 244.5 49C236.584 47.5894 221.063 42.4128 202.5 31C179 16.8627 158.996 7.10404 137 0.5C116.475 3.19291 98.7131 7.60069 80.5 16C92.4786 16 104.321 18.0506 117 21C140.537 26.3858 164.693 37.4966 189 52.5L189.07 52.3718Z" fill="#B4DBFF"/>
<path d="M132 114.5C103 100 88 94.5 68 97C61.065 98.5796 55.736 101.954 53.108 106.478C50.626 110.714 49.6967 114.409 50.4997 123.168C50.4997 123.599 50.5727 124.03 50.6457 124.461C56.6317 122.666 64.4028 121.138 75.0608 121.138C79.5138 121.138 83.1637 121.569 85.4997 122C93.4997 124.5 98.9998 126 120 136.5C143.068 151.793 170.078 163.605 193 171C214.389 167.984 228.5 164 248.617 154.954C236.134 154.954 223.213 153.303 210 150C184.5 142.5 169 136.5 141.5 120.5L132 114.5Z" fill="#B4DBFF"/>
</svg>
