<svg width="96" height="169" viewBox="0 0 96 169" fill="none" xmlns="http://www.w3.org/2000/svg">
<path d="M52.1379 1.60509C52.1379 1.60509 52.03 1.51204 51.994 1.46552C49.5832 -0.488506 46.4528 -0.488506 44.042 1.46552C44.006 1.46552 43.934 1.55857 43.898 1.60509C40.5877 4.44308 37.4573 7.46717 34.4708 10.7239C39.2564 13.748 43.7901 17.3304 48 21.4245C68.7976 41.6161 81.1034 73.1597 81.1034 107.029C81.1034 130.617 66.3148 149.785 48.036 149.785C29.7571 149.785 14.9685 130.664 14.9685 107.029H14.8966C14.8966 87.5822 18.8906 69.3447 25.907 53.6659C39.2204 65.204 47.964 84.7908 47.964 107.029C47.964 114.055 47.4603 120.522 46.5967 126.43H48C56.2759 126.43 63.0045 117.73 63.0045 107.029C63.0045 71.1591 45.5532 40.5926 21.0495 28.6823C7.5922 50.6884 0 78.1378 0 106.983H0.0719657C0.0719657 141.225 21.5532 169 48.036 169C74.5187 169 96 141.225 96 106.983C96 64.4596 79.5922 25.0534 52.1379 1.55857V1.60509Z" fill="#1FA4F1"/>
</svg>
