<svg width="1118" height="400" viewBox="0 0 1118 400" fill="none" xmlns="http://www.w3.org/2000/svg">
<g clip-path="url(#clip0_1347_18142)">
<rect width="1118" height="400" fill="#F3F5F7"/>
<path d="M560 326V326C560 337.046 568.954 346 580 346L977 346C988.046 346 997 337.046 997 326L997 286M977 103V103C988.046 103 997 111.954 997 123L997 194M997 194L977 194M997 194L997 286M997 286L977 286" stroke="white" stroke-width="4" stroke-linecap="round" stroke-linejoin="round"/>
<path d="M349 114L349 158" stroke="white" stroke-width="4" stroke-linecap="round" stroke-linejoin="round"/>
<path d="M306 114L306 158" stroke="white" stroke-width="4" stroke-linecap="round" stroke-linejoin="round"/>
<path d="M264 114L264 158" stroke="white" stroke-width="4" stroke-linecap="round" stroke-linejoin="round"/>
<path d="M222 114L222 158" stroke="white" stroke-width="4" stroke-linecap="round" stroke-linejoin="round"/>
<path d="M349 152L349 133" stroke="#1FA4F1" stroke-width="4" stroke-linecap="round" stroke-linejoin="round"/>
<path d="M306 152L306 133" stroke="#1FA4F1" stroke-width="4" stroke-linecap="round" stroke-linejoin="round"/>
<path d="M264 152L264 133" stroke="#1FA4F1" stroke-width="4" stroke-linecap="round" stroke-linejoin="round"/>
<path d="M222 152L222 133" stroke="#1FA4F1" stroke-width="4" stroke-linecap="round" stroke-linejoin="round"/>
<rect x="341" y="152" width="16" height="14" rx="5" fill="white"/>
<g clip-path="url(#clip1_1347_18142)">
<path d="M320 170.123C320 164.6 324.477 160.123 330 160.123H357V231.342C357 236.865 352.523 241.342 347 241.342H330C324.477 241.342 320 236.865 320 231.342V170.123Z" fill="#1FA4F1"/>
<path d="M583.546 164.667C588.697 170.444 593.849 170.444 599 164.667L599 130L289.925 130L289.925 164.667C295.076 170.444 300.227 170.444 305.379 164.667C310.53 170.444 315.681 170.444 320.832 164.667C325.984 170.444 331.135 170.444 336.286 164.667C341.437 170.444 346.589 170.444 351.74 164.667C356.891 170.444 362.042 170.444 367.194 164.667C372.345 170.444 377.496 170.444 382.647 164.667C387.799 170.444 392.95 170.444 398.101 164.667C403.252 170.444 408.404 170.444 413.555 164.667C418.706 170.444 423.857 170.444 429.009 164.667C434.16 170.444 439.311 170.444 444.462 164.667C449.614 170.444 454.765 170.444 459.916 164.667C465.067 170.444 470.219 170.444 475.37 164.667C480.521 170.444 485.672 170.444 490.824 164.667C495.975 170.444 501.126 170.444 506.277 164.667C511.429 170.444 516.58 170.444 521.731 164.667C526.882 170.444 532.034 170.444 537.185 164.667C542.336 170.444 547.487 170.444 552.639 164.667C557.79 170.444 562.941 170.444 568.092 164.667C573.244 170.444 578.395 170.444 583.546 164.667Z" fill="white"/>
<path d="M352.488 203.527C351.936 203.527 351.488 203.975 351.488 204.527C351.488 205.08 351.936 205.527 352.488 205.527L352.488 203.527ZM352.488 205.527L357 205.527L357 203.527L352.488 203.527L352.488 205.527Z" fill="#012137"/>
<path d="M352.488 174C351.936 174 351.488 174.448 351.488 175C351.488 175.552 351.936 176 352.488 176L352.488 174ZM352.488 176L357 176L357 174L352.488 174L352.488 176Z" fill="#012137"/>
<path d="M352.488 231.316C351.936 231.316 351.488 231.764 351.488 232.316C351.488 232.869 351.936 233.316 352.488 233.316L352.488 231.316ZM352.488 233.316L357 233.316L357 231.316L352.488 231.316L352.488 233.316Z" fill="#012137"/>
</g>
<rect x="298" y="152" width="16" height="14" rx="5" fill="white"/>
<g clip-path="url(#clip2_1347_18142)">
<path d="M277 170.123C277 164.6 281.477 160.123 287 160.123H314V231.342C314 236.865 309.523 241.342 304 241.342H287C281.477 241.342 277 236.865 277 231.342V170.123Z" fill="#1FA4F1"/>
<path d="M540.546 164.667C545.697 170.444 550.849 170.444 556 164.667L556 130L246.925 130L246.925 164.667C252.076 170.444 257.227 170.444 262.379 164.667C267.53 170.444 272.681 170.444 277.832 164.667C282.984 170.444 288.135 170.444 293.286 164.667C298.437 170.444 303.589 170.444 308.74 164.667C313.891 170.444 319.042 170.444 324.194 164.667C329.345 170.444 334.496 170.444 339.647 164.667C344.799 170.444 349.95 170.444 355.101 164.667C360.252 170.444 365.404 170.444 370.555 164.667C375.706 170.444 380.857 170.444 386.009 164.667C391.16 170.444 396.311 170.444 401.462 164.667C406.614 170.444 411.765 170.444 416.916 164.667C422.067 170.444 427.219 170.444 432.37 164.667C437.521 170.444 442.672 170.444 447.824 164.667C452.975 170.444 458.126 170.444 463.277 164.667C468.429 170.444 473.58 170.444 478.731 164.667C483.882 170.444 489.034 170.444 494.185 164.667C499.336 170.444 504.487 170.444 509.639 164.667C514.79 170.444 519.941 170.444 525.092 164.667C530.244 170.444 535.395 170.444 540.546 164.667Z" fill="white"/>
<path d="M309.488 203.527C308.936 203.527 308.488 203.975 308.488 204.527C308.488 205.08 308.936 205.527 309.488 205.527L309.488 203.527ZM309.488 205.527L314 205.527L314 203.527L309.488 203.527L309.488 205.527Z" fill="#012137"/>
<path d="M309.488 174C308.936 174 308.488 174.448 308.488 175C308.488 175.552 308.936 176 309.488 176L309.488 174ZM309.488 176L314 176L314 174L309.488 174L309.488 176Z" fill="#012137"/>
<path d="M309.488 231.316C308.936 231.316 308.488 231.764 308.488 232.316C308.488 232.869 308.936 233.316 309.488 233.316L309.488 231.316ZM309.488 233.316L314 233.316L314 231.316L309.488 231.316L309.488 233.316Z" fill="#012137"/>
</g>
<rect x="256" y="152" width="16" height="14" rx="5" fill="white"/>
<g clip-path="url(#clip3_1347_18142)">
<path d="M235 170.123C235 164.6 239.477 160.123 245 160.123H272V231.342C272 236.865 267.523 241.342 262 241.342H245C239.477 241.342 235 236.865 235 231.342V170.123Z" fill="#1FA4F1"/>
<path d="M498.546 164.667C503.697 170.444 508.849 170.444 514 164.667L514 130L204.925 130L204.925 164.667C210.076 170.444 215.227 170.444 220.379 164.667C225.53 170.444 230.681 170.444 235.832 164.667C240.984 170.444 246.135 170.444 251.286 164.667C256.437 170.444 261.589 170.444 266.74 164.667C271.891 170.444 277.042 170.444 282.194 164.667C287.345 170.444 292.496 170.444 297.647 164.667C302.799 170.444 307.95 170.444 313.101 164.667C318.252 170.444 323.404 170.444 328.555 164.667C333.706 170.444 338.857 170.444 344.009 164.667C349.16 170.444 354.311 170.444 359.462 164.667C364.614 170.444 369.765 170.444 374.916 164.667C380.067 170.444 385.219 170.444 390.37 164.667C395.521 170.444 400.672 170.444 405.824 164.667C410.975 170.444 416.126 170.444 421.277 164.667C426.429 170.444 431.58 170.444 436.731 164.667C441.882 170.444 447.034 170.444 452.185 164.667C457.336 170.444 462.487 170.444 467.639 164.667C472.79 170.444 477.941 170.444 483.092 164.667C488.244 170.444 493.395 170.444 498.546 164.667Z" fill="white"/>
<path d="M267.488 203.527C266.936 203.527 266.488 203.975 266.488 204.527C266.488 205.08 266.936 205.527 267.488 205.527L267.488 203.527ZM267.488 205.527L272 205.527L272 203.527L267.488 203.527L267.488 205.527Z" fill="#012137"/>
<path d="M267.488 174C266.936 174 266.488 174.448 266.488 175C266.488 175.552 266.936 176 267.488 176L267.488 174ZM267.488 176L272 176L272 174L267.488 174L267.488 176Z" fill="#012137"/>
<path d="M267.488 231.316C266.936 231.316 266.488 231.764 266.488 232.316C266.488 232.869 266.936 233.316 267.488 233.316L267.488 231.316ZM267.488 233.316L272 233.316L272 231.316L267.488 231.316L267.488 233.316Z" fill="#012137"/>
</g>
<rect x="214" y="152" width="16" height="14" rx="5" fill="white"/>
<g clip-path="url(#clip4_1347_18142)">
<path d="M193 170.123C193 164.6 197.477 160.123 203 160.123H230V231.342C230 236.865 225.523 241.342 220 241.342H203C197.477 241.342 193 236.865 193 231.342V170.123Z" fill="#1FA4F1"/>
<path d="M456.546 164.667C461.697 170.444 466.849 170.444 472 164.667L472 130L162.925 130L162.925 164.667C168.076 170.444 173.227 170.444 178.379 164.667C183.53 170.444 188.681 170.444 193.832 164.667C198.984 170.444 204.135 170.444 209.286 164.667C214.437 170.444 219.589 170.444 224.74 164.667C229.891 170.444 235.042 170.444 240.194 164.667C245.345 170.444 250.496 170.444 255.647 164.667C260.799 170.444 265.95 170.444 271.101 164.667C276.252 170.444 281.404 170.444 286.555 164.667C291.706 170.444 296.857 170.444 302.009 164.667C307.16 170.444 312.311 170.444 317.462 164.667C322.614 170.444 327.765 170.444 332.916 164.667C338.067 170.444 343.219 170.444 348.37 164.667C353.521 170.444 358.672 170.444 363.824 164.667C368.975 170.444 374.126 170.444 379.277 164.667C384.429 170.444 389.58 170.444 394.731 164.667C399.882 170.444 405.034 170.444 410.185 164.667C415.336 170.444 420.487 170.444 425.639 164.667C430.79 170.444 435.941 170.444 441.092 164.667C446.244 170.444 451.395 170.444 456.546 164.667Z" fill="white"/>
<path d="M225.488 203.527C224.936 203.527 224.488 203.975 224.488 204.527C224.488 205.08 224.936 205.527 225.488 205.527L225.488 203.527ZM225.488 205.527L230 205.527L230 203.527L225.488 203.527L225.488 205.527Z" fill="#012137"/>
<path d="M225.488 174C224.936 174 224.488 174.448 224.488 175C224.488 175.552 224.936 176 225.488 176L225.488 174ZM225.488 176L230 176L230 174L225.488 174L225.488 176Z" fill="#012137"/>
<path d="M225.488 231.316C224.936 231.316 224.488 231.764 224.488 232.316C224.488 232.869 224.936 233.316 225.488 233.316L225.488 231.316ZM225.488 233.316L230 233.316L230 231.316L225.488 231.316L225.488 233.316Z" fill="#012137"/>
</g>
<path d="M134.5 346L366 346C377.046 346 386 337.046 386 326V300M854 286H741C729.954 286 721 277.046 721 266V194M721 194L854 194M721 194V103M721 103V52C721 40.9543 712.046 32 701 32L406 32C394.954 32 386 40.9543 386 52V113L386 298V115M721 103L787.5 103H854" stroke="white" stroke-width="4" stroke-linecap="round" stroke-linejoin="round"/>
<path d="M427 114L162 114M133.5 114H162M162 114V279C162 290.046 170.954 299 182 299L212 299M386 299H335" stroke="white" stroke-width="4" stroke-linecap="round" stroke-linejoin="round"/>
<path d="M386 299H427" stroke="white" stroke-width="4"/>
<path d="M14.494 321.76C17.392 321.76 19.142 323.412 19.142 326.38C19.142 329.348 17.392 331 14.494 331H11.512V321.76H14.494ZM14.606 329.95C16.72 329.95 17.966 328.62 17.966 326.38C17.966 324.14 16.72 322.81 14.606 322.81H12.632V329.95H14.606ZM24.6275 323.86C24.8655 323.86 25.1875 323.888 25.3975 324L25.1735 325.092C24.9635 324.98 24.6555 324.91 24.2915 324.91C23.4515 324.91 22.4435 325.652 22.4435 327.22V331H21.3235V324H22.2335L22.3875 325.148C22.7795 324.294 23.5355 323.86 24.6275 323.86ZM32.5869 330.188C32.7689 330.188 32.9789 330.16 33.1469 330.118L33.0769 331C32.8809 331.07 32.5869 331.14 32.2369 331.14C31.5509 331.14 31.1029 330.888 30.9769 330.104C30.5289 330.762 29.6189 331.14 28.7229 331.14C27.4069 331.14 26.3429 330.524 26.3429 329.264C26.3429 328.214 27.2669 327.388 29.0729 327.08L30.9349 326.772V326.38C30.9349 325.456 30.3469 324.84 29.2969 324.84C28.3729 324.84 27.6729 325.288 27.2949 326.17L26.4689 325.568C26.8329 324.532 27.9389 323.86 29.2969 323.86C30.8929 323.86 32.0549 324.616 32.0549 326.24V329.684C32.0549 330.02 32.1949 330.188 32.5869 330.188ZM28.7789 330.16C29.8989 330.16 30.9349 329.572 30.9349 328.648V327.682L29.3669 327.976C28.1349 328.2 27.5049 328.606 27.5049 329.264C27.5049 329.852 27.9809 330.16 28.7789 330.16ZM35.3366 322.656C34.8326 322.656 34.4966 322.32 34.4966 321.816C34.4966 321.312 34.8326 320.976 35.3366 320.976C35.8406 320.976 36.1766 321.312 36.1766 321.816C36.1766 322.32 35.8406 322.656 35.3366 322.656ZM35.8966 324V331H34.7766V324H35.8966ZM41.8974 323.86C43.3954 323.86 44.6274 324.714 44.6274 326.52V331H43.5074V326.912C43.5074 325.358 42.7514 324.84 41.7854 324.84C40.7634 324.84 39.6154 325.484 39.6154 327.276V331H38.4954V324H39.4754L39.5454 325.092C40.0354 324.21 40.9314 323.86 41.8974 323.86ZM52.9033 330.188C53.0853 330.188 53.2953 330.16 53.4633 330.118L53.3933 331C53.1973 331.07 52.9033 331.14 52.5533 331.14C51.8673 331.14 51.4193 330.888 51.2933 330.104C50.8453 330.762 49.9353 331.14 49.0393 331.14C47.7233 331.14 46.6593 330.524 46.6593 329.264C46.6593 328.214 47.5833 327.388 49.3893 327.08L51.2513 326.772V326.38C51.2513 325.456 50.6633 324.84 49.6133 324.84C48.6893 324.84 47.9893 325.288 47.6113 326.17L46.7853 325.568C47.1493 324.532 48.2553 323.86 49.6133 323.86C51.2093 323.86 52.3713 324.616 52.3713 326.24V329.684C52.3713 330.02 52.5113 330.188 52.9033 330.188ZM49.0953 330.16C50.2153 330.16 51.2513 329.572 51.2513 328.648V327.682L49.6833 327.976C48.4513 328.2 47.8213 328.606 47.8213 329.264C47.8213 329.852 48.2973 330.16 49.0953 330.16ZM60.385 324H61.309V330.44C61.309 332.848 60.091 334.01 57.753 334.01C56.325 334.01 55.135 333.478 54.883 332.288L55.947 331.826C56.115 332.624 56.731 333.03 57.921 333.03C59.237 333.03 60.175 332.078 60.175 330.706V329.908C59.713 330.566 58.901 331 57.851 331C55.905 331 54.659 329.67 54.659 327.43C54.659 325.19 55.905 323.86 57.851 323.86C58.957 323.86 59.811 324.336 60.245 325.064L60.385 324ZM57.977 330.02C59.307 330.02 60.175 329.054 60.175 327.514V327.346C60.175 325.806 59.307 324.84 57.977 324.84C56.605 324.84 55.779 325.848 55.779 327.43C55.779 329.012 56.605 330.02 57.977 330.02ZM69.9174 327.136C69.9174 327.458 69.8894 327.724 69.8614 327.92H64.5834C64.7234 329.334 65.5774 330.16 66.8654 330.16C67.8874 330.16 68.5874 329.796 68.8394 329.124L69.7774 329.614C69.2454 330.566 68.3774 331.14 66.8654 331.14C64.7514 331.14 63.4774 329.768 63.4774 327.5C63.4774 325.232 64.6674 323.86 66.7814 323.86C68.8114 323.86 69.9174 325.33 69.9174 327.136ZM66.7814 324.84C65.5354 324.84 64.7654 325.61 64.5974 326.926H68.8394C68.6854 325.638 67.9714 324.84 66.7814 324.84Z" fill="#012137"/>
<path d="M17.98 90.81H12.632V93.792H16.804V94.842H12.632V99H11.512V89.76H17.98V90.81ZM22.5767 91.86C22.8147 91.86 23.1367 91.888 23.3467 92L23.1227 93.092C22.9127 92.98 22.6047 92.91 22.2407 92.91C21.4007 92.91 20.3927 93.652 20.3927 95.22V99H19.2727V92H20.1827L20.3367 93.148C20.7287 92.294 21.4847 91.86 22.5767 91.86ZM30.7748 95.136C30.7748 95.458 30.7468 95.724 30.7188 95.92H25.4408C25.5808 97.334 26.4348 98.16 27.7228 98.16C28.7448 98.16 29.4448 97.796 29.6968 97.124L30.6348 97.614C30.1028 98.566 29.2348 99.14 27.7228 99.14C25.6088 99.14 24.3348 97.768 24.3348 95.5C24.3348 93.232 25.5248 91.86 27.6388 91.86C29.6688 91.86 30.7748 93.33 30.7748 95.136ZM27.6388 92.84C26.3928 92.84 25.6228 93.61 25.4548 94.926H29.6968C29.5428 93.638 28.8288 92.84 27.6388 92.84ZM35.2836 99.14C33.9956 99.14 32.8056 98.636 32.2736 97.558L33.1836 96.928C33.5196 97.782 34.3876 98.16 35.3956 98.16C36.5436 98.16 37.0896 97.698 37.0896 97.124C37.0896 96.606 36.6556 96.298 35.2556 96.046C33.2676 95.682 32.5396 95.136 32.5396 93.96C32.5396 92.826 33.5896 91.86 35.2976 91.86C36.7956 91.86 37.6776 92.392 38.0696 93.54L37.1176 94.1C36.8096 93.176 36.1796 92.84 35.2976 92.84C34.3596 92.84 33.6596 93.344 33.6596 93.862C33.6596 94.464 34.1216 94.772 35.5496 95.01C37.5096 95.332 38.2096 95.92 38.2096 97.068C38.2096 98.286 37.0756 99.14 35.2836 99.14ZM43.6884 91.86C45.1864 91.86 46.4184 92.714 46.4184 94.52V99H45.2984V94.912C45.2984 93.358 44.5424 92.84 43.5764 92.84C42.5544 92.84 41.4064 93.498 41.4064 95.29V99H40.2864V88.78H41.4064V93.05C41.8964 92.21 42.7364 91.86 43.6884 91.86ZM58.121 93.008L56.497 99H55.111L52.381 89.76H53.585L55.811 98.118L57.995 89.76H59.269L61.453 98.146L63.693 89.76H64.827L62.111 99H60.725L59.087 93.008L58.611 90.922H58.597L58.121 93.008ZM71.8115 98.188C71.9935 98.188 72.2035 98.16 72.3715 98.118L72.3015 99C72.1055 99.07 71.8115 99.14 71.4615 99.14C70.7755 99.14 70.3275 98.888 70.2015 98.104C69.7535 98.762 68.8435 99.14 67.9475 99.14C66.6315 99.14 65.5675 98.524 65.5675 97.264C65.5675 96.214 66.4915 95.388 68.2975 95.08L70.1595 94.772V94.38C70.1595 93.456 69.5715 92.84 68.5215 92.84C67.5975 92.84 66.8975 93.288 66.5195 94.17L65.6935 93.568C66.0575 92.532 67.1635 91.86 68.5215 91.86C70.1175 91.86 71.2795 92.616 71.2795 94.24V97.684C71.2795 98.02 71.4195 98.188 71.8115 98.188ZM68.0035 98.16C69.1235 98.16 70.1595 97.572 70.1595 96.648V95.682L68.5915 95.976C67.3595 96.2 66.7295 96.606 66.7295 97.264C66.7295 97.852 67.2055 98.16 68.0035 98.16ZM77.6198 97.572L78.0118 98.51C77.5778 98.902 76.9758 99.14 76.2058 99.14C75.1698 99.14 74.2738 98.622 74.2598 97.264V92.966H72.8598V92H74.2598V90.32L75.3798 90.012V92H77.9698V92.966H75.3798V97.068C75.3798 97.754 75.8138 98.09 76.4298 98.09C76.9338 98.09 77.2978 97.894 77.6198 97.572ZM85.599 95.136C85.599 95.458 85.571 95.724 85.543 95.92H80.265C80.405 97.334 81.259 98.16 82.547 98.16C83.569 98.16 84.269 97.796 84.521 97.124L85.459 97.614C84.927 98.566 84.059 99.14 82.547 99.14C80.433 99.14 79.159 97.768 79.159 95.5C79.159 93.232 80.349 91.86 82.463 91.86C84.493 91.86 85.599 93.33 85.599 95.136ZM82.463 92.84C81.217 92.84 80.447 93.61 80.279 94.926H84.521C84.367 93.638 83.653 92.84 82.463 92.84ZM91.0318 91.86C91.2698 91.86 91.5918 91.888 91.8018 92L91.5778 93.092C91.3678 92.98 91.0598 92.91 90.6958 92.91C89.8558 92.91 88.8478 93.652 88.8478 95.22V99H87.7278V92H88.6378L88.7918 93.148C89.1838 92.294 89.9398 91.86 91.0318 91.86Z" fill="#012137"/>
<g clip-path="url(#clip5_1347_18142)">
<rect x="854" y="62" width="123" height="81" rx="10" fill="white"/>
<path d="M772.85 75.4444C767.567 69.5185 762.283 69.5185 757 75.4444L757 175.5L1074 175.5L1074 75.4444C1068.72 69.5185 1063.43 69.5185 1058.15 75.4444C1052.87 69.5185 1047.58 69.5185 1042.3 75.4444C1037.02 69.5185 1031.73 69.5185 1026.45 75.4444C1021.17 69.5185 1015.88 69.5185 1010.6 75.4444C1005.32 69.5185 1000.03 69.5185 994.75 75.4444C989.467 69.5185 984.183 69.5185 978.9 75.4444C973.617 69.5185 968.333 69.5185 963.05 75.4444C957.767 69.5185 952.483 69.5185 947.2 75.4444C941.917 69.5185 936.633 69.5185 931.35 75.4444C926.067 69.5185 920.783 69.5185 915.5 75.4444C910.217 69.5185 904.933 69.5185 899.65 75.4444C894.367 69.5185 889.084 69.5185 883.8 75.4444C878.517 69.5185 873.234 69.5185 867.95 75.4444C862.667 69.5185 857.383 69.5185 852.1 75.4444C846.817 69.5185 841.534 69.5185 836.25 75.4444C830.967 69.5185 825.684 69.5185 820.4 75.4444C815.117 69.5185 809.833 69.5185 804.55 75.4444C799.267 69.5185 793.983 69.5185 788.7 75.4444C783.417 69.5185 778.133 69.5185 772.85 75.4444Z" fill="#00D791"/>
<path d="M906.069 98.81H900.721V101.792H904.893V102.842H900.721V107H899.601V97.76H906.069V98.81ZM912.965 106.188C913.147 106.188 913.357 106.16 913.525 106.118L913.455 107C913.259 107.07 912.965 107.14 912.615 107.14C911.929 107.14 911.481 106.888 911.355 106.104C910.907 106.762 909.997 107.14 909.101 107.14C907.785 107.14 906.721 106.524 906.721 105.264C906.721 104.214 907.645 103.388 909.451 103.08L911.313 102.772V102.38C911.313 101.456 910.725 100.84 909.675 100.84C908.751 100.84 908.051 101.288 907.673 102.17L906.847 101.568C907.211 100.532 908.317 99.86 909.675 99.86C911.271 99.86 912.433 100.616 912.433 102.24V105.684C912.433 106.02 912.573 106.188 912.965 106.188ZM909.157 106.16C910.277 106.16 911.313 105.572 911.313 104.648V103.682L909.745 103.976C908.513 104.2 907.883 104.606 907.883 105.264C907.883 105.852 908.359 106.16 909.157 106.16ZM918.459 99.86C918.697 99.86 919.019 99.888 919.229 100L919.005 101.092C918.795 100.98 918.487 100.91 918.123 100.91C917.283 100.91 916.275 101.652 916.275 103.22V107H915.155V100H916.065L916.219 101.148C916.611 100.294 917.367 99.86 918.459 99.86ZM929.003 99.86C930.347 99.86 931.677 100.672 931.677 102.52V107H930.557V102.632C930.557 101.358 929.829 100.84 928.905 100.84C927.813 100.84 926.833 101.666 926.833 103.164V107H925.713V102.632C925.713 101.358 924.985 100.84 924.061 100.84C923.137 100.84 921.989 101.526 921.989 103.262V107H920.869V100H921.849L921.919 101.092C922.423 100.238 923.291 99.86 924.159 99.86C925.139 99.86 926.105 100.294 926.567 101.232C927.001 100.28 928.121 99.86 929.003 99.86Z" fill="#012137"/>
</g>
<g clip-path="url(#clip6_1347_18142)">
<rect x="854" y="153" width="123" height="81" rx="10" fill="white"/>
<path d="M772.85 166.444C767.567 160.519 762.283 160.519 757 166.444L757 266.5L1074 266.5L1074 166.444C1068.72 160.518 1063.43 160.518 1058.15 166.444C1052.87 160.518 1047.58 160.518 1042.3 166.444C1037.02 160.518 1031.73 160.518 1026.45 166.444C1021.17 160.518 1015.88 160.518 1010.6 166.444C1005.32 160.518 1000.03 160.518 994.75 166.444C989.467 160.518 984.183 160.518 978.9 166.444C973.617 160.518 968.333 160.518 963.05 166.444C957.767 160.518 952.483 160.518 947.2 166.444C941.917 160.518 936.633 160.518 931.35 166.444C926.067 160.518 920.783 160.518 915.5 166.444C910.217 160.518 904.933 160.518 899.65 166.444C894.367 160.518 889.084 160.518 883.8 166.444C878.517 160.518 873.234 160.518 867.95 166.444C862.667 160.518 857.383 160.519 852.1 166.444C846.817 160.519 841.534 160.519 836.25 166.444C830.967 160.519 825.684 160.519 820.4 166.444C815.117 160.519 809.833 160.519 804.55 166.444C799.267 160.519 793.983 160.519 788.7 166.444C783.417 160.519 778.133 160.519 772.85 166.444Z" fill="#00D791"/>
<path d="M906.069 189.81H900.721V192.792H904.893V193.842H900.721V198H899.601V188.76H906.069V189.81ZM912.965 197.188C913.147 197.188 913.357 197.16 913.525 197.118L913.455 198C913.259 198.07 912.965 198.14 912.615 198.14C911.929 198.14 911.481 197.888 911.355 197.104C910.907 197.762 909.997 198.14 909.101 198.14C907.785 198.14 906.721 197.524 906.721 196.264C906.721 195.214 907.645 194.388 909.451 194.08L911.313 193.772V193.38C911.313 192.456 910.725 191.84 909.675 191.84C908.751 191.84 908.051 192.288 907.673 193.17L906.847 192.568C907.211 191.532 908.317 190.86 909.675 190.86C911.271 190.86 912.433 191.616 912.433 193.24V196.684C912.433 197.02 912.573 197.188 912.965 197.188ZM909.157 197.16C910.277 197.16 911.313 196.572 911.313 195.648V194.682L909.745 194.976C908.513 195.2 907.883 195.606 907.883 196.264C907.883 196.852 908.359 197.16 909.157 197.16ZM918.459 190.86C918.697 190.86 919.019 190.888 919.229 191L919.005 192.092C918.795 191.98 918.487 191.91 918.123 191.91C917.283 191.91 916.275 192.652 916.275 194.22V198H915.155V191H916.065L916.219 192.148C916.611 191.294 917.367 190.86 918.459 190.86ZM929.003 190.86C930.347 190.86 931.677 191.672 931.677 193.52V198H930.557V193.632C930.557 192.358 929.829 191.84 928.905 191.84C927.813 191.84 926.833 192.666 926.833 194.164V198H925.713V193.632C925.713 192.358 924.985 191.84 924.061 191.84C923.137 191.84 921.989 192.526 921.989 194.262V198H920.869V191H921.849L921.919 192.092C922.423 191.238 923.291 190.86 924.159 190.86C925.139 190.86 926.105 191.294 926.567 192.232C927.001 191.28 928.121 190.86 929.003 190.86Z" fill="#012137"/>
</g>
<g clip-path="url(#clip7_1347_18142)">
<rect x="854" y="245" width="123" height="81" rx="10" fill="white"/>
<path d="M772.85 258.444C767.567 252.519 762.283 252.519 757 258.444L757 358.5L1074 358.5L1074 258.444C1068.72 252.518 1063.43 252.518 1058.15 258.444C1052.87 252.518 1047.58 252.518 1042.3 258.444C1037.02 252.518 1031.73 252.518 1026.45 258.444C1021.17 252.518 1015.88 252.518 1010.6 258.444C1005.32 252.518 1000.03 252.518 994.75 258.444C989.467 252.518 984.183 252.518 978.9 258.444C973.617 252.518 968.333 252.518 963.05 258.444C957.767 252.518 952.483 252.518 947.2 258.444C941.917 252.518 936.633 252.518 931.35 258.444C926.067 252.518 920.783 252.518 915.5 258.444C910.217 252.518 904.933 252.518 899.65 258.444C894.367 252.518 889.084 252.518 883.8 258.444C878.517 252.518 873.234 252.518 867.95 258.444C862.667 252.518 857.383 252.519 852.1 258.444C846.817 252.519 841.534 252.519 836.25 258.444C830.967 252.519 825.684 252.519 820.4 258.444C815.117 252.519 809.833 252.519 804.55 258.444C799.267 252.519 793.983 252.519 788.7 258.444C783.417 252.519 778.133 252.519 772.85 258.444Z" fill="#00D791"/>
<path d="M906.069 281.81H900.721V284.792H904.893V285.842H900.721V290H899.601V280.76H906.069V281.81ZM912.965 289.188C913.147 289.188 913.357 289.16 913.525 289.118L913.455 290C913.259 290.07 912.965 290.14 912.615 290.14C911.929 290.14 911.481 289.888 911.355 289.104C910.907 289.762 909.997 290.14 909.101 290.14C907.785 290.14 906.721 289.524 906.721 288.264C906.721 287.214 907.645 286.388 909.451 286.08L911.313 285.772V285.38C911.313 284.456 910.725 283.84 909.675 283.84C908.751 283.84 908.051 284.288 907.673 285.17L906.847 284.568C907.211 283.532 908.317 282.86 909.675 282.86C911.271 282.86 912.433 283.616 912.433 285.24V288.684C912.433 289.02 912.573 289.188 912.965 289.188ZM909.157 289.16C910.277 289.16 911.313 288.572 911.313 287.648V286.682L909.745 286.976C908.513 287.2 907.883 287.606 907.883 288.264C907.883 288.852 908.359 289.16 909.157 289.16ZM918.459 282.86C918.697 282.86 919.019 282.888 919.229 283L919.005 284.092C918.795 283.98 918.487 283.91 918.123 283.91C917.283 283.91 916.275 284.652 916.275 286.22V290H915.155V283H916.065L916.219 284.148C916.611 283.294 917.367 282.86 918.459 282.86ZM929.003 282.86C930.347 282.86 931.677 283.672 931.677 285.52V290H930.557V285.632C930.557 284.358 929.829 283.84 928.905 283.84C927.813 283.84 926.833 284.666 926.833 286.164V290H925.713V285.632C925.713 284.358 924.985 283.84 924.061 283.84C923.137 283.84 921.989 284.526 921.989 286.262V290H920.869V283H921.849L921.919 284.092C922.423 283.238 923.291 282.86 924.159 282.86C925.139 282.86 926.105 283.294 926.567 284.232C927.001 283.28 928.121 282.86 929.003 282.86Z" fill="#012137"/>
</g>
<rect x="212" y="273" width="123" height="54" rx="10" fill="#1FA4F1"/>
<rect x="313" y="268" width="12" height="62" rx="6" fill="#1FA4F1"/>
<path d="M134 346H0" stroke="white" stroke-width="4"/>
<path d="M134 114H0" stroke="white" stroke-width="4"/>
<g clip-path="url(#clip8_1347_18142)">
<rect x="427" y="62" width="264" height="264" rx="10" fill="#1FA4F1"/>
<path d="M697.546 70.6667C702.697 76.4444 707.849 76.4444 713 70.6667L713 36L403.925 36L403.925 70.6666C409.076 76.4444 414.227 76.4444 419.379 70.6666C424.53 76.4444 429.681 76.4444 434.832 70.6666C439.984 76.4444 445.135 76.4444 450.286 70.6666C455.437 76.4444 460.589 76.4444 465.74 70.6666C470.891 76.4444 476.042 76.4444 481.194 70.6666C486.345 76.4444 491.496 76.4444 496.647 70.6666C501.799 76.4444 506.95 76.4444 512.101 70.6666C517.252 76.4444 522.404 76.4444 527.555 70.6667C532.706 76.4444 537.857 76.4444 543.009 70.6667C548.16 76.4444 553.311 76.4444 558.462 70.6667C563.614 76.4444 568.765 76.4444 573.916 70.6667C579.067 76.4444 584.219 76.4444 589.37 70.6667C594.521 76.4444 599.672 76.4444 604.824 70.6667C609.975 76.4444 615.126 76.4444 620.277 70.6667C625.429 76.4444 630.58 76.4444 635.731 70.6667C640.882 76.4444 646.034 76.4444 651.185 70.6667C656.336 76.4444 661.487 76.4444 666.639 70.6667C671.79 76.4444 676.941 76.4444 682.092 70.6667C687.244 76.4444 692.395 76.4444 697.546 70.6667Z" fill="white"/>
<path d="M537.276 177.76V187H535.89L532.026 180.812L531.046 178.992H531.032L531.088 180.476V187H530.024V177.76H531.41L535.26 183.92L536.254 185.768H536.268L536.212 184.284V177.76H537.276ZM544.969 180H546.089V187H545.109L545.039 185.936C544.549 186.776 543.653 187.14 542.533 187.14C541.147 187.14 539.957 186.426 539.957 184.578V180H541.077V184.284C541.077 185.726 541.721 186.16 542.729 186.16C543.919 186.16 544.969 185.46 544.969 183.808V180ZM552.587 185.572L552.979 186.51C552.545 186.902 551.943 187.14 551.173 187.14C550.137 187.14 549.241 186.622 549.227 185.264V180.966H547.827V180H549.227V178.32L550.347 178.012V180H552.937V180.966H550.347V185.068C550.347 185.754 550.781 186.09 551.397 186.09C551.901 186.09 552.265 185.894 552.587 185.572ZM557.864 179.86C558.102 179.86 558.424 179.888 558.634 180L558.41 181.092C558.2 180.98 557.892 180.91 557.528 180.91C556.688 180.91 555.68 181.652 555.68 183.22V187H554.56V180H555.47L555.624 181.148C556.016 180.294 556.772 179.86 557.864 179.86ZM560.835 178.656C560.331 178.656 559.995 178.32 559.995 177.816C559.995 177.312 560.331 176.976 560.835 176.976C561.339 176.976 561.675 177.312 561.675 177.816C561.675 178.32 561.339 178.656 560.835 178.656ZM561.395 180V187H560.275V180H561.395ZM569.999 183.136C569.999 183.458 569.971 183.724 569.943 183.92H564.665C564.805 185.334 565.659 186.16 566.947 186.16C567.969 186.16 568.669 185.796 568.921 185.124L569.859 185.614C569.327 186.566 568.459 187.14 566.947 187.14C564.833 187.14 563.559 185.768 563.559 183.5C563.559 181.232 564.749 179.86 566.863 179.86C568.893 179.86 569.999 181.33 569.999 183.136ZM566.863 180.84C565.617 180.84 564.847 181.61 564.679 182.926H568.921C568.767 181.638 568.053 180.84 566.863 180.84ZM575.53 179.86C577.028 179.86 578.26 180.714 578.26 182.52V187H577.14V182.912C577.14 181.358 576.384 180.84 575.418 180.84C574.396 180.84 573.248 181.484 573.248 183.276V187H572.128V180H573.108L573.178 181.092C573.668 180.21 574.564 179.86 575.53 179.86ZM584.592 185.572L584.984 186.51C584.55 186.902 583.948 187.14 583.178 187.14C582.142 187.14 581.246 186.622 581.232 185.264V180.966H579.832V180H581.232V178.32L582.352 178.012V180H584.942V180.966H582.352V185.068C582.352 185.754 582.786 186.09 583.402 186.09C583.906 186.09 584.27 185.894 584.592 185.572ZM517.811 208.14C516.523 208.14 515.333 207.636 514.801 206.558L515.711 205.928C516.047 206.782 516.915 207.16 517.923 207.16C519.071 207.16 519.617 206.698 519.617 206.124C519.617 205.606 519.183 205.298 517.783 205.046C515.795 204.682 515.067 204.136 515.067 202.96C515.067 201.826 516.117 200.86 517.825 200.86C519.323 200.86 520.205 201.392 520.597 202.54L519.645 203.1C519.337 202.176 518.707 201.84 517.825 201.84C516.887 201.84 516.187 202.344 516.187 202.862C516.187 203.464 516.649 203.772 518.077 204.01C520.037 204.332 520.737 204.92 520.737 206.068C520.737 207.286 519.603 208.14 517.811 208.14ZM525.768 200.86C527.882 200.86 529.156 202.232 529.156 204.5C529.156 206.768 527.882 208.14 525.768 208.14C523.654 208.14 522.38 206.768 522.38 204.5C522.38 202.232 523.654 200.86 525.768 200.86ZM525.768 201.826C524.354 201.826 523.5 202.834 523.5 204.5C523.5 206.166 524.354 207.174 525.768 207.174C527.182 207.174 528.036 206.166 528.036 204.5C528.036 202.834 527.182 201.826 525.768 201.826ZM532.479 197.78V208H531.359V197.78H532.479ZM540.047 201H541.167V208H540.187L540.117 206.936C539.627 207.776 538.731 208.14 537.611 208.14C536.225 208.14 535.035 207.426 535.035 205.578V201H536.155V205.284C536.155 206.726 536.799 207.16 537.807 207.16C538.997 207.16 540.047 206.46 540.047 204.808V201ZM547.665 206.572L548.057 207.51C547.623 207.902 547.021 208.14 546.251 208.14C545.215 208.14 544.319 207.622 544.305 206.264V201.966H542.905V201H544.305V199.32L545.425 199.012V201H548.015V201.966H545.425V206.068C545.425 206.754 545.859 207.09 546.475 207.09C546.979 207.09 547.343 206.894 547.665 206.572ZM550.198 199.656C549.694 199.656 549.358 199.32 549.358 198.816C549.358 198.312 549.694 197.976 550.198 197.976C550.702 197.976 551.038 198.312 551.038 198.816C551.038 199.32 550.702 199.656 550.198 199.656ZM550.758 201V208H549.638V201H550.758ZM556.311 200.86C558.425 200.86 559.699 202.232 559.699 204.5C559.699 206.768 558.425 208.14 556.311 208.14C554.197 208.14 552.923 206.768 552.923 204.5C552.923 202.232 554.197 200.86 556.311 200.86ZM556.311 201.826C554.897 201.826 554.043 202.834 554.043 204.5C554.043 206.166 554.897 207.174 556.311 207.174C557.725 207.174 558.579 206.166 558.579 204.5C558.579 202.834 557.725 201.826 556.311 201.826ZM565.276 200.86C566.774 200.86 568.006 201.714 568.006 203.52V208H566.886V203.912C566.886 202.358 566.13 201.84 565.164 201.84C564.142 201.84 562.994 202.484 562.994 204.276V208H561.874V201H562.854L562.924 202.092C563.414 201.21 564.31 200.86 565.276 200.86ZM578.659 206.572L579.051 207.51C578.617 207.902 578.015 208.14 577.245 208.14C576.209 208.14 575.313 207.622 575.299 206.264V201.966H573.899V201H575.299V199.32L576.419 199.012V201H579.009V201.966H576.419V206.068C576.419 206.754 576.853 207.09 577.469 207.09C577.973 207.09 578.337 206.894 578.659 206.572ZM586.372 207.188C586.554 207.188 586.764 207.16 586.932 207.118L586.862 208C586.666 208.07 586.372 208.14 586.022 208.14C585.336 208.14 584.888 207.888 584.762 207.104C584.314 207.762 583.404 208.14 582.508 208.14C581.192 208.14 580.128 207.524 580.128 206.264C580.128 205.214 581.052 204.388 582.858 204.08L584.72 203.772V203.38C584.72 202.456 584.132 201.84 583.082 201.84C582.158 201.84 581.458 202.288 581.08 203.17L580.254 202.568C580.618 201.532 581.724 200.86 583.082 200.86C584.678 200.86 585.84 201.616 585.84 203.24V206.684C585.84 207.02 585.98 207.188 586.372 207.188ZM582.564 207.16C583.684 207.16 584.72 206.572 584.72 205.648V204.682L583.152 204.976C581.92 205.2 581.29 205.606 581.29 206.264C581.29 206.852 581.766 207.16 582.564 207.16ZM591.964 200.86C593.462 200.86 594.694 201.714 594.694 203.52V208H593.574V203.912C593.574 202.358 592.818 201.84 591.852 201.84C590.83 201.84 589.682 202.484 589.682 204.276V208H588.562V201H589.542L589.612 202.092C590.102 201.21 590.998 200.86 591.964 200.86ZM602.186 208L599.834 204.542L598.35 206.026V208H597.23V197.78H598.35V204.626L601.976 201H603.376L600.646 203.73L603.544 208H602.186Z" fill="#012137"/>
</g>
<path d="M214.065 206L213.085 203.438H208.899L207.919 206H206.743L210.341 196.76H211.671L215.255 206H214.065ZM209.305 202.388H212.679L211.433 199.112L210.999 197.824H210.971L210.565 199.07L209.305 202.388Z" fill="#012137"/>
<path d="M249.939 206V196.76H253.229C255.413 196.76 256.379 197.74 256.379 199.308C256.379 200.246 255.819 201.1 254.825 201.296V201.31C255.917 201.52 256.617 202.402 256.617 203.41C256.617 204.978 255.399 206 253.215 206H249.939ZM251.059 200.82H253.243C254.559 200.82 255.203 200.33 255.203 199.308C255.203 198.3 254.559 197.81 253.243 197.81H251.059V200.82ZM251.059 204.95H253.481C254.797 204.95 255.441 204.39 255.441 203.41C255.441 202.43 254.797 201.87 253.481 201.87H251.059V204.95Z" fill="#012137"/>
<path d="M299.161 203.634C298.573 205.216 297.173 206.14 295.437 206.14C292.805 206.14 291.153 204.306 291.153 201.38C291.153 198.454 292.833 196.62 295.409 196.62C297.201 196.62 298.405 197.376 298.993 198.776L297.887 199.294C297.481 198.23 296.725 197.67 295.493 197.67C293.603 197.67 292.329 199.042 292.329 201.38C292.329 203.704 293.519 205.09 295.437 205.09C296.669 205.09 297.635 204.46 298.041 203.214L299.161 203.634Z" fill="#012137"/>
<path d="M334.758 198.86C336.704 198.86 337.95 200.218 337.95 202.5C337.95 204.782 336.704 206.14 334.758 206.14C333.708 206.14 332.868 205.636 332.434 204.908V208.94H331.314V199H332.294L332.364 200.218C332.77 199.42 333.652 198.86 334.758 198.86ZM334.632 205.16C336.004 205.16 336.83 204.124 336.83 202.5C336.83 200.876 336.004 199.84 334.632 199.84C333.302 199.84 332.434 200.834 332.434 202.416V202.584C332.434 204.166 333.302 205.16 334.632 205.16ZM346.351 196.76H347.471V206H346.351V201.842H341.339V206H340.219V196.76H341.339V200.792H346.351V196.76Z" fill="#012137"/>
<path d="M657.389 304.021H659.281V305H654.133V304.021H656.256V299.632C656.256 299.434 656.267 299.214 656.278 298.972C655.706 299.478 654.947 299.885 654.243 300.028L654.023 299.027C654.617 298.95 656.003 298.29 656.399 297.74H657.389V304.021ZM663.005 305.11C661.19 305.11 660.233 303.812 660.233 301.37C660.233 298.928 661.19 297.63 663.005 297.63C664.82 297.63 665.777 298.928 665.777 301.37C665.777 303.812 664.82 305.11 663.005 305.11ZM663.005 304.109C664.05 304.109 664.578 303.196 664.578 301.37C664.578 299.544 664.05 298.631 663.005 298.631C661.96 298.631 661.432 299.544 661.432 301.37C661.432 303.196 661.96 304.109 663.005 304.109ZM668.565 297.63C669.687 297.63 670.402 298.433 670.402 299.654C670.402 300.875 669.687 301.678 668.565 301.678C667.454 301.678 666.728 300.875 666.728 299.654C666.728 298.433 667.454 297.63 668.565 297.63ZM668.279 305L673.031 297.74H674.043L669.302 305H668.279ZM668.565 298.488C668.004 298.488 667.696 298.917 667.696 299.654C667.696 300.38 668.004 300.809 668.565 300.809C669.137 300.809 669.445 300.38 669.445 299.654C669.445 298.917 669.137 298.488 668.565 298.488ZM673.757 301.062C674.879 301.062 675.594 301.865 675.594 303.086C675.594 304.307 674.879 305.11 673.757 305.11C672.646 305.11 671.92 304.307 671.92 303.086C671.92 301.865 672.646 301.062 673.757 301.062ZM673.757 301.931C673.196 301.931 672.888 302.36 672.888 303.086C672.888 303.823 673.196 304.252 673.757 304.252C674.329 304.252 674.637 303.823 674.637 303.086C674.637 302.36 674.329 301.931 673.757 301.931Z" fill="#012137"/>
<path d="M681 300C680.448 300 680 300.448 680 301C680 301.552 680.448 302 681 302V300ZM691 300H681V302H691V300Z" fill="#012137"/>
<path d="M656.685 193.336C658.082 193.336 658.973 194.271 658.973 195.635C658.973 197.23 657.928 198.11 656.388 198.11C655.046 198.11 654.243 197.56 653.759 196.515L654.859 195.91C655.057 196.636 655.42 197.109 656.366 197.109C657.268 197.109 657.829 196.592 657.818 195.701C657.807 194.799 657.312 194.304 656.41 194.304C655.772 194.304 655.244 194.491 654.936 194.931L653.957 194.865L654.408 190.74H658.621V191.752H655.343L655.09 193.765L655.068 193.919H655.079C655.409 193.556 655.948 193.336 656.685 193.336ZM663.005 198.11C661.19 198.11 660.233 196.812 660.233 194.37C660.233 191.928 661.19 190.63 663.005 190.63C664.82 190.63 665.777 191.928 665.777 194.37C665.777 196.812 664.82 198.11 663.005 198.11ZM663.005 197.109C664.05 197.109 664.578 196.196 664.578 194.37C664.578 192.544 664.05 191.631 663.005 191.631C661.96 191.631 661.432 192.544 661.432 194.37C661.432 196.196 661.96 197.109 663.005 197.109ZM668.565 190.63C669.687 190.63 670.402 191.433 670.402 192.654C670.402 193.875 669.687 194.678 668.565 194.678C667.454 194.678 666.728 193.875 666.728 192.654C666.728 191.433 667.454 190.63 668.565 190.63ZM668.279 198L673.031 190.74H674.043L669.302 198H668.279ZM668.565 191.488C668.004 191.488 667.696 191.917 667.696 192.654C667.696 193.38 668.004 193.809 668.565 193.809C669.137 193.809 669.445 193.38 669.445 192.654C669.445 191.917 669.137 191.488 668.565 191.488ZM673.757 194.062C674.879 194.062 675.594 194.865 675.594 196.086C675.594 197.307 674.879 198.11 673.757 198.11C672.646 198.11 671.92 197.307 671.92 196.086C671.92 194.865 672.646 194.062 673.757 194.062ZM673.757 194.931C673.196 194.931 672.888 195.36 672.888 196.086C672.888 196.823 673.196 197.252 673.757 197.252C674.329 197.252 674.637 196.823 674.637 196.086C674.637 195.36 674.329 194.931 673.757 194.931Z" fill="#012137"/>
<path d="M681 193C680.448 193 680 193.448 680 194C680 194.552 680.448 195 681 195V193ZM691 193H681V195H691V193Z" fill="#012137"/>
<path d="M650.75 90.021H652.642V91H647.494V90.021H649.617V85.632C649.617 85.434 649.628 85.214 649.639 84.972C649.067 85.478 648.308 85.885 647.604 86.028L647.384 85.027C647.978 84.95 649.364 84.29 649.76 83.74H650.75V90.021ZM656.366 91.11C654.551 91.11 653.594 89.812 653.594 87.37C653.594 84.928 654.551 83.63 656.366 83.63C658.181 83.63 659.138 84.928 659.138 87.37C659.138 89.812 658.181 91.11 656.366 91.11ZM656.366 90.109C657.411 90.109 657.939 89.196 657.939 87.37C657.939 85.544 657.411 84.631 656.366 84.631C655.321 84.631 654.793 85.544 654.793 87.37C654.793 89.196 655.321 90.109 656.366 90.109ZM663.005 91.11C661.19 91.11 660.233 89.812 660.233 87.37C660.233 84.928 661.19 83.63 663.005 83.63C664.82 83.63 665.777 84.928 665.777 87.37C665.777 89.812 664.82 91.11 663.005 91.11ZM663.005 90.109C664.05 90.109 664.578 89.196 664.578 87.37C664.578 85.544 664.05 84.631 663.005 84.631C661.96 84.631 661.432 85.544 661.432 87.37C661.432 89.196 661.96 90.109 663.005 90.109ZM668.565 83.63C669.687 83.63 670.402 84.433 670.402 85.654C670.402 86.875 669.687 87.678 668.565 87.678C667.454 87.678 666.728 86.875 666.728 85.654C666.728 84.433 667.454 83.63 668.565 83.63ZM668.279 91L673.031 83.74H674.043L669.302 91H668.279ZM668.565 84.488C668.004 84.488 667.696 84.917 667.696 85.654C667.696 86.38 668.004 86.809 668.565 86.809C669.137 86.809 669.445 86.38 669.445 85.654C669.445 84.917 669.137 84.488 668.565 84.488ZM673.757 87.062C674.879 87.062 675.594 87.865 675.594 89.086C675.594 90.307 674.879 91.11 673.757 91.11C672.646 91.11 671.92 90.307 671.92 89.086C671.92 87.865 672.646 87.062 673.757 87.062ZM673.757 87.931C673.196 87.931 672.888 88.36 672.888 89.086C672.888 89.823 673.196 90.252 673.757 90.252C674.329 90.252 674.637 89.823 674.637 89.086C674.637 88.36 674.329 87.931 673.757 87.931Z" fill="#012137"/>
<path d="M681 86C680.448 86 680 86.4477 680 87C680 87.5523 680.448 88 681 88V86ZM691 86H681V88H691V86Z" fill="#012137"/>
<path d="M246.552 293.76V303H245.488V297.19L245.614 294.754H245.6L242.562 303H241.61L238.572 294.754H238.558L238.684 297.19V303H237.62V293.76H239.342L241.372 299.374L242.072 301.684H242.1L242.814 299.388L244.83 293.76H246.552ZM255.018 302.188C255.2 302.188 255.41 302.16 255.578 302.118L255.508 303C255.312 303.07 255.018 303.14 254.668 303.14C253.982 303.14 253.534 302.888 253.408 302.104C252.96 302.762 252.05 303.14 251.154 303.14C249.838 303.14 248.774 302.524 248.774 301.264C248.774 300.214 249.698 299.388 251.504 299.08L253.366 298.772V298.38C253.366 297.456 252.778 296.84 251.728 296.84C250.804 296.84 250.104 297.288 249.726 298.17L248.9 297.568C249.264 296.532 250.37 295.86 251.728 295.86C253.324 295.86 254.486 296.616 254.486 298.24V301.684C254.486 302.02 254.626 302.188 255.018 302.188ZM251.21 302.16C252.33 302.16 253.366 301.572 253.366 300.648V299.682L251.798 299.976C250.566 300.2 249.936 300.606 249.936 301.264C249.936 301.852 250.412 302.16 251.21 302.16ZM257.767 294.656C257.263 294.656 256.927 294.32 256.927 293.816C256.927 293.312 257.263 292.976 257.767 292.976C258.271 292.976 258.607 293.312 258.607 293.816C258.607 294.32 258.271 294.656 257.767 294.656ZM258.327 296V303H257.207V296H258.327ZM264.328 295.86C265.826 295.86 267.058 296.714 267.058 298.52V303H265.938V298.912C265.938 297.358 265.182 296.84 264.216 296.84C263.194 296.84 262.046 297.484 262.046 299.276V303H260.926V296H261.906L261.976 297.092C262.466 296.21 263.362 295.86 264.328 295.86ZM277.291 293.76C279.153 293.76 280.399 294.838 280.399 296.574C280.399 298.31 279.153 299.388 277.291 299.388H275.149V303H274.029V293.76H277.291ZM277.123 298.338C278.579 298.338 279.223 297.722 279.223 296.574C279.223 295.426 278.579 294.81 277.123 294.81H275.149V298.338H277.123ZM287.306 296H288.426V303H287.446L287.376 301.936C286.886 302.776 285.99 303.14 284.87 303.14C283.484 303.14 282.294 302.426 282.294 300.578V296H283.414V300.284C283.414 301.726 284.058 302.16 285.066 302.16C286.256 302.16 287.306 301.46 287.306 299.808V296ZM299.165 295.86C300.509 295.86 301.839 296.672 301.839 298.52V303H300.719V298.632C300.719 297.358 299.991 296.84 299.067 296.84C297.975 296.84 296.995 297.666 296.995 299.164V303H295.875V298.632C295.875 297.358 295.147 296.84 294.223 296.84C293.299 296.84 292.151 297.526 292.151 299.262V303H291.031V296H292.011L292.081 297.092C292.585 296.238 293.453 295.86 294.321 295.86C295.301 295.86 296.267 296.294 296.729 297.232C297.163 296.28 298.283 295.86 299.165 295.86ZM307.819 295.86C309.765 295.86 311.011 297.218 311.011 299.5C311.011 301.782 309.765 303.14 307.819 303.14C306.769 303.14 305.929 302.636 305.495 301.908V305.94H304.375V296H305.355L305.425 297.218C305.831 296.42 306.713 295.86 307.819 295.86ZM307.693 302.16C309.065 302.16 309.891 301.124 309.891 299.5C309.891 297.876 309.065 296.84 307.693 296.84C306.363 296.84 305.495 297.834 305.495 299.416V299.584C305.495 301.166 306.363 302.16 307.693 302.16Z" fill="#012137"/>
<path d="M126 114H0" stroke="#1FA4F1" stroke-width="4"/>
<path d="M126 346H0" stroke="#1FA4F1" stroke-width="4"/>
<path d="M854 103H787.5L721.854 103C721.627 103 721.41 102.91 721.25 102.75V102.75C721.09 102.59 721 102.373 721 102.146V52C721 40.9543 712.046 32 701 32L406 32C394.954 32 386 40.9543 386 52L386 113V298V115" stroke="#1FA4F1" stroke-width="4" stroke-linecap="round" stroke-linejoin="round"/>
<path d="M427 114L162.854 114C162.627 114 162.41 114.09 162.25 114.25V114.25C162.09 114.41 162 114.627 162 114.854V279C162 290.046 170.954 299 182 299L212 299M386 299H335" stroke="#1FA4F1" stroke-width="4" stroke-linecap="round" stroke-linejoin="round"/>
<path d="M560 326V326C560 337.046 568.954 346 580 346L977 346C988.046 346 997 337.046 997 326L997 286L997 194L997 123C997 111.954 988.046 103 977 103V103" stroke="#1FA4F1" stroke-width="4" stroke-linejoin="round"/>
<path d="M818 279.886V292.114C818 293.74 819.839 294.687 821.162 293.741L829.722 287.627C830.838 286.83 830.838 285.17 829.722 284.373L821.162 278.259C819.839 277.313 818 278.26 818 279.886Z" fill="#00D791"/>
<path d="M834 292.114L834 279.886C834 278.26 832.161 277.313 830.838 278.259L822.278 284.373C821.162 285.17 821.162 286.83 822.278 287.627L830.838 293.741C832.161 294.687 834 293.74 834 292.114Z" fill="#00D791"/>
<rect x="824" y="278" width="4" height="16" fill="#F3F5F7"/>
<path d="M818 187.886V200.114C818 201.74 819.839 202.687 821.162 201.741L829.722 195.627C830.838 194.83 830.838 193.17 829.722 192.373L821.162 186.259C819.839 185.313 818 186.26 818 187.886Z" fill="#00D791"/>
<path d="M834 200.114L834 187.886C834 186.26 832.161 185.313 830.838 186.259L822.278 192.373C821.162 193.17 821.162 194.83 822.278 195.627L830.838 201.741C832.161 202.687 834 201.74 834 200.114Z" fill="#00D791"/>
<rect x="824" y="186" width="4" height="16" fill="#F3F5F7"/>
<path d="M818 96.8864V109.114C818 110.74 819.839 111.687 821.162 110.741L829.722 104.627C830.838 103.83 830.838 102.17 829.722 101.373L821.162 95.2589C819.839 94.3134 818 95.2596 818 96.8864Z" fill="#00D791"/>
<path d="M834 109.114L834 96.8864C834 95.2596 832.161 94.3134 830.838 95.2589L822.278 101.373C821.162 102.17 821.162 103.83 822.278 104.627L830.838 110.741C832.161 111.687 834 110.74 834 109.114Z" fill="#00D791"/>
<rect x="824" y="95" width="4" height="2" fill="#F3F5F7"/>
<path d="M379.886 217L392.114 217C393.74 217 394.687 215.161 393.741 213.838L387.627 205.278C386.83 204.162 385.17 204.162 384.373 205.278L378.259 213.838C377.313 215.161 378.26 217 379.886 217Z" fill="#1FA4F1"/>
<path d="M392.114 201L379.886 201C378.26 201 377.313 202.839 378.259 204.162L384.373 212.722C385.17 213.838 386.83 213.838 387.627 212.722L393.741 204.162C394.687 202.839 393.74 201 392.114 201Z" fill="#1FA4F1"/>
<rect x="378" y="211" width="4" height="2" transform="rotate(-90 378 211)" fill="#F3F5F7"/>
<path d="M399 292.886V305.114C399 306.74 400.839 307.687 402.162 306.741L410.722 300.627C411.838 299.83 411.838 298.17 410.722 297.373L402.162 291.259C400.839 290.313 399 291.26 399 292.886Z" fill="#1FA4F1"/>
<path d="M415 305.114L415 292.886C415 291.26 413.161 290.313 411.838 291.259L403.278 297.373C402.162 298.17 402.162 299.83 403.278 300.627L411.838 306.741C413.161 307.687 415 306.74 415 305.114Z" fill="#1FA4F1"/>
<rect x="405" y="291" width="4" height="16" fill="#F3F5F7"/>
<path d="M399 107.886V120.114C399 121.74 400.839 122.687 402.162 121.741L410.722 115.627C411.838 114.83 411.838 113.17 410.722 112.373L402.162 106.259C400.839 105.313 399 106.26 399 107.886Z" fill="#1FA4F1"/>
<path d="M415 120.114L415 107.886C415 106.26 413.161 105.313 411.838 106.259L403.278 112.373C402.162 113.17 402.162 114.83 403.278 115.627L411.838 121.741C413.161 122.687 415 121.74 415 120.114Z" fill="#1FA4F1"/>
<rect x="405" y="106" width="4" height="2" fill="#F3F5F7"/>
<path d="M126 107.886V120.114C126 121.74 127.839 122.687 129.162 121.741L137.722 115.627C138.838 114.83 138.838 113.17 137.722 112.373L129.162 106.259C127.839 105.313 126 106.26 126 107.886Z" fill="#1FA4F1"/>
<path d="M142 120.114L142 107.886C142 106.26 140.161 105.313 138.838 106.259L130.278 112.373C129.162 113.17 129.162 114.83 130.278 115.627L138.838 121.741C140.161 122.687 142 121.74 142 120.114Z" fill="#1FA4F1"/>
<rect x="132" y="106" width="4" height="16" fill="#F3F5F7"/>
<path d="M126 339.886V352.114C126 353.74 127.839 354.687 129.162 353.741L137.722 347.627C138.838 346.83 138.838 345.17 137.722 344.373L129.162 338.259C127.839 337.313 126 338.26 126 339.886Z" fill="#1FA4F1"/>
<path d="M142 352.114L142 339.886C142 338.26 140.161 337.313 138.838 338.259L130.278 344.373C129.162 345.17 129.162 346.83 130.278 347.627L138.838 353.741C140.161 354.687 142 353.74 142 352.114Z" fill="#1FA4F1"/>
<rect x="132" y="338" width="4" height="16" fill="#F3F5F7"/>
<path d="M342.886 140L355.114 140C356.74 140 357.687 138.161 356.741 136.838L350.627 128.278C349.83 127.162 348.17 127.162 347.373 128.278L341.259 136.838C340.313 138.161 341.26 140 342.886 140Z" fill="#E682E8"/>
<path d="M355.114 124L342.886 124C341.26 124 340.313 125.839 341.259 127.162L347.373 135.722C348.17 136.838 349.83 136.838 350.627 135.722L356.741 127.162C357.687 125.839 356.74 124 355.114 124Z" fill="#E682E8"/>
<rect x="341" y="134" width="4" height="16" transform="rotate(-90 341 134)" fill="#F3F5F7"/>
<path d="M299.886 140L312.114 140C313.74 140 314.687 138.161 313.741 136.838L307.627 128.278C306.83 127.162 305.17 127.162 304.373 128.278L298.259 136.838C297.313 138.161 298.26 140 299.886 140Z" fill="#E682E8"/>
<path d="M312.114 124L299.886 124C298.26 124 297.313 125.839 298.259 127.162L304.373 135.722C305.17 136.838 306.83 136.838 307.627 135.722L313.741 127.162C314.687 125.839 313.74 124 312.114 124Z" fill="#E682E8"/>
<rect x="298" y="134" width="4" height="16" transform="rotate(-90 298 134)" fill="#F3F5F7"/>
<path d="M257.886 140L270.114 140C271.74 140 272.687 138.161 271.741 136.838L265.627 128.278C264.83 127.162 263.17 127.162 262.373 128.278L256.259 136.838C255.313 138.161 256.26 140 257.886 140Z" fill="#E682E8"/>
<path d="M270.114 124L257.886 124C256.26 124 255.313 125.839 256.259 127.162L262.373 135.722C263.17 136.838 264.83 136.838 265.627 135.722L271.741 127.162C272.687 125.839 271.74 124 270.114 124Z" fill="#E682E8"/>
<rect x="256" y="134" width="4" height="16" transform="rotate(-90 256 134)" fill="#F3F5F7"/>
<path d="M215.886 140L228.114 140C229.74 140 230.687 138.161 229.741 136.838L223.627 128.278C222.83 127.162 221.17 127.162 220.373 128.278L214.259 136.838C213.313 138.161 214.26 140 215.886 140Z" fill="#E682E8"/>
<path d="M228.114 124L215.886 124C214.26 124 213.313 125.839 214.259 127.162L220.373 135.722C221.17 136.838 222.83 136.838 223.627 135.722L229.741 127.162C230.687 125.839 229.74 124 228.114 124Z" fill="#E682E8"/>
<rect x="214" y="134" width="4" height="16" transform="rotate(-90 214 134)" fill="#F3F5F7"/>
</g>
<defs>
<clipPath id="clip0_1347_18142">
<rect width="1118" height="400" fill="white"/>
</clipPath>
<clipPath id="clip1_1347_18142">
<path d="M320 170.123C320 164.6 324.477 160.123 330 160.123H357V231.342C357 236.865 352.523 241.342 347 241.342H330C324.477 241.342 320 236.865 320 231.342V170.123Z" fill="white"/>
</clipPath>
<clipPath id="clip2_1347_18142">
<path d="M277 170.123C277 164.6 281.477 160.123 287 160.123H314V231.342C314 236.865 309.523 241.342 304 241.342H287C281.477 241.342 277 236.865 277 231.342V170.123Z" fill="white"/>
</clipPath>
<clipPath id="clip3_1347_18142">
<path d="M235 170.123C235 164.6 239.477 160.123 245 160.123H272V231.342C272 236.865 267.523 241.342 262 241.342H245C239.477 241.342 235 236.865 235 231.342V170.123Z" fill="white"/>
</clipPath>
<clipPath id="clip4_1347_18142">
<path d="M193 170.123C193 164.6 197.477 160.123 203 160.123H230V231.342C230 236.865 225.523 241.342 220 241.342H203C197.477 241.342 193 236.865 193 231.342V170.123Z" fill="white"/>
</clipPath>
<clipPath id="clip5_1347_18142">
<rect x="854" y="62" width="123" height="81" rx="10" fill="white"/>
</clipPath>
<clipPath id="clip6_1347_18142">
<rect x="854" y="153" width="123" height="81" rx="10" fill="white"/>
</clipPath>
<clipPath id="clip7_1347_18142">
<rect x="854" y="245" width="123" height="81" rx="10" fill="white"/>
</clipPath>
<clipPath id="clip8_1347_18142">
<rect x="427" y="62" width="264" height="264" rx="10" fill="white"/>
</clipPath>
</defs>
</svg>
