<svg width="407" height="91" viewBox="0 0 407 91" fill="none" xmlns="http://www.w3.org/2000/svg">
<rect x="85" width="322" height="91" rx="10" fill="#F3F5F7"/>
<line x1="177" y1="21" x2="143" y2="21" stroke="white" stroke-width="4"/>
<path d="M159 27.1136L159 14.8864C159 13.2596 157.161 12.3134 155.838 13.2589L147.278 19.3725C146.162 20.1702 146.162 21.8298 147.278 22.6275L155.838 28.7411C157.161 29.6866 159 28.7404 159 27.1136Z" fill="#1FA4F1"/>
<path d="M143 14.8864L143 27.1136C143 28.7404 144.839 29.6866 146.162 28.7411L154.722 22.6275C155.838 21.8298 155.838 20.1702 154.722 19.3725L146.162 13.2589C144.839 12.3134 143 13.2596 143 14.8864Z" fill="#1FA4F1"/>
<rect x="153" y="29" width="4" height="2" transform="rotate(180 153 29)" fill="#F3F5F7"/>
<path d="M161 14.8864V27.1136C161 28.7404 162.839 29.6866 164.162 28.7411L172.722 22.6275C173.838 21.8298 173.838 20.1702 172.722 19.3725L164.162 13.2589C162.839 12.3134 161 13.2596 161 14.8864Z" fill="#00D791"/>
<path d="M177 27.1136L177 14.8864C177 13.2596 175.161 12.3134 173.838 13.2589L165.278 19.3725C164.162 20.1702 164.162 21.8298 165.278 22.6275L173.838 28.7411C175.161 29.6866 177 28.7404 177 27.1136Z" fill="#00D791"/>
<rect x="167" y="13" width="4" height="2" fill="#F3F5F7"/>
<path d="M197.596 16.26L194.082 25.5H192.906L189.378 16.26H190.498L192.92 22.798L193.494 24.548L194.054 22.812L196.49 16.26H197.596ZM202.566 20.964C202.566 20.4227 202.422 20.0073 202.132 19.718C201.843 19.4193 201.432 19.27 200.9 19.27C200.406 19.27 199.986 19.3773 199.64 19.592C199.295 19.8067 199.038 20.152 198.87 20.628L198.03 20.11C198.226 19.578 198.572 19.1533 199.066 18.836C199.57 18.5187 200.191 18.36 200.928 18.36C201.432 18.36 201.885 18.4487 202.286 18.626C202.697 18.794 203.019 19.0553 203.252 19.41C203.486 19.7647 203.602 20.2127 203.602 20.754V24.17C203.602 24.534 203.789 24.716 204.162 24.716C204.34 24.716 204.512 24.6927 204.68 24.646L204.624 25.458C204.447 25.5513 204.214 25.598 203.924 25.598C203.663 25.598 203.425 25.5513 203.21 25.458C203.005 25.3553 202.842 25.2013 202.72 24.996C202.599 24.7813 202.538 24.5153 202.538 24.198V24.016L202.804 24.044C202.702 24.4173 202.51 24.7207 202.23 24.954C201.96 25.1873 201.652 25.36 201.306 25.472C200.961 25.584 200.62 25.64 200.284 25.64C199.874 25.64 199.491 25.57 199.136 25.43C198.782 25.29 198.502 25.08 198.296 24.8C198.091 24.52 197.988 24.17 197.988 23.75C197.988 23.2273 198.161 22.798 198.506 22.462C198.861 22.126 199.351 21.8973 199.976 21.776L202.776 21.23V22.084L200.466 22.56C199.99 22.6533 199.636 22.7887 199.402 22.966C199.169 23.1433 199.052 23.386 199.052 23.694C199.052 24.0113 199.169 24.2633 199.402 24.45C199.645 24.6367 199.99 24.73 200.438 24.73C200.709 24.73 200.97 24.6973 201.222 24.632C201.474 24.5573 201.703 24.4453 201.908 24.296C202.114 24.1467 202.272 23.96 202.384 23.736C202.506 23.512 202.566 23.246 202.566 22.938V20.964ZM207.348 15.28V25.5H206.312V15.28H207.348ZM214.638 18.5H215.716L212.804 25.5H211.768L208.856 18.5H210.032L212.3 24.45L214.638 18.5ZM220.079 25.64C219.426 25.64 218.838 25.4953 218.315 25.206C217.802 24.9167 217.4 24.5013 217.111 23.96C216.822 23.4093 216.677 22.756 216.677 22C216.677 21.244 216.822 20.5953 217.111 20.054C217.4 19.5033 217.797 19.0833 218.301 18.794C218.805 18.5047 219.374 18.36 220.009 18.36C220.662 18.36 221.218 18.5 221.675 18.78C222.132 19.06 222.482 19.4427 222.725 19.928C222.968 20.4133 223.089 20.9593 223.089 21.566C223.089 21.706 223.084 21.8367 223.075 21.958C223.066 22.0793 223.052 22.1867 223.033 22.28H217.349V21.37H222.585L222.053 21.468C222.053 20.7773 221.862 20.2407 221.479 19.858C221.106 19.466 220.606 19.27 219.981 19.27C219.514 19.27 219.108 19.3773 218.763 19.592C218.427 19.8067 218.166 20.1193 217.979 20.53C217.792 20.9313 217.699 21.4213 217.699 22C217.699 22.5693 217.792 23.0593 217.979 23.47C218.175 23.8807 218.446 24.1933 218.791 24.408C219.146 24.6227 219.566 24.73 220.051 24.73C220.574 24.73 221.003 24.632 221.339 24.436C221.675 24.2307 221.941 23.9507 222.137 23.596L222.963 24.072C222.786 24.3987 222.557 24.6787 222.277 24.912C222.006 25.1453 221.684 25.3273 221.311 25.458C220.947 25.5793 220.536 25.64 220.079 25.64ZM237.047 23.134C236.86 23.6567 236.585 24.1093 236.221 24.492C235.857 24.8653 235.428 25.15 234.933 25.346C234.448 25.542 233.916 25.64 233.337 25.64C232.46 25.64 231.704 25.4487 231.069 25.066C230.434 24.674 229.94 24.1233 229.585 23.414C229.24 22.7047 229.067 21.86 229.067 20.88C229.067 19.9 229.24 19.0553 229.585 18.346C229.94 17.6367 230.434 17.0907 231.069 16.708C231.704 16.316 232.45 16.12 233.309 16.12C233.906 16.12 234.438 16.204 234.905 16.372C235.381 16.5307 235.782 16.7733 236.109 17.1C236.436 17.4267 236.697 17.828 236.893 18.304L235.871 18.78C235.666 18.2293 235.358 17.8093 234.947 17.52C234.546 17.2307 234.023 17.086 233.379 17.086C232.744 17.086 232.184 17.24 231.699 17.548C231.214 17.8467 230.836 18.276 230.565 18.836C230.294 19.396 230.159 20.0773 230.159 20.88C230.159 21.6733 230.285 22.3547 230.537 22.924C230.798 23.484 231.167 23.918 231.643 24.226C232.119 24.5247 232.684 24.674 233.337 24.674C233.972 24.674 234.522 24.5153 234.989 24.198C235.465 23.8713 235.806 23.3907 236.011 22.756L237.047 23.134ZM241.858 18.36C242.511 18.36 243.09 18.5047 243.594 18.794C244.107 19.0833 244.509 19.5033 244.798 20.054C245.087 20.5953 245.232 21.244 245.232 22C245.232 22.756 245.087 23.4093 244.798 23.96C244.509 24.5013 244.107 24.9167 243.594 25.206C243.09 25.4953 242.511 25.64 241.858 25.64C241.205 25.64 240.621 25.4953 240.108 25.206C239.595 24.9167 239.193 24.5013 238.904 23.96C238.615 23.4093 238.47 22.756 238.47 22C238.47 21.244 238.615 20.5953 238.904 20.054C239.193 19.5033 239.595 19.0833 240.108 18.794C240.621 18.5047 241.205 18.36 241.858 18.36ZM241.858 19.256C241.363 19.256 240.943 19.368 240.598 19.592C240.253 19.8067 239.982 20.1193 239.786 20.53C239.599 20.9313 239.506 21.4213 239.506 22C239.506 22.5693 239.599 23.0593 239.786 23.47C239.982 23.8807 240.253 24.198 240.598 24.422C240.943 24.6367 241.363 24.744 241.858 24.744C242.343 24.744 242.759 24.6367 243.104 24.422C243.449 24.198 243.715 23.8807 243.902 23.47C244.098 23.0593 244.196 22.5693 244.196 22C244.196 21.4213 244.098 20.9313 243.902 20.53C243.715 20.1193 243.449 19.8067 243.104 19.592C242.759 19.368 242.343 19.256 241.858 19.256ZM247.313 25.5V18.5H248.223L248.321 20.11L248.153 19.956C248.293 19.5827 248.489 19.2793 248.741 19.046C249.003 18.8033 249.301 18.6307 249.637 18.528C249.973 18.416 250.323 18.36 250.687 18.36C251.201 18.36 251.658 18.458 252.059 18.654C252.47 18.8407 252.797 19.13 253.039 19.522C253.291 19.914 253.417 20.4087 253.417 21.006V25.5H252.381V21.37C252.381 20.5953 252.209 20.054 251.863 19.746C251.527 19.4287 251.103 19.27 250.589 19.27C250.235 19.27 249.885 19.354 249.539 19.522C249.194 19.69 248.909 19.956 248.685 20.32C248.461 20.6747 248.349 21.146 248.349 21.734V25.5H247.313ZM257.371 16.526V23.582C257.371 23.946 257.469 24.2213 257.665 24.408C257.871 24.5853 258.137 24.674 258.463 24.674C258.734 24.674 258.967 24.6273 259.163 24.534C259.359 24.4407 259.537 24.3147 259.695 24.156L260.059 25.024C259.854 25.2107 259.607 25.36 259.317 25.472C259.028 25.584 258.697 25.64 258.323 25.64C257.969 25.64 257.637 25.5793 257.329 25.458C257.031 25.3273 256.793 25.122 256.615 24.842C256.438 24.562 256.345 24.2027 256.335 23.764V16.806L257.371 16.526ZM259.933 18.5V19.396H254.935V18.5H259.933ZM261.573 25.5V18.5H262.427L262.567 19.704C262.754 19.2653 263.038 18.934 263.421 18.71C263.804 18.4767 264.266 18.36 264.807 18.36C264.938 18.36 265.078 18.374 265.227 18.402C265.376 18.4207 265.502 18.458 265.605 18.514L265.409 19.466C265.306 19.4193 265.194 19.3867 265.073 19.368C264.952 19.34 264.779 19.326 264.555 19.326C264.247 19.326 263.944 19.4147 263.645 19.592C263.346 19.7693 263.099 20.0353 262.903 20.39C262.707 20.7353 262.609 21.1693 262.609 21.692V25.5H261.573ZM269.858 18.36C270.511 18.36 271.09 18.5047 271.594 18.794C272.107 19.0833 272.509 19.5033 272.798 20.054C273.087 20.5953 273.232 21.244 273.232 22C273.232 22.756 273.087 23.4093 272.798 23.96C272.509 24.5013 272.107 24.9167 271.594 25.206C271.09 25.4953 270.511 25.64 269.858 25.64C269.205 25.64 268.621 25.4953 268.108 25.206C267.595 24.9167 267.193 24.5013 266.904 23.96C266.615 23.4093 266.47 22.756 266.47 22C266.47 21.244 266.615 20.5953 266.904 20.054C267.193 19.5033 267.595 19.0833 268.108 18.794C268.621 18.5047 269.205 18.36 269.858 18.36ZM269.858 19.256C269.363 19.256 268.943 19.368 268.598 19.592C268.253 19.8067 267.982 20.1193 267.786 20.53C267.599 20.9313 267.506 21.4213 267.506 22C267.506 22.5693 267.599 23.0593 267.786 23.47C267.982 23.8807 268.253 24.198 268.598 24.422C268.943 24.6367 269.363 24.744 269.858 24.744C270.343 24.744 270.759 24.6367 271.104 24.422C271.449 24.198 271.715 23.8807 271.902 23.47C272.098 23.0593 272.196 22.5693 272.196 22C272.196 21.4213 272.098 20.9313 271.902 20.53C271.715 20.1193 271.449 19.8067 271.104 19.592C270.759 19.368 270.343 19.256 269.858 19.256ZM276.377 15.28V25.5H275.341V15.28H276.377Z" fill="#012137"/>
<line x1="177" y1="46" x2="143" y2="46" stroke="white" stroke-width="4"/>
<path d="M152 39.8864V52.1136C152 53.7404 153.839 54.6866 155.162 53.7411L163.722 47.6275C164.838 46.8298 164.838 45.1702 163.722 44.3725L155.162 38.2589C153.839 37.3134 152 38.2596 152 39.8864Z" fill="#E682E8"/>
<path d="M168 52.1136L168 39.8864C168 38.2596 166.161 37.3134 164.838 38.2589L156.278 44.3725C155.162 45.1702 155.162 46.8298 156.278 47.6275L164.838 53.7411C166.161 54.6866 168 53.7404 168 52.1136Z" fill="#E682E8"/>
<rect x="158" y="38" width="4" height="2" fill="#F3F5F7"/>
<path d="M191.534 41.26V50.5H190.498V41.26H191.534ZM194.253 50.5V43.5H195.163L195.261 45.11L195.093 44.956C195.233 44.5827 195.429 44.2793 195.681 44.046C195.942 43.8033 196.241 43.6307 196.577 43.528C196.913 43.416 197.263 43.36 197.627 43.36C198.14 43.36 198.598 43.458 198.999 43.654C199.41 43.8407 199.736 44.13 199.979 44.522C200.231 44.914 200.357 45.4087 200.357 46.006V50.5H199.321V46.37C199.321 45.5953 199.148 45.054 198.803 44.746C198.467 44.4287 198.042 44.27 197.529 44.27C197.174 44.27 196.824 44.354 196.479 44.522C196.134 44.69 195.849 44.956 195.625 45.32C195.401 45.6747 195.289 46.146 195.289 46.734V50.5H194.253ZM203.384 42.156C203.151 42.156 202.959 42.086 202.81 41.946C202.67 41.7967 202.6 41.6007 202.6 41.358C202.6 41.1247 202.67 40.938 202.81 40.798C202.959 40.6487 203.151 40.574 203.384 40.574C203.627 40.574 203.818 40.6487 203.958 40.798C204.107 40.938 204.182 41.1247 204.182 41.358C204.182 41.6007 204.107 41.7967 203.958 41.946C203.818 42.086 203.627 42.156 203.384 42.156ZM203.902 43.5V51.228C203.902 51.7973 203.795 52.2453 203.58 52.572C203.365 52.908 203.095 53.146 202.768 53.286C202.451 53.4353 202.129 53.51 201.802 53.51C201.522 53.51 201.265 53.468 201.032 53.384C200.789 53.3 200.593 53.1927 200.444 53.062L200.668 52.082C200.799 52.2033 200.962 52.3013 201.158 52.376C201.345 52.46 201.555 52.502 201.788 52.502C202.105 52.502 202.362 52.3947 202.558 52.18C202.763 51.9747 202.866 51.6247 202.866 51.13V43.5H203.902ZM209.401 50.64C208.748 50.64 208.16 50.4953 207.637 50.206C207.124 49.9167 206.723 49.5013 206.433 48.96C206.144 48.4093 205.999 47.756 205.999 47C205.999 46.244 206.144 45.5953 206.433 45.054C206.723 44.5033 207.119 44.0833 207.623 43.794C208.127 43.5047 208.697 43.36 209.331 43.36C209.985 43.36 210.54 43.5 210.997 43.78C211.455 44.06 211.805 44.4427 212.047 44.928C212.29 45.4133 212.411 45.9593 212.411 46.566C212.411 46.706 212.407 46.8367 212.397 46.958C212.388 47.0793 212.374 47.1867 212.355 47.28H206.671V46.37H211.907L211.375 46.468C211.375 45.7773 211.184 45.2407 210.801 44.858C210.428 44.466 209.929 44.27 209.303 44.27C208.837 44.27 208.431 44.3773 208.085 44.592C207.749 44.8067 207.488 45.1193 207.301 45.53C207.115 45.9313 207.021 46.4213 207.021 47C207.021 47.5693 207.115 48.0593 207.301 48.47C207.497 48.8807 207.768 49.1933 208.113 49.408C208.468 49.6227 208.888 49.73 209.373 49.73C209.896 49.73 210.325 49.632 210.661 49.436C210.997 49.2307 211.263 48.9507 211.459 48.596L212.285 49.072C212.108 49.3987 211.879 49.6787 211.599 49.912C211.329 50.1453 211.007 50.3273 210.633 50.458C210.269 50.5793 209.859 50.64 209.401 50.64ZM217.399 43.36C217.884 43.36 218.309 43.4347 218.673 43.584C219.046 43.7333 219.368 43.948 219.639 44.228C219.909 44.508 220.124 44.8393 220.283 45.222L219.303 45.698C219.153 45.2313 218.92 44.8767 218.603 44.634C218.285 44.3913 217.875 44.27 217.371 44.27C216.895 44.27 216.484 44.3773 216.139 44.592C215.793 44.8067 215.527 45.1193 215.341 45.53C215.154 45.9313 215.061 46.4213 215.061 47C215.061 47.5693 215.154 48.0593 215.341 48.47C215.527 48.8807 215.793 49.1933 216.139 49.408C216.484 49.6227 216.895 49.73 217.371 49.73C217.744 49.73 218.066 49.674 218.337 49.562C218.617 49.4407 218.845 49.2727 219.023 49.058C219.209 48.834 219.335 48.5633 219.401 48.246L220.353 48.582C220.203 49.0113 219.989 49.38 219.709 49.688C219.438 49.996 219.107 50.234 218.715 50.402C218.332 50.5607 217.893 50.64 217.399 50.64C216.745 50.64 216.162 50.4953 215.649 50.206C215.145 49.9167 214.748 49.5013 214.459 48.96C214.169 48.4093 214.025 47.756 214.025 47C214.025 46.244 214.169 45.5953 214.459 45.054C214.748 44.5033 215.149 44.0833 215.663 43.794C216.176 43.5047 216.755 43.36 217.399 43.36ZM223.862 41.526V48.582C223.862 48.946 223.96 49.2213 224.156 49.408C224.361 49.5853 224.627 49.674 224.954 49.674C225.224 49.674 225.458 49.6273 225.654 49.534C225.85 49.4407 226.027 49.3147 226.186 49.156L226.55 50.024C226.344 50.2107 226.097 50.36 225.808 50.472C225.518 50.584 225.187 50.64 224.814 50.64C224.459 50.64 224.128 50.5793 223.82 50.458C223.521 50.3273 223.283 50.122 223.106 49.842C222.928 49.562 222.835 49.2027 222.826 48.764V41.806L223.862 41.526ZM226.424 43.5V44.396H221.426V43.5H226.424ZM230.961 43.36C231.615 43.36 232.193 43.5047 232.697 43.794C233.211 44.0833 233.612 44.5033 233.901 45.054C234.191 45.5953 234.335 46.244 234.335 47C234.335 47.756 234.191 48.4093 233.901 48.96C233.612 49.5013 233.211 49.9167 232.697 50.206C232.193 50.4953 231.615 50.64 230.961 50.64C230.308 50.64 229.725 50.4953 229.211 50.206C228.698 49.9167 228.297 49.5013 228.007 48.96C227.718 48.4093 227.573 47.756 227.573 47C227.573 46.244 227.718 45.5953 228.007 45.054C228.297 44.5033 228.698 44.0833 229.211 43.794C229.725 43.5047 230.308 43.36 230.961 43.36ZM230.961 44.256C230.467 44.256 230.047 44.368 229.701 44.592C229.356 44.8067 229.085 45.1193 228.889 45.53C228.703 45.9313 228.609 46.4213 228.609 47C228.609 47.5693 228.703 48.0593 228.889 48.47C229.085 48.8807 229.356 49.198 229.701 49.422C230.047 49.6367 230.467 49.744 230.961 49.744C231.447 49.744 231.862 49.6367 232.207 49.422C232.553 49.198 232.819 48.8807 233.005 48.47C233.201 48.0593 233.299 47.5693 233.299 47C233.299 46.4213 233.201 45.9313 233.005 45.53C232.819 45.1193 232.553 44.8067 232.207 44.592C231.862 44.368 231.447 44.256 230.961 44.256ZM236.417 50.5V43.5H237.271L237.411 44.704C237.598 44.2653 237.882 43.934 238.265 43.71C238.648 43.4767 239.11 43.36 239.651 43.36C239.782 43.36 239.922 43.374 240.071 43.402C240.22 43.4207 240.346 43.458 240.449 43.514L240.253 44.466C240.15 44.4193 240.038 44.3867 239.917 44.368C239.796 44.34 239.623 44.326 239.399 44.326C239.091 44.326 238.788 44.4147 238.489 44.592C238.19 44.7693 237.943 45.0353 237.747 45.39C237.551 45.7353 237.453 46.1693 237.453 46.692V50.5H236.417ZM244.255 50.64C243.564 50.64 242.934 50.4953 242.365 50.206C241.805 49.9167 241.375 49.506 241.077 48.974L241.959 48.344C242.164 48.7827 242.467 49.1233 242.869 49.366C243.27 49.6087 243.76 49.73 244.339 49.73C244.852 49.73 245.253 49.632 245.543 49.436C245.841 49.2307 245.991 48.9647 245.991 48.638C245.991 48.4233 245.921 48.232 245.781 48.064C245.65 47.896 245.398 47.77 245.025 47.686L243.345 47.336C242.673 47.196 242.187 46.9673 241.889 46.65C241.599 46.3233 241.455 45.922 241.455 45.446C241.455 45.0633 241.562 44.718 241.777 44.41C242.001 44.0927 242.313 43.8407 242.715 43.654C243.125 43.458 243.601 43.36 244.143 43.36C244.833 43.36 245.417 43.4953 245.893 43.766C246.369 44.0367 246.719 44.424 246.943 44.928L246.075 45.502C245.916 45.0727 245.655 44.76 245.291 44.564C244.936 44.368 244.553 44.27 244.143 44.27C243.797 44.27 243.499 44.3213 243.247 44.424C243.004 44.5173 242.813 44.648 242.673 44.816C242.542 44.984 242.477 45.18 242.477 45.404C242.477 45.6187 242.551 45.8193 242.701 46.006C242.85 46.1833 243.125 46.314 243.527 46.398L245.263 46.762C245.916 46.8927 246.373 47.1073 246.635 47.406C246.896 47.6953 247.027 48.0547 247.027 48.484C247.027 48.9133 246.91 49.296 246.677 49.632C246.453 49.9587 246.131 50.2107 245.711 50.388C245.291 50.556 244.805 50.64 244.255 50.64ZM260.945 48.134C260.759 48.6567 260.483 49.1093 260.119 49.492C259.755 49.8653 259.326 50.15 258.831 50.346C258.346 50.542 257.814 50.64 257.235 50.64C256.358 50.64 255.602 50.4487 254.967 50.066C254.333 49.674 253.838 49.1233 253.483 48.414C253.138 47.7047 252.965 46.86 252.965 45.88C252.965 44.9 253.138 44.0553 253.483 43.346C253.838 42.6367 254.333 42.0907 254.967 41.708C255.602 41.316 256.349 41.12 257.207 41.12C257.805 41.12 258.337 41.204 258.803 41.372C259.279 41.5307 259.681 41.7733 260.007 42.1C260.334 42.4267 260.595 42.828 260.791 43.304L259.769 43.78C259.564 43.2293 259.256 42.8093 258.845 42.52C258.444 42.2307 257.921 42.086 257.277 42.086C256.643 42.086 256.083 42.24 255.597 42.548C255.112 42.8467 254.734 43.276 254.463 43.836C254.193 44.396 254.057 45.0773 254.057 45.88C254.057 46.6733 254.183 47.3547 254.435 47.924C254.697 48.484 255.065 48.918 255.541 49.226C256.017 49.5247 256.582 49.674 257.235 49.674C257.87 49.674 258.421 49.5153 258.887 49.198C259.363 48.8713 259.704 48.3907 259.909 47.756L260.945 48.134ZM265.756 43.36C266.41 43.36 266.988 43.5047 267.492 43.794C268.006 44.0833 268.407 44.5033 268.696 45.054C268.986 45.5953 269.13 46.244 269.13 47C269.13 47.756 268.986 48.4093 268.696 48.96C268.407 49.5013 268.006 49.9167 267.492 50.206C266.988 50.4953 266.41 50.64 265.756 50.64C265.103 50.64 264.52 50.4953 264.006 50.206C263.493 49.9167 263.092 49.5013 262.802 48.96C262.513 48.4093 262.368 47.756 262.368 47C262.368 46.244 262.513 45.5953 262.802 45.054C263.092 44.5033 263.493 44.0833 264.006 43.794C264.52 43.5047 265.103 43.36 265.756 43.36ZM265.756 44.256C265.262 44.256 264.842 44.368 264.496 44.592C264.151 44.8067 263.88 45.1193 263.684 45.53C263.498 45.9313 263.404 46.4213 263.404 47C263.404 47.5693 263.498 48.0593 263.684 48.47C263.88 48.8807 264.151 49.198 264.496 49.422C264.842 49.6367 265.262 49.744 265.756 49.744C266.242 49.744 266.657 49.6367 267.002 49.422C267.348 49.198 267.614 48.8807 267.8 48.47C267.996 48.0593 268.094 47.5693 268.094 47C268.094 46.4213 267.996 45.9313 267.8 45.53C267.614 45.1193 267.348 44.8067 267.002 44.592C266.657 44.368 266.242 44.256 265.756 44.256ZM271.212 50.5V43.5H272.122L272.22 45.11L272.052 44.956C272.192 44.5827 272.388 44.2793 272.64 44.046C272.901 43.8033 273.2 43.6307 273.536 43.528C273.872 43.416 274.222 43.36 274.586 43.36C275.099 43.36 275.556 43.458 275.958 43.654C276.368 43.8407 276.695 44.13 276.938 44.522C277.19 44.914 277.316 45.4087 277.316 46.006V50.5H276.28V46.37C276.28 45.5953 276.107 45.054 275.762 44.746C275.426 44.4287 275.001 44.27 274.488 44.27C274.133 44.27 273.783 44.354 273.438 44.522C273.092 44.69 272.808 44.956 272.584 45.32C272.36 45.6747 272.248 46.146 272.248 46.734V50.5H271.212ZM281.27 41.526V48.582C281.27 48.946 281.368 49.2213 281.564 49.408C281.769 49.5853 282.035 49.674 282.362 49.674C282.632 49.674 282.866 49.6273 283.062 49.534C283.258 49.4407 283.435 49.3147 283.594 49.156L283.958 50.024C283.752 50.2107 283.505 50.36 283.216 50.472C282.926 50.584 282.595 50.64 282.222 50.64C281.867 50.64 281.536 50.5793 281.228 50.458C280.929 50.3273 280.691 50.122 280.514 49.842C280.336 49.562 280.243 49.2027 280.234 48.764V41.806L281.27 41.526ZM283.832 43.5V44.396H278.834V43.5H283.832ZM285.472 50.5V43.5H286.326L286.466 44.704C286.652 44.2653 286.937 43.934 287.32 43.71C287.702 43.4767 288.164 43.36 288.706 43.36C288.836 43.36 288.976 43.374 289.126 43.402C289.275 43.4207 289.401 43.458 289.504 43.514L289.308 44.466C289.205 44.4193 289.093 44.3867 288.972 44.368C288.85 44.34 288.678 44.326 288.454 44.326C288.146 44.326 287.842 44.4147 287.544 44.592C287.245 44.7693 286.998 45.0353 286.802 45.39C286.606 45.7353 286.508 46.1693 286.508 46.692V50.5H285.472ZM293.756 43.36C294.41 43.36 294.988 43.5047 295.492 43.794C296.006 44.0833 296.407 44.5033 296.696 45.054C296.986 45.5953 297.13 46.244 297.13 47C297.13 47.756 296.986 48.4093 296.696 48.96C296.407 49.5013 296.006 49.9167 295.492 50.206C294.988 50.4953 294.41 50.64 293.756 50.64C293.103 50.64 292.52 50.4953 292.006 50.206C291.493 49.9167 291.092 49.5013 290.802 48.96C290.513 48.4093 290.368 47.756 290.368 47C290.368 46.244 290.513 45.5953 290.802 45.054C291.092 44.5033 291.493 44.0833 292.006 43.794C292.52 43.5047 293.103 43.36 293.756 43.36ZM293.756 44.256C293.262 44.256 292.842 44.368 292.496 44.592C292.151 44.8067 291.88 45.1193 291.684 45.53C291.498 45.9313 291.404 46.4213 291.404 47C291.404 47.5693 291.498 48.0593 291.684 48.47C291.88 48.8807 292.151 49.198 292.496 49.422C292.842 49.6367 293.262 49.744 293.756 49.744C294.242 49.744 294.657 49.6367 295.002 49.422C295.348 49.198 295.614 48.8807 295.8 48.47C295.996 48.0593 296.094 47.5693 296.094 47C296.094 46.4213 295.996 45.9313 295.8 45.53C295.614 45.1193 295.348 44.8067 295.002 44.592C294.657 44.368 294.242 44.256 293.756 44.256ZM300.276 40.28V50.5H299.24V40.28H300.276Z" fill="#012137"/>
<rect x="143" y="61" width="34" height="16" rx="5" fill="#1FA4F1"/>
<path d="M167 68C166.448 68 166 68.4477 166 69C166 69.5523 166.448 70 167 70L167 68ZM167 70L177 70L177 68L167 68L167 70Z" fill="#012137"/>
<path d="M193.452 64.12C194.264 64.12 194.964 64.288 195.552 64.624C196.14 64.9507 196.621 65.4407 196.994 66.094L196.126 66.766C195.799 66.1593 195.412 65.73 194.964 65.478C194.525 65.2167 193.984 65.086 193.34 65.086C192.836 65.086 192.416 65.1607 192.08 65.31C191.753 65.4593 191.511 65.6553 191.352 65.898C191.193 66.1313 191.114 66.3973 191.114 66.696C191.114 67.0413 191.221 67.3447 191.436 67.606C191.66 67.858 192.094 68.0587 192.738 68.208L194.698 68.642C195.585 68.838 196.205 69.132 196.56 69.524C196.915 69.9067 197.092 70.392 197.092 70.98C197.092 71.5027 196.943 71.9647 196.644 72.366C196.355 72.7673 195.944 73.08 195.412 73.304C194.889 73.528 194.269 73.64 193.55 73.64C192.887 73.64 192.299 73.5513 191.786 73.374C191.273 73.1873 190.834 72.94 190.47 72.632C190.115 72.3147 189.826 71.9553 189.602 71.554L190.512 70.826C190.68 71.1993 190.904 71.526 191.184 71.806C191.473 72.0767 191.819 72.2913 192.22 72.45C192.631 72.5993 193.097 72.674 193.62 72.674C194.105 72.674 194.525 72.6133 194.88 72.492C195.244 72.3707 195.524 72.1887 195.72 71.946C195.916 71.7033 196.014 71.414 196.014 71.078C196.014 70.7607 195.907 70.4807 195.692 70.238C195.487 69.986 195.095 69.7993 194.516 69.678L192.402 69.202C191.833 69.0713 191.371 68.894 191.016 68.67C190.661 68.4367 190.405 68.166 190.246 67.858C190.097 67.55 190.022 67.2093 190.022 66.836C190.022 66.3507 190.157 65.9027 190.428 65.492C190.708 65.0813 191.105 64.75 191.618 64.498C192.131 64.246 192.743 64.12 193.452 64.12ZM202.114 73.64C201.461 73.64 200.873 73.4953 200.35 73.206C199.837 72.9167 199.435 72.5013 199.146 71.96C198.857 71.4093 198.712 70.756 198.712 70C198.712 69.244 198.857 68.5953 199.146 68.054C199.435 67.5033 199.832 67.0833 200.336 66.794C200.84 66.5047 201.409 66.36 202.044 66.36C202.697 66.36 203.253 66.5 203.71 66.78C204.167 67.06 204.517 67.4427 204.76 67.928C205.003 68.4133 205.124 68.9593 205.124 69.566C205.124 69.706 205.119 69.8367 205.11 69.958C205.101 70.0793 205.087 70.1867 205.068 70.28H199.384V69.37H204.62L204.088 69.468C204.088 68.7773 203.897 68.2407 203.514 67.858C203.141 67.466 202.641 67.27 202.016 67.27C201.549 67.27 201.143 67.3773 200.798 67.592C200.462 67.8067 200.201 68.1193 200.014 68.53C199.827 68.9313 199.734 69.4213 199.734 70C199.734 70.5693 199.827 71.0593 200.014 71.47C200.21 71.8807 200.481 72.1933 200.826 72.408C201.181 72.6227 201.601 72.73 202.086 72.73C202.609 72.73 203.038 72.632 203.374 72.436C203.71 72.2307 203.976 71.9507 204.172 71.596L204.998 72.072C204.821 72.3987 204.592 72.6787 204.312 72.912C204.041 73.1453 203.719 73.3273 203.346 73.458C202.982 73.5793 202.571 73.64 202.114 73.64ZM207.227 73.5V66.5H208.137L208.235 68.11L208.067 67.956C208.207 67.5827 208.403 67.2793 208.655 67.046C208.917 66.8033 209.215 66.6307 209.551 66.528C209.887 66.416 210.237 66.36 210.601 66.36C211.115 66.36 211.572 66.458 211.973 66.654C212.384 66.8407 212.711 67.13 212.953 67.522C213.205 67.914 213.331 68.4087 213.331 69.006V73.5H212.295V69.37C212.295 68.5953 212.123 68.054 211.777 67.746C211.441 67.4287 211.017 67.27 210.503 67.27C210.149 67.27 209.799 67.354 209.453 67.522C209.108 67.69 208.823 67.956 208.599 68.32C208.375 68.6747 208.263 69.146 208.263 69.734V73.5H207.227ZM218.333 73.64C217.642 73.64 217.012 73.4953 216.443 73.206C215.883 72.9167 215.453 72.506 215.155 71.974L216.037 71.344C216.242 71.7827 216.545 72.1233 216.947 72.366C217.348 72.6087 217.838 72.73 218.417 72.73C218.93 72.73 219.331 72.632 219.621 72.436C219.919 72.2307 220.069 71.9647 220.069 71.638C220.069 71.4233 219.999 71.232 219.859 71.064C219.728 70.896 219.476 70.77 219.103 70.686L217.423 70.336C216.751 70.196 216.265 69.9673 215.967 69.65C215.677 69.3233 215.533 68.922 215.533 68.446C215.533 68.0633 215.64 67.718 215.855 67.41C216.079 67.0927 216.391 66.8407 216.793 66.654C217.203 66.458 217.679 66.36 218.221 66.36C218.911 66.36 219.495 66.4953 219.971 66.766C220.447 67.0367 220.797 67.424 221.021 67.928L220.153 68.502C219.994 68.0727 219.733 67.76 219.369 67.564C219.014 67.368 218.631 67.27 218.221 67.27C217.875 67.27 217.577 67.3213 217.325 67.424C217.082 67.5173 216.891 67.648 216.751 67.816C216.62 67.984 216.555 68.18 216.555 68.404C216.555 68.6187 216.629 68.8193 216.779 69.006C216.928 69.1833 217.203 69.314 217.605 69.398L219.341 69.762C219.994 69.8927 220.451 70.1073 220.713 70.406C220.974 70.6953 221.105 71.0547 221.105 71.484C221.105 71.9133 220.988 72.296 220.755 72.632C220.531 72.9587 220.209 73.2107 219.789 73.388C219.369 73.556 218.883 73.64 218.333 73.64ZM226.067 66.36C226.72 66.36 227.299 66.5047 227.803 66.794C228.316 67.0833 228.718 67.5033 229.007 68.054C229.296 68.5953 229.441 69.244 229.441 70C229.441 70.756 229.296 71.4093 229.007 71.96C228.718 72.5013 228.316 72.9167 227.803 73.206C227.299 73.4953 226.72 73.64 226.067 73.64C225.414 73.64 224.83 73.4953 224.317 73.206C223.804 72.9167 223.402 72.5013 223.113 71.96C222.824 71.4093 222.679 70.756 222.679 70C222.679 69.244 222.824 68.5953 223.113 68.054C223.402 67.5033 223.804 67.0833 224.317 66.794C224.83 66.5047 225.414 66.36 226.067 66.36ZM226.067 67.256C225.572 67.256 225.152 67.368 224.807 67.592C224.462 67.8067 224.191 68.1193 223.995 68.53C223.808 68.9313 223.715 69.4213 223.715 70C223.715 70.5693 223.808 71.0593 223.995 71.47C224.191 71.8807 224.462 72.198 224.807 72.422C225.152 72.6367 225.572 72.744 226.067 72.744C226.552 72.744 226.968 72.6367 227.313 72.422C227.658 72.198 227.924 71.8807 228.111 71.47C228.307 71.0593 228.405 70.5693 228.405 70C228.405 69.4213 228.307 68.9313 228.111 68.53C227.924 68.1193 227.658 67.8067 227.313 67.592C226.968 67.368 226.552 67.256 226.067 67.256ZM231.522 73.5V66.5H232.376L232.516 67.704C232.703 67.2653 232.988 66.934 233.37 66.71C233.753 66.4767 234.215 66.36 234.756 66.36C234.887 66.36 235.027 66.374 235.176 66.402C235.326 66.4207 235.452 66.458 235.554 66.514L235.358 67.466C235.256 67.4193 235.144 67.3867 235.022 67.368C234.901 67.34 234.728 67.326 234.504 67.326C234.196 67.326 233.893 67.4147 233.594 67.592C233.296 67.7693 233.048 68.0353 232.852 68.39C232.656 68.7353 232.558 69.1693 232.558 69.692V73.5H231.522ZM239.36 73.64C238.669 73.64 238.039 73.4953 237.47 73.206C236.91 72.9167 236.481 72.506 236.182 71.974L237.064 71.344C237.269 71.7827 237.573 72.1233 237.974 72.366C238.375 72.6087 238.865 72.73 239.444 72.73C239.957 72.73 240.359 72.632 240.648 72.436C240.947 72.2307 241.096 71.9647 241.096 71.638C241.096 71.4233 241.026 71.232 240.886 71.064C240.755 70.896 240.503 70.77 240.13 70.686L238.45 70.336C237.778 70.196 237.293 69.9673 236.994 69.65C236.705 69.3233 236.56 68.922 236.56 68.446C236.56 68.0633 236.667 67.718 236.882 67.41C237.106 67.0927 237.419 66.8407 237.82 66.654C238.231 66.458 238.707 66.36 239.248 66.36C239.939 66.36 240.522 66.4953 240.998 66.766C241.474 67.0367 241.824 67.424 242.048 67.928L241.18 68.502C241.021 68.0727 240.76 67.76 240.396 67.564C240.041 67.368 239.659 67.27 239.248 67.27C238.903 67.27 238.604 67.3213 238.352 67.424C238.109 67.5173 237.918 67.648 237.778 67.816C237.647 67.984 237.582 68.18 237.582 68.404C237.582 68.6187 237.657 68.8193 237.806 69.006C237.955 69.1833 238.231 69.314 238.632 69.398L240.368 69.762C241.021 69.8927 241.479 70.1073 241.74 70.406C242.001 70.6953 242.132 71.0547 242.132 71.484C242.132 71.9133 242.015 72.296 241.782 72.632C241.558 72.9587 241.236 73.2107 240.816 73.388C240.396 73.556 239.911 73.64 239.36 73.64ZM245.022 66.374C245.284 66.374 245.489 66.4533 245.638 66.612C245.797 66.7613 245.876 66.9667 245.876 67.228C245.876 67.48 245.797 67.6853 245.638 67.844C245.489 68.0027 245.284 68.082 245.022 68.082C244.77 68.082 244.565 68.0027 244.406 67.844C244.248 67.6853 244.168 67.48 244.168 67.228C244.168 66.9667 244.248 66.7613 244.406 66.612C244.565 66.4533 244.77 66.374 245.022 66.374ZM245.022 71.932C245.284 71.932 245.489 72.0113 245.638 72.17C245.797 72.3193 245.876 72.5247 245.876 72.786C245.876 73.038 245.797 73.2433 245.638 73.402C245.489 73.5607 245.284 73.64 245.022 73.64C244.77 73.64 244.565 73.5607 244.406 73.402C244.248 73.2433 244.168 73.038 244.168 72.786C244.168 72.5247 244.248 72.3193 244.406 72.17C244.565 72.0113 244.77 71.932 245.022 71.932ZM252.645 76.44V66.5H253.555L253.653 68.25L253.499 68.082C253.621 67.7367 253.803 67.438 254.045 67.186C254.297 66.9247 254.596 66.724 254.941 66.584C255.296 66.4347 255.679 66.36 256.089 66.36C256.668 66.36 257.195 66.5047 257.671 66.794C258.147 67.0833 258.53 67.4987 258.819 68.04C259.109 68.5813 259.253 69.2347 259.253 70C259.253 70.756 259.109 71.4093 258.819 71.96C258.53 72.5013 258.143 72.9167 257.657 73.206C257.172 73.4953 256.635 73.64 256.047 73.64C255.459 73.64 254.941 73.4953 254.493 73.206C254.055 72.9073 253.742 72.5247 253.555 72.058L253.681 71.862V76.44H252.645ZM255.949 72.73C256.659 72.73 257.214 72.4827 257.615 71.988C258.017 71.4933 258.217 70.8307 258.217 70C258.217 69.1693 258.021 68.5067 257.629 68.012C257.237 67.5173 256.687 67.27 255.977 67.27C255.52 67.27 255.119 67.382 254.773 67.606C254.437 67.83 254.171 68.1473 253.975 68.558C253.779 68.9593 253.681 69.44 253.681 70C253.681 70.5507 253.775 71.0313 253.961 71.442C254.157 71.8527 254.423 72.17 254.759 72.394C255.105 72.618 255.501 72.73 255.949 72.73ZM268.679 64.26V73.5H267.643V64.26H268.679ZM262.491 64.26V73.5H261.455V64.26H262.491ZM268.133 68.334V69.3H262.001V68.334H268.133ZM275.579 63.28L271.351 74.48H270.385L274.599 63.28H275.579ZM277.478 73.5V64.26H283.932V65.226H278.514V68.334H282.742V69.3H278.514V72.534H284.142V73.5H277.478ZM293.539 71.134C293.352 71.6567 293.077 72.1093 292.713 72.492C292.349 72.8653 291.92 73.15 291.425 73.346C290.94 73.542 290.408 73.64 289.829 73.64C288.952 73.64 288.196 73.4487 287.561 73.066C286.926 72.674 286.432 72.1233 286.077 71.414C285.732 70.7047 285.559 69.86 285.559 68.88C285.559 67.9 285.732 67.0553 286.077 66.346C286.432 65.6367 286.926 65.0907 287.561 64.708C288.196 64.316 288.942 64.12 289.801 64.12C290.398 64.12 290.93 64.204 291.397 64.372C291.873 64.5307 292.274 64.7733 292.601 65.1C292.928 65.4267 293.189 65.828 293.385 66.304L292.363 66.78C292.158 66.2293 291.85 65.8093 291.439 65.52C291.038 65.2307 290.515 65.086 289.871 65.086C289.236 65.086 288.676 65.24 288.191 65.548C287.706 65.8467 287.328 66.276 287.057 66.836C286.786 67.396 286.651 68.0773 286.651 68.88C286.651 69.6733 286.777 70.3547 287.029 70.924C287.29 71.484 287.659 71.918 288.135 72.226C288.611 72.5247 289.176 72.674 289.829 72.674C290.464 72.674 291.014 72.5153 291.481 72.198C291.957 71.8713 292.298 71.3907 292.503 70.756L293.539 71.134ZM299.778 63.28L295.55 74.48H294.584L298.798 63.28H299.778ZM310.137 66.5H311.285L308.863 73.5H307.827L305.811 67.83L303.879 73.5H302.843L300.421 66.5H301.569L303.375 72.296L305.335 66.5H306.371L308.331 72.296L310.137 66.5ZM316.945 68.964C316.945 68.4227 316.801 68.0073 316.511 67.718C316.222 67.4193 315.811 67.27 315.279 67.27C314.785 67.27 314.365 67.3773 314.019 67.592C313.674 67.8067 313.417 68.152 313.249 68.628L312.409 68.11C312.605 67.578 312.951 67.1533 313.445 66.836C313.949 66.5187 314.57 66.36 315.307 66.36C315.811 66.36 316.264 66.4487 316.665 66.626C317.076 66.794 317.398 67.0553 317.631 67.41C317.865 67.7647 317.981 68.2127 317.981 68.754V72.17C317.981 72.534 318.168 72.716 318.541 72.716C318.719 72.716 318.891 72.6927 319.059 72.646L319.003 73.458C318.826 73.5513 318.593 73.598 318.303 73.598C318.042 73.598 317.804 73.5513 317.589 73.458C317.384 73.3553 317.221 73.2013 317.099 72.996C316.978 72.7813 316.917 72.5153 316.917 72.198V72.016L317.183 72.044C317.081 72.4173 316.889 72.7207 316.609 72.954C316.339 73.1873 316.031 73.36 315.685 73.472C315.34 73.584 314.999 73.64 314.663 73.64C314.253 73.64 313.87 73.57 313.515 73.43C313.161 73.29 312.881 73.08 312.675 72.8C312.47 72.52 312.367 72.17 312.367 71.75C312.367 71.2273 312.54 70.798 312.885 70.462C313.24 70.126 313.73 69.8973 314.355 69.776L317.155 69.23V70.084L314.845 70.56C314.369 70.6533 314.015 70.7887 313.781 70.966C313.548 71.1433 313.431 71.386 313.431 71.694C313.431 72.0113 313.548 72.2633 313.781 72.45C314.024 72.6367 314.369 72.73 314.817 72.73C315.088 72.73 315.349 72.6973 315.601 72.632C315.853 72.5573 316.082 72.4453 316.287 72.296C316.493 72.1467 316.651 71.96 316.763 71.736C316.885 71.512 316.945 71.246 316.945 70.938V68.964ZM321.957 64.526V71.582C321.957 71.946 322.055 72.2213 322.251 72.408C322.457 72.5853 322.723 72.674 323.049 72.674C323.32 72.674 323.553 72.6273 323.749 72.534C323.945 72.4407 324.123 72.3147 324.281 72.156L324.645 73.024C324.44 73.2107 324.193 73.36 323.903 73.472C323.614 73.584 323.283 73.64 322.909 73.64C322.555 73.64 322.223 73.5793 321.915 73.458C321.617 73.3273 321.379 73.122 321.201 72.842C321.024 72.562 320.931 72.2027 320.921 71.764V64.806L321.957 64.526ZM324.519 66.5V67.396H319.521V66.5H324.519ZM329.071 73.64C328.418 73.64 327.83 73.4953 327.307 73.206C326.794 72.9167 326.392 72.5013 326.103 71.96C325.814 71.4093 325.669 70.756 325.669 70C325.669 69.244 325.814 68.5953 326.103 68.054C326.392 67.5033 326.789 67.0833 327.293 66.794C327.797 66.5047 328.366 66.36 329.001 66.36C329.654 66.36 330.21 66.5 330.667 66.78C331.124 67.06 331.474 67.4427 331.717 67.928C331.96 68.4133 332.081 68.9593 332.081 69.566C332.081 69.706 332.076 69.8367 332.067 69.958C332.058 70.0793 332.044 70.1867 332.025 70.28H326.341V69.37H331.577L331.045 69.468C331.045 68.7773 330.854 68.2407 330.471 67.858C330.098 67.466 329.598 67.27 328.973 67.27C328.506 67.27 328.1 67.3773 327.755 67.592C327.419 67.8067 327.158 68.1193 326.971 68.53C326.784 68.9313 326.691 69.4213 326.691 70C326.691 70.5693 326.784 71.0593 326.971 71.47C327.167 71.8807 327.438 72.1933 327.783 72.408C328.138 72.6227 328.558 72.73 329.043 72.73C329.566 72.73 329.995 72.632 330.331 72.436C330.667 72.2307 330.933 71.9507 331.129 71.596L331.955 72.072C331.778 72.3987 331.549 72.6787 331.269 72.912C330.998 73.1453 330.676 73.3273 330.303 73.458C329.939 73.5793 329.528 73.64 329.071 73.64ZM334.184 73.5V66.5H335.038L335.178 67.704C335.365 67.2653 335.65 66.934 336.032 66.71C336.415 66.4767 336.877 66.36 337.418 66.36C337.549 66.36 337.689 66.374 337.838 66.402C337.988 66.4207 338.114 66.458 338.216 66.514L338.02 67.466C337.918 67.4193 337.806 67.3867 337.684 67.368C337.563 67.34 337.39 67.326 337.166 67.326C336.858 67.326 336.555 67.4147 336.256 67.592C335.958 67.7693 335.71 68.0353 335.514 68.39C335.318 68.7353 335.22 69.1693 335.22 69.692V73.5H334.184ZM345.106 63.28V73.5H344.07V63.28H345.106ZM350.632 73.64C349.978 73.64 349.39 73.4953 348.868 73.206C348.354 72.9167 347.953 72.5013 347.664 71.96C347.374 71.4093 347.23 70.756 347.23 70C347.23 69.244 347.374 68.5953 347.664 68.054C347.953 67.5033 348.35 67.0833 348.854 66.794C349.358 66.5047 349.927 66.36 350.562 66.36C351.215 66.36 351.77 66.5 352.228 66.78C352.685 67.06 353.035 67.4427 353.278 67.928C353.52 68.4133 353.642 68.9593 353.642 69.566C353.642 69.706 353.637 69.8367 353.628 69.958C353.618 70.0793 353.604 70.1867 353.586 70.28H347.902V69.37H353.138L352.606 69.468C352.606 68.7773 352.414 68.2407 352.032 67.858C351.658 67.466 351.159 67.27 350.534 67.27C350.067 67.27 349.661 67.3773 349.316 67.592C348.98 67.8067 348.718 68.1193 348.532 68.53C348.345 68.9313 348.252 69.4213 348.252 70C348.252 70.5693 348.345 71.0593 348.532 71.47C348.728 71.8807 348.998 72.1933 349.344 72.408C349.698 72.6227 350.118 72.73 350.604 72.73C351.126 72.73 351.556 72.632 351.892 72.436C352.228 72.2307 352.494 71.9507 352.69 71.596L353.516 72.072C353.338 72.3987 353.11 72.6787 352.83 72.912C352.559 73.1453 352.237 73.3273 351.864 73.458C351.5 73.5793 351.089 73.64 350.632 73.64ZM360.23 66.5H361.308L358.396 73.5H357.36L354.448 66.5H355.624L357.892 72.45L360.23 66.5ZM365.671 73.64C365.017 73.64 364.429 73.4953 363.907 73.206C363.393 72.9167 362.992 72.5013 362.703 71.96C362.413 71.4093 362.269 70.756 362.269 70C362.269 69.244 362.413 68.5953 362.703 68.054C362.992 67.5033 363.389 67.0833 363.893 66.794C364.397 66.5047 364.966 66.36 365.601 66.36C366.254 66.36 366.809 66.5 367.267 66.78C367.724 67.06 368.074 67.4427 368.317 67.928C368.559 68.4133 368.681 68.9593 368.681 69.566C368.681 69.706 368.676 69.8367 368.667 69.958C368.657 70.0793 368.643 70.1867 368.625 70.28H362.941V69.37H368.177L367.645 69.468C367.645 68.7773 367.453 68.2407 367.071 67.858C366.697 67.466 366.198 67.27 365.573 67.27C365.106 67.27 364.7 67.3773 364.355 67.592C364.019 67.8067 363.757 68.1193 363.571 68.53C363.384 68.9313 363.291 69.4213 363.291 70C363.291 70.5693 363.384 71.0593 363.571 71.47C363.767 71.8807 364.037 72.1933 364.383 72.408C364.737 72.6227 365.157 72.73 365.643 72.73C366.165 72.73 366.595 72.632 366.931 72.436C367.267 72.2307 367.533 71.9507 367.729 71.596L368.555 72.072C368.377 72.3987 368.149 72.6787 367.869 72.912C367.598 73.1453 367.276 73.3273 366.903 73.458C366.539 73.5793 366.128 73.64 365.671 73.64ZM371.848 63.28V73.5H370.812V63.28H371.848Z" fill="#012137"/>
<g clip-path="url(#clip0_2210_13145)">
<rect width="122" height="91" rx="13" fill="white"/>
<path d="M13.6249 1H108.928C115.6 1 121 6.37871 121 13V77.4497C121 84.3767 115.354 90 108.375 90H13.6249C6.64633 90 1 84.3767 1 77.4497V13.5503C1 6.6233 6.64633 1 13.6249 1Z" stroke="#012137" stroke-width="2"/>
<path d="M17.8641 16.0117H104.136C105.031 16.0117 105.749 16.7317 105.749 17.6105V73.0776C105.749 73.9548 105.033 74.6763 104.136 74.6763H17.8641C16.9686 74.6763 16.251 73.9563 16.251 73.0776V17.6105C16.251 16.7333 16.967 16.0117 17.8641 16.0117Z" stroke="#012137" stroke-width="2"/>
<path d="M62.1267 27.8743C62.1267 27.8743 62.0959 27.856 62.0867 27.8437C61.4258 27.431 60.568 27.431 59.9071 27.8437C59.8979 27.8437 59.8764 27.8621 59.8671 27.8743C58.9602 28.4736 58.1025 29.1095 57.2848 29.7974C58.5975 30.4333 59.8395 31.1885 60.9923 32.0538C66.6919 36.3096 70.0612 42.9564 70.0612 50.0954C70.0612 55.0667 66.0094 59.1055 61.0015 59.1055C55.9936 59.1055 51.9418 55.0759 51.9418 50.0954H51.9234C51.9234 45.9954 53.0178 42.1523 54.9392 38.8503C58.5883 41.2809 60.9831 45.4084 60.9831 50.0954C60.9831 51.5752 60.8447 52.9388 60.608 54.1831H60.9923C63.2611 54.1831 65.1025 52.3487 65.1025 50.0954C65.1025 42.5345 60.3221 36.0926 53.608 33.5825C49.9221 38.2205 47.8408 44.0051 47.8408 50.0832H47.8593C47.8593 57.2986 53.7464 63.1535 61.0015 63.1535C68.2566 63.1535 74.1438 57.2986 74.1438 50.0832C74.1438 41.122 69.6493 32.815 62.1267 27.8651V27.8743Z" fill="#1FA4F1"/>
</g>
<defs>
<clipPath id="clip0_2210_13145">
<rect width="122" height="91" rx="13" fill="white"/>
</clipPath>
</defs>
</svg>
