<svg width="400" height="610" viewBox="0 0 400 610" fill="none" xmlns="http://www.w3.org/2000/svg">
<g clip-path="url(#clip0_2031_68904)">
<rect width="400" height="610" fill="#F3F5F7"/>
<g clip-path="url(#clip1_2031_68904)">
<rect width="400" height="610" rx="20" fill="#F3F5F7"/>
<path d="M50 310V310C38.9543 310 30 318.954 30 330L30 410M138 550L50 550C38.9543 550 30 541.046 30 530L30 480M30 480L138 480M30 480L30 410M30 410L138 410" stroke="white" stroke-width="4" stroke-linecap="round" stroke-linejoin="round"/>
<path d="M299 260L299 89.8536C299 89.6272 299.09 89.4101 299.25 89.25V89.25C299.41 89.0899 299.627 89 299.854 89L331.6 89C339.553 89 346 82.5529 346 74.6V74.6L346 60M346 40L346 60M346 60L121 60C109.954 60 101 68.9543 101 80L101 123.5M101 225L101 203" stroke="white" stroke-width="4" stroke-linecap="round" stroke-linejoin="round"/>
<path d="M101 225L101 260" stroke="white" stroke-width="4"/>
<path d="M75.494 14.76C78.392 14.76 80.142 16.412 80.142 19.38C80.142 22.348 78.392 24 75.494 24H72.512V14.76H75.494ZM75.606 22.95C77.72 22.95 78.966 21.62 78.966 19.38C78.966 17.14 77.72 15.81 75.606 15.81H73.632V22.95H75.606ZM85.6275 16.86C85.8655 16.86 86.1875 16.888 86.3975 17L86.1735 18.092C85.9635 17.98 85.6555 17.91 85.2915 17.91C84.4515 17.91 83.4435 18.652 83.4435 20.22V24H82.3235V17L83.2335 17L83.3875 18.148C83.7795 17.294 84.5355 16.86 85.6275 16.86ZM93.5869 23.188C93.7689 23.188 93.9789 23.16 94.1469 23.118L94.0769 24C93.8809 24.07 93.5869 24.14 93.2369 24.14C92.5509 24.14 92.1029 23.888 91.9769 23.104C91.5289 23.762 90.6189 24.14 89.7229 24.14C88.4069 24.14 87.3429 23.524 87.3429 22.264C87.3429 21.214 88.2669 20.388 90.0729 20.08L91.9349 19.772V19.38C91.9349 18.456 91.3469 17.84 90.2969 17.84C89.3729 17.84 88.6729 18.288 88.2949 19.17L87.4689 18.568C87.8329 17.532 88.9389 16.86 90.2969 16.86C91.8929 16.86 93.0549 17.616 93.0549 19.24V22.684C93.0549 23.02 93.1949 23.188 93.5869 23.188ZM89.7789 23.16C90.8989 23.16 91.9349 22.572 91.9349 21.648V20.682L90.3669 20.976C89.1349 21.2 88.5049 21.606 88.5049 22.264C88.5049 22.852 88.9809 23.16 89.7789 23.16ZM96.3366 15.656C95.8326 15.656 95.4966 15.32 95.4966 14.816C95.4966 14.312 95.8326 13.976 96.3366 13.976C96.8406 13.976 97.1766 14.312 97.1766 14.816C97.1766 15.32 96.8406 15.656 96.3366 15.656ZM96.8966 17V24H95.7766V17H96.8966ZM102.897 16.86C104.395 16.86 105.627 17.714 105.627 19.52V24H104.507V19.912C104.507 18.358 103.751 17.84 102.785 17.84C101.763 17.84 100.615 18.484 100.615 20.276V24H99.4954V17H100.475L100.545 18.092C101.035 17.21 101.931 16.86 102.897 16.86ZM113.903 23.188C114.085 23.188 114.295 23.16 114.463 23.118L114.393 24C114.197 24.07 113.903 24.14 113.553 24.14C112.867 24.14 112.419 23.888 112.293 23.104C111.845 23.762 110.935 24.14 110.039 24.14C108.723 24.14 107.659 23.524 107.659 22.264C107.659 21.214 108.583 20.388 110.389 20.08L112.251 19.772V19.38C112.251 18.456 111.663 17.84 110.613 17.84C109.689 17.84 108.989 18.288 108.611 19.17L107.785 18.568C108.149 17.532 109.255 16.86 110.613 16.86C112.209 16.86 113.371 17.616 113.371 19.24V22.684C113.371 23.02 113.511 23.188 113.903 23.188ZM110.095 23.16C111.215 23.16 112.251 22.572 112.251 21.648V20.682L110.683 20.976C109.451 21.2 108.821 21.606 108.821 22.264C108.821 22.852 109.297 23.16 110.095 23.16ZM121.385 17H122.309V23.44C122.309 25.848 121.091 27.01 118.753 27.01C117.325 27.01 116.135 26.478 115.883 25.288L116.947 24.826C117.115 25.624 117.731 26.03 118.921 26.03C120.237 26.03 121.175 25.078 121.175 23.706V22.908C120.713 23.566 119.901 24 118.851 24C116.905 24 115.659 22.67 115.659 20.43C115.659 18.19 116.905 16.86 118.851 16.86C119.957 16.86 120.811 17.336 121.245 18.064L121.385 17ZM118.977 23.02C120.307 23.02 121.175 22.054 121.175 20.514V20.346C121.175 18.806 120.307 17.84 118.977 17.84C117.605 17.84 116.779 18.848 116.779 20.43C116.779 22.012 117.605 23.02 118.977 23.02ZM130.917 20.136C130.917 20.458 130.889 20.724 130.861 20.92L125.583 20.92C125.723 22.334 126.577 23.16 127.865 23.16C128.887 23.16 129.587 22.796 129.839 22.124L130.777 22.614C130.245 23.566 129.377 24.14 127.865 24.14C125.751 24.14 124.477 22.768 124.477 20.5C124.477 18.232 125.667 16.86 127.781 16.86C129.811 16.86 130.917 18.33 130.917 20.136ZM127.781 17.84C126.535 17.84 125.765 18.61 125.597 19.926L129.839 19.926C129.685 18.638 128.971 17.84 127.781 17.84Z" fill="#012137"/>
<path d="M256.839 15.81L251.491 15.81V18.792H255.663V19.842H251.491V24H250.371V14.76L256.839 14.76V15.81ZM261.436 16.86C261.674 16.86 261.996 16.888 262.206 17L261.982 18.092C261.772 17.98 261.464 17.91 261.1 17.91C260.26 17.91 259.252 18.652 259.252 20.22V24H258.132V17H259.042L259.196 18.148C259.588 17.294 260.344 16.86 261.436 16.86ZM269.634 20.136C269.634 20.458 269.606 20.724 269.578 20.92H264.3C264.44 22.334 265.294 23.16 266.582 23.16C267.604 23.16 268.304 22.796 268.556 22.124L269.494 22.614C268.962 23.566 268.094 24.14 266.582 24.14C264.468 24.14 263.194 22.768 263.194 20.5C263.194 18.232 264.384 16.86 266.498 16.86C268.528 16.86 269.634 18.33 269.634 20.136ZM266.498 17.84C265.252 17.84 264.482 18.61 264.314 19.926H268.556C268.402 18.638 267.688 17.84 266.498 17.84ZM274.143 24.14C272.855 24.14 271.665 23.636 271.133 22.558L272.043 21.928C272.379 22.782 273.247 23.16 274.255 23.16C275.403 23.16 275.949 22.698 275.949 22.124C275.949 21.606 275.515 21.298 274.115 21.046C272.127 20.682 271.399 20.136 271.399 18.96C271.399 17.826 272.449 16.86 274.157 16.86C275.655 16.86 276.537 17.392 276.929 18.54L275.977 19.1C275.669 18.176 275.039 17.84 274.157 17.84C273.219 17.84 272.519 18.344 272.519 18.862C272.519 19.464 272.981 19.772 274.409 20.01C276.369 20.332 277.069 20.92 277.069 22.068C277.069 23.286 275.935 24.14 274.143 24.14ZM282.548 16.86C284.046 16.86 285.278 17.714 285.278 19.52V24H284.158V19.912C284.158 18.358 283.402 17.84 282.436 17.84C281.414 17.84 280.266 18.498 280.266 20.29V24H279.146V13.78H280.266V18.05C280.756 17.21 281.596 16.86 282.548 16.86ZM296.98 18.008L295.356 24H293.97L291.24 14.76H292.444L294.67 23.118L296.854 14.76L298.128 14.76L300.312 23.146L302.552 14.76H303.686L300.97 24H299.584L297.946 18.008L297.47 15.922H297.456L296.98 18.008ZM310.671 23.188C310.853 23.188 311.063 23.16 311.231 23.118L311.161 24C310.965 24.07 310.671 24.14 310.321 24.14C309.635 24.14 309.187 23.888 309.061 23.104C308.613 23.762 307.703 24.14 306.807 24.14C305.491 24.14 304.427 23.524 304.427 22.264C304.427 21.214 305.351 20.388 307.157 20.08L309.019 19.772V19.38C309.019 18.456 308.431 17.84 307.381 17.84C306.457 17.84 305.757 18.288 305.379 19.17L304.553 18.568C304.917 17.532 306.023 16.86 307.381 16.86C308.977 16.86 310.139 17.616 310.139 19.24V22.684C310.139 23.02 310.279 23.188 310.671 23.188ZM306.863 23.16C307.983 23.16 309.019 22.572 309.019 21.648V20.682L307.451 20.976C306.219 21.2 305.589 21.606 305.589 22.264C305.589 22.852 306.065 23.16 306.863 23.16ZM316.479 22.572L316.871 23.51C316.437 23.902 315.835 24.14 315.065 24.14C314.029 24.14 313.133 23.622 313.119 22.264V17.966H311.719V17H313.119V15.32L314.239 15.012V17H316.829V17.966H314.239V22.068C314.239 22.754 314.673 23.09 315.289 23.09C315.793 23.09 316.157 22.894 316.479 22.572ZM324.458 20.136C324.458 20.458 324.43 20.724 324.402 20.92L319.124 20.92C319.264 22.334 320.118 23.16 321.406 23.16C322.428 23.16 323.128 22.796 323.38 22.124L324.318 22.614C323.786 23.566 322.918 24.14 321.406 24.14C319.292 24.14 318.018 22.768 318.018 20.5C318.018 18.232 319.208 16.86 321.322 16.86C323.352 16.86 324.458 18.33 324.458 20.136ZM321.322 17.84C320.076 17.84 319.306 18.61 319.138 19.926L323.38 19.926C323.226 18.638 322.512 17.84 321.322 17.84ZM329.891 16.86C330.129 16.86 330.451 16.888 330.661 17L330.437 18.092C330.227 17.98 329.919 17.91 329.555 17.91C328.715 17.91 327.707 18.652 327.707 20.22V24H326.587V17H327.497L327.651 18.148C328.043 17.294 328.799 16.86 329.891 16.86Z" fill="#012137"/>
<rect x="127" y="80" width="123" height="54" rx="10" transform="rotate(90 127 80)" fill="#1FA4F1"/>
<rect x="132" y="181" width="12" height="62" rx="6" transform="rotate(90 132 181)" fill="#1FA4F1"/>
<g clip-path="url(#clip2_2031_68904)">
<rect x="50" y="260" width="300" height="100" rx="10" fill="#1FA4F1"/>
<path d="M338.546 268.667C343.697 274.444 348.849 274.444 354 268.667L354 234L44.925 234L44.925 268.667C50.0762 274.444 55.2275 274.444 60.3787 268.667C65.53 274.444 70.6812 274.444 75.8325 268.667C80.9837 274.444 86.135 274.444 91.2863 268.667C96.4375 274.444 101.589 274.444 106.74 268.667C111.891 274.444 117.042 274.444 122.194 268.667C127.345 274.444 132.496 274.444 137.647 268.667C142.799 274.444 147.95 274.444 153.101 268.667C158.252 274.444 163.404 274.444 168.555 268.667C173.706 274.444 178.857 274.444 184.009 268.667C189.16 274.444 194.311 274.444 199.462 268.667C204.614 274.444 209.765 274.444 214.916 268.667C220.067 274.444 225.219 274.444 230.37 268.667C235.521 274.444 240.672 274.444 245.824 268.667C250.975 274.444 256.126 274.444 261.277 268.667C266.429 274.444 271.58 274.444 276.731 268.667C281.882 274.444 287.034 274.444 292.185 268.667C297.336 274.444 302.487 274.444 307.639 268.667C312.79 274.444 317.941 274.444 323.092 268.667C328.244 274.444 333.395 274.444 338.546 268.667Z" fill="white"/>
<path d="M133.405 305.76V315H132.019L128.155 308.812L127.175 306.992H127.161L127.217 308.476V315H126.153V305.76H127.539L131.389 311.92L132.383 313.768H132.397L132.341 312.284V305.76H133.405ZM141.098 308H142.218V315H141.238L141.168 313.936C140.678 314.776 139.782 315.14 138.662 315.14C137.276 315.14 136.086 314.426 136.086 312.578V308H137.206V312.284C137.206 313.726 137.85 314.16 138.858 314.16C140.048 314.16 141.098 313.46 141.098 311.808V308ZM148.715 313.572L149.107 314.51C148.673 314.902 148.071 315.14 147.301 315.14C146.265 315.14 145.369 314.622 145.355 313.264V308.966H143.955V308H145.355V306.32L146.475 306.012V308H149.065V308.966H146.475V313.068C146.475 313.754 146.909 314.09 147.525 314.09C148.029 314.09 148.393 313.894 148.715 313.572ZM153.993 307.86C154.231 307.86 154.553 307.888 154.763 308L154.539 309.092C154.329 308.98 154.021 308.91 153.657 308.91C152.817 308.91 151.809 309.652 151.809 311.22L151.809 315H150.689L150.689 308H151.599L151.753 309.148C152.145 308.294 152.901 307.86 153.993 307.86ZM156.964 306.656C156.46 306.656 156.124 306.32 156.124 305.816C156.124 305.312 156.46 304.976 156.964 304.976C157.468 304.976 157.804 305.312 157.804 305.816C157.804 306.32 157.468 306.656 156.964 306.656ZM157.524 308L157.524 315H156.404L156.404 308H157.524ZM166.128 311.136C166.128 311.458 166.1 311.724 166.072 311.92H160.794C160.934 313.334 161.788 314.16 163.076 314.16C164.098 314.16 164.798 313.796 165.05 313.124L165.988 313.614C165.456 314.566 164.588 315.14 163.076 315.14C160.962 315.14 159.688 313.768 159.688 311.5C159.688 309.232 160.878 307.86 162.992 307.86C165.022 307.86 166.128 309.33 166.128 311.136ZM162.992 308.84C161.746 308.84 160.976 309.61 160.808 310.926H165.05C164.896 309.638 164.182 308.84 162.992 308.84ZM171.659 307.86C173.157 307.86 174.389 308.714 174.389 310.52L174.389 315H173.269L173.269 310.912C173.269 309.358 172.513 308.84 171.547 308.84C170.525 308.84 169.377 309.484 169.377 311.276L169.377 315H168.257L168.257 308H169.237L169.307 309.092C169.797 308.21 170.693 307.86 171.659 307.86ZM180.721 313.572L181.113 314.51C180.679 314.902 180.077 315.14 179.307 315.14C178.271 315.14 177.375 314.622 177.361 313.264V308.966H175.961V308H177.361V306.32L178.481 306.012V308H181.071V308.966H178.481V313.068C178.481 313.754 178.915 314.09 179.531 314.09C180.035 314.09 180.399 313.894 180.721 313.572ZM189.299 315.14C188.011 315.14 186.821 314.636 186.289 313.558L187.199 312.928C187.535 313.782 188.403 314.16 189.411 314.16C190.559 314.16 191.105 313.698 191.105 313.124C191.105 312.606 190.671 312.298 189.271 312.046C187.283 311.682 186.555 311.136 186.555 309.96C186.555 308.826 187.605 307.86 189.313 307.86C190.811 307.86 191.693 308.392 192.085 309.54L191.133 310.1C190.825 309.176 190.195 308.84 189.313 308.84C188.375 308.84 187.675 309.344 187.675 309.862C187.675 310.464 188.137 310.772 189.565 311.01C191.525 311.332 192.225 311.92 192.225 313.068C192.225 314.286 191.091 315.14 189.299 315.14ZM197.256 307.86C199.37 307.86 200.644 309.232 200.644 311.5C200.644 313.768 199.37 315.14 197.256 315.14C195.142 315.14 193.868 313.768 193.868 311.5C193.868 309.232 195.142 307.86 197.256 307.86ZM197.256 308.826C195.842 308.826 194.988 309.834 194.988 311.5C194.988 313.166 195.842 314.174 197.256 314.174C198.67 314.174 199.524 313.166 199.524 311.5C199.524 309.834 198.67 308.826 197.256 308.826ZM203.968 304.78L203.968 315H202.848L202.848 304.78H203.968ZM211.535 308H212.655V315H211.675L211.605 313.936C211.115 314.776 210.219 315.14 209.099 315.14C207.713 315.14 206.523 314.426 206.523 312.578V308H207.643V312.284C207.643 313.726 208.287 314.16 209.295 314.16C210.485 314.16 211.535 313.46 211.535 311.808V308ZM219.153 313.572L219.545 314.51C219.111 314.902 218.509 315.14 217.739 315.14C216.703 315.14 215.807 314.622 215.793 313.264V308.966H214.393V308H215.793V306.32L216.913 306.012V308H219.503V308.966H216.913V313.068C216.913 313.754 217.347 314.09 217.963 314.09C218.467 314.09 218.831 313.894 219.153 313.572ZM221.686 306.656C221.182 306.656 220.846 306.32 220.846 305.816C220.846 305.312 221.182 304.976 221.686 304.976C222.19 304.976 222.526 305.312 222.526 305.816C222.526 306.32 222.19 306.656 221.686 306.656ZM222.246 308V315H221.126V308H222.246ZM227.799 307.86C229.913 307.86 231.187 309.232 231.187 311.5C231.187 313.768 229.913 315.14 227.799 315.14C225.685 315.14 224.411 313.768 224.411 311.5C224.411 309.232 225.685 307.86 227.799 307.86ZM227.799 308.826C226.385 308.826 225.531 309.834 225.531 311.5C225.531 313.166 226.385 314.174 227.799 314.174C229.213 314.174 230.067 313.166 230.067 311.5C230.067 309.834 229.213 308.826 227.799 308.826ZM236.765 307.86C238.263 307.86 239.495 308.714 239.495 310.52V315H238.375V310.912C238.375 309.358 237.619 308.84 236.653 308.84C235.631 308.84 234.483 309.484 234.483 311.276V315L233.363 315V308L234.343 308L234.413 309.092C234.903 308.21 235.799 307.86 236.765 307.86ZM250.147 313.572L250.539 314.51C250.105 314.902 249.503 315.14 248.733 315.14C247.697 315.14 246.801 314.622 246.787 313.264V308.966H245.387V308H246.787V306.32L247.907 306.012V308H250.497V308.966H247.907V313.068C247.907 313.754 248.341 314.09 248.957 314.09C249.461 314.09 249.825 313.894 250.147 313.572ZM257.86 314.188C258.042 314.188 258.252 314.16 258.42 314.118L258.35 315C258.154 315.07 257.86 315.14 257.51 315.14C256.824 315.14 256.376 314.888 256.25 314.104C255.802 314.762 254.892 315.14 253.996 315.14C252.68 315.14 251.616 314.524 251.616 313.264C251.616 312.214 252.54 311.388 254.346 311.08L256.208 310.772V310.38C256.208 309.456 255.62 308.84 254.57 308.84C253.646 308.84 252.946 309.288 252.568 310.17L251.742 309.568C252.106 308.532 253.212 307.86 254.57 307.86C256.166 307.86 257.328 308.616 257.328 310.24V313.684C257.328 314.02 257.468 314.188 257.86 314.188ZM254.052 314.16C255.172 314.16 256.208 313.572 256.208 312.648V311.682L254.64 311.976C253.408 312.2 252.778 312.606 252.778 313.264C252.778 313.852 253.254 314.16 254.052 314.16ZM263.452 307.86C264.95 307.86 266.182 308.714 266.182 310.52V315H265.062V310.912C265.062 309.358 264.306 308.84 263.34 308.84C262.318 308.84 261.17 309.484 261.17 311.276V315H260.05V308H261.03L261.1 309.092C261.59 308.21 262.486 307.86 263.452 307.86ZM273.674 315L271.322 311.542L269.838 313.026V315H268.718V304.78H269.838V311.626L273.464 308H274.864L272.134 310.73L275.032 315H273.674Z" fill="#012137"/>
<path d="M316.389 343.021H318.281V344H313.133V343.021H315.256V338.632C315.256 338.434 315.267 338.214 315.278 337.972C314.706 338.478 313.947 338.885 313.243 339.028L313.023 338.027C313.617 337.95 315.003 337.29 315.399 336.74H316.389V343.021ZM322.005 344.11C320.19 344.11 319.233 342.812 319.233 340.37C319.233 337.928 320.19 336.63 322.005 336.63C323.82 336.63 324.777 337.928 324.777 340.37C324.777 342.812 323.82 344.11 322.005 344.11ZM322.005 343.109C323.05 343.109 323.578 342.196 323.578 340.37C323.578 338.544 323.05 337.631 322.005 337.631C320.96 337.631 320.432 338.544 320.432 340.37C320.432 342.196 320.96 343.109 322.005 343.109ZM327.565 336.63C328.687 336.63 329.402 337.433 329.402 338.654C329.402 339.875 328.687 340.678 327.565 340.678C326.454 340.678 325.728 339.875 325.728 338.654C325.728 337.433 326.454 336.63 327.565 336.63ZM327.279 344L332.031 336.74H333.043L328.302 344H327.279ZM327.565 337.488C327.004 337.488 326.696 337.917 326.696 338.654C326.696 339.38 327.004 339.809 327.565 339.809C328.137 339.809 328.445 339.38 328.445 338.654C328.445 337.917 328.137 337.488 327.565 337.488ZM332.757 340.062C333.879 340.062 334.594 340.865 334.594 342.086C334.594 343.307 333.879 344.11 332.757 344.11C331.646 344.11 330.92 343.307 330.92 342.086C330.92 340.865 331.646 340.062 332.757 340.062ZM332.757 340.931C332.196 340.931 331.888 341.36 331.888 342.086C331.888 342.823 332.196 343.252 332.757 343.252C333.329 343.252 333.637 342.823 333.637 342.086C333.637 341.36 333.329 340.931 332.757 340.931Z" fill="#012137"/>
<path d="M340 339C339.448 339 339 339.448 339 340C339 340.552 339.448 341 340 341V339ZM350 339H340V341H350V339Z" fill="#012137"/>
<path d="M315.685 309.336C317.082 309.336 317.973 310.271 317.973 311.635C317.973 313.23 316.928 314.11 315.388 314.11C314.046 314.11 313.243 313.56 312.759 312.515L313.859 311.91C314.057 312.636 314.42 313.109 315.366 313.109C316.268 313.109 316.829 312.592 316.818 311.701C316.807 310.799 316.312 310.304 315.41 310.304C314.772 310.304 314.244 310.491 313.936 310.931L312.957 310.865L313.408 306.74H317.621V307.752H314.343L314.09 309.765L314.068 309.919H314.079C314.409 309.556 314.948 309.336 315.685 309.336ZM322.005 314.11C320.19 314.11 319.233 312.812 319.233 310.37C319.233 307.928 320.19 306.63 322.005 306.63C323.82 306.63 324.777 307.928 324.777 310.37C324.777 312.812 323.82 314.11 322.005 314.11ZM322.005 313.109C323.05 313.109 323.578 312.196 323.578 310.37C323.578 308.544 323.05 307.631 322.005 307.631C320.96 307.631 320.432 308.544 320.432 310.37C320.432 312.196 320.96 313.109 322.005 313.109ZM327.565 306.63C328.687 306.63 329.402 307.433 329.402 308.654C329.402 309.875 328.687 310.678 327.565 310.678C326.454 310.678 325.728 309.875 325.728 308.654C325.728 307.433 326.454 306.63 327.565 306.63ZM327.279 314L332.031 306.74H333.043L328.302 314H327.279ZM327.565 307.488C327.004 307.488 326.696 307.917 326.696 308.654C326.696 309.38 327.004 309.809 327.565 309.809C328.137 309.809 328.445 309.38 328.445 308.654C328.445 307.917 328.137 307.488 327.565 307.488ZM332.757 310.062C333.879 310.062 334.594 310.865 334.594 312.086C334.594 313.307 333.879 314.11 332.757 314.11C331.646 314.11 330.92 313.307 330.92 312.086C330.92 310.865 331.646 310.062 332.757 310.062ZM332.757 310.931C332.196 310.931 331.888 311.36 331.888 312.086C331.888 312.823 332.196 313.252 332.757 313.252C333.329 313.252 333.637 312.823 333.637 312.086C333.637 311.36 333.329 310.931 332.757 310.931Z" fill="#012137"/>
<path d="M340 309C339.448 309 339 309.448 339 310C339 310.552 339.448 311 340 311V309ZM350 309H340V311H350V309Z" fill="#012137"/>
<path d="M309.75 283.021H311.642V284H306.494V283.021H308.617V278.632C308.617 278.434 308.628 278.214 308.639 277.972C308.067 278.478 307.308 278.885 306.604 279.028L306.384 278.027C306.978 277.95 308.364 277.29 308.76 276.74H309.75V283.021ZM315.366 284.11C313.551 284.11 312.594 282.812 312.594 280.37C312.594 277.928 313.551 276.63 315.366 276.63C317.181 276.63 318.138 277.928 318.138 280.37C318.138 282.812 317.181 284.11 315.366 284.11ZM315.366 283.109C316.411 283.109 316.939 282.196 316.939 280.37C316.939 278.544 316.411 277.631 315.366 277.631C314.321 277.631 313.793 278.544 313.793 280.37C313.793 282.196 314.321 283.109 315.366 283.109ZM322.005 284.11C320.19 284.11 319.233 282.812 319.233 280.37C319.233 277.928 320.19 276.63 322.005 276.63C323.82 276.63 324.777 277.928 324.777 280.37C324.777 282.812 323.82 284.11 322.005 284.11ZM322.005 283.109C323.05 283.109 323.578 282.196 323.578 280.37C323.578 278.544 323.05 277.631 322.005 277.631C320.96 277.631 320.432 278.544 320.432 280.37C320.432 282.196 320.96 283.109 322.005 283.109ZM327.565 276.63C328.687 276.63 329.402 277.433 329.402 278.654C329.402 279.875 328.687 280.678 327.565 280.678C326.454 280.678 325.728 279.875 325.728 278.654C325.728 277.433 326.454 276.63 327.565 276.63ZM327.279 284L332.031 276.74H333.043L328.302 284H327.279ZM327.565 277.488C327.004 277.488 326.696 277.917 326.696 278.654C326.696 279.38 327.004 279.809 327.565 279.809C328.137 279.809 328.445 279.38 328.445 278.654C328.445 277.917 328.137 277.488 327.565 277.488ZM332.757 280.062C333.879 280.062 334.594 280.865 334.594 282.086C334.594 283.307 333.879 284.11 332.757 284.11C331.646 284.11 330.92 283.307 330.92 282.086C330.92 280.865 331.646 280.062 332.757 280.062ZM332.757 280.931C332.196 280.931 331.888 281.36 331.888 282.086C331.888 282.823 332.196 283.252 332.757 283.252C333.329 283.252 333.637 282.823 333.637 282.086C333.637 281.36 333.329 280.931 332.757 280.931Z" fill="#012137"/>
<path d="M340 279C339.448 279 339 279.448 339 280C339 280.552 339.448 281 340 281V279ZM350 279H340V281H350V279Z" fill="#012137"/>
</g>
<path d="M346 40L346 0" stroke="#1FA4F1" stroke-width="4"/>
<path d="M173.57 99.502L173.57 135.263" stroke="white" stroke-width="4" stroke-linecap="round" stroke-linejoin="round"/>
<path d="M277 130.387L277 114.944" stroke="#1FA4F1" stroke-width="4" stroke-linecap="round" stroke-linejoin="round"/>
<path d="M242 130.387L242 114.944" stroke="#1FA4F1" stroke-width="4" stroke-linecap="round" stroke-linejoin="round"/>
<path d="M208 130.387L208 114.944" stroke="#1FA4F1" stroke-width="4" stroke-linecap="round" stroke-linejoin="round"/>
<path d="M173.57 130.387L173.57 114.944" stroke="#1FA4F1" stroke-width="4" stroke-linecap="round" stroke-linejoin="round"/>
<path d="M173.57 114.442L173.57 99C173.57 93.4772 178.047 89 183.57 89L208 89M322 89L277 89M208 89L208 114.442M208 89L242 89M242 89L242 114.442M242 89L277 89M277 89L277 114.442" stroke="white" stroke-width="4" stroke-linecap="round" stroke-linejoin="round"/>
<rect x="270.288" y="130.387" width="13.0042" height="11.3786" rx="5" fill="white"/>
<g clip-path="url(#clip3_2031_68904)">
<path d="M253.22 146.988C253.22 141.465 257.697 136.988 263.22 136.988L283.292 136.988L283.292 193C283.292 198.522 278.815 203 273.292 203L263.22 203C257.697 203 253.22 198.522 253.22 193L253.22 146.988Z" fill="#1FA4F1"/>
<path d="M513.766 141.532C518.918 147.31 524.069 147.31 529.22 141.532L529.22 106.865L220.145 106.865L220.145 141.532C225.296 147.31 230.448 147.31 235.599 141.532C240.75 147.31 245.901 147.31 251.053 141.532C256.204 147.31 261.355 147.31 266.506 141.532C271.658 147.31 276.809 147.31 281.96 141.532C287.111 147.31 292.263 147.31 297.414 141.532C302.565 147.31 307.716 147.31 312.868 141.532C318.019 147.31 323.17 147.31 328.321 141.532C333.473 147.31 338.624 147.31 343.775 141.532C348.926 147.31 354.078 147.31 359.229 141.532C364.38 147.31 369.531 147.31 374.683 141.532C379.834 147.31 384.985 147.31 390.136 141.532C395.288 147.31 400.439 147.31 405.59 141.532C410.741 147.31 415.893 147.31 421.044 141.532C426.195 147.31 431.346 147.31 436.498 141.532C441.649 147.31 446.8 147.31 451.951 141.532C457.103 147.31 462.254 147.31 467.405 141.532C472.556 147.31 477.708 147.31 482.859 141.532C488.01 147.31 493.161 147.31 498.313 141.532C503.464 147.31 508.615 147.31 513.766 141.532Z" fill="white"/>
<path d="M279.625 172.078C279.073 172.078 278.625 172.526 278.625 173.078C278.625 173.63 279.073 174.078 279.625 174.078L279.625 172.078ZM279.625 174.078L283.292 174.078L283.292 172.078L279.625 172.078L279.625 174.078Z" fill="#012137"/>
<path d="M279.625 148.08C279.073 148.08 278.625 148.528 278.625 149.08C278.625 149.632 279.073 150.08 279.625 150.08L279.625 148.08ZM279.625 150.08L283.292 150.08L283.292 148.08L279.625 148.08L279.625 150.08Z" fill="#012137"/>
<path d="M279.625 194.664C279.073 194.664 278.625 195.112 278.625 195.664C278.625 196.216 279.073 196.664 279.625 196.664L279.625 194.664ZM279.625 196.664L283.292 196.664L283.292 194.664L279.625 194.664L279.625 196.664Z" fill="#012137"/>
</g>
<rect x="235.34" y="130.387" width="13.0042" height="11.3786" rx="5" fill="white"/>
<g clip-path="url(#clip4_2031_68904)">
<path d="M218.272 146.988C218.272 141.465 222.749 136.988 228.272 136.988L248.344 136.988L248.344 193C248.344 198.522 243.867 203 238.344 203L228.272 203C222.749 203 218.272 198.522 218.272 193L218.272 146.988Z" fill="#1FA4F1"/>
<path d="M478.818 141.532C483.969 147.31 489.121 147.31 494.272 141.532L494.272 106.865L185.197 106.865L185.197 141.532C190.348 147.31 195.499 147.31 200.651 141.532C205.802 147.31 210.953 147.31 216.104 141.532C221.256 147.31 226.407 147.31 231.558 141.532C236.709 147.31 241.861 147.31 247.012 141.532C252.163 147.31 257.314 147.31 262.466 141.532C267.617 147.31 272.768 147.31 277.919 141.532C283.071 147.31 288.222 147.31 293.373 141.532C298.524 147.31 303.676 147.31 308.827 141.532C313.978 147.31 319.129 147.31 324.281 141.532C329.432 147.31 334.583 147.31 339.734 141.532C344.886 147.31 350.037 147.31 355.188 141.532C360.339 147.31 365.491 147.31 370.642 141.532C375.793 147.31 380.944 147.31 386.096 141.532C391.247 147.31 396.398 147.31 401.549 141.532C406.701 147.31 411.852 147.31 417.003 141.532C422.154 147.31 427.306 147.31 432.457 141.532C437.608 147.31 442.759 147.31 447.911 141.532C453.062 147.31 458.213 147.31 463.364 141.532C468.516 147.31 473.667 147.31 478.818 141.532Z" fill="white"/>
<path d="M244.677 172.078C244.125 172.078 243.677 172.526 243.677 173.078C243.677 173.63 244.125 174.078 244.677 174.078L244.677 172.078ZM244.677 174.078L248.344 174.078L248.344 172.078L244.677 172.078L244.677 174.078Z" fill="#012137"/>
<path d="M244.677 148.08C244.125 148.08 243.677 148.528 243.677 149.08C243.677 149.632 244.125 150.08 244.677 150.08L244.677 148.08ZM244.677 150.08L248.344 150.08L248.344 148.08L244.677 148.08L244.677 150.08Z" fill="#012137"/>
<path d="M244.677 194.664C244.125 194.664 243.677 195.112 243.677 195.664C243.677 196.216 244.125 196.664 244.677 196.664L244.677 194.664ZM244.677 196.664L248.344 196.664L248.344 194.664L244.677 194.664L244.677 196.664Z" fill="#012137"/>
</g>
<rect x="201.204" y="130.387" width="13.0042" height="11.3786" rx="5" fill="white"/>
<g clip-path="url(#clip5_2031_68904)">
<path d="M184.136 146.988C184.136 141.465 188.613 136.988 194.136 136.988L214.208 136.988L214.208 193C214.208 198.522 209.73 203 204.208 203L194.136 203C188.613 203 184.136 198.522 184.136 193L184.136 146.988Z" fill="#1FA4F1"/>
<path d="M444.682 141.532C449.833 147.31 454.984 147.31 460.136 141.532L460.136 106.865L151.061 106.865L151.061 141.532C156.212 147.31 161.363 147.31 166.514 141.532C171.666 147.31 176.817 147.31 181.968 141.532C187.119 147.31 192.271 147.31 197.422 141.532C202.573 147.31 207.724 147.31 212.876 141.532C218.027 147.31 223.178 147.31 228.329 141.532C233.481 147.31 238.632 147.31 243.783 141.532C248.934 147.31 254.086 147.31 259.237 141.532C264.388 147.31 269.539 147.31 274.691 141.532C279.842 147.31 284.993 147.31 290.144 141.532C295.296 147.31 300.447 147.31 305.598 141.532C310.749 147.31 315.901 147.31 321.052 141.532C326.203 147.31 331.354 147.31 336.506 141.532C341.657 147.31 346.808 147.31 351.959 141.532C357.111 147.31 362.262 147.31 367.413 141.532C372.564 147.31 377.716 147.31 382.867 141.532C388.018 147.31 393.169 147.31 398.321 141.532C403.472 147.31 408.623 147.31 413.774 141.532C418.926 147.31 424.077 147.31 429.228 141.532C434.379 147.31 439.531 147.31 444.682 141.532Z" fill="white"/>
<path d="M210.541 172.078C209.988 172.078 209.541 172.526 209.541 173.078C209.541 173.63 209.988 174.078 210.541 174.078L210.541 172.078ZM210.541 174.078L214.208 174.078L214.208 172.078L210.541 172.078L210.541 174.078Z" fill="#012137"/>
<path d="M210.541 148.08C209.988 148.08 209.541 148.528 209.541 149.08C209.541 149.632 209.988 150.08 210.541 150.08L210.541 148.08ZM210.541 150.08L214.208 150.08L214.208 148.08L210.541 148.08L210.541 150.08Z" fill="#012137"/>
<path d="M210.541 194.664C209.988 194.664 209.541 195.112 209.541 195.664C209.541 196.216 209.988 196.664 210.541 196.664L210.541 194.664ZM210.541 196.664L214.208 196.664L214.208 194.664L210.541 194.664L210.541 196.664Z" fill="#012137"/>
</g>
<rect x="167.068" y="130.387" width="13.0042" height="11.3786" rx="5" fill="white"/>
<g clip-path="url(#clip6_2031_68904)">
<path d="M150 146.988C150 141.465 154.477 136.988 160 136.988L180.072 136.988L180.072 193C180.072 198.522 175.595 203 170.072 203L160 203C154.477 203 150 198.522 150 193L150 146.988Z" fill="#1FA4F1"/>
<path d="M410.546 141.532C415.697 147.31 420.849 147.31 426 141.532L426 106.865L116.925 106.865L116.925 141.532C122.076 147.31 127.227 147.31 132.379 141.532C137.53 147.31 142.681 147.31 147.832 141.532C152.984 147.31 158.135 147.31 163.286 141.532C168.437 147.31 173.589 147.31 178.74 141.532C183.891 147.31 189.042 147.31 194.194 141.532C199.345 147.31 204.496 147.31 209.647 141.532C214.799 147.31 219.95 147.31 225.101 141.532C230.252 147.31 235.404 147.31 240.555 141.532C245.706 147.31 250.857 147.31 256.009 141.532C261.16 147.31 266.311 147.31 271.462 141.532C276.614 147.31 281.765 147.31 286.916 141.532C292.067 147.31 297.219 147.31 302.37 141.532C307.521 147.31 312.672 147.31 317.824 141.532C322.975 147.31 328.126 147.31 333.277 141.532C338.429 147.31 343.58 147.31 348.731 141.532C353.882 147.31 359.034 147.31 364.185 141.532C369.336 147.31 374.487 147.31 379.639 141.532C384.79 147.31 389.941 147.31 395.092 141.532C400.244 147.31 405.395 147.31 410.546 141.532Z" fill="white"/>
<path d="M176.405 172.078C175.853 172.078 175.405 172.526 175.405 173.078C175.405 173.63 175.853 174.078 176.405 174.078L176.405 172.078ZM176.405 174.078L180.072 174.078L180.072 172.078L176.405 172.078L176.405 174.078Z" fill="#012137"/>
<path d="M176.405 148.08C175.853 148.08 175.405 148.528 175.405 149.08C175.405 149.632 175.853 150.08 176.405 150.08L176.405 148.08ZM176.405 150.08L180.072 150.08L180.072 148.08L176.405 148.08L176.405 150.08Z" fill="#012137"/>
<path d="M176.405 194.664C175.853 194.664 175.405 195.112 175.405 195.664C175.405 196.216 175.853 196.664 176.405 196.664L176.405 194.664ZM176.405 196.664L180.072 196.664L180.072 194.664L176.405 194.664L176.405 196.664Z" fill="#012137"/>
</g>
<path d="M168.101 175.961L167.121 173.399H162.935L161.955 175.961H160.779L164.377 166.721H165.707L169.291 175.961H168.101ZM163.341 172.349H166.715L165.469 169.073L165.035 167.785H165.007L164.601 169.031L163.341 172.349Z" fill="#012137"/>
<path d="M196.111 175.961L196.111 166.721H199.401C201.585 166.721 202.551 167.701 202.551 169.269C202.551 170.207 201.991 171.061 200.997 171.257V171.271C202.089 171.481 202.789 172.363 202.789 173.371C202.789 174.939 201.571 175.961 199.387 175.961H196.111ZM197.231 170.781H199.415C200.731 170.781 201.375 170.291 201.375 169.269C201.375 168.261 200.731 167.771 199.415 167.771H197.231V170.781ZM197.231 174.911H199.653C200.969 174.911 201.613 174.351 201.613 173.371C201.613 172.391 200.969 171.831 199.653 171.831H197.231V174.911Z" fill="#012137"/>
<path d="M237.469 173.595C236.881 175.177 235.481 176.101 233.745 176.101C231.113 176.101 229.461 174.267 229.461 171.341C229.461 168.415 231.141 166.581 233.717 166.581C235.509 166.581 236.713 167.337 237.301 168.737L236.195 169.255C235.789 168.191 235.033 167.631 233.801 167.631C231.911 167.631 230.637 169.003 230.637 171.341C230.637 173.665 231.827 175.051 233.745 175.051C234.977 175.051 235.943 174.421 236.349 173.175L237.469 173.595Z" fill="#012137"/>
<path d="M263.514 168.821C265.46 168.821 266.706 170.179 266.706 172.461C266.706 174.743 265.46 176.101 263.514 176.101C262.464 176.101 261.624 175.597 261.19 174.869V178.901H260.07V168.961H261.05L261.12 170.179C261.526 169.381 262.408 168.821 263.514 168.821ZM263.388 175.121C264.76 175.121 265.586 174.085 265.586 172.461C265.586 170.837 264.76 169.801 263.388 169.801C262.058 169.801 261.19 170.795 261.19 172.377V172.545C261.19 174.127 262.058 175.121 263.388 175.121ZM275.107 166.721H276.227V175.961H275.107V171.803H270.095V175.961H268.975V166.721H270.095V170.753H275.107V166.721Z" fill="#012137"/>
<path d="M94.8522 124.26V133.5H93.7882V127.69L93.9142 125.254H93.9002L90.8622 133.5H89.9102L86.8722 125.254H86.8582L86.9842 127.69V133.5H85.9202V124.26H87.6422L89.6722 129.874L90.3722 132.184H90.4002L91.1142 129.888L93.1302 124.26H94.8522ZM103.317 132.688C103.499 132.688 103.709 132.66 103.877 132.618L103.807 133.5C103.611 133.57 103.317 133.64 102.967 133.64C102.281 133.64 101.833 133.388 101.707 132.604C101.259 133.262 100.349 133.64 99.4534 133.64C98.1374 133.64 97.0734 133.024 97.0734 131.764C97.0734 130.714 97.9974 129.888 99.8034 129.58L101.665 129.272V128.88C101.665 127.956 101.077 127.34 100.027 127.34C99.1034 127.34 98.4034 127.788 98.0254 128.67L97.1994 128.068C97.5634 127.032 98.6694 126.36 100.027 126.36C101.623 126.36 102.785 127.116 102.785 128.74V132.184C102.785 132.52 102.925 132.688 103.317 132.688ZM99.5094 132.66C100.629 132.66 101.665 132.072 101.665 131.148V130.182L100.097 130.476C98.8654 130.7 98.2354 131.106 98.2354 131.764C98.2354 132.352 98.7114 132.66 99.5094 132.66ZM106.067 125.156C105.563 125.156 105.227 124.82 105.227 124.316C105.227 123.812 105.563 123.476 106.067 123.476C106.571 123.476 106.907 123.812 106.907 124.316C106.907 124.82 106.571 125.156 106.067 125.156ZM106.627 126.5V133.5H105.507V126.5H106.627ZM112.628 126.36C114.126 126.36 115.358 127.214 115.358 129.02V133.5H114.238V129.412C114.238 127.858 113.482 127.34 112.516 127.34C111.494 127.34 110.346 127.984 110.346 129.776V133.5H109.226V126.5H110.206L110.276 127.592C110.766 126.71 111.662 126.36 112.628 126.36ZM85.5865 145.26C87.4485 145.26 88.6945 146.338 88.6945 148.074C88.6945 149.81 87.4485 150.888 85.5865 150.888H83.4445V154.5H82.3245V145.26H85.5865ZM85.4185 149.838C86.8745 149.838 87.5185 149.222 87.5185 148.074C87.5185 146.926 86.8745 146.31 85.4185 146.31H83.4445V149.838H85.4185ZM95.6014 147.5H96.7214V154.5H95.7414L95.6714 153.436C95.1814 154.276 94.2854 154.64 93.1654 154.64C91.7794 154.64 90.5894 153.926 90.5894 152.078V147.5H91.7094V151.784C91.7094 153.226 92.3534 153.66 93.3614 153.66C94.5514 153.66 95.6014 152.96 95.6014 151.308V147.5ZM107.461 147.36C108.805 147.36 110.135 148.172 110.135 150.02V154.5H109.015V150.132C109.015 148.858 108.287 148.34 107.363 148.34C106.271 148.34 105.291 149.166 105.291 150.664V154.5H104.171V150.132C104.171 148.858 103.443 148.34 102.519 148.34C101.595 148.34 100.447 149.026 100.447 150.762V154.5H99.3274V147.5H100.307L100.377 148.592C100.881 147.738 101.749 147.36 102.617 147.36C103.597 147.36 104.563 147.794 105.025 148.732C105.459 147.78 106.579 147.36 107.461 147.36ZM116.115 147.36C118.061 147.36 119.307 148.718 119.307 151C119.307 153.282 118.061 154.64 116.115 154.64C115.065 154.64 114.225 154.136 113.791 153.408V157.44H112.671V147.5H113.651L113.721 148.718C114.127 147.92 115.009 147.36 116.115 147.36ZM115.989 153.66C117.361 153.66 118.187 152.624 118.187 151C118.187 149.376 117.361 148.34 115.989 148.34C114.659 148.34 113.791 149.334 113.791 150.916V151.084C113.791 152.666 114.659 153.66 115.989 153.66Z" fill="#012137"/>
<path d="M54 0.500183L54 205C54 216.046 62.9543 225 74 225L100 225M285 225L102 225L287 225L350 225.001C361.046 225.001 370 233.955 370 245L370 410M261 550L350 550C361.046 550 370 541.046 370 530L370 480M370 480L261 480M370 480L370 410M370 410L261 410" stroke="white" stroke-width="4" stroke-linecap="round" stroke-linejoin="round"/>
<g clip-path="url(#clip7_2031_68904)">
<rect x="138" y="520" width="123" height="60" rx="10" fill="white"/>
<path d="M56.8502 533.444C51.5668 527.519 46.2835 527.519 41.0002 533.444L41 633.5L358 633.5L358 533.444C352.717 527.518 347.433 527.518 342.15 533.444C336.867 527.518 331.583 527.518 326.3 533.444C321.017 527.518 315.733 527.518 310.45 533.444C305.167 527.518 299.883 527.518 294.6 533.444C289.317 527.518 284.033 527.518 278.75 533.444C273.467 527.518 268.183 527.518 262.9 533.444C257.617 527.518 252.333 527.518 247.05 533.444C241.767 527.518 236.483 527.518 231.2 533.444C225.917 527.518 220.633 527.518 215.35 533.444C210.067 527.518 204.783 527.518 199.5 533.444C194.217 527.518 188.933 527.518 183.65 533.444C178.367 527.518 173.084 527.518 167.8 533.444C162.517 527.518 157.234 527.518 151.95 533.444C146.667 527.518 141.383 527.519 136.1 533.444C130.817 527.519 125.534 527.519 120.25 533.444C114.967 527.519 109.684 527.519 104.4 533.444C99.1168 527.519 93.8335 527.519 88.5502 533.444C83.2668 527.519 77.9835 527.519 72.7002 533.444C67.4168 527.519 62.1335 527.519 56.8502 533.444Z" fill="#00D791"/>
<path d="M190.069 546.81H184.721V549.792H188.893V550.842H184.721V555H183.601V545.76H190.069V546.81ZM196.965 554.188C197.147 554.188 197.357 554.16 197.525 554.118L197.455 555C197.259 555.07 196.965 555.14 196.615 555.14C195.929 555.14 195.481 554.888 195.355 554.104C194.907 554.762 193.997 555.14 193.101 555.14C191.785 555.14 190.721 554.524 190.721 553.264C190.721 552.214 191.645 551.388 193.451 551.08L195.313 550.772V550.38C195.313 549.456 194.725 548.84 193.675 548.84C192.751 548.84 192.051 549.288 191.673 550.17L190.847 549.568C191.211 548.532 192.317 547.86 193.675 547.86C195.271 547.86 196.433 548.616 196.433 550.24V553.684C196.433 554.02 196.573 554.188 196.965 554.188ZM193.157 554.16C194.277 554.16 195.313 553.572 195.313 552.648V551.682L193.745 551.976C192.513 552.2 191.883 552.606 191.883 553.264C191.883 553.852 192.359 554.16 193.157 554.16ZM202.459 547.86C202.697 547.86 203.019 547.888 203.229 548L203.005 549.092C202.795 548.98 202.487 548.91 202.123 548.91C201.283 548.91 200.275 549.652 200.275 551.22V555H199.155V548H200.065L200.219 549.148C200.611 548.294 201.367 547.86 202.459 547.86ZM213.003 547.86C214.347 547.86 215.677 548.672 215.677 550.52V555H214.557V550.632C214.557 549.358 213.829 548.84 212.905 548.84C211.813 548.84 210.833 549.666 210.833 551.164V555H209.713V550.632C209.713 549.358 208.985 548.84 208.061 548.84C207.137 548.84 205.989 549.526 205.989 551.262V555H204.869V548H205.849L205.919 549.092C206.423 548.238 207.291 547.86 208.159 547.86C209.139 547.86 210.105 548.294 210.567 549.232C211.001 548.28 212.121 547.86 213.003 547.86Z" fill="#012137"/>
</g>
<g clip-path="url(#clip8_2031_68904)">
<rect x="138" y="450" width="123" height="60" rx="10" fill="white"/>
<path d="M56.8502 463.444C51.5668 457.519 46.2835 457.519 41.0002 463.444L41 563.5L358 563.5L358 463.444C352.717 457.518 347.433 457.518 342.15 463.444C336.867 457.518 331.583 457.518 326.3 463.444C321.017 457.518 315.733 457.518 310.45 463.444C305.167 457.518 299.883 457.518 294.6 463.444C289.317 457.518 284.033 457.518 278.75 463.444C273.467 457.518 268.183 457.518 262.9 463.444C257.617 457.518 252.333 457.518 247.05 463.444C241.767 457.518 236.483 457.518 231.2 463.444C225.917 457.518 220.633 457.518 215.35 463.444C210.067 457.518 204.783 457.518 199.5 463.444C194.217 457.518 188.933 457.518 183.65 463.444C178.367 457.518 173.084 457.518 167.8 463.444C162.517 457.518 157.234 457.518 151.95 463.444C146.667 457.518 141.383 457.519 136.1 463.444C130.817 457.519 125.534 457.519 120.25 463.444C114.967 457.519 109.684 457.519 104.4 463.444C99.1168 457.519 93.8335 457.519 88.5502 463.444C83.2668 457.519 77.9835 457.519 72.7002 463.444C67.4168 457.519 62.1335 457.519 56.8502 463.444Z" fill="#00D791"/>
<path d="M190.069 476.81H184.721V479.792H188.893V480.842H184.721V485H183.601V475.76H190.069V476.81ZM196.965 484.188C197.147 484.188 197.357 484.16 197.525 484.118L197.455 485C197.259 485.07 196.965 485.14 196.615 485.14C195.929 485.14 195.481 484.888 195.355 484.104C194.907 484.762 193.997 485.14 193.101 485.14C191.785 485.14 190.721 484.524 190.721 483.264C190.721 482.214 191.645 481.388 193.451 481.08L195.313 480.772V480.38C195.313 479.456 194.725 478.84 193.675 478.84C192.751 478.84 192.051 479.288 191.673 480.17L190.847 479.568C191.211 478.532 192.317 477.86 193.675 477.86C195.271 477.86 196.433 478.616 196.433 480.24V483.684C196.433 484.02 196.573 484.188 196.965 484.188ZM193.157 484.16C194.277 484.16 195.313 483.572 195.313 482.648V481.682L193.745 481.976C192.513 482.2 191.883 482.606 191.883 483.264C191.883 483.852 192.359 484.16 193.157 484.16ZM202.459 477.86C202.697 477.86 203.019 477.888 203.229 478L203.005 479.092C202.795 478.98 202.487 478.91 202.123 478.91C201.283 478.91 200.275 479.652 200.275 481.22V485H199.155V478H200.065L200.219 479.148C200.611 478.294 201.367 477.86 202.459 477.86ZM213.003 477.86C214.347 477.86 215.677 478.672 215.677 480.52V485H214.557V480.632C214.557 479.358 213.829 478.84 212.905 478.84C211.813 478.84 210.833 479.666 210.833 481.164V485H209.713V480.632C209.713 479.358 208.985 478.84 208.061 478.84C207.137 478.84 205.989 479.526 205.989 481.262V485H204.869V478H205.849L205.919 479.092C206.423 478.238 207.291 477.86 208.159 477.86C209.139 477.86 210.105 478.294 210.567 479.232C211.001 478.28 212.121 477.86 213.003 477.86Z" fill="#012137"/>
</g>
<g clip-path="url(#clip9_2031_68904)">
<rect x="138" y="379" width="123" height="60" rx="10" fill="white"/>
<path d="M56.8502 392.444C51.5668 386.519 46.2835 386.519 41.0002 392.444L41 492.5L358 492.5L358 392.444C352.717 386.518 347.433 386.518 342.15 392.444C336.867 386.518 331.583 386.518 326.3 392.444C321.017 386.518 315.733 386.518 310.45 392.444C305.167 386.518 299.883 386.518 294.6 392.444C289.317 386.518 284.033 386.518 278.75 392.444C273.467 386.518 268.183 386.518 262.9 392.444C257.617 386.518 252.333 386.518 247.05 392.444C241.767 386.518 236.483 386.518 231.2 392.444C225.917 386.518 220.633 386.518 215.35 392.444C210.067 386.518 204.783 386.518 199.5 392.444C194.217 386.518 188.933 386.518 183.65 392.444C178.367 386.518 173.084 386.518 167.8 392.444C162.517 386.518 157.234 386.518 151.95 392.444C146.667 386.518 141.383 386.519 136.1 392.444C130.817 386.519 125.534 386.519 120.25 392.444C114.967 386.519 109.684 386.519 104.4 392.444C99.1168 386.519 93.8335 386.519 88.5502 392.444C83.2668 386.519 77.9835 386.519 72.7002 392.444C67.4168 386.519 62.1335 386.519 56.8502 392.444Z" fill="#00D791"/>
<path d="M190.069 405.81H184.721V408.792H188.893V409.842H184.721V414H183.601V404.76H190.069V405.81ZM196.965 413.188C197.147 413.188 197.357 413.16 197.525 413.118L197.455 414C197.259 414.07 196.965 414.14 196.615 414.14C195.929 414.14 195.481 413.888 195.355 413.104C194.907 413.762 193.997 414.14 193.101 414.14C191.785 414.14 190.721 413.524 190.721 412.264C190.721 411.214 191.645 410.388 193.451 410.08L195.313 409.772V409.38C195.313 408.456 194.725 407.84 193.675 407.84C192.751 407.84 192.051 408.288 191.673 409.17L190.847 408.568C191.211 407.532 192.317 406.86 193.675 406.86C195.271 406.86 196.433 407.616 196.433 409.24V412.684C196.433 413.02 196.573 413.188 196.965 413.188ZM193.157 413.16C194.277 413.16 195.313 412.572 195.313 411.648V410.682L193.745 410.976C192.513 411.2 191.883 411.606 191.883 412.264C191.883 412.852 192.359 413.16 193.157 413.16ZM202.459 406.86C202.697 406.86 203.019 406.888 203.229 407L203.005 408.092C202.795 407.98 202.487 407.91 202.123 407.91C201.283 407.91 200.275 408.652 200.275 410.22V414H199.155V407H200.065L200.219 408.148C200.611 407.294 201.367 406.86 202.459 406.86ZM213.003 406.86C214.347 406.86 215.677 407.672 215.677 409.52V414H214.557V409.632C214.557 408.358 213.829 407.84 212.905 407.84C211.813 407.84 210.833 408.666 210.833 410.164V414H209.713V409.632C209.713 408.358 208.985 407.84 208.061 407.84C207.137 407.84 205.989 408.526 205.989 410.262V414H204.869V407H205.849L205.919 408.092C206.423 407.238 207.291 406.86 208.159 406.86C209.139 406.86 210.105 407.294 210.567 408.232C211.001 407.28 212.121 406.86 213.003 406.86Z" fill="#012137"/>
</g>
<path d="M54 40L54 0" stroke="#1FA4F1" stroke-width="4"/>
</g>
<path d="M50 310V310C38.9543 310 30 318.954 30 330L30 409.5V409.5C30 409.776 30.2238 410 30.5 410L138 410" stroke="#1FA4F1" stroke-width="4" stroke-linejoin="round"/>
<path d="M285 225L101 225L287 225L350 225C361.046 225 370 233.955 370 245L370 409.5V409.5C370 409.776 369.776 410 369.5 410L261 410" stroke="#1FA4F1" stroke-width="4" stroke-linejoin="round"/>
<path d="M299 260L299 89.8535C299 89.6271 299.09 89.41 299.25 89.25V89.25C299.41 89.0899 299.627 89 299.854 89L331.5 89C339.508 89 346 82.5081 346 74.5L346 60.5C346 60.2239 345.776 60 345.5 60V60L121 60C109.954 60 101 68.9543 101 80L101 123.5M101 225L101 203" stroke="#1FA4F1" stroke-width="4" stroke-linejoin="round"/>
<path d="M270.886 119.004L283.114 119.004C284.74 119.004 285.687 117.165 284.741 115.841L278.627 107.282C277.83 106.166 276.17 106.166 275.373 107.282L269.259 115.841C268.313 117.165 269.26 119.004 270.886 119.004Z" fill="#E682E8"/>
<path d="M283.114 103.004L270.886 103.004C269.26 103.004 268.313 104.843 269.259 106.166L275.373 114.725C276.17 115.842 277.83 115.842 278.627 114.725L284.741 106.166C285.687 104.843 284.74 103.004 283.114 103.004Z" fill="#E682E8"/>
<rect x="269" y="113.004" width="4" height="16" transform="rotate(-90 269 113.004)" fill="#F3F5F7"/>
<path d="M235.886 119L248.114 119C249.74 119 250.687 117.161 249.741 115.838L243.627 107.278C242.83 106.162 241.17 106.162 240.373 107.278L234.259 115.838C233.313 117.161 234.26 119 235.886 119Z" fill="#E682E8"/>
<path d="M248.114 103L235.886 103C234.26 103 233.313 104.839 234.259 106.162L240.373 114.722C241.17 115.838 242.83 115.838 243.627 114.722L249.741 106.162C250.687 104.839 249.74 103 248.114 103Z" fill="#E682E8"/>
<rect x="234" y="113" width="4" height="16" transform="rotate(-90 234 113)" fill="#F3F5F7"/>
<path d="M201.886 119L214.114 119C215.74 119 216.687 117.161 215.741 115.838L209.627 107.278C208.83 106.162 207.17 106.162 206.373 107.278L200.259 115.838C199.313 117.161 200.26 119 201.886 119Z" fill="#E682E8"/>
<path d="M214.114 103L201.886 103C200.26 103 199.313 104.839 200.259 106.162L206.373 114.722C207.17 115.838 208.83 115.838 209.627 114.722L215.741 106.162C216.687 104.839 215.74 103 214.114 103Z" fill="#E682E8"/>
<rect x="200" y="113" width="4" height="16" transform="rotate(-90 200 113)" fill="#F3F5F7"/>
<path d="M167.386 119L179.614 119C181.24 119 182.187 117.161 181.241 115.838L175.127 107.278C174.33 106.162 172.67 106.162 171.873 107.278L165.759 115.838C164.813 117.161 165.76 119 167.386 119Z" fill="#E682E8"/>
<path d="M179.614 103L167.386 103C165.76 103 164.813 104.839 165.759 106.162L171.873 114.722C172.67 115.838 174.33 115.838 175.127 114.722L181.241 106.162C182.187 104.839 181.24 103 179.614 103Z" fill="#E682E8"/>
<rect x="165.5" y="113" width="4" height="16" transform="rotate(-90 165.5 113)" fill="#F3F5F7"/>
<path d="M316 543.886V556.114C316 557.74 317.839 558.687 319.162 557.741L327.722 551.627C328.838 550.83 328.838 549.17 327.722 548.373L319.162 542.259C317.839 541.313 316 542.26 316 543.886Z" fill="#00D791"/>
<path d="M332 556.114L332 543.886C332 542.26 330.161 541.313 328.838 542.259L320.278 548.373C319.162 549.17 319.162 550.83 320.278 551.627L328.838 557.741C330.161 558.687 332 557.74 332 556.114Z" fill="#00D791"/>
<rect x="322" y="542" width="4" height="16" fill="#F3F5F7"/>
<path d="M316 473.886V486.114C316 487.74 317.839 488.687 319.162 487.741L327.722 481.627C328.838 480.83 328.838 479.17 327.722 478.373L319.162 472.259C317.839 471.313 316 472.26 316 473.886Z" fill="#00D791"/>
<path d="M332 486.114L332 473.886C332 472.26 330.161 471.313 328.838 472.259L320.278 478.373C319.162 479.17 319.162 480.83 320.278 481.627L328.838 487.741C330.161 488.687 332 487.74 332 486.114Z" fill="#00D791"/>
<rect x="322" y="472" width="4" height="16" fill="#F3F5F7"/>
<path d="M316 403.886V416.114C316 417.74 317.839 418.687 319.162 417.741L327.722 411.627C328.838 410.83 328.838 409.17 327.722 408.373L319.162 402.259C317.839 401.313 316 402.26 316 403.886Z" fill="#00D791"/>
<path d="M332 416.114L332 403.886C332 402.26 330.161 401.313 328.838 402.259L320.278 408.373C319.162 409.17 319.162 410.83 320.278 411.627L328.838 417.741C330.161 418.687 332 417.74 332 416.114Z" fill="#00D791"/>
<rect x="322" y="402" width="4" height="2" fill="#F3F5F7"/>
<path d="M192 218.886V231.114C192 232.74 193.839 233.687 195.162 232.741L203.722 226.627C204.838 225.83 204.838 224.17 203.722 223.373L195.162 217.259C193.839 216.313 192 217.26 192 218.886Z" fill="#1FA4F1"/>
<path d="M208 231.114L208 218.886C208 217.26 206.161 216.313 204.838 217.259L196.278 223.373C195.162 224.17 195.162 225.83 196.278 226.627L204.838 232.741C206.161 233.687 208 232.74 208 231.114Z" fill="#1FA4F1"/>
<rect x="198" y="217" width="4" height="2" fill="#F3F5F7"/>
<path d="M94.8864 250H107.114C108.74 250 109.687 248.161 108.741 246.838L102.627 238.278C101.83 237.162 100.17 237.162 99.3725 238.278L93.2589 246.838C92.3134 248.161 93.2596 250 94.8864 250Z" fill="#1FA4F1"/>
<path d="M107.114 234L94.8864 234C93.2596 234 92.3134 235.839 93.2589 237.162L99.3725 245.722C100.17 246.838 101.83 246.838 102.627 245.722L108.741 237.162C109.687 235.839 108.74 234 107.114 234Z" fill="#1FA4F1"/>
<rect x="93" y="244" width="4" height="16" transform="rotate(-90 93 244)" fill="#F3F5F7"/>
<path d="M292.886 250H305.114C306.74 250 307.687 248.161 306.741 246.838L300.627 238.278C299.83 237.162 298.17 237.162 297.373 238.278L291.259 246.838C290.313 248.161 291.26 250 292.886 250Z" fill="#1FA4F1"/>
<path d="M305.114 234L292.886 234C291.26 234 290.313 235.839 291.259 237.162L297.373 245.722C298.17 246.838 299.83 246.838 300.627 245.722L306.741 237.162C307.687 235.839 306.74 234 305.114 234Z" fill="#1FA4F1"/>
<rect x="291" y="244" width="4" height="2" transform="rotate(-90 291 244)" fill="#F3F5F7"/>
<path d="M339.886 51H352.114C353.74 51 354.687 49.1613 353.741 47.8375L347.627 39.2785C346.83 38.1618 345.17 38.1618 344.373 39.2785L338.259 47.8375C337.313 49.1613 338.26 51 339.886 51Z" fill="#1FA4F1"/>
<path d="M352.114 35L339.886 35C338.26 35 337.313 36.8387 338.259 38.1625L344.373 46.7215C345.17 47.8382 346.83 47.8382 347.627 46.7215L353.741 38.1625C354.687 36.8387 353.74 35 352.114 35Z" fill="#1FA4F1"/>
<rect x="338" y="45" width="4" height="16" transform="rotate(-90 338 45)" fill="#F3F5F7"/>
<path d="M47.8864 51H60.1136C61.7404 51 62.6866 49.1613 61.7411 47.8375L55.6275 39.2785C54.8298 38.1618 53.1702 38.1618 52.3725 39.2785L46.2589 47.8375C45.3134 49.1613 46.2596 51 47.8864 51Z" fill="#1FA4F1"/>
<path d="M60.1136 35L47.8864 35C46.2596 35 45.3134 36.8387 46.2589 38.1625L52.3725 46.7215C53.1702 47.8382 54.8298 47.8382 55.6275 46.7215L61.7411 38.1625C62.6866 36.8387 61.7404 35 60.1136 35Z" fill="#1FA4F1"/>
<rect x="46" y="45" width="4" height="16" transform="rotate(-90 46 45)" fill="#F3F5F7"/>
</g>
<defs>
<clipPath id="clip0_2031_68904">
<rect width="400" height="610" fill="white"/>
</clipPath>
<clipPath id="clip1_2031_68904">
<rect width="400" height="610" rx="20" fill="white"/>
</clipPath>
<clipPath id="clip2_2031_68904">
<rect x="50" y="260" width="300" height="100" rx="10" fill="white"/>
</clipPath>
<clipPath id="clip3_2031_68904">
<path d="M253.22 146.988C253.22 141.465 257.697 136.988 263.22 136.988L283.292 136.988L283.292 193C283.292 198.522 278.815 203 273.292 203L263.22 203C257.697 203 253.22 198.522 253.22 193L253.22 146.988Z" fill="white"/>
</clipPath>
<clipPath id="clip4_2031_68904">
<path d="M218.272 146.988C218.272 141.465 222.749 136.988 228.272 136.988L248.344 136.988L248.344 193C248.344 198.522 243.867 203 238.344 203L228.272 203C222.749 203 218.272 198.522 218.272 193L218.272 146.988Z" fill="white"/>
</clipPath>
<clipPath id="clip5_2031_68904">
<path d="M184.136 146.988C184.136 141.465 188.613 136.988 194.136 136.988L214.208 136.988L214.208 193C214.208 198.522 209.73 203 204.208 203L194.136 203C188.613 203 184.136 198.522 184.136 193L184.136 146.988Z" fill="white"/>
</clipPath>
<clipPath id="clip6_2031_68904">
<path d="M150 146.988C150 141.465 154.477 136.988 160 136.988L180.072 136.988L180.072 193C180.072 198.522 175.595 203 170.072 203L160 203C154.477 203 150 198.522 150 193L150 146.988Z" fill="white"/>
</clipPath>
<clipPath id="clip7_2031_68904">
<rect x="138" y="520" width="123" height="60" rx="10" fill="white"/>
</clipPath>
<clipPath id="clip8_2031_68904">
<rect x="138" y="450" width="123" height="60" rx="10" fill="white"/>
</clipPath>
<clipPath id="clip9_2031_68904">
<rect x="138" y="379" width="123" height="60" rx="10" fill="white"/>
</clipPath>
</defs>
</svg>
