<svg width="400" height="610" viewBox="0 0 400 610" fill="none" xmlns="http://www.w3.org/2000/svg">
<g clip-path="url(#clip0_2031_60282)">
<rect width="400" height="610" fill="#F3F5F7"/>
<path d="M50 310V310C38.9543 310 30 318.954 30 330L30 410M138 550L50 550C38.9543 550 30 541.046 30 530L30 480M30 480L138 480M30 480L30 410M30 410L138 410" stroke="white" stroke-width="4" stroke-linecap="round" stroke-linejoin="round"/>
<path d="M299 260L299 89.8536C299 89.6272 299.09 89.4101 299.25 89.25V89.25C299.41 89.0899 299.627 89 299.854 89L331.6 89C339.553 89 346 82.5529 346 74.6V74.6L346 60M346 40L346 60M346 60L121 60C109.954 60 101 68.9543 101 80L101 123.5M101 225L101 203" stroke="white" stroke-width="4" stroke-linecap="round" stroke-linejoin="round"/>
<path d="M101 225L101 260" stroke="white" stroke-width="4"/>
<path d="M75.466 14.76C76.922 14.76 78.0607 15.1567 78.882 15.95C79.7033 16.7433 80.114 17.882 80.114 19.366C80.114 20.8593 79.7033 22.0073 78.882 22.81C78.0607 23.6033 76.922 24 75.466 24H72.498V14.76H75.466ZM75.564 23.034C76.656 23.034 77.5053 22.712 78.112 22.068C78.7187 21.424 79.022 20.5233 79.022 19.366C79.022 18.218 78.7187 17.3267 78.112 16.692C77.5053 16.048 76.656 15.726 75.564 15.726H73.534V23.034H75.564ZM82.2548 24V17L83.1088 17L83.2488 18.204C83.4355 17.7653 83.7201 17.434 84.1028 17.21C84.4855 16.9767 84.9475 16.86 85.4888 16.86C85.6195 16.86 85.7595 16.874 85.9088 16.902C86.0581 16.9207 86.1841 16.958 86.2868 17.014L86.0908 17.966C85.9881 17.9193 85.8761 17.8867 85.7548 17.868C85.6335 17.84 85.4608 17.826 85.2368 17.826C84.9288 17.826 84.6255 17.9147 84.3268 18.092C84.0281 18.2693 83.7808 18.5353 83.5848 18.89C83.3888 19.2353 83.2908 19.6693 83.2908 20.192V24H82.2548ZM91.8262 19.464C91.8262 18.9227 91.6815 18.5073 91.3922 18.218C91.1029 17.9193 90.6922 17.77 90.1602 17.77C89.6655 17.77 89.2455 17.8773 88.9002 18.092C88.5549 18.3067 88.2982 18.652 88.1302 19.128L87.2902 18.61C87.4862 18.078 87.8315 17.6533 88.3262 17.336C88.8302 17.0187 89.4509 16.86 90.1882 16.86C90.6922 16.86 91.1449 16.9487 91.5462 17.126C91.9569 17.294 92.2789 17.5553 92.5122 17.91C92.7455 18.2647 92.8622 18.7127 92.8622 19.254V22.67C92.8622 23.034 93.0489 23.216 93.4222 23.216C93.5995 23.216 93.7722 23.1927 93.9402 23.146L93.8842 23.958C93.7069 24.0513 93.4735 24.098 93.1842 24.098C92.9229 24.098 92.6849 24.0513 92.4702 23.958C92.2649 23.8553 92.1015 23.7013 91.9802 23.496C91.8589 23.2813 91.7982 23.0153 91.7982 22.698V22.516L92.0642 22.544C91.9615 22.9173 91.7702 23.2207 91.4902 23.454C91.2195 23.6873 90.9115 23.86 90.5662 23.972C90.2209 24.084 89.8802 24.14 89.5442 24.14C89.1335 24.14 88.7509 24.07 88.3962 23.93C88.0415 23.79 87.7615 23.58 87.5562 23.3C87.3509 23.02 87.2482 22.67 87.2482 22.25C87.2482 21.7273 87.4209 21.298 87.7662 20.962C88.1209 20.626 88.6109 20.3973 89.2362 20.276L92.0362 19.73V20.584L89.7262 21.06C89.2502 21.1533 88.8955 21.2887 88.6622 21.466C88.4289 21.6433 88.3122 21.886 88.3122 22.194C88.3122 22.5113 88.4289 22.7633 88.6622 22.95C88.9049 23.1367 89.2502 23.23 89.6982 23.23C89.9689 23.23 90.2302 23.1973 90.4822 23.132C90.7342 23.0573 90.9629 22.9453 91.1682 22.796C91.3735 22.6467 91.5322 22.46 91.6442 22.236C91.7655 22.012 91.8262 21.746 91.8262 21.438V19.464ZM96.0619 15.656C95.8285 15.656 95.6372 15.586 95.4879 15.446C95.3479 15.2967 95.2779 15.1007 95.2779 14.858C95.2779 14.6247 95.3479 14.438 95.4879 14.298C95.6372 14.1487 95.8285 14.074 96.0619 14.074C96.3045 14.074 96.4959 14.1487 96.6359 14.298C96.7852 14.438 96.8599 14.6247 96.8599 14.858C96.8599 15.1007 96.7852 15.2967 96.6359 15.446C96.4959 15.586 96.3045 15.656 96.0619 15.656ZM96.5799 17V24H95.5439V17H96.5799ZM99.1669 24V17H100.077L100.175 18.61L100.007 18.456C100.147 18.0827 100.343 17.7793 100.595 17.546C100.856 17.3033 101.155 17.1307 101.491 17.028C101.827 16.916 102.177 16.86 102.541 16.86C103.054 16.86 103.512 16.958 103.913 17.154C104.324 17.3407 104.65 17.63 104.893 18.022C105.145 18.414 105.271 18.9087 105.271 19.506V24H104.235V19.87C104.235 19.0953 104.062 18.554 103.717 18.246C103.381 17.9287 102.956 17.77 102.443 17.77C102.088 17.77 101.738 17.854 101.393 18.022C101.048 18.19 100.763 18.456 100.539 18.82C100.315 19.1747 100.203 19.646 100.203 20.234V24H99.1669ZM111.91 19.464C111.91 18.9227 111.766 18.5073 111.476 18.218C111.187 17.9193 110.776 17.77 110.244 17.77C109.75 17.77 109.33 17.8773 108.984 18.092C108.639 18.3067 108.382 18.652 108.214 19.128L107.374 18.61C107.57 18.078 107.916 17.6533 108.41 17.336C108.914 17.0187 109.535 16.86 110.272 16.86C110.776 16.86 111.229 16.9487 111.63 17.126C112.041 17.294 112.363 17.5553 112.596 17.91C112.83 18.2647 112.946 18.7127 112.946 19.254V22.67C112.946 23.034 113.133 23.216 113.506 23.216C113.684 23.216 113.856 23.1927 114.024 23.146L113.968 23.958C113.791 24.0513 113.558 24.098 113.268 24.098C113.007 24.098 112.769 24.0513 112.554 23.958C112.349 23.8553 112.186 23.7013 112.064 23.496C111.943 23.2813 111.882 23.0153 111.882 22.698V22.516L112.148 22.544C112.046 22.9173 111.854 23.2207 111.574 23.454C111.304 23.6873 110.996 23.86 110.65 23.972C110.305 24.084 109.964 24.14 109.628 24.14C109.218 24.14 108.835 24.07 108.48 23.93C108.126 23.79 107.846 23.58 107.64 23.3C107.435 23.02 107.332 22.67 107.332 22.25C107.332 21.7273 107.505 21.298 107.85 20.962C108.205 20.626 108.695 20.3973 109.32 20.276L112.12 19.73V20.584L109.81 21.06C109.334 21.1533 108.98 21.2887 108.746 21.466C108.513 21.6433 108.396 21.886 108.396 22.194C108.396 22.5113 108.513 22.7633 108.746 22.95C108.989 23.1367 109.334 23.23 109.782 23.23C110.053 23.23 110.314 23.1973 110.566 23.132C110.818 23.0573 111.047 22.9453 111.252 22.796C111.458 22.6467 111.616 22.46 111.728 22.236C111.85 22.012 111.91 21.746 111.91 21.438V19.464ZM118.386 27.01C117.873 27.01 117.387 26.9307 116.93 26.772C116.482 26.6227 116.104 26.3893 115.796 26.072C115.488 25.7547 115.287 25.3533 115.194 24.868L116.216 24.56C116.309 25.0547 116.547 25.4327 116.93 25.694C117.322 25.9647 117.854 26.1 118.526 26.1C119.254 26.1 119.809 25.8807 120.192 25.442C120.575 25.0033 120.766 24.4293 120.766 23.72V22.6C120.561 23.0013 120.253 23.3327 119.842 23.594C119.441 23.8553 118.965 23.986 118.414 23.986C117.789 23.986 117.233 23.846 116.748 23.566C116.272 23.2767 115.894 22.866 115.614 22.334C115.334 21.802 115.194 21.1673 115.194 20.43C115.194 19.6833 115.348 19.044 115.656 18.512C115.964 17.98 116.361 17.574 116.846 17.294C117.341 17.0047 117.854 16.86 118.386 16.86C118.983 16.86 119.487 16.9813 119.898 17.224C120.309 17.4573 120.617 17.7793 120.822 18.19L120.906 16.986H121.816V23.482C121.816 24.2753 121.685 24.9333 121.424 25.456C121.163 25.9787 120.775 26.366 120.262 26.618C119.758 26.8793 119.133 27.01 118.386 27.01ZM118.498 23.076C119.179 23.076 119.725 22.8473 120.136 22.39C120.556 21.9327 120.766 21.2793 120.766 20.43C120.766 19.5713 120.556 18.9133 120.136 18.456C119.725 17.9987 119.179 17.77 118.498 17.77C118.022 17.77 117.616 17.8867 117.28 18.12C116.944 18.344 116.683 18.6567 116.496 19.058C116.319 19.4593 116.23 19.9167 116.23 20.43C116.23 21.242 116.431 21.886 116.832 22.362C117.243 22.838 117.798 23.076 118.498 23.076ZM127.304 24.14C126.65 24.14 126.062 23.9953 125.54 23.706C125.026 23.4167 124.625 23.0013 124.336 22.46C124.046 21.9093 123.902 21.256 123.902 20.5C123.902 19.744 124.046 19.0953 124.336 18.554C124.625 18.0033 125.022 17.5833 125.526 17.294C126.03 17.0047 126.599 16.86 127.234 16.86C127.887 16.86 128.442 17 128.9 17.28C129.357 17.56 129.707 17.9427 129.95 18.428C130.192 18.9133 130.314 19.4593 130.314 20.066C130.314 20.206 130.309 20.3367 130.3 20.458C130.29 20.5793 130.276 20.6867 130.258 20.78L124.574 20.78V19.87L129.81 19.87L129.278 19.968C129.278 19.2773 129.086 18.7407 128.704 18.358C128.33 17.966 127.831 17.77 127.206 17.77C126.739 17.77 126.333 17.8773 125.988 18.092C125.652 18.3067 125.39 18.6193 125.204 19.03C125.017 19.4313 124.924 19.9213 124.924 20.5C124.924 21.0693 125.017 21.5593 125.204 21.97C125.4 22.3807 125.67 22.6933 126.016 22.908C126.37 23.1227 126.79 23.23 127.276 23.23C127.798 23.23 128.228 23.132 128.564 22.936C128.9 22.7307 129.166 22.4507 129.362 22.096L130.188 22.572C130.01 22.8987 129.782 23.1787 129.502 23.412C129.231 23.6453 128.909 23.8273 128.536 23.958C128.172 24.0793 127.761 24.14 127.304 24.14Z" fill="#012137"/>
<path d="M257.631 15.726L252.227 15.726V18.834H256.455V19.8H252.227V24H251.191V14.76L257.631 14.76V15.726ZM258.884 24V17H259.738L259.878 18.204C260.064 17.7653 260.349 17.434 260.732 17.21C261.114 16.9767 261.576 16.86 262.118 16.86C262.248 16.86 262.388 16.874 262.538 16.902C262.687 16.9207 262.813 16.958 262.916 17.014L262.72 17.966C262.617 17.9193 262.505 17.8867 262.384 17.868C262.262 17.84 262.09 17.826 261.866 17.826C261.558 17.826 261.254 17.9147 260.956 18.092C260.657 18.2693 260.41 18.5353 260.214 18.89C260.018 19.2353 259.92 19.6693 259.92 20.192V24H258.884ZM267.182 24.14C266.529 24.14 265.941 23.9953 265.418 23.706C264.905 23.4167 264.504 23.0013 264.214 22.46C263.925 21.9093 263.78 21.256 263.78 20.5C263.78 19.744 263.925 19.0953 264.214 18.554C264.504 18.0033 264.9 17.5833 265.404 17.294C265.908 17.0047 266.478 16.86 267.112 16.86C267.766 16.86 268.321 17 268.778 17.28C269.236 17.56 269.586 17.9427 269.828 18.428C270.071 18.9133 270.192 19.4593 270.192 20.066C270.192 20.206 270.188 20.3367 270.178 20.458C270.169 20.5793 270.155 20.6867 270.136 20.78H264.452V19.87H269.688L269.156 19.968C269.156 19.2773 268.965 18.7407 268.582 18.358C268.209 17.966 267.71 17.77 267.084 17.77C266.618 17.77 266.212 17.8773 265.866 18.092C265.53 18.3067 265.269 18.6193 265.082 19.03C264.896 19.4313 264.802 19.9213 264.802 20.5C264.802 21.0693 264.896 21.5593 265.082 21.97C265.278 22.3807 265.549 22.6933 265.894 22.908C266.249 23.1227 266.669 23.23 267.154 23.23C267.677 23.23 268.106 23.132 268.442 22.936C268.778 22.7307 269.044 22.4507 269.24 22.096L270.066 22.572C269.889 22.8987 269.66 23.1787 269.38 23.412C269.11 23.6453 268.788 23.8273 268.414 23.958C268.05 24.0793 267.64 24.14 267.182 24.14ZM274.788 24.14C274.097 24.14 273.467 23.9953 272.898 23.706C272.338 23.4167 271.908 23.006 271.61 22.474L272.492 21.844C272.697 22.2827 273 22.6233 273.402 22.866C273.803 23.1087 274.293 23.23 274.872 23.23C275.385 23.23 275.786 23.132 276.076 22.936C276.374 22.7307 276.524 22.4647 276.524 22.138C276.524 21.9233 276.454 21.732 276.314 21.564C276.183 21.396 275.931 21.27 275.558 21.186L273.878 20.836C273.206 20.696 272.72 20.4673 272.422 20.15C272.132 19.8233 271.988 19.422 271.988 18.946C271.988 18.5633 272.095 18.218 272.31 17.91C272.534 17.5927 272.846 17.3407 273.248 17.154C273.658 16.958 274.134 16.86 274.676 16.86C275.366 16.86 275.95 16.9953 276.426 17.266C276.902 17.5367 277.252 17.924 277.476 18.428L276.608 19.002C276.449 18.5727 276.188 18.26 275.824 18.064C275.469 17.868 275.086 17.77 274.676 17.77C274.33 17.77 274.032 17.8213 273.78 17.924C273.537 18.0173 273.346 18.148 273.206 18.316C273.075 18.484 273.01 18.68 273.01 18.904C273.01 19.1187 273.084 19.3193 273.234 19.506C273.383 19.6833 273.658 19.814 274.06 19.898L275.796 20.262C276.449 20.3927 276.906 20.6073 277.168 20.906C277.429 21.1953 277.56 21.5547 277.56 21.984C277.56 22.4133 277.443 22.796 277.21 23.132C276.986 23.4587 276.664 23.7107 276.244 23.888C275.824 24.056 275.338 24.14 274.788 24.14ZM279.624 24V13.78H280.66V18.12C280.893 17.6907 281.215 17.3733 281.626 17.168C282.046 16.9627 282.503 16.86 282.998 16.86C283.511 16.86 283.969 16.958 284.37 17.154C284.781 17.3407 285.107 17.63 285.35 18.022C285.602 18.414 285.728 18.9087 285.728 19.506V24H284.692V19.87C284.692 19.0953 284.519 18.554 284.174 18.246C283.838 17.9287 283.413 17.77 282.9 17.77C282.545 17.77 282.195 17.854 281.85 18.022C281.505 18.19 281.22 18.456 280.996 18.82C280.772 19.184 280.66 19.66 280.66 20.248V24H279.624ZM294.422 24L291.664 14.76H292.742L295.08 23.048L297.306 14.76H298.482L300.708 23.076L303.046 14.76H304.068L301.324 24H300.036L298.356 17.91L297.88 15.838H297.866L297.376 17.91L295.71 24H294.422ZM309.416 19.464C309.416 18.9227 309.271 18.5073 308.982 18.218C308.693 17.9193 308.282 17.77 307.75 17.77C307.255 17.77 306.835 17.8773 306.49 18.092C306.145 18.3067 305.888 18.652 305.72 19.128L304.88 18.61C305.076 18.078 305.421 17.6533 305.916 17.336C306.42 17.0187 307.041 16.86 307.778 16.86C308.282 16.86 308.735 16.9487 309.136 17.126C309.547 17.294 309.869 17.5553 310.102 17.91C310.335 18.2647 310.452 18.7127 310.452 19.254V22.67C310.452 23.034 310.639 23.216 311.012 23.216C311.189 23.216 311.362 23.1927 311.53 23.146L311.474 23.958C311.297 24.0513 311.063 24.098 310.774 24.098C310.513 24.098 310.275 24.0513 310.06 23.958C309.855 23.8553 309.691 23.7013 309.57 23.496C309.449 23.2813 309.388 23.0153 309.388 22.698V22.516L309.654 22.544C309.551 22.9173 309.36 23.2207 309.08 23.454C308.809 23.6873 308.501 23.86 308.156 23.972C307.811 24.084 307.47 24.14 307.134 24.14C306.723 24.14 306.341 24.07 305.986 23.93C305.631 23.79 305.351 23.58 305.146 23.3C304.941 23.02 304.838 22.67 304.838 22.25C304.838 21.7273 305.011 21.298 305.356 20.962C305.711 20.626 306.201 20.3973 306.826 20.276L309.626 19.73V20.584L307.316 21.06C306.84 21.1533 306.485 21.2887 306.252 21.466C306.019 21.6433 305.902 21.886 305.902 22.194C305.902 22.5113 306.019 22.7633 306.252 22.95C306.495 23.1367 306.84 23.23 307.288 23.23C307.559 23.23 307.82 23.1973 308.072 23.132C308.324 23.0573 308.553 22.9453 308.758 22.796C308.963 22.6467 309.122 22.46 309.234 22.236C309.355 22.012 309.416 21.746 309.416 21.438V19.464ZM314.428 15.026V22.082C314.428 22.446 314.526 22.7213 314.722 22.908C314.927 23.0853 315.193 23.174 315.52 23.174C315.791 23.174 316.024 23.1273 316.22 23.034C316.416 22.9407 316.593 22.8147 316.752 22.656L317.116 23.524C316.911 23.7107 316.663 23.86 316.374 23.972C316.085 24.084 315.753 24.14 315.38 24.14C315.025 24.14 314.694 24.0793 314.386 23.958C314.087 23.8273 313.849 23.622 313.672 23.342C313.495 23.062 313.401 22.7027 313.392 22.264V15.306L314.428 15.026ZM316.99 17V17.896H311.992V17H316.99ZM321.542 24.14C320.888 24.14 320.3 23.9953 319.778 23.706C319.264 23.4167 318.863 23.0013 318.574 22.46C318.284 21.9093 318.14 21.256 318.14 20.5C318.14 19.744 318.284 19.0953 318.574 18.554C318.863 18.0033 319.26 17.5833 319.764 17.294C320.268 17.0047 320.837 16.86 321.472 16.86C322.125 16.86 322.68 17 323.138 17.28C323.595 17.56 323.945 17.9427 324.188 18.428C324.43 18.9133 324.552 19.4593 324.552 20.066C324.552 20.206 324.547 20.3367 324.538 20.458C324.528 20.5793 324.514 20.6867 324.496 20.78L318.812 20.78V19.87L324.048 19.87L323.516 19.968C323.516 19.2773 323.324 18.7407 322.942 18.358C322.568 17.966 322.069 17.77 321.444 17.77C320.977 17.77 320.571 17.8773 320.226 18.092C319.89 18.3067 319.628 18.6193 319.442 19.03C319.255 19.4313 319.162 19.9213 319.162 20.5C319.162 21.0693 319.255 21.5593 319.442 21.97C319.638 22.3807 319.908 22.6933 320.254 22.908C320.608 23.1227 321.028 23.23 321.514 23.23C322.036 23.23 322.466 23.132 322.802 22.936C323.138 22.7307 323.404 22.4507 323.6 22.096L324.426 22.572C324.248 22.8987 324.02 23.1787 323.74 23.412C323.469 23.6453 323.147 23.8273 322.774 23.958C322.41 24.0793 321.999 24.14 321.542 24.14ZM326.655 24V17H327.509L327.649 18.204C327.836 17.7653 328.121 17.434 328.503 17.21C328.886 16.9767 329.348 16.86 329.889 16.86C330.02 16.86 330.16 16.874 330.309 16.902C330.459 16.9207 330.585 16.958 330.687 17.014L330.491 17.966C330.389 17.9193 330.277 17.8867 330.155 17.868C330.034 17.84 329.861 17.826 329.637 17.826C329.329 17.826 329.026 17.9147 328.727 18.092C328.429 18.2693 328.181 18.5353 327.985 18.89C327.789 19.2353 327.691 19.6693 327.691 20.192V24H326.655Z" fill="#012137"/>
<rect x="127" y="80" width="123" height="54" rx="10" transform="rotate(90 127 80)" fill="#1FA4F1"/>
<rect x="132" y="181" width="12" height="62" rx="6" transform="rotate(90 132 181)" fill="#1FA4F1"/>
<g clip-path="url(#clip1_2031_60282)">
<rect x="50" y="260" width="300" height="100" rx="10" fill="#1FA4F1"/>
<path d="M338.546 268.667C343.697 274.444 348.849 274.444 354 268.667L354 234L44.925 234L44.925 268.667C50.0762 274.444 55.2275 274.444 60.3787 268.667C65.53 274.444 70.6812 274.444 75.8325 268.667C80.9837 274.444 86.135 274.444 91.2863 268.667C96.4375 274.444 101.589 274.444 106.74 268.667C111.891 274.444 117.042 274.444 122.194 268.667C127.345 274.444 132.496 274.444 137.647 268.667C142.799 274.444 147.95 274.444 153.101 268.667C158.252 274.444 163.404 274.444 168.555 268.667C173.706 274.444 178.857 274.444 184.009 268.667C189.16 274.444 194.311 274.444 199.462 268.667C204.614 274.444 209.765 274.444 214.916 268.667C220.067 274.444 225.219 274.444 230.37 268.667C235.521 274.444 240.672 274.444 245.824 268.667C250.975 274.444 256.126 274.444 261.277 268.667C266.429 274.444 271.58 274.444 276.731 268.667C281.882 274.444 287.034 274.444 292.185 268.667C297.336 274.444 302.487 274.444 307.639 268.667C312.79 274.444 317.941 274.444 323.092 268.667C328.244 274.444 333.395 274.444 338.546 268.667Z" fill="white"/>
<path d="M134.34 305.76V315H133.052L128.992 308.602L128.068 306.978H128.054L128.11 308.322V315H127.116V305.76H128.404L132.464 312.13L133.402 313.796L133.36 312.438V305.76H134.34ZM139.557 315.14C139.1 315.14 138.675 315.056 138.283 314.888C137.891 314.72 137.574 314.449 137.331 314.076C137.088 313.693 136.967 313.199 136.967 312.592V308H138.003V312.326C138.003 313.045 138.162 313.544 138.479 313.824C138.796 314.095 139.244 314.23 139.823 314.23C140.103 314.23 140.374 314.183 140.635 314.09C140.896 313.987 141.13 313.838 141.335 313.642C141.54 313.446 141.699 313.199 141.811 312.9C141.932 312.592 141.993 312.242 141.993 311.85V308H143.029V315H142.119L142.049 313.866C141.816 314.295 141.484 314.617 141.055 314.832C140.635 315.037 140.136 315.14 139.557 315.14ZM147.163 306.026V313.082C147.163 313.446 147.261 313.721 147.457 313.908C147.663 314.085 147.929 314.174 148.255 314.174C148.526 314.174 148.759 314.127 148.955 314.034C149.151 313.941 149.329 313.815 149.487 313.656L149.851 314.524C149.646 314.711 149.399 314.86 149.109 314.972C148.82 315.084 148.489 315.14 148.115 315.14C147.761 315.14 147.429 315.079 147.121 314.958C146.823 314.827 146.585 314.622 146.407 314.342C146.23 314.062 146.137 313.703 146.127 313.264V306.306L147.163 306.026ZM149.725 308V308.896H144.727V308H149.725ZM151.365 315L151.365 308H152.219L152.359 309.204C152.546 308.765 152.83 308.434 153.213 308.21C153.596 307.977 154.058 307.86 154.599 307.86C154.73 307.86 154.87 307.874 155.019 307.902C155.168 307.921 155.294 307.958 155.397 308.014L155.201 308.966C155.098 308.919 154.986 308.887 154.865 308.868C154.744 308.84 154.571 308.826 154.347 308.826C154.039 308.826 153.736 308.915 153.437 309.092C153.138 309.269 152.891 309.535 152.695 309.89C152.499 310.235 152.401 310.669 152.401 311.192L152.401 315H151.365ZM157.516 306.656C157.283 306.656 157.091 306.586 156.942 306.446C156.802 306.297 156.732 306.101 156.732 305.858C156.732 305.625 156.802 305.438 156.942 305.298C157.091 305.149 157.283 305.074 157.516 305.074C157.759 305.074 157.95 305.149 158.09 305.298C158.239 305.438 158.314 305.625 158.314 305.858C158.314 306.101 158.239 306.297 158.09 306.446C157.95 306.586 157.759 306.656 157.516 306.656ZM158.034 308L158.034 315H156.998L156.998 308H158.034ZM163.533 315.14C162.88 315.14 162.292 314.995 161.769 314.706C161.256 314.417 160.854 314.001 160.565 313.46C160.276 312.909 160.131 312.256 160.131 311.5C160.131 310.744 160.276 310.095 160.565 309.554C160.854 309.003 161.251 308.583 161.755 308.294C162.259 308.005 162.828 307.86 163.463 307.86C164.116 307.86 164.672 308 165.129 308.28C165.586 308.56 165.936 308.943 166.179 309.428C166.422 309.913 166.543 310.459 166.543 311.066C166.543 311.206 166.538 311.337 166.529 311.458C166.52 311.579 166.506 311.687 166.487 311.78H160.803V310.87H166.039L165.507 310.968C165.507 310.277 165.316 309.741 164.933 309.358C164.56 308.966 164.06 308.77 163.435 308.77C162.968 308.77 162.562 308.877 162.217 309.092C161.881 309.307 161.62 309.619 161.433 310.03C161.246 310.431 161.153 310.921 161.153 311.5C161.153 312.069 161.246 312.559 161.433 312.97C161.629 313.381 161.9 313.693 162.245 313.908C162.6 314.123 163.02 314.23 163.505 314.23C164.028 314.23 164.457 314.132 164.793 313.936C165.129 313.731 165.395 313.451 165.591 313.096L166.417 313.572C166.24 313.899 166.011 314.179 165.731 314.412C165.46 314.645 165.138 314.827 164.765 314.958C164.401 315.079 163.99 315.14 163.533 315.14ZM168.646 315L168.646 308H169.556L169.654 309.61L169.486 309.456C169.626 309.083 169.822 308.779 170.074 308.546C170.336 308.303 170.634 308.131 170.97 308.028C171.306 307.916 171.656 307.86 172.02 307.86C172.534 307.86 172.991 307.958 173.392 308.154C173.803 308.341 174.13 308.63 174.372 309.022C174.624 309.414 174.75 309.909 174.75 310.506L174.75 315H173.714L173.714 310.87C173.714 310.095 173.542 309.554 173.196 309.246C172.86 308.929 172.436 308.77 171.922 308.77C171.568 308.77 171.218 308.854 170.872 309.022C170.527 309.19 170.242 309.456 170.018 309.82C169.794 310.175 169.682 310.646 169.682 311.234L169.682 315H168.646ZM178.704 306.026V313.082C178.704 313.446 178.802 313.721 178.998 313.908C179.204 314.085 179.47 314.174 179.796 314.174C180.067 314.174 180.3 314.127 180.496 314.034C180.692 313.941 180.87 313.815 181.028 313.656L181.392 314.524C181.187 314.711 180.94 314.86 180.65 314.972C180.361 315.084 180.03 315.14 179.656 315.14C179.302 315.14 178.97 315.079 178.662 314.958C178.364 314.827 178.126 314.622 177.948 314.342C177.771 314.062 177.678 313.703 177.668 313.264V306.306L178.704 306.026ZM181.266 308V308.896H176.268V308H181.266ZM189.623 315.14C188.932 315.14 188.302 314.995 187.733 314.706C187.173 314.417 186.743 314.006 186.445 313.474L187.327 312.844C187.532 313.283 187.835 313.623 188.237 313.866C188.638 314.109 189.128 314.23 189.707 314.23C190.22 314.23 190.621 314.132 190.911 313.936C191.209 313.731 191.359 313.465 191.359 313.138C191.359 312.923 191.289 312.732 191.149 312.564C191.018 312.396 190.766 312.27 190.393 312.186L188.713 311.836C188.041 311.696 187.555 311.467 187.257 311.15C186.967 310.823 186.823 310.422 186.823 309.946C186.823 309.563 186.93 309.218 187.145 308.91C187.369 308.593 187.681 308.341 188.083 308.154C188.493 307.958 188.969 307.86 189.511 307.86C190.201 307.86 190.785 307.995 191.261 308.266C191.737 308.537 192.087 308.924 192.311 309.428L191.443 310.002C191.284 309.573 191.023 309.26 190.659 309.064C190.304 308.868 189.921 308.77 189.511 308.77C189.165 308.77 188.867 308.821 188.615 308.924C188.372 309.017 188.181 309.148 188.041 309.316C187.91 309.484 187.845 309.68 187.845 309.904C187.845 310.119 187.919 310.319 188.069 310.506C188.218 310.683 188.493 310.814 188.895 310.898L190.631 311.262C191.284 311.393 191.741 311.607 192.003 311.906C192.264 312.195 192.395 312.555 192.395 312.984C192.395 313.413 192.278 313.796 192.045 314.132C191.821 314.459 191.499 314.711 191.079 314.888C190.659 315.056 190.173 315.14 189.623 315.14ZM197.357 307.86C198.01 307.86 198.589 308.005 199.093 308.294C199.606 308.583 200.008 309.003 200.297 309.554C200.586 310.095 200.731 310.744 200.731 311.5C200.731 312.256 200.586 312.909 200.297 313.46C200.008 314.001 199.606 314.417 199.093 314.706C198.589 314.995 198.01 315.14 197.357 315.14C196.704 315.14 196.12 314.995 195.607 314.706C195.094 314.417 194.692 314.001 194.403 313.46C194.114 312.909 193.969 312.256 193.969 311.5C193.969 310.744 194.114 310.095 194.403 309.554C194.692 309.003 195.094 308.583 195.607 308.294C196.12 308.005 196.704 307.86 197.357 307.86ZM197.357 308.756C196.862 308.756 196.442 308.868 196.097 309.092C195.752 309.307 195.481 309.619 195.285 310.03C195.098 310.431 195.005 310.921 195.005 311.5C195.005 312.069 195.098 312.559 195.285 312.97C195.481 313.381 195.752 313.698 196.097 313.922C196.442 314.137 196.862 314.244 197.357 314.244C197.842 314.244 198.258 314.137 198.603 313.922C198.948 313.698 199.214 313.381 199.401 312.97C199.597 312.559 199.695 312.069 199.695 311.5C199.695 310.921 199.597 310.431 199.401 310.03C199.214 309.619 198.948 309.307 198.603 309.092C198.258 308.868 197.842 308.756 197.357 308.756ZM203.876 304.78L203.876 315H202.84L202.84 304.78H203.876ZM209.01 315.14C208.553 315.14 208.128 315.056 207.736 314.888C207.344 314.72 207.027 314.449 206.784 314.076C206.541 313.693 206.42 313.199 206.42 312.592V308H207.456V312.326C207.456 313.045 207.615 313.544 207.932 313.824C208.249 314.095 208.697 314.23 209.276 314.23C209.556 314.23 209.827 314.183 210.088 314.09C210.349 313.987 210.583 313.838 210.788 313.642C210.993 313.446 211.152 313.199 211.264 312.9C211.385 312.592 211.446 312.242 211.446 311.85V308H212.482V315H211.572L211.502 313.866C211.269 314.295 210.937 314.617 210.508 314.832C210.088 315.037 209.589 315.14 209.01 315.14ZM216.616 306.026V313.082C216.616 313.446 216.714 313.721 216.91 313.908C217.116 314.085 217.382 314.174 217.708 314.174C217.979 314.174 218.212 314.127 218.408 314.034C218.604 313.941 218.782 313.815 218.94 313.656L219.304 314.524C219.099 314.711 218.852 314.86 218.562 314.972C218.273 315.084 217.942 315.14 217.568 315.14C217.214 315.14 216.882 315.079 216.574 314.958C216.276 314.827 216.038 314.622 215.86 314.342C215.683 314.062 215.59 313.703 215.58 313.264V306.306L216.616 306.026ZM219.178 308V308.896H214.18V308H219.178ZM221.336 306.656C221.103 306.656 220.912 306.586 220.762 306.446C220.622 306.297 220.552 306.101 220.552 305.858C220.552 305.625 220.622 305.438 220.762 305.298C220.912 305.149 221.103 305.074 221.336 305.074C221.579 305.074 221.77 305.149 221.91 305.298C222.06 305.438 222.134 305.625 222.134 305.858C222.134 306.101 222.06 306.297 221.91 306.446C221.77 306.586 221.579 306.656 221.336 306.656ZM221.854 308V315H220.818V308H221.854ZM227.339 307.86C227.993 307.86 228.571 308.005 229.075 308.294C229.589 308.583 229.99 309.003 230.279 309.554C230.569 310.095 230.713 310.744 230.713 311.5C230.713 312.256 230.569 312.909 230.279 313.46C229.99 314.001 229.589 314.417 229.075 314.706C228.571 314.995 227.993 315.14 227.339 315.14C226.686 315.14 226.103 314.995 225.589 314.706C225.076 314.417 224.675 314.001 224.385 313.46C224.096 312.909 223.951 312.256 223.951 311.5C223.951 310.744 224.096 310.095 224.385 309.554C224.675 309.003 225.076 308.583 225.589 308.294C226.103 308.005 226.686 307.86 227.339 307.86ZM227.339 308.756C226.845 308.756 226.425 308.868 226.079 309.092C225.734 309.307 225.463 309.619 225.267 310.03C225.081 310.431 224.987 310.921 224.987 311.5C224.987 312.069 225.081 312.559 225.267 312.97C225.463 313.381 225.734 313.698 226.079 313.922C226.425 314.137 226.845 314.244 227.339 314.244C227.825 314.244 228.24 314.137 228.585 313.922C228.931 313.698 229.197 313.381 229.383 312.97C229.579 312.559 229.677 312.069 229.677 311.5C229.677 310.921 229.579 310.431 229.383 310.03C229.197 309.619 228.931 309.307 228.585 309.092C228.24 308.868 227.825 308.756 227.339 308.756ZM232.795 315V308H233.705L233.803 309.61L233.635 309.456C233.775 309.083 233.971 308.779 234.223 308.546C234.484 308.303 234.783 308.131 235.119 308.028C235.455 307.916 235.805 307.86 236.169 307.86C236.682 307.86 237.14 307.958 237.541 308.154C237.952 308.341 238.278 308.63 238.521 309.022C238.773 309.414 238.899 309.909 238.899 310.506V315H237.863V310.87C237.863 310.095 237.69 309.554 237.345 309.246C237.009 308.929 236.584 308.77 236.071 308.77C235.716 308.77 235.366 308.854 235.021 309.022C234.676 309.19 234.391 309.456 234.167 309.82C233.943 310.175 233.831 310.646 233.831 311.234V315H232.795ZM247.187 306.026V313.082C247.187 313.446 247.285 313.721 247.481 313.908C247.686 314.085 247.952 314.174 248.279 314.174C248.549 314.174 248.783 314.127 248.979 314.034C249.175 313.941 249.352 313.815 249.511 313.656L249.875 314.524C249.669 314.711 249.422 314.86 249.133 314.972C248.843 315.084 248.512 315.14 248.139 315.14C247.784 315.14 247.453 315.079 247.145 314.958C246.846 314.827 246.608 314.622 246.431 314.342C246.253 314.062 246.16 313.703 246.151 313.264V306.306L247.187 306.026ZM249.749 308V308.896H244.751V308H249.749ZM255.519 310.464C255.519 309.923 255.374 309.507 255.085 309.218C254.795 308.919 254.385 308.77 253.853 308.77C253.358 308.77 252.938 308.877 252.593 309.092C252.247 309.307 251.991 309.652 251.823 310.128L250.983 309.61C251.179 309.078 251.524 308.653 252.019 308.336C252.523 308.019 253.143 307.86 253.881 307.86C254.385 307.86 254.837 307.949 255.239 308.126C255.649 308.294 255.971 308.555 256.205 308.91C256.438 309.265 256.555 309.713 256.555 310.254V313.67C256.555 314.034 256.741 314.216 257.115 314.216C257.292 314.216 257.465 314.193 257.633 314.146L257.577 314.958C257.399 315.051 257.166 315.098 256.877 315.098C256.615 315.098 256.377 315.051 256.163 314.958C255.957 314.855 255.794 314.701 255.673 314.496C255.551 314.281 255.491 314.015 255.491 313.698V313.516L255.757 313.544C255.654 313.917 255.463 314.221 255.183 314.454C254.912 314.687 254.604 314.86 254.259 314.972C253.913 315.084 253.573 315.14 253.237 315.14C252.826 315.14 252.443 315.07 252.089 314.93C251.734 314.79 251.454 314.58 251.249 314.3C251.043 314.02 250.941 313.67 250.941 313.25C250.941 312.727 251.113 312.298 251.459 311.962C251.813 311.626 252.303 311.397 252.929 311.276L255.729 310.73V311.584L253.419 312.06C252.943 312.153 252.588 312.289 252.355 312.466C252.121 312.643 252.005 312.886 252.005 313.194C252.005 313.511 252.121 313.763 252.355 313.95C252.597 314.137 252.943 314.23 253.391 314.23C253.661 314.23 253.923 314.197 254.175 314.132C254.427 314.057 254.655 313.945 254.861 313.796C255.066 313.647 255.225 313.46 255.337 313.236C255.458 313.012 255.519 312.746 255.519 312.438V310.464ZM259.236 315V308H260.146L260.244 309.61L260.076 309.456C260.216 309.083 260.412 308.779 260.664 308.546C260.926 308.303 261.224 308.131 261.56 308.028C261.896 307.916 262.246 307.86 262.61 307.86C263.124 307.86 263.581 307.958 263.982 308.154C264.393 308.341 264.72 308.63 264.962 309.022C265.214 309.414 265.34 309.909 265.34 310.506V315H264.304V310.87C264.304 310.095 264.132 309.554 263.786 309.246C263.45 308.929 263.026 308.77 262.512 308.77C262.158 308.77 261.808 308.854 261.462 309.022C261.117 309.19 260.832 309.456 260.608 309.82C260.384 310.175 260.272 310.646 260.272 311.234V315H259.236ZM273.926 308L270.888 311.01L270.636 311.262L268.368 313.516V312.214L272.61 308H273.926ZM268.886 304.78V315H267.85V304.78H268.886ZM270.972 310.478L274.08 315H272.82L270.104 311.066L270.972 310.478Z" fill="#012137"/>
<path d="M312.957 344V343.021H315.069V337.994C314.893 338.163 314.691 338.317 314.464 338.456C314.237 338.588 314.002 338.705 313.76 338.808C313.525 338.903 313.291 338.977 313.056 339.028L312.847 338.027C312.994 338.005 313.177 337.954 313.397 337.873C313.624 337.792 313.859 337.69 314.101 337.565C314.35 337.44 314.574 337.308 314.772 337.169C314.97 337.022 315.12 336.879 315.223 336.74H316.213V343.021H318.105V344H312.957ZM322.005 344.11C321.147 344.11 320.468 343.795 319.97 343.164C319.478 342.526 319.233 341.595 319.233 340.37C319.233 339.145 319.478 338.218 319.97 337.587C320.468 336.949 321.147 336.63 322.005 336.63C322.87 336.63 323.548 336.949 324.04 337.587C324.531 338.218 324.777 339.145 324.777 340.37C324.777 341.595 324.531 342.526 324.04 343.164C323.548 343.795 322.87 344.11 322.005 344.11ZM322.005 343.109C322.349 343.109 322.639 343.01 322.874 342.812C323.108 342.614 323.284 342.31 323.402 341.899C323.519 341.488 323.578 340.979 323.578 340.37C323.578 339.761 323.519 339.252 323.402 338.841C323.284 338.43 323.108 338.126 322.874 337.928C322.639 337.73 322.349 337.631 322.005 337.631C321.66 337.631 321.37 337.73 321.136 337.928C320.901 338.126 320.725 338.43 320.608 338.841C320.49 339.252 320.432 339.761 320.432 340.37C320.432 340.979 320.49 341.488 320.608 341.899C320.725 342.31 320.901 342.614 321.136 342.812C321.37 343.01 321.66 343.109 322.005 343.109ZM327.279 344L332.031 336.74H333.043L328.302 344H327.279ZM327.565 336.63C327.939 336.63 328.262 336.714 328.533 336.883C328.812 337.052 329.025 337.286 329.171 337.587C329.325 337.888 329.402 338.243 329.402 338.654C329.402 339.057 329.325 339.413 329.171 339.721C329.025 340.022 328.812 340.256 328.533 340.425C328.262 340.594 327.939 340.678 327.565 340.678C327.199 340.678 326.876 340.594 326.597 340.425C326.319 340.256 326.102 340.022 325.948 339.721C325.802 339.413 325.728 339.057 325.728 338.654C325.728 338.243 325.802 337.888 325.948 337.587C326.102 337.286 326.319 337.052 326.597 336.883C326.876 336.714 327.199 336.63 327.565 336.63ZM327.565 337.488C327.382 337.488 327.224 337.536 327.092 337.631C326.96 337.719 326.861 337.851 326.795 338.027C326.729 338.196 326.696 338.405 326.696 338.654C326.696 338.896 326.729 339.105 326.795 339.281C326.861 339.457 326.96 339.589 327.092 339.677C327.224 339.765 327.382 339.809 327.565 339.809C327.756 339.809 327.917 339.765 328.049 339.677C328.181 339.589 328.28 339.457 328.346 339.281C328.412 339.105 328.445 338.896 328.445 338.654C328.445 338.405 328.412 338.196 328.346 338.027C328.28 337.851 328.181 337.719 328.049 337.631C327.917 337.536 327.756 337.488 327.565 337.488ZM332.757 340.062C333.131 340.062 333.454 340.146 333.725 340.315C334.004 340.484 334.217 340.722 334.363 341.03C334.517 341.331 334.594 341.683 334.594 342.086C334.594 342.497 334.517 342.852 334.363 343.153C334.217 343.454 334.004 343.688 333.725 343.857C333.454 344.026 333.131 344.11 332.757 344.11C332.391 344.11 332.068 344.026 331.789 343.857C331.511 343.688 331.294 343.454 331.14 343.153C330.994 342.852 330.92 342.497 330.92 342.086C330.92 341.683 330.994 341.331 331.14 341.03C331.294 340.722 331.511 340.484 331.789 340.315C332.068 340.146 332.391 340.062 332.757 340.062ZM332.757 340.931C332.574 340.931 332.416 340.975 332.284 341.063C332.152 341.151 332.053 341.283 331.987 341.459C331.921 341.628 331.888 341.837 331.888 342.086C331.888 342.328 331.921 342.537 331.987 342.713C332.053 342.889 332.152 343.025 332.284 343.12C332.416 343.208 332.574 343.252 332.757 343.252C332.948 343.252 333.109 343.208 333.241 343.12C333.373 343.025 333.472 342.889 333.538 342.713C333.604 342.537 333.637 342.328 333.637 342.086C333.637 341.844 333.604 341.635 333.538 341.459C333.472 341.283 333.373 341.151 333.241 341.063C333.109 340.975 332.948 340.931 332.757 340.931Z" fill="#012137"/>
<path d="M340 339C339.448 339 339 339.448 339 340C339 340.552 339.448 341 340 341V339ZM350 339H340V341H350V339Z" fill="#012137"/>
<path d="M315.333 314.11C314.688 314.11 314.156 313.971 313.738 313.692C313.327 313.413 313.001 313.01 312.759 312.482L313.859 311.91C313.969 312.262 314.134 312.552 314.354 312.779C314.581 312.999 314.915 313.109 315.355 313.109C315.663 313.109 315.923 313.054 316.136 312.944C316.356 312.827 316.525 312.665 316.642 312.46C316.759 312.247 316.818 311.994 316.818 311.701C316.818 311.393 316.763 311.136 316.653 310.931C316.543 310.726 316.385 310.572 316.18 310.469C315.975 310.359 315.718 310.304 315.41 310.304C315.197 310.304 314.999 310.326 314.816 310.37C314.633 310.414 314.468 310.484 314.321 310.579C314.174 310.667 314.046 310.784 313.936 310.931L312.968 310.744L313.408 306.74H317.632V307.752H314.343L314.079 309.798L314.057 309.919H314.079C314.248 309.736 314.464 309.593 314.728 309.49C314.999 309.387 315.318 309.336 315.685 309.336C316.154 309.336 316.558 309.435 316.895 309.633C317.232 309.824 317.496 310.091 317.687 310.436C317.878 310.781 317.973 311.18 317.973 311.635C317.973 312.031 317.907 312.383 317.775 312.691C317.643 312.999 317.456 313.259 317.214 313.472C316.972 313.685 316.69 313.846 316.367 313.956C316.052 314.059 315.707 314.11 315.333 314.11ZM322.005 314.11C321.147 314.11 320.468 313.795 319.97 313.164C319.478 312.526 319.233 311.595 319.233 310.37C319.233 309.145 319.478 308.218 319.97 307.587C320.468 306.949 321.147 306.63 322.005 306.63C322.87 306.63 323.548 306.949 324.04 307.587C324.531 308.218 324.777 309.145 324.777 310.37C324.777 311.595 324.531 312.526 324.04 313.164C323.548 313.795 322.87 314.11 322.005 314.11ZM322.005 313.109C322.349 313.109 322.639 313.01 322.874 312.812C323.108 312.614 323.284 312.31 323.402 311.899C323.519 311.488 323.578 310.979 323.578 310.37C323.578 309.761 323.519 309.252 323.402 308.841C323.284 308.43 323.108 308.126 322.874 307.928C322.639 307.73 322.349 307.631 322.005 307.631C321.66 307.631 321.37 307.73 321.136 307.928C320.901 308.126 320.725 308.43 320.608 308.841C320.49 309.252 320.432 309.761 320.432 310.37C320.432 310.979 320.49 311.488 320.608 311.899C320.725 312.31 320.901 312.614 321.136 312.812C321.37 313.01 321.66 313.109 322.005 313.109ZM327.279 314L332.031 306.74H333.043L328.302 314H327.279ZM327.565 306.63C327.939 306.63 328.262 306.714 328.533 306.883C328.812 307.052 329.025 307.286 329.171 307.587C329.325 307.888 329.402 308.243 329.402 308.654C329.402 309.057 329.325 309.413 329.171 309.721C329.025 310.022 328.812 310.256 328.533 310.425C328.262 310.594 327.939 310.678 327.565 310.678C327.199 310.678 326.876 310.594 326.597 310.425C326.319 310.256 326.102 310.022 325.948 309.721C325.802 309.413 325.728 309.057 325.728 308.654C325.728 308.243 325.802 307.888 325.948 307.587C326.102 307.286 326.319 307.052 326.597 306.883C326.876 306.714 327.199 306.63 327.565 306.63ZM327.565 307.488C327.382 307.488 327.224 307.536 327.092 307.631C326.96 307.719 326.861 307.851 326.795 308.027C326.729 308.196 326.696 308.405 326.696 308.654C326.696 308.896 326.729 309.105 326.795 309.281C326.861 309.457 326.96 309.589 327.092 309.677C327.224 309.765 327.382 309.809 327.565 309.809C327.756 309.809 327.917 309.765 328.049 309.677C328.181 309.589 328.28 309.457 328.346 309.281C328.412 309.105 328.445 308.896 328.445 308.654C328.445 308.405 328.412 308.196 328.346 308.027C328.28 307.851 328.181 307.719 328.049 307.631C327.917 307.536 327.756 307.488 327.565 307.488ZM332.757 310.062C333.131 310.062 333.454 310.146 333.725 310.315C334.004 310.484 334.217 310.722 334.363 311.03C334.517 311.331 334.594 311.683 334.594 312.086C334.594 312.497 334.517 312.852 334.363 313.153C334.217 313.454 334.004 313.688 333.725 313.857C333.454 314.026 333.131 314.11 332.757 314.11C332.391 314.11 332.068 314.026 331.789 313.857C331.511 313.688 331.294 313.454 331.14 313.153C330.994 312.852 330.92 312.497 330.92 312.086C330.92 311.683 330.994 311.331 331.14 311.03C331.294 310.722 331.511 310.484 331.789 310.315C332.068 310.146 332.391 310.062 332.757 310.062ZM332.757 310.931C332.574 310.931 332.416 310.975 332.284 311.063C332.152 311.151 332.053 311.283 331.987 311.459C331.921 311.628 331.888 311.837 331.888 312.086C331.888 312.328 331.921 312.537 331.987 312.713C332.053 312.889 332.152 313.025 332.284 313.12C332.416 313.208 332.574 313.252 332.757 313.252C332.948 313.252 333.109 313.208 333.241 313.12C333.373 313.025 333.472 312.889 333.538 312.713C333.604 312.537 333.637 312.328 333.637 312.086C333.637 311.844 333.604 311.635 333.538 311.459C333.472 311.283 333.373 311.151 333.241 311.063C333.109 310.975 332.948 310.931 332.757 310.931Z" fill="#012137"/>
<path d="M340 309C339.448 309 339 309.448 339 310C339 310.552 339.448 311 340 311V309ZM350 309H340V311H350V309Z" fill="#012137"/>
<path d="M306.318 284V283.021H308.43V277.994C308.254 278.163 308.053 278.317 307.825 278.456C307.598 278.588 307.363 278.705 307.121 278.808C306.887 278.903 306.652 278.977 306.417 279.028L306.208 278.027C306.355 278.005 306.538 277.954 306.758 277.873C306.986 277.792 307.22 277.69 307.462 277.565C307.712 277.44 307.935 277.308 308.133 277.169C308.331 277.022 308.482 276.879 308.584 276.74H309.574V283.021H311.466V284H306.318ZM315.366 284.11C314.508 284.11 313.83 283.795 313.331 283.164C312.84 282.526 312.594 281.595 312.594 280.37C312.594 279.145 312.84 278.218 313.331 277.587C313.83 276.949 314.508 276.63 315.366 276.63C316.231 276.63 316.91 276.949 317.401 277.587C317.892 278.218 318.138 279.145 318.138 280.37C318.138 281.595 317.892 282.526 317.401 283.164C316.91 283.795 316.231 284.11 315.366 284.11ZM315.366 283.109C315.711 283.109 316 283.01 316.235 282.812C316.47 282.614 316.646 282.31 316.763 281.899C316.88 281.488 316.939 280.979 316.939 280.37C316.939 279.761 316.88 279.252 316.763 278.841C316.646 278.43 316.47 278.126 316.235 277.928C316 277.73 315.711 277.631 315.366 277.631C315.021 277.631 314.732 277.73 314.497 277.928C314.262 278.126 314.086 278.43 313.969 278.841C313.852 279.252 313.793 279.761 313.793 280.37C313.793 280.979 313.852 281.488 313.969 281.899C314.086 282.31 314.262 282.614 314.497 282.812C314.732 283.01 315.021 283.109 315.366 283.109ZM322.005 284.11C321.147 284.11 320.468 283.795 319.97 283.164C319.478 282.526 319.233 281.595 319.233 280.37C319.233 279.145 319.478 278.218 319.97 277.587C320.468 276.949 321.147 276.63 322.005 276.63C322.87 276.63 323.548 276.949 324.04 277.587C324.531 278.218 324.777 279.145 324.777 280.37C324.777 281.595 324.531 282.526 324.04 283.164C323.548 283.795 322.87 284.11 322.005 284.11ZM322.005 283.109C322.349 283.109 322.639 283.01 322.874 282.812C323.108 282.614 323.284 282.31 323.402 281.899C323.519 281.488 323.578 280.979 323.578 280.37C323.578 279.761 323.519 279.252 323.402 278.841C323.284 278.43 323.108 278.126 322.874 277.928C322.639 277.73 322.349 277.631 322.005 277.631C321.66 277.631 321.37 277.73 321.136 277.928C320.901 278.126 320.725 278.43 320.608 278.841C320.49 279.252 320.432 279.761 320.432 280.37C320.432 280.979 320.49 281.488 320.608 281.899C320.725 282.31 320.901 282.614 321.136 282.812C321.37 283.01 321.66 283.109 322.005 283.109ZM327.279 284L332.031 276.74H333.043L328.302 284H327.279ZM327.565 276.63C327.939 276.63 328.262 276.714 328.533 276.883C328.812 277.052 329.025 277.286 329.171 277.587C329.325 277.888 329.402 278.243 329.402 278.654C329.402 279.057 329.325 279.413 329.171 279.721C329.025 280.022 328.812 280.256 328.533 280.425C328.262 280.594 327.939 280.678 327.565 280.678C327.199 280.678 326.876 280.594 326.597 280.425C326.319 280.256 326.102 280.022 325.948 279.721C325.802 279.413 325.728 279.057 325.728 278.654C325.728 278.243 325.802 277.888 325.948 277.587C326.102 277.286 326.319 277.052 326.597 276.883C326.876 276.714 327.199 276.63 327.565 276.63ZM327.565 277.488C327.382 277.488 327.224 277.536 327.092 277.631C326.96 277.719 326.861 277.851 326.795 278.027C326.729 278.196 326.696 278.405 326.696 278.654C326.696 278.896 326.729 279.105 326.795 279.281C326.861 279.457 326.96 279.589 327.092 279.677C327.224 279.765 327.382 279.809 327.565 279.809C327.756 279.809 327.917 279.765 328.049 279.677C328.181 279.589 328.28 279.457 328.346 279.281C328.412 279.105 328.445 278.896 328.445 278.654C328.445 278.405 328.412 278.196 328.346 278.027C328.28 277.851 328.181 277.719 328.049 277.631C327.917 277.536 327.756 277.488 327.565 277.488ZM332.757 280.062C333.131 280.062 333.454 280.146 333.725 280.315C334.004 280.484 334.217 280.722 334.363 281.03C334.517 281.331 334.594 281.683 334.594 282.086C334.594 282.497 334.517 282.852 334.363 283.153C334.217 283.454 334.004 283.688 333.725 283.857C333.454 284.026 333.131 284.11 332.757 284.11C332.391 284.11 332.068 284.026 331.789 283.857C331.511 283.688 331.294 283.454 331.14 283.153C330.994 282.852 330.92 282.497 330.92 282.086C330.92 281.683 330.994 281.331 331.14 281.03C331.294 280.722 331.511 280.484 331.789 280.315C332.068 280.146 332.391 280.062 332.757 280.062ZM332.757 280.931C332.574 280.931 332.416 280.975 332.284 281.063C332.152 281.151 332.053 281.283 331.987 281.459C331.921 281.628 331.888 281.837 331.888 282.086C331.888 282.328 331.921 282.537 331.987 282.713C332.053 282.889 332.152 283.025 332.284 283.12C332.416 283.208 332.574 283.252 332.757 283.252C332.948 283.252 333.109 283.208 333.241 283.12C333.373 283.025 333.472 282.889 333.538 282.713C333.604 282.537 333.637 282.328 333.637 282.086C333.637 281.844 333.604 281.635 333.538 281.459C333.472 281.283 333.373 281.151 333.241 281.063C333.109 280.975 332.948 280.931 332.757 280.931Z" fill="#012137"/>
<path d="M340 279C339.448 279 339 279.448 339 280C339 280.552 339.448 281 340 281V279ZM350 279H340V281H350V279Z" fill="#012137"/>
</g>
<path d="M346 40L346 0" stroke="#1FA4F1" stroke-width="4"/>
<path d="M173.57 99.502L173.57 135.263" stroke="white" stroke-width="4" stroke-linecap="round" stroke-linejoin="round"/>
<path d="M277 130.387L277 114.944" stroke="#1FA4F1" stroke-width="4" stroke-linecap="round" stroke-linejoin="round"/>
<path d="M242 130.387L242 114.944" stroke="#1FA4F1" stroke-width="4" stroke-linecap="round" stroke-linejoin="round"/>
<path d="M208 130.387L208 114.944" stroke="#1FA4F1" stroke-width="4" stroke-linecap="round" stroke-linejoin="round"/>
<path d="M173.57 130.387L173.57 114.944" stroke="#1FA4F1" stroke-width="4" stroke-linecap="round" stroke-linejoin="round"/>
<path d="M173.57 114.442L173.57 99C173.57 93.4772 178.047 89 183.57 89L208 89M322 89L277 89M208 89L208 114.442M208 89L242 89M242 89L242 114.442M242 89L277 89M277 89L277 114.442" stroke="white" stroke-width="4" stroke-linecap="round" stroke-linejoin="round"/>
<path d="M173.57 114.442L173.57 99C173.57 93.4772 178.047 89 183.57 89L208 89M322 89L277 89M208 89L208 114.442M208 89L242 89M242 89L242 114.442M242 89L277 89M277 89L277 114.442" stroke="#1FA4F1" stroke-width="4" stroke-linecap="round" stroke-linejoin="round"/>
<rect x="270.288" y="130.387" width="13.0042" height="11.3786" rx="5" fill="white"/>
<g clip-path="url(#clip2_2031_60282)">
<path d="M253.22 146.988C253.22 141.465 257.697 136.988 263.22 136.988L283.292 136.988L283.292 193C283.292 198.522 278.815 203 273.292 203L263.22 203C257.697 203 253.22 198.522 253.22 193L253.22 146.988Z" fill="#1FA4F1"/>
<path d="M513.766 141.532C518.918 147.31 524.069 147.31 529.22 141.532L529.22 106.865L220.145 106.865L220.145 141.532C225.296 147.31 230.448 147.31 235.599 141.532C240.75 147.31 245.901 147.31 251.053 141.532C256.204 147.31 261.355 147.31 266.506 141.532C271.658 147.31 276.809 147.31 281.96 141.532C287.111 147.31 292.263 147.31 297.414 141.532C302.565 147.31 307.716 147.31 312.868 141.532C318.019 147.31 323.17 147.31 328.321 141.532C333.473 147.31 338.624 147.31 343.775 141.532C348.926 147.31 354.078 147.31 359.229 141.532C364.38 147.31 369.531 147.31 374.683 141.532C379.834 147.31 384.985 147.31 390.136 141.532C395.288 147.31 400.439 147.31 405.59 141.532C410.741 147.31 415.893 147.31 421.044 141.532C426.195 147.31 431.346 147.31 436.498 141.532C441.649 147.31 446.8 147.31 451.951 141.532C457.103 147.31 462.254 147.31 467.405 141.532C472.556 147.31 477.708 147.31 482.859 141.532C488.01 147.31 493.161 147.31 498.313 141.532C503.464 147.31 508.615 147.31 513.766 141.532Z" fill="white"/>
<path d="M279.625 172.078C279.073 172.078 278.625 172.526 278.625 173.078C278.625 173.63 279.073 174.078 279.625 174.078L279.625 172.078ZM279.625 174.078L283.292 174.078L283.292 172.078L279.625 172.078L279.625 174.078Z" fill="#012137"/>
<path d="M279.625 148.08C279.073 148.08 278.625 148.528 278.625 149.08C278.625 149.632 279.073 150.08 279.625 150.08L279.625 148.08ZM279.625 150.08L283.292 150.08L283.292 148.08L279.625 148.08L279.625 150.08Z" fill="#012137"/>
<path d="M279.625 194.664C279.073 194.664 278.625 195.112 278.625 195.664C278.625 196.216 279.073 196.664 279.625 196.664L279.625 194.664ZM279.625 196.664L283.292 196.664L283.292 194.664L279.625 194.664L279.625 196.664Z" fill="#012137"/>
</g>
<rect x="235.34" y="130.387" width="13.0042" height="11.3786" rx="5" fill="white"/>
<g clip-path="url(#clip3_2031_60282)">
<path d="M218.272 146.988C218.272 141.465 222.749 136.988 228.272 136.988L248.344 136.988L248.344 193C248.344 198.522 243.867 203 238.344 203L228.272 203C222.749 203 218.272 198.522 218.272 193L218.272 146.988Z" fill="#1FA4F1"/>
<path d="M478.818 141.532C483.969 147.31 489.121 147.31 494.272 141.532L494.272 106.865L185.197 106.865L185.197 141.532C190.348 147.31 195.499 147.31 200.651 141.532C205.802 147.31 210.953 147.31 216.104 141.532C221.256 147.31 226.407 147.31 231.558 141.532C236.709 147.31 241.861 147.31 247.012 141.532C252.163 147.31 257.314 147.31 262.466 141.532C267.617 147.31 272.768 147.31 277.919 141.532C283.071 147.31 288.222 147.31 293.373 141.532C298.524 147.31 303.676 147.31 308.827 141.532C313.978 147.31 319.129 147.31 324.281 141.532C329.432 147.31 334.583 147.31 339.734 141.532C344.886 147.31 350.037 147.31 355.188 141.532C360.339 147.31 365.491 147.31 370.642 141.532C375.793 147.31 380.944 147.31 386.096 141.532C391.247 147.31 396.398 147.31 401.549 141.532C406.701 147.31 411.852 147.31 417.003 141.532C422.154 147.31 427.306 147.31 432.457 141.532C437.608 147.31 442.759 147.31 447.911 141.532C453.062 147.31 458.213 147.31 463.364 141.532C468.516 147.31 473.667 147.31 478.818 141.532Z" fill="white"/>
<path d="M244.677 172.078C244.125 172.078 243.677 172.526 243.677 173.078C243.677 173.63 244.125 174.078 244.677 174.078L244.677 172.078ZM244.677 174.078L248.344 174.078L248.344 172.078L244.677 172.078L244.677 174.078Z" fill="#012137"/>
<path d="M244.677 148.08C244.125 148.08 243.677 148.528 243.677 149.08C243.677 149.632 244.125 150.08 244.677 150.08L244.677 148.08ZM244.677 150.08L248.344 150.08L248.344 148.08L244.677 148.08L244.677 150.08Z" fill="#012137"/>
<path d="M244.677 194.664C244.125 194.664 243.677 195.112 243.677 195.664C243.677 196.216 244.125 196.664 244.677 196.664L244.677 194.664ZM244.677 196.664L248.344 196.664L248.344 194.664L244.677 194.664L244.677 196.664Z" fill="#012137"/>
</g>
<rect x="201.204" y="130.387" width="13.0042" height="11.3786" rx="5" fill="white"/>
<g clip-path="url(#clip4_2031_60282)">
<path d="M184.136 146.988C184.136 141.465 188.613 136.988 194.136 136.988L214.208 136.988L214.208 193C214.208 198.522 209.73 203 204.208 203L194.136 203C188.613 203 184.136 198.522 184.136 193L184.136 146.988Z" fill="#1FA4F1"/>
<path d="M444.682 141.532C449.833 147.31 454.984 147.31 460.136 141.532L460.136 106.865L151.061 106.865L151.061 141.532C156.212 147.31 161.363 147.31 166.514 141.532C171.666 147.31 176.817 147.31 181.968 141.532C187.119 147.31 192.271 147.31 197.422 141.532C202.573 147.31 207.724 147.31 212.876 141.532C218.027 147.31 223.178 147.31 228.329 141.532C233.481 147.31 238.632 147.31 243.783 141.532C248.934 147.31 254.086 147.31 259.237 141.532C264.388 147.31 269.539 147.31 274.691 141.532C279.842 147.31 284.993 147.31 290.144 141.532C295.296 147.31 300.447 147.31 305.598 141.532C310.749 147.31 315.901 147.31 321.052 141.532C326.203 147.31 331.354 147.31 336.506 141.532C341.657 147.31 346.808 147.31 351.959 141.532C357.111 147.31 362.262 147.31 367.413 141.532C372.564 147.31 377.716 147.31 382.867 141.532C388.018 147.31 393.169 147.31 398.321 141.532C403.472 147.31 408.623 147.31 413.774 141.532C418.926 147.31 424.077 147.31 429.228 141.532C434.379 147.31 439.531 147.31 444.682 141.532Z" fill="white"/>
<path d="M210.541 172.078C209.988 172.078 209.541 172.526 209.541 173.078C209.541 173.63 209.988 174.078 210.541 174.078L210.541 172.078ZM210.541 174.078L214.208 174.078L214.208 172.078L210.541 172.078L210.541 174.078Z" fill="#012137"/>
<path d="M210.541 148.08C209.988 148.08 209.541 148.528 209.541 149.08C209.541 149.632 209.988 150.08 210.541 150.08L210.541 148.08ZM210.541 150.08L214.208 150.08L214.208 148.08L210.541 148.08L210.541 150.08Z" fill="#012137"/>
<path d="M210.541 194.664C209.988 194.664 209.541 195.112 209.541 195.664C209.541 196.216 209.988 196.664 210.541 196.664L210.541 194.664ZM210.541 196.664L214.208 196.664L214.208 194.664L210.541 194.664L210.541 196.664Z" fill="#012137"/>
</g>
<rect x="167.068" y="130.387" width="13.0042" height="11.3786" rx="5" fill="white"/>
<g clip-path="url(#clip5_2031_60282)">
<path d="M150 146.988C150 141.465 154.477 136.988 160 136.988L180.072 136.988L180.072 193C180.072 198.522 175.595 203 170.072 203L160 203C154.477 203 150 198.522 150 193L150 146.988Z" fill="#1FA4F1"/>
<path d="M410.546 141.532C415.697 147.31 420.849 147.31 426 141.532L426 106.865L116.925 106.865L116.925 141.532C122.076 147.31 127.227 147.31 132.379 141.532C137.53 147.31 142.681 147.31 147.832 141.532C152.984 147.31 158.135 147.31 163.286 141.532C168.437 147.31 173.589 147.31 178.74 141.532C183.891 147.31 189.042 147.31 194.194 141.532C199.345 147.31 204.496 147.31 209.647 141.532C214.799 147.31 219.95 147.31 225.101 141.532C230.252 147.31 235.404 147.31 240.555 141.532C245.706 147.31 250.857 147.31 256.009 141.532C261.16 147.31 266.311 147.31 271.462 141.532C276.614 147.31 281.765 147.31 286.916 141.532C292.067 147.31 297.219 147.31 302.37 141.532C307.521 147.31 312.672 147.31 317.824 141.532C322.975 147.31 328.126 147.31 333.277 141.532C338.429 147.31 343.58 147.31 348.731 141.532C353.882 147.31 359.034 147.31 364.185 141.532C369.336 147.31 374.487 147.31 379.639 141.532C384.79 147.31 389.941 147.31 395.092 141.532C400.244 147.31 405.395 147.31 410.546 141.532Z" fill="white"/>
<path d="M176.405 172.078C175.853 172.078 175.405 172.526 175.405 173.078C175.405 173.63 175.853 174.078 176.405 174.078L176.405 172.078ZM176.405 174.078L180.072 174.078L180.072 172.078L176.405 172.078L176.405 174.078Z" fill="#012137"/>
<path d="M176.405 148.08C175.853 148.08 175.405 148.528 175.405 149.08C175.405 149.632 175.853 150.08 176.405 150.08L176.405 148.08ZM176.405 150.08L180.072 150.08L180.072 148.08L176.405 148.08L176.405 150.08Z" fill="#012137"/>
<path d="M176.405 194.664C175.853 194.664 175.405 195.112 175.405 195.664C175.405 196.216 175.853 196.664 176.405 196.664L176.405 194.664ZM176.405 196.664L180.072 196.664L180.072 194.664L176.405 194.664L176.405 196.664Z" fill="#012137"/>
</g>
<path d="M169.255 175.961H168.163L167.141 173.329H162.913L161.891 175.961H160.813L164.425 166.721H165.657L169.255 175.961ZM163.291 172.363H166.763L165.027 167.715L163.291 172.363Z" fill="#012137"/>
<path d="M196.124 175.961L196.124 166.721H199.414C200.487 166.721 201.276 166.95 201.78 167.407C202.284 167.855 202.536 168.471 202.536 169.255C202.536 169.731 202.396 170.16 202.116 170.543C201.845 170.916 201.458 171.154 200.954 171.257V171.271C201.514 171.374 201.957 171.626 202.284 172.027C202.611 172.419 202.774 172.872 202.774 173.385C202.774 174.169 202.48 174.794 201.892 175.261C201.313 175.728 200.483 175.961 199.4 175.961H196.124ZM197.16 174.995H199.638C200.329 174.995 200.842 174.855 201.178 174.575C201.514 174.295 201.682 173.898 201.682 173.385C201.682 172.872 201.514 172.48 201.178 172.209C200.842 171.929 200.329 171.789 199.638 171.789H197.16V174.995ZM197.16 170.823H199.428C200.772 170.823 201.444 170.3 201.444 169.255C201.444 168.21 200.772 167.687 199.428 167.687H197.16V170.823Z" fill="#012137"/>
<path d="M237.448 173.595C237.261 174.118 236.986 174.57 236.622 174.953C236.258 175.326 235.828 175.611 235.334 175.807C234.848 176.003 234.316 176.101 233.738 176.101C232.86 176.101 232.104 175.91 231.47 175.527C230.835 175.135 230.34 174.584 229.986 173.875C229.64 173.166 229.468 172.321 229.468 171.341C229.468 170.361 229.64 169.516 229.986 168.807C230.34 168.098 230.835 167.552 231.47 167.169C232.104 166.777 232.851 166.581 233.71 166.581C234.307 166.581 234.839 166.665 235.306 166.833C235.782 166.992 236.183 167.234 236.51 167.561C236.836 167.888 237.098 168.289 237.294 168.765L236.272 169.241C236.066 168.69 235.758 168.27 235.348 167.981C234.946 167.692 234.424 167.547 233.78 167.547C233.145 167.547 232.585 167.701 232.1 168.009C231.614 168.308 231.236 168.737 230.966 169.297C230.695 169.857 230.56 170.538 230.56 171.341C230.56 172.134 230.686 172.816 230.938 173.385C231.199 173.945 231.568 174.379 232.044 174.687C232.52 174.986 233.084 175.135 233.738 175.135C234.372 175.135 234.923 174.976 235.39 174.659C235.866 174.332 236.206 173.852 236.412 173.217L237.448 173.595Z" fill="#012137"/>
<path d="M260.131 178.901V168.961H261.041L261.139 170.711L260.985 170.543C261.107 170.198 261.289 169.899 261.531 169.647C261.783 169.386 262.082 169.185 262.427 169.045C262.782 168.896 263.165 168.821 263.575 168.821C264.154 168.821 264.681 168.966 265.157 169.255C265.633 169.544 266.016 169.96 266.305 170.501C266.595 171.042 266.739 171.696 266.739 172.461C266.739 173.217 266.595 173.87 266.305 174.421C266.016 174.962 265.629 175.378 265.143 175.667C264.658 175.956 264.121 176.101 263.533 176.101C262.945 176.101 262.427 175.956 261.979 175.667C261.541 175.368 261.228 174.986 261.041 174.519L261.167 174.323V178.901H260.131ZM263.435 175.191C264.145 175.191 264.7 174.944 265.101 174.449C265.503 173.954 265.703 173.292 265.703 172.461C265.703 171.63 265.507 170.968 265.115 170.473C264.723 169.978 264.173 169.731 263.463 169.731C263.006 169.731 262.605 169.843 262.259 170.067C261.923 170.291 261.657 170.608 261.461 171.019C261.265 171.42 261.167 171.901 261.167 172.461C261.167 173.012 261.261 173.492 261.447 173.903C261.643 174.314 261.909 174.631 262.245 174.855C262.591 175.079 262.987 175.191 263.435 175.191ZM276.165 166.721V175.961H275.129V166.721H276.165ZM269.977 166.721V175.961H268.941V166.721H269.977ZM275.619 170.795V171.761H269.487V170.795H275.619Z" fill="#012137"/>
<path d="M94.9254 124.26V133.5H93.9454V127.48L94.0574 125.184H94.0434L90.9494 133.5H90.0534L86.9454 125.184H86.9314L87.0574 127.48V133.5H86.0634V124.26H87.6594L89.8294 130.154L90.4874 132.282H90.5154L91.1734 130.168L93.3434 124.26H94.9254ZM101.769 128.964C101.769 128.423 101.624 128.007 101.335 127.718C101.045 127.419 100.635 127.27 100.103 127.27C99.6079 127.27 99.1879 127.377 98.8426 127.592C98.4973 127.807 98.2406 128.152 98.0726 128.628L97.2326 128.11C97.4286 127.578 97.7739 127.153 98.2686 126.836C98.7726 126.519 99.3933 126.36 100.131 126.36C100.635 126.36 101.087 126.449 101.489 126.626C101.899 126.794 102.221 127.055 102.455 127.41C102.688 127.765 102.805 128.213 102.805 128.754V132.17C102.805 132.534 102.991 132.716 103.365 132.716C103.542 132.716 103.715 132.693 103.883 132.646L103.827 133.458C103.649 133.551 103.416 133.598 103.127 133.598C102.865 133.598 102.627 133.551 102.413 133.458C102.207 133.355 102.044 133.201 101.923 132.996C101.801 132.781 101.741 132.515 101.741 132.198V132.016L102.007 132.044C101.904 132.417 101.713 132.721 101.433 132.954C101.162 133.187 100.854 133.36 100.509 133.472C100.163 133.584 99.8226 133.64 99.4866 133.64C99.0759 133.64 98.6933 133.57 98.3386 133.43C97.9839 133.29 97.7039 133.08 97.4986 132.8C97.2933 132.52 97.1906 132.17 97.1906 131.75C97.1906 131.227 97.3633 130.798 97.7086 130.462C98.0633 130.126 98.5533 129.897 99.1786 129.776L101.979 129.23V130.084L99.6686 130.56C99.1926 130.653 98.8379 130.789 98.6046 130.966C98.3713 131.143 98.2546 131.386 98.2546 131.694C98.2546 132.011 98.3713 132.263 98.6046 132.45C98.8473 132.637 99.1926 132.73 99.6406 132.73C99.9113 132.73 100.173 132.697 100.425 132.632C100.677 132.557 100.905 132.445 101.111 132.296C101.316 132.147 101.475 131.96 101.587 131.736C101.708 131.512 101.769 131.246 101.769 130.938V128.964ZM106.004 125.156C105.771 125.156 105.58 125.086 105.43 124.946C105.29 124.797 105.22 124.601 105.22 124.358C105.22 124.125 105.29 123.938 105.43 123.798C105.58 123.649 105.771 123.574 106.004 123.574C106.247 123.574 106.438 123.649 106.578 123.798C106.728 123.938 106.802 124.125 106.802 124.358C106.802 124.601 106.728 124.797 106.578 124.946C106.438 125.086 106.247 125.156 106.004 125.156ZM106.522 126.5V133.5H105.486V126.5H106.522ZM109.109 133.5V126.5H110.019L110.117 128.11L109.949 127.956C110.089 127.583 110.285 127.279 110.537 127.046C110.799 126.803 111.097 126.631 111.433 126.528C111.769 126.416 112.119 126.36 112.483 126.36C112.997 126.36 113.454 126.458 113.855 126.654C114.266 126.841 114.593 127.13 114.835 127.522C115.087 127.914 115.213 128.409 115.213 129.006V133.5H114.177V129.37C114.177 128.595 114.005 128.054 113.659 127.746C113.323 127.429 112.899 127.27 112.385 127.27C112.031 127.27 111.681 127.354 111.335 127.522C110.99 127.69 110.705 127.956 110.481 128.32C110.257 128.675 110.145 129.146 110.145 129.734V133.5H109.109ZM85.6535 145.26C86.2882 145.26 86.8342 145.377 87.2915 145.61C87.7582 145.834 88.1222 146.156 88.3835 146.576C88.6449 146.987 88.7755 147.477 88.7755 148.046C88.7755 148.625 88.6449 149.124 88.3835 149.544C88.1222 149.955 87.7582 150.277 87.2915 150.51C86.8342 150.734 86.2882 150.846 85.6535 150.846H83.4695V154.5H82.4335V145.26H85.6535ZM85.5135 149.88C86.2509 149.88 86.7969 149.721 87.1515 149.404C87.5062 149.087 87.6835 148.634 87.6835 148.046C87.6835 147.458 87.5062 147.01 87.1515 146.702C86.7969 146.385 86.2509 146.226 85.5135 146.226H83.4695V149.88H85.5135ZM93.2201 154.64C92.7628 154.64 92.3381 154.556 91.9461 154.388C91.5541 154.22 91.2368 153.949 90.9941 153.576C90.7514 153.193 90.6301 152.699 90.6301 152.092V147.5H91.6661V151.826C91.6661 152.545 91.8248 153.044 92.1421 153.324C92.4594 153.595 92.9074 153.73 93.4861 153.73C93.7661 153.73 94.0368 153.683 94.2981 153.59C94.5594 153.487 94.7928 153.338 94.9981 153.142C95.2034 152.946 95.3621 152.699 95.4741 152.4C95.5954 152.092 95.6561 151.742 95.6561 151.35V147.5H96.6921V154.5H95.7821L95.7121 153.366C95.4788 153.795 95.1474 154.117 94.7181 154.332C94.2981 154.537 93.7988 154.64 93.2201 154.64ZM99.2724 154.5V147.5H100.182L100.252 148.662C100.495 148.223 100.822 147.897 101.232 147.682C101.652 147.467 102.091 147.36 102.548 147.36C103.071 147.36 103.552 147.481 103.99 147.724C104.429 147.957 104.756 148.317 104.97 148.802C105.12 148.475 105.33 148.209 105.6 148.004C105.871 147.789 106.17 147.631 106.496 147.528C106.832 147.416 107.154 147.36 107.462 147.36C107.92 147.36 108.349 147.453 108.75 147.64C109.152 147.827 109.478 148.116 109.73 148.508C109.992 148.9 110.122 149.399 110.122 150.006V154.5H109.086V150.104C109.086 149.46 108.923 148.993 108.596 148.704C108.27 148.415 107.859 148.27 107.364 148.27C106.982 148.27 106.627 148.363 106.3 148.55C105.974 148.727 105.712 148.993 105.516 149.348C105.32 149.693 105.222 150.118 105.222 150.622V154.5H104.186V150.118C104.186 149.465 104.018 148.993 103.682 148.704C103.356 148.415 102.95 148.27 102.464 148.27C102.128 148.27 101.792 148.359 101.456 148.536C101.13 148.704 100.854 148.97 100.63 149.334C100.416 149.689 100.308 150.151 100.308 150.72V154.5H99.2724ZM112.63 157.44V147.5H113.54L113.638 149.25L113.484 149.082C113.605 148.737 113.787 148.438 114.03 148.186C114.282 147.925 114.58 147.724 114.926 147.584C115.28 147.435 115.663 147.36 116.074 147.36C116.652 147.36 117.18 147.505 117.656 147.794C118.132 148.083 118.514 148.499 118.804 149.04C119.093 149.581 119.238 150.235 119.238 151C119.238 151.756 119.093 152.409 118.804 152.96C118.514 153.501 118.127 153.917 117.642 154.206C117.156 154.495 116.62 154.64 116.032 154.64C115.444 154.64 114.926 154.495 114.478 154.206C114.039 153.907 113.726 153.525 113.54 153.058L113.666 152.862V157.44H112.63ZM115.934 153.73C116.643 153.73 117.198 153.483 117.6 152.988C118.001 152.493 118.202 151.831 118.202 151C118.202 150.169 118.006 149.507 117.614 149.012C117.222 148.517 116.671 148.27 115.962 148.27C115.504 148.27 115.103 148.382 114.758 148.606C114.422 148.83 114.156 149.147 113.96 149.558C113.764 149.959 113.666 150.44 113.666 151C113.666 151.551 113.759 152.031 113.946 152.442C114.142 152.853 114.408 153.17 114.744 153.394C115.089 153.618 115.486 153.73 115.934 153.73Z" fill="#012137"/>
<path d="M54 0.500183L54 205C54 216.046 62.9543 225 74 225L100 225M285 225L102 225L287 225L350 225.001C361.046 225.001 370 233.955 370 245L370 410M261 550L350 550C361.046 550 370 541.046 370 530L370 480M370 480L261 480M370 480L370 410M370 410L261 410" stroke="white" stroke-width="4" stroke-linecap="round" stroke-linejoin="round"/>
<g clip-path="url(#clip6_2031_60282)">
<rect x="138" y="520" width="123" height="60" rx="10" fill="white"/>
<path d="M56.8502 533.444C51.5668 527.519 46.2835 527.519 41.0002 533.444L41 633.5L358 633.5L358 533.444C352.717 527.518 347.433 527.518 342.15 533.444C336.867 527.518 331.583 527.518 326.3 533.444C321.017 527.518 315.733 527.518 310.45 533.444C305.167 527.518 299.883 527.518 294.6 533.444C289.317 527.518 284.033 527.518 278.75 533.444C273.467 527.518 268.183 527.518 262.9 533.444C257.617 527.518 252.333 527.518 247.05 533.444C241.767 527.518 236.483 527.518 231.2 533.444C225.917 527.518 220.633 527.518 215.35 533.444C210.067 527.518 204.783 527.518 199.5 533.444C194.217 527.518 188.933 527.518 183.65 533.444C178.367 527.518 173.084 527.518 167.8 533.444C162.517 527.518 157.234 527.518 151.95 533.444C146.667 527.518 141.383 527.519 136.1 533.444C130.817 527.519 125.534 527.519 120.25 533.444C114.967 527.519 109.684 527.519 104.4 533.444C99.1168 527.519 93.8335 527.519 88.5502 533.444C83.2668 527.519 77.9835 527.519 72.7002 533.444C67.4168 527.519 62.1335 527.519 56.8502 533.444Z" fill="#00D791"/>
<path d="M190.136 546.726H184.732V549.834H188.96V550.8H184.732V555H183.696V545.76H190.136V546.726ZM195.382 550.464C195.382 549.923 195.237 549.507 194.948 549.218C194.659 548.919 194.248 548.77 193.716 548.77C193.221 548.77 192.801 548.877 192.456 549.092C192.111 549.307 191.854 549.652 191.686 550.128L190.846 549.61C191.042 549.078 191.387 548.653 191.882 548.336C192.386 548.019 193.007 547.86 193.744 547.86C194.248 547.86 194.701 547.949 195.102 548.126C195.513 548.294 195.835 548.555 196.068 548.91C196.301 549.265 196.418 549.713 196.418 550.254V553.67C196.418 554.034 196.605 554.216 196.978 554.216C197.155 554.216 197.328 554.193 197.496 554.146L197.44 554.958C197.263 555.051 197.029 555.098 196.74 555.098C196.479 555.098 196.241 555.051 196.026 554.958C195.821 554.855 195.657 554.701 195.536 554.496C195.415 554.281 195.354 554.015 195.354 553.698V553.516L195.62 553.544C195.517 553.917 195.326 554.221 195.046 554.454C194.775 554.687 194.467 554.86 194.122 554.972C193.777 555.084 193.436 555.14 193.1 555.14C192.689 555.14 192.307 555.07 191.952 554.93C191.597 554.79 191.317 554.58 191.112 554.3C190.907 554.02 190.804 553.67 190.804 553.25C190.804 552.727 190.977 552.298 191.322 551.962C191.677 551.626 192.167 551.397 192.792 551.276L195.592 550.73V551.584L193.282 552.06C192.806 552.153 192.451 552.289 192.218 552.466C191.985 552.643 191.868 552.886 191.868 553.194C191.868 553.511 191.985 553.763 192.218 553.95C192.461 554.137 192.806 554.23 193.254 554.23C193.525 554.23 193.786 554.197 194.038 554.132C194.29 554.057 194.519 553.945 194.724 553.796C194.929 553.647 195.088 553.46 195.2 553.236C195.321 553.012 195.382 552.746 195.382 552.438V550.464ZM199.1 555V548H199.954L200.094 549.204C200.28 548.765 200.565 548.434 200.948 548.21C201.33 547.977 201.792 547.86 202.334 547.86C202.464 547.86 202.604 547.874 202.754 547.902C202.903 547.921 203.029 547.958 203.132 548.014L202.936 548.966C202.833 548.919 202.721 548.887 202.6 548.868C202.478 548.84 202.306 548.826 202.082 548.826C201.774 548.826 201.47 548.915 201.172 549.092C200.873 549.269 200.626 549.535 200.43 549.89C200.234 550.235 200.136 550.669 200.136 551.192V555H199.1ZM204.732 555V548H205.642L205.712 549.162C205.955 548.723 206.282 548.397 206.692 548.182C207.112 547.967 207.551 547.86 208.008 547.86C208.531 547.86 209.012 547.981 209.45 548.224C209.889 548.457 210.216 548.817 210.43 549.302C210.58 548.975 210.79 548.709 211.06 548.504C211.331 548.289 211.63 548.131 211.956 548.028C212.292 547.916 212.614 547.86 212.922 547.86C213.38 547.86 213.809 547.953 214.21 548.14C214.612 548.327 214.938 548.616 215.19 549.008C215.452 549.4 215.582 549.899 215.582 550.506V555H214.546V550.604C214.546 549.96 214.383 549.493 214.056 549.204C213.73 548.915 213.319 548.77 212.824 548.77C212.442 548.77 212.087 548.863 211.76 549.05C211.434 549.227 211.172 549.493 210.976 549.848C210.78 550.193 210.682 550.618 210.682 551.122V555H209.646V550.618C209.646 549.965 209.478 549.493 209.142 549.204C208.816 548.915 208.41 548.77 207.924 548.77C207.588 548.77 207.252 548.859 206.916 549.036C206.59 549.204 206.314 549.47 206.09 549.834C205.876 550.189 205.768 550.651 205.768 551.22V555H204.732Z" fill="#012137"/>
</g>
<g clip-path="url(#clip7_2031_60282)">
<rect x="138" y="450" width="123" height="60" rx="10" fill="white"/>
<path d="M56.8502 463.444C51.5668 457.519 46.2835 457.519 41.0002 463.444L41 563.5L358 563.5L358 463.444C352.717 457.518 347.433 457.518 342.15 463.444C336.867 457.518 331.583 457.518 326.3 463.444C321.017 457.518 315.733 457.518 310.45 463.444C305.167 457.518 299.883 457.518 294.6 463.444C289.317 457.518 284.033 457.518 278.75 463.444C273.467 457.518 268.183 457.518 262.9 463.444C257.617 457.518 252.333 457.518 247.05 463.444C241.767 457.518 236.483 457.518 231.2 463.444C225.917 457.518 220.633 457.518 215.35 463.444C210.067 457.518 204.783 457.518 199.5 463.444C194.217 457.518 188.933 457.518 183.65 463.444C178.367 457.518 173.084 457.518 167.8 463.444C162.517 457.518 157.234 457.518 151.95 463.444C146.667 457.518 141.383 457.519 136.1 463.444C130.817 457.519 125.534 457.519 120.25 463.444C114.967 457.519 109.684 457.519 104.4 463.444C99.1168 457.519 93.8335 457.519 88.5502 463.444C83.2668 457.519 77.9835 457.519 72.7002 463.444C67.4168 457.519 62.1335 457.519 56.8502 463.444Z" fill="#00D791"/>
<path d="M190.136 476.726H184.732V479.834H188.96V480.8H184.732V485H183.696V475.76H190.136V476.726ZM195.382 480.464C195.382 479.923 195.237 479.507 194.948 479.218C194.659 478.919 194.248 478.77 193.716 478.77C193.221 478.77 192.801 478.877 192.456 479.092C192.111 479.307 191.854 479.652 191.686 480.128L190.846 479.61C191.042 479.078 191.387 478.653 191.882 478.336C192.386 478.019 193.007 477.86 193.744 477.86C194.248 477.86 194.701 477.949 195.102 478.126C195.513 478.294 195.835 478.555 196.068 478.91C196.301 479.265 196.418 479.713 196.418 480.254V483.67C196.418 484.034 196.605 484.216 196.978 484.216C197.155 484.216 197.328 484.193 197.496 484.146L197.44 484.958C197.263 485.051 197.029 485.098 196.74 485.098C196.479 485.098 196.241 485.051 196.026 484.958C195.821 484.855 195.657 484.701 195.536 484.496C195.415 484.281 195.354 484.015 195.354 483.698V483.516L195.62 483.544C195.517 483.917 195.326 484.221 195.046 484.454C194.775 484.687 194.467 484.86 194.122 484.972C193.777 485.084 193.436 485.14 193.1 485.14C192.689 485.14 192.307 485.07 191.952 484.93C191.597 484.79 191.317 484.58 191.112 484.3C190.907 484.02 190.804 483.67 190.804 483.25C190.804 482.727 190.977 482.298 191.322 481.962C191.677 481.626 192.167 481.397 192.792 481.276L195.592 480.73V481.584L193.282 482.06C192.806 482.153 192.451 482.289 192.218 482.466C191.985 482.643 191.868 482.886 191.868 483.194C191.868 483.511 191.985 483.763 192.218 483.95C192.461 484.137 192.806 484.23 193.254 484.23C193.525 484.23 193.786 484.197 194.038 484.132C194.29 484.057 194.519 483.945 194.724 483.796C194.929 483.647 195.088 483.46 195.2 483.236C195.321 483.012 195.382 482.746 195.382 482.438V480.464ZM199.1 485V478H199.954L200.094 479.204C200.28 478.765 200.565 478.434 200.948 478.21C201.33 477.977 201.792 477.86 202.334 477.86C202.464 477.86 202.604 477.874 202.754 477.902C202.903 477.921 203.029 477.958 203.132 478.014L202.936 478.966C202.833 478.919 202.721 478.887 202.6 478.868C202.478 478.84 202.306 478.826 202.082 478.826C201.774 478.826 201.47 478.915 201.172 479.092C200.873 479.269 200.626 479.535 200.43 479.89C200.234 480.235 200.136 480.669 200.136 481.192V485H199.1ZM204.732 485V478H205.642L205.712 479.162C205.955 478.723 206.282 478.397 206.692 478.182C207.112 477.967 207.551 477.86 208.008 477.86C208.531 477.86 209.012 477.981 209.45 478.224C209.889 478.457 210.216 478.817 210.43 479.302C210.58 478.975 210.79 478.709 211.06 478.504C211.331 478.289 211.63 478.131 211.956 478.028C212.292 477.916 212.614 477.86 212.922 477.86C213.38 477.86 213.809 477.953 214.21 478.14C214.612 478.327 214.938 478.616 215.19 479.008C215.452 479.4 215.582 479.899 215.582 480.506V485H214.546V480.604C214.546 479.96 214.383 479.493 214.056 479.204C213.73 478.915 213.319 478.77 212.824 478.77C212.442 478.77 212.087 478.863 211.76 479.05C211.434 479.227 211.172 479.493 210.976 479.848C210.78 480.193 210.682 480.618 210.682 481.122V485H209.646V480.618C209.646 479.965 209.478 479.493 209.142 479.204C208.816 478.915 208.41 478.77 207.924 478.77C207.588 478.77 207.252 478.859 206.916 479.036C206.59 479.204 206.314 479.47 206.09 479.834C205.876 480.189 205.768 480.651 205.768 481.22V485H204.732Z" fill="#012137"/>
</g>
<g clip-path="url(#clip8_2031_60282)">
<rect x="138" y="379" width="123" height="60" rx="10" fill="white"/>
<path d="M56.8502 392.444C51.5668 386.519 46.2835 386.519 41.0002 392.444L41 492.5L358 492.5L358 392.444C352.717 386.518 347.433 386.518 342.15 392.444C336.867 386.518 331.583 386.518 326.3 392.444C321.017 386.518 315.733 386.518 310.45 392.444C305.167 386.518 299.883 386.518 294.6 392.444C289.317 386.518 284.033 386.518 278.75 392.444C273.467 386.518 268.183 386.518 262.9 392.444C257.617 386.518 252.333 386.518 247.05 392.444C241.767 386.518 236.483 386.518 231.2 392.444C225.917 386.518 220.633 386.518 215.35 392.444C210.067 386.518 204.783 386.518 199.5 392.444C194.217 386.518 188.933 386.518 183.65 392.444C178.367 386.518 173.084 386.518 167.8 392.444C162.517 386.518 157.234 386.518 151.95 392.444C146.667 386.518 141.383 386.519 136.1 392.444C130.817 386.519 125.534 386.519 120.25 392.444C114.967 386.519 109.684 386.519 104.4 392.444C99.1168 386.519 93.8335 386.519 88.5502 392.444C83.2668 386.519 77.9835 386.519 72.7002 392.444C67.4168 386.519 62.1335 386.519 56.8502 392.444Z" fill="#00D791"/>
<path d="M190.136 405.726H184.732V408.834H188.96V409.8H184.732V414H183.696V404.76H190.136V405.726ZM195.382 409.464C195.382 408.923 195.237 408.507 194.948 408.218C194.659 407.919 194.248 407.77 193.716 407.77C193.221 407.77 192.801 407.877 192.456 408.092C192.111 408.307 191.854 408.652 191.686 409.128L190.846 408.61C191.042 408.078 191.387 407.653 191.882 407.336C192.386 407.019 193.007 406.86 193.744 406.86C194.248 406.86 194.701 406.949 195.102 407.126C195.513 407.294 195.835 407.555 196.068 407.91C196.301 408.265 196.418 408.713 196.418 409.254V412.67C196.418 413.034 196.605 413.216 196.978 413.216C197.155 413.216 197.328 413.193 197.496 413.146L197.44 413.958C197.263 414.051 197.029 414.098 196.74 414.098C196.479 414.098 196.241 414.051 196.026 413.958C195.821 413.855 195.657 413.701 195.536 413.496C195.415 413.281 195.354 413.015 195.354 412.698V412.516L195.62 412.544C195.517 412.917 195.326 413.221 195.046 413.454C194.775 413.687 194.467 413.86 194.122 413.972C193.777 414.084 193.436 414.14 193.1 414.14C192.689 414.14 192.307 414.07 191.952 413.93C191.597 413.79 191.317 413.58 191.112 413.3C190.907 413.02 190.804 412.67 190.804 412.25C190.804 411.727 190.977 411.298 191.322 410.962C191.677 410.626 192.167 410.397 192.792 410.276L195.592 409.73V410.584L193.282 411.06C192.806 411.153 192.451 411.289 192.218 411.466C191.985 411.643 191.868 411.886 191.868 412.194C191.868 412.511 191.985 412.763 192.218 412.95C192.461 413.137 192.806 413.23 193.254 413.23C193.525 413.23 193.786 413.197 194.038 413.132C194.29 413.057 194.519 412.945 194.724 412.796C194.929 412.647 195.088 412.46 195.2 412.236C195.321 412.012 195.382 411.746 195.382 411.438V409.464ZM199.1 414V407H199.954L200.094 408.204C200.28 407.765 200.565 407.434 200.948 407.21C201.33 406.977 201.792 406.86 202.334 406.86C202.464 406.86 202.604 406.874 202.754 406.902C202.903 406.921 203.029 406.958 203.132 407.014L202.936 407.966C202.833 407.919 202.721 407.887 202.6 407.868C202.478 407.84 202.306 407.826 202.082 407.826C201.774 407.826 201.47 407.915 201.172 408.092C200.873 408.269 200.626 408.535 200.43 408.89C200.234 409.235 200.136 409.669 200.136 410.192V414H199.1ZM204.732 414V407H205.642L205.712 408.162C205.955 407.723 206.282 407.397 206.692 407.182C207.112 406.967 207.551 406.86 208.008 406.86C208.531 406.86 209.012 406.981 209.45 407.224C209.889 407.457 210.216 407.817 210.43 408.302C210.58 407.975 210.79 407.709 211.06 407.504C211.331 407.289 211.63 407.131 211.956 407.028C212.292 406.916 212.614 406.86 212.922 406.86C213.38 406.86 213.809 406.953 214.21 407.14C214.612 407.327 214.938 407.616 215.19 408.008C215.452 408.4 215.582 408.899 215.582 409.506V414H214.546V409.604C214.546 408.96 214.383 408.493 214.056 408.204C213.73 407.915 213.319 407.77 212.824 407.77C212.442 407.77 212.087 407.863 211.76 408.05C211.434 408.227 211.172 408.493 210.976 408.848C210.78 409.193 210.682 409.618 210.682 410.122V414H209.646V409.618C209.646 408.965 209.478 408.493 209.142 408.204C208.816 407.915 208.41 407.77 207.924 407.77C207.588 407.77 207.252 407.859 206.916 408.036C206.59 408.204 206.314 408.47 206.09 408.834C205.876 409.189 205.768 409.651 205.768 410.22V414H204.732Z" fill="#012137"/>
</g>
<path d="M54 40L54 0" stroke="#1FA4F1" stroke-width="4"/>
</g>
<defs>
<clipPath id="clip0_2031_60282">
<rect width="400" height="610" fill="white"/>
</clipPath>
<clipPath id="clip1_2031_60282">
<rect x="50" y="260" width="300" height="100" rx="10" fill="white"/>
</clipPath>
<clipPath id="clip2_2031_60282">
<path d="M253.22 146.988C253.22 141.465 257.697 136.988 263.22 136.988L283.292 136.988L283.292 193C283.292 198.522 278.815 203 273.292 203L263.22 203C257.697 203 253.22 198.522 253.22 193L253.22 146.988Z" fill="white"/>
</clipPath>
<clipPath id="clip3_2031_60282">
<path d="M218.272 146.988C218.272 141.465 222.749 136.988 228.272 136.988L248.344 136.988L248.344 193C248.344 198.522 243.867 203 238.344 203L228.272 203C222.749 203 218.272 198.522 218.272 193L218.272 146.988Z" fill="white"/>
</clipPath>
<clipPath id="clip4_2031_60282">
<path d="M184.136 146.988C184.136 141.465 188.613 136.988 194.136 136.988L214.208 136.988L214.208 193C214.208 198.522 209.73 203 204.208 203L194.136 203C188.613 203 184.136 198.522 184.136 193L184.136 146.988Z" fill="white"/>
</clipPath>
<clipPath id="clip5_2031_60282">
<path d="M150 146.988C150 141.465 154.477 136.988 160 136.988L180.072 136.988L180.072 193C180.072 198.522 175.595 203 170.072 203L160 203C154.477 203 150 198.522 150 193L150 146.988Z" fill="white"/>
</clipPath>
<clipPath id="clip6_2031_60282">
<rect x="138" y="520" width="123" height="60" rx="10" fill="white"/>
</clipPath>
<clipPath id="clip7_2031_60282">
<rect x="138" y="450" width="123" height="60" rx="10" fill="white"/>
</clipPath>
<clipPath id="clip8_2031_60282">
<rect x="138" y="379" width="123" height="60" rx="10" fill="white"/>
</clipPath>
</defs>
</svg>
